<svg xmlns="http://www.w3.org/2000/svg">
<defs>
<font id="UTMAlpineKT" horiz-adv-x="2132" >
  <font-face 
    font-family="UTM Alpine KT"
    font-weight="400"
    font-stretch="normal"
    units-per-em="2048"
    panose-1="2 4 6 3 5 5 6 2 2 4"
    ascent="1638"
    descent="-410"
    x-height="973"
    cap-height="1797"
    bbox="-4061.15 -955.779 6029 2322"
    underline-thickness="109"
    underline-position="-250"
    unicode-range="U+0020-2026"
  />
<missing-glyph horiz-adv-x="6492" 
d="M4170 1804h11q44 -11 44 -55q0 -12 -38 -60h-33q0 26 33 57l3 11q-6 13 -12 15h-11q-9 0 -11 -20h-35q7 52 49 52zM2613 1774l34 -33q0 -17 -47 -32h-22l-69 13l-13 -13l-33 27q13 30 51 30h12l49 -11h3q11 0 35 19zM800 1736h166v-63h-109v-79h104v-62h-104v-136l-6 -6
h-58v340zM1603 1736h51l6 -6v-82h35v-54h-35v-198l-6 -6h-58v204h-29v54h29v82zM2148 1736h49l5 -6v-99h3q27 26 63 26h3q67 0 96 -75l3 -41v-151h-61v121q0 85 -49 85h-8q-50 0 -50 -91v-115h-60v340zM2825 1736h57l6 -6v-233q11 -54 52 -54q52 8 52 62v225l5 6h58v-228
q0 -89 -77 -118q-18 -8 -41 -8q-55 0 -96 58q-16 25 -16 60v236zM3099 1736h186v-63h-66v-283h-62v283h-64v57zM3317 1736h83q8 -5 96 -264h3l93 264h85v-346h-63v255h-2l-86 -255h-52q-5 0 -68 192l-22 63h-3v-255h-64v346zM4647 1736h61v-346h-52l-6 6v11l3 2l-3 15
q-34 -42 -91 -42q-78 0 -117 96l-6 41v3q0 99 107 132l27 3q41 0 74 -34h3v113zM2657 1681h42l5 -6v-52h-52v-233h-57v25q-27 -33 -69 -33q-104 15 -104 102v164h60v-109q0 -83 30 -91l22 -5h6q31 0 46 38l3 27v140h63v27zM4316 1681v-58h-36v-233h-55v27h-3
q-17 -35 -66 -35q-80 0 -101 82l-3 31v153h60v-126q0 -53 23 -71l24 -8h11q49 0 49 73v132h31q5 0 5 30l3 3h58zM1139 1657q80 0 121 -81q10 -19 14 -57q0 -93 -105 -134l-38 -3q-73 0 -118 77q-14 23 -14 55v10q0 99 118 133h22zM1435 1657h3q87 0 98 -107v-160h-60v126
q0 80 -49 80h-6q-51 0 -51 -80v-126h-61v258h54v-22q34 31 72 31zM1967 1657h8q84 0 123 -94h-71q-18 33 -49 33h-19q-63 -15 -63 -64l-3 -16q14 -73 71 -73h11q26 0 55 29h47l2 3h3l3 -3l2 3l3 -3l3 3l2 -8q-38 -85 -128 -85q-89 0 -129 99l-5 38v3q0 89 90 126q18 9 44 9z

<glyph glyph-name=".notdef" horiz-adv-x="6492" 
d="M4170 1804h11q44 -11 44 -55q0 -12 -38 -60h-33q0 26 33 57l3 11q-6 13 -12 15h-11q-9 0 -11 -20h-35q7 52 49 52zM2613 1774l34 -33q0 -17 -47 -32h-22l-69 13l-13 -13l-33 27q13 30 51 30h12l49 -11h3q11 0 35 19zM800 1736h166v-63h-109v-79h104v-62h-104v-136l-6 -6
h-58v340zM1603 1736h51l6 -6v-82h35v-54h-35v-198l-6 -6h-58v204h-29v54h29v82zM2148 1736h49l5 -6v-99h3q27 26 63 26h3q67 0 96 -75l3 -41v-151h-61v121q0 85 -49 85h-8q-50 0 -50 -91v-115h-60v340zM2825 1736h57l6 -6v-233q11 -54 52 -54q52 8 52 62v225l5 6h58v-228
q0 -89 -77 -118q-18 -8 -41 -8q-55 0 -96 58q-16 25 -16 60v236zM3099 1736h186v-63h-66v-283h-62v283h-64v57zM3317 1736h83q8 -5 96 -264h3l93 264h85v-346h-63v255h-2l-86 -255h-52q-5 0 -68 192l-22 63h-3v-255h-64v346zM4647 1736h61v-346h-52l-6 6v11l3 2l-3 15
q-34 -42 -91 -42q-78 0 -117 96l-6 41v3q0 99 107 132l27 3q41 0 74 -34h3v113zM2657 1681h42l5 -6v-52h-52v-233h-57v25q-27 -33 -69 -33q-104 15 -104 102v164h60v-109q0 -83 30 -91l22 -5h6q31 0 46 38l3 27v140h63v27zM4316 1681v-58h-36v-233h-55v27h-3
q-17 -35 -66 -35q-80 0 -101 82l-3 31v153h60v-126q0 -53 23 -71l24 -8h11q49 0 49 73v132h31q5 0 5 30l3 3h58zM1139 1657q80 0 121 -81q10 -19 14 -57q0 -93 -105 -134l-38 -3q-73 0 -118 77q-14 23 -14 55v10q0 99 118 133h22zM1435 1657h3q87 0 98 -107v-160h-60v126
q0 80 -49 80h-6q-51 0 -51 -80v-126h-61v258h54v-22q34 31 72 31zM1967 1657h8q84 0 123 -94h-71q-18 33 -49 33h-19q-63 -15 -63 -64l-3 -16q14 -73 71 -73h11q26 0 55 29h47l2 3h3l3 -3l2 3l3 -3l3 3l2 -8q-38 -85 -128 -85q-89 0 -129 99l-5 38v3q0 89 90 126q18 9 44 9z
M3924 1657h2q58 0 82 -63v-15h-60q0 17 -19 17h-5q-16 0 -22 -14v-14q0 -9 79 -36q36 -20 36 -63q0 -61 -72 -84l-27 -3q-88 13 -88 87h63q0 -21 31 -26h5q22 0 28 24q0 23 -80 47q-39 28 -39 62q0 69 86 81zM5165 1657q65 0 90 -67q8 -19 8 -68v-132h-60v118q0 88 -47 88
h-13q-38 0 -47 -57v-149h-60v6h-3l3 2v250h55v-22q29 31 74 31zM5433 1657h6q47 0 80 -42v19l-3 3l3 11h55v-219q0 -102 -99 -138l-39 -5h-8q-81 0 -121 85h69q28 -24 52 -25h16q25 0 50 23q17 14 25 55h-3q-38 -42 -85 -42q-67 0 -113 74q-11 19 -16 66q0 93 102 132z
M4754 1648h62v-143q7 -62 47 -62h8q53 0 53 98v107h60v-258h-55l-3 11h3l-3 3v5l3 3v3h-5q0 -24 -66 -33h-3q-69 0 -99 79l-2 89v98zM1060 1516q12 -73 73 -73h9q69 15 69 68v16q-16 69 -69 69h-6q-68 0 -76 -80zM4496 1519q15 -76 71 -76h6q68 0 77 79q0 52 -60 74h-25
q-44 0 -66 -60zM5365 1519q9 -76 76 -76h6q69 13 69 76q0 64 -69 77h-16q-66 -17 -66 -66v-11zM4844 1357h61v-60h-61v60zM1485 1127q51 -11 51 -51v-4q0 -18 -38 -63h-33q0 26 36 60v7q0 13 -8 16h-14q-11 -5 -11 -20h-33v6q0 34 38 46zM4167 1061q108 0 162 -104h-71
q-43 44 -93 44q-64 0 -102 -71q-11 -23 -11 -50q0 -82 94 -115l21 -2q42 0 88 41h71q-51 -102 -161 -102q-109 0 -165 118q-11 33 -11 66q0 102 105 159q33 16 73 16zM4535 1061q67 0 121 -49q54 -54 54 -121v-21q0 -94 -107 -154q-38 -14 -74 -14q-103 0 -161 107
q-15 34 -15 63v19q0 103 115 159q33 11 67 11zM2896 1059h2l55 -11h3q13 0 31 11l21 -38q-21 -20 -41 -20h-3l-63 11l-24 -8l-23 38q21 17 42 17zM1090 1056h22q138 0 151 -27q29 -28 29 -66q-11 -60 -35 -60v-6q55 -24 55 -69v-19q0 -67 -80 -93l-63 -5h-79v345zM3233 1056
h63v-228q6 -65 52 -65q34 0 52 41l3 32v214l5 6h52l6 -6v-180q0 -124 -47 -140q-28 -28 -74 -28q-65 0 -107 80l-5 57v217zM3532 1056h68q5 0 143 -249h5v249h58l5 -6v-339h-68q-34 50 -146 250h-3v-250h-62v345zM3877 1056h63v-345h-63v345zM4763 1056h10q181 0 203 -42
q27 -12 55 -79l5 -38v-11l3 -3q0 -99 -96 -156q-41 -16 -115 -16h-65v345zM5093 1056h179v-63h-121v-79h118v-60h-118v-78l5 -5h116v-60h-184v339zM4417 889v-11q0 -80 93 -113l22 -2q79 0 112 91l3 21v16q0 64 -69 99q-14 8 -46 11q-77 0 -112 -87zM1153 993v-71h11
q63 0 63 30l3 14q-12 27 -34 27h-43zM4825 993v-217l3 -3v-2q121 0 142 80l3 16v30q0 36 -38 72q-29 24 -91 24h-19zM1470 977h6q44 0 83 -42v34h57v-258h-57v33q-42 -42 -94 -42q-87 0 -118 102l-5 38q0 94 99 132zM1789 977h3q87 0 98 -107v-159h-60v134q0 71 -49 71h-12
q-40 0 -46 -65v-140h-60v258h55v-23q32 31 71 31zM2057 977h6q52 0 82 -42v34h55v-231q0 -100 -121 -132h-19q-86 0 -126 86h69q30 -26 51 -26h17q61 0 74 81q-38 -45 -88 -45q-71 0 -118 86l-8 46v17q0 83 99 123zM2488 977h2q50 0 71 -39h3q37 39 80 39h5q67 0 93 -58
q9 -26 9 -47v-161h-61v145q0 46 -27 58l-14 2h-17q-38 0 -43 -68v-137h-60v143q0 62 -50 62h-10q-37 0 -42 -60v-145h-63v258h58v-23h3q7 26 63 31zM2920 977q55 0 88 -44v36h55v-258h-55v33q-42 -42 -91 -42q-87 0 -120 97l-6 43q0 95 99 132zM1405 828q0 -51 71 -65h5
q52 0 72 49l3 16v23q-14 65 -66 65h-17q-47 0 -68 -60v-28zM1991 839q0 -50 50 -71l22 -5h5q55 0 74 60v25q-13 68 -68 68h-14q-58 0 -69 -77zM2854 842v-14q17 -65 66 -65h17q68 13 68 68v11q0 48 -44 69l-21 5h-11q-75 -8 -75 -74zM1153 862v-86q0 -5 8 -5q90 0 90 47
q0 36 -55 44h-43zM3720 445l28 -30l-60 -58q-21 13 -31 28zM2035 417l99 -57q0 -15 -25 -44l-101 57q21 43 27 44zM3584 381h44l65 -63h-63l-25 28l-27 -28h-63q63 63 69 63zM4253 381h46l66 -63h-63l-28 28h-2q0 -6 -22 -28h-63zM980 373h61q9 -4 55 -144l40 -116
q10 9 39 105l57 155h63v-2l-131 -343h-52zM1608 373h60v-57h-60v57zM1836 373h54l6 -5v-340h-60v345zM2961 373h53l5 -5v-82h36v-55h-36v-203h-63v203h-30v55h30v82zM3087 373h61v-103h2q27 24 64 24h3q67 0 95 -74l3 -41v-151h-60v121q0 85 -46 85h-12q-49 0 -49 -91v-115
h-61v345zM3367 373h60v-57h-60v57zM3792 373h52l6 -5v-82h35v-55h-35v-203h-63v203h-31v55h31v82zM4033 373h61v-345h-61v345zM4878 373h60v-345h-60v345zM5297 373h60v-57h-60v57zM2071 294h6q96 0 128 -107l3 -24v-12q0 -87 -99 -126l-41 -5q-89 0 -129 102l-5 33
q0 102 109 137zM2370 294h5q61 0 91 -63q8 -26 8 -85v-118h-63v154q-9 52 -44 52h-11q-45 0 -49 -60v-146h-63v258h57v-22q30 30 69 30zM2644 294h5q53 0 74 -41h3v33h57v-217q0 -107 -104 -142l-32 -3h-6q-85 0 -124 85h61l43 -21l18 -3h16q59 0 71 76q-38 -41 -85 -41
q-72 0 -115 80q-12 24 -14 63q0 89 101 129zM3603 294h2q96 0 130 -109l2 -27l-2 -28h-201q17 -47 52 -47l17 -3q34 0 57 23h67v-3q-41 -80 -127 -80q-89 0 -129 102l-2 29v9q0 51 38 93q40 41 96 41zM4261 294h5q48 0 82 -41h3v33h55v-258h-55v33h-3q-40 -41 -90 -41
q-83 0 -118 93l-5 38v15q0 90 98 126zM4590 294h8q103 0 126 -134l-3 -2v-15q0 -69 -77 -112q-24 -11 -54 -11q-40 0 -75 33v-104l-5 -5h-58v342h58v-30q36 38 80 38zM5105 294q51 0 87 -41v33h58v-258h-58v33q-41 -41 -90 -41q-107 0 -126 138q0 89 85 128q18 8 44 8z
M1331 286h58v-143q4 -63 49 -63h6q52 0 52 91v115h60v-258h-55v25h-5q0 -24 -66 -33h-3q-64 0 -96 71q-5 37 -5 104v86zM1608 286h60v-258h-60v258zM3367 286h60v-258h-60v258zM5297 286h60v-258h-60v258zM1997 166v-17q15 -69 69 -69h5q69 0 77 80q-15 74 -69 74h-13
q-69 -17 -69 -68zM2575 149q18 -69 69 -69h13q56 0 69 78v2q-15 74 -69 74h-16q-46 0 -66 -60v-25zM3532 185h142v2q-19 47 -69 47h-8q-41 0 -65 -49zM4195 151q15 -71 71 -71h6q61 0 76 66v12q-11 76 -66 76h-19q-65 -15 -65 -66zM4510 155q14 -75 71 -75h3q59 0 77 63v23
q0 45 -58 68h-25q-55 0 -68 -76v-3zM5039 149q12 -69 77 -69q50 0 71 50l3 16v17q0 57 -61 71h-21q-49 0 -69 -63v-22zM4245 -10h60v-55h-60v55zM5088 -10h60v-55h-60v55zM3447 -208h5q41 0 50 -52v-2q0 -17 -28 -44l-11 -17h-33q0 26 33 58l3 3v2q-4 20 -11 20h-11
q-9 0 -11 -20h-35q7 52 49 52zM2060 -226l61 -63l-31 -20l-60 55zM665 -265h5q87 -50 99 -63l-24 -39q-102 52 -102 61zM4332 -265l101 -60l-22 -42q-11 0 -106 58q18 38 27 44zM5603 -268l23 -44l-107 -55l-23 42l107 60v-3zM1660 -292h60v-20l6 -5h16v-38h-16l-6 -5v-294
h-54v33q-39 -42 -94 -42q-84 0 -120 110l-3 28q0 107 118 137h16q39 0 77 -34v62l-6 5h-51v38h57v25zM1983 -300h47l65 -64h-62l-27 28l-26 -28h-63zM3340 -300h38q14 0 74 -64h-63l-27 28q-22 -22 -22 -28h-68v4zM311 -309h187v-63h-66v-282h-58l-5 6v257l3 3v2l-3 3l3 3
l-3 2l3 3l-3 3h-63v57zM1070 -309h55v-77l3 -2l-3 -3v-3l3 -2l-3 -3v-3l3 -2v-3l-3 -3l3 -3h3q20 25 60 25h3q62 0 90 -61q8 -18 8 -44v-161h-60v134q0 71 -47 71h-10q-50 0 -50 -90v-115h-60v339zM1769 -309h55l6 -6v-52h-61v58zM2575 -309h61v-208l82 121h73l-92 -124
l106 -132v-2h-82q-12 23 -87 121v-121h-61v345zM2907 -309v-104q28 25 62 25q67 0 94 -58q11 -21 11 -82v-126h-63v140q0 65 -47 65h-13q-37 0 -44 -57v-148h-61v331l-2 3v3l2 2l-2 3l2 3h61zM3126 -309h60v-58h-60v58zM3932 -309h60v-113q32 34 80 34h3q88 0 123 -99l5 -38
q0 -79 -74 -127q-35 -11 -57 -11q-48 0 -85 42v-33h-55v345zM5250 -309h60v-104h3q26 25 63 25h3q70 0 96 -77l2 -44v-145h-60v117q0 86 -38 86l-11 2h-14q-44 0 -44 -84v-121h-60v345zM638 -388h3v-61h-6q-49 0 -49 -60v-145h-61v258h55v-22q20 30 58 30zM912 -388
q84 0 101 -91v-175h-60v143q-6 62 -47 62h-8q-52 0 -52 -88v-117h-61v258h58v-22q30 30 69 30zM2011 -388q84 0 123 -99l6 -41q-3 -25 -9 -25h-197q20 -49 72 -49q29 0 57 22h66q-39 -83 -126 -83q-96 0 -132 110v39q0 85 104 123zM3359 -388h5q90 0 126 -102l3 -27v-22
l-3 -14h-199q21 -49 62 -49h14q24 0 49 22h69q-40 -83 -123 -83q-98 0 -134 107l-3 31q0 97 107 134zM3660 -388h5q63 0 91 -63q8 -26 8 -86v-117h-63v145q0 51 -41 60h-13q-44 0 -50 -60v-145h-63v258h58v-22q29 30 68 30zM4353 -388h7q47 0 82 -42h2v34h55v-258h-55v33h-2
q-40 -42 -91 -42q-83 0 -118 94l-5 39v13q0 86 90 123q13 6 35 6zM4672 -388h5q72 0 96 -82l3 -88v-96h-63v145q0 51 -44 60h-11q-44 0 -49 -54v-151h-63v258h57v-22q30 30 69 30zM5083 -388h2q86 0 121 -97l5 -43q0 -92 -98 -132l-30 -3q-48 0 -79 36v-112h-61v343h55v-31
q35 39 85 39zM5762 -388h6q40 0 74 -39q31 39 80 39h8q65 0 92 -69l7 -54v-143h-61v129q0 76 -46 76h-8q-41 0 -47 -52v-147l-6 -6h-57v148q0 44 -36 57h-19q-47 0 -47 -81v-124h-60v258h55v-22q26 30 65 30zM673 -396h57l6 -6v-246l-6 -6h-57v258zM1769 -396h61v-258h-61
v258zM2181 -396h60v-143q5 -63 50 -63h5q52 0 52 85v121h60v-258h-54v25h-6q-14 -34 -69 -34q-61 0 -93 66q-5 13 -5 36v165zM3126 -396h60v-258h-60v258zM5530 -396h60v-258h-60v258zM1512 -525q0 -56 60 -77h14q63 0 77 69v11q0 56 -63 73h-20q-45 0 -68 -60v-16z
M1934 -498h143q-22 49 -63 49h-8q-50 0 -72 -46v-3zM3291 -498h142q-24 49 -63 49h-8q-54 0 -71 -49zM3989 -514v-11q11 -77 71 -77h6q74 8 74 74v6q0 47 -44 68l-21 5h-17q-69 -14 -69 -65zM4288 -530q16 -72 72 -72h13q48 0 69 63v14q-10 76 -66 76h-20q-54 0 -68 -76v-5z
M5001 -514v-23q0 -49 68 -65h11q58 0 71 80q-15 73 -68 73h-17q-65 -17 -65 -65z" />
    <glyph glyph-name=".null" horiz-adv-x="0" 
 />
    <glyph glyph-name="nonmarkingreturn" horiz-adv-x="571" 
 />
    <glyph glyph-name="space" unicode=" " horiz-adv-x="600" 
 />
    <glyph glyph-name="exclam" unicode="!" horiz-adv-x="1337" 
d="M1114 1907q114 0 225 -185v-27q0 -80 -271 -356q-633 -671 -633 -963q0 -18 33 -53l-20 -20q-154 0 -178 205v20q0 202 587 904q257 345 257 402l-13 66l7 7h6zM178 244h13q109 0 125 -132q0 -127 -171 -145q-139 26 -139 132v26q0 95 172 119z" />
    <glyph glyph-name="quotedbl" unicode="&#x22;" horiz-adv-x="705" 
d="M543 1554q133 -38 133 -103v-12q-131 -174 -308 -259q0 -11 -54 -19l-6 6v6q0 19 217 356q3 25 18 25zM235 1517q69 0 133 -90v-12q-38 -110 -302 -272l-60 -18l-6 6v6q0 20 217 362z" />
    <glyph glyph-name="numbersign" unicode="#" horiz-adv-x="1467" 
d="M830 1528q72 0 144 -131v-6q0 -72 -231 -319l-19 -25h6l325 -6q281 374 281 431l-7 56h7q86 0 149 -137q0 -80 -262 -356v-6h169q48 0 62 -32v-6q0 -31 -256 -31h-37q-23 -16 -137 -181h268q94 -6 94 -38q0 -37 -437 -56q-256 -362 -256 -449l25 -44l-13 -12
q-93 0 -112 125v12q0 66 200 356v6l-356 -12h-6q-226 -296 -244 -425v-6q0 -21 19 -44q0 -12 -19 -12q-87 0 -106 137q0 57 194 343h-7l-131 -6q-137 11 -137 119v25l12 12q82 -31 169 -31h175l112 168h-281q-112 15 -112 113v31l12 12q152 -50 468 -50v7q269 352 269 430
l-6 32l6 6h6zM512 779h356l112 162v6h-337z" />
    <glyph glyph-name="dollar" unicode="$" horiz-adv-x="1319" 
d="M1095 1528h19q137 -27 137 -113v-12q0 -71 -119 -162q150 -39 150 -150q-48 -169 -299 -169h-13q-75 0 -75 25v7q5 21 237 81q44 28 44 56q-50 31 -150 31h-6q-264 -245 -387 -406q75 -60 75 -106q0 -148 -356 -249q-54 0 -81 -75q-48 -77 -56 -131l12 -56q0 -17 -31 -32
q-65 0 -106 100q0 36 88 187h-7q-108 0 -137 107q0 110 275 149h75l6 -6h6l75 100q-350 134 -350 193l-18 63q23 105 206 200q330 118 605 118l44 -6q92 120 125 181l-7 56zM246 929q16 -18 300 -150q192 205 299 349h-6q-496 -65 -580 -181zM558 648l-106 -131h6
q125 50 125 93q-12 38 -25 38zM134 473v-6h69q97 0 137 75h-6q-200 -36 -200 -69z" />
    <glyph glyph-name="percent" unicode="%" horiz-adv-x="1253" 
d="M1065 1422q113 0 162 -150v-6q0 -83 -150 -231q-885 -1035 -886 -1230q6 -30 31 -56v-6l-12 -19q-144 21 -144 112q0 184 843 1236q162 230 162 281l-13 62zM515 1259q181 -69 181 -187q-9 -145 -218 -393q-151 -150 -225 -150h-25q-162 33 -162 187q0 205 350 500z
M172 704v-31q0 -44 44 -44h19q121 0 318 343q31 72 31 138q-12 37 -37 37q-146 0 -356 -362zM927 529q181 -70 181 -187q0 -158 -287 -462q-112 -81 -168 -81h-13q-129 0 -168 181q0 184 293 456q90 77 162 93zM578 -57q22 -44 50 -44q151 0 349 381q19 50 19 87
q-5 50 -50 50q-177 -48 -337 -350q-31 -62 -31 -124z" />
    <glyph glyph-name="ampersand" unicode="&#x26;" horiz-adv-x="1489" 
d="M1229 1684q130 0 204 -191l6 -32q0 -206 -643 -579q-45 0 -45 -159v-83q0 -91 19 -178l121 121q-51 59 -51 114v32l20 19l44 -13l331 32q147 -17 147 -57v-19q0 -13 -191 -32q-204 -53 -204 -83l-172 -242v-6q90 -153 185 -153l127 38l6 -6q0 -129 -184 -178h-26
q-119 0 -223 184q-202 -216 -369 -216h-13q-255 0 -318 337q0 305 611 573q0 230 185 503q176 211 433 274zM796 997q541 319 541 528q-186 0 -446 -318q-66 -95 -101 -210h6zM153 258v-19q24 -96 95 -96q152 0 408 217q-38 180 -51 401q-452 -303 -452 -503z" />
    <glyph glyph-name="quotesingle" unicode="'" horiz-adv-x="399" 
d="M235 1517q69 0 133 -90v-12q-38 -110 -302 -272l-60 -18l-6 6v6q0 20 217 362z" />
    <glyph glyph-name="parenleft" unicode="(" horiz-adv-x="675" 
d="M1195 1812q114 -36 114 -121v-7q0 -49 -95 -57q-190 -61 -548 -395q-528 -543 -528 -1051l6 -165l-19 -13q-121 0 -121 261v19q0 623 726 1267q339 262 465 262z" />
    <glyph glyph-name="parenright" unicode=")" horiz-adv-x="1200" 
d="M909 1761h25q93 0 108 -261v-20q0 -583 -471 -1171q-330 -344 -573 -344q-26 9 -38 32q18 32 153 102q312 242 439 484q299 478 299 904l-38 197q39 77 96 77z" />
    <glyph glyph-name="asterisk" unicode="*" horiz-adv-x="793" 
d="M607 1665h13q11 0 32 -38q0 -88 -185 -268q-10 -28 -38 -44h-6q56 306 108 306q40 44 76 44zM353 1525q57 -20 57 -64v-70l-6 -95h-7q-91 49 -146 114v26q0 70 102 89zM735 1525l19 -25q0 -87 -312 -204v6q195 223 293 223zM174 1359q32 0 217 -70v-12l-287 -70
q-76 0 -76 57q0 54 146 95zM716 1359q54 0 76 -38v-25q-58 -89 -146 -89q-38 0 -217 70v12zM410 1264h6q147 -81 147 -134v-19q0 -59 -96 -76q-57 0 -57 95v134zM372 1258q-195 -223 -287 -223q-25 9 -25 19v6q0 104 312 198zM397 1258v-7q0 -143 -89 -293q-52 -45 -95 -57
q-39 0 -39 45v6q0 72 223 306z" />
    <glyph glyph-name="plus" unicode="+" horiz-adv-x="1301" 
d="M1051 1254h33q26 0 34 -20v-4q0 -16 -208 -383h315q58 0 58 -19v-10q-30 -82 -97 -82h-344q-198 -372 -227 -402q-54 -19 -97 -19q-43 5 -43 19v5q7 30 217 397h-343q-26 0 -34 19v5q32 87 102 87h338q190 352 228 392q37 15 68 15z" />
    <glyph glyph-name="comma" unicode="," horiz-adv-x="421" 
d="M266 286q108 -37 108 -72v-36q-112 -148 -283 -272q-84 -48 -103 -48h-6l-12 12q39 75 272 410z" />
    <glyph glyph-name="hyphen" unicode="-" horiz-adv-x="696" 
d="M105 453h544q22 0 28 -16q-28 -76 -80 -76h-512q-52 0 -52 24q35 68 72 68z" />
    <glyph glyph-name="hyphen" unicode="&#x2010;" horiz-adv-x="696" 
d="M105 453h544q22 0 28 -16q-28 -76 -80 -76h-512q-52 0 -52 24q35 68 72 68z" />
    <glyph glyph-name="period" unicode="." horiz-adv-x="349" 
d="M176 208q108 -10 108 -97v-6q0 -95 -114 -108h-12q-103 11 -103 102v12q0 71 121 97z" />
    <glyph glyph-name="slash" unicode="/" horiz-adv-x="1270" 
d="M1042 1747q101 0 199 -157l6 -24v-12q0 -84 -265 -344q-564 -642 -761 -966q-78 -134 -78 -193l30 -54v-6l-12 -12q-137 0 -157 175v12q0 121 778 1122q226 275 260 380l-12 73l6 6h6z" />
    <glyph glyph-name="zero" unicode="0" horiz-adv-x="1124" 
d="M1033 1693q165 -35 359 -237q51 -111 51 -180q0 -268 -378 -776q-396 -481 -687 -481q-259 0 -372 340l-6 90v6q0 300 443 821q368 381 590 417zM167 314q0 -154 122 -154h25q300 0 796 783q134 261 134 391v39q0 122 -115 122q-276 0 -731 -623q-231 -356 -231 -558z
" />
    <glyph glyph-name="one" unicode="1" horiz-adv-x="550" 
d="M995 1680q110 -37 110 -123v-6q0 -64 -247 -338q-746 -874 -746 -1200l-6 -7v-6q-104 48 -104 201q0 257 448 811l292 383l-221 -123h-13l-13 13v13q0 29 467 369z" />
    <glyph glyph-name="two" unicode="2" horiz-adv-x="1178" 
d="M1215 1668q186 0 320 -212q32 -71 39 -148q0 -187 -423 -538q-435 -322 -744 -462l-103 -51v-7h6q132 24 359 32q306 0 405 -90l6 -32l-26 -12q-177 38 -282 38q-252 0 -609 -154l-45 -13q-67 0 -122 180q0 66 353 244q1071 690 1071 994q0 46 -122 58q-306 0 -654 -257
q-64 -55 -64 -83l6 -58h-32q-103 69 -103 186q0 97 315 263q266 122 449 122z" />
    <glyph glyph-name="three" unicode="3" horiz-adv-x="1266" 
d="M1176 1670h6q267 0 340 -267l7 -53q0 -288 -817 -490v-6q326 0 385 -209l7 -66q0 -326 -542 -535q-60 -26 -242 -46q-231 0 -313 183l-7 59v6q28 118 52 118h7l6 -7h7l-7 -65q35 -105 170 -105h26q345 0 673 321q46 77 46 117v13q0 103 -281 118l-183 -13q-72 23 -72 52
v33q13 28 373 176q601 279 601 405q-31 72 -209 72q-353 0 -660 -183l-26 -33v-19l6 -26l-19 -27q-72 0 -98 177v6q0 143 529 275q121 19 235 19z" />
    <glyph glyph-name="four" unicode="4" horiz-adv-x="970" 
d="M1244 1703q118 0 209 -163v-13q0 -45 -399 -549l-98 -137q165 0 327 98l6 -7v-6q-39 -124 -137 -177q-119 -39 -294 -39q-332 -437 -379 -699h-13q-84 0 -117 183q0 149 268 516v7q-154 0 -497 -59h-13q-50 0 -104 163l-7 7q0 50 248 189q663 448 993 686h7zM212 847v-6
h13q96 26 287 26h7q118 0 196 -13l444 633v7q-359 -296 -947 -647z" />
    <glyph glyph-name="five" unicode="5" horiz-adv-x="1174" 
d="M1621 1762h20l13 -13q-56 -189 -216 -281q-145 -59 -372 -59l-150 20l-373 -484h7q224 59 326 59q320 -40 320 -307q0 -301 -405 -549q-260 -143 -444 -143q-237 0 -326 176q-20 31 -20 98q0 100 72 131q31 -144 59 -144q39 -52 169 -52h20q307 0 621 287
q117 131 117 248q0 72 -111 72h-65q-109 0 -399 -91h-6q-80 31 -118 130l-6 33q134 244 568 790q107 -39 170 -39h33q281 0 496 118z" />
    <glyph glyph-name="six" unicode="6" horiz-adv-x="1424" 
d="M1321 1687q137 -47 137 -98l-157 -26q-120 -41 -307 -144q-191 -119 -425 -360q147 95 261 105q193 0 314 -209l20 -98q0 -224 -268 -550q-320 -307 -556 -307q-146 0 -294 170q-46 104 -46 183v13q0 434 634 1007q389 314 687 314zM150 281v-26q0 -94 125 -111
q234 0 588 438q124 209 124 288v59q0 91 -111 104q-286 0 -614 -458q-112 -185 -112 -294z" />
    <glyph glyph-name="seven" unicode="7" horiz-adv-x="1208" 
d="M1049 1700q51 0 144 -144l13 -39q0 -80 -392 -438q-515 -543 -602 -752q-59 -126 -85 -301q-124 62 -124 196q0 321 647 948q0 13 373 380h-6q-637 -138 -779 -138q-109 0 -163 216v20q0 16 26 19l72 -26h13q169 0 863 59z" />
    <glyph glyph-name="eight" unicode="8" horiz-adv-x="1212" 
d="M1210 1713q220 0 353 -288l6 -85q0 -207 -444 -470l-177 -66v-6q58 0 111 -196l7 -40q0 -116 -170 -294q-285 -255 -595 -255q-201 0 -294 255l-7 65v7q0 259 477 471q-124 134 -124 255q0 344 634 601q107 33 223 46zM523 987q0 -104 98 -104h33q218 0 588 307
q151 152 151 255q0 85 -105 85q-301 0 -660 -320q-105 -132 -105 -223zM137 281v-19q0 -75 79 -85h32q331 0 615 326q52 76 52 151q-25 59 -91 59h-33q-192 0 -516 -223q-138 -126 -138 -209z" />
    <glyph glyph-name="nine" unicode="9" horiz-adv-x="1299" 
d="M1115 1676q196 0 363 -231l19 -93q0 -388 -679 -1055q-350 -297 -673 -297q-145 20 -145 73q132 0 343 92q189 91 515 449l13 26h-7q-133 -125 -283 -125q-203 0 -297 250l-7 53q0 209 224 501q330 357 614 357zM455 778v-39q12 -106 99 -106h40q239 0 580 416
q139 219 139 343v20q-19 112 -112 112h-40q-181 -7 -508 -350q-191 -237 -198 -396z" />
    <glyph glyph-name="colon" unicode=":" horiz-adv-x="587" 
d="M445 817q103 -17 103 -96q0 -98 -127 -115q-108 17 -108 109q0 80 132 102zM156 431h18q96 -12 96 -96v-6q0 -88 -120 -109q-109 16 -109 103v6q0 85 115 102z" />
    <glyph glyph-name="semicolon" unicode=";" horiz-adv-x="688" 
d="M501 618h6q71 0 91 -96q0 -97 -133 -109q-103 19 -103 103q0 88 139 102zM266 286q108 -37 108 -72v-36q-112 -148 -283 -272q-84 -48 -103 -48h-6l-12 12q39 75 272 410z" />
    <glyph glyph-name="less" unicode="&#x3c;" horiz-adv-x="1105" 
d="M92 780l958 359v-258l-616 -219l616 -220v-256l-958 359v235z" />
    <glyph glyph-name="equal" unicode="=" horiz-adv-x="1003" 
d="M913 516q48 0 48 -16v-8q-24 -68 -80 -68h-692q-21 0 -28 16v4q26 72 84 72h668zM785 308q48 0 48 -16v-8q-24 -68 -80 -68h-692q-21 0 -28 16v4q26 72 84 72h668z" />
    <glyph glyph-name="greater" unicode="&#x3e;" horiz-adv-x="1105" 
d="M1050 545l-958 -359v256l616 220l-616 219v258l958 -359v-235z" />
    <glyph glyph-name="question" unicode="?" horiz-adv-x="1258" 
d="M894 1688h7q224 0 343 -268l13 -83q0 -223 -592 -465q-280 -159 -280 -299l32 -57v-7l-13 -12h-26q-114 35 -114 83q-14 0 -19 57v25q0 203 554 472q305 183 305 324q0 46 -121 58q-326 0 -681 -281l-32 -51l6 -63h-31q-102 68 -102 184q0 111 382 300q228 83 369 83z
M206 395h7q108 -11 108 -102q0 -131 -172 -166h-38q-75 0 -102 96q0 153 197 172z" />
    <glyph glyph-name="at" unicode="@" horiz-adv-x="1999" 
d="M1396 1393h33q369 0 482 -344l17 -147v-8q0 -395 -360 -752q-142 -123 -278 -123q-164 0 -188 229q0 111 41 204h-8q-178 -117 -483 -449h-8q-82 0 -114 155v8q0 256 400 605q242 188 434 188q47 0 147 -147l16 -49v-16q-19 -115 -49 -115l-8 8v17l16 65v25
q-20 41 -81 41q-295 0 -622 -401q-98 -149 -98 -213q426 369 548 409h8q83 -60 98 -90q-98 -143 -98 -286q11 -106 57 -106q156 0 376 376q123 255 123 441q0 246 -204 327l-99 17h-57q-408 0 -866 -540q-221 -338 -221 -597v-49q0 -305 360 -417l65 -8q271 0 482 164h17
l8 -9v-24q-207 -196 -507 -196q-362 0 -523 376q-33 119 -33 212v49q0 455 515 892q362 278 662 278z" />
    <glyph glyph-name="A" unicode="A" 
d="M1696 1680q391 0 854 -186q88 -80 109 -164q-3 -39 -131 -170q-265 -303 -411 -514q0 -13 39 -17q109 -53 109 -87l-5 -6h-17l-158 66q-197 -309 -214 -482q0 -79 71 -104v-5l-11 -11h-5q-144 0 -170 197l-5 33q0 138 158 421h-5q-154 44 -295 44h-6q-645 -553 -886 -618
q-183 -77 -350 -77q-257 0 -351 181q-16 26 -16 82v5q0 276 733 443q274 49 624 49l126 -5l935 711q-345 104 -662 104q-607 -28 -607 -169l27 -39l-11 -11q-87 35 -87 132q0 169 481 197h137zM1652 739q106 0 285 -44q121 212 427 563q-151 -92 -712 -519zM98 279
q0 -79 93 -115l99 -16q255 0 613 213q192 111 509 334v5h-33q-816 0 -1220 -306q-56 -61 -61 -115z" />
    <glyph glyph-name="B" unicode="B" horiz-adv-x="1437" 
d="M1368 1687q444 0 588 -241q40 -65 40 -196q0 -269 -331 -415q-108 -67 -521 -174l-56 -11v-5q187 0 252 -146l5 -67q0 -166 -336 -354q-179 -78 -297 -78q-196 38 -196 151q0 174 448 258h62l11 -11l-241 -78q-191 -80 -191 -141v-5q6 -17 34 -17h6q251 0 515 196
q84 80 84 140v6q0 90 -336 90h-28q-45 0 -45 50q0 32 140 62q357 123 589 263q301 184 325 320q0 172 -381 224l-123 6h-17q-590 0 -1088 -382q-123 -120 -123 -229q0 -40 56 -141v-11l-11 -11q-117 45 -191 207l-11 68v5q0 295 650 544q360 123 718 123zM1228 1121
q22 -8 22 -17v-5q0 -39 -84 -62q-165 -80 -409 -331q-163 -185 -163 -319q0 -22 34 -56q-42 -23 -73 -23q-105 0 -129 140v6q0 272 611 611q122 53 191 56z" />
    <glyph glyph-name="C" unicode="C" horiz-adv-x="1138" 
d="M1368 1682q115 0 243 -249l6 -41q-181 -164 -444 -296l-24 -6l-6 18q0 13 302 325l18 36q-25 24 -59 24h-6q-358 0 -889 -474q-361 -367 -361 -640q0 -134 113 -195q52 -24 112 -24h18q313 0 764 420h18q12 0 12 -17q-20 -83 -279 -338q-263 -219 -480 -219
q-256 0 -396 296q-30 95 -30 154v42q0 386 575 858q481 326 793 326z" />
    <glyph glyph-name="D" unicode="D" horiz-adv-x="1807" 
d="M1321 1684h34q551 0 710 -386q28 -104 28 -185v-17q0 -326 -449 -715q-489 -381 -883 -381h-34q-185 45 -185 185q0 46 98 126q93 73 294 139q173 40 243 40l51 -11v-12q-576 -174 -576 -277q5 -17 34 -17h18q390 0 934 444q340 298 340 565q0 145 -196 248
q-168 81 -375 81h-29q-635 0 -1124 -456q-98 -106 -98 -219q0 -56 75 -144l5 -6v-5l-17 -12q-91 0 -196 196q-23 63 -23 104q0 206 484 507q407 208 837 208zM1286 1200h23l17 -18v-23q-11 -14 -138 -75q-159 -83 -427 -375q-138 -181 -138 -294v-6q0 -25 34 -63
q0 -14 -69 -29q-155 34 -155 144v18q0 257 605 634q167 87 248 87z" />
    <glyph glyph-name="E" unicode="E" horiz-adv-x="1458" 
d="M1463 1578q119 0 170 -66l346 -11l39 17q66 0 88 -94q-359 -275 -396 -275v6q0 21 154 220l5 5v6l-187 11h-153q-117 -34 -605 -517l-61 -72h6q399 33 577 66q44 -20 44 -77v-5q-109 -99 -264 -165l-5 16l71 110h-5q-545 -20 -545 -82q-214 -237 -214 -396
q0 -105 110 -121l22 -6q279 0 786 347h17l22 -17v-16q-493 -462 -798 -462q-174 0 -297 198q-22 60 -22 126q0 163 143 352l-66 -5q-137 14 -137 88v5l82 -11l193 17q189 269 616 616h-6q-368 -33 -632 -138q-385 -178 -385 -330v-16q0 -45 82 -99v-6l-11 -11h-22
q-139 0 -214 138q-11 21 -11 60v11q0 168 379 347q430 162 946 159q90 74 138 77z" />
    <glyph glyph-name="F" unicode="F" horiz-adv-x="1175" 
d="M1607 1766q168 -16 168 -72l396 -18l48 18h6q84 -25 84 -84v-12q-111 -105 -408 -299h-12l-6 6v12l174 234q-117 23 -360 23q-73 0 -234 -149q-140 -86 -551 -516l-6 -6v-6q435 30 635 66q54 -31 54 -78v-12q-110 -107 -288 -180l-6 6v6q0 14 78 114v6h-60
q-527 -16 -527 -54q-366 -432 -366 -654v-12q0 -52 72 -90q0 -10 -36 -18q-118 0 -180 174l-6 48q0 198 252 540l-42 -6h-30q-144 14 -144 96h6l66 -6h12q240 0 240 48q459 509 665 666h-12q-171 0 -617 -126q-480 -199 -480 -378v-24q0 -43 90 -108l-18 -18
q-264 37 -264 222q0 234 534 426q442 131 893 131l132 78z" />
    <glyph glyph-name="G" unicode="G" horiz-adv-x="1303" 
d="M1573 1687q206 0 267 -233l6 -34q-53 -205 -145 -205q-33 13 -33 22v11q89 96 89 183v11q0 35 -139 45q-380 0 -888 -311q-132 -80 -350 -311q-239 -273 -239 -483q0 -68 83 -78q298 0 1116 605l34 12q52 0 105 -78q-11 -131 -139 -333h61l11 -11q0 -32 -105 -56
q-456 -672 -761 -672q-116 27 -116 139q0 223 577 528l156 55q136 185 172 317q-796 -656 -1033 -656q-182 0 -266 223q-17 42 -17 99q0 497 788 978q431 233 766 233zM519 -95h11q153 0 572 505h-6q-270 -129 -477 -333q-100 -113 -100 -172z" />
    <glyph glyph-name="H" unicode="H" horiz-adv-x="2073" 
d="M1577 1685q215 0 291 -115q24 -52 24 -91q0 -97 -327 -418q-275 -256 -382 -370h6q439 54 746 78q630 684 655 862q0 42 12 42q104 0 170 -152l6 -30q0 -162 -607 -716q176 -15 176 -42q0 -49 -61 -49l-200 13q-370 -385 -370 -619l18 -67l-18 -6q-170 30 -170 170
q0 148 304 509q-418 -42 -783 -109q-285 -332 -285 -491l12 -73l-12 -12q-112 0 -169 134v24q0 131 169 358l-115 -12h-36q-219 0 -219 181v31q0 12 19 12q94 -73 248 -73h43l182 6q776 829 776 886h-6l-24 6h-67q-638 0 -1256 -401q-151 -133 -151 -194q0 -25 42 -66l-6 -6
v-6q-117 0 -212 188v30q0 223 697 449q467 139 880 139z" />
    <glyph glyph-name="I" unicode="I" horiz-adv-x="1146" 
d="M1674 1797l155 -106q564 -71 564 -217v-6q0 -39 -50 -74h-25l-12 12v6l12 19v6q-149 105 -471 105h-136q-166 -109 -601 -564q-452 -528 -472 -781q277 -3 354 -93l-13 -18l-111 12h-174q-323 0 -520 -155v-6l24 -31l-12 -12h-25q-118 17 -118 111q0 144 453 192h18
q-43 50 -43 81q0 349 874 1240h-6q-233 0 -719 -137q-477 -198 -477 -353q0 -74 148 -99l7 -6v-19l-31 -6h-25q-204 0 -242 204v50q0 144 167 223q554 316 1364 316q93 106 143 106z" />
    <glyph glyph-name="J" unicode="J" horiz-adv-x="1584" 
d="M2044 1685q260 0 328 -133v-19q-14 -124 -498 -675h6q237 0 237 -30v-6l-24 -25h-250q-333 -394 -602 -663q-589 -511 -943 -511q-219 0 -286 158q-12 24 -12 67v13q0 364 748 736q212 103 542 188l346 67q536 676 536 712q-283 -3 -718 -104q-380 -132 -493 -292
q-24 -46 -24 -73q0 -24 36 -60l-6 -7v-6q-119 0 -188 183v30q0 217 577 371q370 79 688 79zM116 -158v-6q0 -67 103 -67q429 0 1247 870l97 122h-6q-661 -127 -1113 -475q-328 -254 -328 -444z" />
    <glyph glyph-name="K" unicode="K" horiz-adv-x="1774" 
d="M2284 1689q226 -29 226 -173v-6q0 -329 -791 -749q-420 -177 -649 -190l-77 12v-6q267 -405 506 -405q28 0 148 54q-77 -226 -285 -226q-164 0 -482 535q-309 -378 -309 -482l12 -89h-18q-56 0 -125 125l-12 71q0 157 375 542l-60 124q18 42 54 42l71 -89l678 761h-6
q-526 0 -1082 -291q-303 -191 -303 -310q6 -22 41 -59l-6 -6h-23q-85 0 -161 149l-6 35q0 284 904 524q320 65 565 65h41q262 0 262 -178q0 -95 -493 -524q-279 -270 -292 -297q661 169 1094 595q197 230 203 321l6 36q0 23 -60 65q0 14 54 24z" />
    <glyph glyph-name="L" unicode="L" horiz-adv-x="1020" 
d="M737 260q-142 -22 -499 -211q-55 -37 -122 -55q-70 0 -116 167v11q48 136 626 815q478 522 527 626v55l16 16q167 -83 167 -161v-11q0 -97 -288 -343q-715 -733 -826 -937v-5h5q357 127 660 127h16q93 0 117 -28l-5 -16q-42 -21 -278 -50z" />
    <glyph glyph-name="M" unicode="M" horiz-adv-x="2246" 
d="M1498 1683h48q179 0 238 -131l6 -24v-18q0 -55 -428 -464l-262 -279q820 623 1064 696q173 -54 173 -173q-12 -61 -143 -196q-332 -374 -470 -571h6q528 444 678 523q137 -54 137 -148q0 -26 -161 -185q-309 -355 -309 -582v-30q0 -53 65 -53l6 -6v-12q-9 -24 -41 -24
h-24q-166 32 -166 214q0 224 321 612h-6q-431 -335 -654 -547q-104 -148 -131 -148h-6q-107 40 -107 137q97 264 749 1046q-364 -198 -1017 -708q-383 -309 -422 -493v-30l6 -30l-18 -11q-166 58 -166 208q0 178 1106 1326q-483 0 -1041 -280q-351 -210 -351 -345v-6
q0 -20 42 -71l-6 -6h-12q-119 0 -196 172l-6 42q0 262 749 494q369 101 749 101z" />
    <glyph glyph-name="N" unicode="N" horiz-adv-x="1848" 
d="M1627 1682h43q213 0 266 -134l6 -18q0 -66 -218 -242q-569 -530 -794 -794h6q846 687 1370 927q78 0 145 -91q25 -39 25 -61v-6q0 -35 -249 -278q-539 -596 -539 -873q0 -57 73 -67v-18q-16 -30 -61 -30q-148 0 -200 206q0 319 667 1024l30 42q-545 -310 -1176 -812
q-302 -252 -339 -424v-24l12 -36l-18 -13q-102 0 -158 152l-12 61q0 145 503 690l661 716q-558 0 -1170 -370q-218 -167 -218 -267v-6q0 -29 42 -73l-6 -6h-12q-121 0 -200 176l-6 43q0 266 764 503q375 103 763 103z" />
    <glyph glyph-name="O" unicode="O" horiz-adv-x="1407" 
d="M1216 1685q211 0 348 -233l18 -72v-30l-12 -12h-12l-48 90q-59 60 -204 60h-60q-388 0 -809 -384q-287 -307 -287 -635q0 -230 245 -311l120 -18q366 0 761 443q222 287 222 533v18q0 134 -132 180l-72 12q-128 0 -276 -60h-6l-11 12v12q122 102 275 102h30
q240 0 318 -264l6 -72v-6q0 -453 -546 -868q-284 -186 -509 -186q-238 0 -407 180q-168 199 -168 431v12q0 449 575 863q356 203 641 203z" />
    <glyph glyph-name="P" unicode="P" horiz-adv-x="1499" 
d="M1279 1686h18q458 0 607 -316q23 -76 29 -152q0 -464 -841 -654q-142 -29 -286 -29h-17q-45 0 -53 23v6q0 33 234 82q835 316 835 625v12q0 149 -327 204l-164 18q-554 0 -975 -328q-175 -140 -175 -268q0 -68 70 -175q4 -22 -18 -6q-216 142 -216 280v12q0 282 549 531
q331 135 730 135zM1250 1183q35 0 35 -41v-5q-11 -16 -90 -55t-264.5 -172.5t-381.5 -444.5q-111 -200 -111 -351q8 -81 76 -81v-6q0 -22 -88 -29q-161 11 -175 181v23q0 365 567 783q272 179 432 198z" />
    <glyph glyph-name="Q" unicode="Q" horiz-adv-x="1479" 
d="M1332 1687q144 0 215 -244v-45l-11 -11h-23l-34 79q-48 34 -113 34q-367 0 -794 -374q-368 -372 -368 -680v-17q0 -238 221 -306l79 -12h40q305 0 680 369q244 271 244 504v12q0 226 -193 226q-62 0 -249 -85l-6 6v6q58 86 295 141l57 6q201 0 255 -244v-22
q0 -437 -488 -828q-183 -123 -283 -142v-5h147q430 0 556 -199l5 -17q-11 -35 -28 -39h-11q-46 0 -46 68q-100 107 -374 107h-45q-323 0 -697 -170q-85 -34 -170 -34q-193 40 -193 153l11 12l68 -12q52 0 352 68v6q-91 0 -255 147q-136 177 -136 357q0 466 606 941
q368 244 686 244z" />
    <glyph glyph-name="R" unicode="R" horiz-adv-x="1458" 
d="M1321 1684h23q427 0 575 -279q28 -50 40 -183q0 -366 -621 -575q-278 -85 -512 -85h-17q-44 0 -52 23v5q0 36 222 80q854 309 854 615v6q0 159 -375 210l-114 6h-23q-420 0 -888 -268q-274 -180 -274 -358q0 -52 69 -143v-5l-6 -6v-6q-71 0 -194 182q-28 57 -28 126
q0 193 387 421q435 234 934 234zM1236 1103q62 -7 62 -23q0 -8 -188 -103q-189 -117 -427 -347l-11 -17q170 -263 279 -370q129 -97 216 -97q60 0 148 80q8 8 14 5.5t3 -16.5q-35 -102 -110.5 -161.5t-179.5 -55.5q-209 0 -433 535h-5q-177 -247 -177 -404q0 -91 68 -91
l6 -6v-11q0 -14 -63 -23q-150 0 -187 165l-6 23q0 201 285 507q-15 0 -35 51q8 29 40 29h12l34 -29q387 317 620 353z" />
    <glyph glyph-name="S" unicode="S" horiz-adv-x="902" 
d="M1240 1687q255 0 330 -193q11 -52 7 -71q-14 -139 -326 -276q-89 -40 -170 -40q-27 5 -12 23q33 20 188 115q199 144 199 203q0 38 -103 46h-73q-501 0 -1007 -353q-125 -106 -125 -188q0 -92 415 -187q336 -103 336 -290q0 -217 -364 -398q-177 -80 -296 -80
q-206 17 -229 127q-6 27 0 55q83 270 1146 532q41 13 41 -11q-388 -130 -622.5 -215.5t-366 -179.5t-106.5 -143q14 -15 46 -11q230 0 517 207q92 83 97 147q6 135 -421 220q-341 95 -341 250q0 377 732 618q353 93 508 93z" />
    <glyph glyph-name="T" unicode="T" horiz-adv-x="1241" 
d="M1849 1677q558 0 915 -147q71 -50 71 -77q0 -52 -89 -95h-11l-12 12q35 24 35 42q0 94 -673 130h-177l-42 -6v-6q77 -52 77 -83q0 -21 -124 -94q-461 -337 -839 -857q-124 -174 -165 -283q299 229 408 271h17v-6q-272 -239 -389 -395q-45 -83 -101 -83q-71 0 -130 89v23
q19 372 922 1282l147 124v6h-6q-491 -42 -868 -142q-318 -105 -484 -218q-154 -111 -154 -189v-24q25 -65 171 -65l77 -12v-18l-124 -17q-202 0 -295 177l-6 29q0 455 1329 609q201 23 520 23z" />
    <glyph glyph-name="U" unicode="U" horiz-adv-x="1858" 
d="M1315 1695h49q206 0 276 -154l6 -30q0 -48 -258 -252q-579 -529 -706 -848q-55 -107 -55 -166q10 -67 61 -67q165 0 842 595q422 357 479 357q78 0 172 -148v-12q0 -11 -135 -129q-461 -497 -461 -713q0 -73 68 -129q-32 -18 -62 -18h-6q-129 0 -172 184v13
q0 248 393 681h-6q-183 -141 -682 -620q-269 -240 -375 -240q-176 0 -270 258l-12 74q0 338 632 965l314 288q-605 0 -1106 -417q-129 -131 -129 -209v-19q0 -26 31 -61q5 -12 -6 -12q-184 3 -197 215q0 338 848 559q253 55 467 55z" />
    <glyph glyph-name="V" unicode="V" horiz-adv-x="1972" 
d="M2394 1745q251 -39 251 -208l6 -6v-6q0 -199 -698 -839q-509 -469 -738 -619q-106 -67 -162 -67q-155 0 -257 239l-18 86q35 405 477 1047l166 208h-7q-282 0 -753 -178q-490 -267 -490 -453v-18q0 -22 31 -61l-18 -7q-71 0 -160 123l-24 86q0 325 833 551q291 67 520 67
q233 0 331 -190v-6q0 -39 -172 -220q-563 -718 -563 -1066v-6q25 -49 61 -49q183 0 937 759q453 512 453 717q0 22 -36 104v6z" />
    <glyph glyph-name="W" unicode="W" horiz-adv-x="2583" 
d="M1339 1687h43q218 0 305 -146l7 -43q-2 -47 -232 -284q-569 -632 -569 -700q803 689 1033 739q147 -35 147 -146q-337 -427 -337 -801q0 -141 92 -165h12q210 0 606 458q348 499 348 887q-5 52 -49 116l25 12q205 28 256 -202l6 -49q0 -322 -411 -855
q-453 -508 -744 -508q-218 0 -312 287l-12 129q0 315 202 623v6q-256 -133 -826 -648q-165 -177 -165 -256v-6l6 -31l-18 -12q-153 60 -153 183v55q0 211 587 905l251 336v6q-419 0 -868 -220q-398 -240 -398 -397l1 -20q0 -36 30 -66q-7 -8 -22 -6q-81 14 -149 110
q-33 44 -31 92v18q0 299 856 538q291 61 483 61z" />
    <glyph glyph-name="X" unicode="X" horiz-adv-x="1605" 
d="M1322 1682h32q417 0 417 -192q0 -43 -218 -279q-140 -163 -250 -344h6q480 154 946 571q90 93 87 148q-2 31 -32 70q-6 21 19 20q212 -32 212 -206q0 -102 -141 -218q-214 -166 -597 -295l-565 -186q-134 -307 -134 -501q0 -160 83 -160h7q69 0 314 180q13 6 17 -1.5
t-4 -18.5q-224 -269 -392 -269q-148 0 -211 186q-20 64 -20 148q0 178 71 372q-349 -155 -648 -437q-109 -123 -109 -198v-13q0 -37 25 -71q15 -32 -25 -32q-81 0 -135.5 58t-57.5 135q0 333 995 654q171 380 507 757v7h-7q-469 0 -1033 -302q-314 -212 -314 -346
q6 -52 34 -85q-190 14 -201 206v26q0 242 578 475q406 141 744 141z" />
    <glyph glyph-name="Y" unicode="Y" horiz-adv-x="1765" 
d="M1404 1548h35q167 0 232 -169q-15 -41 -147 -111q-248 -124 -654 -503q-255 -274 -255 -372v-17q0 -12 17 -12q101 0 708 389q361 228 441 249q57 0 127 -104l6 -23q0 -121 -185 -406q67 0 87 -18q0 -34 -53 -34h-58q-508 -731 -881 -731h-12q-112 0 -133 145
q0 169 336 412q322 204 528 237q173 275 197 430h-6q-194 -125 -910 -644q-72 -52 -140 -52q-134 0 -208 197v23q0 308 638 818q213 155 307 203v6q-413 0 -980 -296q-279 -179 -279 -302l35 -58l-6 -6v-5q-117 0 -191 174v17q0 284 812 499q300 64 592 64zM783 -181l18 -12
q200 0 696 598h-6q-249 -104 -476 -278q-232 -192 -232 -308z" />
    <glyph glyph-name="Z" unicode="Z" horiz-adv-x="1340" 
d="M1842 1682q107 0 160 -224q0 -105 -224 -204q-810 -504 -1458 -1005v-6q227 115 486 115h45q384 -33 428 -166l-19 -13h-6q-205 58 -333 58h-51q-287 0 -697 -231l-26 -6q-147 49 -147 186q10 56 269 249l1509 1119h-6q-44 0 -876 -179q-129 -25 -269 -32
q-157 0 -224 295v12l13 13h6q64 -64 186 -64q210 0 1196 83h38z" />
    <glyph glyph-name="bracketleft" unicode="[" horiz-adv-x="630" 
d="M1220 1701l9 -14q-2 -9 -110 -78q-107 -97 -234 -344q-418 -730 -725 -1339q-18 -38 -18 -101v-4q0 -49 41 -152v-4l-13 -14q-84 29 -152 174q-13 34 -18 78q0 76 160 344q354 676 748 1330q162 124 312 124z" />
    <glyph glyph-name="backslash" unicode="\" horiz-adv-x="1435" 
d="M1433 8l-164 -127l-1208 1630l162 127z" />
    <glyph glyph-name="bracketright" unicode="]" horiz-adv-x="969" 
d="M973 1693q107 -57 156 -201l9 -51q0 -75 -114 -266q-419 -790 -789 -1403q-103 -97 -248 -124l-55 -9q-18 7 -18 14v4q8 16 110 78q90 84 243 358q720 1294 720 1348q9 21 9 60v23q0 53 -41 146v10z" />
    <glyph glyph-name="asciicircum" unicode="^" horiz-adv-x="2037" 
d="M1849 1677q558 0 915 -147q71 -50 71 -77q0 -52 -89 -95h-11l-12 12q35 24 35 42q0 94 -673 130h-177l-42 -6v-6q77 -52 77 -83q0 -21 -124 -94q-461 -337 -839 -857q-124 -174 -165 -283q299 229 408 271h17v-6q-272 -239 -389 -395q-45 -83 -101 -83q-71 0 -130 89v23
q19 372 922 1282l147 124v6h-6q-491 -42 -868 -142q-318 -105 -484 -218q-154 -111 -154 -189v-24q25 -65 171 -65l77 -12v-18l-124 -17q-202 0 -295 177l-6 29q0 455 1329 609q201 23 520 23zM2345 1909q176 -80 176 -182q0 -107 -473 -640q-401 -429 -544 -679v-6
q343 320 655 562l30 12q66 0 140 -111v-35q-374 -361 -374 -662v-29q5 -94 40 -94v-17l-29 -6q-110 0 -170 205l-5 41q0 192 216 474v6q-193 -136 -603 -550l-193 -217h-17q-59 43 -59 117q0 168 603 896q493 665 590 833l6 29l-6 47l6 6h11z" />
    <glyph glyph-name="underscore" unicode="_" horiz-adv-x="1050" 
d="M1142 -266h-1178v80h1178v-80z" />
    <glyph glyph-name="grave" unicode="`" horiz-adv-x="512" 
d="M174 1550l330 -241l-62 -113l-352 195z" />
    <glyph glyph-name="a" unicode="a" horiz-adv-x="924" 
d="M857 974h17q101 -36 165 -188l6 -34q-18 -120 -63 -120l-5 6v6q28 52 28 85v6q0 62 -108 62q-259 0 -604 -381q-137 -191 -137 -274q298 277 525 410q0 16 56 23q57 0 114 -97v-5q-44 0 -125 -228l-11 -103q0 -84 68 -131v-11h-17q-114 0 -160 131l-17 91q0 93 52 228h-6
q-108 -55 -399 -359q-98 -131 -125 -131q-60 0 -114 148v17q0 306 444 672q234 177 416 177z" />
    <glyph glyph-name="b" unicode="b" horiz-adv-x="927" 
d="M1052 1658q95 0 164 -158v-17q0 -93 -476 -543q-259 -253 -373 -402h6q462 435 594 435q170 -49 170 -164v-5q-33 -182 -323 -521q-279 -283 -498 -283h-6q-136 24 -136 136q0 58 51 102h6l6 -6h5l-5 -68v-6q7 -56 51 -56h11q171 0 470 407q170 246 170 351
q-130 -17 -470 -328q-362 -396 -374 -396q0 -11 -28 -11q-68 5 -68 67q0 109 277 453q164 215 657 793q88 113 113 169l-6 46l6 5h6z" />
    <glyph glyph-name="c" unicode="c" horiz-adv-x="708" 
d="M703 971h6q68 0 167 -168v-11q-190 -168 -290 -217h-5q0 26 156 234h-6q-341 -142 -546 -441q-62 -102 -62 -173v-11q15 -72 78 -72q158 16 463 278l17 -16q-90 -160 -340 -329q-68 -45 -123 -45q-127 0 -217 206l-6 51v16q0 237 413 564q210 134 295 134z" />
    <glyph glyph-name="d" unicode="d" horiz-adv-x="954" 
d="M1689 1667q63 0 152 -136v-11q-14 -188 -898 -926q-220 -305 -220 -491q0 -102 68 -102v-17h-34q-125 0 -158 186v29q0 90 34 186q-321 -370 -447 -390q-109 0 -186 181v45q0 228 316 531q258 226 435 226q53 0 124 -124v-12l260 345q426 480 554 480zM1000 729h5
q574 521 706 712l23 45h-6q-157 -107 -474 -435q-254 -294 -254 -322zM124 142q8 -26 23 -28q150 44 565 457q110 133 118 209q-5 23 -34 23h-22q-205 0 -526 -373q-124 -174 -124 -288z" />
    <glyph glyph-name="e" unicode="e" horiz-adv-x="808" 
d="M738 972q90 0 196 -195l5 -6v-6q0 -157 -346 -296q-92 -28 -151 -28q-73 7 -73 28q13 13 129 39q277 166 313 313h-6q-168 -33 -470 -307q-178 -201 -178 -319q14 -84 78 -84q146 11 464 274l5 6h6l6 -6v-5q-46 -129 -353 -347q-71 -34 -100 -34q-137 0 -218 191l-17 67
q0 286 486 626q155 89 224 89z" />
    <glyph glyph-name="f" unicode="f" horiz-adv-x="1205" 
d="M1440 1730q168 -69 168 -209q0 -110 -402 -450l-132 -132h6q135 31 288 42q78 -8 78 -24q0 -22 -192 -42q-311 -67 -311 -90q-816 -866 -816 -1206q7 -78 66 -78q208 0 630 468q280 351 293 588v18q0 121 -125 144q-32 0 -36 18v18l24 24h18q145 0 203 -174l12 -90
q0 -387 -551 -930q-216 -197 -408 -197q-174 0 -252 221l-6 54v24q0 376 642 1044l18 24h-6q-111 -42 -162 -42q-72 30 -72 96h6q163 0 330 60q641 647 653 719q17 102 36 102z" />
    <glyph glyph-name="g" unicode="g" horiz-adv-x="912" 
d="M856 978q102 -68 156 -222q-25 -122 -67 -122v22q18 21 28 73q0 66 -106 66q-230 0 -533 -305q-176 -205 -183 -322q428 365 600 439q67 -20 122 -84v-11q0 -45 -143 -303q87 34 136 25q47 -16 11 -46q-116 -16 -183 -56q-488 -791 -804 -791q-113 0 -122 127
q-13 221 429 525q130 81 322 163l171 367q-159 -104 -561 -522l-28 -5q-100 46 -100 166q0 275 367 606q289 210 488 210zM-140 -550q16 -14 41 -6q145 24 461 435l119 193q-339 -158 -539 -386q-123 -155 -82 -236z" />
    <glyph glyph-name="h" unicode="h" horiz-adv-x="835" 
d="M1005 1720q176 -80 176 -182q0 -107 -363 -451q-401 -429 -544 -679v-6q343 320 655 562l30 12q66 0 140 -111v-35q-374 -361 -374 -662v-29q5 -94 40 -94v-17l-29 -6q-110 0 -170 205l-5 41q0 192 216 474v6q-193 -136 -603 -550l-193 -217h-17q-59 43 -59 117
q0 168 603 896q383 476 480 644l6 29l-6 47l6 6h11z" />
    <glyph glyph-name="i" unicode="i" horiz-adv-x="469" 
d="M884 1457q51 0 118 -93v-6q-26 -94 -316 -284l-55 -25l-6 6v6q82 219 241 396h18zM470 981h25q82 0 142 -123l6 -19q0 -32 -229 -278q-333 -377 -333 -538l12 -12v-12q-142 0 -142 123q0 187 513 810l12 31z" />
    <glyph glyph-name="j" unicode="j" horiz-adv-x="470" 
d="M918 1464q118 -43 118 -107v-6q-83 -110 -225 -201l-112 -77h-24v12q46 135 190 338zM557 990h12q75 0 136 -124v-6q-575 -811 -746 -1024q-252 -278 -474 -278q-163 0 -278 207l-18 89q8 29 18 29h6q14 -5 88 -136q43 -41 107 -41h6q351 0 870 858q213 319 213 338
q-149 -83 -171 -83h-12l-12 11q0 34 231 154z" />
    <glyph glyph-name="k" unicode="k" horiz-adv-x="962" 
d="M1029 1713q181 -80 181 -193q0 -110 -289 -366q-496 -491 -577 -632q486 445 649 445q156 -55 156 -162v-18q0 -169 -330 -367q-183 -90 -241 -90q0 -114 157 -313q18 -20 48 -28q15 -8 6.5 -20t-54.5 -12h-6q-144 0 -307 247q-44 71 -42 144q257 94 421 259
q156 164 156 258h-6q-108 0 -715 -553q-193 -204 -193 -325q31 -10 18 -24q-132 0 -156 133q0 162 631 919q318 384 475 608q16 32 0 78q-2 17 18 12z" />
    <glyph glyph-name="l" unicode="l" horiz-adv-x="653" 
d="M594 1170q457 447 586 447q160 -67 160 -171v-11q0 -171 -712 -795q-205 -150 -288 -160l-22 16q170 111 464 398q382 405 437 525v5q-190 -107 -536 -442q-390 -413 -481 -613q-71 -150 -71 -221q5 -30 38 -22q80 0 381 271q190 171 227 171l5 -5v-6q-89 -133 -442 -469
q-114 -89 -165 -89h-6q-138 8 -165 155q-10 44 5 110q52 328 585 906z" />
    <glyph glyph-name="m" unicode="m" horiz-adv-x="1220" 
d="M518 979q76 12 130 -71q13 -33 0 -63q-8 -56 -352 -408h6q506 472 605 472q129 -45 129 -111v-6q0 -40 -105 -163l-163 -232v-6l372 332q82 0 122 -84q17 -30 8 -57t-118 -174q-93 -157 -93 -244v-23q0 -99 64 -99q8 -4 8 -13q-6 -25 -55 -28q-159 2 -175 184
q-9 157 152 380h-6q-425 -392 -471 -483q-47 -32 -87.5 1.5t-40.5 80.5q0 89 343 594q-201 -119 -611 -536q-140 -205 -140 -238l-23 -6q-93 57 -93 122q0 106 140.5 301t377.5 490h-6q-131 -85 -154.5 -92t-30 1.5t4.5 21.5q135 94 224 143q22 14 38 14z" />
    <glyph glyph-name="n" unicode="n" horiz-adv-x="919" 
d="M489 974q125 -47 128 -110t-372 -489q572 517 680 524q13 2 20 0q126 -45 126 -119q0 -28 -188 -244q-194 -259 -194 -401q0 -118 75 -118q2 -3 0 -7q-14 -31 -63 -31h-6q-158 23 -169 207v25q0 190 269 538l7 10l-7 -4q-235 -155 -701 -620q-81 -103 -89.5 -128t2.5 -40
q-138 15 -139 102l1 32q0 62 244 391l275 382v6h-6q-143 -87 -157.5 -91.5t-21.5 3.5t6 30q181 152 280 152z" />
    <glyph glyph-name="o" unicode="o" horiz-adv-x="940" 
d="M776 1011q79 0 197 -172q15 -40 -18 -36q-65 41 -113 41q-243 0 -559 -356q-125 -172 -129 -300v-18q4 -57 81 -69q195 0 506 434q59 99 59 191q-1 19 -42 47v6q0 16 26.5 20.5t63.5 3.5q101 -12 113 -131q22 -257 -399 -565q-172 -107 -279 -107h-18q-145 -5 -198.5 68
t-45.5 176v24q0 277 369 582q222 161 386 161z" />
    <glyph glyph-name="p" unicode="p" horiz-adv-x="965" 
d="M1001 971q90 0 163 -151v-30q-12 -160 -296 -483q-326 -309 -538 -309h-12q-144 7 -157 127v6q4 37 18 37h6q28 -76 85 -85q221 0 610 556q75 115 91 211q-9 25 -18 25q-196 -72 -520 -351q-337 -359 -423 -532q-137 -244 -127 -332q0 -47 48 -97q9 -13 4.5 -18.5
t-22.5 -5.5q-163 34 -163 242v12q0 270 659 1033h-6q-122 -71 -194 -96h-12v12q136 120 302 193h19q55 0 114 -97v-18l-78 -96q330 228 447 247z" />
    <glyph glyph-name="q" unicode="q" horiz-adv-x="847" 
d="M856 971q83 -14 170 -163q20 -58 0 -118.5t-46 -60.5h-5q-12 0 -12 16q29 56 29 85q0 51 -80 62h-22q-301 -12 -618 -388q-123 -198 -119 -258q78 51 448 353q149 113 209 113q108 -44 108 -118q-408 -447 -544 -708l-68 -118l-3 -6q201 141 258 141q16 0 11 -17
q-116 -64 -164 -112q-159 -142 -193 -236q-7 -18 -28 -17q-70 0 -96 124q0 159 549 876l40 56h-6q-169 -124 -521 -477l-23 -6h-5q-90 -7 -125 123v17q7 340 476 686q200 144 380 151z" />
    <glyph glyph-name="r" unicode="r" horiz-adv-x="750" 
d="M497 976q115 8 141 -111q0 -40 -252 -321l-58 -78l18 15q333 310 470 378q54 0 103 -97v-6q0 -31 -103 -132q-52 -65 -52 -138l18 -40l-6 -5h-17q-79 0 -104 126v23q0 58 29 120q-648 -543 -648 -711h-6q-64 0 -80 97q0 137 258 480q42 62 212 295h-5l-201 -121
q-26 -14 -32 -3t9 26q37 47 264 184z" />
    <glyph glyph-name="s" unicode="s" horiz-adv-x="854" 
d="M849 980q71 0 148 -137q40 -31 40 -77v-5q0 -122 -239 -274q-72 -38 -131 -38q-11 -1 -13 5t8 11q290 233 290 329q-5 17 -40 11q-243 0 -455 -241q-74 -118 -74 -219v-39l28 -235q0 -71 -73 -71q-139 0 -285 180q-60 89 -51 154q3 25 12.5 30t15.5 -3l64 -123
q65 -98 204 -112q13 0 14 5t-3 17q-57 176 -57 273q0 364 467 537q63 19 130 22z" />
    <glyph glyph-name="t" unicode="t" horiz-adv-x="633" 
d="M853 1435h25q173 -35 175 -158v-18q0 -70 -248 -284l-6 -6v-6h6l187 12q41 0 43 -24q0 -21 -272 -48q-40 0 -248 -248q-195 -212 -321 -423v-6q289 211 345 211l6 -6v-6q0 -14 -198 -167q-168 -153 -207 -244q-19 -23 -42 -12q-97 43 -97 115v12q0 188 449 727l-8 -2
l-145 -30q-61 0 -84 91v6l66 -12l23 -1q190 13 213 43q201 200 332 383q18 53 6 101z" />
    <glyph glyph-name="u" unicode="u" horiz-adv-x="1012" 
d="M509 1018q89 0 180 -131l-203 -203q-340 -364 -340 -566q81 22 715 602q122 107 161 107q58 0 113 -113q0 -13 -167 -215q-220 -306 -220 -435q-3 -42 12 -77q-2 -12 -12 -6q-95 33 -118 97q-8 12 -7 81q0 165 208 442h-6q-545 -600 -661 -608q-165 37 -167 179
q0 297 489 810q12 36 23 36z" />
    <glyph glyph-name="v" unicode="v" horiz-adv-x="788" 
d="M978 1055q140 -9 134 -140q-71 -360 -838 -882l-80 -31h-6q-148 23 -190 190v12q0 263 331 656h-6q-113 -56 -141 -56l-6 7v6q108 99 263 159q153 -51 153 -123v-6q-410 -444 -429 -692v-36q263 117 613 557q128 187 128 288v12q-4 22 -41 24l5 6q42 49 110 49z" />
    <glyph glyph-name="w" unicode="w" horiz-adv-x="1373" 
d="M1498 1057q124 -9 143 -131v-25q0 -211 -387 -631q-273 -268 -437 -268q-133 0 -156 168l-2 55q8 185 192 451l-9 -6q-244 -140 -575 -462l-156 -200q-87 0 -112 131q0 74 293 500q109 168 150 268q0 35 -25 56q-3 6 7 7q133 0 206 -138q3 -10 0 -22q0 -42 -300 -408
l-34 -48l15 10q583 452 618 462h7q104 0 149 -125l7 -18q0 -14 -138 -194q-143 -217 -143 -362q0 -13 1 -21.5t5 -9.5q189 30 518 549q99 198 106 287q-7 56 -62 55l12 20q48 55 107 50z" />
    <glyph glyph-name="x" unicode="x" horiz-adv-x="983" 
d="M1185 1021h26q109 -14 109 -102q0 -170 -783 -616v-39q25 -167 116 -167h6q88 0 263 148l13 -13v-13q-162 -225 -302 -225h-32q-167 0 -231 251q-244 -140 -244 -238l7 -19l-19 -13h-13q-103 10 -103 97q0 96 353 256q0 202 212 546v6q-152 -80 -225 -103h-6l-13 13v7
q291 207 327 211q154 -54 154 -128v-6q-212 -321 -237 -456h6q526 344 526 526l-25 26q52 51 115 51z" />
    <glyph glyph-name="y" unicode="y" horiz-adv-x="945" 
d="M504 973q79 0 156 -116v-23q-1 -40 -137 -138q-246 -222 -338 -390q-76 -146 -76 -174h6q87 0 725 580l23 6q134 -35 134 -104q-52 -139 -221 -493h6q35 -4 35 -18q0 -25 -75 -46q-483 -789 -813 -789q-133 15 -133 122q0 227 534 597q114 67 255 122l197 464
q-561 -568 -673 -568q-106 0 -133 139v23q0 271 452 714q48 45 70 92h6zM-105 -616q1 -10 11 -12q117 0 400 314q102 125 232 336v6q-198 -81 -522 -400q-121 -151 -121 -244z" />
    <glyph glyph-name="z" unicode="z" horiz-adv-x="830" 
d="M1021 1021q59 0 122 -160q0 -44 -314 -237q-424 -296 -614 -447h6q181 64 397 64q186 -8 186 -45v-7q-9 -25 -58 -25h-26q-277 0 -575 -186h-19q-88 0 -122 154q0 81 384 384l505 390h-6q-219 -102 -352 -102h-32q-121 0 -141 166v6l19 7q133 -51 192 -51q71 0 448 89z
" />
    <glyph glyph-name="braceleft" unicode="{" horiz-adv-x="867" 
d="M1235 1668q35 -12 35 -20v-5q0 -9 -76 -50q-172 -180 -341 -513q-144 -309 -372 -397l-91 -25v-5q0 -15 40 -71q25 -51 25 -95v-20q0 -118 -256 -508q-100 -186 -100 -307v-10l5 -45l-15 -25q-86 0 -106 216q0 155 266 553q76 152 76 241q0 35 -30 91q0 29 95 45
q79 38 176 191q265 492 357 583q82 116 256 166z" />
    <glyph glyph-name="bar" unicode="|" horiz-adv-x="425" 
d="M272 -164h-98v1829h98v-1829z" />
    <glyph glyph-name="braceright" unicode="}" horiz-adv-x="0" 
d="M-3734 -780q-364 200 -323 407q18 80 59 76q29 -4 39 -29q-3 -26 -2 -31q-4 -22 89 -111q252 -192 634 -238q223 -25 620 19q351 46 630 122q955 250 1054 282q393 101 737 160q301 56 532 29q36 -9 33 -25l-3 -10q-1 -6 -10 -14q-23 -25 -68 -19l-16 2q-87 8 -189 -5
q-120 -11 -253 -33q-386 -74 -701 -188t-860.5 -297.5t-942.5 -251.5q-311 -40 -564.5 -3t-494.5 158z" />
    <glyph glyph-name="asciitilde" unicode="~" horiz-adv-x="518" 
d="M-859 1865q258 -96 601.5 -307t541 -340t447.5 -229q87 -32 166 -53q67 -20 126 -21h11q31 1 43 -23q5 -8 5 -13l1 -9q0 -14 -25 -19q-158 -3 -353 74q-224 83 -475 208q-63 37 -673 344q-178 92 -408 165q-261 75 -413 73q-262 -5 -454 -151q-73 -69 -73 -89
q-1 -4 -2 -27q-10 -21 -30 -22q-28 0 -30 72q-3 185 265 328q176 84 350.5 93t378.5 -54zM580 1016q158 165 267 318q18 53 6 101h25q173 -35 175 -158v-18q0 -70 -248 -284l-6 -6v-3l-161 -169h1q-52 -56 -124 -142q-195 -212 -321 -423v-6q289 211 345 211l6 -6v-6
q0 -14 -198 -167q-168 -153 -207 -244q-19 -23 -42 -12q-97 43 -97 115v12q0 188 449 727l-2 -1z" />
    <glyph glyph-name="dieresis" unicode="&#xa8;" horiz-adv-x="1024" 
 />
    <glyph glyph-name="copyright" unicode="&#xa9;" horiz-adv-x="750" 
 />
    <glyph glyph-name="registered" unicode="&#xae;" horiz-adv-x="750" 
 />
    <glyph glyph-name="acute" unicode="&#xb4;" horiz-adv-x="1024" 
 />
    <glyph glyph-name="paragraph" unicode="&#xb6;" horiz-adv-x="1024" 
d="M929 1435v-70h-127v-1365h-82v1365h-166v-1365h-84v738q-174 8 -275.5 102.5t-101.5 245.5q0 157 107.5 253t285.5 96h443z" />
    <glyph glyph-name="onequarter" unicode="&#xbc;" horiz-adv-x="1780" 
 />
    <glyph glyph-name="onehalf" unicode="&#xbd;" horiz-adv-x="1780" 
 />
    <glyph glyph-name="threequarters" unicode="&#xbe;" horiz-adv-x="1780" 
 />
    <glyph glyph-name="Agrave" unicode="&#xc0;" 
d="M1696 1680q391 0 854 -186q88 -80 109 -164q-3 -39 -131 -170q-265 -303 -411 -514q0 -13 39 -17q109 -53 109 -87l-5 -6h-17l-158 66q-197 -309 -214 -482q0 -79 71 -104v-5l-11 -11h-5q-144 0 -170 197l-5 33q0 138 158 421h-5q-154 44 -295 44h-6q-645 -553 -886 -618
q-183 -77 -350 -77q-257 0 -351 181q-16 26 -16 82v5q0 276 733 443q274 49 624 49l126 -5l935 711q-345 104 -662 104q-607 -28 -607 -169l27 -39l-11 -11q-87 35 -87 132q0 169 481 197h137zM1652 739q106 0 285 -44q121 212 427 563q-151 -92 -712 -519zM98 279
q0 -79 93 -115l99 -16q255 0 613 213q192 111 509 334v5h-33q-816 0 -1220 -306q-56 -61 -61 -115zM2537 1868l203 -314q11 0 11 -27v-11h-11q-84 0 -314 225l-11 39q0 58 122 88z" />
    <glyph glyph-name="Aacute" unicode="&#xc1;" 
d="M1696 1680q391 0 854 -186q88 -80 109 -164q-3 -39 -131 -170q-265 -303 -411 -514q0 -13 39 -17q109 -53 109 -87l-5 -6h-17l-158 66q-197 -309 -214 -482q0 -79 71 -104v-5l-11 -11h-5q-144 0 -170 197l-5 33q0 138 158 421h-5q-154 44 -295 44h-6q-645 -553 -886 -618
q-183 -77 -350 -77q-257 0 -351 181q-16 26 -16 82v5q0 276 733 443q274 49 624 49l126 -5l935 711q-345 104 -662 104q-607 -28 -607 -169l27 -39l-11 -11q-87 35 -87 132q0 169 481 197h137zM1652 739q106 0 285 -44q121 212 427 563q-151 -92 -712 -519zM98 279
q0 -79 93 -115l99 -16q255 0 613 213q192 111 509 334v5h-33q-816 0 -1220 -306q-56 -61 -61 -115zM2958 1777h11q105 -25 105 -77v-6q-45 -60 -325 -148l-110 -22l-11 16z" />
    <glyph glyph-name="Acircumflex" unicode="&#xc2;" 
d="M1696 1680q391 0 854 -186q88 -80 109 -164q-3 -39 -131 -170q-265 -303 -411 -514q0 -13 39 -17q109 -53 109 -87l-5 -6h-17l-158 66q-197 -309 -214 -482q0 -79 71 -104v-5l-11 -11h-5q-144 0 -170 197l-5 33q0 138 158 421h-5q-154 44 -295 44h-6q-645 -553 -886 -618
q-183 -77 -350 -77q-257 0 -351 181q-16 26 -16 82v5q0 276 733 443q274 49 624 49l126 -5l935 711q-345 104 -662 104q-607 -28 -607 -169l27 -39l-11 -11q-87 35 -87 132q0 169 481 197h137zM1652 739q106 0 285 -44q121 212 427 563q-151 -92 -712 -519zM98 279
q0 -79 93 -115l99 -16q255 0 613 213q192 111 509 334v5h-33q-816 0 -1220 -306q-56 -61 -61 -115zM2664 1820q248 -138 248 -226l-6 -5h-11q-85 83 -259 123q-94 4 -220 -101h-17q0 98 248 209h17z" />
    <glyph glyph-name="Atilde" unicode="&#xc3;" 
d="M1696 1680q391 0 854 -186q88 -80 109 -164q-3 -39 -131 -170q-265 -303 -411 -514q0 -13 39 -17q109 -53 109 -87l-5 -6h-17l-158 66q-197 -309 -214 -482q0 -79 71 -104v-5l-11 -11h-5q-144 0 -170 197l-5 33q0 138 158 421h-5q-154 44 -295 44h-6q-645 -553 -886 -618
q-183 -77 -350 -77q-257 0 -351 181q-16 26 -16 82v5q0 276 733 443q274 49 624 49l126 -5l935 711q-345 104 -662 104q-607 -28 -607 -169l27 -39l-11 -11q-87 35 -87 132q0 169 481 197h137zM1652 739q106 0 285 -44q121 212 427 563q-151 -92 -712 -519zM98 279
q0 -79 93 -115l99 -16q255 0 613 213q192 111 509 334v5h-33q-816 0 -1220 -306q-56 -61 -61 -115zM2730 1727q113 -43 158 -43h29q28 0 69 40q25 10 29 -17q-8 -111 -92.5 -123t-210.5 39.5t-216 48.5q-23 0 -104 -52q-23 -6 -17 23q90 127 190 127q52 0 165 -43z" />
    <glyph glyph-name="Egrave" unicode="&#xc8;" horiz-adv-x="1458" 
d="M1463 1578q119 0 170 -66l346 -11l39 17q66 0 88 -94q-359 -275 -396 -275v6q0 21 154 220l5 5v6l-187 11h-153q-117 -34 -605 -517l-61 -72h6q399 33 577 66q44 -20 44 -77v-5q-109 -99 -264 -165l-5 16l71 110h-5q-545 -20 -545 -82q-214 -237 -214 -396
q0 -105 110 -121l22 -6q279 0 786 347h17l22 -17v-16q-493 -462 -798 -462q-174 0 -297 198q-22 60 -22 126q0 163 143 352l-66 -5q-137 14 -137 88v5l82 -11l193 17q189 269 616 616h-6q-368 -33 -632 -138q-385 -178 -385 -330v-16q0 -45 82 -99v-6l-11 -11h-22
q-139 0 -214 138q-11 21 -11 60v11q0 168 379 347q430 162 946 159q90 74 138 77zM1516 1965l203 -314q11 0 11 -27v-11h-11q-84 0 -314 225l-11 39q0 58 122 88z" />
    <glyph glyph-name="Eacute" unicode="&#xc9;" horiz-adv-x="1458" 
d="M1463 1578q119 0 170 -66l346 -11l39 17q66 0 88 -94q-359 -275 -396 -275v6q0 21 154 220l5 5v6l-187 11h-153q-117 -34 -605 -517l-61 -72h6q399 33 577 66q44 -20 44 -77v-5q-109 -99 -264 -165l-5 16l71 110h-5q-545 -20 -545 -82q-214 -237 -214 -396
q0 -105 110 -121l22 -6q279 0 786 347h17l22 -17v-16q-493 -462 -798 -462q-174 0 -297 198q-22 60 -22 126q0 163 143 352l-66 -5q-137 14 -137 88v5l82 -11l193 17q189 269 616 616h-6q-368 -33 -632 -138q-385 -178 -385 -330v-16q0 -45 82 -99v-6l-11 -11h-22
q-139 0 -214 138q-11 21 -11 60v11q0 168 379 347q430 162 946 159q90 74 138 77zM2012 1856h11q105 -25 105 -77v-6q-45 -60 -325 -148l-110 -22l-11 16z" />
    <glyph glyph-name="Ecircumflex" unicode="&#xca;" horiz-adv-x="1458" 
d="M1463 1578q119 0 170 -66l346 -11l39 17q66 0 88 -94q-359 -275 -396 -275v6q0 21 154 220l5 5v6l-187 11h-153q-117 -34 -605 -517l-61 -72h6q399 33 577 66q44 -20 44 -77v-5q-109 -99 -264 -165l-5 16l71 110h-5q-545 -20 -545 -82q-214 -237 -214 -396
q0 -105 110 -121l22 -6q279 0 786 347h17l22 -17v-16q-493 -462 -798 -462q-174 0 -297 198q-22 60 -22 126q0 163 143 352l-66 -5q-137 14 -137 88v5l82 -11l193 17q189 269 616 616h-6q-368 -33 -632 -138q-385 -178 -385 -330v-16q0 -45 82 -99v-6l-11 -11h-22
q-139 0 -214 138q-11 21 -11 60v11q0 168 379 347q430 162 946 159q90 74 138 77zM1809 1820q248 -138 248 -226l-6 -5h-11q-85 83 -259 123q-94 4 -220 -101h-17q0 98 248 209h17z" />
    <glyph glyph-name="Igrave" unicode="&#xcc;" horiz-adv-x="1146" 
d="M1674 1797l155 -106q564 -71 564 -217v-6q0 -39 -50 -74h-25l-12 12v6l12 19v6q-149 105 -471 105h-136q-166 -109 -601 -564q-452 -528 -472 -781q277 -3 354 -93l-13 -18l-111 12h-174q-323 0 -520 -155v-6l24 -31l-12 -12h-25q-118 17 -118 111q0 144 453 192h18
q-43 50 -43 81q0 349 874 1240h-6q-233 0 -719 -137q-477 -198 -477 -353q0 -74 148 -99l7 -6v-19l-31 -6h-25q-204 0 -242 204v50q0 144 167 223q554 316 1364 316q93 106 143 106zM1582 2192l203 -314q11 0 11 -27v-11h-11q-84 0 -314 225l-11 39q0 58 122 88z" />
    <glyph glyph-name="Iacute" unicode="&#xcd;" horiz-adv-x="1146" 
d="M1674 1797l155 -106q564 -71 564 -217v-6q0 -39 -50 -74h-25l-12 12v6l12 19v6q-149 105 -471 105h-136q-166 -109 -601 -564q-452 -528 -472 -781q277 -3 354 -93l-13 -18l-111 12h-174q-323 0 -520 -155v-6l24 -31l-12 -12h-25q-118 17 -118 111q0 144 453 192h18
q-43 50 -43 81q0 349 874 1240h-6q-233 0 -719 -137q-477 -198 -477 -353q0 -74 148 -99l7 -6v-19l-31 -6h-25q-204 0 -242 204v50q0 144 167 223q554 316 1364 316q93 106 143 106zM2166 2049h11q105 -25 105 -77v-6q-45 -60 -325 -148l-110 -22l-11 16z" />
    <glyph glyph-name="Ograve" unicode="&#xd2;" horiz-adv-x="1407" 
d="M1216 1685q211 0 348 -233l18 -72v-30l-12 -12h-12l-48 90q-59 60 -204 60h-60q-388 0 -809 -384q-287 -307 -287 -635q0 -230 245 -311l120 -18q366 0 761 443q222 287 222 533v18q0 134 -132 180l-72 12q-128 0 -276 -60h-6l-11 12v12q122 102 275 102h30
q240 0 318 -264l6 -72v-6q0 -453 -546 -868q-284 -186 -509 -186q-238 0 -407 180q-168 199 -168 431v12q0 449 575 863q356 203 641 203zM1205 2083l203 -314q11 0 11 -27v-11h-11q-84 0 -314 225l-11 39q0 58 122 88z" />
    <glyph glyph-name="Oacute" unicode="&#xd3;" horiz-adv-x="1407" 
d="M1216 1685q211 0 348 -233l18 -72v-30l-12 -12h-12l-48 90q-59 60 -204 60h-60q-388 0 -809 -384q-287 -307 -287 -635q0 -230 245 -311l120 -18q366 0 761 443q222 287 222 533v18q0 134 -132 180l-72 12q-128 0 -276 -60h-6l-11 12v12q122 102 275 102h30
q240 0 318 -264l6 -72v-6q0 -453 -546 -868q-284 -186 -509 -186q-238 0 -407 180q-168 199 -168 431v12q0 449 575 863q356 203 641 203zM1548 2005h11q105 -25 105 -77v-6q-45 -60 -325 -148l-110 -22l-11 16z" />
    <glyph glyph-name="Ocircumflex" unicode="&#xd4;" horiz-adv-x="1407" 
d="M1216 1685q211 0 348 -233l18 -72v-30l-12 -12h-12l-48 90q-59 60 -204 60h-60q-388 0 -809 -384q-287 -307 -287 -635q0 -230 245 -311l120 -18q366 0 761 443q222 287 222 533v18q0 134 -132 180l-72 12q-128 0 -276 -60h-6l-11 12v12q122 102 275 102h30
q240 0 318 -264l6 -72v-6q0 -453 -546 -868q-284 -186 -509 -186q-238 0 -407 180q-168 199 -168 431v12q0 449 575 863q356 203 641 203zM1323 1951q248 -138 248 -226l-6 -5h-11q-85 83 -259 123q-94 4 -220 -101h-17q0 98 248 209h17z" />
    <glyph glyph-name="Otilde" unicode="&#xd5;" horiz-adv-x="1407" 
d="M1216 1685q211 0 348 -233l18 -72v-30l-12 -12h-12l-48 90q-59 60 -204 60h-60q-388 0 -809 -384q-287 -307 -287 -635q0 -230 245 -311l120 -18q366 0 761 443q222 287 222 533v18q0 134 -132 180l-72 12q-128 0 -276 -60h-6l-11 12v12q122 102 275 102h30
q240 0 318 -264l6 -72v-6q0 -453 -546 -868q-284 -186 -509 -186q-238 0 -407 180q-168 199 -168 431v12q0 449 575 863q356 203 641 203zM1452 1953q101 0 191 -127q6 -29 -18 -23q-80 52 -103 52q-90 3 -216 -48.5t-210.5 -39.5t-92.5 123q4 27 28 17q42 -40 70 -40h29
q44 0 157.5 43t164.5 43z" />
    <glyph glyph-name="Ugrave" unicode="&#xd9;" horiz-adv-x="1858" 
d="M1315 1695h49q206 0 276 -154l6 -30q0 -48 -258 -252q-579 -529 -706 -848q-55 -107 -55 -166q10 -67 61 -67q165 0 842 595q422 357 479 357q78 0 172 -148v-12q0 -11 -135 -129q-461 -497 -461 -713q0 -73 68 -129q-32 -18 -62 -18h-6q-129 0 -172 184v13
q0 248 393 681h-6q-183 -141 -682 -620q-269 -240 -375 -240q-176 0 -270 258l-12 74q0 338 632 965l314 288q-605 0 -1106 -417q-129 -131 -129 -209v-19q0 -26 31 -61q5 -12 -6 -12q-184 3 -197 215q0 338 848 559q253 55 467 55zM1858 1667l203 -314q11 0 11 -27v-11h-11
q-84 0 -314 225l-11 39q0 58 122 88z" />
    <glyph glyph-name="Uacute" unicode="&#xda;" horiz-adv-x="1858" 
d="M1315 1695h49q206 0 276 -154l6 -30q0 -48 -258 -252q-579 -529 -706 -848q-55 -107 -55 -166q10 -67 61 -67q165 0 842 595q422 357 479 357q78 0 172 -148v-12q0 -11 -135 -129q-461 -497 -461 -713q0 -73 68 -129q-32 -18 -62 -18h-6q-129 0 -172 184v13
q0 248 393 681h-6q-183 -141 -682 -620q-269 -240 -375 -240q-176 0 -270 258l-12 74q0 338 632 965l314 288q-605 0 -1106 -417q-129 -131 -129 -209v-19q0 -26 31 -61q5 -12 -6 -12q-184 3 -197 215q0 338 848 559q253 55 467 55zM2179 1611h11q105 -25 105 -77v-6
q-45 -60 -325 -148l-110 -22l-11 16z" />
    <glyph glyph-name="Yacute" unicode="&#xdd;" horiz-adv-x="1765" 
d="M1404 1548h35q167 0 232 -169q-15 -41 -147 -111q-248 -124 -654 -503q-255 -274 -255 -372v-17q0 -12 17 -12q101 0 708 389q361 228 441 249q57 0 127 -104l6 -23q0 -121 -185 -406q67 0 87 -18q0 -34 -53 -34h-58q-508 -731 -881 -731h-12q-112 0 -133 145
q0 169 336 412q322 204 528 237q173 275 197 430h-6q-194 -125 -910 -644q-72 -52 -140 -52q-134 0 -208 197v23q0 308 638 818q213 155 307 203v6q-413 0 -980 -296q-279 -179 -279 -302l35 -58l-6 -6v-5q-117 0 -191 174v17q0 284 812 499q300 64 592 64zM783 -181l18 -12
q200 0 696 598h-6q-249 -104 -476 -278q-232 -192 -232 -308zM2183 1523h11q105 -25 105 -77v-6q-45 -60 -325 -148l-110 -22l-11 16z" />
    <glyph glyph-name="agrave" unicode="&#xe0;" horiz-adv-x="924" 
d="M857 974h17q101 -36 165 -188l6 -34q-18 -120 -63 -120l-5 6v6q28 52 28 85v6q0 62 -108 62q-259 0 -604 -381q-137 -191 -137 -274q298 277 525 410q0 16 56 23q57 0 114 -97v-5q-44 0 -125 -228l-11 -103q0 -84 68 -131v-11h-17q-114 0 -160 131l-17 91q0 93 52 228h-6
q-108 -55 -399 -359q-98 -131 -125 -131q-60 0 -114 148v17q0 306 444 672q234 177 416 177zM780 1410l203 -314q11 0 11 -27v-11h-11q-84 0 -314 225l-11 39q0 58 122 88z" />
    <glyph glyph-name="aacute" unicode="&#xe1;" horiz-adv-x="924" 
d="M857 974h17q101 -36 165 -188l6 -34q-18 -120 -63 -120l-5 6v6q28 52 28 85v6q0 62 -108 62q-259 0 -604 -381q-137 -191 -137 -274q298 277 525 410q0 16 56 23q57 0 114 -97v-5q-44 0 -125 -228l-11 -103q0 -84 68 -131v-11h-17q-114 0 -160 131l-17 91q0 93 52 228h-6
q-108 -55 -399 -359q-98 -131 -125 -131q-60 0 -114 148v17q0 306 444 672q234 177 416 177zM1056 1311h11q105 -25 105 -77v-6q-45 -60 -325 -148l-110 -22l-11 16z" />
    <glyph glyph-name="acircumflex" unicode="&#xe2;" horiz-adv-x="924" 
d="M857 974h17q101 -36 165 -188l6 -34q-18 -120 -63 -120l-5 6v6q28 52 28 85v6q0 62 -108 62q-259 0 -604 -381q-137 -191 -137 -274q298 277 525 410q0 16 56 23q57 0 114 -97v-5q-44 0 -125 -228l-11 -103q0 -84 68 -131v-11h-17q-114 0 -160 131l-17 91q0 93 52 228h-6
q-108 -55 -399 -359q-98 -131 -125 -131q-60 0 -114 148v17q0 306 444 672q234 177 416 177zM913 1233q224 -136 224 -223l-5 -5h-10q-77 82 -234 121q-85 4 -199 -99h-15q0 96 224 206h15z" />
    <glyph glyph-name="atilde" unicode="&#xe3;" horiz-adv-x="924" 
d="M857 974h17q101 -36 165 -188l6 -34q-18 -120 -63 -120l-5 6v6q28 52 28 85v6q0 62 -108 62q-259 0 -604 -381q-137 -191 -137 -274q298 277 525 410q0 16 56 23q57 0 114 -97v-5q-44 0 -125 -228l-11 -103q0 -84 68 -131v-11h-17q-114 0 -160 131l-17 91q0 93 52 228h-6
q-108 -55 -399 -359q-98 -131 -125 -131q-60 0 -114 148v17q0 306 444 672q234 177 416 177zM1066 1275q101 0 191 -127q6 -29 -18 -23q-80 52 -103 52q-90 3 -216 -48.5t-210.5 -39.5t-92.5 123q4 27 28 17q42 -40 70 -40h29q44 0 157.5 43t164.5 43z" />
    <glyph glyph-name="egrave" unicode="&#xe8;" horiz-adv-x="808" 
d="M738 972q90 0 196 -195l5 -6v-6q0 -157 -346 -296q-92 -28 -151 -28q-73 7 -73 28q13 13 129 39q277 166 313 313h-6q-168 -33 -470 -307q-178 -201 -178 -319q14 -84 78 -84q146 11 464 274l5 6h6l6 -6v-5q-46 -129 -353 -347q-71 -34 -100 -34q-137 0 -218 191l-17 67
q0 286 486 626q155 89 224 89zM714 1371l203 -314q11 0 11 -27v-11h-11q-84 0 -314 225l-11 39q0 58 122 88z" />
    <glyph glyph-name="eacute" unicode="&#xe9;" horiz-adv-x="808" 
d="M738 972q90 0 196 -195l5 -6v-6q0 -157 -346 -296q-92 -28 -151 -28q-73 7 -73 28q13 13 129 39q277 166 313 313h-6q-168 -33 -470 -307q-178 -201 -178 -319q14 -84 78 -84q146 11 464 274l5 6h6l6 -6v-5q-46 -129 -353 -347q-71 -34 -100 -34q-137 0 -218 191l-17 67
q0 286 486 626q155 89 224 89zM986 1311h11q105 -25 105 -77v-6q-45 -60 -325 -148l-110 -22l-11 16z" />
    <glyph glyph-name="ecircumflex" unicode="&#xea;" horiz-adv-x="808" 
d="M738 972q90 0 196 -195l5 -6v-6q0 -157 -346 -296q-92 -28 -151 -28q-73 7 -73 28q13 13 129 39q277 166 313 313h-6q-168 -33 -470 -307q-178 -201 -178 -319q14 -84 78 -84q146 11 464 274l5 6h6l6 -6v-5q-46 -129 -353 -347q-71 -34 -100 -34q-137 0 -218 191l-17 67
q0 286 486 626q155 89 224 89zM764 1233q224 -136 224 -223l-5 -5h-10q-77 82 -234 121q-85 4 -199 -99h-15q0 96 224 206h15z" />
    <glyph glyph-name="igrave" unicode="&#xec;" horiz-adv-x="469" 
d="M470 981h25q82 0 142 -123l6 -19q0 -32 -229 -278q-333 -377 -333 -538l12 -12v-12q-142 0 -142 123q0 187 513 810l12 31zM521 1371l203 -314q11 0 11 -27v-11h-11q-84 0 -314 225l-11 39q0 58 122 88z" />
    <glyph glyph-name="iacute" unicode="&#xed;" horiz-adv-x="469" 
d="M470 981h25q82 0 142 -123l6 -19q0 -32 -229 -278q-333 -377 -333 -538l12 -12v-12q-142 0 -142 123q0 187 513 810l12 31zM1008 1311h11q105 -25 105 -77v-6q-45 -60 -325 -148l-110 -22l-11 16z" />
    <glyph glyph-name="ograve" unicode="&#xf2;" horiz-adv-x="940" 
d="M776 1011q79 0 197 -172q15 -40 -18 -36q-65 41 -113 41q-243 0 -559 -356q-125 -172 -129 -300v-18q4 -57 81 -69q195 0 506 434q59 99 59 191q-1 19 -42 47v6q0 16 26.5 20.5t63.5 3.5q101 -12 113 -131q22 -257 -399 -565q-172 -107 -279 -107h-18q-145 -5 -198.5 68
t-45.5 176v24q0 277 369 582q222 161 386 161zM714 1371l203 -314q11 0 11 -27v-11h-11q-84 0 -314 225l-11 39q0 58 122 88z" />
    <glyph glyph-name="oacute" unicode="&#xf3;" horiz-adv-x="940" 
d="M776 1011q79 0 197 -172q15 -40 -18 -36q-65 41 -113 41q-243 0 -559 -356q-125 -172 -129 -300v-18q4 -57 81 -69q195 0 506 434q59 99 59 191q-1 19 -42 47v6q0 16 26.5 20.5t63.5 3.5q101 -12 113 -131q22 -257 -399 -565q-172 -107 -279 -107h-18q-145 -5 -198.5 68
t-45.5 176v24q0 277 369 582q222 161 386 161zM947 1311h11q105 -25 105 -77v-6q-45 -60 -325 -148l-110 -22l-11 16z" />
    <glyph glyph-name="ocircumflex" unicode="&#xf4;" horiz-adv-x="940" 
d="M776 1011q79 0 197 -172q15 -40 -18 -36q-65 41 -113 41q-243 0 -559 -356q-125 -172 -129 -300v-18q4 -57 81 -69q195 0 506 434q59 99 59 191q-1 19 -42 47v6q0 16 26.5 20.5t63.5 3.5q101 -12 113 -131q22 -257 -399 -565q-172 -107 -279 -107h-18q-145 -5 -198.5 68
t-45.5 176v24q0 277 369 582q222 161 386 161zM834 1259q224 -136 224 -223l-5 -5h-10q-77 82 -234 121q-85 4 -199 -99h-15q0 96 224 206h15z" />
    <glyph glyph-name="otilde" unicode="&#xf5;" horiz-adv-x="940" 
d="M776 1011q79 0 197 -172q15 -40 -18 -36q-65 41 -113 41q-243 0 -559 -356q-125 -172 -129 -300v-18q4 -57 81 -69q195 0 506 434q59 99 59 191q-1 19 -42 47v6q0 16 26.5 20.5t63.5 3.5q101 -12 113 -131q22 -257 -399 -565q-172 -107 -279 -107h-18q-145 -5 -198.5 68
t-45.5 176v24q0 277 369 582q222 161 386 161zM1066 1275q101 0 191 -127q6 -29 -18 -23q-80 52 -103 52q-90 3 -216 -48.5t-210.5 -39.5t-92.5 123q4 27 28 17q42 -40 70 -40h29q44 0 157.5 43t164.5 43z" />
    <glyph glyph-name="divide" unicode="&#xf7;" horiz-adv-x="1706" 
 />
    <glyph glyph-name="glyph216" unicode="&#xf9;" horiz-adv-x="1012" 
d="M749 1371l203 -314q11 0 11 -27v-11h-11q-84 0 -314 225l-11 39q0 58 122 88zM509 1018q89 0 180 -131l-203 -203q-340 -364 -340 -566q81 22 715 602q122 107 161 107q58 0 113 -113q0 -13 -167 -215q-220 -306 -220 -435q-3 -42 12 -77q-2 -12 -12 -6q-95 33 -118 97
q-8 12 -7 81q0 165 208 442h-6q-545 -600 -661 -608q-165 37 -167 179q0 297 489 810q12 36 23 36z" />
    <glyph glyph-name="glyph217" unicode="&#xfa;" horiz-adv-x="1012" 
d="M1232 1311h11q105 -25 105 -77v-6q-45 -60 -325 -148l-110 -22l-11 16zM509 1018q89 0 180 -131l-203 -203q-340 -364 -340 -566q81 22 715 602q122 107 161 107q58 0 113 -113q0 -13 -167 -215q-220 -306 -220 -435q-3 -42 12 -77q-2 -12 -12 -6q-95 33 -118 97
q-8 12 -7 81q0 165 208 442h-6q-545 -600 -661 -608q-165 37 -167 179q0 297 489 810q12 36 23 36z" />
    <glyph glyph-name="glyph234" unicode="&#xfd;" horiz-adv-x="945" 
d="M504 973q79 0 156 -116v-23q-1 -40 -137 -138q-246 -222 -338 -390q-76 -146 -76 -174h6q87 0 725 580l23 6q134 -35 134 -104q-52 -139 -221 -493h6q35 -4 35 -18q0 -25 -75 -46q-483 -789 -813 -789q-133 15 -133 122q0 227 534 597q114 67 255 122l197 464
q-561 -568 -673 -568q-106 0 -133 139v23q0 271 452 714q48 45 70 92h6zM-105 -616q1 -10 11 -12q117 0 400 314q102 125 232 336v6q-198 -81 -522 -400q-121 -151 -121 -244zM1162 1149h11q105 -25 105 -77v-6q-45 -60 -325 -148l-110 -22l-11 16z" />
    <glyph glyph-name="Abreve" unicode="&#x102;" 
d="M1696 1680q391 0 854 -186q88 -80 109 -164q-3 -39 -131 -170q-265 -303 -411 -514q0 -13 39 -17q109 -53 109 -87l-5 -6h-17l-158 66q-197 -309 -214 -482q0 -79 71 -104v-5l-11 -11h-5q-144 0 -170 197l-5 33q0 138 158 421h-5q-154 44 -295 44h-6q-645 -553 -886 -618
q-183 -77 -350 -77q-257 0 -351 181q-16 26 -16 82v5q0 276 733 443q274 49 624 49l126 -5l935 711q-345 104 -662 104q-607 -28 -607 -169l27 -39l-11 -11q-87 35 -87 132q0 169 481 197h137zM1652 739q106 0 285 -44q121 212 427 563q-151 -92 -712 -519zM98 279
q0 -79 93 -115l99 -16q255 0 613 213q192 111 509 334v5h-33q-816 0 -1220 -306q-56 -61 -61 -115zM2403 1790h18q138 -100 240 -96q189 38 282 117h12l6 -5q0 -83 -142 -189t-279 -13t-137 186z" />
    <glyph glyph-name="abreve" unicode="&#x103;" horiz-adv-x="924" 
d="M857 974h17q101 -36 165 -188l6 -34q-18 -120 -63 -120l-5 6v6q28 52 28 85v6q0 62 -108 62q-259 0 -604 -381q-137 -191 -137 -274q298 277 525 410q0 16 56 23q57 0 114 -97v-5q-44 0 -125 -228l-11 -103q0 -84 68 -131v-11h-17q-114 0 -160 131l-17 91q0 93 52 228h-6
q-108 -55 -399 -359q-98 -131 -125 -131q-60 0 -114 148v17q0 306 444 672q234 177 416 177zM1141 1182l-66 -56q-186 -126 -289 -74q-31 7 -63 45q-66 100 -32 187q11 13 31 -4q49 -72 87 -98t104.5 -33.5t187.5 72.5l20 17q26 22 46 47q34 29 40.5 -3.5t-66.5 -99.5z" />
    <glyph glyph-name="Ccaron" unicode="&#x10c;" horiz-adv-x="1274" 
 />
    <glyph glyph-name="ccaron" unicode="&#x10d;" horiz-adv-x="922" 
 />
    <glyph glyph-name="Dslash" unicode="&#x110;" horiz-adv-x="1807" 
d="M1321 1684h34q551 0 710 -386q28 -104 28 -185v-17q0 -326 -449 -715q-489 -381 -883 -381h-34q-185 45 -185 185q0 46 98 126q93 73 294 139q173 40 243 40l51 -11v-12q-576 -174 -576 -277q5 -17 34 -17h18q390 0 934 444q340 298 340 565q0 145 -196 248
q-168 81 -375 81h-29q-635 0 -1124 -456q-98 -106 -98 -219q0 -56 75 -144l5 -6v-5l-17 -12q-91 0 -196 196q-23 63 -23 104q0 206 484 507q407 208 837 208zM865 999q79 56 173 114q167 87 248 87h23l17 -18v-23q-11 -14 -138 -75q-56 -29 -125 -84q293 -30 323 -190
q19 -100 -35 -137l-10 11l11 40q-26 139 -419 162q-79 -76 -172 -177q-138 -181 -138 -294v-6q0 -25 34 -63q0 -14 -69 -29q-155 34 -155 144v18q0 165 248 379q-109 -29 -219 -84l-43 -23q-52 -17 -62.5 10.5t34.5 57.5q242 159 474 180z" />
    <glyph glyph-name="dcroat" unicode="&#x111;" horiz-adv-x="954" 
d="M124 142q8 -26 23 -28q150 44 565 457q110 133 118 209q-5 23 -34 23h-22q-205 0 -526 -373q-124 -174 -124 -288zM1388 1187q-63 -63 -134 -136q-254 -294 -254 -322h5q316 286 498 473q-41 -4 -115 -15zM1578 1281q90 98 133 160l23 45h-6q-98 -66 -257 -218
q52 6 107 13zM1099 1140l-197 -39q-83 0 -115 119v8l90 -16l32 -1q118 8 268 23q390 433 512 433q63 0 152 -136v-11q-5 -73 -144 -231l158 10q56 0 59 -31q0 -25 -286 -54q-225 -236 -685 -620q-220 -305 -220 -491q0 -102 68 -102v-17h-34q-125 0 -158 186v29q0 90 34 186
q-321 -370 -447 -390q-109 0 -186 181v45q0 228 316 531q258 226 435 226q53 0 124 -124v-12z" />
    <glyph glyph-name="Itilde" unicode="&#x128;" horiz-adv-x="1146" 
d="M1674 1797l155 -106q564 -71 564 -217v-6q0 -39 -50 -74h-25l-12 12v6l12 19v6q-149 105 -471 105h-136q-166 -109 -601 -564q-452 -528 -472 -781q277 -3 354 -93l-13 -18l-111 12h-174q-323 0 -520 -155v-6l24 -31l-12 -12h-25q-118 17 -118 111q0 144 453 192h18
q-43 50 -43 81q0 349 874 1240h-6q-233 0 -719 -137q-477 -198 -477 -353q0 -74 148 -99l7 -6v-19l-31 -6h-25q-204 0 -242 204v50q0 144 167 223q554 316 1364 316q93 106 143 106zM1899 2027q101 0 191 -127q6 -29 -18 -23q-80 52 -103 52q-90 3 -216 -48.5t-210.5 -39.5
t-92.5 123q4 27 28 17q42 -40 70 -40h29q44 0 157.5 43t164.5 43z" />
    <glyph glyph-name="itilde" unicode="&#x129;" horiz-adv-x="469" 
d="M470 981h25q82 0 142 -123l6 -19q0 -32 -229 -278q-333 -377 -333 -538l12 -12v-12q-142 0 -142 123q0 187 513 810l12 31zM887 1275q101 0 191 -127q6 -29 -18 -23q-80 52 -103 52q-90 3 -216 -48.5t-210.5 -39.5t-92.5 123q4 27 28 17q42 -40 70 -40h29q44 0 157.5 43
t164.5 43z" />
    <glyph glyph-name="Utilde" unicode="&#x168;" horiz-adv-x="1858" 
d="M1315 1695h49q206 0 276 -154l6 -30q0 -48 -258 -252q-579 -529 -706 -848q-55 -107 -55 -166q10 -67 61 -67q165 0 842 595q422 357 479 357q78 0 172 -148v-12q0 -11 -135 -129q-461 -497 -461 -713q0 -73 68 -129q-32 -18 -62 -18h-6q-129 0 -172 184v13
q0 248 393 681h-6q-183 -141 -682 -620q-269 -240 -375 -240q-176 0 -270 258l-12 74q0 338 632 965l314 288q-605 0 -1106 -417q-129 -131 -129 -209v-19q0 -26 31 -61q5 -12 -6 -12q-184 3 -197 215q0 338 848 559q253 55 467 55zM2225 1607q97 -29 146 -177
q-3 -30 -23 -17q-62 73 -85 80q-85 29 -220.5 16.5t-213 23t-52.5 144.5q12 25 32 8q28 -51 55 -59l27 -8q43 -13 164 -4.5t170 -6.5z" />
    <glyph glyph-name="utilde" unicode="&#x169;" horiz-adv-x="1012" 
d="M1185 1275q101 0 191 -127q6 -29 -18 -23q-80 52 -103 52q-90 3 -216 -48.5t-210.5 -39.5t-92.5 123q4 27 28 17q42 -40 70 -40h29q44 0 157.5 43t164.5 43zM509 1018q89 0 180 -131l-203 -203q-340 -364 -340 -566q81 22 715 602q122 107 161 107q58 0 113 -113
q0 -13 -167 -215q-220 -306 -220 -435q-3 -42 12 -77q-2 -12 -12 -6q-95 33 -118 97q-8 12 -7 81q0 165 208 442h-6q-545 -600 -661 -608q-165 37 -167 179q0 297 489 810q12 36 23 36z" />
    <glyph glyph-name="Ohorn" unicode="&#x1a0;" horiz-adv-x="1407" 
d="M1627 979q-40 -415 -543 -797q-284 -186 -509 -186q-238 0 -407 180q-168 199 -168 431v12q0 449 575 863q356 203 641 203q211 0 348 -233l18 -72v-30l-12 -12h-12l-48 90q-59 60 -204 60h-60q-388 0 -809 -384q-287 -307 -287 -635q0 -230 245 -311l120 -18
q366 0 761 443q139 179 191 343q-71 -23 -154 -47l-17 2v6q104 46 185 89q17 72 17 140v18q0 134 -132 180l-72 12q-128 0 -276 -60h-6l-11 12v12q122 102 275 102h30q240 0 318 -264l5 -64q123 84 140 151q-7 153 76.5 140.5t121 -67t-3.5 -117t-176 -127.5
q-61 -30 -160 -65z" />
    <glyph glyph-name="ohorn" unicode="&#x1a1;" horiz-adv-x="940" 
d="M776 1011q79 0 197 -172q15 -40 -18 -36q-65 41 -113 41q-243 0 -559 -356q-125 -172 -129 -300v-18q4 -57 81 -69q195 0 506 434q59 99 59 191q-1 19 -42 47v6q0 16 26.5 20.5t63.5 3.5q101 -12 113 -131q22 -257 -399 -565q-172 -107 -279 -107h-18q-145 -5 -198.5 68
t-45.5 176v24q0 277 369 582q222 161 386 161zM805 651q212 114 233 198q-7 131 65 120t104 -57.5t-3 -100.5t-151 -110q-47 -23 -121 -50h-127z" />
    <glyph glyph-name="Uhorn" unicode="&#x1af;" horiz-adv-x="1941" 
d="M1381 1787h49q206 0 276 -154l6 -30q0 -48 -258 -252q-579 -529 -706 -848q-55 -107 -55 -166q10 -67 61 -67q165 0 842 595q422 357 479 357q78 0 172 -148v-12q0 -11 -135 -129q-461 -497 -461 -713q0 -73 68 -129q-32 -18 -62 -18h-6q-129 0 -172 184v13
q0 248 393 681h-6q-183 -141 -682 -620q-269 -240 -375 -240q-176 0 -270 258l-12 74q0 338 632 965l314 288q-605 0 -1106 -417q-129 -131 -129 -209v-19q0 -26 31 -61q5 -12 -6 -12q-184 3 -197 215q0 338 848 559q253 55 467 55zM2531.5 1222.5q37.5 -54.5 -3.5 -117
t-176.5 -128t-473.5 -164.5l-17 2v6q440 197 473 328q-7 153 76.5 140.5t121 -67z" />
    <glyph glyph-name="uhorn" unicode="&#x1b0;" horiz-adv-x="1012" 
d="M509 1018q89 0 180 -131l-203 -203q-340 -364 -340 -566q81 22 715 602q122 107 161 107q58 0 113 -113q0 -13 -167 -215q-220 -306 -220 -435q-3 -42 12 -77q-2 -12 -12 -6q-95 33 -118 97q-8 12 -7 81q0 165 208 442h-6q-545 -600 -661 -608q-165 37 -167 179
q0 297 489 810q12 36 23 36zM932 651q212 114 233 198q-7 131 65 120t104 -57.5t-3 -100.5t-151 -110q-47 -23 -121 -50h-127z" />
    <glyph glyph-name="uni1EA0" unicode="&#x1ea0;" 
d="M1696 1680q391 0 854 -186q88 -80 109 -164q-3 -39 -131 -170q-265 -303 -411 -514q0 -13 39 -17q109 -53 109 -87l-5 -6h-17l-158 66q-197 -309 -214 -482q0 -79 71 -104v-5l-11 -11h-5q-144 0 -170 197l-5 33q0 138 158 421h-5q-154 44 -295 44h-6q-645 -553 -886 -618
q-183 -77 -350 -77q-257 0 -351 181q-16 26 -16 82v5q0 276 733 443q274 49 624 49l126 -5l935 711q-345 104 -662 104q-607 -28 -607 -169l27 -39l-11 -11q-87 35 -87 132q0 169 481 197h137zM1652 739q106 0 285 -44q121 212 427 563q-151 -92 -712 -519zM98 279
q0 -79 93 -115l99 -16q255 0 613 213q192 111 509 334v5h-33q-816 0 -1220 -306q-56 -61 -61 -115zM1295 -79h4q82 -8 82 -77q0 -99 -130 -126h-29q-56 0 -77 73q0 115 150 130z" />
    <glyph glyph-name="uni1EA1" unicode="&#x1ea1;" horiz-adv-x="924" 
d="M857 974h17q101 -36 165 -188l6 -34q-18 -120 -63 -120l-5 6v6q28 52 28 85v6q0 62 -108 62q-259 0 -604 -381q-137 -191 -137 -274q298 277 525 410q0 16 56 23q57 0 114 -97v-5q-44 0 -125 -228l-11 -103q0 -84 68 -131v-11h-17q-114 0 -160 131l-17 91q0 93 52 228h-6
q-108 -55 -399 -359q-98 -131 -125 -131q-60 0 -114 148v17q0 306 444 672q234 177 416 177zM449 -63h5q72 -8 72 -69q0 -87 -115 -111h-26q-50 0 -68 64q0 103 132 116z" />
    <glyph glyph-name="uni1EA2" unicode="&#x1ea2;" 
d="M1696 1680q391 0 854 -186q88 -80 109 -164q-3 -39 -131 -170q-265 -303 -411 -514q0 -13 39 -17q109 -53 109 -87l-5 -6h-17l-158 66q-197 -309 -214 -482q0 -79 71 -104v-5l-11 -11h-5q-144 0 -170 197l-5 33q0 138 158 421h-5q-154 44 -295 44h-6q-645 -553 -886 -618
q-183 -77 -350 -77q-257 0 -351 181q-16 26 -16 82v5q0 276 733 443q274 49 624 49l126 -5l935 711q-345 104 -662 104q-607 -28 -607 -169l27 -39l-11 -11q-87 35 -87 132q0 169 481 197h137zM1652 739q106 0 285 -44q121 212 427 563q-151 -92 -712 -519zM98 279
q0 -79 93 -115l99 -16q255 0 613 213q192 111 509 334v5h-33q-816 0 -1220 -306q-56 -61 -61 -115zM2902 1933h3q102 0 155 -107l5 -32q0 -90 -238 -178q-93 -48 -93 -81l12 -19v-14l-19 -17h-25q-64 17 -64 28q-4 0 -8 39v9q0 81 250 145q189 44 77 128q0 -2 -22 0
q-113 0 -238 -89l-6 -9l4 -38h-48q-55 34 -55 84q0 49 159 120q93 31 151 31z" />
    <glyph glyph-name="uni1EA3" unicode="&#x1ea3;" horiz-adv-x="924" 
d="M857 974h17q101 -36 165 -188l6 -34q-18 -120 -63 -120l-5 6v6q28 52 28 85v6q0 62 -108 62q-259 0 -604 -381q-137 -191 -137 -274q298 277 525 410q0 16 56 23q57 0 114 -97v-5q-44 0 -125 -228l-11 -103q0 -84 68 -131v-11h-17q-114 0 -160 131l-17 91q0 93 52 228h-6
q-108 -55 -399 -359q-98 -131 -125 -131q-60 0 -114 148v17q0 306 444 672q234 177 416 177zM1138 1421h2q88 0 134 -93l5 -27q0 -78 -206 -154q-81 -41 -81 -70l11 -17v-12l-16 -14h-22q-56 15 -56 24q-3 0 -6 34v8q0 70 216 125q163 38 66 110q0 -1 -19 0q-98 0 -205 -76
l-6 -8l4 -33h-41q-48 29 -48 72t138 104q79 27 130 27z" />
    <glyph glyph-name="uni1EA4" unicode="&#x1ea4;" 
d="M1696 1680q391 0 854 -186q88 -80 109 -164q-3 -39 -131 -170q-265 -303 -411 -514q0 -13 39 -17q109 -53 109 -87l-5 -6h-17l-158 66q-197 -309 -214 -482q0 -79 71 -104v-5l-11 -11h-5q-144 0 -170 197l-5 33q0 138 158 421h-5q-154 44 -295 44h-6q-645 -553 -886 -618
q-183 -77 -350 -77q-257 0 -351 181q-16 26 -16 82v5q0 276 733 443q274 49 624 49l126 -5l935 711q-345 104 -662 104q-607 -28 -607 -169l27 -39l-11 -11q-87 35 -87 132q0 169 481 197h137zM1652 739q106 0 285 -44q121 212 427 563q-151 -92 -712 -519zM98 279
q0 -79 93 -115l99 -16q255 0 613 213q192 111 509 334v5h-33q-816 0 -1220 -306q-56 -61 -61 -115zM3175 2006h11q105 -25 105 -77v-6q-45 -60 -325 -148l-110 -22l-11 16zM2664 1820q248 -138 248 -226l-6 -5h-11q-85 83 -259 123q-94 4 -220 -101h-17q0 98 248 209h17z
" />
    <glyph glyph-name="uni1EA5" unicode="&#x1ea5;" horiz-adv-x="924" 
d="M857 974h17q101 -36 165 -188l6 -34q-18 -120 -63 -120l-5 6v6q28 52 28 85v6q0 62 -108 62q-259 0 -604 -381q-137 -191 -137 -274q298 277 525 410q0 16 56 23q57 0 114 -97v-5q-44 0 -125 -228l-11 -103q0 -84 68 -131v-11h-17q-114 0 -160 131l-17 91q0 93 52 228h-6
q-108 -55 -399 -359q-98 -131 -125 -131q-60 0 -114 148v17q0 306 444 672q234 177 416 177zM1373 1441h10q102 -24 102 -75v-5q-44 -59 -315 -144l-106 -21l-11 16zM913 1233q224 -136 224 -223l-5 -5h-10q-77 82 -234 121q-85 4 -199 -99h-15q0 96 224 206h15z" />
    <glyph glyph-name="uni1EA6" unicode="&#x1ea6;" 
d="M1696 1680q391 0 854 -186q88 -80 109 -164q-3 -39 -131 -170q-265 -303 -411 -514q0 -13 39 -17q109 -53 109 -87l-5 -6h-17l-158 66q-197 -309 -214 -482q0 -79 71 -104v-5l-11 -11h-5q-144 0 -170 197l-5 33q0 138 158 421h-5q-154 44 -295 44h-6q-645 -553 -886 -618
q-183 -77 -350 -77q-257 0 -351 181q-16 26 -16 82v5q0 276 733 443q274 49 624 49l126 -5l935 711q-345 104 -662 104q-607 -28 -607 -169l27 -39l-11 -11q-87 35 -87 132q0 169 481 197h137zM1652 739q106 0 285 -44q121 212 427 563q-151 -92 -712 -519zM98 279
q0 -79 93 -115l99 -16q255 0 613 213q192 111 509 334v5h-33q-816 0 -1220 -306q-56 -61 -61 -115zM2646 2134l203 -314q11 0 11 -27v-11h-11q-84 0 -314 225l-11 39q0 58 122 88zM2664 1820q248 -138 248 -226l-6 -5h-11q-85 83 -259 123q-94 4 -220 -101h-17q0 98 248 209
h17z" />
    <glyph glyph-name="uni1EA7" unicode="&#x1ea7;" horiz-adv-x="924" 
d="M857 974h17q101 -36 165 -188l6 -34q-18 -120 -63 -120l-5 6v6q28 52 28 85v6q0 62 -108 62q-259 0 -604 -381q-137 -191 -137 -274q298 277 525 410q0 16 56 23q57 0 114 -97v-5q-44 0 -125 -228l-11 -103q0 -84 68 -131v-11h-17q-114 0 -160 131l-17 91q0 93 52 228h-6
q-108 -55 -399 -359q-98 -131 -125 -131q-60 0 -114 148v17q0 306 444 672q234 177 416 177zM929 1519l203 -314q11 0 11 -27v-11h-11q-84 0 -314 225l-11 39q0 58 122 88zM913 1233q224 -136 224 -223l-5 -5h-10q-77 82 -234 121q-85 4 -199 -99h-15q0 96 224 206h15z" />
    <glyph glyph-name="uni1EA8" unicode="&#x1ea8;" 
d="M1696 1680q391 0 854 -186q88 -80 109 -164q-3 -39 -131 -170q-265 -303 -411 -514q0 -13 39 -17q109 -53 109 -87l-5 -6h-17l-158 66q-197 -309 -214 -482q0 -79 71 -104v-5l-11 -11h-5q-144 0 -170 197l-5 33q0 138 158 421h-5q-154 44 -295 44h-6q-645 -553 -886 -618
q-183 -77 -350 -77q-257 0 -351 181q-16 26 -16 82v5q0 276 733 443q274 49 624 49l126 -5l935 711q-345 104 -662 104q-607 -28 -607 -169l27 -39l-11 -11q-87 35 -87 132q0 169 481 197h137zM1652 739q106 0 285 -44q121 212 427 563q-151 -92 -712 -519zM98 279
q0 -79 93 -115l99 -16q255 0 613 213q192 111 509 334v5h-33q-816 0 -1220 -306q-56 -61 -61 -115zM3069 2187h3q102 0 155 -107l5 -32q0 -90 -238 -178q-93 -48 -93 -81l12 -19v-14l-19 -17h-25q-64 17 -64 28q-4 0 -8 39v9q0 81 250 145q189 44 77 128q0 -2 -22 0
q-113 0 -238 -89l-6 -9l4 -38h-48q-55 34 -55 84q0 49 159 120q93 31 151 31zM2664 1820q248 -138 248 -226l-6 -5h-11q-85 83 -259 123q-94 4 -220 -101h-17q0 98 248 209h17z" />
    <glyph glyph-name="uni1EA9" unicode="&#x1ea9;" horiz-adv-x="924" 
d="M857 974h17q101 -36 165 -188l6 -34q-18 -120 -63 -120l-5 6v6q28 52 28 85v6q0 62 -108 62q-259 0 -604 -381q-137 -191 -137 -274q298 277 525 410q0 16 56 23q57 0 114 -97v-5q-44 0 -125 -228l-11 -103q0 -84 68 -131v-11h-17q-114 0 -160 131l-17 91q0 93 52 228h-6
q-108 -55 -399 -359q-98 -131 -125 -131q-60 0 -114 148v17q0 306 444 672q234 177 416 177zM1274 1561h2q88 0 134 -93l5 -27q0 -78 -206 -154q-81 -41 -81 -70l11 -17v-12l-16 -14h-22q-56 15 -56 24q-3 0 -6 34v8q0 70 216 125q163 38 66 110q0 -1 -19 0q-98 0 -205 -76
l-6 -8l4 -33h-41q-48 29 -48 72t138 104q79 27 130 27zM913 1233q224 -136 224 -223l-5 -5h-10q-77 82 -234 121q-85 4 -199 -99h-15q0 96 224 206h15z" />
    <glyph glyph-name="uni1EAA" unicode="&#x1eaa;" 
d="M1696 1680q391 0 854 -186q88 -80 109 -164q-3 -39 -131 -170q-265 -303 -411 -514q0 -13 39 -17q109 -53 109 -87l-5 -6h-17l-158 66q-197 -309 -214 -482q0 -79 71 -104v-5l-11 -11h-5q-144 0 -170 197l-5 33q0 138 158 421h-5q-154 44 -295 44h-6q-645 -553 -886 -618
q-183 -77 -350 -77q-257 0 -351 181q-16 26 -16 82v5q0 276 733 443q274 49 624 49l126 -5l935 711q-345 104 -662 104q-607 -28 -607 -169l27 -39l-11 -11q-87 35 -87 132q0 169 481 197h137zM1652 739q106 0 285 -44q121 212 427 563q-151 -92 -712 -519zM98 279
q0 -79 93 -115l99 -16q255 0 613 213q192 111 509 334v5h-33q-816 0 -1220 -306q-56 -61 -61 -115zM2664 1820q248 -138 248 -226l-6 -5h-11q-85 83 -259 123q-94 4 -220 -101h-17q0 98 248 209h17zM2855 1924q113 -43 158 -43h29q28 0 69 40q25 10 29 -17
q-8 -111 -92.5 -123t-210.5 39.5t-216 48.5q-23 0 -104 -52q-23 -6 -17 23q90 127 190 127q52 0 165 -43z" />
    <glyph glyph-name="uni1EAB" unicode="&#x1eab;" horiz-adv-x="924" 
d="M857 974h17q101 -36 165 -188l6 -34q-18 -120 -63 -120l-5 6v6q28 52 28 85v6q0 62 -108 62q-259 0 -604 -381q-137 -191 -137 -274q298 277 525 410q0 16 56 23q57 0 114 -97v-5q-44 0 -125 -228l-11 -103q0 -84 68 -131v-11h-17q-114 0 -160 131l-17 91q0 93 52 228h-6
q-108 -55 -399 -359q-98 -131 -125 -131q-60 0 -114 148v17q0 306 444 672q234 177 416 177zM1068 1359q113 -43 158 -43h29q28 0 69 40q25 10 29 -17q-8 -111 -92.5 -123t-210.5 39.5t-216 48.5q-23 0 -104 -52q-23 -6 -17 23q90 127 190 127q52 0 165 -43zM913 1233
q224 -136 224 -223l-5 -5h-10q-77 82 -234 121q-85 4 -199 -99h-15q0 96 224 206h15z" />
    <glyph glyph-name="uni1EAC" unicode="&#x1eac;" 
d="M1696 1680q391 0 854 -186q88 -80 109 -164q-3 -39 -131 -170q-265 -303 -411 -514q0 -13 39 -17q109 -53 109 -87l-5 -6h-17l-158 66q-197 -309 -214 -482q0 -79 71 -104v-5l-11 -11h-5q-144 0 -170 197l-5 33q0 138 158 421h-5q-154 44 -295 44h-6q-645 -553 -886 -618
q-183 -77 -350 -77q-257 0 -351 181q-16 26 -16 82v5q0 276 733 443q274 49 624 49l126 -5l935 711q-345 104 -662 104q-607 -28 -607 -169l27 -39l-11 -11q-87 35 -87 132q0 169 481 197h137zM1652 739q106 0 285 -44q121 212 427 563q-151 -92 -712 -519zM98 279
q0 -79 93 -115l99 -16q255 0 613 213q192 111 509 334v5h-33q-816 0 -1220 -306q-56 -61 -61 -115zM2664 1820q248 -138 248 -226l-6 -5h-11q-85 83 -259 123q-94 4 -220 -101h-17q0 98 248 209h17zM1295 -79h4q82 -8 82 -77q0 -99 -130 -126h-29q-56 0 -77 73
q0 115 150 130z" />
    <glyph glyph-name="uni1EAD" unicode="&#x1ead;" horiz-adv-x="924" 
d="M857 974h17q101 -36 165 -188l6 -34q-18 -120 -63 -120l-5 6v6q28 52 28 85v6q0 62 -108 62q-259 0 -604 -381q-137 -191 -137 -274q298 277 525 410q0 16 56 23q57 0 114 -97v-5q-44 0 -125 -228l-11 -103q0 -84 68 -131v-11h-17q-114 0 -160 131l-17 91q0 93 52 228h-6
q-108 -55 -399 -359q-98 -131 -125 -131q-60 0 -114 148v17q0 306 444 672q234 177 416 177zM449 -63h5q72 -8 72 -69q0 -87 -115 -111h-26q-50 0 -68 64q0 103 132 116zM913 1233q224 -136 224 -223l-5 -5h-10q-77 82 -234 121q-85 4 -199 -99h-15q0 96 224 206h15z" />
    <glyph glyph-name="uni1EAE" unicode="&#x1eae;" 
d="M1696 1680q391 0 854 -186q88 -80 109 -164q-3 -39 -131 -170q-265 -303 -411 -514q0 -13 39 -17q109 -53 109 -87l-5 -6h-17l-158 66q-197 -309 -214 -482q0 -79 71 -104v-5l-11 -11h-5q-144 0 -170 197l-5 33q0 138 158 421h-5q-154 44 -295 44h-6q-645 -553 -886 -618
q-183 -77 -350 -77q-257 0 -351 181q-16 26 -16 82v5q0 276 733 443q274 49 624 49l126 -5l935 711q-345 104 -662 104q-607 -28 -607 -169l27 -39l-11 -11q-87 35 -87 132q0 169 481 197h137zM1652 739q106 0 285 -44q121 212 427 563q-151 -92 -712 -519zM98 279
q0 -79 93 -115l99 -16q255 0 613 213q192 111 509 334v5h-33q-816 0 -1220 -306q-56 -61 -61 -115zM2403 1790h18q138 -100 240 -96q189 38 282 117h12l6 -5q0 -83 -142 -189t-279 -13t-137 186zM2968 2013h11q105 -25 105 -77v-6q-45 -60 -325 -148l-110 -22l-11 16z" />
    <glyph glyph-name="uni1EAF" unicode="&#x1eaf;" horiz-adv-x="924" 
d="M857 974h17q101 -36 165 -188l6 -34q-18 -120 -63 -120l-5 6v6q28 52 28 85v6q0 62 -108 62q-259 0 -604 -381q-137 -191 -137 -274q298 277 525 410q0 16 56 23q57 0 114 -97v-5q-44 0 -125 -228l-11 -103q0 -84 68 -131v-11h-17q-114 0 -160 131l-17 91q0 93 52 228h-6
q-108 -55 -399 -359q-98 -131 -125 -131q-60 0 -114 148v17q0 306 444 672q234 177 416 177zM1141 1182l-66 -56q-186 -126 -289 -74q-31 7 -63 45q-66 100 -32 187q11 13 31 -4q49 -72 87 -98t104.5 -33.5t187.5 72.5l20 17q26 22 46 47q34 29 40.5 -3.5t-66.5 -99.5z
M1175 1486h11q105 -25 105 -77v-6q-45 -60 -325 -148l-110 -22l-11 16z" />
    <glyph glyph-name="uni1EB0" unicode="&#x1eb0;" 
d="M1696 1680q391 0 854 -186q88 -80 109 -164q-3 -39 -131 -170q-265 -303 -411 -514q0 -13 39 -17q109 -53 109 -87l-5 -6h-17l-158 66q-197 -309 -214 -482q0 -79 71 -104v-5l-11 -11h-5q-144 0 -170 197l-5 33q0 138 158 421h-5q-154 44 -295 44h-6q-645 -553 -886 -618
q-183 -77 -350 -77q-257 0 -351 181q-16 26 -16 82v5q0 276 733 443q274 49 624 49l126 -5l935 711q-345 104 -662 104q-607 -28 -607 -169l27 -39l-11 -11q-87 35 -87 132q0 169 481 197h137zM1652 739q106 0 285 -44q121 212 427 563q-151 -92 -712 -519zM98 279
q0 -79 93 -115l99 -16q255 0 613 213q192 111 509 334v5h-33q-816 0 -1220 -306q-56 -61 -61 -115zM2403 1790h18q138 -100 240 -96q189 38 282 117h12l6 -5q0 -83 -142 -189t-279 -13t-137 186zM2484 2104l203 -314q11 0 11 -27v-11h-11q-84 0 -314 225l-11 39q0 58 122 88
z" />
    <glyph glyph-name="uni1EB1" unicode="&#x1eb1;" horiz-adv-x="924" 
d="M857 974h17q101 -36 165 -188l6 -34q-18 -120 -63 -120l-5 6v6q28 52 28 85v6q0 62 -108 62q-259 0 -604 -381q-137 -191 -137 -274q298 277 525 410q0 16 56 23q57 0 114 -97v-5q-44 0 -125 -228l-11 -103q0 -84 68 -131v-11h-17q-114 0 -160 131l-17 91q0 93 52 228h-6
q-108 -55 -399 -359q-98 -131 -125 -131q-60 0 -114 148v17q0 306 444 672q234 177 416 177zM736 1580l203 -314q11 0 11 -27v-11h-11q-84 0 -314 225l-11 39q0 58 122 88zM1141 1182l-66 -56q-186 -126 -289 -74q-31 7 -63 45q-66 100 -32 187q11 13 31 -4q49 -72 87 -98
t104.5 -33.5t187.5 72.5l20 17q26 22 46 47q34 29 40.5 -3.5t-66.5 -99.5z" />
    <glyph glyph-name="uni1EB2" unicode="&#x1eb2;" 
d="M1696 1680q391 0 854 -186q88 -80 109 -164q-3 -39 -131 -170q-265 -303 -411 -514q0 -13 39 -17q109 -53 109 -87l-5 -6h-17l-158 66q-197 -309 -214 -482q0 -79 71 -104v-5l-11 -11h-5q-144 0 -170 197l-5 33q0 138 158 421h-5q-154 44 -295 44h-6q-645 -553 -886 -618
q-183 -77 -350 -77q-257 0 -351 181q-16 26 -16 82v5q0 276 733 443q274 49 624 49l126 -5l935 711q-345 104 -662 104q-607 -28 -607 -169l27 -39l-11 -11q-87 35 -87 132q0 169 481 197h137zM1652 739q106 0 285 -44q121 212 427 563q-151 -92 -712 -519zM98 279
q0 -79 93 -115l99 -16q255 0 613 213q192 111 509 334v5h-33q-816 0 -1220 -306q-56 -61 -61 -115zM2403 1790h18q138 -100 240 -96q189 38 282 117h12l6 -5q0 -83 -142 -189t-279 -13t-137 186zM2885 2204h3q102 0 155 -107l5 -32q0 -90 -238 -178q-93 -48 -93 -81l12 -19
v-14l-19 -17h-25q-64 17 -64 28q-4 0 -8 39v9q0 81 250 145q189 44 77 128q0 -2 -22 0q-113 0 -238 -89l-6 -9l4 -38h-48q-55 34 -55 84q0 49 159 120q93 31 151 31z" />
    <glyph glyph-name="uni1EB3" unicode="&#x1eb3;" horiz-adv-x="924" 
d="M857 974h17q101 -36 165 -188l6 -34q-18 -120 -63 -120l-5 6v6q28 52 28 85v6q0 62 -108 62q-259 0 -604 -381q-137 -191 -137 -274q298 277 525 410q0 16 56 23q57 0 114 -97v-5q-44 0 -125 -228l-11 -103q0 -84 68 -131v-11h-17q-114 0 -160 131l-17 91q0 93 52 228h-6
q-108 -55 -399 -359q-98 -131 -125 -131q-60 0 -114 148v17q0 306 444 672q234 177 416 177zM1141 1182l-66 -56q-186 -126 -289 -74q-31 7 -63 45q-66 100 -32 187q11 13 31 -4q49 -72 87 -98t104.5 -33.5t187.5 72.5l20 17q26 22 46 47q34 29 40.5 -3.5t-66.5 -99.5z
M1107 1601h2q88 0 134 -93l5 -27q0 -78 -206 -154q-81 -41 -81 -70l11 -17v-12l-16 -14h-22q-56 15 -56 24q-3 0 -6 34v8q0 70 216 125q163 38 66 110q0 -1 -19 0q-98 0 -205 -76l-6 -8l4 -33h-41q-48 29 -48 72t138 104q79 27 130 27z" />
    <glyph glyph-name="uni1EB4" unicode="&#x1eb4;" 
d="M1696 1680q391 0 854 -186q88 -80 109 -164q-3 -39 -131 -170q-265 -303 -411 -514q0 -13 39 -17q109 -53 109 -87l-5 -6h-17l-158 66q-197 -309 -214 -482q0 -79 71 -104v-5l-11 -11h-5q-144 0 -170 197l-5 33q0 138 158 421h-5q-154 44 -295 44h-6q-645 -553 -886 -618
q-183 -77 -350 -77q-257 0 -351 181q-16 26 -16 82v5q0 276 733 443q274 49 624 49l126 -5l935 711q-345 104 -662 104q-607 -28 -607 -169l27 -39l-11 -11q-87 35 -87 132q0 169 481 197h137zM1652 739q106 0 285 -44q121 212 427 563q-151 -92 -712 -519zM98 279
q0 -79 93 -115l99 -16q255 0 613 213q192 111 509 334v5h-33q-816 0 -1220 -306q-56 -61 -61 -115zM2403 1790h18q138 -100 240 -96q189 38 282 117h12l6 -5q0 -83 -142 -189t-279 -13t-137 186zM2955 1973q101 0 191 -127q6 -29 -18 -23q-80 52 -103 52q-90 3 -216 -48.5
t-210.5 -39.5t-92.5 123q4 27 28 17q42 -40 70 -40h29q44 0 157.5 43t164.5 43z" />
    <glyph glyph-name="uni1EB5" unicode="&#x1eb5;" horiz-adv-x="924" 
d="M857 974h17q101 -36 165 -188l6 -34q-18 -120 -63 -120l-5 6v6q28 52 28 85v6q0 62 -108 62q-259 0 -604 -381q-137 -191 -137 -274q298 277 525 410q0 16 56 23q57 0 114 -97v-5q-44 0 -125 -228l-11 -103q0 -84 68 -131v-11h-17q-114 0 -160 131l-17 91q0 93 52 228h-6
q-108 -55 -399 -359q-98 -131 -125 -131q-60 0 -114 148v17q0 306 444 672q234 177 416 177zM1141 1182l-66 -56q-186 -126 -289 -74q-31 7 -63 45q-66 100 -32 187q11 13 31 -4q49 -72 87 -98t104.5 -33.5t187.5 72.5l20 17q26 22 46 47q34 29 40.5 -3.5t-66.5 -99.5z
M1241 1441q101 0 191 -127q6 -29 -18 -23q-80 52 -103 52q-90 3 -216 -48.5t-210.5 -39.5t-92.5 123q4 27 28 17q42 -40 70 -40h29q44 0 157.5 43t164.5 43z" />
    <glyph glyph-name="uni1EB6" unicode="&#x1eb6;" 
d="M1696 1680q391 0 854 -186q88 -80 109 -164q-3 -39 -131 -170q-265 -303 -411 -514q0 -13 39 -17q109 -53 109 -87l-5 -6h-17l-158 66q-197 -309 -214 -482q0 -79 71 -104v-5l-11 -11h-5q-144 0 -170 197l-5 33q0 138 158 421h-5q-154 44 -295 44h-6q-645 -553 -886 -618
q-183 -77 -350 -77q-257 0 -351 181q-16 26 -16 82v5q0 276 733 443q274 49 624 49l126 -5l935 711q-345 104 -662 104q-607 -28 -607 -169l27 -39l-11 -11q-87 35 -87 132q0 169 481 197h137zM1652 739q106 0 285 -44q121 212 427 563q-151 -92 -712 -519zM98 279
q0 -79 93 -115l99 -16q255 0 613 213q192 111 509 334v5h-33q-816 0 -1220 -306q-56 -61 -61 -115zM2403 1790h18q138 -100 240 -96q189 38 282 117h12l6 -5q0 -83 -142 -189t-279 -13t-137 186zM1295 -79h4q82 -8 82 -77q0 -99 -130 -126h-29q-56 0 -77 73q0 115 150 130z
" />
    <glyph glyph-name="uni1EB7" unicode="&#x1eb7;" horiz-adv-x="924" 
d="M857 974h17q101 -36 165 -188l6 -34q-18 -120 -63 -120l-5 6v6q28 52 28 85v6q0 62 -108 62q-259 0 -604 -381q-137 -191 -137 -274q298 277 525 410q0 16 56 23q57 0 114 -97v-5q-44 0 -125 -228l-11 -103q0 -84 68 -131v-11h-17q-114 0 -160 131l-17 91q0 93 52 228h-6
q-108 -55 -399 -359q-98 -131 -125 -131q-60 0 -114 148v17q0 306 444 672q234 177 416 177zM1141 1182l-66 -56q-186 -126 -289 -74q-31 7 -63 45q-66 100 -32 187q11 13 31 -4q49 -72 87 -98t104.5 -33.5t187.5 72.5l20 17q26 22 46 47q34 29 40.5 -3.5t-66.5 -99.5z
M449 -63h5q72 -8 72 -69q0 -87 -115 -111h-26q-50 0 -68 64q0 103 132 116z" />
    <glyph glyph-name="uni1EB8" unicode="&#x1eb8;" horiz-adv-x="1458" 
d="M1463 1578q119 0 170 -66l346 -11l39 17q66 0 88 -94q-359 -275 -396 -275v6q0 21 154 220l5 5v6l-187 11h-153q-117 -34 -605 -517l-61 -72h6q399 33 577 66q44 -20 44 -77v-5q-109 -99 -264 -165l-5 16l71 110h-5q-545 -20 -545 -82q-214 -237 -214 -396
q0 -105 110 -121l22 -6q279 0 786 347h17l22 -17v-16q-493 -462 -798 -462q-174 0 -297 198q-22 60 -22 126q0 163 143 352l-66 -5q-137 14 -137 88v5l82 -11l193 17q189 269 616 616h-6q-368 -33 -632 -138q-385 -178 -385 -330v-16q0 -45 82 -99v-6l-11 -11h-22
q-139 0 -214 138q-11 21 -11 60v11q0 168 379 347q430 162 946 159q90 74 138 77zM616 -79h4q82 -8 82 -77q0 -99 -130 -126h-29q-56 0 -77 73q0 115 150 130z" />
    <glyph glyph-name="uni1EB9" unicode="&#x1eb9;" horiz-adv-x="808" 
d="M738 972q90 0 196 -195l5 -6v-6q0 -157 -346 -296q-92 -28 -151 -28q-73 7 -73 28q13 13 129 39q277 166 313 313h-6q-168 -33 -470 -307q-178 -201 -178 -319q14 -84 78 -84q146 11 464 274l5 6h6l6 -6v-5q-46 -129 -353 -347q-71 -34 -100 -34q-137 0 -218 191l-17 67
q0 286 486 626q155 89 224 89zM270 -63h5q72 -8 72 -69q0 -87 -115 -111h-26q-50 0 -68 64q0 103 132 116z" />
    <glyph glyph-name="uni1EBA" unicode="&#x1eba;" horiz-adv-x="1458" 
d="M1463 1578q119 0 170 -66l346 -11l39 17q66 0 88 -94q-359 -275 -396 -275v6q0 21 154 220l5 5v6l-187 11h-153q-117 -34 -605 -517l-61 -72h6q399 33 577 66q44 -20 44 -77v-5q-109 -99 -264 -165l-5 16l71 110h-5q-545 -20 -545 -82q-214 -237 -214 -396
q0 -105 110 -121l22 -6q279 0 786 347h17l22 -17v-16q-493 -462 -798 -462q-174 0 -297 198q-22 60 -22 126q0 163 143 352l-66 -5q-137 14 -137 88v5l82 -11l193 17q189 269 616 616h-6q-368 -33 -632 -138q-385 -178 -385 -330v-16q0 -45 82 -99v-6l-11 -11h-22
q-139 0 -214 138q-11 21 -11 60v11q0 168 379 347q430 162 946 159q90 74 138 77zM1956 2025h3q102 0 155 -107l5 -32q0 -90 -238 -178q-93 -48 -93 -81l12 -19v-14l-19 -17h-25q-64 17 -64 28q-4 0 -8 39v9q0 81 250 145q189 44 77 128q0 -2 -22 0q-113 0 -238 -89l-6 -9
l4 -38h-48q-55 34 -55 84q0 49 159 120q93 31 151 31z" />
    <glyph glyph-name="uni1EBB" unicode="&#x1ebb;" horiz-adv-x="808" 
d="M738 972q90 0 196 -195l5 -6v-6q0 -157 -346 -296q-92 -28 -151 -28q-73 7 -73 28q13 13 129 39q277 166 313 313h-6q-168 -33 -470 -307q-178 -201 -178 -319q14 -84 78 -84q146 11 464 274l5 6h6l6 -6v-5q-46 -129 -353 -347q-71 -34 -100 -34q-137 0 -218 191l-17 67
q0 286 486 626q155 89 224 89zM1094 1399h2q88 0 134 -93l5 -27q0 -78 -206 -154q-81 -41 -81 -70l11 -17v-12l-16 -14h-22q-56 15 -56 24q-3 0 -6 34v8q0 70 216 125q163 38 66 110q0 -1 -19 0q-98 0 -205 -76l-6 -8l4 -33h-41q-48 29 -48 72t138 104q79 27 130 27z" />
    <glyph glyph-name="uni1EBC" unicode="&#x1ebc;" horiz-adv-x="1458" 
d="M1463 1578q119 0 170 -66l346 -11l39 17q66 0 88 -94q-359 -275 -396 -275v6q0 21 154 220l5 5v6l-187 11h-153q-117 -34 -605 -517l-61 -72h6q399 33 577 66q44 -20 44 -77v-5q-109 -99 -264 -165l-5 16l71 110h-5q-545 -20 -545 -82q-214 -237 -214 -396
q0 -105 110 -121l22 -6q279 0 786 347h17l22 -17v-16q-493 -462 -798 -462q-174 0 -297 198q-22 60 -22 126q0 163 143 352l-66 -5q-137 14 -137 88v5l82 -11l193 17q189 269 616 616h-6q-368 -33 -632 -138q-385 -178 -385 -330v-16q0 -45 82 -99v-6l-11 -11h-22
q-139 0 -214 138q-11 21 -11 60v11q0 168 379 347q430 162 946 159q90 74 138 77zM1767 1831q101 0 191 -127q6 -29 -18 -23q-80 52 -103 52q-90 3 -216 -48.5t-210.5 -39.5t-92.5 123q4 27 28 17q42 -40 70 -40h29q44 0 157.5 43t164.5 43z" />
    <glyph glyph-name="uni1EBD" unicode="&#x1ebd;" horiz-adv-x="808" 
d="M738 972q90 0 196 -195l5 -6v-6q0 -157 -346 -296q-92 -28 -151 -28q-73 7 -73 28q13 13 129 39q277 166 313 313h-6q-168 -33 -470 -307q-178 -201 -178 -319q14 -84 78 -84q146 11 464 274l5 6h6l6 -6v-5q-46 -129 -353 -347q-71 -34 -100 -34q-137 0 -218 191l-17 67
q0 286 486 626q155 89 224 89zM1066 1275q101 0 191 -127q6 -29 -18 -23q-80 52 -103 52q-90 3 -216 -48.5t-210.5 -39.5t-92.5 123q4 27 28 17q42 -40 70 -40h29q44 0 157.5 43t164.5 43z" />
    <glyph glyph-name="uni1EBE" unicode="&#x1ebe;" horiz-adv-x="1458" 
d="M1463 1578q119 0 170 -66l346 -11l39 17q66 0 88 -94q-359 -275 -396 -275v6q0 21 154 220l5 5v6l-187 11h-153q-117 -34 -605 -517l-61 -72h6q399 33 577 66q44 -20 44 -77v-5q-109 -99 -264 -165l-5 16l71 110h-5q-545 -20 -545 -82q-214 -237 -214 -396
q0 -105 110 -121l22 -6q279 0 786 347h17l22 -17v-16q-493 -462 -798 -462q-174 0 -297 198q-22 60 -22 126q0 163 143 352l-66 -5q-137 14 -137 88v5l82 -11l193 17q189 269 616 616h-6q-368 -33 -632 -138q-385 -178 -385 -330v-16q0 -45 82 -99v-6l-11 -11h-22
q-139 0 -214 138q-11 21 -11 60v11q0 168 379 347q430 162 946 159q90 74 138 77zM2321 2006h11q105 -25 105 -77v-6q-45 -60 -325 -148l-110 -22l-11 16zM1809 1820q248 -138 248 -226l-6 -5h-11q-85 83 -259 123q-94 4 -220 -101h-17q0 98 248 209h17z" />
    <glyph glyph-name="uni1EBF" unicode="&#x1ebf;" horiz-adv-x="808" 
d="M738 972q90 0 196 -195l5 -6v-6q0 -157 -346 -296q-92 -28 -151 -28q-73 7 -73 28q13 13 129 39q277 166 313 313h-6q-168 -33 -470 -307q-178 -201 -178 -319q14 -84 78 -84q146 11 464 274l5 6h6l6 -6v-5q-46 -129 -353 -347q-71 -34 -100 -34q-137 0 -218 191l-17 67
q0 286 486 626q155 89 224 89zM1228 1441h10q102 -24 102 -75v-5q-44 -59 -315 -144l-106 -21l-11 16zM764 1233q224 -136 224 -223l-5 -5h-10q-77 82 -234 121q-85 4 -199 -99h-15q0 96 224 206h15z" />
    <glyph glyph-name="uni1EC0" unicode="&#x1ec0;" horiz-adv-x="1458" 
d="M1463 1578q119 0 170 -66l346 -11l39 17q66 0 88 -94q-359 -275 -396 -275v6q0 21 154 220l5 5v6l-187 11h-153q-117 -34 -605 -517l-61 -72h6q399 33 577 66q44 -20 44 -77v-5q-109 -99 -264 -165l-5 16l71 110h-5q-545 -20 -545 -82q-214 -237 -214 -396
q0 -105 110 -121l22 -6q279 0 786 347h17l22 -17v-16q-493 -462 -798 -462q-174 0 -297 198q-22 60 -22 126q0 163 143 352l-66 -5q-137 14 -137 88v5l82 -11l193 17q189 269 616 616h-6q-368 -33 -632 -138q-385 -178 -385 -330v-16q0 -45 82 -99v-6l-11 -11h-22
q-139 0 -214 138q-11 21 -11 60v11q0 168 379 347q430 162 946 159q90 74 138 77zM1792 2134l203 -314q11 0 11 -27v-11h-11q-84 0 -314 225l-11 39q0 58 122 88zM1809 1820q248 -138 248 -226l-6 -5h-11q-85 83 -259 123q-94 4 -220 -101h-17q0 98 248 209h17z" />
    <glyph glyph-name="uni1EC1" unicode="&#x1ec1;" horiz-adv-x="808" 
d="M738 972q90 0 196 -195l5 -6v-6q0 -157 -346 -296q-92 -28 -151 -28q-73 7 -73 28q13 13 129 39q277 166 313 313h-6q-168 -33 -470 -307q-178 -201 -178 -319q14 -84 78 -84q146 11 464 274l5 6h6l6 -6v-5q-46 -129 -353 -347q-71 -34 -100 -34q-137 0 -218 191l-17 67
q0 286 486 626q155 89 224 89zM780 1519l203 -314q11 0 11 -27v-11h-11q-84 0 -314 225l-11 39q0 58 122 88zM764 1233q224 -136 224 -223l-5 -5h-10q-77 82 -234 121q-85 4 -199 -99h-15q0 96 224 206h15z" />
    <glyph glyph-name="uni1EC2" unicode="&#x1ec2;" horiz-adv-x="1458" 
d="M1463 1578q119 0 170 -66l346 -11l39 17q66 0 88 -94q-359 -275 -396 -275v6q0 21 154 220l5 5v6l-187 11h-153q-117 -34 -605 -517l-61 -72h6q399 33 577 66q44 -20 44 -77v-5q-109 -99 -264 -165l-5 16l71 110h-5q-545 -20 -545 -82q-214 -237 -214 -396
q0 -105 110 -121l22 -6q279 0 786 347h17l22 -17v-16q-493 -462 -798 -462q-174 0 -297 198q-22 60 -22 126q0 163 143 352l-66 -5q-137 14 -137 88v5l82 -11l193 17q189 269 616 616h-6q-368 -33 -632 -138q-385 -178 -385 -330v-16q0 -45 82 -99v-6l-11 -11h-22
q-139 0 -214 138q-11 21 -11 60v11q0 168 379 347q430 162 946 159q90 74 138 77zM2215 2187h3q102 0 155 -107l5 -32q0 -90 -238 -178q-93 -48 -93 -81l12 -19v-14l-19 -17h-25q-64 17 -64 28q-4 0 -8 39v9q0 81 250 145q189 44 77 128q0 -2 -22 0q-113 0 -238 -89l-6 -9
l4 -38h-48q-55 34 -55 84q0 49 159 120q93 31 151 31zM1809 1820q248 -138 248 -226l-6 -5h-11q-85 83 -259 123q-94 4 -220 -101h-17q0 98 248 209h17z" />
    <glyph glyph-name="uni1EC3" unicode="&#x1ec3;" horiz-adv-x="808" 
d="M738 972q90 0 196 -195l5 -6v-6q0 -157 -346 -296q-92 -28 -151 -28q-73 7 -73 28q13 13 129 39q277 166 313 313h-6q-168 -33 -470 -307q-178 -201 -178 -319q14 -84 78 -84q146 11 464 274l5 6h6l6 -6v-5q-46 -129 -353 -347q-71 -34 -100 -34q-137 0 -218 191l-17 67
q0 286 486 626q155 89 224 89zM1121 1561h2q88 0 134 -93l5 -27q0 -78 -206 -154q-81 -41 -81 -70l11 -17v-12l-16 -14h-22q-56 15 -56 24q-3 0 -6 34v8q0 70 216 125q163 38 66 110q0 -1 -19 0q-98 0 -205 -76l-6 -8l4 -33h-41q-48 29 -48 72t138 104q79 27 130 27z
M764 1233q224 -136 224 -223l-5 -5h-10q-77 82 -234 121q-85 4 -199 -99h-15q0 96 224 206h15z" />
    <glyph glyph-name="uni1EC4" unicode="&#x1ec4;" horiz-adv-x="1458" 
d="M1463 1578q119 0 170 -66l346 -11l39 17q66 0 88 -94q-359 -275 -396 -275v6q0 21 154 220l5 5v6l-187 11h-153q-117 -34 -605 -517l-61 -72h6q399 33 577 66q44 -20 44 -77v-5q-109 -99 -264 -165l-5 16l71 110h-5q-545 -20 -545 -82q-214 -237 -214 -396
q0 -105 110 -121l22 -6q279 0 786 347h17l22 -17v-16q-493 -462 -798 -462q-174 0 -297 198q-22 60 -22 126q0 163 143 352l-66 -5q-137 14 -137 88v5l82 -11l193 17q189 269 616 616h-6q-368 -33 -632 -138q-385 -178 -385 -330v-16q0 -45 82 -99v-6l-11 -11h-22
q-139 0 -214 138q-11 21 -11 60v11q0 168 379 347q430 162 946 159q90 74 138 77zM1996 1924q113 -43 158 -43h29q28 0 69 40q25 10 29 -17q-8 -111 -92.5 -123t-210.5 39.5t-216 48.5q-23 0 -104 -52q-23 -6 -17 23q90 127 190 127q52 0 165 -43zM1809 1820
q248 -138 248 -226l-6 -5h-11q-85 83 -259 123q-94 4 -220 -101h-17q0 98 248 209h17z" />
    <glyph glyph-name="uni1EC5" unicode="&#x1ec5;" horiz-adv-x="808" 
d="M738 972q90 0 196 -195l5 -6v-6q0 -157 -346 -296q-92 -28 -151 -28q-73 7 -73 28q13 13 129 39q277 166 313 313h-6q-168 -33 -470 -307q-178 -201 -178 -319q14 -84 78 -84q146 11 464 274l5 6h6l6 -6v-5q-46 -129 -353 -347q-71 -34 -100 -34q-137 0 -218 191l-17 67
q0 286 486 626q155 89 224 89zM919 1359q113 -43 158 -43h29q28 0 69 40q25 10 29 -17q-8 -111 -92.5 -123t-210.5 39.5t-216 48.5q-23 0 -104 -52q-23 -6 -17 23q90 127 190 127q52 0 165 -43zM764 1233q224 -136 224 -223l-5 -5h-10q-77 82 -234 121q-85 4 -199 -99h-15
q0 96 224 206h15z" />
    <glyph glyph-name="uni1EC6" unicode="&#x1ec6;" horiz-adv-x="1458" 
d="M1463 1578q119 0 170 -66l346 -11l39 17q66 0 88 -94q-359 -275 -396 -275v6q0 21 154 220l5 5v6l-187 11h-153q-117 -34 -605 -517l-61 -72h6q399 33 577 66q44 -20 44 -77v-5q-109 -99 -264 -165l-5 16l71 110h-5q-545 -20 -545 -82q-214 -237 -214 -396
q0 -105 110 -121l22 -6q279 0 786 347h17l22 -17v-16q-493 -462 -798 -462q-174 0 -297 198q-22 60 -22 126q0 163 143 352l-66 -5q-137 14 -137 88v5l82 -11l193 17q189 269 616 616h-6q-368 -33 -632 -138q-385 -178 -385 -330v-16q0 -45 82 -99v-6l-11 -11h-22
q-139 0 -214 138q-11 21 -11 60v11q0 168 379 347q430 162 946 159q90 74 138 77zM1809 1820q248 -138 248 -226l-6 -5h-11q-85 83 -259 123q-94 4 -220 -101h-17q0 98 248 209h17zM616 -79h4q82 -8 82 -77q0 -99 -130 -126h-29q-56 0 -77 73q0 115 150 130z" />
    <glyph glyph-name="uni1EC7" unicode="&#x1ec7;" horiz-adv-x="808" 
d="M738 972q90 0 196 -195l5 -6v-6q0 -157 -346 -296q-92 -28 -151 -28q-73 7 -73 28q13 13 129 39q277 166 313 313h-6q-168 -33 -470 -307q-178 -201 -178 -319q14 -84 78 -84q146 11 464 274l5 6h6l6 -6v-5q-46 -129 -353 -347q-71 -34 -100 -34q-137 0 -218 191l-17 67
q0 286 486 626q155 89 224 89zM764 1233q224 -136 224 -223l-5 -5h-10q-77 82 -234 121q-85 4 -199 -99h-15q0 96 224 206h15zM270 -63h5q72 -8 72 -69q0 -87 -115 -111h-26q-50 0 -68 64q0 103 132 116z" />
    <glyph glyph-name="uni1EC8" unicode="&#x1ec8;" horiz-adv-x="1146" 
d="M1674 1797l155 -106q564 -71 564 -217v-6q0 -39 -50 -74h-25l-12 12v6l12 19v6q-149 105 -471 105h-136q-166 -109 -601 -564q-452 -528 -472 -781q277 -3 354 -93l-13 -18l-111 12h-174q-323 0 -520 -155v-6l24 -31l-12 -12h-25q-118 17 -118 111q0 144 453 192h18
q-43 50 -43 81q0 349 874 1240h-6q-233 0 -719 -137q-477 -198 -477 -353q0 -74 148 -99l7 -6v-19l-31 -6h-25q-204 0 -242 204v50q0 144 167 223q554 316 1364 316q93 106 143 106zM2008 2258h3q102 0 155 -107l5 -32q0 -90 -238 -178q-93 -48 -93 -81l12 -19v-14l-19 -17
h-25q-64 17 -64 28q-4 0 -8 39v9q0 81 250 145q189 44 77 128q0 -2 -22 0q-113 0 -238 -89l-6 -9l4 -38h-48q-55 34 -55 84q0 49 159 120q93 31 151 31z" />
    <glyph glyph-name="uni1EC9" unicode="&#x1ec9;" horiz-adv-x="469" 
d="M470 981h25q82 0 142 -123l6 -19q0 -32 -229 -278q-333 -377 -333 -538l12 -12v-12q-142 0 -142 123q0 187 513 810l12 31zM907 1404h2q88 0 134 -93l5 -27q0 -78 -206 -154q-81 -41 -81 -70l11 -17v-12l-16 -14h-22q-56 15 -56 24q-3 0 -6 34v8q0 70 216 125
q163 38 66 110q0 -1 -19 0q-98 0 -205 -76l-6 -8l4 -33h-41q-48 29 -48 72t138 104q79 27 130 27z" />
    <glyph glyph-name="uni1ECA" unicode="&#x1eca;" horiz-adv-x="1146" 
d="M1674 1797l155 -106q564 -71 564 -217v-6q0 -39 -50 -74h-25l-12 12v6l12 19v6q-149 105 -471 105h-136q-166 -109 -601 -564q-452 -528 -472 -781q277 -3 354 -93l-13 -18l-111 12h-174q-323 0 -520 -155v-6l24 -31l-12 -12h-25q-118 17 -118 111q0 144 453 192h18
q-43 50 -43 81q0 349 874 1240h-6q-233 0 -719 -137q-477 -198 -477 -353q0 -74 148 -99l7 -6v-19l-31 -6h-25q-204 0 -242 204v50q0 144 167 223q554 316 1364 316q93 106 143 106zM616 -79h4q82 -8 82 -77q0 -99 -130 -126h-29q-56 0 -77 73q0 115 150 130z" />
    <glyph glyph-name="uni1ECB" unicode="&#x1ecb;" horiz-adv-x="469" 
d="M973 1457q51 0 118 -93v-6q-26 -94 -316 -284l-55 -25l-6 6v6q82 219 241 396h18zM559 981h25q82 0 142 -123l6 -19q0 -32 -229 -278q-333 -377 -333 -538l12 -12v-12q-142 0 -142 123q0 187 513 810l12 31zM83 -63h5q72 -8 72 -69q0 -87 -115 -111h-26q-50 0 -68 64
q0 103 132 116z" />
    <glyph glyph-name="uni1ECC" unicode="&#x1ecc;" horiz-adv-x="1407" 
d="M1216 1685q211 0 348 -233l18 -72v-30l-12 -12h-12l-48 90q-59 60 -204 60h-60q-388 0 -809 -384q-287 -307 -287 -635q0 -230 245 -311l120 -18q366 0 761 443q222 287 222 533v18q0 134 -132 180l-72 12q-128 0 -276 -60h-6l-11 12v12q122 102 275 102h30
q240 0 318 -264l6 -72v-6q0 -453 -546 -868q-284 -186 -509 -186q-238 0 -407 180q-168 199 -168 431v12q0 449 575 863q356 203 641 203zM616 -79h4q82 -8 82 -77q0 -99 -130 -126h-29q-56 0 -77 73q0 115 150 130z" />
    <glyph glyph-name="uni1ECD" unicode="&#x1ecd;" horiz-adv-x="940" 
d="M776 1011q79 0 197 -172q15 -40 -18 -36q-65 41 -113 41q-243 0 -559 -356q-125 -172 -129 -300v-18q4 -57 81 -69q195 0 506 434q59 99 59 191q-1 19 -42 47v6q0 16 26.5 20.5t63.5 3.5q101 -12 113 -131q22 -257 -399 -565q-172 -107 -279 -107h-18q-145 -5 -198.5 68
t-45.5 176v24q0 277 369 582q222 161 386 161zM156 -63h5q72 -8 72 -69q0 -87 -115 -111h-26q-50 0 -68 64q0 103 132 116z" />
    <glyph glyph-name="uni1ECE" unicode="&#x1ece;" horiz-adv-x="1407" 
d="M1216 1685q211 0 348 -233l18 -72v-30l-12 -12h-12l-48 90q-59 60 -204 60h-60q-388 0 -809 -384q-287 -307 -287 -635q0 -230 245 -311l120 -18q366 0 761 443q222 287 222 533v18q0 134 -132 180l-72 12q-128 0 -276 -60h-6l-11 12v12q122 102 275 102h30
q240 0 318 -264l6 -72v-6q0 -453 -546 -868q-284 -186 -509 -186q-238 0 -407 180q-168 199 -168 431v12q0 449 575 863q356 203 641 203zM1614 2174h3q102 0 155 -107l5 -32q0 -90 -238 -178q-93 -48 -93 -81l12 -19v-14l-19 -17h-25q-64 17 -64 28q-4 0 -8 39v9
q0 81 250 145q189 44 77 128q0 -2 -22 0q-113 0 -238 -89l-6 -9l4 -38h-48q-55 34 -55 84q0 49 159 120q93 31 151 31z" />
    <glyph glyph-name="uni1ECF" unicode="&#x1ecf;" horiz-adv-x="940" 
d="M776 1011q79 0 197 -172q15 -40 -18 -36q-65 41 -113 41q-243 0 -559 -356q-125 -172 -129 -300v-18q4 -57 81 -69q195 0 506 434q59 99 59 191q-1 19 -42 47v6q0 16 26.5 20.5t63.5 3.5q101 -12 113 -131q22 -257 -399 -565q-172 -107 -279 -107h-18q-145 -5 -198.5 68
t-45.5 176v24q0 277 369 582q222 161 386 161zM1138 1421h2q88 0 134 -93l5 -27q0 -78 -206 -154q-81 -41 -81 -70l11 -17v-12l-16 -14h-22q-56 15 -56 24q-3 0 -6 34v8q0 70 216 125q163 38 66 110q0 -1 -19 0q-98 0 -205 -76l-6 -8l4 -33h-41q-48 29 -48 72t138 104
q79 27 130 27z" />
    <glyph glyph-name="uni1ED0" unicode="&#x1ed0;" horiz-adv-x="1407" 
d="M1216 1685q211 0 348 -233l18 -72v-30l-12 -12h-12l-48 90q-59 60 -204 60h-60q-388 0 -809 -384q-287 -307 -287 -635q0 -230 245 -311l120 -18q366 0 761 443q222 287 222 533v18q0 134 -132 180l-72 12q-128 0 -276 -60h-6l-11 12v12q122 102 275 102h30
q240 0 318 -264l6 -72v-6q0 -453 -546 -868q-284 -186 -509 -186q-238 0 -407 180q-168 199 -168 431v12q0 449 575 863q356 203 641 203zM1835 2138h11q105 -25 105 -77v-6q-45 -60 -325 -148l-110 -22l-11 16zM1323 1951q248 -138 248 -226l-6 -5h-11q-85 83 -259 123
q-94 4 -220 -101h-17q0 98 248 209h17z" />
    <glyph glyph-name="uni1ED1" unicode="&#x1ed1;" horiz-adv-x="940" 
d="M776 1011q79 0 197 -172q15 -40 -18 -36q-65 41 -113 41q-243 0 -559 -356q-125 -172 -129 -300v-18q4 -57 81 -69q195 0 506 434q59 99 59 191q-1 19 -42 47v6q0 16 26.5 20.5t63.5 3.5q101 -12 113 -131q22 -257 -399 -565q-172 -107 -279 -107h-18q-145 -5 -198.5 68
t-45.5 176v24q0 277 369 582q222 161 386 161zM834 1259q224 -136 224 -223l-5 -5h-10q-77 82 -234 121q-85 4 -199 -99h-15q0 96 224 206h15zM1320 1441h10q102 -24 102 -75v-5q-44 -59 -315 -144l-106 -21l-11 16z" />
    <glyph glyph-name="uni1ED2" unicode="&#x1ed2;" horiz-adv-x="1407" 
d="M1216 1685q211 0 348 -233l18 -72v-30l-12 -12h-12l-48 90q-59 60 -204 60h-60q-388 0 -809 -384q-287 -307 -287 -635q0 -230 245 -311l120 -18q366 0 761 443q222 287 222 533v18q0 134 -132 180l-72 12q-128 0 -276 -60h-6l-11 12v12q122 102 275 102h30
q240 0 318 -264l6 -72v-6q0 -453 -546 -868q-284 -186 -509 -186q-238 0 -407 180q-168 199 -168 431v12q0 449 575 863q356 203 641 203zM1310 2265l203 -314q11 0 11 -27v-11h-11q-84 0 -314 225l-11 39q0 58 122 88zM1323 1951q248 -138 248 -226l-6 -5h-11
q-85 83 -259 123q-94 4 -220 -101h-17q0 98 248 209h17z" />
    <glyph glyph-name="uni1ED3" unicode="&#x1ed3;" horiz-adv-x="940" 
d="M776 1011q79 0 197 -172q15 -40 -18 -36q-65 41 -113 41q-243 0 -559 -356q-125 -172 -129 -300v-18q4 -57 81 -69q195 0 506 434q59 99 59 191q-1 19 -42 47v6q0 16 26.5 20.5t63.5 3.5q101 -12 113 -131q22 -257 -399 -565q-172 -107 -279 -107h-18q-145 -5 -198.5 68
t-45.5 176v24q0 277 369 582q222 161 386 161zM834 1259q224 -136 224 -223l-5 -5h-10q-77 82 -234 121q-85 4 -199 -99h-15q0 96 224 206h15zM929 1519l203 -314q11 0 11 -27v-11h-11q-84 0 -314 225l-11 39q0 58 122 88z" />
    <glyph glyph-name="uni1ED4" unicode="&#x1ed4;" horiz-adv-x="1407" 
d="M1216 1685q211 0 348 -233l18 -72v-30l-12 -12h-12l-48 90q-59 60 -204 60h-60q-388 0 -809 -384q-287 -307 -287 -635q0 -230 245 -311l120 -18q366 0 761 443q222 287 222 533v18q0 134 -132 180l-72 12q-128 0 -276 -60h-6l-11 12v12q122 102 275 102h30
q240 0 318 -264l6 -72v-6q0 -453 -546 -868q-284 -186 -509 -186q-238 0 -407 180q-168 199 -168 431v12q0 449 575 863q356 203 641 203zM1733 2322h3q102 0 155 -107l5 -32q0 -90 -238 -178q-93 -48 -93 -81l12 -19v-14l-19 -17h-25q-64 17 -64 28q-4 0 -8 39v9
q0 81 250 145q189 44 77 128q0 -2 -22 0q-113 0 -238 -89l-6 -9l4 -38h-48q-55 34 -55 84q0 49 159 120q93 31 151 31zM1323 1951q248 -138 248 -226l-6 -5h-11q-85 83 -259 123q-94 4 -220 -101h-17q0 98 248 209h17z" />
    <glyph glyph-name="uni1ED5" unicode="&#x1ed5;" horiz-adv-x="940" 
d="M776 1011q79 0 197 -172q15 -40 -18 -36q-65 41 -113 41q-243 0 -559 -356q-125 -172 -129 -300v-18q4 -57 81 -69q195 0 506 434q59 99 59 191q-1 19 -42 47v6q0 16 26.5 20.5t63.5 3.5q101 -12 113 -131q22 -257 -399 -565q-172 -107 -279 -107h-18q-145 -5 -198.5 68
t-45.5 176v24q0 277 369 582q222 161 386 161zM834 1259q224 -136 224 -223l-5 -5h-10q-77 82 -234 121q-85 4 -199 -99h-15q0 96 224 206h15zM1213 1561h2q88 0 134 -93l5 -27q0 -78 -206 -154q-81 -41 -81 -70l11 -17v-12l-16 -14h-22q-56 15 -56 24q-3 0 -6 34v8
q0 70 216 125q163 38 66 110q0 -1 -19 0q-98 0 -205 -76l-6 -8l4 -33h-41q-48 29 -48 72t138 104q79 27 130 27z" />
    <glyph glyph-name="uni1ED6" unicode="&#x1ed6;" horiz-adv-x="1407" 
d="M1216 1685q211 0 348 -233l18 -72v-30l-12 -12h-12l-48 90q-59 60 -204 60h-60q-388 0 -809 -384q-287 -307 -287 -635q0 -230 245 -311l120 -18q366 0 761 443q222 287 222 533v18q0 134 -132 180l-72 12q-128 0 -276 -60h-6l-11 12v12q122 102 275 102h30
q240 0 318 -264l6 -72v-6q0 -453 -546 -868q-284 -186 -509 -186q-238 0 -407 180q-168 199 -168 431v12q0 449 575 863q356 203 641 203zM1505 2051q113 -43 158 -43h29q28 0 69 40q25 10 29 -17q-8 -111 -92.5 -123t-210.5 39.5t-216 48.5q-23 0 -104 -52q-23 -6 -17 23
q90 127 190 127q52 0 165 -43zM1323 1951q248 -138 248 -226l-6 -5h-11q-85 83 -259 123q-94 4 -220 -101h-17q0 98 248 209h17z" />
    <glyph glyph-name="uni1ED7" unicode="&#x1ed7;" horiz-adv-x="940" 
d="M776 1011q79 0 197 -172q15 -40 -18 -36q-65 41 -113 41q-243 0 -559 -356q-125 -172 -129 -300v-18q4 -57 81 -69q195 0 506 434q59 99 59 191q-1 19 -42 47v6q0 16 26.5 20.5t63.5 3.5q101 -12 113 -131q22 -257 -399 -565q-172 -107 -279 -107h-18q-145 -5 -198.5 68
t-45.5 176v24q0 277 369 582q222 161 386 161zM834 1259q224 -136 224 -223l-5 -5h-10q-77 82 -234 121q-85 4 -199 -99h-15q0 96 224 206h15zM993 1359q113 -43 158 -43h29q28 0 69 40q25 10 29 -17q-8 -111 -92.5 -123t-210.5 39.5t-216 48.5q-23 0 -104 -52
q-23 -6 -17 23q90 127 190 127q52 0 165 -43z" />
    <glyph glyph-name="uni1ED8" unicode="&#x1ed8;" horiz-adv-x="1407" 
d="M1216 1685q211 0 348 -233l18 -72v-30l-12 -12h-12l-48 90q-59 60 -204 60h-60q-388 0 -809 -384q-287 -307 -287 -635q0 -230 245 -311l120 -18q366 0 761 443q222 287 222 533v18q0 134 -132 180l-72 12q-128 0 -276 -60h-6l-11 12v12q122 102 275 102h30
q240 0 318 -264l6 -72v-6q0 -453 -546 -868q-284 -186 -509 -186q-238 0 -407 180q-168 199 -168 431v12q0 449 575 863q356 203 641 203zM1323 1951q248 -138 248 -226l-6 -5h-11q-85 83 -259 123q-94 4 -220 -101h-17q0 98 248 209h17zM616 -79h4q82 -8 82 -77
q0 -99 -130 -126h-29q-56 0 -77 73q0 115 150 130z" />
    <glyph glyph-name="uni1ED9" unicode="&#x1ed9;" horiz-adv-x="940" 
d="M776 1011q79 0 197 -172q15 -40 -18 -36q-65 41 -113 41q-243 0 -559 -356q-125 -172 -129 -300v-18q4 -57 81 -69q195 0 506 434q59 99 59 191q-1 19 -42 47v6q0 16 26.5 20.5t63.5 3.5q101 -12 113 -131q22 -257 -399 -565q-172 -107 -279 -107h-18q-145 -5 -198.5 68
t-45.5 176v24q0 277 369 582q222 161 386 161zM834 1259q224 -136 224 -223l-5 -5h-10q-77 82 -234 121q-85 4 -199 -99h-15q0 96 224 206h15zM156 -63h5q72 -8 72 -69q0 -87 -115 -111h-26q-50 0 -68 64q0 103 132 116z" />
    <glyph glyph-name="uni1EDA" unicode="&#x1eda;" horiz-adv-x="1407" 
d="M1548 2005h11q105 -25 105 -77v-6q-45 -60 -325 -148l-110 -22l-11 16zM1627 979q-40 -415 -543 -797q-284 -186 -509 -186q-238 0 -407 180q-168 199 -168 431v12q0 449 575 863q356 203 641 203q211 0 348 -233l18 -72v-30l-12 -12h-12l-48 90q-59 60 -204 60h-60
q-388 0 -809 -384q-287 -307 -287 -635q0 -230 245 -311l120 -18q366 0 761 443q139 179 191 343q-71 -23 -154 -47l-17 2v6q104 46 185 89q17 72 17 140v18q0 134 -132 180l-72 12q-128 0 -276 -60h-6l-11 12v12q122 102 275 102h30q240 0 318 -264l5 -64q123 84 140 151
q-7 153 76.5 140.5t121 -67t-3.5 -117t-176 -127.5q-61 -30 -160 -65z" />
    <glyph glyph-name="uni1EDB" unicode="&#x1edb;" horiz-adv-x="940" 
d="M947 1311h11q105 -25 105 -77v-6q-45 -60 -325 -148l-110 -22l-11 16zM962 662q13 -253 -400 -555q-172 -107 -279 -107h-18q-145 -5 -198.5 68t-45.5 176v24q0 277 369 582q222 161 386 161q79 0 197 -172q15 -40 -18 -36q-65 41 -113 41q-243 0 -559 -356
q-125 -172 -129 -300v-18q4 -57 81 -69q195 0 506 434q59 99 59 191q-1 19 -42 47v6q0 16 26.5 20.5t63.5 3.5q69 -8 96 -66q81 62 94 112q-7 131 65 120t104 -57.5t-3 -100.5t-151 -110q-37 -18 -91 -39z" />
    <glyph glyph-name="uni1EDC" unicode="&#x1edc;" horiz-adv-x="1407" 
d="M1205 2083l203 -314q11 0 11 -27v-11h-11q-84 0 -314 225l-11 39q0 58 122 88zM1627 979q-40 -415 -543 -797q-284 -186 -509 -186q-238 0 -407 180q-168 199 -168 431v12q0 449 575 863q356 203 641 203q211 0 348 -233l18 -72v-30l-12 -12h-12l-48 90q-59 60 -204 60
h-60q-388 0 -809 -384q-287 -307 -287 -635q0 -230 245 -311l120 -18q366 0 761 443q139 179 191 343q-71 -23 -154 -47l-17 2v6q104 46 185 89q17 72 17 140v18q0 134 -132 180l-72 12q-128 0 -276 -60h-6l-11 12v12q122 102 275 102h30q240 0 318 -264l5 -64
q123 84 140 151q-7 153 76.5 140.5t121 -67t-3.5 -117t-176 -127.5q-61 -30 -160 -65z" />
    <glyph glyph-name="uni1EDD" unicode="&#x1edd;" horiz-adv-x="940" 
d="M714 1371l203 -314q11 0 11 -27v-11h-11q-84 0 -314 225l-11 39q0 58 122 88zM962 662q13 -253 -400 -555q-172 -107 -279 -107h-18q-145 -5 -198.5 68t-45.5 176v24q0 277 369 582q222 161 386 161q79 0 197 -172q15 -40 -18 -36q-65 41 -113 41q-243 0 -559 -356
q-125 -172 -129 -300v-18q4 -57 81 -69q195 0 506 434q59 99 59 191q-1 19 -42 47v6q0 16 26.5 20.5t63.5 3.5q69 -8 96 -66q81 62 94 112q-7 131 65 120t104 -57.5t-3 -100.5t-151 -110q-37 -18 -91 -39z" />
    <glyph glyph-name="uni1EDE" unicode="&#x1ede;" horiz-adv-x="1407" 
d="M1614 2174h3q102 0 155 -107l5 -32q0 -90 -238 -178q-93 -48 -93 -81l12 -19v-14l-19 -17h-25q-64 17 -64 28q-4 0 -8 39v9q0 81 250 145q189 44 77 128q0 -2 -22 0q-113 0 -238 -89l-6 -9l4 -38h-48q-55 34 -55 84q0 49 159 120q93 31 151 31zM1627 979
q-40 -415 -543 -797q-284 -186 -509 -186q-238 0 -407 180q-168 199 -168 431v12q0 449 575 863q356 203 641 203q211 0 348 -233l18 -72v-30l-12 -12h-12l-48 90q-59 60 -204 60h-60q-388 0 -809 -384q-287 -307 -287 -635q0 -230 245 -311l120 -18q366 0 761 443
q139 179 191 343q-71 -23 -154 -47l-17 2v6q104 46 185 89q17 72 17 140v18q0 134 -132 180l-72 12q-128 0 -276 -60h-6l-11 12v12q122 102 275 102h30q240 0 318 -264l5 -64q123 84 140 151q-7 153 76.5 140.5t121 -67t-3.5 -117t-176 -127.5q-61 -30 -160 -65z" />
    <glyph glyph-name="uni1EDF" unicode="&#x1edf;" horiz-adv-x="940" 
d="M1138 1421h2q88 0 134 -93l5 -27q0 -78 -206 -154q-81 -41 -81 -70l11 -17v-12l-16 -14h-22q-56 15 -56 24q-3 0 -6 34v8q0 70 216 125q163 38 66 110q0 -1 -19 0q-98 0 -205 -76l-6 -8l4 -33h-41q-48 29 -48 72t138 104q79 27 130 27zM962 662q13 -253 -400 -555
q-172 -107 -279 -107h-18q-145 -5 -198.5 68t-45.5 176v24q0 277 369 582q222 161 386 161q79 0 197 -172q15 -40 -18 -36q-65 41 -113 41q-243 0 -559 -356q-125 -172 -129 -300v-18q4 -57 81 -69q195 0 506 434q59 99 59 191q-1 19 -42 47v6q0 16 26.5 20.5t63.5 3.5
q69 -8 96 -66q81 62 94 112q-7 131 65 120t104 -57.5t-3 -100.5t-151 -110q-37 -18 -91 -39z" />
    <glyph glyph-name="uni1EE0" unicode="&#x1ee0;" horiz-adv-x="1407" 
d="M1452 1953q101 0 191 -127q6 -29 -18 -23q-80 52 -103 52q-90 3 -216 -48.5t-210.5 -39.5t-92.5 123q4 27 28 17q42 -40 70 -40h29q44 0 157.5 43t164.5 43zM1627 979q-40 -415 -543 -797q-284 -186 -509 -186q-238 0 -407 180q-168 199 -168 431v12q0 449 575 863
q356 203 641 203q211 0 348 -233l18 -72v-30l-12 -12h-12l-48 90q-59 60 -204 60h-60q-388 0 -809 -384q-287 -307 -287 -635q0 -230 245 -311l120 -18q366 0 761 443q139 179 191 343q-71 -23 -154 -47l-17 2v6q104 46 185 89q17 72 17 140v18q0 134 -132 180l-72 12
q-128 0 -276 -60h-6l-11 12v12q122 102 275 102h30q240 0 318 -264l5 -64q123 84 140 151q-7 153 76.5 140.5t121 -67t-3.5 -117t-176 -127.5q-61 -30 -160 -65z" />
    <glyph glyph-name="uni1EE1" unicode="&#x1ee1;" horiz-adv-x="940" 
d="M1066 1275q101 0 191 -127q6 -29 -18 -23q-80 52 -103 52q-90 3 -216 -48.5t-210.5 -39.5t-92.5 123q4 27 28 17q42 -40 70 -40h29q44 0 157.5 43t164.5 43zM962 662q13 -253 -400 -555q-172 -107 -279 -107h-18q-145 -5 -198.5 68t-45.5 176v24q0 277 369 582
q222 161 386 161q79 0 197 -172q15 -40 -18 -36q-65 41 -113 41q-243 0 -559 -356q-125 -172 -129 -300v-18q4 -57 81 -69q195 0 506 434q59 99 59 191q-1 19 -42 47v6q0 16 26.5 20.5t63.5 3.5q69 -8 96 -66q81 62 94 112q-7 131 65 120t104 -57.5t-3 -100.5t-151 -110
q-37 -18 -91 -39z" />
    <glyph glyph-name="uni1EE2" unicode="&#x1ee2;" horiz-adv-x="1407" 
d="M616 -79h4q82 -8 82 -77q0 -99 -130 -126h-29q-56 0 -77 73q0 115 150 130zM1627 979q-40 -415 -543 -797q-284 -186 -509 -186q-238 0 -407 180q-168 199 -168 431v12q0 449 575 863q356 203 641 203q211 0 348 -233l18 -72v-30l-12 -12h-12l-48 90q-59 60 -204 60h-60
q-388 0 -809 -384q-287 -307 -287 -635q0 -230 245 -311l120 -18q366 0 761 443q139 179 191 343q-71 -23 -154 -47l-17 2v6q104 46 185 89q17 72 17 140v18q0 134 -132 180l-72 12q-128 0 -276 -60h-6l-11 12v12q122 102 275 102h30q240 0 318 -264l5 -64q123 84 140 151
q-7 153 76.5 140.5t121 -67t-3.5 -117t-176 -127.5q-61 -30 -160 -65z" />
    <glyph glyph-name="uni1EE3" unicode="&#x1ee3;" horiz-adv-x="940" 
d="M156 -63h5q72 -8 72 -69q0 -87 -115 -111h-26q-50 0 -68 64q0 103 132 116zM962 662q13 -253 -400 -555q-172 -107 -279 -107h-18q-145 -5 -198.5 68t-45.5 176v24q0 277 369 582q222 161 386 161q79 0 197 -172q15 -40 -18 -36q-65 41 -113 41q-243 0 -559 -356
q-125 -172 -129 -300v-18q4 -57 81 -69q195 0 506 434q59 99 59 191q-1 19 -42 47v6q0 16 26.5 20.5t63.5 3.5q69 -8 96 -66q81 62 94 112q-7 131 65 120t104 -57.5t-3 -100.5t-151 -110q-37 -18 -91 -39z" />
    <glyph glyph-name="uni1EE4" unicode="&#x1ee4;" horiz-adv-x="1858" 
d="M1315 1695h49q206 0 276 -154l6 -30q0 -48 -258 -252q-579 -529 -706 -848q-55 -107 -55 -166q10 -67 61 -67q165 0 842 595q422 357 479 357q78 0 172 -148v-12q0 -11 -135 -129q-461 -497 -461 -713q0 -73 68 -129q-32 -18 -62 -18h-6q-129 0 -172 184v13
q0 248 393 681h-6q-183 -141 -682 -620q-269 -240 -375 -240q-176 0 -270 258l-12 74q0 338 632 965l314 288q-605 0 -1106 -417q-129 -131 -129 -209v-19q0 -26 31 -61q5 -12 -6 -12q-184 3 -197 215q0 338 848 559q253 55 467 55zM1080 -79h4q82 -8 82 -77
q0 -99 -130 -126h-29q-56 0 -77 73q0 115 150 130z" />
    <glyph glyph-name="uni1EE5" unicode="&#x1ee5;" horiz-adv-x="1012" 
d="M436 -63h5q72 -8 72 -69q0 -87 -115 -111h-26q-50 0 -68 64q0 103 132 116zM509 1018q89 0 180 -131l-203 -203q-340 -364 -340 -566q81 22 715 602q122 107 161 107q58 0 113 -113q0 -13 -167 -215q-220 -306 -220 -435q-3 -42 12 -77q-2 -12 -12 -6q-95 33 -118 97
q-8 12 -7 81q0 165 208 442h-6q-545 -600 -661 -608q-165 37 -167 179q0 297 489 810q12 36 23 36z" />
    <glyph glyph-name="uni1EE6" unicode="&#x1ee6;" horiz-adv-x="1858" 
d="M1315 1695h49q206 0 276 -154l6 -30q0 -48 -258 -252q-579 -529 -706 -848q-55 -107 -55 -166q10 -67 61 -67q165 0 842 595q422 357 479 357q78 0 172 -148v-12q0 -11 -135 -129q-461 -497 -461 -713q0 -73 68 -129q-32 -18 -62 -18h-6q-129 0 -172 184v13
q0 248 393 681h-6q-183 -141 -682 -620q-269 -240 -375 -240q-176 0 -270 258l-12 74q0 338 632 965l314 288q-605 0 -1106 -417q-129 -131 -129 -209v-19q0 -26 31 -61q5 -12 -6 -12q-184 3 -197 215q0 338 848 559q253 55 467 55zM2135 1832h3q102 0 155 -107l5 -32
q0 -90 -238 -178q-93 -48 -93 -81l12 -19v-14l-19 -17h-25q-64 17 -64 28q-4 0 -8 39v9q0 81 250 145q189 44 77 128q0 -2 -22 0q-113 0 -238 -89l-6 -9l4 -38h-48q-55 34 -55 84q0 49 159 120q93 31 151 31z" />
    <glyph glyph-name="uni1EE7" unicode="&#x1ee7;" horiz-adv-x="1012" 
d="M1129 1390h2q88 0 134 -93l5 -27q0 -78 -206 -154q-81 -41 -81 -70l11 -17v-12l-16 -14h-22q-56 15 -56 24q-3 0 -6 34v8q0 70 216 125q163 38 66 110q0 -1 -19 0q-98 0 -205 -76l-6 -8l4 -33h-41q-48 29 -48 72t138 104q79 27 130 27zM509 1018q89 0 180 -131l-203 -203
q-340 -364 -340 -566q81 22 715 602q122 107 161 107q58 0 113 -113q0 -13 -167 -215q-220 -306 -220 -435q-3 -42 12 -77q-2 -12 -12 -6q-95 33 -118 97q-8 12 -7 81q0 165 208 442h-6q-545 -600 -661 -608q-165 37 -167 179q0 297 489 810q12 36 23 36z" />
    <glyph glyph-name="uni1EE8" unicode="&#x1ee8;" horiz-adv-x="1941" 
d="M2320 1769h11q105 -25 105 -77v-6q-45 -60 -325 -148l-110 -22l-11 16zM2050 865q-399 -444 -399 -645q0 -73 68 -129q-32 -18 -62 -18h-6q-129 0 -172 184v13q0 248 393 681h-6q-183 -141 -682 -620q-269 -240 -375 -240q-176 0 -270 258l-12 74q0 338 632 965l314 288
q-605 0 -1106 -417q-129 -131 -129 -209v-19q0 -26 31 -61q5 -12 -6 -12q-184 3 -197 215q0 338 848 559q253 55 467 55h49q206 0 276 -154l6 -30q0 -48 -258 -252q-579 -529 -706 -848q-55 -107 -55 -166q10 -67 61 -67q165 0 842 595q422 357 479 357q78 0 172 -148v-12
q0 -9 -86 -86q154 98 173 173q-7 153 76.5 140.5t121 -67t-3.5 -117t-176 -127.5q-98 -48 -302 -113z" />
    <glyph glyph-name="uni1EE9" unicode="&#x1ee9;" horiz-adv-x="1012" 
d="M1232 1311h11q105 -25 105 -77v-6q-45 -60 -325 -148l-110 -22l-11 16zM1104 668q-41 -54 -136 -169q-220 -306 -220 -435q-3 -42 12 -77q-2 -12 -12 -6q-95 33 -118 97q-8 12 -7 81q0 165 208 442h-6q-545 -600 -661 -608q-165 37 -167 179q0 297 489 810q12 36 23 36
q89 0 180 -131l-203 -203q-340 -364 -340 -566q81 22 715 602q122 107 161 107q43 0 84 -61q49 45 59 83q-7 131 65 120t104 -57.5t-3 -100.5t-151 -110q-32 -16 -76 -33z" />
    <glyph glyph-name="uni1EEA" unicode="&#x1eea;" horiz-adv-x="1941" 
d="M1963 1803l203 -314q11 0 11 -27v-11h-11q-84 0 -314 225l-11 39q0 58 122 88zM2050 865q-399 -444 -399 -645q0 -73 68 -129q-32 -18 -62 -18h-6q-129 0 -172 184v13q0 248 393 681h-6q-183 -141 -682 -620q-269 -240 -375 -240q-176 0 -270 258l-12 74q0 338 632 965
l314 288q-605 0 -1106 -417q-129 -131 -129 -209v-19q0 -26 31 -61q5 -12 -6 -12q-184 3 -197 215q0 338 848 559q253 55 467 55h49q206 0 276 -154l6 -30q0 -48 -258 -252q-579 -529 -706 -848q-55 -107 -55 -166q10 -67 61 -67q165 0 842 595q422 357 479 357
q78 0 172 -148v-12q0 -9 -86 -86q154 98 173 173q-7 153 76.5 140.5t121 -67t-3.5 -117t-176 -127.5q-98 -48 -302 -113z" />
    <glyph glyph-name="uni1EEB" unicode="&#x1eeb;" horiz-adv-x="1012" 
d="M749 1371l203 -314q11 0 11 -27v-11h-11q-84 0 -314 225l-11 39q0 58 122 88zM1104 668q-41 -54 -136 -169q-220 -306 -220 -435q-3 -42 12 -77q-2 -12 -12 -6q-95 33 -118 97q-8 12 -7 81q0 165 208 442h-6q-545 -600 -661 -608q-165 37 -167 179q0 297 489 810
q12 36 23 36q89 0 180 -131l-203 -203q-340 -364 -340 -566q81 22 715 602q122 107 161 107q43 0 84 -61q49 45 59 83q-7 131 65 120t104 -57.5t-3 -100.5t-151 -110q-32 -16 -76 -33z" />
    <glyph glyph-name="uni1EEC" unicode="&#x1eec;" horiz-adv-x="1941" 
d="M2235 1910h3q102 0 155 -107l5 -32q0 -90 -238 -178q-93 -48 -93 -81l12 -19v-14l-19 -17h-25q-64 17 -64 28q-4 0 -8 39v9q0 81 250 145q189 44 77 128q0 -2 -22 0q-113 0 -238 -89l-6 -9l4 -38h-48q-55 34 -55 84q0 49 159 120q93 31 151 31zM2050 865
q-399 -444 -399 -645q0 -73 68 -129q-32 -18 -62 -18h-6q-129 0 -172 184v13q0 248 393 681h-6q-183 -141 -682 -620q-269 -240 -375 -240q-176 0 -270 258l-12 74q0 338 632 965l314 288q-605 0 -1106 -417q-129 -131 -129 -209v-19q0 -26 31 -61q5 -12 -6 -12
q-184 3 -197 215q0 338 848 559q253 55 467 55h49q206 0 276 -154l6 -30q0 -48 -258 -252q-579 -529 -706 -848q-55 -107 -55 -166q10 -67 61 -67q165 0 842 595q422 357 479 357q78 0 172 -148v-12q0 -9 -86 -86q154 98 173 173q-7 153 76.5 140.5t121 -67t-3.5 -117
t-176 -127.5q-98 -48 -302 -113z" />
    <glyph glyph-name="uni1EED" unicode="&#x1eed;" horiz-adv-x="1012" 
d="M1129 1390h2q88 0 134 -93l5 -27q0 -78 -206 -154q-81 -41 -81 -70l11 -17v-12l-16 -14h-22q-56 15 -56 24q-3 0 -6 34v8q0 70 216 125q163 38 66 110q0 -1 -19 0q-98 0 -205 -76l-6 -8l4 -33h-41q-48 29 -48 72t138 104q79 27 130 27zM1104 668q-41 -54 -136 -169
q-220 -306 -220 -435q-3 -42 12 -77q-2 -12 -12 -6q-95 33 -118 97q-8 12 -7 81q0 165 208 442h-6q-545 -600 -661 -608q-165 37 -167 179q0 297 489 810q12 36 23 36q89 0 180 -131l-203 -203q-340 -364 -340 -566q81 22 715 602q122 107 161 107q43 0 84 -61q49 45 59 83
q-7 131 65 120t104 -57.5t-3 -100.5t-151 -110q-32 -16 -76 -33z" />
    <glyph glyph-name="uni1EEE" unicode="&#x1eee;" horiz-adv-x="1941" 
d="M2328 1695q99 -19 162 -161q0 -31 -22 -20q-68 67 -91 72q-88 20 -221.5 -5.5t-214 3t-66.5 138.5q9 26 32 11q32 -48 59 -53l29 -6q44 -9 163 11.5t170 9.5zM2050 865q-399 -444 -399 -645q0 -73 68 -129q-32 -18 -62 -18h-6q-129 0 -172 184v13q0 248 393 681h-6
q-183 -141 -682 -620q-269 -240 -375 -240q-176 0 -270 258l-12 74q0 338 632 965l314 288q-605 0 -1106 -417q-129 -131 -129 -209v-19q0 -26 31 -61q5 -12 -6 -12q-184 3 -197 215q0 338 848 559q253 55 467 55h49q206 0 276 -154l6 -30q0 -48 -258 -252
q-579 -529 -706 -848q-55 -107 -55 -166q10 -67 61 -67q165 0 842 595q422 357 479 357q78 0 172 -148v-12q0 -9 -86 -86q154 98 173 173q-7 153 76.5 140.5t121 -67t-3.5 -117t-176 -127.5q-98 -48 -302 -113z" />
    <glyph glyph-name="uni1EEF" unicode="&#x1eef;" horiz-adv-x="1012" 
d="M1185 1275q101 0 191 -127q6 -29 -18 -23q-80 52 -103 52q-90 3 -216 -48.5t-210.5 -39.5t-92.5 123q4 27 28 17q42 -40 70 -40h29q44 0 157.5 43t164.5 43zM1104 668q-41 -54 -136 -169q-220 -306 -220 -435q-3 -42 12 -77q-2 -12 -12 -6q-95 33 -118 97q-8 12 -7 81
q0 165 208 442h-6q-545 -600 -661 -608q-165 37 -167 179q0 297 489 810q12 36 23 36q89 0 180 -131l-203 -203q-340 -364 -340 -566q81 22 715 602q122 107 161 107q43 0 84 -61q49 45 59 83q-7 131 65 120t104 -57.5t-3 -100.5t-151 -110q-32 -16 -76 -33z" />
    <glyph glyph-name="uni1EF0" unicode="&#x1ef0;" horiz-adv-x="1941" 
d="M1207 30h4q82 -8 82 -77q0 -99 -130 -126h-29q-56 0 -77 73q0 115 150 130zM2050 865q-399 -444 -399 -645q0 -73 68 -129q-32 -18 -62 -18h-6q-129 0 -172 184v13q0 248 393 681h-6q-183 -141 -682 -620q-269 -240 -375 -240q-176 0 -270 258l-12 74q0 338 632 965
l314 288q-605 0 -1106 -417q-129 -131 -129 -209v-19q0 -26 31 -61q5 -12 -6 -12q-184 3 -197 215q0 338 848 559q253 55 467 55h49q206 0 276 -154l6 -30q0 -48 -258 -252q-579 -529 -706 -848q-55 -107 -55 -166q10 -67 61 -67q165 0 842 595q422 357 479 357
q78 0 172 -148v-12q0 -9 -86 -86q154 98 173 173q-7 153 76.5 140.5t121 -67t-3.5 -117t-176 -127.5q-98 -48 -302 -113z" />
    <glyph glyph-name="uni1EF1" unicode="&#x1ef1;" horiz-adv-x="1012" 
d="M436 -63h5q72 -8 72 -69q0 -87 -115 -111h-26q-50 0 -68 64q0 103 132 116zM1104 668q-41 -54 -136 -169q-220 -306 -220 -435q-3 -42 12 -77q-2 -12 -12 -6q-95 33 -118 97q-8 12 -7 81q0 165 208 442h-6q-545 -600 -661 -608q-165 37 -167 179q0 297 489 810
q12 36 23 36q89 0 180 -131l-203 -203q-340 -364 -340 -566q81 22 715 602q122 107 161 107q43 0 84 -61q49 45 59 83q-7 131 65 120t104 -57.5t-3 -100.5t-151 -110q-32 -16 -76 -33z" />
    <glyph glyph-name="Ygrave" unicode="&#x1ef2;" horiz-adv-x="1765" 
d="M1404 1548h35q167 0 232 -169q-15 -41 -147 -111q-248 -124 -654 -503q-255 -274 -255 -372v-17q0 -12 17 -12q101 0 708 389q361 228 441 249q57 0 127 -104l6 -23q0 -121 -185 -406q67 0 87 -18q0 -34 -53 -34h-58q-508 -731 -881 -731h-12q-112 0 -133 145
q0 169 336 412q322 204 528 237q173 275 197 430h-6q-194 -125 -910 -644q-72 -52 -140 -52q-134 0 -208 197v23q0 308 638 818q213 155 307 203v6q-413 0 -980 -296q-279 -179 -279 -302l35 -58l-6 -6v-5q-117 0 -191 174v17q0 284 812 499q300 64 592 64zM783 -181l18 -12
q200 0 696 598h-6q-249 -104 -476 -278q-232 -192 -232 -308zM1858 1667l203 -314q11 0 11 -27v-11h-11q-84 0 -314 225l-11 39q0 58 122 88z" />
    <glyph glyph-name="ygrave" unicode="&#x1ef3;" horiz-adv-x="945" 
d="M504 973q79 0 156 -116v-23q-1 -40 -137 -138q-246 -222 -338 -390q-76 -146 -76 -174h6q87 0 725 580l23 6q134 -35 134 -104q-52 -139 -221 -493h6q35 -4 35 -18q0 -25 -75 -46q-483 -789 -813 -789q-133 15 -133 122q0 227 534 597q114 67 255 122l197 464
q-561 -568 -673 -568q-106 0 -133 139v23q0 271 452 714q48 45 70 92h6zM-105 -616q1 -10 11 -12q117 0 400 314q102 125 232 336v6q-198 -81 -522 -400q-121 -151 -121 -244zM758 1235l203 -314q16 -39 0 -38q-84 0 -314 225q-27 24 -14.5 60.5t125.5 66.5z" />
    <glyph glyph-name="uni1EF4" unicode="&#x1ef4;" horiz-adv-x="1765" 
d="M1404 1548h35q167 0 232 -169q-15 -41 -147 -111q-248 -124 -654 -503q-255 -274 -255 -372v-17q0 -12 17 -12q101 0 708 389q361 228 441 249q57 0 127 -104l6 -23q0 -121 -185 -406q67 0 87 -18q0 -34 -53 -34h-58q-508 -731 -881 -731h-12q-112 0 -133 145
q0 169 336 412q322 204 528 237q173 275 197 430h-6q-194 -125 -910 -644q-72 -52 -140 -52q-134 0 -208 197v23q0 308 638 818q213 155 307 203v6q-413 0 -980 -296q-279 -179 -279 -302l35 -58l-6 -6v-5q-117 0 -191 174v17q0 284 812 499q300 64 592 64zM783 -181l18 -12
q200 0 696 598h-6q-249 -104 -476 -278q-232 -192 -232 -308zM1505 -79h4q82 -8 82 -77q0 -99 -130 -126h-29q-56 0 -77 73q0 115 150 130z" />
    <glyph glyph-name="uni1EF5" unicode="&#x1ef5;" horiz-adv-x="945" 
d="M504 973q79 0 156 -116v-23q-1 -40 -137 -138q-246 -222 -338 -390q-76 -146 -76 -174h6q87 0 725 580l23 6q134 -35 134 -104q-52 -139 -221 -493h6q35 -4 35 -18q0 -25 -75 -46q-483 -789 -813 -789q-133 15 -133 122q0 227 534 597q114 67 255 122l197 464
q-561 -568 -673 -568q-106 0 -133 139v23q0 271 452 714q48 45 70 92h6zM-105 -616q1 -10 11 -12q117 0 400 314q102 125 232 336v6q-198 -81 -522 -400q-121 -151 -121 -244zM748 -155h5q72 -8 72 -69q0 -87 -115 -111h-26q-50 0 -68 64q0 103 132 116z" />
    <glyph glyph-name="uni1EF6" unicode="&#x1ef6;" horiz-adv-x="1765" 
d="M1404 1548h35q167 0 232 -169q-15 -41 -147 -111q-248 -124 -654 -503q-255 -274 -255 -372v-17q0 -12 17 -12q101 0 708 389q361 228 441 249q57 0 127 -104l6 -23q0 -121 -185 -406q67 0 87 -18q0 -34 -53 -34h-58q-508 -731 -881 -731h-12q-112 0 -133 145
q0 169 336 412q322 204 528 237q173 275 197 430h-6q-194 -125 -910 -644q-72 -52 -140 -52q-134 0 -208 197v23q0 308 638 818q213 155 307 203v6q-413 0 -980 -296q-279 -179 -279 -302l35 -58l-6 -6v-5q-117 0 -191 174v17q0 284 812 499q300 64 592 64zM783 -181l18 -12
q200 0 696 598h-6q-249 -104 -476 -278q-232 -192 -232 -308zM2109 1671h3q102 0 155 -107l5 -32q0 -90 -238 -178q-93 -48 -93 -81l12 -19v-14l-19 -17h-25q-64 17 -64 28q-4 0 -8 39v9q0 81 250 145q189 44 77 128q0 -2 -22 0q-113 0 -238 -89l-6 -9l4 -38h-48
q-55 34 -55 84q0 49 159 120q93 31 151 31z" />
    <glyph glyph-name="uni1EF7" unicode="&#x1ef7;" horiz-adv-x="945" 
d="M504 973q79 0 156 -116v-23q-1 -40 -137 -138q-246 -222 -338 -390q-76 -146 -76 -174h6q87 0 725 580l23 6q134 -35 134 -104q-52 -139 -221 -493h6q35 -4 35 -18q0 -25 -75 -46q-483 -789 -813 -789q-133 15 -133 122q0 227 534 597q114 67 255 122l197 464
q-561 -568 -673 -568q-106 0 -133 139v23q0 271 452 714q48 45 70 92h6zM-105 -616q1 -10 11 -12q117 0 400 314q102 125 232 336v6q-198 -81 -522 -400q-121 -151 -121 -244zM1032 1259h2q88 0 134 -93l5 -27q0 -78 -206 -154q-81 -41 -81 -70l11 -17v-12l-16 -14h-22
q-56 15 -56 24q-3 0 -6 34v8q0 70 216 125q163 38 66 110q0 -1 -19 0q-98 0 -205 -76l-6 -8l4 -33h-41q-48 29 -48 72t138 104q79 27 130 27z" />
    <glyph glyph-name="uni1EF8" unicode="&#x1ef8;" horiz-adv-x="1765" 
d="M1404 1548h35q167 0 232 -169q-15 -41 -147 -111q-248 -124 -654 -503q-255 -274 -255 -372v-17q0 -12 17 -12q101 0 708 389q361 228 441 249q57 0 127 -104l6 -23q0 -121 -185 -406q67 0 87 -18q0 -34 -53 -34h-58q-508 -731 -881 -731h-12q-112 0 -133 145
q0 169 336 412q322 204 528 237q173 275 197 430h-6q-194 -125 -910 -644q-72 -52 -140 -52q-134 0 -208 197v23q0 308 638 818q213 155 307 203v6q-413 0 -980 -296q-279 -179 -279 -302l35 -58l-6 -6v-5q-117 0 -191 174v17q0 284 812 499q300 64 592 64zM783 -181l18 -12
q200 0 696 598h-6q-249 -104 -476 -278q-232 -192 -232 -308zM2180 1348q100 -9 178 -143q4 -30 -19 -22q-75 59 -99 62q-89 11 -219 -29t-213.5 -20.5t-80.5 130.5q6 27 30 15q37 -44 65 -47l29 -2q45 -4 161.5 28.5t167.5 27.5z" />
    <glyph glyph-name="uni1EF9" unicode="&#x1ef9;" horiz-adv-x="945" 
d="M504 973q79 0 156 -116v-23q-1 -40 -137 -138q-246 -222 -338 -390q-76 -146 -76 -174h6q87 0 725 580l23 6q134 -35 134 -104q-52 -139 -221 -493h6q35 -4 35 -18q0 -25 -75 -46q-483 -789 -813 -789q-133 15 -133 122q0 227 534 597q114 67 255 122l197 464
q-561 -568 -673 -568q-106 0 -133 139v23q0 271 452 714q48 45 70 92h6zM-105 -616q1 -10 11 -12q117 0 400 314q102 125 232 336v6q-198 -81 -522 -400q-121 -151 -121 -244zM1050 1174q101 0 191 -127q6 -29 -18 -23q-80 52 -103 52q-90 3 -216 -48.5t-210.5 -39.5
t-92.5 123q4 27 28 17q42 -40 70 -40h29q44 0 157.5 43t164.5 43z" />
    <glyph glyph-name="quoteleft" unicode="&#x2018;" horiz-adv-x="399" 
d="M133 1125q-69 0 -133 91v12q38 109 302 271l60 18l6 -6v-6q0 -20 -217 -362z" />
    <glyph glyph-name="quoteright" unicode="&#x2019;" horiz-adv-x="399" 
d="M235 1517q69 0 133 -90v-12q-38 -110 -302 -272l-60 -18l-6 6v6q0 20 217 362z" />
    <glyph glyph-name="quotedblleft" unicode="&#x201c;" horiz-adv-x="705" 
d="M133 1125q-133 38 -133 103v12q131 174 308 259q0 11 54 18l6 -6v-6q0 -19 -217 -356q-3 -24 -18 -24zM440 1161q-68 0 -132 91v12q38 109 301 272l61 18l6 -6v-6q0 -20 -217 -362z" />
    <glyph glyph-name="quotedblright" unicode="&#x201d;" horiz-adv-x="705" 
d="M543 1554q133 -38 133 -103v-12q-131 -174 -308 -259q0 -11 -54 -19l-6 6v6q0 19 217 356q3 25 18 25zM235 1517q69 0 133 -90v-12q-38 -110 -302 -272l-60 -18l-6 6v6q0 20 217 362z" />
    <glyph glyph-name="ellipsis" unicode="&#x2026;" horiz-adv-x="1143" 
d="M176 208q108 -10 108 -97v-6q0 -95 -114 -108h-12q-103 11 -103 102v12q0 71 121 97zM555 208q108 -10 108 -97v-6q0 -95 -114 -108h-12q-103 11 -103 102v12q0 71 121 97zM923 209q108 -10 108 -97v-6q0 -95 -114 -108h-12q-103 11 -103 102v12q0 71 121 97z" />
    <glyph glyph-name="ugrave" horiz-adv-x="582" 
 />
    <glyph glyph-name="uacute" horiz-adv-x="580" 
 />
    <glyph glyph-name="yacute" horiz-adv-x="629" 
 />
    </font>
</defs>
</svg>
