<svg xmlns="http://www.w3.org/2000/svg">
<defs>
<font id="UTMAlbaMatter" horiz-adv-x="1157" >
  <font-face 
    font-family="UTM Alba Matter"
    font-weight="400"
    font-stretch="normal"
    units-per-em="2048"
    panose-1="2 4 6 3 5 5 6 2 2 4"
    ascent="1638"
    descent="-410"
    x-height="1065"
    cap-height="1485"
    bbox="-243 -1233 4942 2777"
    underline-thickness="109"
    underline-position="-250"
    unicode-range="U+0020-2026"
  />
<missing-glyph horiz-adv-x="5040" 
d="M3351 2045h10q37 -10 37 -52q0 -12 -32 -57h-28q0 24 28 54l2 10q-5 13 -10 15h-9q-8 0 -10 -19h-30q6 49 42 49zM2019 2016l29 -31q0 -16 -40 -30h-19l-59 12l-11 -12l-28 25q11 29 43 29h11l42 -11h2q10 0 30 18zM468 1980h142v-60h-94v-75h89v-59h-89v-129l-5 -5h-49
v323zM1155 1980h43l6 -5v-78h30v-52h-30v-188l-6 -5h-49v193h-25v52h25v78zM1621 1980h42l4 -5v-94h3q23 24 54 24h2q58 0 83 -71l2 -39v-143h-52v115q0 80 -42 80h-7q-43 0 -43 -86v-109h-51v323zM2200 1980h49l5 -5v-222q10 -51 45 -51q44 7 44 59v214l5 5h49v-216
q0 -85 -66 -112q-15 -8 -35 -8q-47 0 -82 55q-14 24 -14 57v224zM2435 1980h159v-60h-56v-268h-53v268h-55v55zM2621 1980h71q7 -4 83 -251h2l80 251h73v-328h-54v242h-2l-74 -242h-44q-4 0 -58 182l-19 60h-3v-242h-55v328zM3760 1980h52v-328h-45l-5 5v11l3 2l-3 14
q-29 -40 -78 -40q-67 0 -100 91l-5 39v3q0 94 92 125l23 3q35 0 63 -32h3v107zM2057 1928h36l4 -6v-49h-45v-221h-48v23q-23 -31 -59 -31q-89 14 -89 97v156h51v-104q0 -79 26 -86l18 -5h6q26 0 39 36l3 26v133h53v25zM3476 1928v-55h-31v-221h-47v25h-2q-15 -33 -57 -33
q-68 0 -86 78l-3 29v146h52v-120q0 -50 19 -68l21 -7h9q42 0 42 69v126h27q4 0 4 28l3 3h49zM758 1905q68 0 103 -77q9 -18 12 -54q0 -88 -90 -127l-32 -3q-63 0 -101 73q-12 22 -12 52v10q0 94 101 126h19zM1011 1905h3q74 0 83 -101v-152h-51v119q0 76 -42 76h-5
q-44 0 -44 -76v-119h-52v245h46v-21q30 29 62 29zM1466 1905h7q72 0 105 -89h-60q-16 31 -42 31h-17q-53 -14 -53 -61l-3 -15q12 -69 61 -69h9q22 0 47 27h40l2 3h3l2 -3l2 3l3 -3l2 3l2 -7q-33 -81 -110 -81q-76 0 -110 94l-4 36v3q0 85 77 120q15 8 37 8zM3141 1905h2

<glyph glyph-name=".notdef" horiz-adv-x="5040" 
d="M3351 2045h10q37 -10 37 -52q0 -12 -32 -57h-28q0 24 28 54l2 10q-5 13 -10 15h-9q-8 0 -10 -19h-30q6 49 42 49zM2019 2016l29 -31q0 -16 -40 -30h-19l-59 12l-11 -12l-28 25q11 29 43 29h11l42 -11h2q10 0 30 18zM468 1980h142v-60h-94v-75h89v-59h-89v-129l-5 -5h-49
v323zM1155 1980h43l6 -5v-78h30v-52h-30v-188l-6 -5h-49v193h-25v52h25v78zM1621 1980h42l4 -5v-94h3q23 24 54 24h2q58 0 83 -71l2 -39v-143h-52v115q0 80 -42 80h-7q-43 0 -43 -86v-109h-51v323zM2200 1980h49l5 -5v-222q10 -51 45 -51q44 7 44 59v214l5 5h49v-216
q0 -85 -66 -112q-15 -8 -35 -8q-47 0 -82 55q-14 24 -14 57v224zM2435 1980h159v-60h-56v-268h-53v268h-55v55zM2621 1980h71q7 -4 83 -251h2l80 251h73v-328h-54v242h-2l-74 -242h-44q-4 0 -58 182l-19 60h-3v-242h-55v328zM3760 1980h52v-328h-45l-5 5v11l3 2l-3 14
q-29 -40 -78 -40q-67 0 -100 91l-5 39v3q0 94 92 125l23 3q35 0 63 -32h3v107zM2057 1928h36l4 -6v-49h-45v-221h-48v23q-23 -31 -59 -31q-89 14 -89 97v156h51v-104q0 -79 26 -86l18 -5h6q26 0 39 36l3 26v133h53v25zM3476 1928v-55h-31v-221h-47v25h-2q-15 -33 -57 -33
q-68 0 -86 78l-3 29v146h52v-120q0 -50 19 -68l21 -7h9q42 0 42 69v126h27q4 0 4 28l3 3h49zM758 1905q68 0 103 -77q9 -18 12 -54q0 -88 -90 -127l-32 -3q-63 0 -101 73q-12 22 -12 52v10q0 94 101 126h19zM1011 1905h3q74 0 83 -101v-152h-51v119q0 76 -42 76h-5
q-44 0 -44 -76v-119h-52v245h46v-21q30 29 62 29zM1466 1905h7q72 0 105 -89h-60q-16 31 -42 31h-17q-53 -14 -53 -61l-3 -15q12 -69 61 -69h9q22 0 47 27h40l2 3h3l2 -3l2 3l3 -3l2 3l2 -7q-33 -81 -110 -81q-76 0 -110 94l-4 36v3q0 85 77 120q15 8 37 8zM3141 1905h2
q49 0 70 -60v-14h-52q0 16 -16 16h-4q-14 0 -19 -13v-13q0 -9 68 -35q30 -19 30 -59q0 -58 -61 -80l-23 -3q-76 12 -76 83h54q0 -20 27 -25h4q19 0 24 23q0 22 -68 44q-34 27 -34 59q0 66 74 77zM4203 1905q55 0 77 -63q7 -18 7 -65v-125h-52v112q0 83 -40 83h-11
q-33 0 -40 -54v-141h-52v5h-2l2 2v238h47v-21q25 29 64 29zM4432 1905h5q40 0 69 -40v18l-3 3l3 11h47v-208q0 -97 -85 -132l-33 -4h-7q-70 0 -104 80h59q24 -22 45 -23h13q22 0 43 22q15 13 22 52h-3q-32 -40 -73 -40q-57 0 -96 70q-10 18 -14 63q0 88 87 125zM3851 1897
h53v-136q6 -59 40 -59h7q46 0 46 93v102h51v-245h-47l-3 10h3l-3 3v5l3 2v3h-4q0 -23 -57 -31h-3q-59 0 -84 75l-2 85v93zM690 1771q10 -69 63 -69h7q59 14 59 65v15q-13 65 -59 65h-5q-58 0 -65 -76zM3630 1774q13 -72 61 -72h5q58 0 66 75q0 49 -51 70h-22q-37 0 -56 -57z
M4374 1774q8 -72 65 -72h5q59 12 59 72q0 61 -59 73h-14q-56 -16 -56 -62v-11zM3928 1620h52v-57h-52v57zM1054 1402q43 -11 43 -49v-4q0 -17 -32 -60h-28q0 25 31 57v7q0 12 -7 15h-12q-10 -4 -10 -19h-28v6q0 32 33 44zM3349 1339q92 0 138 -99h-60q-37 42 -80 42
q-55 0 -87 -68q-10 -22 -10 -47q0 -78 81 -110l18 -1q36 0 75 39h61q-44 -97 -138 -97q-93 0 -141 112q-10 31 -10 62q0 97 90 152q29 15 63 15zM3664 1339q57 0 103 -47q46 -51 46 -115v-20q0 -89 -91 -146q-33 -13 -63 -13q-89 0 -138 101q-13 33 -13 60v18q0 98 98 151
q29 11 58 11zM2261 1337h2l47 -11h3q11 0 26 11l18 -36q-18 -19 -35 -19h-3l-54 10l-20 -7l-20 36q18 16 36 16zM716 1334h19q118 0 129 -26q25 -26 25 -62q-10 -57 -30 -57v-6q47 -23 47 -66v-18q0 -63 -69 -88l-54 -5h-67v328zM2550 1334h53v-217q6 -61 45 -61q29 0 44 39
l3 30v203l4 6h45l5 -6v-171q0 -118 -40 -133q-24 -26 -64 -26q-55 0 -91 76l-4 54v206zM2805 1334h59q4 0 122 -237h4v237h50l4 -6v-322h-58q-29 48 -125 238h-3v-238h-53v328zM3101 1334h54v-328h-54v328zM3859 1334h8q155 0 174 -40q23 -11 47 -75l4 -36v-11l3 -2
q0 -94 -82 -149q-35 -15 -99 -15h-55v328zM4141 1334h153v-60h-103v-75h101v-57h-101v-74l4 -5h99v-57h-157v322zM3563 1175v-10q0 -76 79 -108l19 -1q68 0 96 86l3 20v15q0 61 -60 94q-12 8 -39 11q-66 0 -96 -83zM770 1274v-67h9q54 0 54 28l3 14q-11 25 -29 25h-37z
M3912 1274v-206l2 -3v-2q104 0 122 76l2 15v29q0 34 -32 68q-25 23 -78 23h-16zM1041 1259h5q38 0 71 -40v32h49v-245h-49v32q-36 -40 -80 -40q-75 0 -101 97l-5 36q0 89 85 125zM1314 1259h3q74 0 83 -102v-151h-51v128q0 67 -42 67h-10q-34 0 -39 -62v-133h-52v245h47v-21
q28 29 61 29zM1543 1259h5q45 0 71 -40v32h47v-219q0 -95 -104 -126h-16q-74 0 -108 82h59q26 -25 44 -25h14q52 0 64 77q-33 -42 -76 -42q-60 0 -101 81l-7 44v16q0 79 85 117zM1912 1259h2q43 0 61 -37h2q32 37 69 37h4q57 0 79 -55q8 -25 8 -45v-153h-52v138q0 44 -23 55
l-12 2h-15q-32 0 -36 -65v-130h-52v136q0 59 -43 59h-8q-32 0 -36 -57v-138h-54v245h50v-21h2q6 24 54 29zM2282 1259q47 0 75 -42v34h47v-245h-47v32q-36 -40 -78 -40q-74 0 -102 92l-6 41q0 90 85 125zM985 1117q0 -48 61 -61h4q45 0 62 46l3 15v22q-12 62 -57 62h-14
q-41 0 -59 -57v-27zM1487 1128q0 -48 43 -68l18 -4h5q47 0 63 57v23q-11 65 -58 65h-12q-50 0 -59 -73zM2225 1131v-14q15 -61 57 -61h14q58 12 58 64v11q0 45 -37 65l-18 5h-10q-64 -8 -64 -70zM770 1150v-82q0 -5 7 -5q77 0 77 45q0 34 -47 42h-37zM2966 753l24 -28
l-51 -55q-18 12 -27 26zM1524 727l85 -54q0 -15 -21 -42l-87 54q18 41 23 42zM2850 693h38l55 -60h-54l-21 26l-23 -26h-54q54 60 59 60zM3422 693h40l56 -60h-54l-24 26h-1q0 -5 -19 -26h-54zM622 685h52q8 -4 47 -137l34 -110q9 8 34 100l48 147h54v-2l-112 -326h-44z
M1159 685h51v-54h-51v54zM1354 685h46l6 -5v-323h-52v328zM2317 685h45l4 -5v-78h31v-52h-31v-193h-53v193h-26v52h26v78zM2425 685h52v-98h2q23 23 54 23h3q57 0 81 -71l3 -38v-144h-52v115q0 81 -39 81h-10q-42 0 -42 -87v-109h-52v328zM2664 685h52v-54h-52v54zM3028 685
h44l6 -5v-78h29v-52h-29v-193h-54v193h-27v52h27v78zM3234 685h52v-328h-52v328zM3957 685h52v-328h-52v328zM4316 685h51v-54h-51v54zM1555 610h5q83 0 110 -102l3 -23v-11q0 -83 -85 -120l-35 -5q-76 0 -111 97l-4 32q0 97 93 130zM1811 610h4q53 0 78 -60q7 -25 7 -81
v-112h-54v146q-7 50 -37 50h-10q-38 0 -42 -57v-139h-54v245h49v-21q26 29 59 29zM2046 610h4q45 0 63 -39h3v31h49v-206q0 -102 -89 -135l-28 -3h-5q-73 0 -106 81h52l37 -20l15 -3h14q50 0 61 72q-33 -39 -73 -39q-62 0 -98 76q-11 23 -12 60q0 85 86 123zM2866 610h2
q82 0 111 -104l2 -25l-2 -27h-172q15 -45 45 -45l14 -3q29 0 49 22h57v-3q-35 -76 -108 -76q-77 0 -111 97l-1 28v8q0 49 32 89q34 39 82 39zM3429 610h5q41 0 70 -39h2v31h47v-245h-47v31h-2q-35 -39 -77 -39q-71 0 -101 89l-5 36v14q0 86 84 120zM3711 610h7
q88 0 107 -128l-2 -1v-15q0 -65 -66 -106q-21 -11 -46 -11q-34 0 -64 32v-99l-5 -5h-49v325h49v-28q31 36 69 36zM4151 610q44 0 75 -39v31h49v-245h-49v31q-35 -39 -77 -39q-92 0 -108 132q0 84 73 121q15 8 37 8zM922 602h50v-136q3 -60 42 -60h5q44 0 44 87v109h52v-245
h-47v24h-5q0 -23 -56 -32h-3q-55 0 -82 68q-4 35 -4 99v81zM1159 602h51v-245h-51v245zM2664 602h52v-245h-52v245zM4316 602h51v-245h-51v245zM1492 488v-16q13 -66 59 -66h4q59 0 66 76q-13 71 -59 71h-11q-59 -16 -59 -65zM1987 472q15 -66 59 -66h11q48 0 59 75v1
q-13 71 -59 71h-14q-39 0 -56 -57v-24zM2805 506h122v2q-16 45 -59 45h-7q-35 0 -56 -47zM3373 474q13 -68 61 -68h5q52 0 65 63v12q-10 72 -57 72h-16q-56 -14 -56 -63zM3642 478q12 -72 61 -72h3q50 0 65 60v22q0 43 -49 65h-22q-47 0 -58 -72v-3zM4095 472q10 -66 66 -66
q43 0 61 48l2 15v16q0 54 -52 68h-18q-42 0 -59 -60v-21zM3416 321h51v-52h-51v52zM4137 321h51v-52h-51v52zM2733 133h4q35 0 43 -50v-2q0 -16 -24 -41l-10 -17h-28q0 25 28 56l3 2v2q-3 19 -9 19h-10q-8 0 -9 -19h-30q6 50 42 50zM1546 116l52 -60l-26 -19l-52 52zM352 79
h4q75 -48 85 -60l-20 -37q-88 49 -88 58zM3490 79l86 -58l-18 -39q-10 0 -91 55q15 36 23 42zM4578 76l19 -42l-91 -52l-20 39l92 58v-3zM1204 53h51v-19l5 -5h14v-36h-14l-5 -5v-279h-46v31q-34 -40 -81 -40q-72 0 -102 105l-3 26q0 102 101 131h14q33 0 66 -33v59l-6 5
h-43v36h49v24zM1480 45h40l56 -61h-53l-23 27l-23 -27h-53zM2641 45h33q12 0 63 -61h-54l-23 27q-19 -21 -19 -27h-58v4zM49 37h160v-60h-56v-268h-50l-4 5v245l2 3v2l-2 2l2 3l-2 2l2 3l-2 3h-54v54zM699 37h47v-73l2 -2l-2 -3v-3l2 -2l-2 -3v-3l2 -2v-2l-2 -3l2 -3h3
q17 24 51 24h3q53 0 77 -58q7 -17 7 -42v-153h-52v127q0 68 -40 68h-8q-43 0 -43 -86v-109h-52v322zM1297 37h47l5 -6v-49h-52v55zM1987 37h52v-198l70 115h62l-78 -118l90 -125v-2h-70q-10 22 -74 115v-115h-52v328zM2271 37v-99q24 24 53 24q57 0 80 -56q10 -19 10 -77
v-120h-54v133q0 62 -41 62h-11q-31 0 -37 -55v-140h-53v314l-1 3v3l1 2l-1 3l1 3h53zM2458 37h51v-55h-51v55zM3148 37h51v-108q27 33 68 33h3q75 0 105 -94l5 -37q0 -75 -64 -120q-30 -11 -49 -11q-41 0 -72 40v-31h-47v328zM4275 37h52v-99h2q23 24 54 24h3q60 0 82 -74
l2 -41v-138h-52v111q0 82 -32 82l-10 2h-12q-37 0 -37 -80v-115h-52v328zM329 -38h3v-58h-5q-42 0 -42 -57v-138h-53v245h47v-21q18 29 50 29zM564 -38q71 0 86 -87v-166h-51v136q-6 59 -41 59h-6q-45 0 -45 -84v-111h-52v245h50v-21q25 29 59 29zM1504 -38q72 0 105 -94
l5 -39q-2 -24 -7 -24h-169q17 -47 62 -47q24 0 48 21h57q-33 -79 -108 -79q-82 0 -113 105v37q0 81 89 117zM2657 -38h5q77 0 107 -97l3 -26v-21l-3 -13h-170q18 -47 53 -47h12q21 0 42 21h59q-34 -79 -105 -79q-84 0 -115 102l-2 29q0 93 91 128zM2915 -38h4q54 0 78 -60
q7 -25 7 -82v-111h-54v138q0 48 -35 57h-11q-38 0 -43 -57v-138h-54v245h50v-21q25 29 58 29zM3508 -38h6q40 0 70 -40h2v32h47v-245h-47v31h-2q-34 -40 -78 -40q-71 0 -101 90l-4 37v12q0 82 77 117q11 6 30 6zM3781 -38h4q62 0 82 -78l3 -84v-91h-54v138q0 48 -38 57h-9
q-38 0 -42 -52v-143h-54v245h49v-21q26 29 59 29zM4133 -38h1q74 0 104 -93l4 -40q0 -88 -84 -126l-25 -3q-41 0 -68 34v-106h-52v326h47v-29q30 37 73 37zM4714 -38h5q34 0 63 -37q27 37 69 37h6q56 0 79 -66l6 -51v-136h-52v122q0 73 -39 73h-7q-35 0 -41 -50v-140l-5 -5
h-48v140q0 42 -31 55h-17q-40 0 -40 -77v-118h-51v245h47v-21q22 29 56 29zM359 -46h49l5 -6v-234l-5 -5h-49v245zM1297 -46h52v-245h-52v245zM1649 -46h52v-136q4 -60 43 -60h4q44 0 44 81v115h52v-245h-47v24h-5q-12 -33 -59 -33q-52 0 -79 63q-5 12 -5 34v157zM2458 -46
h51v-245h-51v245zM4515 -46h51v-245h-51v245zM1077 -169q0 -53 51 -73h12q54 0 66 66v10q0 53 -54 70h-17q-38 0 -58 -57v-16zM1438 -143h122q-18 47 -53 47h-7q-43 0 -62 -44v-3zM2599 -143h122q-21 47 -54 47h-7q-46 0 -61 -47zM3196 -158v-11q10 -73 61 -73h5q64 8 64 71
v5q0 45 -38 65l-18 5h-14q-60 -14 -60 -62zM3452 -173q14 -69 62 -69h11q41 0 59 60v13q-8 73 -56 73h-17q-47 0 -59 -73v-4zM4062 -158v-22q0 -47 59 -62h9q50 0 61 76q-13 70 -58 70h-15q-56 -17 -56 -62z" />
    <glyph glyph-name=".null" horiz-adv-x="0" 
 />
    <glyph glyph-name="nonmarkingreturn" horiz-adv-x="571" 
 />
    <glyph glyph-name="space" unicode=" " horiz-adv-x="620" 
 />
    <glyph glyph-name="exclam" unicode="!" horiz-adv-x="389" 
d="M245 395q-78 0 -128 51.5t-50 128.5v732q0 75 51 126.5t127 51.5q78 0 129 -50.5t51 -127.5v-732q0 -77 -51 -128.5t-129 -51.5zM247 -41q-88 0 -149.5 61.5t-61.5 149.5t61.5 148.5t149.5 60.5t149.5 -60.5t61.5 -148.5t-61.5 -149.5t-149.5 -61.5z" />
    <glyph glyph-name="quotedbl" unicode="&#x22;" horiz-adv-x="849" 
d="M702 813q-86 0 -147.5 61.5t-61.5 147.5v252q0 88 60.5 149.5t148.5 61.5t149.5 -61.5t61.5 -149.5v-252q0 -90 -60.5 -149.5t-150.5 -59.5zM247 813q-88 0 -149.5 60.5t-61.5 148.5v252q0 88 61.5 149.5t149.5 61.5t149.5 -61.5t61.5 -149.5v-252q0 -88 -61.5 -148.5
t-149.5 -60.5z" />
    <glyph glyph-name="numbersign" unicode="#" horiz-adv-x="1103" 
d="M986 926q70 -6 113 -55.5t43 -120.5q0 -162 -158 -181q-6 -69 -56 -113t-122 -44q-71 0 -120.5 44t-55.5 113h-47q-6 -69 -55 -113t-121 -44t-122 44t-56 115q-72 7 -115 57t-43 122q0 71 43 120.5t113 55.5v47q-70 6 -113 55t-43 121t43 122t115 56q6 72 56 115t122 43
t121 -43t55 -113h47q6 70 55.5 113t120.5 43q72 0 122 -43t56 -115q72 -6 115 -56t43 -122t-43 -121t-113 -55v-47zM628 971h-43v-43h43v43z" />
    <glyph glyph-name="dollar" unicode="$" horiz-adv-x="913" 
d="M491 -76q-62 0 -106 43t-44 105q0 51 33 92q-59 -17 -127 -17q-78 0 -128 50.5t-50 128.5q0 80 51 130t131 50t80 84q0 -21 2 63v62v112q0 230 182 361q-12 -2 -24 -2q-62 0 -106 44t-44 105q0 62 44 106t106 44q61 0 105 -44t44 -106q0 -57 -36 -100q81 35 172 35
q77 0 128.5 -50.5t51.5 -127.5q0 -76 -52.5 -128.5t-127.5 -52.5q-35 0 -59.5 -24.5t-24.5 -59.5q-2 -262 -7 -292q-28 -199 -190 -314q61 -2 103 -45t42 -104q0 -62 -44 -105t-105 -43z" />
    <glyph glyph-name="percent" unicode="%" horiz-adv-x="1464" 
d="M372 870q-127 0 -215 88.5t-88 215.5q0 126 88 214.5t215 88.5t215 -88.5t88 -214.5q0 -127 -88 -215.5t-215 -88.5zM1202 41q-127 0 -215.5 88t-88.5 215t88.5 215t215.5 88t215 -88t88 -215t-88 -215t-215 -88zM1224 1389l-551 -1543q-43 -118 -164 -118
q-75 0 -130.5 49t-55.5 125q0 32 12 67l549 1540q43 121 166 121q76 0 130 -50t54 -126q0 -37 -10 -65zM372 1255q-35 0 -58.5 -23.5t-23.5 -57.5q0 -35 23.5 -58.5t58.5 -23.5t58.5 23.5t23.5 58.5q0 34 -23.5 57.5t-58.5 23.5zM1202 426q-35 0 -58.5 -23.5t-23.5 -58.5
t23.5 -58.5t58.5 -23.5q34 0 57.5 23.5t23.5 58.5t-23.5 58.5t-57.5 23.5z" />
    <glyph glyph-name="ampersand" unicode="&#x26;" horiz-adv-x="1910" 
d="M1681 784q-28 -30 -82 -30q-34 0 -58 -23.5t-24 -58.5t24 -58.5t58 -23.5q35 0 58.5 23.5t23.5 58.5v112zM1599 369q-127 0 -215 88t-88 215t88 215t215 88q54 0 82 -31v127q0 111 111 111q110 0 110 -111v-399q0 -127 -88 -215t-215 -88zM1145 369q-111 0 -111 110v232
q0 43 -41 43t-41 -43v-232q0 -110 -110 -110q-111 0 -111 110v232q0 110 76 186t186 76q111 0 186.5 -76t75.5 -186v-232q0 -110 -110 -110zM477 559v113q0 35 -23.5 58.5t-58.5 23.5t-58.5 -23.5t-23.5 -58.5t23.5 -58.5t58.5 -23.5q53 0 82 -31zM588 371q-68 0 -97 47
q-26 -49 -96 -49q-127 0 -215 88t-88 215t88 215t215 88t215 -88t88 -215v-193q0 -108 -110 -108z" />
    <glyph glyph-name="quotesingle" unicode="'" horiz-adv-x="389" 
d="M247 813q-88 0 -149.5 60.5t-61.5 148.5v252q0 88 61.5 149.5t149.5 61.5t149.5 -61.5t61.5 -149.5v-252q0 -88 -61.5 -148.5t-149.5 -60.5z" />
    <glyph glyph-name="parenleft" unicode="(" horiz-adv-x="980" 
d="M843 -207q-325 0 -549.5 224.5t-224.5 549.5v287q0 326 224.5 550t549.5 224q78 0 129 -50t51 -128t-51 -129t-129 -51q-176 0 -296 -120t-120 -296v-287q0 -176 120 -295.5t296 -119.5q78 0 129 -51.5t51 -129.5q0 -77 -51 -127.5t-129 -50.5z" />
    <glyph glyph-name="parenright" unicode=")" horiz-adv-x="980" 
d="M247 -207q-78 0 -129 50.5t-51 127.5q0 78 51 129.5t129 51.5q176 0 296 119.5t120 295.5v287q0 176 -120 296t-296 120q-78 0 -129 51t-51 129t51 128t129 50q326 0 550 -224t224 -550v-287q0 -325 -224 -549.5t-550 -224.5z" />
    <glyph glyph-name="asterisk" unicode="*" horiz-adv-x="874" 
d="M784 395q6 -110 6 -139q0 -137 -90 -137q-41 0 -207 65q-166 -65 -207 -65q-90 0 -90 137q0 29 6 139q-131 162 -131 207q0 57 80 90q29 13 162 45q65 103 75 117q56 74 105 74q47 0 106 -76l74 -115q133 -32 162 -45q80 -33 80 -90q0 -45 -131 -207z" />
    <glyph glyph-name="plus" unicode="+" horiz-adv-x="899" 
d="M759 340h-76v-76q0 -78 -50 -128t-128 -50t-129 50t-51 128v76h-76q-78 0 -128 51t-50 129t50 128t128 50h76v76q0 80 50 129t130 49q78 0 128 -50t50 -128v-76h76q78 0 128 -50t50 -128q0 -80 -49 -130t-129 -50z" />
    <glyph glyph-name="comma" unicode="," horiz-adv-x="389" 
d="M247 -293q-88 0 -149.5 61.5t-61.5 149.5v252q0 88 61.5 148.5t149.5 60.5t149.5 -60.5t61.5 -148.5v-252q0 -88 -61.5 -149.5t-149.5 -61.5z" />
    <glyph glyph-name="hyphen" unicode="-" horiz-adv-x="389" 
d="M247 424q-88 0 -149.5 61.5t-61.5 149.5t61.5 149.5t149.5 61.5t149.5 -61.5t61.5 -149.5t-61.5 -149.5t-149.5 -61.5z" />
    <glyph glyph-name="hyphen" unicode="&#x2010;" horiz-adv-x="389" 
d="M247 424q-88 0 -149.5 61.5t-61.5 149.5t61.5 149.5t149.5 61.5t149.5 -61.5t61.5 -149.5t-61.5 -149.5t-149.5 -61.5z" />
    <glyph glyph-name="period" unicode="." horiz-adv-x="389" 
d="M247 -41q-88 0 -149.5 61.5t-61.5 149.5t61.5 148.5t149.5 60.5t149.5 -60.5t61.5 -148.5t-61.5 -149.5t-149.5 -61.5z" />
    <glyph glyph-name="slash" unicode="/" horiz-adv-x="739" 
d="M854 1389l-551 -1543q-43 -118 -164 -118q-75 0 -129.5 49t-54.5 125q0 39 10 67l551 1540q43 121 164 121q78 0 131 -49t53 -127q0 -37 -10 -65z" />
    <glyph glyph-name="zero" unicode="0" horiz-adv-x="1574" 
d="M843 -63q-325 0 -549.5 224t-224.5 550q0 325 224.5 549.5t549.5 224.5q326 0 550 -224.5t224 -549.5q0 -326 -224 -550t-550 -224zM843 1126q-178 0 -297 -118.5t-119 -296.5q0 -176 120 -296t296 -120t296 120t120 296t-120 295.5t-296 119.5z" />
    <glyph glyph-name="one" unicode="1" horiz-adv-x="387" 
d="M247 -59q-78 0 -128 50t-50 128v1188q0 77 50 127.5t128 50.5t129 -50.5t51 -127.5v-1188q0 -78 -51 -128t-129 -50z" />
    <glyph glyph-name="two" unicode="2" 
d="M1018 -59h-770q-82 0 -138 36q-61 43 -61 123q0 103 104 172q271 179 398 283q289 233 289 367q0 86 -60.5 145t-146.5 59t-145.5 -59t-59.5 -145q0 -78 -51.5 -129.5t-128.5 -51.5q-78 0 -128.5 51.5t-50.5 129.5q0 239 162 401t402 162q239 0 402 -162t163 -401
q0 -187 -127 -355q-82 -108 -272 -268h219q78 0 129 -51t51 -129t-51 -128t-129 -50z" />
    <glyph glyph-name="three" unicode="3" horiz-adv-x="983" 
d="M542 -59h-295q-78 0 -129 50t-51 128t51 129t129 51h295q49 0 83 33t34 82q0 53 -40 85.5t-95 39.5q-74 8 -124 57t-50 121q0 80 54 128t136 50q49 2 84 35t35 82t-34 81.5t-83 32.5q-47 0 -81 -32.5t-34 -79.5q0 -80 -49 -131.5t-129 -51.5q-78 0 -129 51.5t-51 129.5
q0 200 136 336.5t337 136.5t338 -136.5t137 -336.5q0 -172 -106 -301q106 -127 106 -297q0 -201 -137 -337t-338 -136z" />
    <glyph glyph-name="four" unicode="4" horiz-adv-x="995" 
d="M855 -59q-75 0 -127.5 51t-52.5 127v241h-123q-207 0 -345 138.5t-138 345.5v459q0 77 50 128.5t128 51.5t129 -51.5t51 -128.5v-459q0 -53 36 -89t89 -36h123v588q0 75 52.5 126.5t127.5 51.5q78 0 128.5 -50.5t50.5 -127.5v-1188q0 -78 -50.5 -128t-128.5 -50z" />
    <glyph glyph-name="five" unicode="5" horiz-adv-x="1017" 
d="M493 -59h-246q-78 0 -128 50t-50 128t50 129t128 51h246q86 0 146.5 59.5t60.5 145.5t-60.5 146.5t-146.5 60.5h-246q-72 0 -125 53t-53 125v418q0 71 53 124.5t125 53.5h608q78 0 128.5 -50.5t50.5 -127.5q0 -80 -49.5 -130.5t-129.5 -50.5h-428v-57h66
q240 0 402.5 -163t162.5 -402q0 -238 -163.5 -400.5t-401.5 -162.5z" />
    <glyph glyph-name="six" unicode="6" horiz-adv-x="1159" 
d="M632 -63q-239 0 -401 162.5t-162 402.5v420q0 239 162 401t401 162q242 0 408 -172q53 -56 53 -125q0 -76 -54.5 -129t-129.5 -53q-56 0 -132.5 60t-144.5 60q-108 0 -168 -88q80 27 168 27q240 0 402.5 -162t162.5 -401q0 -240 -162.5 -402.5t-402.5 -162.5zM632 707
q-86 0 -145.5 -59.5t-59.5 -145.5t59.5 -146.5t145.5 -60.5t146.5 60.5t60.5 146.5t-60.5 145.5t-146.5 59.5z" />
    <glyph glyph-name="seven" unicode="7" horiz-adv-x="1034" 
d="M958 866l-279 -805q-43 -122 -166 -122q-77 0 -130.5 49t-53.5 127q0 28 10 59l312 952h-404q-78 0 -128 51.5t-50 129.5q0 77 50 127.5t128 50.5h651q177 0 177 -168q0 -113 -117 -451z" />
    <glyph glyph-name="eight" unicode="8" horiz-adv-x="1026" 
d="M567 -59q-211 0 -354.5 143t-143.5 354q0 193 127 334q-82 115 -82 260q0 193 130 324t323 131q194 0 324 -130t130 -325q0 -145 -84 -262q127 -139 127 -332q0 -211 -143 -354t-354 -143zM567 1128q-41 0 -68 -27.5t-27 -68.5q0 -39 28 -66.5t67 -27.5q41 0 68.5 26.5
t27.5 67.5t-27.5 68.5t-68.5 27.5zM567 580q-60 0 -100 -41t-40 -101q0 -57 41 -98t99 -41q59 0 99 40t40 99q0 60 -40 101t-99 41z" />
    <glyph glyph-name="nine" unicode="9" 
d="M632 -63q-241 0 -405 174q-54 55 -54 122q0 74 54.5 128.5t128.5 54.5q55 0 132 -60.5t144 -60.5q107 0 170 86q-82 -25 -170 -25q-239 0 -401 163t-162 403q0 239 162 401t401 162q240 0 402.5 -162t162.5 -401v-420q0 -240 -162.5 -402.5t-402.5 -162.5zM632 1126
q-86 0 -145.5 -59t-59.5 -145t59.5 -146.5t145.5 -60.5t146.5 60.5t60.5 146.5t-60.5 145t-146.5 59z" />
    <glyph glyph-name="colon" unicode=":" horiz-adv-x="389" 
d="M247 424q-88 0 -149.5 61.5t-61.5 149.5t61.5 149.5t149.5 61.5t149.5 -61.5t61.5 -149.5t-61.5 -149.5t-149.5 -61.5zM247 -41q-88 0 -149.5 61.5t-61.5 149.5t61.5 148.5t149.5 60.5t149.5 -60.5t61.5 -148.5t-61.5 -149.5t-149.5 -61.5z" />
    <glyph glyph-name="semicolon" unicode=";" horiz-adv-x="389" 
d="M247 424q-88 0 -149.5 61.5t-61.5 149.5t61.5 149.5t149.5 61.5t149.5 -61.5t61.5 -149.5t-61.5 -149.5t-149.5 -61.5zM247 -293q-88 0 -149.5 61.5t-61.5 149.5v252q0 88 61.5 148.5t149.5 60.5t149.5 -60.5t61.5 -148.5v-252q0 -88 -61.5 -149.5t-149.5 -61.5z" />
    <glyph glyph-name="less" unicode="&#x3c;" horiz-adv-x="593" 
d="M452 139q-72 0 -127 56l-182 184q-70 82 -70 141q0 72 72 144l180 182q55 55 127 55q74 0 128 -54t54 -128q0 -57 -43 -111q-8 -10 -86 -88q78 -78 86 -88q43 -53 43 -110q0 -74 -54 -128.5t-128 -54.5z" />
    <glyph glyph-name="equal" unicode="=" horiz-adv-x="899" 
d="M759 541h-510q-78 0 -128 50t-50 128t50 129t128 51h510q78 0 128 -51t50 -129t-50 -128t-128 -50zM759 139h-510q-78 0 -128 51.5t-50 128.5q0 78 50 128.5t128 50.5h510q78 0 128 -50.5t50 -128.5q0 -79 -49 -129.5t-129 -50.5z" />
    <glyph glyph-name="greater" unicode="&#x3e;" horiz-adv-x="593" 
d="M563 379q-13 -14 -183 -184q-55 -56 -127 -56q-73 0 -127.5 54.5t-54.5 128.5q0 57 43 110q8 10 86 88q-78 78 -86 88q-43 54 -43 111q0 74 54.5 128t127.5 54q72 0 127 -55l180 -182q72 -72 72 -144q0 -59 -69 -141z" />
    <glyph glyph-name="question" unicode="?" horiz-adv-x="1024" 
d="M491 -49q-88 0 -149.5 61.5t-61.5 149.5q0 69 41 123.5t106 74.5q-135 29 -135 175q0 77 50.5 128.5t127.5 51.5h162q86 0 146.5 60.5t60.5 146.5t-60.5 145t-146.5 59t-145.5 -59t-59.5 -145q0 -78 -51 -129.5t-129 -51.5t-128 51.5t-50 129.5q0 239 162 401t401 162
q240 0 402.5 -162t162.5 -401q0 -240 -162.5 -403t-402.5 -163h-63q133 -51 133 -194q0 -88 -61.5 -149.5t-149.5 -61.5z" />
    <glyph glyph-name="at" unicode="@" horiz-adv-x="1574" 
d="M1617 711q0 -326 -224 -550t-550 -224q-325 0 -549.5 224t-224.5 550q0 325 224.5 549.5t549.5 224.5q326 0 550 -224.5t224 -549.5zM1300 711q0 194 -131 325t-326 131q-196 0 -326.5 -130t-130.5 -326q0 -195 131.5 -326t325.5 -131q92 0 178 35v422q0 73 -52 125.5
t-126 52.5t-126 -52.5t-52 -125.5q0 -74 52 -126.5t126 -52.5q100 0 100 -100q0 -43 -28.5 -70.5t-71.5 -27.5q-158 0 -267.5 109.5t-109.5 267.5q0 157 109.5 266.5t267.5 109.5t267.5 -109.5t109.5 -266.5v-258q80 116 80 258z" />
    <glyph glyph-name="A" unicode="A" 
d="M1331 -510h-11q-204 0 -342.5 139.5t-138.5 343.5v422q-98 -39 -207 -39q-78 0 -128 51.5t-50 129.5q0 77 50 127.5t128 50.5q86 0 146.5 60.5t60.5 146.5t-60.5 145t-146.5 59t-145.5 -59t-59.5 -145v-803q0 -78 -51 -128t-129 -50t-128 50t-50 128v803q0 239 162 401
t401 162q240 0 402.5 -162t162.5 -401v-949q0 -53 35 -89t88 -36h11q77 0 127.5 -51t50.5 -129q0 -76 -51.5 -127t-126.5 -51z" />
    <glyph glyph-name="B" unicode="B" horiz-adv-x="976" 
d="M427 895h113q49 0 84 34t35 83t-34 81.5t-83 32.5q-47 0 -81 -33.5t-34 -80.5v-117zM427 299h119q47 0 80 34t33 81q0 53 -40 85.5t-94.5 39t-97.5 34.5v-274zM542 -59q-94 0 -145 71q-49 -71 -148 -71q-78 0 -129 50t-51 128v893q0 200 136 336.5t337 136.5t338 -136.5
t137 -336.5q0 -172 -106 -301q106 -127 106 -297q0 -201 -137 -337t-338 -136z" />
    <glyph glyph-name="C" unicode="C" horiz-adv-x="980" 
d="M843 -63q-325 0 -549.5 224t-224.5 550q0 325 224.5 549.5t549.5 224.5q78 0 129 -50.5t51 -127.5q0 -78 -51 -129.5t-129 -51.5q-176 0 -296 -119.5t-120 -295.5t120 -296t296 -120q78 0 129 -51t51 -129t-51 -128t-129 -50z" />
    <glyph glyph-name="D" unicode="D" horiz-adv-x="1288" 
d="M427 297q82 -2 125 -2q176 0 296 120t120 296q0 178 -118.5 296.5t-297.5 118.5h-125v-829zM552 -63q-104 0 -153 81q-49 -77 -152 -77q-78 0 -128 50t-50 128v1188q0 71 53 124.5t125 53.5h305q328 0 551 -223.5t223 -550.5q0 -328 -223 -551t-551 -223z" />
    <glyph glyph-name="E" unicode="E" horiz-adv-x="974" 
d="M843 -63q-325 0 -549.5 224t-224.5 550q0 325 224.5 549.5t549.5 224.5q78 0 129 -50.5t51 -127.5q0 -78 -51 -129.5t-129 -51.5q-119 0 -219 -61t-152 -166h371q78 0 129 -50t51 -128t-51 -129t-129 -51h-379q49 -113 152.5 -179.5t226.5 -66.5q78 0 129 -51t51 -129
t-51 -128t-129 -50z" />
    <glyph glyph-name="F" unicode="F" horiz-adv-x="884" 
d="M743 489h-316v-370q0 -78 -51 -128t-129 -50t-128 50t-50 128v882q0 207 138 345.5t345 138.5h191q78 0 129 -50.5t51 -127.5q0 -78 -51 -129.5t-129 -51.5h-191q-53 0 -89 -35.5t-36 -89.5v-153h316q78 0 129 -50t51 -128t-51 -129.5t-129 -51.5z" />
    <glyph glyph-name="G" unicode="G" horiz-adv-x="1568" 
d="M843 -63q-325 0 -549.5 224t-224.5 550q0 325 224.5 549.5t549.5 224.5q342 0 578 -260q49 -56 49 -117q0 -76 -54.5 -129t-129.5 -53q-60 0 -121 51q-54 45 -119 98q-84 51 -203 51q-178 0 -297 -118.5t-119 -296.5q0 -176 120 -296t296 -120q121 0 223.5 64.5
t153.5 172.5h-219q-78 0 -128 51.5t-50 129.5t50 128t128 50h438q74 0 126 -53.5t52 -126.5q0 -326 -224 -550t-550 -224z" />
    <glyph glyph-name="H" unicode="H" horiz-adv-x="1222" 
d="M1402 -510h-12q-205 0 -344 139.5t-139 343.5v619h-480v-473q0 -78 -51 -128t-129 -50t-128 50t-50 128v1188q0 77 50 127.5t128 50.5t129 -50.5t51 -127.5v-357h480v357q0 77 50 127.5t128 50.5t129 -50.5t51 -127.5v-1334q0 -53 36 -89t89 -36h12q78 0 129 -51t51 -129
t-51 -128t-129 -50z" />
    <glyph glyph-name="I" unicode="I" horiz-adv-x="387" 
d="M247 -59q-78 0 -128 50t-50 128v1188q0 77 50 127.5t128 50.5t129 -50.5t51 -127.5v-1188q0 -78 -51 -128t-129 -50z" />
    <glyph glyph-name="J" unicode="J" horiz-adv-x="1011" 
d="M561 -63q-209 0 -350.5 142t-141.5 351q0 78 51 128t129 50t128 -50t50 -128q0 -57 38 -96t96 -39q57 0 96 39t39 96v877q0 77 50 127.5t128 50.5t129 -50.5t51 -127.5v-877q0 -209 -142.5 -351t-350.5 -142z" />
    <glyph glyph-name="K" unicode="K" horiz-adv-x="1052" 
d="M1226 -510h-8q-207 0 -345 138.5t-138 344.5v453q0 51 -37 87t-88 36h-183v-430q0 -78 -51 -128t-129 -50t-128 50t-50 128v1184q0 77 50 128.5t128 51.5t129 -51.5t51 -128.5v-394l62 -2q49 6 79.5 42t30.5 85q0 76 51.5 127t127.5 51q77 0 128.5 -51t51.5 -129
q0 -119 -55 -223q190 -141 190 -383v-453q0 -53 36 -89t89 -36h8q80 0 129 -50t49 -130q0 -78 -50 -128t-128 -50z" />
    <glyph glyph-name="L" unicode="L" horiz-adv-x="780" 
d="M642 -59h-90q-207 0 -345 138t-138 345v883q0 77 50 127.5t128 50.5t129 -50.5t51 -127.5v-883q0 -53 36 -89t89 -36h90q78 0 128.5 -51t50.5 -129t-50.5 -128t-128.5 -50z" />
    <glyph glyph-name="M" unicode="M" horiz-adv-x="1568" 
d="M1740 -510h-8q-205 0 -344 139.5t-139 343.5v1028q0 52 -36 88.5t-87 36.5q-56 0 -90 -39v-968q0 -78 -51.5 -128t-129.5 -50q-77 0 -127.5 50t-50.5 128v882q0 52 -36.5 88.5t-88.5 36.5q-53 0 -89 -35.5t-36 -89.5v-882q0 -78 -50 -128t-128 -50t-129 50t-51 128v882
q0 205 139.5 344.5t343.5 139.5q160 0 287 -94q125 94 287 94q205 0 343 -139.5t138 -344.5v-1028q0 -53 36 -89t89 -36h8q78 0 129 -51t51 -129t-51 -128t-129 -50z" />
    <glyph glyph-name="N" unicode="N" horiz-adv-x="995" 
d="M1169 -510h-8q-207 0 -345.5 138.5t-138.5 344.5v119l-2 909q0 52 -35.5 88.5t-87.5 36.5q-53 0 -89 -35.5t-36 -89.5v-882q0 -78 -51 -128t-129 -50t-128 50t-50 128v882q0 205 139.5 344.5t343.5 139.5q195 0 338.5 -133t143.5 -326l2 -1053q0 -53 35.5 -89t89.5 -36h8
q78 0 129 -51t51 -129t-51 -128t-129 -50z" />
    <glyph glyph-name="O" unicode="O" horiz-adv-x="1574" 
d="M843 -63q-325 0 -549.5 224t-224.5 550q0 325 224.5 549.5t549.5 224.5q326 0 550 -224.5t224 -549.5q0 -326 -224 -550t-550 -224zM843 1126q-178 0 -297 -118.5t-119 -296.5q0 -176 120 -296t296 -120t296 120t120 296t-120 295.5t-296 119.5z" />
    <glyph glyph-name="P" unicode="P" 
d="M632 356q-78 0 -128 51.5t-50 129.5q0 77 50 127.5t128 50.5q86 0 146.5 60.5t60.5 146.5t-60.5 145t-146.5 59t-145.5 -59t-59.5 -145v-803q0 -78 -51 -128t-129 -50q-76 0 -127 51t-51 127v803q0 239 162 401t401 162q240 0 402.5 -162t162.5 -401q0 -240 -162.5 -403
t-402.5 -163z" />
    <glyph glyph-name="Q" unicode="Q" horiz-adv-x="1572" 
d="M462 881h90q205 0 343.5 -139.5t138.5 -344.5v-57q104 51 164.5 151.5t60.5 219.5q0 176 -120 295.5t-296 119.5q-127 0 -229.5 -65.5t-151.5 -179.5zM647 254q0 -76 -53.5 -130t-129.5 -54q-59 0 -114 45q-281 229 -281 596q0 325 224.5 549.5t549.5 224.5
q326 0 550 -224.5t224 -549.5q0 -269 -161.5 -478.5t-421.5 -271.5l2 -317q0 -76 -52.5 -127.5t-128.5 -51.5q-75 0 -126.5 51.5t-51.5 127.5l-2 753q0 49 -34.5 87t-84.5 38h-86q23 -39 113 -135q64 -68 64 -133z" />
    <glyph glyph-name="R" unicode="R" 
d="M817 387q24 -88 116 -88q80 0 131.5 -50t51.5 -130q0 -78 -51.5 -128t-129.5 -50q-207 0 -344 138t-137 345v113q0 71 53.5 124.5t124.5 53.5q86 0 146.5 60.5t60.5 146.5t-60.5 145t-146.5 59t-145.5 -59t-59.5 -145v-803q0 -78 -51 -128t-129 -50q-76 0 -127 51
t-51 127v803q0 239 162 401t401 162q240 0 402.5 -162t162.5 -401q0 -183 -104 -329.5t-276 -205.5z" />
    <glyph glyph-name="S" unicode="S" horiz-adv-x="909" 
d="M687 1042l3 -661q0 -186 -129.5 -314t-313.5 -128q-78 0 -128 50t-50 128q0 80 51 130t131 50t80 84l-2 661q0 189 128 316t314 127q78 0 129.5 -50.5t51.5 -127.5q0 -78 -52 -129q-38 -39 -141 -54q-72 -10 -72 -82z" />
    <glyph glyph-name="T" unicode="T" horiz-adv-x="1038" 
d="M898 1126h-149v-1007q0 -78 -50 -128t-128 -50t-129.5 50t-51.5 128v1007h-139q-78 0 -129 51.5t-51 129.5q0 77 51 127.5t129 50.5h647q78 0 129.5 -50.5t51.5 -127.5q0 -78 -51.5 -129.5t-129.5 -51.5z" />
    <glyph glyph-name="U" unicode="U" horiz-adv-x="995" 
d="M552 -59q-207 0 -345 138t-138 345v883q0 77 50 127.5t128 50.5t129 -50.5t51 -127.5v-883q0 -53 36 -89t89 -36q54 0 88.5 36t34.5 89v885q0 75 52.5 127.5t127.5 52.5q78 0 128.5 -51.5t50.5 -128.5v-885q0 -205 -138.5 -344t-343.5 -139z" />
    <glyph glyph-name="V" unicode="V" horiz-adv-x="1026" 
d="M1151 1247l-409 -1188q-49 -143 -170 -143t-170 143l-412 1188q-10 29 -10 64q0 75 54.5 125.5t129.5 50.5q125 0 166 -121l242 -700l242 700q40 121 165 121q76 0 130.5 -50.5t54.5 -125.5q0 -29 -13 -64z" />
    <glyph glyph-name="W" unicode="W" horiz-adv-x="1564" 
d="M1122 -59q-160 0 -285 92q-125 -92 -285 -92q-207 0 -345 138t-138 345v883q0 77 51 127.5t129 50.5t128 -50.5t50 -127.5v-883q0 -53 36 -89t89 -36q52 0 86 35v973q0 77 51.5 127.5t129.5 50.5q77 0 127.5 -50.5t50.5 -127.5v-883q0 -53 35.5 -89t89.5 -36q53 0 89 36
t36 89v883q0 77 50 127.5t128 50.5t129 -50.5t51 -127.5v-883q0 -205 -139.5 -344t-343.5 -139z" />
    <glyph glyph-name="X" unicode="X" horiz-adv-x="995" 
d="M855 -59q-75 0 -127.5 51t-52.5 127v278q0 52 -35.5 88.5t-87.5 36.5q-53 0 -89 -35.5t-36 -89.5v-278q0 -78 -51 -128t-129 -50t-128 50t-50 128v278q0 178 113 312q-113 133 -113 309v289q0 77 50 127.5t128 50.5t129 -50.5t51 -127.5v-289q0 -53 36 -88t89 -35
q52 0 87.5 36t35.5 87v289q0 75 52.5 126.5t127.5 51.5q78 0 128.5 -50.5t50.5 -127.5v-289q0 -176 -113 -309q113 -134 113 -312v-278q0 -78 -50.5 -128t-128.5 -50z" />
    <glyph glyph-name="Y" unicode="Y" horiz-adv-x="995" 
d="M552 -59q-207 0 -345 138t-138 345v20q0 78 50 128.5t128 50.5t129 -50.5t51 -128.5v-20q0 -53 36 -89t89 -36q54 0 88.5 36t34.5 89v229q-59 -16 -123 -16q-207 0 -345 138t-138 345v187q0 77 50 127.5t128 50.5t129 -50.5t51 -127.5v-187q0 -53 36 -89t89 -36
q54 0 88.5 36t34.5 89v187q0 75 52.5 126.5t127.5 51.5q78 0 128.5 -50.5t50.5 -127.5v-883q0 -205 -138.5 -344t-343.5 -139z" />
    <glyph glyph-name="Z" unicode="Z" horiz-adv-x="980" 
d="M987 1217l-538 -918h393q78 0 128 -51t50 -129t-50 -128t-128 -50h-707q-77 0 -129 39q-57 43 -57 118q0 58 33 113l538 915h-272q-78 0 -128 51.5t-50 129.5q0 77 50 127.5t128 50.5h586q78 0 129 -39q59 -43 59 -119q0 -51 -35 -110z" />
    <glyph glyph-name="bracketleft" unicode="[" horiz-adv-x="780" 
d="M642 -469h-90q-204 0 -343.5 139.5t-139.5 343.5v1219q0 205 139.5 344t343.5 139h90q78 0 128.5 -51t50.5 -129t-50.5 -128t-128.5 -50h-90q-53 0 -89 -36t-36 -89v-1219q0 -53 36 -89t89 -36h90q78 0 128.5 -51t50.5 -129t-50.5 -128t-128.5 -50z" />
    <glyph glyph-name="backslash" unicode="\" horiz-adv-x="739" 
d="M680 -272q-121 0 -164 118l-551 1543q-10 28 -10 65q0 78 53 127t131 49q121 0 164 -121l551 -1540q10 -28 10 -67q0 -76 -54 -125t-130 -49z" />
    <glyph glyph-name="bracketright" unicode="]" horiz-adv-x="780" 
d="M337 -469h-90q-78 0 -129 50t-51 128t51 129t129 51h90q54 0 89.5 36t35.5 89v1219q0 51 -36.5 88t-88.5 37h-90q-78 0 -129 50t-51 128t51 129t129 51h90q203 0 343.5 -140t140.5 -343v-1219q0 -204 -139.5 -343.5t-344.5 -139.5z" />
    <glyph glyph-name="asciicircum" unicode="^" horiz-adv-x="796" 
d="M653 911q-58 0 -111 43q-8 4 -88 84q-80 -80 -88 -84q-53 -43 -111 -43q-73 0 -127.5 54.5t-54.5 128.5q0 69 55 125q148 147 187 182q80 72 139 72q61 0 141 -72q27 -25 187 -182q55 -56 55 -125q0 -76 -54.5 -129.5t-129.5 -53.5z" />
    <glyph glyph-name="underscore" unicode="_" horiz-adv-x="1169" 
d="M1023 -41h-768q-78 0 -129 51t-51 129t51 128t129 50h768q78 0 128 -50t50 -128t-50 -129t-128 -51z" />
    <glyph glyph-name="grave" unicode="`" horiz-adv-x="536" 
d="M444 840q-43 -19 -82 -19q-137 0 -192 129q-21 45 -62 133q-51 119 -51 181q0 92 58.5 151.5t150.5 59.5q137 0 194 -129q23 -46 64 -136q49 -116 49 -178q0 -137 -129 -192z" />
    <glyph glyph-name="a" unicode="a" 
d="M1017 -59q-78 0 -128 50t-50 128v383q0 86 -60.5 145.5t-146.5 59.5t-145.5 -59.5t-59.5 -145.5t59.5 -146.5t145.5 -60.5q78 0 129 -50t51 -128t-51 -129t-129 -51q-239 0 -401 162.5t-162 402.5q0 239 162 401t401 162q240 0 402.5 -162t162.5 -401v-383
q0 -78 -51 -128t-129 -50z" />
    <glyph glyph-name="b" unicode="b" 
d="M632 -59q-237 0 -400 162.5t-163 400.5v803q0 75 51 126.5t127 51.5q78 0 129 -50.5t51 -127.5v-803q0 -86 59.5 -145.5t145.5 -59.5t146.5 59.5t60.5 145.5t-60.5 146.5t-146.5 60.5q-78 0 -128 50t-50 128t50 129t128 51q240 0 402.5 -163t162.5 -402
q0 -238 -163.5 -400.5t-401.5 -162.5z" />
    <glyph glyph-name="c" unicode="c" horiz-adv-x="772" 
d="M632 -59q-237 0 -400 162.5t-163 400.5q0 239 162 402t401 163q78 0 129 -51t51 -129t-51 -128t-129 -50q-86 0 -145.5 -60.5t-59.5 -146.5t59.5 -145.5t145.5 -59.5q78 0 129 -51t51 -129t-51 -128t-129 -50z" />
    <glyph glyph-name="d" unicode="d" 
d="M632 -59q-237 0 -400 162.5t-163 400.5q0 239 162 402t401 163q78 0 129 -51t51 -129t-51 -128t-129 -50q-86 0 -145.5 -60.5t-59.5 -146.5t59.5 -145.5t145.5 -59.5t146.5 59.5t60.5 145.5v803q0 75 51 126.5t127 51.5q78 0 129 -50.5t51 -127.5v-803
q0 -238 -163.5 -400.5t-401.5 -162.5z" />
    <glyph glyph-name="e" unicode="e" horiz-adv-x="1052" 
d="M585 702q-70 -16 -114 -72.5t-44 -127.5q0 -86 59.5 -146.5t145.5 -60.5h182q78 0 128.5 -50t50.5 -128t-50.5 -129t-128.5 -51h-182q-239 0 -401 162.5t-162 402.5q0 239 162 401t401 162q242 0 408 -172q53 -55 53 -123q0 -86 -74 -143l-260 -254q-57 -56 -125 -56
q-76 0 -129 54.5t-53 130.5q0 57 45 112z" />
    <glyph glyph-name="f" unicode="f" horiz-adv-x="997" 
d="M864 391h-437v-272q0 -78 -51 -128t-129 -50t-128 50t-50 128v882q0 207 138 345.5t345 138.5q205 0 343.5 -139.5t138.5 -344.5v-14q0 -78 -50.5 -129t-128.5 -51q-75 0 -127.5 52t-52.5 128v14q0 54 -34.5 89.5t-88.5 35.5q-53 0 -89 -35.5t-36 -89.5v-251h437
q77 0 127.5 -51.5t50.5 -129.5q0 -77 -50.5 -127.5t-127.5 -50.5z" />
    <glyph glyph-name="g" unicode="g" 
d="M632 -1233q-237 0 -400 163t-163 400q0 238 162 402t399 164h178q29 0 29 30v576q0 86 -59.5 145.5t-145.5 59.5t-145.5 -59.5t-59.5 -145.5t59.5 -146.5t145.5 -60.5q78 0 129 -50t51 -128t-51 -129t-129 -51q-239 0 -401 162.5t-162 402.5q0 239 162 401t401 162
q240 0 401.5 -162t161.5 -401v-576q0 -164 -112.5 -276.5t-274.5 -112.5h-176q-86 0 -145.5 -60.5t-59.5 -146.5t59.5 -145t145.5 -59t145.5 58t59.5 142t49 170q55 96 131 96q78 0 131 -96q47 -82 47 -166q0 -237 -162.5 -400t-400.5 -163z" />
    <glyph glyph-name="h" unicode="h" horiz-adv-x="995" 
d="M1169 -510h-8q-207 0 -345.5 139.5t-138.5 343.5l-2 611q0 51 -35.5 87t-87.5 36q-53 0 -89 -35t-36 -88v-465q0 -78 -51 -128t-129 -50t-128 50t-50 128v1188q0 77 50 127.5t128 50.5t129 -50.5t51 -127.5v-258q60 16 125 16q205 0 344.5 -138.5t139.5 -342.5v-611
q0 -53 35.5 -89t89.5 -36h8q78 0 128 -51t50 -129t-50 -128t-128 -50z" />
    <glyph glyph-name="i" unicode="i" horiz-adv-x="389" 
d="M247 1081q-88 0 -149.5 61.5t-61.5 149.5t61.5 149.5t149.5 61.5t149.5 -61.5t61.5 -149.5t-61.5 -149.5t-149.5 -61.5zM247 -59q-78 0 -128 50t-50 128v768q0 78 50 128t128 50q80 0 130 -49t50 -129v-768q0 -78 -51 -128t-129 -50z" />
    <glyph glyph-name="j" unicode="j" horiz-adv-x="387" 
d="M249 1081q-89 0 -150 61.5t-61 149.5t61 149.5t150 61.5q88 0 149 -61.5t61 -149.5t-61 -149.5t-149 -61.5zM-55 -510h-8q-78 0 -129 50t-51 128t51 129t129 51h8q54 0 89.5 36t35.5 89v914q0 78 50.5 128t128.5 50q79 0 129.5 -49t50.5 -129v-914q0 -204 -139.5 -343.5
t-344.5 -139.5z" />
    <glyph glyph-name="k" unicode="k" horiz-adv-x="962" 
d="M1136 -510h-8q-205 0 -344.5 139.5t-139.5 343.5v242q0 53 -35.5 88t-88.5 35h-93v-219q0 -78 -51 -128t-129 -50t-128 50t-50 128v1184q0 77 50 128.5t128 51.5t129 -51.5t51 -128.5v-539q172 -6 172 119q0 82 48.5 132t130.5 50q77 0 128.5 -50t51.5 -128
q0 -180 -117 -314q162 -139 162 -358v-242q0 -53 36 -89t89 -36h8q78 0 129 -51t51 -129t-51 -128t-129 -50z" />
    <glyph glyph-name="l" unicode="l" horiz-adv-x="387" 
d="M247 -59q-78 0 -128 50t-50 128v1184q0 77 50 127.5t128 50.5q80 0 130 -49.5t50 -128.5v-1184q0 -78 -51 -128t-129 -50z" />
    <glyph glyph-name="m" unicode="m" horiz-adv-x="1568" 
d="M1740 -510h-8q-205 0 -344 139.5t-139 343.5v611q0 51 -36 87t-87 36q-56 0 -90 -37v-551q0 -78 -51.5 -128t-129.5 -50q-77 0 -127.5 50t-50.5 128v465q0 51 -36.5 87t-88.5 36q-53 0 -89 -35t-36 -88v-465q0 -78 -50 -128t-128 -50t-129 50t-51 128v465
q0 204 139.5 342.5t343.5 138.5q160 0 287 -94q125 94 287 94q205 0 343 -138.5t138 -342.5v-611q0 -53 36 -89t89 -36h8q78 0 129 -51t51 -129t-51 -128t-129 -50z" />
    <glyph glyph-name="n" unicode="n" horiz-adv-x="995" 
d="M1169 -510h-8q-207 0 -345.5 138.5t-138.5 344.5v97l-2 514q0 51 -35.5 87t-87.5 36q-53 0 -89 -35t-36 -88v-465q0 -78 -51 -128t-129 -50t-128 50t-50 128v465q0 204 139.5 342.5t343.5 138.5q205 0 344.5 -138.5t139.5 -342.5v-611q0 -53 35.5 -89t89.5 -36h8
q78 0 129 -51t51 -129t-51 -128t-129 -50z" />
    <glyph glyph-name="o" unicode="o" horiz-adv-x="1159" 
d="M632 -63q-239 0 -401 162.5t-162 402.5q0 239 162 401t401 162q240 0 402.5 -162t162.5 -401q0 -240 -162.5 -402.5t-402.5 -162.5zM632 707q-86 0 -145.5 -59.5t-59.5 -145.5t59.5 -146.5t145.5 -60.5t146.5 60.5t60.5 146.5t-60.5 145.5t-146.5 59.5z" />
    <glyph glyph-name="p" unicode="p" 
d="M632 -63q-78 0 -128 51t-50 129t50 128t128 50q86 0 146.5 60.5t60.5 146.5t-60.5 145.5t-146.5 59.5t-145.5 -59.5t-59.5 -145.5v-801q0 -78 -51 -129t-129 -51t-128 51t-50 129v801q0 239 162 401t401 162q240 0 402.5 -162t162.5 -401q0 -240 -162.5 -402.5
t-402.5 -162.5z" />
    <glyph glyph-name="q" unicode="q" 
d="M1017 -479q-78 0 -128 51t-50 129v801q0 86 -60.5 145.5t-146.5 59.5t-145.5 -59.5t-59.5 -145.5t59.5 -146.5t145.5 -60.5q78 0 129 -50t51 -128t-51 -129t-129 -51q-239 0 -401 162.5t-162 402.5q0 239 162 401t401 162q240 0 402.5 -162t162.5 -401v-801
q0 -78 -51 -129t-129 -51z" />
    <glyph glyph-name="r" unicode="r" horiz-adv-x="690" 
d="M569 711q-142 -25 -142 -127v-465q0 -78 -51 -128t-129 -50t-128 50t-50 128v465q0 204 139.5 342.5t343.5 138.5q76 0 127.5 -51t51.5 -127q0 -72 -42 -118t-120 -58z" />
    <glyph glyph-name="s" unicode="s" horiz-adv-x="913" 
d="M776 707q-35 0 -59.5 -25t-24.5 -59q-2 -263 -7 -293q-22 -154 -124 -258q-127 -129 -314 -129q-78 0 -128 50t-50 128q0 80 51 130t131 50t80 84q0 -20 2 64v61v113q0 188 127 315t316 127q77 0 128.5 -50t51.5 -128q0 -76 -52.5 -128t-127.5 -52z" />
    <glyph glyph-name="t" unicode="t" horiz-adv-x="995" 
d="M552 -59q-207 0 -345 138t-138 345v704q0 78 50 129.5t128 51.5t129 -51.5t51 -129.5v-67h428q78 0 128.5 -50t50.5 -128q0 -80 -49.5 -130.5t-129.5 -50.5h-428v-278q0 -53 36 -89t89 -36q54 0 88.5 36t34.5 89v18q0 76 52.5 127.5t127.5 51.5q76 0 127.5 -51.5
t51.5 -127.5v-18q0 -205 -138.5 -344t-343.5 -139z" />
    <glyph glyph-name="u" unicode="u" horiz-adv-x="995" 
d="M552 -59q-207 0 -345 138t-138 345v459q0 78 50 129t128 51t129 -51t51 -129v-459q0 -53 36 -89t89 -36q54 0 88.5 36t34.5 89v463q0 78 51.5 128t128.5 50q78 0 128.5 -50t50.5 -128v-463q0 -205 -138.5 -344t-343.5 -139z" />
    <glyph glyph-name="v" unicode="v" horiz-adv-x="909" 
d="M970 823l-297 -768q-53 -137 -168 -137t-168 137l-297 768q-12 33 -12 68q0 76 54.5 126t129.5 50q119 0 164 -117l129 -336l129 336q45 117 164 117q76 0 130 -50t54 -126q0 -35 -12 -68z" />
    <glyph glyph-name="w" unicode="w" horiz-adv-x="1568" 
d="M1126 -55q-162 0 -287 94q-127 -94 -287 -94q-207 0 -345 138t-138 345v463q0 80 50 129t130 49q78 0 128 -50t50 -128v-463q0 -53 36 -89t89 -36q54 0 89.5 36t35.5 89v463q0 78 50.5 128t127.5 50q80 0 130.5 -49t50.5 -129v-551q34 -37 90 -37q53 0 88 36t35 89v463
q0 78 51 128t129 50t128 -50t50 -128v-463q0 -205 -138 -344t-343 -139z" />
    <glyph glyph-name="x" unicode="x" horiz-adv-x="997" 
d="M855 -59q-75 0 -127.5 51t-52.5 127v53q0 51 -35.5 88t-87.5 37q-53 0 -89 -36t-36 -89v-53q0 -78 -51 -128t-129 -50t-128 50t-50 128v53q0 195 131 332q-131 135 -131 330v53q0 78 50 128t128 50q80 0 130 -49t50 -129v-53q0 -54 36 -88.5t89 -34.5q52 0 87.5 35.5
t35.5 87.5v53q0 78 51.5 128t128.5 50q78 0 128.5 -50t50.5 -128v-53q0 -195 -131 -330q131 -137 131 -332v-53q0 -78 -50.5 -128t-128.5 -50z" />
    <glyph glyph-name="y" unicode="y" horiz-adv-x="995" 
d="M673 -45q-57 -14 -121 -14q-207 0 -345 138t-138 345v463q0 78 50 128t128 50q80 0 130 -49t50 -129v-463q0 -53 36 -89t89 -36q54 0 88.5 36t34.5 89v463q0 78 51.5 128t128.5 50q78 0 128.5 -50t50.5 -128v-914q0 -204 -139.5 -343.5t-344.5 -139.5h-8q-78 0 -129 50
t-51 128t51 129t129 51h8q45 0 81 31t42 76z" />
    <glyph glyph-name="z" unicode="z" horiz-adv-x="894" 
d="M807 578q-84 -101 -242 -279h189q78 0 128 -51t50 -129q0 -76 -51 -127t-127 -51h-574q-190 0 -190 133q0 116 199 354q55 66 243 279h-184q-76 0 -127 52t-51 128q0 78 50 128t128 50h569q189 0 189 -131q0 -117 -199 -356z" />
    <glyph glyph-name="braceleft" unicode="{" horiz-adv-x="780" 
d="M642 -469h-90q-204 0 -343.5 139.5t-139.5 343.5v1219q0 205 139.5 344t343.5 139h90q78 0 128.5 -51t50.5 -129t-50.5 -128t-128.5 -50h-90q-53 0 -89 -36t-36 -89v-1219q0 -53 36 -89t89 -36h90q78 0 128.5 -51t50.5 -129t-50.5 -128t-128.5 -50z" />
    <glyph glyph-name="bar" unicode="|" horiz-adv-x="387" 
d="M247 -264q-78 0 -128 50t-50 128v1597q0 78 50 128.5t128 50.5t129 -50.5t51 -128.5v-1597q0 -78 -51 -128t-129 -50z" />
    <glyph glyph-name="braceright" unicode="}" horiz-adv-x="780" 
d="M337 -469h-90q-78 0 -129 50t-51 128t51 129t129 51h90q54 0 89.5 36t35.5 89v1219q0 51 -36.5 88t-88.5 37h-90q-78 0 -129 50t-51 128t51 129t129 51h90q203 0 343.5 -140t140.5 -343v-1219q0 -204 -139.5 -343.5t-344.5 -139.5z" />
    <glyph glyph-name="asciitilde" unicode="~" horiz-adv-x="804" 
d="M548 1413q50 45 113 45q76 0 130 -53t54 -129q0 -90 -87 -159.5t-181 -69.5q-84 0 -219 71q-51 -47 -117 -47q-73 0 -127.5 54.5t-54.5 127.5q0 93 90 162q84 68 178 68q64 0 221 -70z" />
    <glyph glyph-name="dieresis" unicode="&#xa8;" horiz-adv-x="1024" 
 />
    <glyph glyph-name="copyright" unicode="&#xa9;" horiz-adv-x="1574" 
d="M1617 711q0 -326 -224 -550t-550 -224q-325 0 -549.5 224t-224.5 550q0 325 224.5 549.5t549.5 224.5q326 0 550 -224.5t224 -549.5zM974 414q0 -111 -108 -111q-174 0 -291 117t-117 291t117 290.5t291 116.5q108 0 108 -110q0 -109 -108 -109q-80 0 -134.5 -54
t-54.5 -134t54.5 -133.5t134.5 -53.5q108 0 108 -110zM843 1188q-205 0 -341 -136.5t-136 -340.5q0 -203 137 -340.5t340 -137.5t340 137.5t137 340.5q0 202 -137 339.5t-340 137.5z" />
    <glyph glyph-name="registered" unicode="&#xae;" horiz-adv-x="1574" 
d="M1617 711q0 -326 -224 -550t-550 -224q-325 0 -549.5 224t-224.5 550q0 325 224.5 549.5t549.5 224.5q326 0 550 -224.5t224 -549.5zM1140 817q0 -92 -50 -169t-134 -109q8 -13 33 -13q110 0 110 -110q0 -111 -110 -111q-111 0 -189 78t-74 186q2 60 5 70q8 39 37.5 67.5
t66.5 28.5t61.5 23.5t24.5 58.5t-24.5 58.5t-59.5 23.5t-58.5 -23.5t-23.5 -58.5v-401q0 -109 -111 -109q-108 0 -108 109v401q0 127 87 215t214 88t215 -88t88 -215zM843 1188q-205 0 -341 -136.5t-136 -340.5q0 -203 137 -340.5t340 -137.5t340 137.5t137 340.5
q0 202 -137 339.5t-340 137.5z" />
    <glyph glyph-name="acute" unicode="&#xb4;" horiz-adv-x="1024" 
 />
    <glyph glyph-name="paragraph" unicode="&#xb6;" horiz-adv-x="1024" 
d="M929 1435v-70h-127v-1365h-82v1365h-166v-1365h-84v738q-174 8 -275.5 102.5t-101.5 245.5q0 157 107.5 253t285.5 96h443z" />
    <glyph glyph-name="onequarter" unicode="&#xbc;" horiz-adv-x="1298" 
 />
    <glyph glyph-name="onehalf" unicode="&#xbd;" horiz-adv-x="1320" 
 />
    <glyph glyph-name="threequarters" unicode="&#xbe;" horiz-adv-x="1288" 
 />
    <glyph glyph-name="Agrave" unicode="&#xc0;" 
d="M1331 -510h-11q-204 0 -342.5 139.5t-138.5 343.5v422q-98 -39 -207 -39q-78 0 -128 51.5t-50 129.5q0 77 50 127.5t128 50.5q86 0 146.5 60.5t60.5 146.5t-60.5 145t-146.5 59t-145.5 -59t-59.5 -145v-803q0 -78 -51 -128t-129 -50t-128 50t-50 128v803q0 239 162 401
t401 162q240 0 402.5 -162t162.5 -401v-949q0 -53 35 -89t88 -36h11q77 0 127.5 -51t50.5 -129q0 -76 -51.5 -127t-126.5 -51zM690 1516q-43 -19 -82 -19q-138 0 -193 129q-20 45 -61 133q-52 119 -52 180q0 93 58.5 152t150.5 59q138 0 195 -129q22 -45 63 -135
q50 -117 50 -178q0 -137 -129 -192z" />
    <glyph glyph-name="Aacute" unicode="&#xc1;" 
d="M884 1860l-96 -234q-53 -129 -195 -129q-88 0 -148.5 61.5t-60.5 149.5q0 61 50 178q22 45 63 135q57 129 193 129q92 0 151 -59t59 -152q0 -41 -16 -79zM1331 -510h-11q-204 0 -342.5 139.5t-138.5 343.5v422q-98 -39 -207 -39q-78 0 -128 51.5t-50 129.5q0 77 50 127.5
t128 50.5q86 0 146.5 60.5t60.5 146.5t-60.5 145t-146.5 59t-145.5 -59t-59.5 -145v-803q0 -78 -51 -128t-129 -50t-128 50t-50 128v803q0 239 162 401t401 162q240 0 402.5 -162t162.5 -401v-949q0 -53 35 -89t88 -36h11q77 0 127.5 -51t50.5 -129q0 -76 -51.5 -127
t-126.5 -51z" />
    <glyph glyph-name="Acircumflex" unicode="&#xc2;" 
d="M1331 -510h-11q-204 0 -342.5 139.5t-138.5 343.5v422q-98 -39 -207 -39q-78 0 -128 51.5t-50 129.5q0 77 50 127.5t128 50.5q86 0 146.5 60.5t60.5 146.5t-60.5 145t-146.5 59t-145.5 -59t-59.5 -145v-803q0 -78 -51 -128t-129 -50t-128 50t-50 128v803q0 239 162 401
t401 162q240 0 402.5 -162t162.5 -401v-949q0 -53 35 -89t88 -36h11q77 0 127.5 -51t50.5 -129q0 -76 -51.5 -127t-126.5 -51zM857 1505q-57 0 -110 43q-8 4 -88 84q-80 -80 -88 -84q-53 -43 -111 -43q-74 0 -128 54.5t-54 128.5q0 69 55 124q148 148 187 183q79 71 139 71
q61 0 141 -71q27 -25 187 -183q55 -55 55 -124q0 -76 -54.5 -129.5t-130.5 -53.5z" />
    <glyph glyph-name="Atilde" unicode="&#xc3;" 
d="M1331 -510h-11q-204 0 -342.5 139.5t-138.5 343.5v422q-98 -39 -207 -39q-78 0 -128 51.5t-50 129.5q0 77 50 127.5t128 50.5q86 0 146.5 60.5t60.5 146.5t-60.5 145t-146.5 59t-145.5 -59t-59.5 -145v-803q0 -78 -51 -128t-129 -50t-128 50t-50 128v803q0 239 162 401
t401 162q240 0 402.5 -162t162.5 -401v-949q0 -53 35 -89t88 -36h11q77 0 127.5 -51t50.5 -129q0 -76 -51.5 -127t-126.5 -51zM733 1884q49 45 112 45q76 0 130.5 -53t54.5 -129q0 -90 -87.5 -159.5t-181.5 -69.5q-84 0 -219 71q-51 -47 -117 -47q-73 0 -127.5 54.5
t-54.5 127.5q0 93 90 162q84 68 178 68q64 0 222 -70z" />
    <glyph glyph-name="Egrave" unicode="&#xc8;" horiz-adv-x="974" 
d="M843 -63q-325 0 -549.5 224t-224.5 550q0 325 224.5 549.5t549.5 224.5q78 0 129 -50.5t51 -127.5q0 -78 -51 -129.5t-129 -51.5q-119 0 -219 -61t-152 -166h371q78 0 129 -50t51 -128t-51 -129t-129 -51h-379q49 -113 152.5 -179.5t226.5 -66.5q78 0 129 -51t51 -129
t-51 -128t-129 -50zM690 1516q-43 -19 -82 -19q-138 0 -193 129q-20 45 -61 133q-52 119 -52 180q0 93 58.5 152t150.5 59q138 0 195 -129q22 -45 63 -135q50 -117 50 -178q0 -137 -129 -192z" />
    <glyph glyph-name="Eacute" unicode="&#xc9;" horiz-adv-x="974" 
d="M843 1860l-96 -234q-53 -129 -195 -129q-88 0 -148.5 61.5t-60.5 149.5q0 61 50 178q22 45 63 135q57 129 193 129q92 0 151.5 -59t59.5 -152q0 -41 -17 -79zM843 -63q-325 0 -549.5 224t-224.5 550q0 325 224.5 549.5t549.5 224.5q78 0 129 -50.5t51 -127.5
q0 -78 -51 -129.5t-129 -51.5q-119 0 -219 -61t-152 -166h371q78 0 129 -50t51 -128t-51 -129t-129 -51h-379q49 -113 152.5 -179.5t226.5 -66.5q78 0 129 -51t51 -129t-51 -128t-129 -50z" />
    <glyph glyph-name="Ecircumflex" unicode="&#xca;" horiz-adv-x="974" 
d="M843 -63q-325 0 -549.5 224t-224.5 550q0 325 224.5 549.5t549.5 224.5q78 0 129 -50.5t51 -127.5q0 -78 -51 -129.5t-129 -51.5q-119 0 -219 -61t-152 -166h371q78 0 129 -50t51 -128t-51 -129t-129 -51h-379q49 -113 152.5 -179.5t226.5 -66.5q78 0 129 -51t51 -129
t-51 -128t-129 -50zM837 1505q-57 0 -111 43q-8 4 -88 84q-80 -80 -88 -84q-53 -43 -110 -43q-74 0 -128.5 54.5t-54.5 128.5q0 69 56 124q147 148 186 183q80 71 139 71q62 0 142 -71q26 -25 186 -183q55 -55 55 -124q0 -76 -54 -129.5t-130 -53.5z" />
    <glyph glyph-name="Igrave" unicode="&#xcc;" horiz-adv-x="387" 
d="M248 -59q-78 0 -128 50t-50 128v1188q0 77 50 127.5t128 50.5t129 -50.5t51 -127.5v-1188q0 -78 -51 -128t-129 -50zM342 1516q-43 -19 -82 -19q-137 0 -192 129q-21 45 -62 133q-51 119 -51 180q0 93 58.5 152t150.5 59q137 0 194 -129q23 -45 64 -135q49 -117 49 -178
q0 -137 -129 -192z" />
    <glyph glyph-name="Iacute" unicode="&#xcd;" horiz-adv-x="387" 
d="M476 1860l-97 -234q-53 -129 -194 -129q-88 0 -148.5 61.5t-60.5 149.5q0 61 49 178q23 45 64 135q57 129 192 129q92 0 151.5 -59t59.5 -152q0 -41 -16 -79zM248 -59q-77 0 -127.5 50t-50.5 128v1188q0 77 50.5 127.5t127.5 50.5q78 0 129.5 -50.5t51.5 -127.5v-1188
q0 -78 -51.5 -128t-129.5 -50z" />
    <glyph glyph-name="Ograve" unicode="&#xd2;" horiz-adv-x="1574" 
d="M843 -63q-325 0 -549.5 224t-224.5 550q0 325 224.5 549.5t549.5 224.5q326 0 550 -224.5t224 -549.5q0 -326 -224 -550t-550 -224zM843 1126q-178 0 -297 -118.5t-119 -296.5q0 -176 120 -296t296 -120t296 120t120 296t-120 295.5t-296 119.5zM894 1516
q-43 -19 -82 -19q-137 0 -192 129q-21 45 -62 133q-51 119 -51 180q0 93 58.5 152t150.5 59q137 0 195 -129q22 -45 63 -135q49 -117 49 -178q0 -137 -129 -192z" />
    <glyph glyph-name="Oacute" unicode="&#xd3;" horiz-adv-x="1574" 
d="M1089 1860l-96 -234q-54 -129 -195 -129q-88 0 -148.5 61.5t-60.5 149.5q0 61 49 178q23 45 64 135q57 129 192 129q93 0 152 -59t59 -152q0 -41 -16 -79zM843 -63q-325 0 -549.5 224t-224.5 550q0 325 224.5 549.5t549.5 224.5q326 0 550 -224.5t224 -549.5
q0 -326 -224 -550t-550 -224zM843 1126q-178 0 -297 -118.5t-119 -296.5q0 -176 120 -296t296 -120t296 120t120 296t-120 295.5t-296 119.5z" />
    <glyph glyph-name="Ocircumflex" unicode="&#xd4;" horiz-adv-x="1574" 
d="M843 -63q-325 0 -549.5 224t-224.5 550q0 325 224.5 549.5t549.5 224.5q326 0 550 -224.5t224 -549.5q0 -326 -224 -550t-550 -224zM843 1126q-178 0 -297 -118.5t-119 -296.5q0 -176 120 -296t296 -120t296 120t120 296t-120 295.5t-296 119.5zM1062 1505q-57 0 -110 43
q-9 4 -88 84q-80 -80 -88 -84q-54 -43 -111 -43q-74 0 -128 54.5t-54 128.5q0 69 55 124q147 148 186 183q80 71 140 71q61 0 141 -71q27 -25 186 -183q56 -55 56 -124q0 -76 -54.5 -129.5t-130.5 -53.5z" />
    <glyph glyph-name="Otilde" unicode="&#xd5;" horiz-adv-x="1574" 
d="M843 -63q-325 0 -549.5 224t-224.5 550q0 325 224.5 549.5t549.5 224.5q326 0 550 -224.5t224 -549.5q0 -326 -224 -550t-550 -224zM843 1126q-178 0 -297 -118.5t-119 -296.5q0 -176 120 -296t296 -120t296 120t120 296t-120 295.5t-296 119.5zM958 1884q49 45 112 45
q76 0 130.5 -53t54.5 -129q0 -90 -87 -159.5t-181 -69.5q-84 0 -220 71q-51 -47 -116 -47q-74 0 -128.5 54.5t-54.5 127.5q0 93 90 162q84 68 179 68q63 0 221 -70z" />
    <glyph glyph-name="Ugrave" unicode="&#xd9;" horiz-adv-x="995" 
d="M552 -59q-207 0 -345 138t-138 345v883q0 77 50 127.5t128 50.5t129 -50.5t51 -127.5v-883q0 -53 36 -89t89 -36q54 0 88.5 36t34.5 89v885q0 75 52.5 127.5t127.5 52.5q78 0 128.5 -51.5t50.5 -128.5v-885q0 -205 -138.5 -344t-343.5 -139zM690 1516q-43 -19 -82 -19
q-138 0 -193 129q-20 45 -61 133q-52 119 -52 180q0 93 58.5 152t150.5 59q138 0 195 -129q22 -45 63 -135q50 -117 50 -178q0 -137 -129 -192z" />
    <glyph glyph-name="Uacute" unicode="&#xda;" horiz-adv-x="995" 
d="M864 1860l-97 -234q-53 -129 -194 -129q-88 0 -148.5 61.5t-60.5 149.5q0 61 49 178q23 45 64 135q57 129 192 129q92 0 151.5 -59t59.5 -152q0 -41 -16 -79zM552 -59q-207 0 -345 138t-138 345v883q0 77 50 127.5t128 50.5t129 -50.5t51 -127.5v-883q0 -53 36 -89
t89 -36q54 0 88.5 36t34.5 89v885q0 75 52.5 127.5t127.5 52.5q78 0 128.5 -51.5t50.5 -128.5v-885q0 -205 -138.5 -344t-343.5 -139z" />
    <glyph glyph-name="Yacute" unicode="&#xdd;" horiz-adv-x="995" 
d="M552 -59q-207 0 -345 138t-138 345v20q0 78 50 128.5t128 50.5t129 -50.5t51 -128.5v-20q0 -53 36 -89t89 -36q54 0 88.5 36t34.5 89v229q-59 -16 -123 -16q-207 0 -345 138t-138 345v187q0 77 50 127.5t128 50.5t129 -50.5t51 -127.5v-187q0 -53 36 -89t89 -36
q54 0 88.5 36t34.5 89v187q0 75 52.5 126.5t127.5 51.5q78 0 128.5 -50.5t50.5 -127.5v-883q0 -205 -138.5 -344t-343.5 -139zM863 1860l-97 -234q-53 -129 -194 -129q-88 0 -148.5 61.5t-60.5 149.5q0 61 49 178q23 45 64 135q57 129 192 129q92 0 151.5 -59t59.5 -152
q0 -41 -16 -79z" />
    <glyph glyph-name="agrave" unicode="&#xe0;" 
d="M1017 -59q-78 0 -128 50t-50 128v383q0 86 -60.5 145.5t-146.5 59.5t-145.5 -59.5t-59.5 -145.5t59.5 -146.5t145.5 -60.5q78 0 129 -50t51 -128t-51 -129t-129 -51q-239 0 -401 162.5t-162 402.5q0 239 162 401t401 162q240 0 402.5 -162t162.5 -401v-383
q0 -78 -51 -128t-129 -50zM690 1106q-43 -19 -82 -19q-138 0 -193 130q-20 45 -61 133q-52 118 -52 180q0 92 58.5 151.5t150.5 59.5q138 0 195 -129q22 -45 63 -135q50 -117 50 -179q0 -137 -129 -192z" />
    <glyph glyph-name="aacute" unicode="&#xe1;" 
d="M884 1450l-96 -233q-53 -130 -195 -130q-88 0 -148.5 61.5t-60.5 149.5q0 62 50 179q22 45 63 135q57 129 193 129q92 0 151 -59.5t59 -151.5q0 -41 -16 -80zM1017 -59q-78 0 -128 50t-50 128v383q0 86 -60.5 145.5t-146.5 59.5t-145.5 -59.5t-59.5 -145.5t59.5 -146.5
t145.5 -60.5q78 0 129 -50t51 -128t-51 -129t-129 -51q-239 0 -401 162.5t-162 402.5q0 239 162 401t401 162q240 0 402.5 -162t162.5 -401v-383q0 -78 -51 -128t-129 -50z" />
    <glyph glyph-name="acircumflex" unicode="&#xe2;" 
d="M1017 -59q-78 0 -128 50t-50 128v383q0 86 -60.5 145.5t-146.5 59.5t-145.5 -59.5t-59.5 -145.5t59.5 -146.5t145.5 -60.5q78 0 129 -50t51 -128t-51 -129t-129 -51q-239 0 -401 162.5t-162 402.5q0 239 162 401t401 162q240 0 402.5 -162t162.5 -401v-383
q0 -78 -51 -128t-129 -50zM857 1096q-57 0 -110 43q-8 4 -88 84q-80 -80 -88 -84q-53 -43 -111 -43q-74 0 -128 54t-54 128q0 70 55 125q148 147 187 182q79 72 139 72q61 0 141 -72q27 -24 187 -182q55 -55 55 -125q0 -76 -54.5 -129t-130.5 -53z" />
    <glyph glyph-name="atilde" unicode="&#xe3;" 
d="M1017 -59q-78 0 -128 50t-50 128v383q0 86 -60.5 145.5t-146.5 59.5t-145.5 -59.5t-59.5 -145.5t59.5 -146.5t145.5 -60.5q78 0 129 -50t51 -128t-51 -129t-129 -51q-239 0 -401 162.5t-162 402.5q0 239 162 401t401 162q240 0 402.5 -162t162.5 -401v-383
q0 -78 -51 -128t-129 -50zM733 1475q49 45 112 45q76 0 130.5 -53.5t54.5 -129.5q0 -90 -87.5 -159.5t-181.5 -69.5q-84 0 -219 72q-51 -47 -117 -47q-73 0 -127.5 54t-54.5 128q0 92 90 162q84 67 178 67q64 0 222 -69z" />
    <glyph glyph-name="egrave" unicode="&#xe8;" horiz-adv-x="1052" 
d="M585 702q-70 -16 -114 -72.5t-44 -127.5q0 -86 59.5 -146.5t145.5 -60.5h182q78 0 128.5 -50t50.5 -128t-50.5 -129t-128.5 -51h-182q-239 0 -401 162.5t-162 402.5q0 239 162 401t401 162q242 0 408 -172q53 -55 53 -123q0 -86 -74 -143l-260 -254q-57 -56 -125 -56
q-76 0 -129 54.5t-53 130.5q0 57 45 112zM690 1106q-43 -19 -82 -19q-138 0 -193 130q-20 45 -61 133q-52 118 -52 180q0 92 58.5 151.5t150.5 59.5q138 0 195 -129q22 -45 63 -135q50 -117 50 -179q0 -137 -129 -192z" />
    <glyph glyph-name="eacute" unicode="&#xe9;" horiz-adv-x="1052" 
d="M884 1450l-96 -233q-53 -130 -195 -130q-88 0 -148.5 61.5t-60.5 149.5q0 62 50 179q22 45 63 135q57 129 193 129q92 0 151 -59.5t59 -151.5q0 -41 -16 -80zM585 702q-70 -16 -114 -72.5t-44 -127.5q0 -86 59.5 -146.5t145.5 -60.5h182q78 0 128.5 -50t50.5 -128
t-50.5 -129t-128.5 -51h-182q-239 0 -401 162.5t-162 402.5q0 239 162 401t401 162q242 0 408 -172q53 -55 53 -123q0 -86 -74 -143l-260 -254q-57 -56 -125 -56q-76 0 -129 54.5t-53 130.5q0 57 45 112z" />
    <glyph glyph-name="ecircumflex" unicode="&#xea;" horiz-adv-x="1052" 
d="M585 702q-70 -16 -114 -72.5t-44 -127.5q0 -86 59.5 -146.5t145.5 -60.5h182q78 0 128.5 -50t50.5 -128t-50.5 -129t-128.5 -51h-182q-239 0 -401 162.5t-162 402.5q0 239 162 401t401 162q242 0 408 -172q53 -55 53 -123q0 -86 -74 -143l-260 -254q-57 -56 -125 -56
q-76 0 -129 54.5t-53 130.5q0 57 45 112zM837 1096q-57 0 -111 43q-8 4 -88 84q-80 -80 -88 -84q-53 -43 -110 -43q-74 0 -128.5 54t-54.5 128q0 70 56 125q147 147 186 182q80 72 139 72q62 0 142 -72q26 -24 186 -182q55 -55 55 -125q0 -76 -54 -129t-130 -53z" />
    <glyph glyph-name="igrave" unicode="&#xec;" horiz-adv-x="389" 
d="M248 -59q-78 0 -128 50t-50 128v768q0 78 50 128t128 50q80 0 130.5 -49t50.5 -129v-768q0 -78 -51.5 -128t-129.5 -50zM281 1106q-43 -19 -82 -19q-137 0 -192 130q-21 45 -62 133q-51 118 -51 180q0 92 58.5 151.5t150.5 59.5q137 0 194 -129q23 -45 64 -135
q49 -117 49 -179q0 -137 -129 -192z" />
    <glyph glyph-name="iacute" unicode="&#xed;" horiz-adv-x="389" 
d="M496 1450l-97 -233q-53 -130 -194 -130q-88 0 -148.5 61.5t-60.5 149.5q0 62 49 179q23 45 64 135q57 129 192 129q92 0 151.5 -59.5t59.5 -151.5q0 -41 -16 -80zM248 -59q-78 0 -128 50t-50 128v768q0 78 50 128t128 50q80 0 130 -49t50 -129v-768q0 -78 -51 -128
t-129 -50z" />
    <glyph glyph-name="ograve" unicode="&#xf2;" horiz-adv-x="1159" 
d="M632 -63q-239 0 -401 162.5t-162 402.5q0 239 162 401t401 162q240 0 402.5 -162t162.5 -401q0 -240 -162.5 -402.5t-402.5 -162.5zM632 707q-86 0 -145.5 -59.5t-59.5 -145.5t59.5 -146.5t145.5 -60.5t146.5 60.5t60.5 146.5t-60.5 145.5t-146.5 59.5zM690 1106
q-43 -19 -82 -19q-138 0 -193 130q-20 45 -61 133q-52 118 -52 180q0 92 58.5 151.5t150.5 59.5q138 0 195 -129q22 -45 63 -135q50 -117 50 -179q0 -137 -129 -192z" />
    <glyph glyph-name="oacute" unicode="&#xf3;" horiz-adv-x="1159" 
d="M884 1450l-96 -233q-53 -130 -195 -130q-88 0 -148.5 61.5t-60.5 149.5q0 62 50 179q22 45 63 135q57 129 193 129q92 0 151 -59.5t59 -151.5q0 -41 -16 -80zM632 -63q-239 0 -401 162.5t-162 402.5q0 239 162 401t401 162q240 0 402.5 -162t162.5 -401
q0 -240 -162.5 -402.5t-402.5 -162.5zM632 707q-86 0 -145.5 -59.5t-59.5 -145.5t59.5 -146.5t145.5 -60.5t146.5 60.5t60.5 146.5t-60.5 145.5t-146.5 59.5z" />
    <glyph glyph-name="ocircumflex" unicode="&#xf4;" horiz-adv-x="1159" 
d="M632 -63q-239 0 -401 162.5t-162 402.5q0 239 162 401t401 162q240 0 402.5 -162t162.5 -401q0 -240 -162.5 -402.5t-402.5 -162.5zM632 707q-86 0 -145.5 -59.5t-59.5 -145.5t59.5 -146.5t145.5 -60.5t146.5 60.5t60.5 146.5t-60.5 145.5t-146.5 59.5zM837 1096
q-57 0 -111 43q-8 4 -88 84q-80 -80 -88 -84q-53 -43 -110 -43q-74 0 -128.5 54t-54.5 128q0 70 56 125q147 147 186 182q80 72 139 72q62 0 142 -72q26 -24 186 -182q55 -55 55 -125q0 -76 -54 -129t-130 -53z" />
    <glyph glyph-name="otilde" unicode="&#xf5;" horiz-adv-x="1159" 
d="M632 -63q-239 0 -401 162.5t-162 402.5q0 239 162 401t401 162q240 0 402.5 -162t162.5 -401q0 -240 -162.5 -402.5t-402.5 -162.5zM632 707q-86 0 -145.5 -59.5t-59.5 -145.5t59.5 -146.5t145.5 -60.5t146.5 60.5t60.5 146.5t-60.5 145.5t-146.5 59.5zM753 1475
q49 45 113 45q75 0 129.5 -53.5t54.5 -129.5q0 -90 -87 -159.5t-181 -69.5q-84 0 -219 72q-52 -47 -117 -47q-74 0 -128 54t-54 128q0 92 90 162q84 67 178 67q63 0 221 -69z" />
    <glyph glyph-name="divide" unicode="&#xf7;" horiz-adv-x="1706" 
 />
    <glyph glyph-name="glyph216" unicode="&#xf9;" horiz-adv-x="995" 
d="M552 -59q-207 0 -345 138t-138 345v459q0 78 50 129t128 51t129 -51t51 -129v-459q0 -53 36 -89t89 -36q54 0 88.5 36t34.5 89v463q0 78 51.5 128t128.5 50q78 0 128.5 -50t50.5 -128v-463q0 -205 -138.5 -344t-343.5 -139zM649 1106q-43 -19 -82 -19q-138 0 -193 130
q-20 45 -61 133q-51 118 -51 180q0 92 58 151.5t150 59.5q138 0 195 -129q22 -45 63 -135q50 -117 50 -179q0 -137 -129 -192z" />
    <glyph glyph-name="glyph217" unicode="&#xfa;" horiz-adv-x="995" 
d="M864 1450l-97 -233q-53 -130 -194 -130q-88 0 -148.5 61.5t-60.5 149.5q0 62 49 179q23 45 64 135q57 129 192 129q92 0 151.5 -59.5t59.5 -151.5q0 -41 -16 -80zM552 -59q-207 0 -345 138t-138 345v459q0 78 50 129t128 51t129 -51t51 -129v-459q0 -53 36 -89t89 -36
q54 0 88.5 36t34.5 89v463q0 78 51.5 128t128.5 50q78 0 128.5 -50t50.5 -128v-463q0 -205 -138.5 -344t-343.5 -139z" />
    <glyph glyph-name="glyph234" unicode="&#xfd;" horiz-adv-x="995" 
d="M673 -45q-57 -14 -121 -14q-207 0 -345 138t-138 345v463q0 78 50 128t128 50q80 0 130 -49t50 -129v-463q0 -53 36 -89t89 -36q54 0 88.5 36t34.5 89v463q0 78 51.5 128t128.5 50q78 0 128.5 -50t50.5 -128v-914q0 -204 -139.5 -343.5t-344.5 -139.5h-8q-78 0 -129 50
t-51 128t51 129t129 51h8q45 0 81 31t42 76zM863 1450l-96 -233q-54 -130 -195 -130q-88 0 -148.5 61.5t-60.5 149.5q0 62 49 179q23 45 64 135q57 129 192 129q93 0 152 -59.5t59 -151.5q0 -41 -16 -80z" />
    <glyph glyph-name="Abreve" unicode="&#x102;" 
d="M1331 -510h-11q-204 0 -342.5 139.5t-138.5 343.5v422q-98 -39 -207 -39q-78 0 -128 51.5t-50 129.5q0 77 50 127.5t128 50.5q86 0 146.5 60.5t60.5 146.5t-60.5 145t-146.5 59t-145.5 -59t-59.5 -145v-803q0 -78 -51 -128t-129 -50t-128 50t-50 128v803q0 239 162 401
t401 162q240 0 402.5 -162t162.5 -401v-949q0 -53 35 -89t88 -36h11q77 0 127.5 -51t50.5 -129q0 -76 -51.5 -127t-126.5 -51zM987.5 2013q54.5 -53 54.5 -129q0 -69 -55 -125q-181 -175 -335 -168q-214 38 -319 168q-55 56 -55 125q0 74 54 128t128 54q58 0 111 -43
q8 -4 51 -32.5t80 0t45 32.5q53 43 110 43q76 0 130.5 -53z" />
    <glyph glyph-name="abreve" unicode="&#x103;" 
d="M1017 -59q-78 0 -128 50t-50 128v383q0 86 -60.5 145.5t-146.5 59.5t-145.5 -59.5t-59.5 -145.5t59.5 -146.5t145.5 -60.5q78 0 129 -50t51 -128t-51 -129t-129 -51q-239 0 -401 162.5t-162 402.5q0 239 162 401t401 162q240 0 402.5 -162t162.5 -401v-383
q0 -78 -51 -128t-129 -50zM986.5 1561q54.5 -53 54.5 -129q0 -69 -55 -125q-181 -175 -335 -168q-214 38 -319 168q-55 56 -55 125q0 74 54 128t128 54q58 0 111 -43q8 -4 51 -32.5t80 0t45 32.5q53 43 110 43q76 0 130.5 -53z" />
    <glyph glyph-name="Ccaron" unicode="&#x10c;" horiz-adv-x="1274" 
 />
    <glyph glyph-name="ccaron" unicode="&#x10d;" horiz-adv-x="922" 
 />
    <glyph glyph-name="Dslash" unicode="&#x110;" horiz-adv-x="1288" 
d="M427 700v-403q82 -2 125 -2q176 0 296 120t120 296q0 178 -119 296.5t-297 118.5h-125v-206h194q48 0 79.5 -30.5t31.5 -78.5t-31.5 -79.5t-79.5 -31.5h-194zM69 920v387q0 71 53 124.5t125 53.5h305q328 0 551 -223.5t223 -550.5q0 -328 -223 -551t-551 -223
q-104 0 -154 81q-49 -77 -151 -77q-78 0 -128 50t-50 128v581q-46 1 -76 32q-32 31 -32 79t32 79q30 29 76 30z" />
    <glyph glyph-name="dcroat" unicode="&#x111;" 
d="M1197 1112v-608q0 -238 -164 -400.5t-401 -162.5q-238 0 -400.5 162.5t-162.5 400.5q0 239 161.5 402t401.5 163q78 0 129 -51t51 -129t-51 -128t-129 -50q-86 0 -145.5 -60.5t-59.5 -146.5t59.5 -145.5t145.5 -59.5t146.5 59.5t60.5 145.5v608h-185q-48 0 -79.5 31.5
t-31.5 79.5t31.5 78.5t79.5 30.5h186q8 59 50 102q51 51 127 51q78 0 129 -50q42 -43 50 -103h7q48 0 79.5 -30.5t31.5 -78.5t-31.5 -79.5t-79.5 -31.5h-6z" />
    <glyph glyph-name="Itilde" unicode="&#x128;" horiz-adv-x="387" 
d="M247 -59q-78 0 -128 50t-50 128v1188q0 77 50 127.5t128 50.5t129 -50.5t51 -127.5v-1188q0 -78 -51 -128t-129 -50zM399 1884q50 45 113 45q76 0 130 -53t54 -129q0 -90 -87 -159.5t-181 -69.5q-84 0 -219 71q-51 -47 -117 -47q-73 0 -127.5 54.5t-54.5 127.5
q0 93 90 162q84 68 178 68q64 0 221 -70z" />
    <glyph glyph-name="itilde" unicode="&#x129;" horiz-adv-x="389" 
d="M247 -59q-78 0 -128 50t-50 128v768q0 78 50 128t128 50q80 0 130 -49t50 -129v-768q0 -78 -51 -128t-129 -50zM381 1475q49 45 112 45q76 0 130.5 -53.5t54.5 -129.5q0 -90 -87.5 -159.5t-181.5 -69.5q-84 0 -219 72q-51 -47 -117 -47q-73 0 -127.5 54t-54.5 128
q0 92 90 162q84 67 178 67q64 0 222 -69z" />
    <glyph glyph-name="Utilde" unicode="&#x168;" horiz-adv-x="995" 
d="M552 -59q-207 0 -345 138t-138 345v883q0 77 50 127.5t128 50.5t129 -50.5t51 -127.5v-883q0 -53 36 -89t89 -36q54 0 88.5 36t34.5 89v885q0 75 52.5 127.5t127.5 52.5q78 0 128.5 -51.5t50.5 -128.5v-885q0 -205 -138.5 -344t-343.5 -139zM677 1884q49 45 112 45
q76 0 130.5 -53t54.5 -129q0 -90 -87 -159.5t-181 -69.5q-84 0 -220 71q-51 -47 -116 -47q-74 0 -128.5 54.5t-54.5 127.5q0 93 90 162q84 68 179 68q63 0 221 -70z" />
    <glyph glyph-name="utilde" unicode="&#x169;" horiz-adv-x="995" 
d="M552 -59q-207 0 -345 138t-138 345v459q0 78 50 129t128 51t129 -51t51 -129v-459q0 -53 36 -89t89 -36q54 0 88.5 36t34.5 89v463q0 78 51.5 128t128.5 50q78 0 128.5 -50t50.5 -128v-463q0 -205 -138.5 -344t-343.5 -139zM673 1475q49 45 113 45q75 0 129.5 -53.5
t54.5 -129.5q0 -90 -87 -159.5t-181 -69.5q-84 0 -219 72q-52 -47 -117 -47q-74 0 -128 54t-54 128q0 92 90 162q84 67 178 67q63 0 221 -69z" />
    <glyph glyph-name="Ohorn" unicode="&#x1a0;" horiz-adv-x="1574" 
d="M843 1126q-178 0 -297 -118.5t-119 -296.5q0 -176 120 -296t296 -120t296 120t120 296t-120 295.5t-296 119.5zM1393 1204q-56 0 -94.5 38.5t-38.5 94.5v159q0 55 38.5 93.5t94.5 38.5t94.5 -38.5t38.5 -93.5v-159q0 -56 -38.5 -94.5t-94.5 -38.5zM1462 1183
q155 -201 155 -472q0 -326 -224 -550t-550 -224q-325 0 -549.5 224t-224.5 550q0 325 224.5 549.5t549.5 224.5q220 0 394 -103v-58q0 -66 45.5 -111t111.5 -45q37 0 68 15z" />
    <glyph glyph-name="ohorn" unicode="&#x1a1;" horiz-adv-x="1159" 
d="M632 707q-86 0 -145.5 -59.5t-59.5 -145.5t59.5 -146.5t145.5 -60.5t146.5 60.5t60.5 146.5t-60.5 145.5t-146.5 59.5zM1076 723q-56 0 -94.5 38.5t-38.5 94.5v159q0 55 38.5 93.5t94.5 38.5t94.5 -38.5t38.5 -93.5v-159q0 -56 -38.5 -94.5t-94.5 -38.5zM1163 706
q34 -94 34 -204q0 -240 -162.5 -402.5t-402.5 -162.5q-239 0 -401 162.5t-162 402.5q0 239 162 401t401 162q160 0 285 -72v-152q0 -67 46.5 -113t113.5 -46q48 0 86 24z" />
    <glyph glyph-name="Uhorn" unicode="&#x1af;" horiz-adv-x="995" 
d="M1067 1191q-56 0 -94.5 38.5t-38.5 94.5v159q0 55 38.5 93.5t94.5 38.5t94.5 -38.5t38.5 -93.5v-159q0 -56 -38.5 -94.5t-94.5 -38.5zM1034 1158v-734q0 -205 -138.5 -344t-343.5 -139q-207 0 -345 138t-138 345v883q0 77 50 127.5t128 50.5t129 -50.5t51 -127.5v-883
q0 -53 36 -89t89 -36q54 0 88.5 36t34.5 89v885q0 75 52.5 127.5t127.5 52.5q30 0 56 -8v-170q0 -66 46 -111q33 -33 77 -42z" />
    <glyph glyph-name="uhorn" unicode="&#x1b0;" horiz-adv-x="995" 
d="M1067 723q-56 0 -94.5 38.5t-38.5 94.5v159q0 55 38.5 93.5t94.5 38.5t94.5 -38.5t38.5 -93.5v-159q0 -56 -38.5 -94.5t-94.5 -38.5zM1034 685v-261q0 -205 -138.5 -344t-343.5 -139q-207 0 -345 138t-138 345v459q0 78 50 129t128 51t129 -51t51 -129v-459q0 -53 36 -89
t89 -36q54 0 88.5 36t34.5 89v463q0 78 51.5 128t128.5 50q29 0 55 -7q-2 -13 -2 -26v-191q0 -67 47 -113q34 -34 79 -43z" />
    <glyph glyph-name="uni1EA0" unicode="&#x1ea0;" 
d="M1331 -510h-11q-204 0 -342.5 139.5t-138.5 343.5v422q-98 -39 -207 -39q-78 0 -128 51.5t-50 129.5q0 77 50 127.5t128 50.5q86 0 146.5 60.5t60.5 146.5t-60.5 145t-146.5 59t-145.5 -59t-59.5 -145v-803q0 -78 -51 -128t-129 -50t-128 50t-50 128v803q0 239 162 401
t401 162q240 0 402.5 -162t162.5 -401v-949q0 -53 35 -89t88 -36h11q77 0 127.5 -51t50.5 -129q0 -76 -51.5 -127t-126.5 -51zM619 -588q-88 0 -149.5 61.5t-61.5 149.5q0 90 60.5 149.5t150.5 59.5q86 0 147.5 -61.5t61.5 -147.5q0 -90 -59 -150.5t-150 -60.5z" />
    <glyph glyph-name="uni1EA1" unicode="&#x1ea1;" 
d="M1017 -59q-78 0 -128 50t-50 128v383q0 86 -60.5 145.5t-146.5 59.5t-145.5 -59.5t-59.5 -145.5t59.5 -146.5t145.5 -60.5q78 0 129 -50t51 -128t-51 -129t-129 -51q-239 0 -401 162.5t-162 402.5q0 239 162 401t401 162q240 0 402.5 -162t162.5 -401v-383
q0 -78 -51 -128t-129 -50zM621 -588q-88 0 -149.5 61.5t-61.5 149.5q0 90 60.5 149.5t150.5 59.5q86 0 147.5 -61.5t61.5 -147.5q0 -90 -59.5 -150.5t-149.5 -60.5z" />
    <glyph glyph-name="uni1EA2" unicode="&#x1ea2;" 
d="M1330 -510h-10q-205 0 -343 139.5t-138 343.5v422q-99 -39 -207 -39q-78 0 -128 51.5t-50 129.5q0 77 50 127.5t128 50.5q86 0 146.5 60.5t60.5 146.5t-60.5 145t-146.5 59t-145.5 -59t-59.5 -145v-803q0 -78 -51 -128t-129 -50t-128 50t-50 128v803q0 239 161.5 401
t401.5 162q239 0 402 -162t163 -401v-949q0 -53 35 -89t88 -36h10q78 0 128 -51t50 -129q0 -76 -51 -127t-127 -51zM421 1625q0 46 29.5 76t75.5 30h95q51 0 86.5 35.5t35.5 86.5t-35.5 86t-86.5 35t-86 -35t-35 -86q0 -46 -30 -76t-76 -30t-75.5 30t-29.5 76
q0 141 95.5 236.5t236.5 95.5t237 -95.5t96 -236.5t-96 -237t-237 -96l-121 2q-79 17 -79 103z" />
    <glyph glyph-name="uni1EA3" unicode="&#x1ea3;" 
d="M1017 -59q-78 0 -128 50t-50 128v383q0 86 -60.5 145.5t-146.5 59.5t-145.5 -59.5t-59.5 -145.5t59.5 -146.5t145.5 -60.5q78 0 129 -50t51 -128t-51 -129t-129 -51q-239 0 -401 162.5t-162 402.5q0 239 162 401t401 162q240 0 402.5 -162t162.5 -401v-383
q0 -78 -51 -128t-129 -50zM439 1243q0 46 29.5 76t75.5 30h95q51 0 86.5 35.5t35.5 86.5t-35.5 86t-86.5 35q-50 0 -85 -35t-35 -86q0 -46 -30.5 -76t-76.5 -30q-45 0 -75 30t-30 76q0 141 95.5 236.5t236.5 95.5t237 -95.5t96 -236.5t-96 -237t-237 -96l-120 2
q-80 17 -80 103z" />
    <glyph glyph-name="uni1EA4" unicode="&#x1ea4;" 
d="M1331 -510h-11q-204 0 -342.5 139.5t-138.5 343.5v422q-98 -39 -207 -39q-78 0 -128 51.5t-50 129.5q0 77 50 127.5t128 50.5q86 0 146.5 60.5t60.5 146.5t-60.5 145t-146.5 59t-145.5 -59t-59.5 -145v-803q0 -78 -51 -128t-129 -50t-128 50t-50 128v803q0 239 162 401
t401 162q240 0 402.5 -162t162.5 -401v-949q0 -53 35 -89t88 -36h11q77 0 127.5 -51t50.5 -129q0 -76 -51.5 -127t-126.5 -51zM857 1505q-57 0 -110 43q-8 4 -88 84q-80 -80 -88 -84q-53 -43 -111 -43q-74 0 -128 54.5t-54 128.5q0 69 55 124q148 148 187 183q79 71 139 71
q61 0 141 -71q27 -25 187 -183q55 -55 55 -124q0 -76 -54.5 -129.5t-130.5 -53.5zM1336 2291l-96 -234q-53 -129 -195 -129q-88 0 -148.5 61.5t-60.5 149.5q0 61 50 178q22 45 63 135q57 129 193 129q92 0 151 -59t59 -152q0 -41 -16 -79z" />
    <glyph glyph-name="uni1EA5" unicode="&#x1ea5;" 
d="M1346 1912l-96 -233q-53 -130 -195 -130q-88 0 -148.5 61.5t-60.5 149.5q0 62 50 179q22 45 63 135q57 129 193 129q92 0 151 -59.5t59 -151.5q0 -41 -16 -80zM1017 -59q-78 0 -128 50t-50 128v383q0 86 -60.5 145.5t-146.5 59.5t-145.5 -59.5t-59.5 -145.5t59.5 -146.5
t145.5 -60.5q78 0 129 -50t51 -128t-51 -129t-129 -51q-239 0 -401 162.5t-162 402.5q0 239 162 401t401 162q240 0 402.5 -162t162.5 -401v-383q0 -78 -51 -128t-129 -50zM857 1096q-57 0 -110 43q-8 4 -88 84q-80 -80 -88 -84q-53 -43 -111 -43q-74 0 -128 54t-54 128
q0 70 55 125q148 147 187 182q79 72 139 72q61 0 141 -72q27 -24 187 -182q55 -55 55 -125q0 -76 -54.5 -129t-130.5 -53z" />
    <glyph glyph-name="uni1EA6" unicode="&#x1ea6;" 
d="M1331 -510h-11q-204 0 -342.5 139.5t-138.5 343.5v422q-98 -39 -207 -39q-78 0 -128 51.5t-50 129.5q0 77 50 127.5t128 50.5q86 0 146.5 60.5t60.5 146.5t-60.5 145t-146.5 59t-145.5 -59t-59.5 -145v-803q0 -78 -51 -128t-129 -50t-128 50t-50 128v803q0 239 162 401
t401 162q240 0 402.5 -162t162.5 -401v-949q0 -53 35 -89t88 -36h11q77 0 127.5 -51t50.5 -129q0 -76 -51.5 -127t-126.5 -51zM857 1505q-57 0 -110 43q-8 4 -88 84q-80 -80 -88 -84q-53 -43 -111 -43q-74 0 -128 54.5t-54 128.5q0 69 55 124q148 148 187 183q79 71 139 71
q61 0 141 -71q27 -25 187 -183q55 -55 55 -124q0 -76 -54.5 -129.5t-130.5 -53.5zM1111 1987q-43 -19 -82 -19q-138 0 -193 129q-20 45 -61 133q-52 119 -52 180q0 93 58.5 152t150.5 59q138 0 195 -129q22 -45 63 -135q50 -117 50 -178q0 -137 -129 -192z" />
    <glyph glyph-name="uni1EA7" unicode="&#x1ea7;" 
d="M1017 -59q-78 0 -128 50t-50 128v383q0 86 -60.5 145.5t-146.5 59.5t-145.5 -59.5t-59.5 -145.5t59.5 -146.5t145.5 -60.5q78 0 129 -50t51 -128t-51 -129t-129 -51q-239 0 -401 162.5t-162 402.5q0 239 162 401t401 162q240 0 402.5 -162t162.5 -401v-383
q0 -78 -51 -128t-129 -50zM1031 1628q-43 -19 -82 -19q-138 0 -193 130q-20 45 -61 133q-52 118 -52 180q0 92 58.5 151.5t150.5 59.5q138 0 195 -129q22 -45 63 -135q50 -117 50 -179q0 -137 -129 -192zM857 1096q-57 0 -110 43q-8 4 -88 84q-80 -80 -88 -84
q-53 -43 -111 -43q-74 0 -128 54t-54 128q0 70 55 125q148 147 187 182q79 72 139 72q61 0 141 -72q27 -24 187 -182q55 -55 55 -125q0 -76 -54.5 -129t-130.5 -53z" />
    <glyph glyph-name="uni1EA8" unicode="&#x1ea8;" 
d="M1331 -510h-11q-204 0 -342.5 139.5t-138.5 343.5v422q-98 -39 -207 -39q-78 0 -128 51.5t-50 129.5q0 77 50 127.5t128 50.5q86 0 146.5 60.5t60.5 146.5t-60.5 145t-146.5 59t-145.5 -59t-59.5 -145v-803q0 -78 -51 -128t-129 -50t-128 50t-50 128v803q0 239 162 401
t401 162q240 0 402.5 -162t162.5 -401v-949q0 -53 35 -89t88 -36h11q77 0 127.5 -51t50.5 -129q0 -76 -51.5 -127t-126.5 -51zM857 1505q-57 0 -110 43q-8 4 -88 84q-80 -80 -88 -84q-53 -43 -111 -43q-74 0 -128 54.5t-54 128.5q0 69 55 124q148 148 187 183q79 71 139 71
q61 0 141 -71q27 -25 187 -183q55 -55 55 -124q0 -76 -54.5 -129.5t-130.5 -53.5zM812 2066q0 46 29.5 76t75.5 30h95q51 0 86.5 35.5t35.5 86.5t-35.5 86t-86.5 35q-50 0 -85 -35t-35 -86q0 -46 -30.5 -76t-76.5 -30q-45 0 -75 30t-30 76q0 141 95.5 236.5t236.5 95.5
t237 -95.5t96 -236.5t-96 -237t-237 -96l-120 2q-80 17 -80 103z" />
    <glyph glyph-name="uni1EA9" unicode="&#x1ea9;" 
d="M1017 -59q-78 0 -128 50t-50 128v383q0 86 -60.5 145.5t-146.5 59.5t-145.5 -59.5t-59.5 -145.5t59.5 -146.5t145.5 -60.5q78 0 129 -50t51 -128t-51 -129t-129 -51q-239 0 -401 162.5t-162 402.5q0 239 162 401t401 162q240 0 402.5 -162t162.5 -401v-383
q0 -78 -51 -128t-129 -50zM810 1675q0 46 29.5 76t75.5 30h95q51 0 86.5 35.5t35.5 86.5t-35.5 86t-86.5 35q-50 0 -85 -35t-35 -86q0 -46 -30.5 -76t-76.5 -30q-45 0 -75 30t-30 76q0 141 95.5 236.5t236.5 95.5t237 -95.5t96 -236.5t-96 -237t-237 -96l-120 2
q-80 17 -80 103zM857 1096q-57 0 -110 43q-8 4 -88 84q-80 -80 -88 -84q-53 -43 -111 -43q-74 0 -128 54t-54 128q0 70 55 125q148 147 187 182q79 72 139 72q61 0 141 -72q27 -24 187 -182q55 -55 55 -125q0 -76 -54.5 -129t-130.5 -53z" />
    <glyph glyph-name="uni1EAA" unicode="&#x1eaa;" 
d="M1331 -510h-11q-204 0 -342.5 139.5t-138.5 343.5v422q-98 -39 -207 -39q-78 0 -128 51.5t-50 129.5q0 77 50 127.5t128 50.5q86 0 146.5 60.5t60.5 146.5t-60.5 145t-146.5 59t-145.5 -59t-59.5 -145v-803q0 -78 -51 -128t-129 -50t-128 50t-50 128v803q0 239 162 401
t401 162q240 0 402.5 -162t162.5 -401v-949q0 -53 35 -89t88 -36h11q77 0 127.5 -51t50.5 -129q0 -76 -51.5 -127t-126.5 -51zM857 1505q-57 0 -110 43q-8 4 -88 84q-80 -80 -88 -84q-53 -43 -111 -43q-74 0 -128 54.5t-54 128.5q0 69 55 124q148 148 187 183q79 71 139 71
q61 0 141 -71q27 -25 187 -183q55 -55 55 -124q0 -76 -54.5 -129.5t-130.5 -53.5zM813 2446q49 45 112 45q76 0 130.5 -53t54.5 -129q0 -90 -87.5 -159.5t-181.5 -69.5q-84 0 -219 71q-51 -47 -117 -47q-73 0 -127.5 54.5t-54.5 127.5q0 93 90 162q84 68 178 68
q64 0 222 -70z" />
    <glyph glyph-name="uni1EAB" unicode="&#x1eab;" 
d="M1017 -59q-78 0 -128 50t-50 128v383q0 86 -60.5 145.5t-146.5 59.5t-145.5 -59.5t-59.5 -145.5t59.5 -146.5t145.5 -60.5q78 0 129 -50t51 -128t-51 -129t-129 -51q-239 0 -401 162.5t-162 402.5q0 239 162 401t401 162q240 0 402.5 -162t162.5 -401v-383
q0 -78 -51 -128t-129 -50zM854 2017q49 45 112 45q76 0 130.5 -53.5t54.5 -129.5q0 -90 -87.5 -159.5t-181.5 -69.5q-84 0 -219 72q-51 -47 -117 -47q-73 0 -127.5 54t-54.5 128q0 92 90 162q84 67 178 67q64 0 222 -69zM857 1096q-57 0 -110 43q-8 4 -88 84
q-80 -80 -88 -84q-53 -43 -111 -43q-74 0 -128 54t-54 128q0 70 55 125q148 147 187 182q79 72 139 72q61 0 141 -72q27 -24 187 -182q55 -55 55 -125q0 -76 -54.5 -129t-130.5 -53z" />
    <glyph glyph-name="uni1EAC" unicode="&#x1eac;" 
d="M1331 -510h-11q-204 0 -342.5 139.5t-138.5 343.5v422q-98 -39 -207 -39q-78 0 -128 51.5t-50 129.5q0 77 50 127.5t128 50.5q86 0 146.5 60.5t60.5 146.5t-60.5 145t-146.5 59t-145.5 -59t-59.5 -145v-803q0 -78 -51 -128t-129 -50t-128 50t-50 128v803q0 239 162 401
t401 162q240 0 402.5 -162t162.5 -401v-949q0 -53 35 -89t88 -36h11q77 0 127.5 -51t50.5 -129q0 -76 -51.5 -127t-126.5 -51zM857 1505q-57 0 -110 43q-8 4 -88 84q-80 -80 -88 -84q-53 -43 -111 -43q-74 0 -128 54.5t-54 128.5q0 69 55 124q148 148 187 183q79 71 139 71
q61 0 141 -71q27 -25 187 -183q55 -55 55 -124q0 -76 -54.5 -129.5t-130.5 -53.5zM619 -588q-88 0 -149.5 61.5t-61.5 149.5q0 90 60.5 149.5t150.5 59.5q86 0 147.5 -61.5t61.5 -147.5q0 -90 -59 -150.5t-150 -60.5z" />
    <glyph glyph-name="uni1EAD" unicode="&#x1ead;" 
d="M1017 -59q-78 0 -128 50t-50 128v383q0 86 -60.5 145.5t-146.5 59.5t-145.5 -59.5t-59.5 -145.5t59.5 -146.5t145.5 -60.5q78 0 129 -50t51 -128t-51 -129t-129 -51q-239 0 -401 162.5t-162 402.5q0 239 162 401t401 162q240 0 402.5 -162t162.5 -401v-383
q0 -78 -51 -128t-129 -50zM621 -588q-88 0 -149.5 61.5t-61.5 149.5q0 90 60.5 149.5t150.5 59.5q86 0 147.5 -61.5t61.5 -147.5q0 -90 -59.5 -150.5t-149.5 -60.5zM857 1096q-57 0 -110 43q-8 4 -88 84q-80 -80 -88 -84q-53 -43 -111 -43q-74 0 -128 54t-54 128
q0 70 55 125q148 147 187 182q79 72 139 72q61 0 141 -72q27 -24 187 -182q55 -55 55 -125q0 -76 -54.5 -129t-130.5 -53z" />
    <glyph glyph-name="uni1EAE" unicode="&#x1eae;" 
d="M1331 -510h-11q-204 0 -342.5 139.5t-138.5 343.5v422q-98 -39 -207 -39q-78 0 -128 51.5t-50 129.5q0 77 50 127.5t128 50.5q86 0 146.5 60.5t60.5 146.5t-60.5 145t-146.5 59t-145.5 -59t-59.5 -145v-803q0 -78 -51 -128t-129 -50t-128 50t-50 128v803q0 239 162 401
t401 162q240 0 402.5 -162t162.5 -401v-949q0 -53 35 -89t88 -36h11q77 0 127.5 -51t50.5 -129q0 -76 -51.5 -127t-126.5 -51zM987.5 2013q54.5 -53 54.5 -129q0 -69 -55 -125q-181 -175 -335 -168q-214 38 -319 168q-55 56 -55 125q0 74 54 128t128 54q58 0 111 -43
q8 -4 51 -32.5t80 0t45 32.5q53 43 110 43q76 0 130.5 -53zM965 2441l-96 -234q-53 -129 -195 -129q-88 0 -148.5 61.5t-60.5 149.5q0 61 50 178q22 45 63 135q57 129 193 129q92 0 151 -59t59 -152q0 -41 -16 -79z" />
    <glyph glyph-name="uni1EAF" unicode="&#x1eaf;" 
d="M985 1982l-96 -233q-53 -130 -195 -130q-88 0 -148.5 61.5t-60.5 149.5q0 62 50 179q22 45 63 135q57 129 193 129q92 0 151 -59.5t59 -151.5q0 -41 -16 -80zM1017 -59q-78 0 -128 50t-50 128v383q0 86 -60.5 145.5t-146.5 59.5t-145.5 -59.5t-59.5 -145.5t59.5 -146.5
t145.5 -60.5q78 0 129 -50t51 -128t-51 -129t-129 -51q-239 0 -401 162.5t-162 402.5q0 239 162 401t401 162q240 0 402.5 -162t162.5 -401v-383q0 -78 -51 -128t-129 -50zM986.5 1561q54.5 -53 54.5 -129q0 -69 -55 -125q-181 -175 -335 -168q-214 38 -319 168
q-55 56 -55 125q0 74 54 128t128 54q58 0 111 -43q8 -4 51 -32.5t80 0t45 32.5q53 43 110 43q76 0 130.5 -53z" />
    <glyph glyph-name="uni1EB0" unicode="&#x1eb0;" 
d="M1331 -510h-11q-204 0 -342.5 139.5t-138.5 343.5v422q-98 -39 -207 -39q-78 0 -128 51.5t-50 129.5q0 77 50 127.5t128 50.5q86 0 146.5 60.5t60.5 146.5t-60.5 145t-146.5 59t-145.5 -59t-59.5 -145v-803q0 -78 -51 -128t-129 -50t-128 50t-50 128v803q0 239 162 401
t401 162q240 0 402.5 -162t162.5 -401v-949q0 -53 35 -89t88 -36h11q77 0 127.5 -51t50.5 -129q0 -76 -51.5 -127t-126.5 -51zM987.5 2013q54.5 -53 54.5 -129q0 -69 -55 -125q-181 -175 -335 -168q-214 38 -319 168q-55 56 -55 125q0 74 54 128t128 54q58 0 111 -43
q8 -4 51 -32.5t80 0t45 32.5q53 43 110 43q76 0 130.5 -53zM700 2108q-43 -19 -82 -19q-138 0 -193 129q-20 45 -61 133q-52 119 -52 180q0 93 58.5 152t150.5 59q138 0 195 -129q22 -45 63 -135q50 -117 50 -178q0 -137 -129 -192z" />
    <glyph glyph-name="uni1EB1" unicode="&#x1eb1;" 
d="M1017 -59q-78 0 -128 50t-50 128v383q0 86 -60.5 145.5t-146.5 59.5t-145.5 -59.5t-59.5 -145.5t59.5 -146.5t145.5 -60.5q78 0 129 -50t51 -128t-51 -129t-129 -51q-239 0 -401 162.5t-162 402.5q0 239 162 401t401 162q240 0 402.5 -162t162.5 -401v-383
q0 -78 -51 -128t-129 -50zM770 1638q-43 -19 -82 -19q-138 0 -193 130q-20 45 -61 133q-52 118 -52 180q0 92 58.5 151.5t150.5 59.5q138 0 195 -129q22 -45 63 -135q50 -117 50 -179q0 -137 -129 -192zM986.5 1561q54.5 -53 54.5 -129q0 -69 -55 -125q-181 -175 -335 -168
q-214 38 -319 168q-55 56 -55 125q0 74 54 128t128 54q58 0 111 -43q8 -4 51 -32.5t80 0t45 32.5q53 43 110 43q76 0 130.5 -53z" />
    <glyph glyph-name="uni1EB2" unicode="&#x1eb2;" 
d="M1331 -510h-11q-204 0 -342.5 139.5t-138.5 343.5v422q-98 -39 -207 -39q-78 0 -128 51.5t-50 129.5q0 77 50 127.5t128 50.5q86 0 146.5 60.5t60.5 146.5t-60.5 145t-146.5 59t-145.5 -59t-59.5 -145v-803q0 -78 -51 -128t-129 -50t-128 50t-50 128v803q0 239 162 401
t401 162q240 0 402.5 -162t162.5 -401v-949q0 -53 35 -89t88 -36h11q77 0 127.5 -51t50.5 -129q0 -76 -51.5 -127t-126.5 -51zM987.5 2013q54.5 -53 54.5 -129q0 -69 -55 -125q-181 -175 -335 -168q-214 38 -319 168q-55 56 -55 125q0 74 54 128t128 54q58 0 111 -43
q8 -4 51 -32.5t80 0t45 32.5q53 43 110 43q76 0 130.5 -53zM511 2217q0 46 29.5 76t75.5 30h95q51 0 86.5 35.5t35.5 86.5t-35.5 86t-86.5 35q-50 0 -85 -35t-35 -86q0 -46 -30.5 -76t-76.5 -30q-45 0 -75 30t-30 76q0 141 95.5 236.5t236.5 95.5t237 -95.5t96 -236.5
t-96 -237t-237 -96l-120 2q-80 17 -80 103z" />
    <glyph glyph-name="uni1EB3" unicode="&#x1eb3;" 
d="M1017 -59q-78 0 -128 50t-50 128v383q0 86 -60.5 145.5t-146.5 59.5t-145.5 -59.5t-59.5 -145.5t59.5 -146.5t145.5 -60.5q78 0 129 -50t51 -128t-51 -129t-129 -51q-239 0 -401 162.5t-162 402.5q0 239 162 401t401 162q240 0 402.5 -162t162.5 -401v-383
q0 -78 -51 -128t-129 -50zM519 1745q0 46 29.5 76t75.5 30h95q51 0 86.5 35.5t35.5 86.5t-35.5 86t-86.5 35q-50 0 -85 -35t-35 -86q0 -46 -30.5 -76t-76.5 -30q-45 0 -75 30t-30 76q0 141 95.5 236.5t236.5 95.5t237 -95.5t96 -236.5t-96 -237t-237 -96l-120 2
q-80 17 -80 103zM986.5 1561q54.5 -53 54.5 -129q0 -69 -55 -125q-181 -175 -335 -168q-214 38 -319 168q-55 56 -55 125q0 74 54 128t128 54q58 0 111 -43q8 -4 51 -32.5t80 0t45 32.5q53 43 110 43q76 0 130.5 -53z" />
    <glyph glyph-name="uni1EB4" unicode="&#x1eb4;" 
d="M1331 -510h-11q-204 0 -342.5 139.5t-138.5 343.5v422q-98 -39 -207 -39q-78 0 -128 51.5t-50 129.5q0 77 50 127.5t128 50.5q86 0 146.5 60.5t60.5 146.5t-60.5 145t-146.5 59t-145.5 -59t-59.5 -145v-803q0 -78 -51 -128t-129 -50t-128 50t-50 128v803q0 239 162 401
t401 162q240 0 402.5 -162t162.5 -401v-949q0 -53 35 -89t88 -36h11q77 0 127.5 -51t50.5 -129q0 -76 -51.5 -127t-126.5 -51zM987.5 2013q54.5 -53 54.5 -129q0 -69 -55 -125q-181 -175 -335 -168q-214 38 -319 168q-55 56 -55 125q0 74 54 128t128 54q58 0 111 -43
q8 -4 51 -32.5t80 0t45 32.5q53 43 110 43q76 0 130.5 -53zM813 2446q49 45 112 45q76 0 130.5 -53t54.5 -129q0 -90 -87.5 -159.5t-181.5 -69.5q-84 0 -219 71q-51 -47 -117 -47q-73 0 -127.5 54.5t-54.5 127.5q0 93 90 162q84 68 178 68q64 0 222 -70z" />
    <glyph glyph-name="uni1EB5" unicode="&#x1eb5;" 
d="M1017 -59q-78 0 -128 50t-50 128v383q0 86 -60.5 145.5t-146.5 59.5t-145.5 -59.5t-59.5 -145.5t59.5 -146.5t145.5 -60.5q78 0 129 -50t51 -128t-51 -129t-129 -51q-239 0 -401 162.5t-162 402.5q0 239 162 401t401 162q240 0 402.5 -162t162.5 -401v-383
q0 -78 -51 -128t-129 -50zM854 2017q49 45 112 45q76 0 130.5 -53.5t54.5 -129.5q0 -90 -87.5 -159.5t-181.5 -69.5q-84 0 -219 72q-51 -47 -117 -47q-73 0 -127.5 54t-54.5 128q0 92 90 162q84 67 178 67q64 0 222 -69zM986.5 1561q54.5 -53 54.5 -129q0 -69 -55 -125
q-181 -175 -335 -168q-214 38 -319 168q-55 56 -55 125q0 74 54 128t128 54q58 0 111 -43q8 -4 51 -32.5t80 0t45 32.5q53 43 110 43q76 0 130.5 -53z" />
    <glyph glyph-name="uni1EB6" unicode="&#x1eb6;" 
d="M1331 -510h-11q-204 0 -342.5 139.5t-138.5 343.5v422q-98 -39 -207 -39q-78 0 -128 51.5t-50 129.5q0 77 50 127.5t128 50.5q86 0 146.5 60.5t60.5 146.5t-60.5 145t-146.5 59t-145.5 -59t-59.5 -145v-803q0 -78 -51 -128t-129 -50t-128 50t-50 128v803q0 239 162 401
t401 162q240 0 402.5 -162t162.5 -401v-949q0 -53 35 -89t88 -36h11q77 0 127.5 -51t50.5 -129q0 -76 -51.5 -127t-126.5 -51zM987.5 2013q54.5 -53 54.5 -129q0 -69 -55 -125q-181 -175 -335 -168q-214 38 -319 168q-55 56 -55 125q0 74 54 128t128 54q58 0 111 -43
q8 -4 51 -32.5t80 0t45 32.5q53 43 110 43q76 0 130.5 -53zM619 -588q-88 0 -149.5 61.5t-61.5 149.5q0 90 60.5 149.5t150.5 59.5q86 0 147.5 -61.5t61.5 -147.5q0 -90 -59 -150.5t-150 -60.5z" />
    <glyph glyph-name="uni1EB7" unicode="&#x1eb7;" 
d="M1017 -59q-78 0 -128 50t-50 128v383q0 86 -60.5 145.5t-146.5 59.5t-145.5 -59.5t-59.5 -145.5t59.5 -146.5t145.5 -60.5q78 0 129 -50t51 -128t-51 -129t-129 -51q-239 0 -401 162.5t-162 402.5q0 239 162 401t401 162q240 0 402.5 -162t162.5 -401v-383
q0 -78 -51 -128t-129 -50zM621 -588q-88 0 -149.5 61.5t-61.5 149.5q0 90 60.5 149.5t150.5 59.5q86 0 147.5 -61.5t61.5 -147.5q0 -90 -59.5 -150.5t-149.5 -60.5zM986.5 1561q54.5 -53 54.5 -129q0 -69 -55 -125q-181 -175 -335 -168q-214 38 -319 168q-55 56 -55 125
q0 74 54 128t128 54q58 0 111 -43q8 -4 51 -32.5t80 0t45 32.5q53 43 110 43q76 0 130.5 -53z" />
    <glyph glyph-name="uni1EB8" unicode="&#x1eb8;" horiz-adv-x="974" 
d="M843 -63q-325 0 -549.5 224t-224.5 550q0 325 224.5 549.5t549.5 224.5q78 0 129 -50.5t51 -127.5q0 -78 -51 -129.5t-129 -51.5q-119 0 -219 -61t-152 -166h371q78 0 129 -50t51 -128t-51 -129t-129 -51h-379q49 -113 152.5 -179.5t226.5 -66.5q78 0 129 -51t51 -129
t-51 -128t-129 -50zM619 -588q-88 0 -149.5 61.5t-61.5 149.5q0 90 60.5 149.5t150.5 59.5q86 0 147.5 -61.5t61.5 -147.5q0 -90 -59.5 -150.5t-149.5 -60.5z" />
    <glyph glyph-name="uni1EB9" unicode="&#x1eb9;" horiz-adv-x="1052" 
d="M585 702q-70 -16 -114 -72.5t-44 -127.5q0 -86 59.5 -146.5t145.5 -60.5h182q78 0 128.5 -50t50.5 -128t-50.5 -129t-128.5 -51h-182q-239 0 -401 162.5t-162 402.5q0 239 162 401t401 162q242 0 408 -172q53 -55 53 -123q0 -86 -74 -143l-260 -254q-57 -56 -125 -56
q-76 0 -129 54.5t-53 130.5q0 57 45 112zM621 -588q-88 0 -149.5 61.5t-61.5 149.5q0 90 60.5 149.5t150.5 59.5q86 0 147.5 -61.5t61.5 -147.5q0 -90 -59.5 -150.5t-149.5 -60.5z" />
    <glyph glyph-name="uni1EBA" unicode="&#x1eba;" horiz-adv-x="974" 
d="M843 -63q-325 0 -549.5 224t-224.5 550q0 325 224.5 549.5t549.5 224.5q78 0 129 -50.5t51 -127.5q0 -78 -51 -129.5t-129 -51.5q-119 0 -219 -61t-152 -166h371q78 0 129 -50t51 -128t-51 -129t-129 -51h-379q49 -113 152.5 -179.5t226.5 -66.5q78 0 129 -51t51 -129
t-51 -128t-129 -50zM470 1625q0 46 29.5 76t75.5 30h95q51 0 86.5 35.5t35.5 86.5t-35.5 86t-86.5 35q-50 0 -85 -35t-35 -86q0 -46 -30.5 -76t-76.5 -30q-45 0 -75 30t-30 76q0 141 95.5 236.5t236.5 95.5t237 -95.5t96 -236.5t-96 -237t-237 -96l-120 2q-80 17 -80 103z
" />
    <glyph glyph-name="uni1EBB" unicode="&#x1ebb;" horiz-adv-x="1052" 
d="M585 702q-70 -16 -114 -72.5t-44 -127.5q0 -86 59.5 -146.5t145.5 -60.5h182q78 0 128.5 -50t50.5 -128t-50.5 -129t-128.5 -51h-182q-239 0 -401 162.5t-162 402.5q0 239 162 401t401 162q242 0 408 -172q53 -55 53 -123q0 -86 -74 -143l-260 -254q-57 -56 -125 -56
q-76 0 -129 54.5t-53 130.5q0 57 45 112zM439 1243q0 46 29.5 76t75.5 30h95q51 0 86.5 35.5t35.5 86.5t-35.5 86t-86.5 35q-50 0 -85 -35t-35 -86q0 -46 -30.5 -76t-76.5 -30q-45 0 -75 30t-30 76q0 141 95.5 236.5t236.5 95.5t237 -95.5t96 -236.5t-96 -237t-237 -96
l-120 2q-80 17 -80 103z" />
    <glyph glyph-name="uni1EBC" unicode="&#x1ebc;" horiz-adv-x="974" 
d="M843 -63q-325 0 -549.5 224t-224.5 550q0 325 224.5 549.5t549.5 224.5q78 0 129 -50.5t51 -127.5q0 -78 -51 -129.5t-129 -51.5q-119 0 -219 -61t-152 -166h371q78 0 129 -50t51 -128t-51 -129t-129 -51h-379q49 -113 152.5 -179.5t226.5 -66.5q78 0 129 -51t51 -129
t-51 -128t-129 -50zM732 1884q49 45 113 45q75 0 129.5 -53t54.5 -129q0 -90 -87 -159.5t-181 -69.5q-84 0 -220 71q-51 -47 -116 -47q-74 0 -128.5 54.5t-54.5 127.5q0 93 91 162q84 68 178 68q63 0 221 -70z" />
    <glyph glyph-name="uni1EBD" unicode="&#x1ebd;" horiz-adv-x="1052" 
d="M585 702q-70 -16 -114 -72.5t-44 -127.5q0 -86 59.5 -146.5t145.5 -60.5h182q78 0 128.5 -50t50.5 -128t-50.5 -129t-128.5 -51h-182q-239 0 -401 162.5t-162 402.5q0 239 162 401t401 162q242 0 408 -172q53 -55 53 -123q0 -86 -74 -143l-260 -254q-57 -56 -125 -56
q-76 0 -129 54.5t-53 130.5q0 57 45 112zM733 1475q49 45 112 45q76 0 130.5 -53.5t54.5 -129.5q0 -90 -87.5 -159.5t-181.5 -69.5q-84 0 -219 72q-51 -47 -117 -47q-73 0 -127.5 54t-54.5 128q0 92 90 162q84 67 178 67q64 0 222 -69z" />
    <glyph glyph-name="uni1EBE" unicode="&#x1ebe;" horiz-adv-x="974" 
d="M843 -63q-325 0 -549.5 224t-224.5 550q0 325 224.5 549.5t549.5 224.5q78 0 129 -50.5t51 -127.5q0 -78 -51 -129.5t-129 -51.5q-119 0 -219 -61t-152 -166h371q78 0 129 -50t51 -128t-51 -129t-129 -51h-379q49 -113 152.5 -179.5t226.5 -66.5q78 0 129 -51t51 -129
t-51 -128t-129 -50zM837 1505q-57 0 -111 43q-8 4 -88 84q-80 -80 -88 -84q-53 -43 -110 -43q-74 0 -128.5 54.5t-54.5 128.5q0 69 56 124q147 148 186 183q80 71 139 71q62 0 142 -71q26 -25 186 -183q55 -55 55 -124q0 -76 -54 -129.5t-130 -53.5zM1335 2291l-96 -234
q-53 -129 -194 -129q-88 0 -148.5 61.5t-60.5 149.5q0 61 49 178q22 45 63 135q58 129 193 129q92 0 151.5 -59t59.5 -152q0 -41 -17 -79z" />
    <glyph glyph-name="uni1EBF" unicode="&#x1ebf;" horiz-adv-x="1052" 
d="M1276 1892l-96 -233q-53 -130 -195 -130q-88 0 -148.5 61.5t-60.5 149.5q0 62 50 179q22 45 63 135q57 129 193 129q92 0 151 -59.5t59 -151.5q0 -41 -16 -80zM585 702q-70 -16 -114 -72.5t-44 -127.5q0 -86 59.5 -146.5t145.5 -60.5h182q78 0 128.5 -50t50.5 -128
t-50.5 -129t-128.5 -51h-182q-239 0 -401 162.5t-162 402.5q0 239 162 401t401 162q242 0 408 -172q53 -55 53 -123q0 -86 -74 -143l-260 -254q-57 -56 -125 -56q-76 0 -129 54.5t-53 130.5q0 57 45 112zM837 1096q-57 0 -111 43q-8 4 -88 84q-80 -80 -88 -84
q-53 -43 -110 -43q-74 0 -128.5 54t-54.5 128q0 70 56 125q147 147 186 182q80 72 139 72q62 0 142 -72q26 -24 186 -182q55 -55 55 -125q0 -76 -54 -129t-130 -53z" />
    <glyph glyph-name="uni1EC0" unicode="&#x1ec0;" horiz-adv-x="974" 
d="M843 -63q-325 0 -549.5 224t-224.5 550q0 325 224.5 549.5t549.5 224.5q78 0 129 -50.5t51 -127.5q0 -78 -51 -129.5t-129 -51.5q-119 0 -219 -61t-152 -166h371q78 0 129 -50t51 -128t-51 -129t-129 -51h-379q49 -113 152.5 -179.5t226.5 -66.5q78 0 129 -51t51 -129
t-51 -128t-129 -50zM837 1505q-57 0 -111 43q-8 4 -88 84q-80 -80 -88 -84q-53 -43 -110 -43q-74 0 -128.5 54.5t-54.5 128.5q0 69 56 124q147 148 186 183q80 71 139 71q62 0 142 -71q26 -25 186 -183q55 -55 55 -124q0 -76 -54 -129.5t-130 -53.5zM1110 1987
q-43 -19 -82 -19q-137 0 -193 129q-20 45 -61 133q-51 119 -51 180q0 93 58.5 152t150.5 59q137 0 194 -129q23 -45 64 -135q49 -117 49 -178q0 -137 -129 -192z" />
    <glyph glyph-name="uni1EC1" unicode="&#x1ec1;" horiz-adv-x="1052" 
d="M585 702q-70 -16 -114 -72.5t-44 -127.5q0 -86 59.5 -146.5t145.5 -60.5h182q78 0 128.5 -50t50.5 -128t-50.5 -129t-128.5 -51h-182q-239 0 -401 162.5t-162 402.5q0 239 162 401t401 162q242 0 408 -172q53 -55 53 -123q0 -86 -74 -143l-260 -254q-57 -56 -125 -56
q-76 0 -129 54.5t-53 130.5q0 57 45 112zM1021 1608q-43 -19 -82 -19q-138 0 -193 130q-20 45 -61 133q-52 118 -52 180q0 92 58.5 151.5t150.5 59.5q138 0 195 -129q22 -45 63 -135q50 -117 50 -179q0 -137 -129 -192zM837 1096q-57 0 -111 43q-8 4 -88 84q-80 -80 -88 -84
q-53 -43 -110 -43q-74 0 -128.5 54t-54.5 128q0 70 56 125q147 147 186 182q80 72 139 72q62 0 142 -72q26 -24 186 -182q55 -55 55 -125q0 -76 -54 -129t-130 -53z" />
    <glyph glyph-name="uni1EC2" unicode="&#x1ec2;" horiz-adv-x="974" 
d="M843 -63q-325 0 -549.5 224t-224.5 550q0 325 224.5 549.5t549.5 224.5q78 0 129 -50.5t51 -127.5q0 -78 -51 -129.5t-129 -51.5q-119 0 -219 -61t-152 -166h371q78 0 129 -50t51 -128t-51 -129t-129 -51h-379q49 -113 152.5 -179.5t226.5 -66.5q78 0 129 -51t51 -129
t-51 -128t-129 -50zM837 1505q-57 0 -111 43q-8 4 -88 84q-80 -80 -88 -84q-53 -43 -110 -43q-74 0 -128.5 54.5t-54.5 128.5q0 69 56 124q147 148 186 183q80 71 139 71q62 0 142 -71q26 -25 186 -183q55 -55 55 -124q0 -76 -54 -129.5t-130 -53.5zM811 2066q0 46 29.5 76
t75.5 30h96q50 0 86 35.5t36 86.5t-36 86t-86 35q-51 0 -86 -35t-35 -86q0 -46 -30 -76t-76 -30t-75.5 30t-29.5 76q0 141 95 236.5t237 95.5q141 0 237 -95.5t96 -236.5t-96 -237t-237 -96l-121 2q-80 17 -80 103z" />
    <glyph glyph-name="uni1EC3" unicode="&#x1ec3;" horiz-adv-x="1052" 
d="M585 702q-70 -16 -114 -72.5t-44 -127.5q0 -86 59.5 -146.5t145.5 -60.5h182q78 0 128.5 -50t50.5 -128t-50.5 -129t-128.5 -51h-182q-239 0 -401 162.5t-162 402.5q0 239 162 401t401 162q242 0 408 -172q53 -55 53 -123q0 -86 -74 -143l-260 -254q-57 -56 -125 -56
q-76 0 -129 54.5t-53 130.5q0 57 45 112zM810 1675q0 46 29.5 76t75.5 30h95q51 0 86.5 35.5t35.5 86.5t-35.5 86t-86.5 35q-50 0 -85 -35t-35 -86q0 -46 -30.5 -76t-76.5 -30q-45 0 -75 30t-30 76q0 141 95.5 236.5t236.5 95.5t237 -95.5t96 -236.5t-96 -237t-237 -96
l-120 2q-80 17 -80 103zM837 1096q-57 0 -111 43q-8 4 -88 84q-80 -80 -88 -84q-53 -43 -110 -43q-74 0 -128.5 54t-54.5 128q0 70 56 125q147 147 186 182q80 72 139 72q62 0 142 -72q26 -24 186 -182q55 -55 55 -125q0 -76 -54 -129t-130 -53z" />
    <glyph glyph-name="uni1EC4" unicode="&#x1ec4;" horiz-adv-x="974" 
d="M843 -63q-325 0 -549.5 224t-224.5 550q0 325 224.5 549.5t549.5 224.5q78 0 129 -50.5t51 -127.5q0 -78 -51 -129.5t-129 -51.5q-119 0 -219 -61t-152 -166h371q78 0 129 -50t51 -128t-51 -129t-129 -51h-379q49 -113 152.5 -179.5t226.5 -66.5q78 0 129 -51t51 -129
t-51 -128t-129 -50zM837 1505q-57 0 -111 43q-8 4 -88 84q-80 -80 -88 -84q-53 -43 -110 -43q-74 0 -128.5 54.5t-54.5 128.5q0 69 56 124q147 148 186 183q80 71 139 71q62 0 142 -71q26 -25 186 -183q55 -55 55 -124q0 -76 -54 -129.5t-130 -53.5zM812 2446q49 45 113 45
q75 0 129.5 -53t54.5 -129q0 -90 -87 -159.5t-181 -69.5q-84 0 -220 71q-51 -47 -116 -47q-74 0 -128.5 54.5t-54.5 127.5q0 93 91 162q84 68 178 68q63 0 221 -70z" />
    <glyph glyph-name="uni1EC5" unicode="&#x1ec5;" horiz-adv-x="1052" 
d="M585 702q-70 -16 -114 -72.5t-44 -127.5q0 -86 59.5 -146.5t145.5 -60.5h182q78 0 128.5 -50t50.5 -128t-50.5 -129t-128.5 -51h-182q-239 0 -401 162.5t-162 402.5q0 239 162 401t401 162q242 0 408 -172q53 -55 53 -123q0 -86 -74 -143l-260 -254q-57 -56 -125 -56
q-76 0 -129 54.5t-53 130.5q0 57 45 112zM833 2017q49 45 112 45q76 0 130.5 -53.5t54.5 -129.5q0 -90 -87.5 -159.5t-181.5 -69.5q-84 0 -219 72q-51 -47 -117 -47q-73 0 -127.5 54t-54.5 128q0 92 90 162q84 67 178 67q64 0 222 -69zM837 1096q-57 0 -111 43q-8 4 -88 84
q-80 -80 -88 -84q-53 -43 -110 -43q-74 0 -128.5 54t-54.5 128q0 70 56 125q147 147 186 182q80 72 139 72q62 0 142 -72q26 -24 186 -182q55 -55 55 -125q0 -76 -54 -129t-130 -53z" />
    <glyph glyph-name="uni1EC6" unicode="&#x1ec6;" horiz-adv-x="974" 
d="M843 -63q-325 0 -549.5 224t-224.5 550q0 325 224.5 549.5t549.5 224.5q78 0 129 -50.5t51 -127.5q0 -78 -51 -129.5t-129 -51.5q-119 0 -219 -61t-152 -166h371q78 0 129 -50t51 -128t-51 -129t-129 -51h-379q49 -113 152.5 -179.5t226.5 -66.5q78 0 129 -51t51 -129
t-51 -128t-129 -50zM837 1505q-57 0 -111 43q-8 4 -88 84q-80 -80 -88 -84q-53 -43 -110 -43q-74 0 -128.5 54.5t-54.5 128.5q0 69 56 124q147 148 186 183q80 71 139 71q62 0 142 -71q26 -25 186 -183q55 -55 55 -124q0 -76 -54 -129.5t-130 -53.5zM619 -588
q-88 0 -149.5 61.5t-61.5 149.5q0 90 60.5 149.5t150.5 59.5q86 0 147.5 -61.5t61.5 -147.5q0 -90 -59.5 -150.5t-149.5 -60.5z" />
    <glyph glyph-name="uni1EC7" unicode="&#x1ec7;" horiz-adv-x="1052" 
d="M585 702q-70 -16 -114 -72.5t-44 -127.5q0 -86 59.5 -146.5t145.5 -60.5h182q78 0 128.5 -50t50.5 -128t-50.5 -129t-128.5 -51h-182q-239 0 -401 162.5t-162 402.5q0 239 162 401t401 162q242 0 408 -172q53 -55 53 -123q0 -86 -74 -143l-260 -254q-57 -56 -125 -56
q-76 0 -129 54.5t-53 130.5q0 57 45 112zM621 -588q-88 0 -149.5 61.5t-61.5 149.5q0 90 60.5 149.5t150.5 59.5q86 0 147.5 -61.5t61.5 -147.5q0 -90 -59.5 -150.5t-149.5 -60.5zM837 1096q-57 0 -111 43q-8 4 -88 84q-80 -80 -88 -84q-53 -43 -110 -43q-74 0 -128.5 54
t-54.5 128q0 70 56 125q147 147 186 182q80 72 139 72q62 0 142 -72q26 -24 186 -182q55 -55 55 -125q0 -76 -54 -129t-130 -53z" />
    <glyph glyph-name="uni1EC8" unicode="&#x1ec8;" horiz-adv-x="387" 
d="M247 -59q-78 0 -128 50t-50 128v1188q0 77 50 127.5t128 50.5t129 -50.5t51 -127.5v-1188q0 -78 -51 -128t-129 -50zM49 1655q0 46 29.5 76t75.5 30h95q51 0 86.5 35.5t35.5 86.5t-35.5 86t-86.5 35t-86 -35t-35 -86q0 -46 -30 -76t-76 -30t-75.5 30t-29.5 76
q0 141 95.5 236.5t236.5 95.5t237 -95.5t96 -236.5t-96 -237t-237 -96l-121 2q-79 17 -79 103z" />
    <glyph glyph-name="uni1EC9" unicode="&#x1ec9;" horiz-adv-x="389" 
d="M247 -59q-78 0 -128 50t-50 128v768q0 78 50 128t128 50q80 0 130 -49t50 -129v-768q0 -78 -51 -128t-129 -50zM57 1243q0 46 29.5 76t75.5 30h95q51 0 86.5 35.5t35.5 86.5t-35.5 86t-86.5 35q-50 0 -85 -35t-35 -86q0 -46 -30.5 -76t-76.5 -30q-45 0 -75 30t-30 76
q0 141 95.5 236.5t236.5 95.5t237 -95.5t96 -236.5t-96 -237t-237 -96l-120 2q-80 17 -80 103z" />
    <glyph glyph-name="uni1ECA" unicode="&#x1eca;" horiz-adv-x="387" 
d="M246 -59q-78 0 -128 50t-50 128v1188q0 77 50 127.5t128 50.5t129.5 -50.5t51.5 -127.5v-1188q0 -78 -51.5 -128t-129.5 -50zM257 -588q-88 0 -149.5 61.5t-61.5 149.5q0 90 60.5 149.5t150.5 59.5q86 0 147.5 -61.5t61.5 -147.5q0 -90 -59.5 -150.5t-149.5 -60.5z" />
    <glyph glyph-name="uni1ECB" unicode="&#x1ecb;" horiz-adv-x="389" 
d="M247 1081q-88 0 -149.5 61.5t-61.5 149.5t61.5 149.5t149.5 61.5t149.5 -61.5t61.5 -149.5t-61.5 -149.5t-149.5 -61.5zM246 -59q-78 0 -128 50t-50 128v768q0 78 50 128t128 50q80 0 130 -49t50 -129v-768q0 -78 -51 -128t-129 -50zM248 -588q-88 0 -149.5 61.5
t-61.5 149.5q0 90 60.5 149.5t150.5 59.5q86 0 147.5 -61.5t61.5 -147.5q0 -90 -59.5 -150.5t-149.5 -60.5z" />
    <glyph glyph-name="uni1ECC" unicode="&#x1ecc;" horiz-adv-x="1574" 
d="M843 -63q-325 0 -549.5 224t-224.5 550q0 325 224.5 549.5t549.5 224.5q326 0 550 -224.5t224 -549.5q0 -326 -224 -550t-550 -224zM843 1126q-178 0 -297 -118.5t-119 -296.5q0 -176 120 -296t296 -120t296 120t120 296t-120 295.5t-296 119.5zM844 -588
q-88 0 -149.5 61.5t-61.5 149.5q0 90 60.5 149.5t150.5 59.5q86 0 147.5 -61.5t61.5 -147.5q0 -90 -59.5 -150.5t-149.5 -60.5z" />
    <glyph glyph-name="uni1ECD" unicode="&#x1ecd;" horiz-adv-x="1159" 
d="M632 -63q-239 0 -401 162.5t-162 402.5q0 239 162 401t401 162q240 0 402.5 -162t162.5 -401q0 -240 -162.5 -402.5t-402.5 -162.5zM632 707q-86 0 -145.5 -59.5t-59.5 -145.5t59.5 -146.5t145.5 -60.5t146.5 60.5t60.5 146.5t-60.5 145.5t-146.5 59.5zM634 -588
q-88 0 -149.5 61.5t-61.5 149.5q0 90 60.5 149.5t150.5 59.5q86 0 147.5 -61.5t61.5 -147.5q0 -90 -59.5 -150.5t-149.5 -60.5z" />
    <glyph glyph-name="uni1ECE" unicode="&#x1ece;" horiz-adv-x="1574" 
d="M843 -63q-325 0 -549.5 224t-224.5 550q0 325 224.5 549.5t549.5 224.5q326 0 550 -224.5t224 -549.5q0 -326 -224 -550t-550 -224zM843 1126q-178 0 -297 -118.5t-119 -296.5q0 -176 120 -296t296 -120t296 120t120 296t-120 295.5t-296 119.5zM651 1625q0 46 29.5 76
t75.5 30h95q51 0 86.5 35.5t35.5 86.5t-35.5 86t-86.5 35q-50 0 -85 -35t-35 -86q0 -46 -30.5 -76t-76.5 -30q-45 0 -75 30t-30 76q0 141 95.5 236.5t236.5 95.5t237 -95.5t96 -236.5t-96 -237t-237 -96l-120 2q-80 17 -80 103z" />
    <glyph glyph-name="uni1ECF" unicode="&#x1ecf;" horiz-adv-x="1159" 
d="M632 -63q-239 0 -401 162.5t-162 402.5q0 239 162 401t401 162q240 0 402.5 -162t162.5 -401q0 -240 -162.5 -402.5t-402.5 -162.5zM632 707q-86 0 -145.5 -59.5t-59.5 -145.5t59.5 -146.5t145.5 -60.5t146.5 60.5t60.5 146.5t-60.5 145.5t-146.5 59.5zM438 1243
q0 46 29.5 76t75.5 30h95q51 0 86.5 35.5t35.5 86.5t-35.5 86t-86.5 35q-50 0 -85 -35t-35 -86q0 -46 -30.5 -76t-76.5 -30q-45 0 -75 30t-30 76q0 141 95.5 236.5t236.5 95.5t237 -95.5t96 -236.5t-96 -237t-237 -96l-120 2q-80 17 -80 103z" />
    <glyph glyph-name="uni1ED0" unicode="&#x1ed0;" horiz-adv-x="1574" 
d="M843 -63q-325 0 -549.5 224t-224.5 550q0 325 224.5 549.5t549.5 224.5q326 0 550 -224.5t224 -549.5q0 -326 -224 -550t-550 -224zM843 1126q-178 0 -297 -118.5t-119 -296.5q0 -176 120 -296t296 -120t296 120t120 296t-120 295.5t-296 119.5zM1062 1505q-57 0 -110 43
q-9 4 -88 84q-80 -80 -88 -84q-54 -43 -111 -43q-74 0 -128 54.5t-54 128.5q0 69 55 124q147 148 186 183q80 71 140 71q61 0 141 -71q27 -25 186 -183q56 -55 56 -124q0 -76 -54.5 -129.5t-130.5 -53.5zM1546 2291l-96 -234q-53 -129 -194 -129q-88 0 -148.5 61.5
t-60.5 149.5q0 61 49 178q22 45 63 135q58 129 193 129q92 0 151.5 -59t59.5 -152q0 -41 -17 -79z" />
    <glyph glyph-name="uni1ED1" unicode="&#x1ed1;" horiz-adv-x="1159" 
d="M1276 1902l-96 -233q-53 -130 -195 -130q-88 0 -148.5 61.5t-60.5 149.5q0 62 50 179q22 45 63 135q57 129 193 129q92 0 151 -59.5t59 -151.5q0 -41 -16 -80zM632 -63q-239 0 -401 162.5t-162 402.5q0 239 162 401t401 162q240 0 402.5 -162t162.5 -401
q0 -240 -162.5 -402.5t-402.5 -162.5zM632 707q-86 0 -145.5 -59.5t-59.5 -145.5t59.5 -146.5t145.5 -60.5t146.5 60.5t60.5 146.5t-60.5 145.5t-146.5 59.5zM837 1096q-57 0 -111 43q-8 4 -88 84q-80 -80 -88 -84q-53 -43 -110 -43q-74 0 -128.5 54t-54.5 128q0 70 56 125
q147 147 186 182q80 72 139 72q62 0 142 -72q26 -24 186 -182q55 -55 55 -125q0 -76 -54 -129t-130 -53z" />
    <glyph glyph-name="uni1ED2" unicode="&#x1ed2;" horiz-adv-x="1574" 
d="M843 -63q-325 0 -549.5 224t-224.5 550q0 325 224.5 549.5t549.5 224.5q326 0 550 -224.5t224 -549.5q0 -326 -224 -550t-550 -224zM843 1126q-178 0 -297 -118.5t-119 -296.5q0 -176 120 -296t296 -120t296 120t120 296t-120 295.5t-296 119.5zM1062 1505q-57 0 -110 43
q-9 4 -88 84q-80 -80 -88 -84q-54 -43 -111 -43q-74 0 -128 54.5t-54 128.5q0 69 55 124q147 148 186 183q80 71 140 71q61 0 141 -71q27 -25 186 -183q56 -55 56 -124q0 -76 -54.5 -129.5t-130.5 -53.5zM1270 1987q-43 -19 -82 -19q-137 0 -193 129q-20 45 -61 133
q-51 119 -51 180q0 93 58.5 152t150.5 59q137 0 194 -129q23 -45 64 -135q49 -117 49 -178q0 -137 -129 -192z" />
    <glyph glyph-name="uni1ED3" unicode="&#x1ed3;" horiz-adv-x="1159" 
d="M632 -63q-239 0 -401 162.5t-162 402.5q0 239 162 401t401 162q240 0 402.5 -162t162.5 -401q0 -240 -162.5 -402.5t-402.5 -162.5zM632 707q-86 0 -145.5 -59.5t-59.5 -145.5t59.5 -146.5t145.5 -60.5t146.5 60.5t60.5 146.5t-60.5 145.5t-146.5 59.5zM981 1638
q-43 -19 -82 -19q-138 0 -193 130q-20 45 -61 133q-52 118 -52 180q0 92 58.5 151.5t150.5 59.5q138 0 195 -129q22 -45 63 -135q50 -117 50 -179q0 -137 -129 -192zM837 1096q-57 0 -111 43q-8 4 -88 84q-80 -80 -88 -84q-53 -43 -110 -43q-74 0 -128.5 54t-54.5 128
q0 70 56 125q147 147 186 182q80 72 139 72q62 0 142 -72q26 -24 186 -182q55 -55 55 -125q0 -76 -54 -129t-130 -53z" />
    <glyph glyph-name="uni1ED4" unicode="&#x1ed4;" horiz-adv-x="1574" 
d="M843 -63q-325 0 -549.5 224t-224.5 550q0 325 224.5 549.5t549.5 224.5q326 0 550 -224.5t224 -549.5q0 -326 -224 -550t-550 -224zM843 1126q-178 0 -297 -118.5t-119 -296.5q0 -176 120 -296t296 -120t296 120t120 296t-120 295.5t-296 119.5zM1062 1505q-57 0 -110 43
q-9 4 -88 84q-80 -80 -88 -84q-54 -43 -111 -43q-74 0 -128 54.5t-54 128.5q0 69 55 124q147 148 186 183q80 71 140 71q61 0 141 -71q27 -25 186 -183q56 -55 56 -124q0 -76 -54.5 -129.5t-130.5 -53.5zM1041 2066q0 46 29.5 76t75.5 30h96q50 0 86 35.5t36 86.5t-36 86
t-86 35q-51 0 -86 -35t-35 -86q0 -46 -30 -76t-76 -30t-75.5 30t-29.5 76q0 141 95 236.5t237 95.5q141 0 237 -95.5t96 -236.5t-96 -237t-237 -96l-121 2q-80 17 -80 103z" />
    <glyph glyph-name="uni1ED5" unicode="&#x1ed5;" horiz-adv-x="1159" 
d="M632 -63q-239 0 -401 162.5t-162 402.5q0 239 162 401t401 162q240 0 402.5 -162t162.5 -401q0 -240 -162.5 -402.5t-402.5 -162.5zM632 707q-86 0 -145.5 -59.5t-59.5 -145.5t59.5 -146.5t145.5 -60.5t146.5 60.5t60.5 146.5t-60.5 145.5t-146.5 59.5zM810 1665
q0 46 29.5 76t75.5 30h95q51 0 86.5 35.5t35.5 86.5t-35.5 86t-86.5 35q-50 0 -85 -35t-35 -86q0 -46 -30.5 -76t-76.5 -30q-45 0 -75 30t-30 76q0 141 95.5 236.5t236.5 95.5t237 -95.5t96 -236.5t-96 -237t-237 -96l-120 2q-80 17 -80 103zM837 1096q-57 0 -111 43
q-8 4 -88 84q-80 -80 -88 -84q-53 -43 -110 -43q-74 0 -128.5 54t-54.5 128q0 70 56 125q147 147 186 182q80 72 139 72q62 0 142 -72q26 -24 186 -182q55 -55 55 -125q0 -76 -54 -129t-130 -53z" />
    <glyph glyph-name="uni1ED6" unicode="&#x1ed6;" horiz-adv-x="1574" 
d="M843 -63q-325 0 -549.5 224t-224.5 550q0 325 224.5 549.5t549.5 224.5q326 0 550 -224.5t224 -549.5q0 -326 -224 -550t-550 -224zM843 1126q-178 0 -297 -118.5t-119 -296.5q0 -176 120 -296t296 -120t296 120t120 296t-120 295.5t-296 119.5zM1062 1505q-57 0 -110 43
q-9 4 -88 84q-80 -80 -88 -84q-54 -43 -111 -43q-74 0 -128 54.5t-54 128.5q0 69 55 124q147 148 186 183q80 71 140 71q61 0 141 -71q27 -25 186 -183q56 -55 56 -124q0 -76 -54.5 -129.5t-130.5 -53.5zM1053 2446q49 45 113 45q75 0 129.5 -53t54.5 -129q0 -90 -87 -159.5
t-181 -69.5q-84 0 -220 71q-51 -47 -116 -47q-74 0 -128.5 54.5t-54.5 127.5q0 93 91 162q84 68 178 68q63 0 221 -70z" />
    <glyph glyph-name="uni1ED7" unicode="&#x1ed7;" horiz-adv-x="1159" 
d="M632 -63q-239 0 -401 162.5t-162 402.5q0 239 162 401t401 162q240 0 402.5 -162t162.5 -401q0 -240 -162.5 -402.5t-402.5 -162.5zM632 707q-86 0 -145.5 -59.5t-59.5 -145.5t59.5 -146.5t145.5 -60.5t146.5 60.5t60.5 146.5t-60.5 145.5t-146.5 59.5zM803 2027
q49 45 113 45q75 0 129.5 -53.5t54.5 -129.5q0 -90 -87 -159.5t-181 -69.5q-84 0 -219 72q-52 -47 -117 -47q-74 0 -128 54t-54 128q0 92 90 162q84 67 178 67q63 0 221 -69zM837 1096q-57 0 -111 43q-8 4 -88 84q-80 -80 -88 -84q-53 -43 -110 -43q-74 0 -128.5 54
t-54.5 128q0 70 56 125q147 147 186 182q80 72 139 72q62 0 142 -72q26 -24 186 -182q55 -55 55 -125q0 -76 -54 -129t-130 -53z" />
    <glyph glyph-name="uni1ED8" unicode="&#x1ed8;" horiz-adv-x="1574" 
d="M843 -63q-325 0 -549.5 224t-224.5 550q0 325 224.5 549.5t549.5 224.5q326 0 550 -224.5t224 -549.5q0 -326 -224 -550t-550 -224zM843 1126q-178 0 -297 -118.5t-119 -296.5q0 -176 120 -296t296 -120t296 120t120 296t-120 295.5t-296 119.5zM1062 1505q-57 0 -110 43
q-9 4 -88 84q-80 -80 -88 -84q-54 -43 -111 -43q-74 0 -128 54.5t-54 128.5q0 69 55 124q147 148 186 183q80 71 140 71q61 0 141 -71q27 -25 186 -183q56 -55 56 -124q0 -76 -54.5 -129.5t-130.5 -53.5zM844 -588q-88 0 -149.5 61.5t-61.5 149.5q0 90 60.5 149.5
t150.5 59.5q86 0 147.5 -61.5t61.5 -147.5q0 -90 -59.5 -150.5t-149.5 -60.5z" />
    <glyph glyph-name="uni1ED9" unicode="&#x1ed9;" horiz-adv-x="1159" 
d="M632 -63q-239 0 -401 162.5t-162 402.5q0 239 162 401t401 162q240 0 402.5 -162t162.5 -401q0 -240 -162.5 -402.5t-402.5 -162.5zM632 707q-86 0 -145.5 -59.5t-59.5 -145.5t59.5 -146.5t145.5 -60.5t146.5 60.5t60.5 146.5t-60.5 145.5t-146.5 59.5zM634 -588
q-88 0 -149.5 61.5t-61.5 149.5q0 90 60.5 149.5t150.5 59.5q86 0 147.5 -61.5t61.5 -147.5q0 -90 -59.5 -150.5t-149.5 -60.5zM837 1096q-57 0 -111 43q-8 4 -88 84q-80 -80 -88 -84q-53 -43 -110 -43q-74 0 -128.5 54t-54.5 128q0 70 56 125q147 147 186 182q80 72 139 72
q62 0 142 -72q26 -24 186 -182q55 -55 55 -125q0 -76 -54 -129t-130 -53z" />
    <glyph glyph-name="uni1EDA" unicode="&#x1eda;" horiz-adv-x="1574" 
d="M1089 1860l-96 -234q-54 -129 -195 -129q-88 0 -148.5 61.5t-60.5 149.5q0 61 49 178q23 45 64 135q57 129 192 129q93 0 152 -59t59 -152q0 -41 -16 -79zM843 1126q-178 0 -297 -118.5t-119 -296.5q0 -176 120 -296t296 -120t296 120t120 296t-120 295.5t-296 119.5z
M1393 1204q-56 0 -94.5 38.5t-38.5 94.5v159q0 55 38.5 93.5t94.5 38.5t94.5 -38.5t38.5 -93.5v-159q0 -56 -38.5 -94.5t-94.5 -38.5zM1462 1183q155 -201 155 -472q0 -326 -224 -550t-550 -224q-325 0 -549.5 224t-224.5 550q0 325 224.5 549.5t549.5 224.5q220 0 394 -103
v-58q0 -66 45.5 -111t111.5 -45q37 0 68 15z" />
    <glyph glyph-name="uni1EDB" unicode="&#x1edb;" horiz-adv-x="1159" 
d="M884 1450l-96 -233q-53 -130 -195 -130q-88 0 -148.5 61.5t-60.5 149.5q0 62 50 179q22 45 63 135q57 129 193 129q92 0 151 -59.5t59 -151.5q0 -41 -16 -80zM632 707q-86 0 -145.5 -59.5t-59.5 -145.5t59.5 -146.5t145.5 -60.5t146.5 60.5t60.5 146.5t-60.5 145.5
t-146.5 59.5zM1076 723q-56 0 -94.5 38.5t-38.5 94.5v159q0 55 38.5 93.5t94.5 38.5t94.5 -38.5t38.5 -93.5v-159q0 -56 -38.5 -94.5t-94.5 -38.5zM1163 706q34 -94 34 -204q0 -240 -162.5 -402.5t-402.5 -162.5q-239 0 -401 162.5t-162 402.5q0 239 162 401t401 162
q160 0 285 -72v-152q0 -67 46.5 -113t113.5 -46q48 0 86 24z" />
    <glyph glyph-name="uni1EDC" unicode="&#x1edc;" horiz-adv-x="1574" 
d="M843 1126q-178 0 -297 -118.5t-119 -296.5q0 -176 120 -296t296 -120t296 120t120 296t-120 295.5t-296 119.5zM894 1516q-43 -19 -82 -19q-137 0 -192 129q-21 45 -62 133q-51 119 -51 180q0 93 58.5 152t150.5 59q137 0 195 -129q22 -45 63 -135q49 -117 49 -178
q0 -137 -129 -192zM1393 1204q-56 0 -94.5 38.5t-38.5 94.5v159q0 55 38.5 93.5t94.5 38.5t94.5 -38.5t38.5 -93.5v-159q0 -56 -38.5 -94.5t-94.5 -38.5zM1462 1183q155 -201 155 -472q0 -326 -224 -550t-550 -224q-325 0 -549.5 224t-224.5 550q0 325 224.5 549.5
t549.5 224.5q220 0 394 -103v-58q0 -66 45.5 -111t111.5 -45q37 0 68 15z" />
    <glyph glyph-name="uni1EDD" unicode="&#x1edd;" horiz-adv-x="1159" 
d="M632 707q-86 0 -145.5 -59.5t-59.5 -145.5t59.5 -146.5t145.5 -60.5t146.5 60.5t60.5 146.5t-60.5 145.5t-146.5 59.5zM690 1106q-43 -19 -82 -19q-138 0 -193 130q-20 45 -61 133q-52 118 -52 180q0 92 58.5 151.5t150.5 59.5q138 0 195 -129q22 -45 63 -135
q50 -117 50 -179q0 -137 -129 -192zM1076 723q-56 0 -94.5 38.5t-38.5 94.5v159q0 55 38.5 93.5t94.5 38.5t94.5 -38.5t38.5 -93.5v-159q0 -56 -38.5 -94.5t-94.5 -38.5zM1163 706q34 -94 34 -204q0 -240 -162.5 -402.5t-402.5 -162.5q-239 0 -401 162.5t-162 402.5
q0 239 162 401t401 162q160 0 285 -72v-152q0 -67 46.5 -113t113.5 -46q48 0 86 24z" />
    <glyph glyph-name="uni1EDE" unicode="&#x1ede;" horiz-adv-x="1574" 
d="M843 1126q-178 0 -297 -118.5t-119 -296.5q0 -176 120 -296t296 -120t296 120t120 296t-120 295.5t-296 119.5zM651 1625q0 46 29.5 76t75.5 30h95q51 0 86.5 35.5t35.5 86.5t-35.5 86t-86.5 35q-50 0 -85 -35t-35 -86q0 -46 -30.5 -76t-76.5 -30q-45 0 -75 30t-30 76
q0 141 95.5 236.5t236.5 95.5t237 -95.5t96 -236.5t-96 -237t-237 -96l-120 2q-80 17 -80 103zM1393 1204q-56 0 -94.5 38.5t-38.5 94.5v159q0 55 38.5 93.5t94.5 38.5t94.5 -38.5t38.5 -93.5v-159q0 -56 -38.5 -94.5t-94.5 -38.5zM1462 1183q155 -201 155 -472
q0 -326 -224 -550t-550 -224q-325 0 -549.5 224t-224.5 550q0 325 224.5 549.5t549.5 224.5q220 0 394 -103v-58q0 -66 45.5 -111t111.5 -45q37 0 68 15z" />
    <glyph glyph-name="uni1EDF" unicode="&#x1edf;" horiz-adv-x="1159" 
d="M632 707q-86 0 -145.5 -59.5t-59.5 -145.5t59.5 -146.5t145.5 -60.5t146.5 60.5t60.5 146.5t-60.5 145.5t-146.5 59.5zM438 1243q0 46 29.5 76t75.5 30h95q51 0 86.5 35.5t35.5 86.5t-35.5 86t-86.5 35q-50 0 -85 -35t-35 -86q0 -46 -30.5 -76t-76.5 -30q-45 0 -75 30
t-30 76q0 141 95.5 236.5t236.5 95.5t237 -95.5t96 -236.5t-96 -237t-237 -96l-120 2q-80 17 -80 103zM1076 723q-56 0 -94.5 38.5t-38.5 94.5v159q0 55 38.5 93.5t94.5 38.5t94.5 -38.5t38.5 -93.5v-159q0 -56 -38.5 -94.5t-94.5 -38.5zM1163 706q34 -94 34 -204
q0 -240 -162.5 -402.5t-402.5 -162.5q-239 0 -401 162.5t-162 402.5q0 239 162 401t401 162q160 0 285 -72v-152q0 -67 46.5 -113t113.5 -46q48 0 86 24z" />
    <glyph glyph-name="uni1EE0" unicode="&#x1ee0;" horiz-adv-x="1574" 
d="M843 1126q-178 0 -297 -118.5t-119 -296.5q0 -176 120 -296t296 -120t296 120t120 296t-120 295.5t-296 119.5zM958 1884q49 45 112 45q76 0 130.5 -53t54.5 -129q0 -90 -87 -159.5t-181 -69.5q-84 0 -220 71q-51 -47 -116 -47q-74 0 -128.5 54.5t-54.5 127.5
q0 93 90 162q84 68 179 68q63 0 221 -70zM1393 1204q-56 0 -94.5 38.5t-38.5 94.5v159q0 55 38.5 93.5t94.5 38.5t94.5 -38.5t38.5 -93.5v-159q0 -56 -38.5 -94.5t-94.5 -38.5zM1462 1183q155 -201 155 -472q0 -326 -224 -550t-550 -224q-325 0 -549.5 224t-224.5 550
q0 325 224.5 549.5t549.5 224.5q220 0 394 -103v-58q0 -66 45.5 -111t111.5 -45q37 0 68 15z" />
    <glyph glyph-name="uni1EE1" unicode="&#x1ee1;" horiz-adv-x="1159" 
d="M632 707q-86 0 -145.5 -59.5t-59.5 -145.5t59.5 -146.5t145.5 -60.5t146.5 60.5t60.5 146.5t-60.5 145.5t-146.5 59.5zM753 1475q49 45 113 45q75 0 129.5 -53.5t54.5 -129.5q0 -90 -87 -159.5t-181 -69.5q-84 0 -219 72q-52 -47 -117 -47q-74 0 -128 54t-54 128
q0 92 90 162q84 67 178 67q63 0 221 -69zM1076 723q-56 0 -94.5 38.5t-38.5 94.5v159q0 55 38.5 93.5t94.5 38.5t94.5 -38.5t38.5 -93.5v-159q0 -56 -38.5 -94.5t-94.5 -38.5zM1163 706q34 -94 34 -204q0 -240 -162.5 -402.5t-402.5 -162.5q-239 0 -401 162.5t-162 402.5
q0 239 162 401t401 162q160 0 285 -72v-152q0 -67 46.5 -113t113.5 -46q48 0 86 24z" />
    <glyph glyph-name="uni1EE2" unicode="&#x1ee2;" horiz-adv-x="1574" 
d="M843 1126q-178 0 -297 -118.5t-119 -296.5q0 -176 120 -296t296 -120t296 120t120 296t-120 295.5t-296 119.5zM844 -588q-88 0 -149.5 61.5t-61.5 149.5q0 90 60.5 149.5t150.5 59.5q86 0 147.5 -61.5t61.5 -147.5q0 -90 -59.5 -150.5t-149.5 -60.5zM1393 1204
q-56 0 -94.5 38.5t-38.5 94.5v159q0 55 38.5 93.5t94.5 38.5t94.5 -38.5t38.5 -93.5v-159q0 -56 -38.5 -94.5t-94.5 -38.5zM1462 1183q155 -201 155 -472q0 -326 -224 -550t-550 -224q-325 0 -549.5 224t-224.5 550q0 325 224.5 549.5t549.5 224.5q220 0 394 -103v-58
q0 -66 45.5 -111t111.5 -45q37 0 68 15z" />
    <glyph glyph-name="uni1EE3" unicode="&#x1ee3;" horiz-adv-x="1159" 
d="M632 707q-86 0 -145.5 -59.5t-59.5 -145.5t59.5 -146.5t145.5 -60.5t146.5 60.5t60.5 146.5t-60.5 145.5t-146.5 59.5zM634 -588q-88 0 -149.5 61.5t-61.5 149.5q0 90 60.5 149.5t150.5 59.5q86 0 147.5 -61.5t61.5 -147.5q0 -90 -59.5 -150.5t-149.5 -60.5zM1076 723
q-56 0 -94.5 38.5t-38.5 94.5v159q0 55 38.5 93.5t94.5 38.5t94.5 -38.5t38.5 -93.5v-159q0 -56 -38.5 -94.5t-94.5 -38.5zM1163 706q34 -94 34 -204q0 -240 -162.5 -402.5t-402.5 -162.5q-239 0 -401 162.5t-162 402.5q0 239 162 401t401 162q160 0 285 -72v-152
q0 -67 46.5 -113t113.5 -46q48 0 86 24z" />
    <glyph glyph-name="uni1EE4" unicode="&#x1ee4;" horiz-adv-x="995" 
d="M552 -59q-207 0 -345 138t-138 345v883q0 77 50 127.5t128 50.5t129 -50.5t51 -127.5v-883q0 -53 36 -89t89 -36q54 0 88.5 36t34.5 89v885q0 75 52.5 127.5t127.5 52.5q78 0 128.5 -51.5t50.5 -128.5v-885q0 -205 -138.5 -344t-343.5 -139zM552 -588q-88 0 -149.5 61.5
t-61.5 149.5q0 90 60.5 149.5t150.5 59.5q86 0 147.5 -61.5t61.5 -147.5q0 -90 -59.5 -150.5t-149.5 -60.5z" />
    <glyph glyph-name="uni1EE5" unicode="&#x1ee5;" horiz-adv-x="995" 
d="M552 -59q-207 0 -345 138t-138 345v459q0 78 50 129t128 51t129 -51t51 -129v-459q0 -53 36 -89t89 -36q54 0 88.5 36t34.5 89v463q0 78 51.5 128t128.5 50q78 0 128.5 -50t50.5 -128v-463q0 -205 -138.5 -344t-343.5 -139zM552 -588q-88 0 -149.5 61.5t-61.5 149.5
q0 90 60.5 149.5t150.5 59.5q86 0 147.5 -61.5t61.5 -147.5q0 -90 -59.5 -150.5t-149.5 -60.5z" />
    <glyph glyph-name="uni1EE6" unicode="&#x1ee6;" horiz-adv-x="995" 
d="M552 -59q-207 0 -345 138t-138 345v883q0 77 50 127.5t128 50.5t129 -50.5t51 -127.5v-883q0 -53 36 -89t89 -36q54 0 88.5 36t34.5 89v885q0 75 52.5 127.5t127.5 52.5q78 0 128.5 -51.5t50.5 -128.5v-885q0 -205 -138.5 -344t-343.5 -139zM370 1625q0 46 29.5 76
t75.5 30h95q51 0 86.5 35.5t35.5 86.5t-35.5 86t-86.5 35q-50 0 -85 -35t-35 -86q0 -46 -30.5 -76t-76.5 -30q-45 0 -75 30t-30 76q0 141 95.5 236.5t236.5 95.5t237 -95.5t96 -236.5t-96 -237t-237 -96l-120 2q-80 17 -80 103z" />
    <glyph glyph-name="uni1EE7" unicode="&#x1ee7;" horiz-adv-x="995" 
d="M552 -59q-207 0 -345 138t-138 345v459q0 78 50 129t128 51t129 -51t51 -129v-459q0 -53 36 -89t89 -36q54 0 88.5 36t34.5 89v463q0 78 51.5 128t128.5 50q78 0 128.5 -50t50.5 -128v-463q0 -205 -138.5 -344t-343.5 -139zM368 1243q0 46 29.5 76t75.5 30h95
q51 0 86.5 35.5t35.5 86.5t-35.5 86t-86.5 35q-50 0 -85 -35t-35 -86q0 -46 -30.5 -76t-76.5 -30q-45 0 -75 30t-30 76q0 141 95.5 236.5t236.5 95.5t237 -95.5t96 -236.5t-96 -237t-237 -96l-120 2q-80 17 -80 103z" />
    <glyph glyph-name="uni1EE8" unicode="&#x1ee8;" horiz-adv-x="995" 
d="M864 1860l-97 -234q-53 -129 -194 -129q-88 0 -148.5 61.5t-60.5 149.5q0 61 49 178q23 45 64 135q57 129 192 129q92 0 151.5 -59t59.5 -152q0 -41 -16 -79zM1067 1191q-56 0 -94.5 38.5t-38.5 94.5v159q0 55 38.5 93.5t94.5 38.5t94.5 -38.5t38.5 -93.5v-159
q0 -56 -38.5 -94.5t-94.5 -38.5zM1034 1158v-734q0 -205 -138.5 -344t-343.5 -139q-207 0 -345 138t-138 345v883q0 77 50 127.5t128 50.5t129 -50.5t51 -127.5v-883q0 -53 36 -89t89 -36q54 0 88.5 36t34.5 89v885q0 75 52.5 127.5t127.5 52.5q30 0 56 -8v-170
q0 -66 46 -111q33 -33 77 -42z" />
    <glyph glyph-name="uni1EE9" unicode="&#x1ee9;" horiz-adv-x="995" 
d="M864 1450l-97 -233q-53 -130 -194 -130q-88 0 -148.5 61.5t-60.5 149.5q0 62 49 179q23 45 64 135q57 129 192 129q92 0 151.5 -59.5t59.5 -151.5q0 -41 -16 -80zM1067 723q-56 0 -94.5 38.5t-38.5 94.5v159q0 55 38.5 93.5t94.5 38.5t94.5 -38.5t38.5 -93.5v-159
q0 -56 -38.5 -94.5t-94.5 -38.5zM1034 685v-261q0 -205 -138.5 -344t-343.5 -139q-207 0 -345 138t-138 345v459q0 78 50 129t128 51t129 -51t51 -129v-459q0 -53 36 -89t89 -36q54 0 88.5 36t34.5 89v463q0 78 51.5 128t128.5 50q29 0 55 -7q-2 -13 -2 -26v-191
q0 -67 47 -113q34 -34 79 -43z" />
    <glyph glyph-name="uni1EEA" unicode="&#x1eea;" horiz-adv-x="995" 
d="M690 1516q-43 -19 -82 -19q-138 0 -193 129q-20 45 -61 133q-52 119 -52 180q0 93 58.5 152t150.5 59q138 0 195 -129q22 -45 63 -135q50 -117 50 -178q0 -137 -129 -192zM1067 1191q-56 0 -94.5 38.5t-38.5 94.5v159q0 55 38.5 93.5t94.5 38.5t94.5 -38.5t38.5 -93.5
v-159q0 -56 -38.5 -94.5t-94.5 -38.5zM1034 1158v-734q0 -205 -138.5 -344t-343.5 -139q-207 0 -345 138t-138 345v883q0 77 50 127.5t128 50.5t129 -50.5t51 -127.5v-883q0 -53 36 -89t89 -36q54 0 88.5 36t34.5 89v885q0 75 52.5 127.5t127.5 52.5q30 0 56 -8v-170
q0 -66 46 -111q33 -33 77 -42z" />
    <glyph glyph-name="uni1EEB" unicode="&#x1eeb;" horiz-adv-x="995" 
d="M649 1106q-43 -19 -82 -19q-138 0 -193 130q-20 45 -61 133q-51 118 -51 180q0 92 58 151.5t150 59.5q138 0 195 -129q22 -45 63 -135q50 -117 50 -179q0 -137 -129 -192zM1067 723q-56 0 -94.5 38.5t-38.5 94.5v159q0 55 38.5 93.5t94.5 38.5t94.5 -38.5t38.5 -93.5
v-159q0 -56 -38.5 -94.5t-94.5 -38.5zM1034 685v-261q0 -205 -138.5 -344t-343.5 -139q-207 0 -345 138t-138 345v459q0 78 50 129t128 51t129 -51t51 -129v-459q0 -53 36 -89t89 -36q54 0 88.5 36t34.5 89v463q0 78 51.5 128t128.5 50q29 0 55 -7q-2 -13 -2 -26v-191
q0 -67 47 -113q34 -34 79 -43z" />
    <glyph glyph-name="uni1EEC" unicode="&#x1eec;" horiz-adv-x="995" 
d="M370 1625q0 46 29.5 76t75.5 30h95q51 0 86.5 35.5t35.5 86.5t-35.5 86t-86.5 35q-50 0 -85 -35t-35 -86q0 -46 -30.5 -76t-76.5 -30q-45 0 -75 30t-30 76q0 141 95.5 236.5t236.5 95.5t237 -95.5t96 -236.5t-96 -237t-237 -96l-120 2q-80 17 -80 103zM1067 1191
q-56 0 -94.5 38.5t-38.5 94.5v159q0 55 38.5 93.5t94.5 38.5t94.5 -38.5t38.5 -93.5v-159q0 -56 -38.5 -94.5t-94.5 -38.5zM1034 1158v-734q0 -205 -138.5 -344t-343.5 -139q-207 0 -345 138t-138 345v883q0 77 50 127.5t128 50.5t129 -50.5t51 -127.5v-883q0 -53 36 -89
t89 -36q54 0 88.5 36t34.5 89v885q0 75 52.5 127.5t127.5 52.5q30 0 56 -8v-170q0 -66 46 -111q33 -33 77 -42z" />
    <glyph glyph-name="uni1EED" unicode="&#x1eed;" horiz-adv-x="995" 
d="M368 1243q0 46 29.5 76t75.5 30h95q51 0 86.5 35.5t35.5 86.5t-35.5 86t-86.5 35q-50 0 -85 -35t-35 -86q0 -46 -30.5 -76t-76.5 -30q-45 0 -75 30t-30 76q0 141 95.5 236.5t236.5 95.5t237 -95.5t96 -236.5t-96 -237t-237 -96l-120 2q-80 17 -80 103zM1067 723
q-56 0 -94.5 38.5t-38.5 94.5v159q0 55 38.5 93.5t94.5 38.5t94.5 -38.5t38.5 -93.5v-159q0 -56 -38.5 -94.5t-94.5 -38.5zM1034 685v-261q0 -205 -138.5 -344t-343.5 -139q-207 0 -345 138t-138 345v459q0 78 50 129t128 51t129 -51t51 -129v-459q0 -53 36 -89t89 -36
q54 0 88.5 36t34.5 89v463q0 78 51.5 128t128.5 50q29 0 55 -7q-2 -13 -2 -26v-191q0 -67 47 -113q34 -34 79 -43z" />
    <glyph glyph-name="uni1EEE" unicode="&#x1eee;" horiz-adv-x="995" 
d="M677 1884q49 45 112 45q76 0 130.5 -53t54.5 -129q0 -90 -87 -159.5t-181 -69.5q-84 0 -220 71q-51 -47 -116 -47q-74 0 -128.5 54.5t-54.5 127.5q0 93 90 162q84 68 179 68q63 0 221 -70zM1067 1191q-56 0 -94.5 38.5t-38.5 94.5v159q0 55 38.5 93.5t94.5 38.5
t94.5 -38.5t38.5 -93.5v-159q0 -56 -38.5 -94.5t-94.5 -38.5zM1034 1158v-734q0 -205 -138.5 -344t-343.5 -139q-207 0 -345 138t-138 345v883q0 77 50 127.5t128 50.5t129 -50.5t51 -127.5v-883q0 -53 36 -89t89 -36q54 0 88.5 36t34.5 89v885q0 75 52.5 127.5t127.5 52.5
q30 0 56 -8v-170q0 -66 46 -111q33 -33 77 -42z" />
    <glyph glyph-name="uni1EEF" unicode="&#x1eef;" horiz-adv-x="995" 
d="M673 1475q49 45 113 45q75 0 129.5 -53.5t54.5 -129.5q0 -90 -87 -159.5t-181 -69.5q-84 0 -219 72q-52 -47 -117 -47q-74 0 -128 54t-54 128q0 92 90 162q84 67 178 67q63 0 221 -69zM1067 723q-56 0 -94.5 38.5t-38.5 94.5v159q0 55 38.5 93.5t94.5 38.5t94.5 -38.5
t38.5 -93.5v-159q0 -56 -38.5 -94.5t-94.5 -38.5zM1034 685v-261q0 -205 -138.5 -344t-343.5 -139q-207 0 -345 138t-138 345v459q0 78 50 129t128 51t129 -51t51 -129v-459q0 -53 36 -89t89 -36q54 0 88.5 36t34.5 89v463q0 78 51.5 128t128.5 50q29 0 55 -7q-2 -13 -2 -26
v-191q0 -67 47 -113q34 -34 79 -43z" />
    <glyph glyph-name="uni1EF0" unicode="&#x1ef0;" horiz-adv-x="995" 
d="M552 -588q-88 0 -149.5 61.5t-61.5 149.5q0 90 60.5 149.5t150.5 59.5q86 0 147.5 -61.5t61.5 -147.5q0 -90 -59.5 -150.5t-149.5 -60.5zM1067 1191q-56 0 -94.5 38.5t-38.5 94.5v159q0 55 38.5 93.5t94.5 38.5t94.5 -38.5t38.5 -93.5v-159q0 -56 -38.5 -94.5
t-94.5 -38.5zM1034 1158v-734q0 -205 -138.5 -344t-343.5 -139q-207 0 -345 138t-138 345v883q0 77 50 127.5t128 50.5t129 -50.5t51 -127.5v-883q0 -53 36 -89t89 -36q54 0 88.5 36t34.5 89v885q0 75 52.5 127.5t127.5 52.5q30 0 56 -8v-170q0 -66 46 -111q33 -33 77 -42z
" />
    <glyph glyph-name="uni1EF1" unicode="&#x1ef1;" horiz-adv-x="995" 
d="M552 -588q-88 0 -149.5 61.5t-61.5 149.5q0 90 60.5 149.5t150.5 59.5q86 0 147.5 -61.5t61.5 -147.5q0 -90 -59.5 -150.5t-149.5 -60.5zM1067 723q-56 0 -94.5 38.5t-38.5 94.5v159q0 55 38.5 93.5t94.5 38.5t94.5 -38.5t38.5 -93.5v-159q0 -56 -38.5 -94.5t-94.5 -38.5
zM1034 685v-261q0 -205 -138.5 -344t-343.5 -139q-207 0 -345 138t-138 345v459q0 78 50 129t128 51t129 -51t51 -129v-459q0 -53 36 -89t89 -36q54 0 88.5 36t34.5 89v463q0 78 51.5 128t128.5 50q29 0 55 -7q-2 -13 -2 -26v-191q0 -67 47 -113q34 -34 79 -43z" />
    <glyph glyph-name="Ygrave" unicode="&#x1ef2;" horiz-adv-x="995" 
d="M552 -59q-207 0 -345 138t-138 345v20q0 78 50 128.5t128 50.5t129 -50.5t51 -128.5v-20q0 -53 36 -89t89 -36q54 0 88.5 36t34.5 89v229q-59 -16 -123 -16q-207 0 -345 138t-138 345v187q0 77 50 127.5t128 50.5t129 -50.5t51 -127.5v-187q0 -53 36 -89t89 -36
q54 0 88.5 36t34.5 89v187q0 75 52.5 126.5t127.5 51.5q78 0 128.5 -50.5t50.5 -127.5v-883q0 -205 -138.5 -344t-343.5 -139zM639 1516q-43 -19 -82 -19q-138 0 -193 129q-20 45 -61 133q-52 119 -52 180q0 93 58.5 152t150.5 59q138 0 195 -129q22 -45 63 -135
q50 -117 50 -178q0 -137 -129 -192z" />
    <glyph glyph-name="ygrave" unicode="&#x1ef3;" horiz-adv-x="995" 
d="M673 -45q-57 -14 -121 -14q-207 0 -345 138t-138 345v463q0 78 50 128t128 50q80 0 130 -49t50 -129v-463q0 -53 36 -89t89 -36q54 0 88.5 36t34.5 89v463q0 78 51.5 128t128.5 50q78 0 128.5 -50t50.5 -128v-914q0 -204 -139.5 -343.5t-344.5 -139.5h-8q-78 0 -129 50
t-51 128t51 129t129 51h8q45 0 81 31t42 76zM648 1106q-43 -19 -82 -19q-137 0 -192 130q-21 45 -62 133q-51 118 -51 180q0 92 58.5 151.5t150.5 59.5q137 0 194 -129q23 -45 64 -135q49 -117 49 -179q0 -137 -129 -192z" />
    <glyph glyph-name="uni1EF4" unicode="&#x1ef4;" horiz-adv-x="995" 
d="M552 -59q-207 0 -345 138t-138 345v20q0 78 50 128.5t128 50.5t129 -50.5t51 -128.5v-20q0 -53 36 -89t89 -36q54 0 88.5 36t34.5 89v229q-59 -16 -123 -16q-207 0 -345 138t-138 345v187q0 77 50 127.5t128 50.5t129 -50.5t51 -127.5v-187q0 -53 36 -89t89 -36
q54 0 88.5 36t34.5 89v187q0 75 52.5 126.5t127.5 51.5q78 0 128.5 -50.5t50.5 -127.5v-883q0 -205 -138.5 -344t-343.5 -139zM551 -588q-88 0 -149.5 61.5t-61.5 149.5q0 90 60.5 149.5t150.5 59.5q86 0 147.5 -61.5t61.5 -147.5q0 -90 -59.5 -150.5t-149.5 -60.5z" />
    <glyph glyph-name="uni1EF5" unicode="&#x1ef5;" horiz-adv-x="995" 
d="M824 -588q-88 0 -149.5 61.5t-61.5 149.5q0 90 60.5 149.5t150.5 59.5q86 0 147.5 -61.5t61.5 -147.5q0 -90 -59.5 -150.5t-149.5 -60.5zM619 -506q-33 -4 -69 -4h-8q-78 0 -129.5 50t-51.5 128t51.5 129t129.5 51h8q45 0 81 31t42 76q-58 -14 -121 -14q-207 0 -345 138
t-138 345v463q0 78 50 128t128 50q80 0 130 -49t50 -129v-463q0 -53 36 -89t89 -36t88 36t35 89v463q0 78 51 128t129 50t128 -50t50 -128v-914q0 -102 -35 -188l-6 6q-70 70 -168 70q-103 0 -172 -68t-69 -170q0 -72 36 -129z" />
    <glyph glyph-name="uni1EF6" unicode="&#x1ef6;" horiz-adv-x="995" 
d="M552 -59q-207 0 -345 138t-138 345v20q0 78 50 128.5t128 50.5t129 -50.5t51 -128.5v-20q0 -53 36 -89t89 -36q54 0 88.5 36t34.5 89v229q-59 -16 -123 -16q-207 0 -345 138t-138 345v187q0 77 50 127.5t128 50.5t129 -50.5t51 -127.5v-187q0 -53 36 -89t89 -36
q54 0 88.5 36t34.5 89v187q0 75 52.5 126.5t127.5 51.5q78 0 128.5 -50.5t50.5 -127.5v-883q0 -205 -138.5 -344t-343.5 -139zM369 1625q0 46 29.5 76t75.5 30h95q51 0 86.5 35.5t35.5 86.5t-35.5 86t-86.5 35q-50 0 -85 -35t-35 -86q0 -46 -30.5 -76t-76.5 -30
q-45 0 -75 30t-30 76q0 141 95.5 236.5t236.5 95.5t237 -95.5t96 -236.5t-96 -237t-237 -96l-120 2q-80 17 -80 103z" />
    <glyph glyph-name="uni1EF7" unicode="&#x1ef7;" horiz-adv-x="995" 
d="M673 -45q-57 -14 -121 -14q-207 0 -345 138t-138 345v463q0 78 50 128t128 50q80 0 130 -49t50 -129v-463q0 -53 36 -89t89 -36q54 0 88.5 36t34.5 89v463q0 78 51.5 128t128.5 50q78 0 128.5 -50t50.5 -128v-914q0 -204 -139.5 -343.5t-344.5 -139.5h-8q-78 0 -129 50
t-51 128t51 129t129 51h8q45 0 81 31t42 76zM368 1243q0 46 29.5 76t75.5 30h95q51 0 86.5 35.5t35.5 86.5t-35.5 86t-86.5 35q-50 0 -85 -35t-35 -86q0 -46 -30.5 -76t-76.5 -30q-45 0 -75 30t-30 76q0 141 95.5 236.5t236.5 95.5t237 -95.5t96 -236.5t-96 -237t-237 -96
l-120 2q-80 17 -80 103z" />
    <glyph glyph-name="uni1EF8" unicode="&#x1ef8;" horiz-adv-x="995" 
d="M552 -59q-207 0 -345 138t-138 345v20q0 78 50 128.5t128 50.5t129 -50.5t51 -128.5v-20q0 -53 36 -89t89 -36q54 0 88.5 36t34.5 89v229q-59 -16 -123 -16q-207 0 -345 138t-138 345v187q0 77 50 127.5t128 50.5t129 -50.5t51 -127.5v-187q0 -53 36 -89t89 -36
q54 0 88.5 36t34.5 89v187q0 75 52.5 126.5t127.5 51.5q78 0 128.5 -50.5t50.5 -127.5v-883q0 -205 -138.5 -344t-343.5 -139zM676 1884q49 45 112 45q76 0 130.5 -53t54.5 -129q0 -90 -87 -159.5t-181 -69.5q-84 0 -220 71q-51 -47 -116 -47q-74 0 -128.5 54.5t-54.5 127.5
q0 93 90 162q84 68 179 68q63 0 221 -70z" />
    <glyph glyph-name="uni1EF9" unicode="&#x1ef9;" horiz-adv-x="995" 
d="M673 -45q-57 -14 -121 -14q-207 0 -345 138t-138 345v463q0 78 50 128t128 50q80 0 130 -49t50 -129v-463q0 -53 36 -89t89 -36q54 0 88.5 36t34.5 89v463q0 78 51.5 128t128.5 50q78 0 128.5 -50t50.5 -128v-914q0 -204 -139.5 -343.5t-344.5 -139.5h-8q-78 0 -129 50
t-51 128t51 129t129 51h8q45 0 81 31t42 76zM672 1475q50 45 113 45q76 0 130 -53.5t54 -129.5q0 -90 -87 -159.5t-181 -69.5q-84 0 -219 72q-51 -47 -117 -47q-74 0 -128 54t-54 128q0 92 90 162q84 67 178 67q64 0 221 -69z" />
    <glyph glyph-name="quoteleft" unicode="&#x2018;" horiz-adv-x="389" 
d="M247 813q-88 0 -149.5 60.5t-61.5 148.5v252q0 88 61.5 149.5t149.5 61.5t149.5 -61.5t61.5 -149.5v-252q0 -88 -61.5 -148.5t-149.5 -60.5z" />
    <glyph glyph-name="quoteright" unicode="&#x2019;" horiz-adv-x="389" 
d="M247 813q-88 0 -149.5 60.5t-61.5 148.5v252q0 88 61.5 149.5t149.5 61.5t149.5 -61.5t61.5 -149.5v-252q0 -88 -61.5 -148.5t-149.5 -60.5z" />
    <glyph glyph-name="quotedblleft" unicode="&#x201c;" horiz-adv-x="849" 
d="M702 813q-86 0 -147.5 61.5t-61.5 147.5v252q0 88 60.5 149.5t148.5 61.5t149.5 -61.5t61.5 -149.5v-252q0 -90 -60.5 -149.5t-150.5 -59.5zM247 813q-88 0 -149.5 60.5t-61.5 148.5v252q0 88 61.5 149.5t149.5 61.5t149.5 -61.5t61.5 -149.5v-252q0 -88 -61.5 -148.5
t-149.5 -60.5z" />
    <glyph glyph-name="quotedblright" unicode="&#x201d;" horiz-adv-x="849" 
d="M702 813q-86 0 -147.5 61.5t-61.5 147.5v252q0 88 60.5 149.5t148.5 61.5t149.5 -61.5t61.5 -149.5v-252q0 -90 -60.5 -149.5t-150.5 -59.5zM247 813q-88 0 -149.5 60.5t-61.5 148.5v252q0 88 61.5 149.5t149.5 61.5t149.5 -61.5t61.5 -149.5v-252q0 -88 -61.5 -148.5
t-149.5 -60.5z" />
    <glyph glyph-name="ellipsis" unicode="&#x2026;" horiz-adv-x="1386" 
d="M1216 -41q-90 0 -149.5 60.5t-59.5 150.5q0 86 61.5 147.5t147.5 61.5q90 0 150.5 -59.5t60.5 -149.5q0 -88 -61.5 -149.5t-149.5 -61.5zM724 -41q-90 0 -149.5 60.5t-59.5 150.5q0 86 61.5 147.5t147.5 61.5q90 0 150.5 -59.5t60.5 -149.5q0 -88 -61.5 -149.5
t-149.5 -61.5zM247 -41q-88 0 -149.5 61.5t-61.5 149.5t61.5 148.5t149.5 60.5t149.5 -60.5t61.5 -148.5t-61.5 -149.5t-149.5 -61.5z" />
    <glyph glyph-name="ugrave" horiz-adv-x="582" 
 />
    <glyph glyph-name="uacute" horiz-adv-x="580" 
 />
    <glyph glyph-name="yacute" horiz-adv-x="629" 
 />
    </font>
</defs>
</svg>
