<svg xmlns="http://www.w3.org/2000/svg">
<defs>
<font id="UTMCookies" horiz-adv-x="1200" >
  <font-face 
    font-family="UTM Cookies"
    font-weight="400"
    font-stretch="normal"
    units-per-em="2048"
    panose-1="2 4 6 3 5 5 6 2 2 4"
    ascent="1638"
    descent="-410"
    x-height="1270"
    cap-height="1470"
    bbox="-111 -372 4942 2380"
    underline-thickness="109"
    underline-position="-250"
    unicode-range="U+0020-2026"
  />
<missing-glyph horiz-adv-x="5040" 
d="M3351 2045h10q37 -10 37 -52q0 -12 -32 -57h-28q0 24 28 54l2 10q-5 13 -10 15h-9q-8 0 -10 -19h-30q6 49 42 49zM2019 2016l29 -31q0 -16 -40 -30h-19l-59 12l-11 -12l-28 25q11 29 43 29h11l42 -11h2q10 0 30 18zM468 1980h142v-60h-94v-75h89v-59h-89v-129l-5 -5h-49
v323zM1155 1980h43l6 -5v-78h30v-52h-30v-188l-6 -5h-49v193h-25v52h25v78zM1621 1980h42l4 -5v-94h3q23 24 54 24h2q58 0 83 -71l2 -39v-143h-52v115q0 80 -42 80h-7q-43 0 -43 -86v-109h-51v323zM2200 1980h49l5 -5v-222q10 -51 45 -51q44 7 44 59v214l5 5h49v-216
q0 -85 -66 -112q-15 -8 -35 -8q-47 0 -82 55q-14 24 -14 57v224zM2435 1980h159v-60h-56v-268h-53v268h-55v55zM2621 1980h71q7 -4 83 -251h2l80 251h73v-328h-54v242h-2l-74 -242h-44q-4 0 -58 182l-19 60h-3v-242h-55v328zM3760 1980h52v-328h-45l-5 5v11l3 2l-3 14
q-29 -40 -78 -40q-67 0 -100 91l-5 39v3q0 94 92 125l23 3q35 0 63 -32h3v107zM2057 1928h36l4 -6v-49h-45v-221h-48v23q-23 -31 -59 -31q-89 14 -89 97v156h51v-104q0 -79 26 -86l18 -5h6q26 0 39 36l3 26v133h53v25zM3476 1928v-55h-31v-221h-47v25h-2q-15 -33 -57 -33
q-68 0 -86 78l-3 29v146h52v-120q0 -50 19 -68l21 -7h9q42 0 42 69v126h27q4 0 4 28l3 3h49zM758 1905q68 0 103 -77q9 -18 12 -54q0 -88 -90 -127l-32 -3q-63 0 -101 73q-12 22 -12 52v10q0 94 101 126h19zM1011 1905h3q74 0 83 -101v-152h-51v119q0 76 -42 76h-5
q-44 0 -44 -76v-119h-52v245h46v-21q30 29 62 29zM1466 1905h7q72 0 105 -89h-60q-16 31 -42 31h-17q-53 -14 -53 -61l-3 -15q12 -69 61 -69h9q22 0 47 27h40l2 3h3l2 -3l2 3l3 -3l2 3l2 -7q-33 -81 -110 -81q-76 0 -110 94l-4 36v3q0 85 77 120q15 8 37 8zM3141 1905h2

<glyph glyph-name=".notdef" horiz-adv-x="5040" 
d="M3351 2045h10q37 -10 37 -52q0 -12 -32 -57h-28q0 24 28 54l2 10q-5 13 -10 15h-9q-8 0 -10 -19h-30q6 49 42 49zM2019 2016l29 -31q0 -16 -40 -30h-19l-59 12l-11 -12l-28 25q11 29 43 29h11l42 -11h2q10 0 30 18zM468 1980h142v-60h-94v-75h89v-59h-89v-129l-5 -5h-49
v323zM1155 1980h43l6 -5v-78h30v-52h-30v-188l-6 -5h-49v193h-25v52h25v78zM1621 1980h42l4 -5v-94h3q23 24 54 24h2q58 0 83 -71l2 -39v-143h-52v115q0 80 -42 80h-7q-43 0 -43 -86v-109h-51v323zM2200 1980h49l5 -5v-222q10 -51 45 -51q44 7 44 59v214l5 5h49v-216
q0 -85 -66 -112q-15 -8 -35 -8q-47 0 -82 55q-14 24 -14 57v224zM2435 1980h159v-60h-56v-268h-53v268h-55v55zM2621 1980h71q7 -4 83 -251h2l80 251h73v-328h-54v242h-2l-74 -242h-44q-4 0 -58 182l-19 60h-3v-242h-55v328zM3760 1980h52v-328h-45l-5 5v11l3 2l-3 14
q-29 -40 -78 -40q-67 0 -100 91l-5 39v3q0 94 92 125l23 3q35 0 63 -32h3v107zM2057 1928h36l4 -6v-49h-45v-221h-48v23q-23 -31 -59 -31q-89 14 -89 97v156h51v-104q0 -79 26 -86l18 -5h6q26 0 39 36l3 26v133h53v25zM3476 1928v-55h-31v-221h-47v25h-2q-15 -33 -57 -33
q-68 0 -86 78l-3 29v146h52v-120q0 -50 19 -68l21 -7h9q42 0 42 69v126h27q4 0 4 28l3 3h49zM758 1905q68 0 103 -77q9 -18 12 -54q0 -88 -90 -127l-32 -3q-63 0 -101 73q-12 22 -12 52v10q0 94 101 126h19zM1011 1905h3q74 0 83 -101v-152h-51v119q0 76 -42 76h-5
q-44 0 -44 -76v-119h-52v245h46v-21q30 29 62 29zM1466 1905h7q72 0 105 -89h-60q-16 31 -42 31h-17q-53 -14 -53 -61l-3 -15q12 -69 61 -69h9q22 0 47 27h40l2 3h3l2 -3l2 3l3 -3l2 3l2 -7q-33 -81 -110 -81q-76 0 -110 94l-4 36v3q0 85 77 120q15 8 37 8zM3141 1905h2
q49 0 70 -60v-14h-52q0 16 -16 16h-4q-14 0 -19 -13v-13q0 -9 68 -35q30 -19 30 -59q0 -58 -61 -80l-23 -3q-76 12 -76 83h54q0 -20 27 -25h4q19 0 24 23q0 22 -68 44q-34 27 -34 59q0 66 74 77zM4203 1905q55 0 77 -63q7 -18 7 -65v-125h-52v112q0 83 -40 83h-11
q-33 0 -40 -54v-141h-52v5h-2l2 2v238h47v-21q25 29 64 29zM4432 1905h5q40 0 69 -40v18l-3 3l3 11h47v-208q0 -97 -85 -132l-33 -4h-7q-70 0 -104 80h59q24 -22 45 -23h13q22 0 43 22q15 13 22 52h-3q-32 -40 -73 -40q-57 0 -96 70q-10 18 -14 63q0 88 87 125zM3851 1897
h53v-136q6 -59 40 -59h7q46 0 46 93v102h51v-245h-47l-3 10h3l-3 3v5l3 2v3h-4q0 -23 -57 -31h-3q-59 0 -84 75l-2 85v93zM690 1771q10 -69 63 -69h7q59 14 59 65v15q-13 65 -59 65h-5q-58 0 -65 -76zM3630 1774q13 -72 61 -72h5q58 0 66 75q0 49 -51 70h-22q-37 0 -56 -57z
M4374 1774q8 -72 65 -72h5q59 12 59 72q0 61 -59 73h-14q-56 -16 -56 -62v-11zM3928 1620h52v-57h-52v57zM1054 1402q43 -11 43 -49v-4q0 -17 -32 -60h-28q0 25 31 57v7q0 12 -7 15h-12q-10 -4 -10 -19h-28v6q0 32 33 44zM3349 1339q92 0 138 -99h-60q-37 42 -80 42
q-55 0 -87 -68q-10 -22 -10 -47q0 -78 81 -110l18 -1q36 0 75 39h61q-44 -97 -138 -97q-93 0 -141 112q-10 31 -10 62q0 97 90 152q29 15 63 15zM3664 1339q57 0 103 -47q46 -51 46 -115v-20q0 -89 -91 -146q-33 -13 -63 -13q-89 0 -138 101q-13 33 -13 60v18q0 98 98 151
q29 11 58 11zM2261 1337h2l47 -11h3q11 0 26 11l18 -36q-18 -19 -35 -19h-3l-54 10l-20 -7l-20 36q18 16 36 16zM716 1334h19q118 0 129 -26q25 -26 25 -62q-10 -57 -30 -57v-6q47 -23 47 -66v-18q0 -63 -69 -88l-54 -5h-67v328zM2550 1334h53v-217q6 -61 45 -61q29 0 44 39
l3 30v203l4 6h45l5 -6v-171q0 -118 -40 -133q-24 -26 -64 -26q-55 0 -91 76l-4 54v206zM2805 1334h59q4 0 122 -237h4v237h50l4 -6v-322h-58q-29 48 -125 238h-3v-238h-53v328zM3101 1334h54v-328h-54v328zM3859 1334h8q155 0 174 -40q23 -11 47 -75l4 -36v-11l3 -2
q0 -94 -82 -149q-35 -15 -99 -15h-55v328zM4141 1334h153v-60h-103v-75h101v-57h-101v-74l4 -5h99v-57h-157v322zM3563 1175v-10q0 -76 79 -108l19 -1q68 0 96 86l3 20v15q0 61 -60 94q-12 8 -39 11q-66 0 -96 -83zM770 1274v-67h9q54 0 54 28l3 14q-11 25 -29 25h-37z
M3912 1274v-206l2 -3v-2q104 0 122 76l2 15v29q0 34 -32 68q-25 23 -78 23h-16zM1041 1259h5q38 0 71 -40v32h49v-245h-49v32q-36 -40 -80 -40q-75 0 -101 97l-5 36q0 89 85 125zM1314 1259h3q74 0 83 -102v-151h-51v128q0 67 -42 67h-10q-34 0 -39 -62v-133h-52v245h47v-21
q28 29 61 29zM1543 1259h5q45 0 71 -40v32h47v-219q0 -95 -104 -126h-16q-74 0 -108 82h59q26 -25 44 -25h14q52 0 64 77q-33 -42 -76 -42q-60 0 -101 81l-7 44v16q0 79 85 117zM1912 1259h2q43 0 61 -37h2q32 37 69 37h4q57 0 79 -55q8 -25 8 -45v-153h-52v138q0 44 -23 55
l-12 2h-15q-32 0 -36 -65v-130h-52v136q0 59 -43 59h-8q-32 0 -36 -57v-138h-54v245h50v-21h2q6 24 54 29zM2282 1259q47 0 75 -42v34h47v-245h-47v32q-36 -40 -78 -40q-74 0 -102 92l-6 41q0 90 85 125zM985 1117q0 -48 61 -61h4q45 0 62 46l3 15v22q-12 62 -57 62h-14
q-41 0 -59 -57v-27zM1487 1128q0 -48 43 -68l18 -4h5q47 0 63 57v23q-11 65 -58 65h-12q-50 0 -59 -73zM2225 1131v-14q15 -61 57 -61h14q58 12 58 64v11q0 45 -37 65l-18 5h-10q-64 -8 -64 -70zM770 1150v-82q0 -5 7 -5q77 0 77 45q0 34 -47 42h-37zM2966 753l24 -28
l-51 -55q-18 12 -27 26zM1524 727l85 -54q0 -15 -21 -42l-87 54q18 41 23 42zM2850 693h38l55 -60h-54l-21 26l-23 -26h-54q54 60 59 60zM3422 693h40l56 -60h-54l-24 26h-1q0 -5 -19 -26h-54zM622 685h52q8 -4 47 -137l34 -110q9 8 34 100l48 147h54v-2l-112 -326h-44z
M1159 685h51v-54h-51v54zM1354 685h46l6 -5v-323h-52v328zM2317 685h45l4 -5v-78h31v-52h-31v-193h-53v193h-26v52h26v78zM2425 685h52v-98h2q23 23 54 23h3q57 0 81 -71l3 -38v-144h-52v115q0 81 -39 81h-10q-42 0 -42 -87v-109h-52v328zM2664 685h52v-54h-52v54zM3028 685
h44l6 -5v-78h29v-52h-29v-193h-54v193h-27v52h27v78zM3234 685h52v-328h-52v328zM3957 685h52v-328h-52v328zM4316 685h51v-54h-51v54zM1555 610h5q83 0 110 -102l3 -23v-11q0 -83 -85 -120l-35 -5q-76 0 -111 97l-4 32q0 97 93 130zM1811 610h4q53 0 78 -60q7 -25 7 -81
v-112h-54v146q-7 50 -37 50h-10q-38 0 -42 -57v-139h-54v245h49v-21q26 29 59 29zM2046 610h4q45 0 63 -39h3v31h49v-206q0 -102 -89 -135l-28 -3h-5q-73 0 -106 81h52l37 -20l15 -3h14q50 0 61 72q-33 -39 -73 -39q-62 0 -98 76q-11 23 -12 60q0 85 86 123zM2866 610h2
q82 0 111 -104l2 -25l-2 -27h-172q15 -45 45 -45l14 -3q29 0 49 22h57v-3q-35 -76 -108 -76q-77 0 -111 97l-1 28v8q0 49 32 89q34 39 82 39zM3429 610h5q41 0 70 -39h2v31h47v-245h-47v31h-2q-35 -39 -77 -39q-71 0 -101 89l-5 36v14q0 86 84 120zM3711 610h7
q88 0 107 -128l-2 -1v-15q0 -65 -66 -106q-21 -11 -46 -11q-34 0 -64 32v-99l-5 -5h-49v325h49v-28q31 36 69 36zM4151 610q44 0 75 -39v31h49v-245h-49v31q-35 -39 -77 -39q-92 0 -108 132q0 84 73 121q15 8 37 8zM922 602h50v-136q3 -60 42 -60h5q44 0 44 87v109h52v-245
h-47v24h-5q0 -23 -56 -32h-3q-55 0 -82 68q-4 35 -4 99v81zM1159 602h51v-245h-51v245zM2664 602h52v-245h-52v245zM4316 602h51v-245h-51v245zM1492 488v-16q13 -66 59 -66h4q59 0 66 76q-13 71 -59 71h-11q-59 -16 -59 -65zM1987 472q15 -66 59 -66h11q48 0 59 75v1
q-13 71 -59 71h-14q-39 0 -56 -57v-24zM2805 506h122v2q-16 45 -59 45h-7q-35 0 -56 -47zM3373 474q13 -68 61 -68h5q52 0 65 63v12q-10 72 -57 72h-16q-56 -14 -56 -63zM3642 478q12 -72 61 -72h3q50 0 65 60v22q0 43 -49 65h-22q-47 0 -58 -72v-3zM4095 472q10 -66 66 -66
q43 0 61 48l2 15v16q0 54 -52 68h-18q-42 0 -59 -60v-21zM3416 321h51v-52h-51v52zM4137 321h51v-52h-51v52zM2733 133h4q35 0 43 -50v-2q0 -16 -24 -41l-10 -17h-28q0 25 28 56l3 2v2q-3 19 -9 19h-10q-8 0 -9 -19h-30q6 50 42 50zM1546 116l52 -60l-26 -19l-52 52zM352 79
h4q75 -48 85 -60l-20 -37q-88 49 -88 58zM3490 79l86 -58l-18 -39q-10 0 -91 55q15 36 23 42zM4578 76l19 -42l-91 -52l-20 39l92 58v-3zM1204 53h51v-19l5 -5h14v-36h-14l-5 -5v-279h-46v31q-34 -40 -81 -40q-72 0 -102 105l-3 26q0 102 101 131h14q33 0 66 -33v59l-6 5
h-43v36h49v24zM1480 45h40l56 -61h-53l-23 27l-23 -27h-53zM2641 45h33q12 0 63 -61h-54l-23 27q-19 -21 -19 -27h-58v4zM49 37h160v-60h-56v-268h-50l-4 5v245l2 3v2l-2 2l2 3l-2 2l2 3l-2 3h-54v54zM699 37h47v-73l2 -2l-2 -3v-3l2 -2l-2 -3v-3l2 -2v-2l-2 -3l2 -3h3
q17 24 51 24h3q53 0 77 -58q7 -17 7 -42v-153h-52v127q0 68 -40 68h-8q-43 0 -43 -86v-109h-52v322zM1297 37h47l5 -6v-49h-52v55zM1987 37h52v-198l70 115h62l-78 -118l90 -125v-2h-70q-10 22 -74 115v-115h-52v328zM2271 37v-99q24 24 53 24q57 0 80 -56q10 -19 10 -77
v-120h-54v133q0 62 -41 62h-11q-31 0 -37 -55v-140h-53v314l-1 3v3l1 2l-1 3l1 3h53zM2458 37h51v-55h-51v55zM3148 37h51v-108q27 33 68 33h3q75 0 105 -94l5 -37q0 -75 -64 -120q-30 -11 -49 -11q-41 0 -72 40v-31h-47v328zM4275 37h52v-99h2q23 24 54 24h3q60 0 82 -74
l2 -41v-138h-52v111q0 82 -32 82l-10 2h-12q-37 0 -37 -80v-115h-52v328zM329 -38h3v-58h-5q-42 0 -42 -57v-138h-53v245h47v-21q18 29 50 29zM564 -38q71 0 86 -87v-166h-51v136q-6 59 -41 59h-6q-45 0 -45 -84v-111h-52v245h50v-21q25 29 59 29zM1504 -38q72 0 105 -94
l5 -39q-2 -24 -7 -24h-169q17 -47 62 -47q24 0 48 21h57q-33 -79 -108 -79q-82 0 -113 105v37q0 81 89 117zM2657 -38h5q77 0 107 -97l3 -26v-21l-3 -13h-170q18 -47 53 -47h12q21 0 42 21h59q-34 -79 -105 -79q-84 0 -115 102l-2 29q0 93 91 128zM2915 -38h4q54 0 78 -60
q7 -25 7 -82v-111h-54v138q0 48 -35 57h-11q-38 0 -43 -57v-138h-54v245h50v-21q25 29 58 29zM3508 -38h6q40 0 70 -40h2v32h47v-245h-47v31h-2q-34 -40 -78 -40q-71 0 -101 90l-4 37v12q0 82 77 117q11 6 30 6zM3781 -38h4q62 0 82 -78l3 -84v-91h-54v138q0 48 -38 57h-9
q-38 0 -42 -52v-143h-54v245h49v-21q26 29 59 29zM4133 -38h1q74 0 104 -93l4 -40q0 -88 -84 -126l-25 -3q-41 0 -68 34v-106h-52v326h47v-29q30 37 73 37zM4714 -38h5q34 0 63 -37q27 37 69 37h6q56 0 79 -66l6 -51v-136h-52v122q0 73 -39 73h-7q-35 0 -41 -50v-140l-5 -5
h-48v140q0 42 -31 55h-17q-40 0 -40 -77v-118h-51v245h47v-21q22 29 56 29zM359 -46h49l5 -6v-234l-5 -5h-49v245zM1297 -46h52v-245h-52v245zM1649 -46h52v-136q4 -60 43 -60h4q44 0 44 81v115h52v-245h-47v24h-5q-12 -33 -59 -33q-52 0 -79 63q-5 12 -5 34v157zM2458 -46
h51v-245h-51v245zM4515 -46h51v-245h-51v245zM1077 -169q0 -53 51 -73h12q54 0 66 66v10q0 53 -54 70h-17q-38 0 -58 -57v-16zM1438 -143h122q-18 47 -53 47h-7q-43 0 -62 -44v-3zM2599 -143h122q-21 47 -54 47h-7q-46 0 -61 -47zM3196 -158v-11q10 -73 61 -73h5q64 8 64 71
v5q0 45 -38 65l-18 5h-14q-60 -14 -60 -62zM3452 -173q14 -69 62 -69h11q41 0 59 60v13q-8 73 -56 73h-17q-47 0 -59 -73v-4zM4062 -158v-22q0 -47 59 -62h9q50 0 61 76q-13 70 -58 70h-15q-56 -17 -56 -62z" />
    <glyph glyph-name=".null" horiz-adv-x="0" 
 />
    <glyph glyph-name="nonmarkingreturn" horiz-adv-x="571" 
 />
    <glyph glyph-name="space" unicode=" " horiz-adv-x="616" 
 />
    <glyph glyph-name="exclam" unicode="!" horiz-adv-x="585" 
d="M54 1395q45 98 197 98q66 0 119 -25q67 -32 74 -90q12 -22 12 -94q0 -125 -35 -369q-39 -270 -79 -351t-101 -81q-60 0 -99.5 90.5t-74.5 341.5q-31 224 -31 357q0 98 18 123zM44 205q12 180 213 178q76 -2 113 -35t55 -106q6 -27 6 -52q0 -88 -58 -137t-149 -49
q-79 0 -132.5 60.5t-47.5 140.5z" />
    <glyph glyph-name="quotedbl" unicode="&#x22;" horiz-adv-x="1177" 
d="M184 1532q49 18 105 18q100 0 168.5 -66.5t68.5 -164.5q2 -154 -137 -324q-123 -149 -191 -149q-18 0 -31.5 21.5t-13.5 41.5q0 29 25 85.5t25 72.5q0 6 -3 12q-147 66 -147 228q0 69 35 135.5t96 89.5zM807 1550q98 0 167.5 -66.5t71.5 -164.5q2 -154 -137 -324
q-123 -149 -192 -149q-9 0 -13 4q-30 22 -30 59q0 29 24.5 85.5t24.5 72.5q0 6 -4 12q-148 66 -148 228q0 73 37 137q61 106 199 106z" />
    <glyph glyph-name="numbersign" unicode="#" horiz-adv-x="1230" 
d="M8 985q4 121 168 121q37 0 88 -4q-12 84 -12 117q0 131 127 143q131 14 131 -150q0 -22 -4 -51q-8 -57 51 -57q49 0 55 49q-6 49 -6 84q0 131 111 127q129 -4 129 -139q0 -13 -9 -123q39 2 68 2q174 0 174 -119q0 -115 -127 -115q-39 0 -86 13q-55 0 -55 -56
q0 -51 49 -59q53 6 88 6q148 0 148 -106q0 -125 -150 -125q-45 0 -102 12q10 -70 10 -113q0 -149 -135 -145q-115 4 -115 149q0 29 6 60q-8 49 -61 49q-45 0 -56 -57q5 -27 5 -52q0 -143 -105 -143q-143 -2 -143 199q0 24 2 53q-47 -8 -84 -8q-144 0 -154 110q8 131 154 131
q35 0 86 -6q39 4 39 56q0 49 -39 53q-53 -19 -103 -19q-145 0 -143 113zM487 823q4 -43 47 -45q45 -4 45 45q0 47 -45 47q-51 0 -47 -47z" />
    <glyph glyph-name="dollar" unicode="$" horiz-adv-x="1212" 
d="M1036 1176q-78 88 -143 127q-88 51 -209 53q4 8 4 39q0 121 -119 121t-137 -76l-12 -107q-156 -37 -267 -139q-125 -117 -125 -264q0 -123 101 -211q90 -80 219 -101q59 0 68 -24q-3 -12 -3 -84q7 -39 -26 -39q-27 0 -127 45q-107 47 -144 53q-71 -24 -94 -100
q-12 -41 -12 -145q74 -97 182 -134q84 -28 230 -30q2 -82 12 -103q27 -55 139 -55q111 0 135 61q4 11 11 113q161 21 262 88q129 84 123 230q-7 141 -88 215q-68 61 -218 96q-51 12 -61 18q-25 15 -25 54q0 38 5 71v60q4 20 18 20q23 0 100 -43q19 -10 41 -10q58 0 117 49
t59 106q0 27 -16 46zM366 940q0 16 12.5 41t28.5 25q6 0 6 -2q0 -48 -6 -140q-41 4 -41 76zM747 494q-2 41 0 43q2 16 25 16q33 -4 33 -51q0 -39 -33 -39q-21 0 -23 2t-2 29z" />
    <glyph glyph-name="percent" unicode="%" horiz-adv-x="1210" 
d="M376 53q-36 -39 -90 -39q-65 0 -127.5 52.5t-62.5 115.5q0 21 8 39q88 197 313 610q213 396 308 613q18 45 84 45q73 0 134.5 -50t61.5 -122q0 -17 -4 -35q-223 -426 -625 -1229zM673 623q62 49 168 49q105 0 172 -49q80 -109 80 -279q0 -172 -69 -274q-43 -64 -170 -64
q-135 0 -191 62q-76 84 -76 290q0 168 86 265zM778 354q0 -30 16.5 -59t44.5 -29q64 0 64 88q0 33 -16.5 61.5t-47.5 28.5q-28 0 -44.5 -29.5t-16.5 -60.5zM100 1436q61 49 168 49q104 0 172 -49q80 -109 80 -279q0 -172 -70 -274q-43 -64 -170 -64q-135 0 -190 62
q-76 84 -76 290q0 168 86 265zM204 1167q0 -30 16.5 -59t45.5 -29q63 0 63 88q0 33 -16 61.5t-47 28.5q-29 0 -45.5 -29.5t-16.5 -60.5z" />
    <glyph glyph-name="ampersand" unicode="&#x26;" horiz-adv-x="1214" 
d="M422 1022q16 8 43 41q21 45 21 102q-19 15 -46 15q-10 0 -20 -2q-27 -25 -27 -52q0 -43 29 -104zM522 369l-77 69q-29 27 -74 90q-39 -39 -41 -63q-4 -47 26 -78q46 -45 87 -45q26 0 79 27zM803 137q-156 -135 -365 -135q-165 0 -304.5 131t-139.5 297q0 188 182 365
q-92 170 -92 342q0 139 105.5 247.5t242.5 108.5q164 0 267 -78q114 -86 114 -244q0 -147 -45 -243.5t-158 -188.5q50 -84 129 -139q25 84 25 131q0 68 43 111t111 43q67 0 110 -43t43 -111q0 -160 -92 -352q27 -27 92 -88q41 -37 41 -88q0 -60 -50 -121.5t-107 -61.5
q-29 0 -46.5 20.5t-105.5 96.5z" />
    <glyph glyph-name="quotesingle" unicode="'" horiz-adv-x="784" 
d="M414 1550q98 0 167.5 -66.5t71.5 -164.5q2 -154 -137 -324q-123 -149 -193 -149q-8 0 -12 4q-33 22 -33 59q0 29 25 85.5t25 72.5q0 6 -3 12q-147 66 -147 228q0 73 37 137q59 106 199 106z" />
    <glyph glyph-name="parenleft" unicode="(" horiz-adv-x="1089" 
d="M315 1317q-209 -197 -213 -567q-6 -410 187 -592q94 -90 309 -148q53 -14 110 -14q103 0 187 41q102 53 102 145q0 41 -22 82q-39 70 -162 121q-137 57 -185 102q-94 93 -96 271q-2 188 99 295q57 59 186 110q110 43 129 86q29 49 29 92q0 80 -86 125q-68 35 -156 35
q-57 0 -100 -12q-197 -57 -318 -172z" />
    <glyph glyph-name="parenright" unicode=")" horiz-adv-x="1107" 
d="M757 1317q209 -197 213 -567q6 -410 -186 -592q-95 -90 -310 -148q-53 -14 -110 -14q-103 0 -187 41q-102 53 -102 145q0 41 23 82q38 70 161 121q138 57 185 102q94 93 96 271q2 188 -98 295q-58 59 -187 110q-110 43 -129 86q-28 49 -28 92q0 80 86 125q67 35 155 35
q58 0 101 -12q196 -57 317 -172z" />
    <glyph glyph-name="asterisk" unicode="*" horiz-adv-x="1204" 
d="M286 1493q39 20 68 20q70 0 133 -94q37 -71 76 -143q59 131 65 141q58 92 127 92q33 0 64 -16q70 -37 70 -119q0 -114 -99 -213q47 29 125 29q160 0 164 -117q2 -72 -63 -112q-58 -35 -134 -35q-51 0 -88 18q113 -84 113 -192q0 -66 -57 -97q-35 -14 -68 -14
q-72 0 -131 76q-29 37 -80 137q-67 -223 -194 -223q-25 0 -56 14q-61 29 -61 111q0 108 67 166q-41 -17 -92 -17q-76 0 -129 38t-53 112q0 125 158 125q67 0 125 -19q-47 25 -80 94.5t-33 126.5q0 78 63 111z" />
    <glyph glyph-name="plus" unicode="+" horiz-adv-x="1167" 
d="M985 664q-18 -2 -139 0q-92 2 -131 -17q-4 -12 -4 -33q0 -26 7 -81.5t7 -83.5q0 -93 -39 -134t-133 -41q-113 0 -129 76q-21 45 -21 111q0 22 3 68t3 69q0 31 -4 53q-10 8 -30 8q-25 0 -76 -7t-76 -7q-63 0 -113 23q-61 47 -61 143q0 141 166 141q24 0 73.5 -4t73.5 -4
q21 0 33 4q4 21 -6 84q-23 139 -4 223q16 78 164 78q147 0 170 -80q14 -32 14 -82q0 -43 -10 -104q-15 -88 -15 -96q-2 -19 3 -29q14 -10 40 -10q27 0 81.5 10t80.5 10q146 0 146 -164q0 -116 -74 -124z" />
    <glyph glyph-name="comma" unicode="," horiz-adv-x="774" 
d="M309 446q49 19 105 19q100 0 168.5 -66.5t68.5 -165.5q2 -153 -137 -323q-123 -150 -191 -150q-18 0 -31.5 21.5t-13.5 42.5q0 29 25 85t25 73q0 6 -3 12q-147 65 -147 227q0 70 35 136.5t96 88.5z" />
    <glyph glyph-name="hyphen" unicode="-" horiz-adv-x="1191" 
d="M129 877q123 22 376 22q304 0 455 -22q82 -13 82 -134q0 -96 -63 -149q-199 -21 -519 -21q-223 0 -344 15q-57 28 -57 135q0 121 70 154z" />
    <glyph glyph-name="hyphen" unicode="&#x2010;" horiz-adv-x="1191" 
d="M129 877q123 22 376 22q304 0 455 -22q82 -13 82 -134q0 -96 -63 -149q-199 -21 -519 -21q-223 0 -344 15q-57 28 -57 135q0 121 70 154z" />
    <glyph glyph-name="period" unicode="." horiz-adv-x="806" 
d="M329 453q47 18 101 18q141 0 223 -149q22 -41 22 -99q0 -121 -116 -194q-56 -35 -119 -35q-105 0 -175.5 71.5t-70.5 176.5q0 157 135 211z" />
    <glyph glyph-name="slash" unicode="/" horiz-adv-x="1128" 
d="M710 1454q37 41 115 41q86 0 152 -47q75 -53 69 -135q-53 -205 -293 -656q-221 -419 -362 -610q-66 -43 -143 -43q-80 0 -136 45q-61 47 -61 125q0 29 10 64q58 202 322 680q250 450 327 536z" />
    <glyph glyph-name="zero" unicode="0" horiz-adv-x="1249" 
d="M286 1368q127 109 340 109t350 -109q160 -240 160 -620q0 -379 -143 -611q-88 -141 -342 -141q-105 0 -209 31q-123 39 -176 106q-74 94 -117 311q-37 181 -37 336q0 375 174 588zM497 772q0 -67 29 -125q37 -72 98 -72t98 72q29 58 29 125q0 70 -29 127q-37 72 -98 72
t-98 -72q-29 -57 -29 -127z" />
    <glyph glyph-name="one" unicode="1" horiz-adv-x="1249" 
d="M266 1233q-8 12 -8 29q0 55 70 116q55 49 118 74q109 31 232 31q176 0 237 -80q74 -96 74 -524q0 -502 -49 -773q-20 -114 -248 -114q-207 0 -233 84q-11 53 -11 143q0 127 21.5 380t21.5 380q0 133 -24 170q-16 53 -53 53q-15 0 -43.5 -8t-42.5 -8q-39 0 -62 47z" />
    <glyph glyph-name="two" unicode="2" horiz-adv-x="1249" 
d="M163 1200q66 135 192 209t277 74q162 0 291 -80q141 -88 174 -238q23 -104 23 -200q0 -303 -275 -457q-100 -55 -102 -68q100 25 184 25q76 0 119 -23q86 -28 86 -184q0 -160 -70 -195q-12 -30 -229 -47q-137 -10 -256 -10q-367 0 -424 64q-39 92 -39 176q0 164 152 313
q65 66 278 215q152 107 152 170q0 17 -7 31q-36 86 -51 98q-26 25 -118 25q-72 0 -121 -93.5t-117 -97.5q-70 -4 -117 32t-47 103q0 66 45 158z" />
    <glyph glyph-name="three" unicode="3" horiz-adv-x="1249" 
d="M983 117q-102 -119 -422 -119q-262 0 -366 82q-58 45 -58 139q0 100 49 168q31 41 90 41q46 0 140 -26.5t139 -26.5q104 0 104 135q0 102 -90 102q-30 0 -97 -12t-99 -12q-133 0 -150 162q17 170 187 170h51q65 -2 49 -2q129 0 121 124q-31 117 -121 117
q-45 0 -143.5 -38t-143.5 -38q-20 0 -37 7q-57 59 -57 135q0 149 168 213q117 45 293 45q297 0 387 -127q96 -135 96 -289q0 -184 -131 -270q178 -113 178 -324q0 -199 -137 -356z" />
    <glyph glyph-name="four" unicode="4" horiz-adv-x="1249" 
d="M819 1470q-22 3 -47 3q-270 0 -487 -340q-195 -306 -195 -592q0 -45 6 -80q107 -137 236 -137q39 0 109.5 22.5t99.5 22.5q34 0 34 -39q0 -29 -15 -88.5t-15 -89.5q0 -50 16 -95q12 -30 92 -49q60 -14 111 -14q112 0 153 49q17 47 17 119q0 53 -10 125l-9 59q33 29 82 29
q11 0 33.5 -2t32.5 -2q28 0 47 16q49 45 49 160q0 139 -53 182q-27 27 -66 27q-16 0 -44.5 -6.5t-43.5 -6.5q-22 0 -26 23q16 192 16 330q0 379 -123 374zM506 797q4 28 28 71q29 52 52 52q16 0 18 -31q-2 33 -2 -62q0 -59 -33 -59q-57 0 -43 -2q-24 2 -20 31z" />
    <glyph glyph-name="five" unicode="5" horiz-adv-x="1249" 
d="M211 1358q28 131 375 131q473 0 473 -244q0 -57 -27 -108q-47 -60 -168 -64q-22 0 -211 17q-117 10 -143 -17q-60 0 -60 -104q0 -70 41 -92q27 -15 105 -9q112 9 168 4q110 -8 202 -53q148 -98 148 -350q0 -123 -41 -231q-49 -129 -134 -183.5t-331 -54.5q-319 0 -389 66
q-53 49 -53 159q0 105 41 185q26 32 84 32q51 0 149 -28.5t148 -28.5q77 0 82 80q-9 106 -173 106h-63q-14 0 -37 -2h-26q-130 0 -160 56q-76 137 -76 350t76 383z" />
    <glyph glyph-name="six" unicode="6" horiz-adv-x="1249" 
d="M202 1280q49 113 195 168q116 47 260 47q401 0 401 -264q0 -111 -59 -184q-29 -5 -54 -5q-51 0 -149 64q-43 14 -94 14q-117 0 -195 -59q-63 -103 -63 -166q0 -43 22 -80q8 -4 21 -4q18 0 111 31.5t153 31.5q113 0 244 -57q137 -119 137 -352q0 -103 -31 -205
q-39 -127 -106 -174q-131 -90 -357 -90q-334 0 -438 199q-84 225 -84 583q0 348 86 502zM608 477q0 -100 102 -90q43 4 57 27q11 16 11 63q0 55 -13.5 64.5t-70.5 5.5q-91 -8 -91 -64q0 -6 2 -10q3 -2 3 4z" />
    <glyph glyph-name="seven" unicode="7" horiz-adv-x="1249" 
d="M178 1382q96 101 409 101q125 0 254 -21q184 -30 223 -92q72 -41 72 -203q0 -209 -111 -569q-96 -313 -202 -535q-33 -69 -172 -69q-56 0 -131 16q-95 21 -111 53q-8 35 -8 72q0 131 88 324q37 82 160 309q88 164 88 217q0 29 -21 45q-63 49 -158 49q-98 0 -159 -55
q-23 -16 -25 -70.5t-22 -72.5q-54 -47 -109 -47q-29 0 -59 16q-72 39 -72 285q0 215 66 247z" />
    <glyph glyph-name="eight" unicode="8" horiz-adv-x="1249" 
d="M241 1372q41 60 176 88q97 23 203 23q293 0 369 -119q43 -45 69 -147q23 -87 23 -162q0 -176 -111 -269q80 -49 127 -157q43 -97 43 -201q0 -166 -94 -289q-100 -133 -389 -133q-117 0 -240 29q-151 33 -217 94q-94 135 -94 299q0 100 39 201q43 112 115 166
q-109 96 -109 268q0 182 90 309zM528 455q0 -78 92 -78q51 0 71.5 13t20.5 61q0 8 -6 24q-20 51 -82 51q-96 0 -96 -71zM528 1069q0 -78 92 -78t92 74q0 45 -19.5 60.5t-68.5 15.5q-96 0 -96 -72z" />
    <glyph glyph-name="nine" unicode="9" horiz-adv-x="1249" 
d="M356 45q123 -41 229 -41q287 0 420 277q103 208 103 528q0 135 -23 276q-29 185 -82 258.5t-174 112.5q-104 35 -211 35q-246 0 -344 -135q-113 -156 -113 -348q0 -197 119 -318q119 -76 228 -76q43 0 113.5 22.5t88.5 22.5q19 0 31 -12q18 -26 18 -59
q0 -82 -76.5 -140.5t-160.5 -58.5q-96 0 -180 74q-33 12 -62 12q-53 0 -92 -40t-47 -93q25 -106 35 -123q39 -65 180 -174zM741 1069q0 -102 -68 -113q-49 -8 -65 -8q-74 0 -90 78q-4 21 -4 39q0 72 114 96q41 8 77 -21.5t36 -70.5z" />
    <glyph glyph-name="colon" unicode=":" horiz-adv-x="774" 
d="M309 1292q51 21 109 21q145 0 215 -152q22 -49 22 -98q0 -121 -116 -195q-56 -34 -119 -34q-105 0 -175.5 71.5t-70.5 175.5q0 158 135 211zM309 453q51 20 109 20q145 0 215 -151q22 -50 22 -99q0 -121 -116 -194q-56 -35 -119 -35q-105 0 -175.5 71.5t-70.5 176.5
q0 157 135 211z" />
    <glyph glyph-name="semicolon" unicode=";" horiz-adv-x="774" 
d="M414 465q100 0 168.5 -66.5t68.5 -165.5q2 -157 -135 -323q-123 -150 -192 -150q-9 0 -13 4q-33 23 -33 60q0 29 25 85t25 73q0 6 -2 12q-148 65 -148 227q0 74 37 137q59 107 199 107zM309 1292q51 21 109 21q145 0 215 -152q22 -49 22 -98q0 -121 -116 -195
q-56 -34 -119 -34q-105 0 -175.5 71.5t-70.5 175.5q0 158 135 211z" />
    <glyph glyph-name="less" unicode="&#x3c;" horiz-adv-x="1114" 
d="M624 1466q-151 -118 -313 -315q-211 -256 -209 -401q2 -177 260 -447q250 -260 432 -303q92 0 162 60.5t70 150.5q0 57 -41 115q-56 77 -248 227q-152 119 -152 197q0 67 201 264q215 211 232 262q0 106 -66 166.5t-174 60.5q-80 0 -154 -37z" />
    <glyph glyph-name="equal" unicode="=" horiz-adv-x="1183" 
d="M129 1102q123 22 376 22q304 0 455 -22q82 -12 82 -133q0 -97 -63 -150q-199 -20 -519 -20q-223 0 -344 14q-57 29 -57 135q0 121 70 154zM129 672q123 22 376 22q304 0 455 -22q82 -13 82 -133q0 -97 -63 -150q-199 -20 -519 -20q-223 0 -344 14q-57 29 -57 135
q0 121 70 154z" />
    <glyph glyph-name="greater" unicode="&#x3e;" horiz-adv-x="1122" 
d="M480 1466q152 -118 314 -315q211 -256 209 -401q-2 -177 -260 -447q-250 -260 -433 -303q-92 0 -161.5 60.5t-69.5 150.5q0 57 41 115q55 77 248 227q151 119 151 197q0 67 -200 264q-215 211 -232 262q0 106 65.5 166.5t174.5 60.5q80 0 153 -37z" />
    <glyph glyph-name="question" unicode="?" horiz-adv-x="1150" 
d="M85 1196q51 150 185 227q122 72 288 72q150 0 281 -61q160 -74 182 -205q23 -66 23 -144q0 -127 -56 -229q-59 -113 -168 -164q-36 -18 -67 -49l-90 -92q-35 -76 -105 -76q-84 0 -119 80q-6 16 -12 27q-16 51 -16 98q0 72 55 121q17 16 119 78q115 69 115 141
q0 41 -33 92q-55 88 -156 88q-149 0 -268 -147q-166 0 -166 102q0 16 8 41zM353 207q11 178 211 176q138 -2 168 -141q7 -29 7 -52q0 -88 -58.5 -137t-148.5 -49q-88 0 -140 70q-43 59 -39 133z" />
    <glyph glyph-name="at" unicode="@" horiz-adv-x="1232" 
d="M793 608q55 4 55 201q0 76 -12 164q-19 112 -45 143q-35 39 -211 51q-134 9 -201 -26q-82 -45 -98 -168q-2 -12 -13 -250q-10 -231 66 -324q100 -120 399 -108q41 2 127 19.5t129 17.5q49 0 76 -62q18 -45 18 -102q0 -107 -41 -119q-165 -47 -309 -53q-473 -17 -631 213
q-102 149 -94 518q8 387 98 547q130 229 474 217q301 -10 411 -168q90 -131 94 -453q7 -444 -137 -495q-59 -21 -203 -25q-260 -6 -337 55q-89 68 -95 318q-6 231 31 303q43 84 197 86q190 2 231 -80q23 -43 23 -272q0 -135 -2 -148zM524 727q0 -92 -2 -70q4 -47 35 -49
q8 -2 25 -4q12 0 8 123q0 35 -2 107q0 24 -31 24q-33 0 -33 -24v-107z" />
    <glyph glyph-name="A" unicode="A" horiz-adv-x="1212" 
d="M227 1372q57 121 317 121q99 0 183 -27q112 -32 145 -100q72 -141 150 -588q75 -422 75 -616q0 -88 -18 -101q-14 -26 -84 -45q-57 -14 -98 -14q-99 0 -166 59q-64 103 -78 201q-8 72 -27 213q-14 60 -67 60q-23 0 -49.5 -15.5t-24.5 -38.5q-6 -86 -23 -256
q-12 -125 -59 -164q-68 -57 -170 -57q-135 0 -197 80q-20 18 -20 139q0 234 57 572q68 395 154 577zM411 954q0 -49 37 -80.5t86 -31.5t87 31.5t38 80.5q0 50 -38 81.5t-87 31.5t-86 -31.5t-37 -81.5z" />
    <glyph glyph-name="B" unicode="B" horiz-adv-x="1185" 
d="M67 1315q-41 -103 -41 -479q0 -551 94 -707q51 -84 195 -113q84 -16 272 -16q62 0 189 37q137 37 172 72q116 110 116 276q0 145 -104 268q-115 107 -232 154q105 47 172 129q76 92 78 197q2 67 -34 167q-52 140 -132 162q-145 41 -303 41q-139 0 -256 -35
q-168 -49 -186 -153zM401 1118q0 43 32.5 73t75.5 30t77 -30t34 -73q0 -45 -33 -74.5t-78 -29.5t-76.5 29.5t-31.5 74.5zM421 434q0 47 29 91t74 44t96 -45t51 -90q0 -43 -40 -66.5t-85 -23.5q-47 0 -82 21q-43 26 -43 69z" />
    <glyph glyph-name="C" unicode="C" horiz-adv-x="1169" 
d="M766 1493q-154 -10 -185 -16q-118 -23 -235 -107q-197 -139 -313 -385q-25 -72 -25 -197q0 -137 29 -284q37 -180 102 -260q74 -90 135 -125q15 -8 195 -78q131 -33 201 -33q92 0 184 39q135 57 179 116.5t54 184.5q4 62 -31.5 108t-97.5 46q-37 0 -73 -19
q-107 -67 -197 -67q-82 0 -170 57q-78 109 -78 264q0 166 64 260q43 64 198 107q127 35 160 53q76 45 76 135q0 78 -47 132.5t-125 68.5z" />
    <glyph glyph-name="D" unicode="D" horiz-adv-x="1218" 
d="M61 944q0 -743 74 -848q94 -96 329 -96q132 0 256 35q158 45 220 127q149 198 149 497q0 224 -78 443q-69 196 -143 250q-180 129 -442 129q-99 0 -193 -25q-129 -33 -150.5 -97.5t-21.5 -414.5zM458 737q0 25 -4 74t-4 74q0 63 57 63q195 0 195 -205q0 -73 -31 -122
q-37 -58 -106 -58q-74 0 -94 53q-13 31 -13 121z" />
    <glyph glyph-name="E" unicode="E" horiz-adv-x="1157" 
d="M144 1372q80 109 383 109q224 0 400 -74q65 -84 65 -160q0 -61 -47 -98q-14 -10 -41 -10q-30 0 -103 13t-110 13q-78 0 -135 -35q-65 -40 -65 -114q0 -66 45 -90q41 -31 186 -39q160 -10 193 -21q51 -32 51 -116q0 -64 -45 -91q-33 -6 -86 -6h-54q-73 2 -55 2
q-153 0 -196 -67q10 -242 471 -232q77 -22 77 -139q0 -115 -100 -162q-111 -51 -358 -51q-404 0 -504 180q-78 140 -78 568q0 475 106 620z" />
    <glyph glyph-name="F" unicode="F" horiz-adv-x="1155" 
d="M114 1313q107 172 471 172q238 0 424 -78q68 -84 68 -186q0 -76 -50 -113q-14 -10 -41 -10q-36 0 -112 13t-115 13q-82 0 -137 -32q-70 -41 -70 -117q0 -66 45 -90q41 -31 187 -39q162 -10 192 -21q37 -22 37 -96q0 -88 -59 -123q-31 -6 -84 -6h-56q-73 2 -55 2
q-151 0 -196 -67q-3 -23 -3 -46q0 -55 29 -162.5t29 -162.5q0 -31 -8 -62q-25 -92 -203 -92q-170 0 -238 125q-28 51 -82 283q-59 262 -59 485q0 271 86 410z" />
    <glyph glyph-name="G" unicode="G" horiz-adv-x="1202" 
d="M654 1493q-442 0 -593 -510q-25 -176 -25 -315q0 -238 72 -377q116 -135 202 -191q154 -100 373 -100q182 37 293 178t111 330q0 82 -25 160q-43 67 -86 133q-49 57 -133 67q-98 0 -105 -2q-28 -8 -65 -69q-6 -88 94 -174q12 -25 12 -54q0 -49 -32.5 -88t-79.5 -39
q-86 0 -156 133q-22 43 -22 142q0 69 12 178q27 119 84 176t176 72q176 20 176 155q0 195 -283 195z" />
    <glyph glyph-name="H" unicode="H" horiz-adv-x="1220" 
d="M96 1407q55 66 186 66q150 0 177 -154q18 -109 4 -320q14 -67 96 -67q88 0 115 74q4 188 4 200q6 117 28 197q21 72 158 72q117 0 156 -60q53 -201 53 -745q0 -285 -14 -561q-17 -46 -78 -72q-51 -21 -109 -21q-131 0 -159 86q-23 125 -33 365q-4 78 -92 78
q-97 0 -97 -82q2 -246 -8 -293q-37 -158 -196 -158q-60 0 -117 21q-74 26 -80 76q-39 268 -39 682q0 450 45 616z" />
    <glyph glyph-name="I" unicode="I" horiz-adv-x="618" 
d="M57 1403q37 67 180 67q156 0 199 -75q33 -60 33 -690q0 -558 -27 -644q-29 -67 -199 -67q-155 0 -182 61q-45 103 -45 729q0 564 41 619z" />
    <glyph glyph-name="J" unicode="J" horiz-adv-x="1210" 
d="M538 1288q-14 29 -14 55q0 68 84 107q66 29 143 29q203 0 236 -144q80 -188 80 -583q0 -408 -78 -555q-152 -193 -412 -193q-149 0 -278 64q-148 73 -201 198q-49 115 -49 185q0 63 37 120q37 78 143 78q156 0 176 -166q29 -51 93 -51q79 0 141 78q53 68 53 221
q0 260 -154 557z" />
    <glyph glyph-name="K" unicode="K" horiz-adv-x="1202" 
d="M55 1425q10 70 168 70q198 0 207 -106q6 -35 6 -86v-54q-2 -71 -2 -53q0 -115 53 -143q72 -15 121 88l88 196q61 111 145 111t162 -62.5t78 -144.5q0 -22 -8 -49q-35 -117 -150 -244q-104 -117 -219 -184q115 -55 229 -201q138 -176 158 -352q8 -82 -70 -135
q-67 -45 -153 -45q-80 0 -131 39q-35 45 -76 149q-49 127 -70 158q-45 72 -104 72q-17 0 -35 -5q-47 -28 -47 -108q0 -76 47 -223q-25 -107 -182 -107q-88 0 -150 41q-67 47 -71 131q-25 565 -25 719q0 330 31 528z" />
    <glyph glyph-name="L" unicode="L" horiz-adv-x="1144" 
d="M45 1370q35 103 211 103q172 0 213 -91q16 -59 16 -147q0 -100 -34.5 -297t-34.5 -295q0 -45 10 -70q33 -141 244 -141q53 0 165 14q97 13 152 17q106 8 106 -174q0 -60 -18 -125q-22 -84 -63 -98q-164 -54 -375 -54q-373 0 -541 144q-90 100 -90 534q0 285 39 680z" />
    <glyph glyph-name="M" unicode="M" horiz-adv-x="1236" 
d="M67 90q-57 141 -57 694q0 426 45 576q4 63 68 98q51 27 120 27q74 0 129 -33q66 -37 68 -106q37 -91 39 -93q29 -49 78 -53q55 4 84 60q18 47 37 96q2 55 67 88q53 26 115 26q160 0 186 -122q51 -236 51 -662q0 -389 -51 -577q-12 -48 -71 -76q-50 -23 -105 -23
q-117 0 -166 86q-10 31 -10 90q0 64 13.5 193t13.5 192q0 101 -35 105q-12 0 -27 -43q-16 -53 -31 -76q-26 -41 -77 -41q-56 0 -83.5 80t-41.5 80q-47 -12 -47 -125q0 -68 20.5 -204t20.5 -204q0 -32 -7 -47q-47 -84 -180 -84q-135 0 -166 78z" />
    <glyph glyph-name="N" unicode="N" horiz-adv-x="1241" 
d="M35 1386q-25 -169 -25 -432q0 -315 41 -839q10 -54 86 -80q57 -23 123 -23q162 0 196 97q17 16 17 53q0 57 -39 177t-39 175q0 45 31 49q59 -4 131 -147q43 -88 129 -266q16 -62 88 -97q61 -30 133 -30q131 0 147 77q35 162 35 701q0 471 -35 592q-36 65 -194 65
q-137 0 -160 -55q-16 -19 -16 -66q0 -75 39 -222.5t39 -223.5q0 -66 -37 -72q-64 -10 -113 127q-14 37 -74 277q-41 159 -79 198q-68 66 -216 66q-194 0 -208 -101z" />
    <glyph glyph-name="O" unicode="O" horiz-adv-x="1202" 
d="M382 1487q-139 -62 -227 -277q-45 -110 -107 -376q-12 -117 -12 -209q0 -172 46 -296t159 -251q127 -70 280 -70q144 0 334 64q139 118 182 264q37 127 33 416q-49 362 -184 532q-166 203 -504 203zM411 705q2 55 33 145q36 111 73 115q78 6 145.5 -41t67.5 -123
q0 -111 -28 -164q-37 -72 -138 -72q-161 0 -153 140z" />
    <glyph glyph-name="P" unicode="P" horiz-adv-x="1183" 
d="M491 1491q227 0 399 -92q201 -68 195 -406q-7 -399 -367 -399q-106 0 -242 37q-18 -8 -18 -37q0 -43 56.5 -193.5t56.5 -224.5q0 -84 -60 -115q-74 -47 -172 -47q-160 0 -227 82q-37 62 -60 338q-18 211 -18 359q0 362 57 489q93 209 400 209zM470 1032q0 -43 39 -71
q33 -27 78 -33q125 -17 147 123q0 79 -172 79q-92 0 -92 -98z" />
    <glyph glyph-name="Q" unicode="Q" horiz-adv-x="1214" 
d="M350 1460q80 29 158 29q170 0 346 -170q184 -178 184 -569q0 -179 -39 -316q43 -49 101 -215q0 -149 -144 -190q-102 4 -141 92q-76 -127 -338 -127q-279 0 -374 152.5t-95 381.5q0 107 12 213q72 627 330 719zM416 915q0 -98 4 -108q12 -33 88 -29q45 2 133 -16
q10 0 12 22q2 31 6 95q6 94 -43 122q-28 17 -96 17t-80 -10q-24 -19 -24 -93zM444 393q0 -6 -3 -19.5t-3 -19.5q0 -18 57 -18q52 0 58 2q18 6 18 43v43q-8 16 -63 16q-56 0 -64 -10v-37z" />
    <glyph glyph-name="R" unicode="R" 
d="M47 1276q23 98 150 158q112 53 268 53q227 0 395 -107q187 -118 197 -325q2 -35 8 -107q2 -22 -12 -76l-8 -32q-21 -82 -86 -127q-23 -15 -87 -37q-38 -14 -38 -45q0 -10 2 -25q16 -41 82 -121q73 -88 94 -129q49 -94 51 -217q2 -69 -70 -106q-55 -29 -131 -29
q-82 0 -133 31q-41 31 -63 137q-27 129 -47 166q-43 80 -136 78q-55 4 -55 -51q0 -39 21.5 -116t21.5 -116t-18 -61q-64 -80 -191 -80q-57 0 -114 18q-74 23 -95 62q-55 186 -55 612q0 379 49 592zM391 1004q0 -54 29 -92t82 -38q155 0 147 130q-6 98 -143 98
q-115 0 -115 -98z" />
    <glyph glyph-name="S" unicode="S" 
d="M1040 1257q-94 129 -155 170q-99 66 -271 66q-227 0 -397 -158q-174 -164 -174 -389q0 -141 81 -243.5t218 -127.5q104 -18 139 -34q56 -25 56 -72q0 -12 -5 -29q-38 -39 -86 -39q-47 0 -152.5 60.5t-146.5 60.5q-102 0 -135 -137q-12 -53 -12 -172q74 -117 244 -176
q137 -47 303 -47q158 0 295 45q239 108 239 387q0 160 -64.5 248t-217.5 133q-264 80 -271 178q-8 109 117 109q82 0 191 -66q20 -12 43 -12q63 0 119.5 63.5t56.5 126.5q0 31 -15 55z" />
    <glyph glyph-name="T" unicode="T" 
d="M70 1458q170 31 471 31q276 0 493 -31q72 -33 72 -203q0 -153 -60 -184q-38 -49 -100 -49q-31 0 -90 18.5t-86 18.5q-31 0 -45 -23q-8 -12 -8 -55q0 -131 33.5 -393t33.5 -393q0 -111 -24 -129q-80 -62 -228 -62q-141 0 -178 80q-22 22 -22 121q0 129 40 386t40 386
q0 41 -9 47q-14 31 -51 31q-28 0 -94 -17.5t-100 -17.5q-50 0 -88 20q-68 35 -68 207q0 170 68 211z" />
    <glyph glyph-name="U" unicode="U" horiz-adv-x="1239" 
d="M514 1343q-12 -133 -35 -292q-26 -187 -26 -279q0 -188 110 -192q111 -5 111 204q0 103 -27 285q-31 211 -35 268q-6 76 64 117q57 33 137 33q88 0 156 -41q75 -45 94 -127q33 -152 33 -352q0 -211 -47 -465q-62 -342 -170 -406q-52 -94 -324 -94q-291 0 -330 100
q-125 107 -182 375q-43 197 -43 428q0 203 41 402q20 94 92 139t166 45q72 0 135 -27q82 -34 82 -98q0 -6 -2 -23z" />
    <glyph glyph-name="V" unicode="V" horiz-adv-x="1218" 
d="M465 1339q21 -292 31 -401q37 -324 86 -330q41 -4 43 260q2 369 18 484q-12 71 74 106q61 27 143 27q84 0 154 -27q98 -37 92 -108q-31 -410 -84 -740q-78 -473 -174 -538q-86 -72 -246 -72q-174 0 -256 59q-125 93 -241 535q-113 430 -105 727q2 76 101 123
q79 37 165 37q189 0 199 -142z" />
    <glyph glyph-name="W" unicode="W" horiz-adv-x="1228" 
d="M0 1395q0 -172 43 -627q49 -510 94 -670q13 -45 72 -67q47 -21 100 -21q80 0 127 37q56 41 49 119l17 145q12 62 55 70q64 -12 76 -215q-2 -72 55 -115q49 -39 123 -39q121 0 154 99q141 688 141 1278q0 57 -84 84q-57 18 -129 18q-64 0 -117 -16q-78 -23 -71 -72
l18 -156q10 -94 10 -170q0 -127 -47 -131q-12 0 -27 43q-16 53 -30 76q-27 41 -78 41q-55 0 -83 -80t-42 -80q-53 15 -53 111q0 47 24 186q21 117 17 160q0 92 -199 92q-72 0 -129 -18q-86 -27 -86 -82z" />
    <glyph glyph-name="X" unicode="X" horiz-adv-x="1198" 
d="M40 1280q-2 82 76 147q74 60 158 60q61 0 115 -31q38 -29 102 -211q57 -164 94 -164q27 0 66 156q43 180 82 223q57 41 131 41q86 0 152.5 -52t64.5 -136q-2 -129 -64 -252q-32 -66 -119 -191q-67 -98 -73 -139q6 -49 119 -209q106 -151 129 -262q20 -41 20 -96
q0 -78 -51 -120t-131 -42q-45 0 -99 14q-57 -6 -94 93q-20 63 -61 188q-37 104 -84 106q-39 0 -86 -106q-41 -94 -86 -195q-55 -102 -129 -102q-103 -2 -175.5 65.5t-72.5 170.5q0 110 94 245q8 11 121 148q57 69 55 108q-4 45 -67 142q-103 153 -121 188q-64 119 -66 213z
" />
    <glyph glyph-name="Y" unicode="Y" horiz-adv-x="1173" 
d="M43 1372q0 51 90 86q72 29 133 29q90 0 105 -53q26 -35 49 -121q26 -99 41 -127q31 -62 90 -60q123 7 168 301q14 58 131 58q74 0 141 -29q84 -37 84 -102q-33 -336 -67 -441q-68 -202 -250 -245q-10 -23 -10 -70q0 -70 19 -209t19 -209q0 -51 -6 -78q-20 -94 -211 -94
q-67 0 -143 21q-102 26 -107 73q-4 68 17 238q22 182 22 238q0 59 -14 86q-190 69 -256 280q-45 143 -45 428z" />
    <glyph glyph-name="Z" unicode="Z" horiz-adv-x="1222" 
d="M57 1413q-51 -45 -51 -176q0 -176 63 -209q17 -27 62 -27q53 0 165.5 34t170.5 34q80 0 106 -57q13 -13 13 -29q0 -41 -170 -158q-109 -71 -217 -141q-144 -100 -168 -192q-25 -56 -25 -158q0 -228 90 -268q96 -76 391 -76q119 0 254 16q176 21 240 60q119 43 119 190
q0 63 -25 125q-31 72 -82 92q-20 12 -59 12q-56 0 -163.5 -26.5t-162.5 -26.5q-49 0 -57 29q-4 61 217 182q237 129 272 209q45 72 45 266q0 187 -80 271q-147 104 -503 104q-318 0 -445 -80z" />
    <glyph glyph-name="bracketleft" unicode="[" horiz-adv-x="1122" 
d="M620 1493h-26q-25 2 -39 2h-66q-190 0 -270 -115q-113 -161 -117 -630q-2 -289 47 -447q80 -246 301 -289q74 -14 344 -14q176 0 195 10q43 19 43 144q0 22 -4 155q-2 70 -80 70q-29 0 -85 -7t-85 -7q-240 0 -221 380q-11 177 30 261q56 112 213 112q-14 0 50 -2h45
q123 0 123 103q-3 202 -15 231q-20 47 -131 47q-41 0 -125 -2t-127 -2z" />
    <glyph glyph-name="backslash" unicode="\" horiz-adv-x="1120" 
d="M382 1454q-37 41 -115 41q-84 0 -151 -47q-76 -53 -70 -135q53 -205 293 -656q221 -419 363 -610q65 -43 143 -43q80 0 138 46t58 124q0 29 -10 64q-57 202 -321 680q-250 450 -328 536z" />
    <glyph glyph-name="bracketright" unicode="]" horiz-adv-x="1146" 
d="M485 1493h26q25 2 39 2h66q190 0 270 -115q113 -161 117 -630q2 -289 -47 -447q-80 -246 -301 -289q-74 -14 -344 -14q-177 0 -195 10q-43 19 -43 144q0 22 4 155q2 70 80 70q29 0 85 -7t85 -7q240 0 221 380q10 177 -31 261q-55 112 -213 112q15 0 -49 -2h-45
q-123 0 -123 103q2 202 15 231q20 47 131 47q41 0 125 -2t127 -2z" />
    <glyph glyph-name="asciicircum" unicode="^" horiz-adv-x="1173" 
d="M810 1370q-149 133 -241 137q-117 -8 -275 -186q-151 -170 -174 -293q0 -63 35 -112.5t96 -49.5q35 0 64 19q43 39 135 186q71 115 119 115q36 0 137 -131q108 -142 142 -157t69 -15q57 0 86.5 43t29.5 102q0 141 -223 342z" />
    <glyph glyph-name="underscore" unicode="_" horiz-adv-x="1210" 
d="M149 324q123 22 376 22q304 0 455 -22q82 -13 82 -134q0 -96 -63 -149q-199 -21 -519 -21q-223 0 -344 15q-57 28 -57 135q0 121 70 154z" />
    <glyph glyph-name="grave" unicode="`" horiz-adv-x="950" 
d="M335 1350q0 -113 109 -217q96 -95 204 -95q66 0 108 41t42 107q0 92 -84 188q-121 113 -242 113q-59 0 -98 -39t-39 -98z" />
    <glyph glyph-name="a" unicode="a" horiz-adv-x="1214" 
d="M108 1233q125 123 416 123q289 0 405 -139q84 -50 119 -314q23 -166 23 -358q0 -320 -54 -441q-18 -98 -155 -98q-109 0 -123 64q-99 -43 -217 -43q-252 0 -398 131q-102 133 -102 309q0 147 88 229q119 111 272 111q97 0 271 -64q78 0 78 88q0 58 -37 108t-90 69
q-68 22 -136 22q-65 0 -155 -41t-117 -41q-41 0 -88 31q-51 72 -51 137q0 68 51 117zM350 430q0 -49 28 -68q17 -10 72 -16q59 -6 104 10q58 21 58 76q0 90 -146 111q-53 8 -84.5 -25t-31.5 -88z" />
    <glyph glyph-name="b" unicode="b" horiz-adv-x="1171" 
d="M95 1413q-20 -43 -38.5 -247.5t-18.5 -454.5q0 -420 66 -566q34 -77 186 -114q106 -27 227 -27q137 0 258 33q131 35 178 92q129 154 129 352q0 199 -135 320q-118 67 -227 67q-59 0 -146 -34.5t-100 -34.5q-18 0 -28 14q-35 53 -35 156q0 71 29.5 210.5t29.5 209.5
q0 18 -4 28q-20 76 -184 76q-158 0 -187 -80zM437 438q0 109 82 121q54 8 78 8q86 0 107 -82q6 -24 6 -41q0 -77 -137 -102q-46 -8 -91 20.5t-45 75.5z" />
    <glyph glyph-name="c" unicode="c" horiz-adv-x="1175" 
d="M766 1276q-150 -10 -185 -16q-135 -25 -235 -103q-191 -121 -314 -366q-18 -68 -18 -150q0 -252 125 -397q72 -82 135 -117q19 -10 195 -76q131 -31 200 -31q95 0 185 37q133 56 178 112t55 175q6 62 -30.5 103.5t-98.5 41.5q-37 0 -74 -16q-106 -65 -196 -65
q-82 0 -170 55q-78 106 -78 188q0 140 174 230q57 28 289 102q35 35 35 100q0 76 -47.5 127.5t-124.5 65.5z" />
    <glyph glyph-name="d" unicode="d" horiz-adv-x="1214" 
d="M1009 1413q21 -43 39 -247.5t18 -454.5q0 -420 -65 -566q-35 -77 -186 -114q-107 -27 -228 -27q-137 0 -258 33q-131 35 -178 92q-129 154 -129 352q0 199 135 320q119 67 227 67q60 0 147 -34.5t99 -34.5q19 0 29 14q35 53 35 156q0 71 -30 210.5t-30 209.5q0 18 4 28
q21 76 185 76q157 0 186 -80zM667 438q0 109 -82 121q-53 8 -78 8q-86 0 -106 -82q-6 -24 -6 -41q0 -77 137 -102q45 -8 90 20.5t45 75.5z" />
    <glyph glyph-name="e" unicode="e" 
d="M598 1276q-74 -2 -191 -14q-291 -66 -375 -471q-18 -89 -18 -150q0 -252 125 -397q72 -82 135 -117q19 -10 195 -76q131 -31 200 -31q95 0 185 37q133 56 178 112t55 175q6 62 -30.5 103.5t-98.5 41.5q-37 0 -74 -16q-84 -53 -172 -53q-34 0 -194 43q-35 10 -60.5 39.5
t-25.5 64.5q0 39 35 60q6 4 20 4q39 0 124 -17.5t128 -17.5q242 0 289 278q0 408 -344 408q-4 0 -86 -6zM491 958q0 37 33 58.5t72 21.5q36 0 69 -21.5t33 -58.5q0 -36 -33 -57.5t-69 -21.5q-39 0 -72 21.5t-33 57.5z" />
    <glyph glyph-name="f" unicode="f" horiz-adv-x="1196" 
d="M82 1044q16 7 39 7q26 0 87.5 -13.5t92.5 -13.5q45 0 82 20q24 15 14 86q-16 115 -14 150q10 217 285 217q106 0 202 -43q49 -51 51 -55q19 -27 19 -58q0 -32 -23 -100q-61 -33 -100 -33q-10 0 -29.5 4.5t-29.5 4.5q-70 0 -70 -78q0 -54 31 -88q18 -35 149 -15
q144 21 180 -10q45 -27 45 -133q0 -47 -12 -100q-14 -74 -43 -86q-45 -21 -172 -7q-112 15 -127 -14q-18 -18 -18 -98q0 -76 15 -226.5t15 -226.5q0 -49 -6 -78q-26 -55 -176 -55q-182 0 -192 76q-17 51 -17 137q0 66 13.5 196t13.5 195q0 113 -78 113q-31 0 -89 -12.5
t-89 -12.5q-29 0 -49 11q-76 20 -76 172q0 151 76 167z" />
    <glyph glyph-name="g" unicode="g" horiz-adv-x="1226" 
d="M244 -168q151 -51 278 -51q297 0 449 274q125 228 125 563q0 140 -25 275q-31 182 -96.5 254t-206.5 110q-115 31 -238 31q-270 0 -378 -131q-129 -158 -129 -352q0 -199 135 -320q118 -67 231 -67q66 0 164 35.5t113 35.5q20 0 30 -14q23 -31 23 -69q0 -97 -98 -164
q-91 -60 -191 -60q-108 0 -203 72q-34 14 -67 14q-56 0 -103 -41t-57 -94q27 -102 41 -123q45 -69 203 -178zM688 868q0 -108 -82 -120q-53 -9 -78 -9q-86 0 -106 82q-6 25 -6 41q0 78 137 103q45 8 90 -21t45 -76z" />
    <glyph glyph-name="h" unicode="h" horiz-adv-x="1159" 
d="M69 1403q15 90 154 90q43 0 107 -14q81 -19 81 -47q21 -25 21 -95q0 -69 -21.5 -209.5t-21.5 -209.5q0 -97 35 -97q20 0 109 25.5t145 25.5q94 0 207 -26q186 -70 186 -471q0 -254 -43 -330q-21 -47 -137 -47q-105 0 -140.5 35t-35.5 135q0 33 5 99.5t5 99.5
q0 151 -107 151q-53 0 -139 -35q-43 -10 -43 -108q0 -37 6 -107.5t6 -107.5q0 -68 -16 -97q-14 -65 -162 -65q-155 0 -174 65q-47 635 -47 965q0 242 20 375z" />
    <glyph glyph-name="i" unicode="i" horiz-adv-x="610" 
d="M57 870q37 68 180 68q156 0 199 -76q33 -59 33 -407q0 -308 -27 -394q-28 -67 -198 -67q-156 0 -183 61q-45 103 -45 447q0 313 41 368zM12 1276q14 223 262 219q94 -2 139.5 -42t67.5 -132q8 -33 8 -64q0 -108 -72.5 -169.5t-183.5 -61.5q-98 0 -162.5 76t-58.5 174z
" />
    <glyph glyph-name="j" unicode="j" horiz-adv-x="1206" 
d="M682 795q0 63 67 102q56 33 123 33q142 0 166 -125q51 -262 51 -481q0 -289 -114 -416q-119 -133 -402 -133q-182 0 -323 82q-154 88 -217 249q-23 58 -23 113q0 107 111 150q57 16 90 16q53 0 110 -53q17 -15 84 -94q37 -43 113 -43q102 0 160 57q53 82 53 203
q0 59 -24.5 171.5t-24.5 168.5zM524 1276q14 223 262 219q94 -2 139.5 -42t67.5 -132q8 -33 8 -66q0 -108 -72.5 -168.5t-183.5 -60.5q-98 0 -162.5 76t-58.5 174z" />
    <glyph glyph-name="k" unicode="k" horiz-adv-x="1206" 
d="M55 1425q10 70 168 70q198 0 207 -106q6 -35 6 -105v-82q0 -16 -2 -49v-35q0 -200 53 -229q72 -15 121 88q22 49 88 197q61 110 145 110t162 -62.5t78 -144.5q0 -22 -8 -49q-60 -201 -308 -346q136 -64 223 -192t103 -279q8 -82 -70 -135q-67 -45 -153 -45q-80 0 -131 39
q-35 45 -76 149q-49 127 -70 158q-45 72 -104 72q-17 0 -35 -5q-47 -28 -47 -108q0 -76 47 -223q-25 -107 -182 -107q-88 0 -150 41q-67 47 -71 131q-25 565 -25 719q0 330 31 528z" />
    <glyph glyph-name="l" unicode="l" horiz-adv-x="833" 
d="M63 1370q37 103 213 103q170 0 211 -91q18 -59 18 -147q0 -100 -34.5 -297t-34.5 -295q0 -45 8 -70q-2 -30 -2 -49q0 -143 180 -133q123 -4 123 -160q0 -122 -84 -165q-121 -62 -244 -62q-188 0 -303 152q-88 116 -88 540q0 283 37 674z" />
    <glyph glyph-name="m" unicode="m" horiz-adv-x="1234" 
d="M1042 55q-33 -59 -131 -59q-86 0 -103 65q-26 31 -26 189v145q0 140 -27 135q-35 2 -35 -174v-30q2 -31 2 -47v-78q0 -117 -14 -152q-10 -26 -74 -41q-49 -12 -90 -12q-108 0 -129 59q-8 25 -8 86q0 35 2 105.5t2 105.5q0 164 -41 166q-33 2 -33 -217q0 -108 9 -246
q-33 -57 -133 -57q-39 0 -84 12q-62 17 -66 45q-43 291 -43 686q0 365 43 455q29 86 162 86q123 0 133 -61l18 -113q-8 72 60 123q59 45 135 45q139 0 186 -146q31 142 150 142q94 0 143 -98q37 -152 37 -506q0 -459 -45 -613z" />
    <glyph glyph-name="n" unicode="n" horiz-adv-x="1234" 
d="M438 82q2 -80 -180 -80q-185 0 -197 74q-45 266 -45 641q0 381 47 479q29 88 146 88q51 0 92 -20q51 -25 55 -70q0 -27 4 -33q6 -12 31 -14q43 -4 76 27q38 38 84 57q77 33 157 33q150 0 259.5 -99.5t107.5 -246.5q16 -144 16 -330q0 -367 -49 -533q-31 -57 -180 -57
q-135 0 -152 68q-18 20 -18 133q0 47 3 142t3 142q0 326 -100 310q-21 -5 -107 -21q-51 -10 -61 -86q-4 -20 -4 -117q0 35 12 -487z" />
    <glyph glyph-name="o" unicode="o" 
d="M376 1278q-141 -53 -227 -236q-43 -92 -107 -325q-12 -101 -12 -178q0 -156 46 -258.5t159 -214.5q129 -60 282 -60q142 0 332 55q144 105 185 228q34 104 30 356q-51 330 -203 477q-161 156 -485 156zM378 598q2 49 33 127q37 94 74 96q71 4 137 -30q76 -41 76 -111
q0 -203 -166 -203q-160 0 -154 121z" />
    <glyph glyph-name="p" unicode="p" horiz-adv-x="1177" 
d="M100 -147q-20 43 -38.5 251.5t-18.5 462.5q0 428 66 574q34 78 186 114q106 27 227 27q137 0 258 -33q131 -35 178 -92q129 -153 129 -352t-135 -320q-118 -67 -227 -67q-59 0 -146 34.5t-100 34.5q-18 0 -28 -14q-35 -53 -35 -158q0 -73 29.5 -219.5t29.5 -218.5
q0 -18 -4 -29q-20 -75 -184 -75q-158 0 -187 80zM442 848q0 -109 82 -121q54 -8 78 -8q86 0 107 82q6 24 6 41q0 78 -137 102q-46 8 -91 -20.5t-45 -75.5z" />
    <glyph glyph-name="q" unicode="q" 
d="M1009 -147q21 43 39 251.5t18 462.5q0 428 -65 574q-35 78 -186 114q-107 27 -228 27q-137 0 -258 -33q-131 -35 -178 -92q-129 -153 -129 -352t135 -320q119 -67 227 -67q60 0 147 34.5t99 34.5q19 0 29 -14q35 -53 35 -158q0 -73 -30 -219.5t-30 -218.5q0 -18 4 -29
q21 -75 185 -75q157 0 186 80zM667 848q0 -109 -82 -121q-53 -8 -78 -8q-86 0 -106 82q-6 24 -6 41q0 78 137 102q45 8 90 -20.5t45 -75.5z" />
    <glyph glyph-name="r" unicode="r" horiz-adv-x="1167" 
d="M81 1208q-61 -80 -61 -411q0 -158 20 -369q29 -303 78 -332q33 -86 185 -86q145 0 186 86q27 23 27 86q0 66 -27 199t-27 199q0 73 29 102q41 66 229 109q101 20 301 63q41 4 64 59q16 43 16 93q0 65 -24 108q-33 55 -92 51q-47 6 -95 6q-200 0 -395 -112q-47 -6 -47 18
q2 10 12 64q9 45 -12 67q-8 70 -156 70q-57 0 -114 -14q-80 -19 -97 -56z" />
    <glyph glyph-name="s" unicode="s" horiz-adv-x="1196" 
d="M1040 1075q-94 109 -155 144q-99 55 -271 55q-208 0 -381 -123q-190 -137 -190 -338q0 -113 80 -199q84 -92 219 -110q195 -27 195 -90q0 -11 -5 -25q-38 -33 -86 -33q-49 0 -151 51.5t-148 51.5q-102 0 -135 -111q-12 -41 -12 -149q76 -101 244 -154q135 -41 288 -41
q183 0 310 45q239 84 239 326q0 141 -73 217q-64 65 -209 102q-264 66 -271 150q-4 45 35 71q33 21 82 21q82 0 191 -55q20 -11 43 -11q59 0 117.5 51.5t58.5 108.5q0 25 -15 45z" />
    <glyph glyph-name="t" unicode="t" horiz-adv-x="1198" 
d="M82 872q16 -6 35 -6q24 0 74.5 13.5t74.5 13.5q39 0 76 -21q16 -8 16 -61q0 -76 -19.5 -227.5t-19.5 -227.5q0 -125 33 -186q86 -162 291 -162q166 0 317 82q140 76 140 203q0 125 -109 170q-27 6 -49 6q-45 0 -95 -34t-73 -34q-16 0 -39 9q-53 20 -53 217q0 198 37 239
q18 35 149 15q144 -21 180 10q45 27 45 133q0 47 -12 100q-14 74 -43 86q-43 21 -166 4q-139 -18 -139 35q0 -45 10.5 46t7.5 124q-2 43 -83 66q-56 14 -115 14q-170 0 -176 -69q-4 -58 18 -158q0 -17 -24 -53q-15 -13 -48 -13q-30 0 -88.5 9.5t-89.5 9.5q-39 0 -63 -13
q-76 -20 -76 -172q0 -151 76 -168z" />
    <glyph glyph-name="u" unicode="u" horiz-adv-x="1234" 
d="M514 1153q-12 -113 -35 -252q-26 -160 -26 -239q0 -162 110 -166q111 -4 111 176q0 88 -27 246q-31 184 -35 229q-6 67 68 102q57 27 133 27q84 0 152 -33q79 -39 98 -110q33 -132 33 -304q0 -184 -47 -403q-64 -291 -170 -346q-52 -80 -324 -80q-289 0 -330 86
q-123 88 -182 317q-43 170 -43 373q0 176 41 346q18 80 94 121q68 37 164 37q70 0 131 -20q86 -31 86 -86q0 -7 -2 -21z" />
    <glyph glyph-name="v" unicode="v" horiz-adv-x="1226" 
d="M465 1149l41 -406q25 -219 76 -223q41 -4 43 223q2 318 18 416q-12 64 78 94q64 21 139 21q82 0 150 -21q102 -30 96 -96q-31 -354 -84 -637q-41 -221 -59 -278q-41 -123 -117 -179q-88 -63 -258 -63q-166 0 -242 47q-127 78 -241 459q-113 371 -105 627q2 67 107 106
q78 31 159 31q74 0 127 -25q72 -31 72 -96z" />
    <glyph glyph-name="w" unicode="w" horiz-adv-x="1243" 
d="M0 1169q0 -151 43 -524q45 -387 94 -567q23 -80 162 -80q80 0 131 33q66 39 55 114l17 146q12 61 55 69q64 -12 76 -215q-2 -67 51 -107t123 -40q123 0 158 92q141 686 141 1073q0 58 -84 84q-57 19 -129 19q-64 0 -117 -17q-78 -22 -71 -71l18 -156q10 -94 10 -170
q0 -127 -47 -131q-12 0 -27 43q-16 53 -30 76q-27 41 -78 41q-55 0 -83 -80t-42 -80q-53 14 -53 110q0 48 24 187q21 117 17 160q0 92 -199 92q-72 0 -129 -19q-86 -26 -86 -82z" />
    <glyph glyph-name="x" unicode="x" horiz-adv-x="1202" 
d="M34 1096q-2 73 82 127q74 47 152 47q61 0 115 -27q38 -24 102 -176q59 -137 94 -137q27 0 66 131q43 149 82 186q57 35 131 35q80 0 143 -39q76 -45 74 -121q-2 -104 -64 -215q-37 -65 -119 -172q-67 -88 -73 -121q6 -34 119.5 -175.5t128.5 -219.5q18 -41 18 -76
q0 -71 -63 -108q-52 -31 -127 -31q-41 0 -89 10q-59 2 -96 86q-26 70 -55 140q-43 96 -88 98q-39 0 -86 -88l-86 -164q-55 -86 -129 -86q-96 -2 -168 49q-80 57 -80 150q0 82 72 176q24 33 133 143q67 70 65 100q-2 27 -127 204t-127 274z" />
    <glyph glyph-name="y" unicode="y" horiz-adv-x="1177" 
d="M4 1159q0 64 100 98q76 25 154 25q158 0 168 -76q16 -112 33 -198q22 -119 92 -134q74 0 98 125q10 68 35 203q20 72 180 72q80 0 141 -29q84 -37 80 -106q-6 -115 -69 -275q-51 -129 -170 -360q-70 -135 -211 -404q-176 -319 -324 -311q-133 6 -203 76q-45 45 -45 84
q0 94 177 354q124 184 124 207q0 8 -8 12q-184 68 -280 299q-72 172 -72 338z" />
    <glyph glyph-name="z" unicode="z" horiz-adv-x="1218" 
d="M57 1217q-51 -39 -51 -152q0 -152 63 -180q17 -23 62 -23q55 0 166.5 30t169.5 30q80 0 106 -52q13 -10 13 -22q0 -37 -172 -137q-107 -62 -215 -121q-144 -86 -168 -166q-25 -47 -25 -135q0 -197 90 -232q117 -57 424 -57q354 0 461 57q119 37 119 164q0 58 -27 109
q-31 59 -80 78q-20 12 -59 12q-56 0 -163.5 -23.5t-162.5 -23.5q-49 0 -57 24q-4 56 217 158q237 111 272 178q45 62 45 230q0 159 -80 233q-143 86 -493 86q-320 0 -455 -65z" />
    <glyph glyph-name="braceleft" unicode="{" horiz-adv-x="1071" 
d="M575 1493q-350 -55 -350 -281q0 -92 65 -192q-2 -66 -73.5 -143.5t-71.5 -135.5q0 -39 76 -125t65 -151q-82 -107 -82 -197q0 -133 168 -205q129 -55 285 -55q121 0 209 39q119 51 119 156q0 28 -11 61q-20 66 -114 66q-37 0 -107.5 -12.5t-105.5 -12.5q-56 0 -56 39
q0 35 43 107q-2 81 -49 137l-88 76q-45 38 -45 88q2 63 47 106q29 27 88 78q50 57 56 143q-15 47 -15 76q0 53 58 53q26 0 80.5 -10t80.5 -10q78 0 99 61q12 37 12 72q0 96 -100 145q-76 35 -185 35q-47 0 -98 -8z" />
    <glyph glyph-name="bar" unicode="|" horiz-adv-x="618" 
d="M57 1464q6 43 184 43q170 0 195 -51q33 -67 33 -721q0 -594 -27 -674q-23 -67 -197 -67q-157 0 -184 61q-45 103 -45 762q0 592 41 647z" />
    <glyph glyph-name="braceright" unicode="}" horiz-adv-x="1056" 
d="M498 1493q350 -55 350 -281q0 -92 -66 -192q2 -66 74 -143.5t72 -135.5q0 -39 -76 -125t-66 -151q82 -107 82 -197q0 -133 -168 -205q-129 -55 -284 -55q-121 0 -209 39q-119 51 -119 156q0 28 10 61q21 66 115 66q37 0 107.5 -12.5t105.5 -12.5q55 0 55 39q0 35 -43 107
q2 81 49 137l88 76q45 38 45 88q-2 63 -47 106q-28 27 -88 78q-49 57 -55 143q14 47 14 76q0 53 -57 53q-27 0 -81 -10t-81 -10q-78 0 -98 61q-12 37 -12 72q0 96 100 145q76 35 184 35q47 0 99 -8z" />
    <glyph glyph-name="asciitilde" unicode="~" horiz-adv-x="1208" 
d="M378 1151q-33 -8 -67 -43q-13 -16 -37 -47q-62 -70 -131 -70q-54 0 -83.5 41t-29.5 96q0 117 119 254q35 41 103.5 76t119.5 35q125 0 178 -43q10 -8 60 -82q28 -43 94 -45q43 0 80 51q26 39 59 82q45 35 96 35q62 0 103 -46t41 -110q0 -63 -41 -127q-66 -102 -125 -147
q-88 -68 -217 -72q-95 -4 -156 41q-14 10 -82 84q-39 43 -84 37z" />
    <glyph glyph-name="dieresis" unicode="&#xa8;" horiz-adv-x="1024" 
 />
    <glyph glyph-name="copyright" unicode="&#xa9;" horiz-adv-x="1772" 
 />
    <glyph glyph-name="registered" unicode="&#xae;" horiz-adv-x="1770" 
 />
    <glyph glyph-name="acute" unicode="&#xb4;" horiz-adv-x="1024" 
 />
    <glyph glyph-name="paragraph" unicode="&#xb6;" horiz-adv-x="1024" 
d="M929 1435v-70h-127v-1365h-82v1365h-166v-1365h-84v738q-174 8 -275.5 102.5t-101.5 245.5q0 157 107.5 253t285.5 96h443z" />
    <glyph glyph-name="onequarter" unicode="&#xbc;" horiz-adv-x="1298" 
d="M24 1413q0 55 113 92q65 15 139 15q104 0 141 -39q45 -47 45 -252q0 -234 -30 -371q-13 -55 -148 -55q-125 0 -141 41q-4 24 -4 67q0 62 12 182.5t12 182.5q0 108 -47 108q-8 0 -25.5 -4t-25.5 -4q-41 0 -41 37zM372 53q-37 -39 -90 -39q-65 0 -127.5 52.5t-62.5 115.5
q0 21 8 39q88 197 313 610q213 396 307 613q19 45 86 45q74 0 134.5 -50t60.5 -122q0 -17 -4 -35q-223 -426 -625 -1229zM1120 43q-60 -55 -252 -55q-254 0 -254 104q0 47 28 82q17 21 54 21q28 0 83.5 -13.5t84.5 -13.5q61 0 61 65q0 50 -53 50q-21 0 -59.5 -6.5
t-59.5 -6.5q-80 0 -90 78q12 82 113 82h30q21 -2 29 -2q78 0 74 61q-19 56 -74 56q-27 0 -85 -18.5t-85 -18.5q-12 0 -23 4q-34 27 -34 63q0 125 276 125q182 0 232 -61q59 -61 59 -139q0 -88 -80 -129q107 -56 107 -156q0 -96 -82 -172z" />
    <glyph glyph-name="onehalf" unicode="&#xbd;" horiz-adv-x="1320" 
d="M24 1413q0 55 113 92q65 15 139 15q104 0 141 -39q45 -47 45 -252q0 -234 -30 -371q-13 -55 -148 -55q-125 0 -141 41q-4 24 -4 67q0 62 12 182.5t12 182.5q0 108 -47 108q-8 0 -25.5 -4t-25.5 -4q-41 0 -41 37zM636 598q84 135 281 135q90 0 166 -35q92 -41 112 -116
q15 -54 15 -99q0 -145 -166 -217q-59 -26 -62 -35q62 15 113 15q43 0 70 -13q53 -14 53 -88q0 -77 -43 -94q-14 -26 -291 -26q-221 0 -256 30q-22 43 -22 84q0 80 90 152q30 24 168 102q90 51 90 82q0 74 -105 74q-43 0 -73.5 -45t-69.5 -47q-98 -4 -98 65q0 31 28 76z
M372 53q-37 -39 -90 -39q-65 0 -127.5 52.5t-62.5 115.5q0 21 8 39q88 197 313 610q213 396 307 613q19 45 86 45q74 0 134.5 -50t60.5 -122q0 -17 -4 -35q-223 -426 -625 -1229z" />
    <glyph glyph-name="threequarters" unicode="&#xbe;" horiz-adv-x="1288" 
d="M24 1413q0 55 113 92q65 15 139 15q104 0 141 -39q45 -47 45 -252q0 -234 -30 -371q-13 -55 -148 -55q-125 0 -141 41q-4 24 -4 67q0 62 12 182.5t12 182.5q0 108 -47 108q-8 0 -25.5 -4t-25.5 -4q-41 0 -41 37zM372 53q-37 -39 -90 -39q-65 0 -127.5 52.5t-62.5 115.5
q0 21 8 39q88 197 313 610q213 396 307 613q19 45 86 45q74 0 134.5 -50t60.5 -122q0 -17 -4 -35q-223 -426 -625 -1229zM985 752q-170 16 -312 -152q-127 -151 -127 -295q0 -22 4 -39q64 -65 142 -65q22 0 64 11t61 11q20 0 20 -20q0 -13 -9 -40.5t-9 -43.5q0 -25 10 -45
q14 -31 123 -31q65 0 92 23q10 22 10 57q-2 14 -12 88q20 14 62 13t55 7q28 21 28 76q0 101 -71 101q-9 0 -26 -3.5t-26 -3.5q-14 0 -16 11q10 94 10 159q0 183 -73 181zM796 428q2 14 18.5 35.5t28.5 21.5q10 0 10 -43q0 -28 -18 -28q-41 0 -39 14z" />
    <glyph glyph-name="Agrave" unicode="&#xc0;" horiz-adv-x="1212" 
d="M227 1372q57 121 317 121q99 0 183 -27q112 -32 145 -100q72 -141 150 -588q75 -422 75 -616q0 -88 -18 -101q-14 -26 -84 -45q-57 -14 -98 -14q-99 0 -166 59q-64 103 -78 201q-8 72 -27 213q-14 60 -67 60q-23 0 -49.5 -15.5t-24.5 -38.5q-6 -86 -23 -256
q-12 -125 -59 -164q-68 -57 -170 -57q-135 0 -197 80q-20 18 -20 139q0 234 57 572q68 395 154 577zM411 954q0 -49 37 -80.5t86 -31.5t87 31.5t38 80.5q0 50 -38 81.5t-87 31.5t-86 -31.5t-37 -81.5zM326 1919q69 -14 202 -67q154 -62 232 -108q39 -23 11 -95
q-25 -61 -61 -56q-108 31 -274 98q-117 47 -177 80q-20 35 2 87q23 59 65 61z" />
    <glyph glyph-name="Aacute" unicode="&#xc1;" horiz-adv-x="1212" 
d="M227 1372q57 121 317 121q99 0 183 -27q112 -32 145 -100q72 -141 150 -588q75 -422 75 -616q0 -88 -18 -101q-14 -26 -84 -45q-57 -14 -98 -14q-99 0 -166 59q-64 103 -78 201q-8 72 -27 213q-14 60 -67 60q-23 0 -49.5 -15.5t-24.5 -38.5q-6 -86 -23 -256
q-12 -125 -59 -164q-68 -57 -170 -57q-135 0 -197 80q-20 18 -20 139q0 234 57 572q68 395 154 577zM411 954q0 -49 37 -80.5t86 -31.5t87 31.5t38 80.5q0 50 -38 81.5t-87 31.5t-86 -31.5t-37 -81.5zM772 1858q21 -52 1 -87q-60 -33 -176 -80q-167 -67 -275 -98
q-36 -5 -60 56q-29 72 10 95q79 46 233 108q132 53 201 67q42 -2 66 -61z" />
    <glyph glyph-name="Acircumflex" unicode="&#xc2;" horiz-adv-x="1212" 
d="M227 1372q57 121 317 121q99 0 183 -27q112 -32 145 -100q72 -141 150 -588q75 -422 75 -616q0 -88 -18 -101q-14 -26 -84 -45q-57 -14 -98 -14q-99 0 -166 59q-64 103 -78 201q-8 72 -27 213q-14 60 -67 60q-23 0 -49.5 -15.5t-24.5 -38.5q-6 -86 -23 -256
q-12 -125 -59 -164q-68 -57 -170 -57q-135 0 -197 80q-20 18 -20 139q0 234 57 572q68 395 154 577zM411 954q0 -49 37 -80.5t86 -31.5t87 31.5t38 80.5q0 50 -38 81.5t-87 31.5t-86 -31.5t-37 -81.5zM255 1708q47 61 126 126q103 84 161 83q70 0 179 -104
q104 -100 121 -173q0 -37 -24 -65t-60 -28q-23 0 -46 17q-31 22 -91 99q-48 61 -79 61q-27 0 -106 -81q-84 -86 -105 -92q-42 0 -66.5 26t-24.5 70q0 32 15 61z" />
    <glyph glyph-name="Atilde" unicode="&#xc3;" horiz-adv-x="1212" 
d="M227 1372q57 121 317 121q99 0 183 -27q112 -32 145 -100q72 -141 150 -588q75 -422 75 -616q0 -88 -18 -101q-14 -26 -84 -45q-57 -14 -98 -14q-99 0 -166 59q-64 103 -78 201q-8 72 -27 213q-14 60 -67 60q-23 0 -49.5 -15.5t-24.5 -38.5q-6 -86 -23 -256
q-12 -125 -59 -164q-68 -57 -170 -57q-135 0 -197 80q-20 18 -20 139q0 234 57 572q68 395 154 577zM411 954q0 -49 37 -80.5t86 -31.5t87 31.5t38 80.5q0 50 -38 81.5t-87 31.5t-86 -31.5t-37 -81.5zM485 1680q-20 -5 -38 -25q-7 -10 -22 -28q-36 -40 -76 -40q-31 0 -48 24
t-17 56q0 68 68 147q20 22 60.5 42.5t68.5 20.5q73 0 104 -24q5 -5 34 -48q17 -25 54 -26q25 0 47 30q15 22 34 47q26 20 56 20q35 0 59 -26.5t24 -63.5q0 -36 -24 -73q-38 -58 -72 -86q-50 -39 -126 -41q-54 -2 -90 24q-8 6 -47 48q-23 25 -49 22z" />
    <glyph glyph-name="Egrave" unicode="&#xc8;" horiz-adv-x="1157" 
d="M144 1372q80 109 383 109q224 0 400 -74q65 -84 65 -160q0 -61 -47 -98q-14 -10 -41 -10q-30 0 -103 13t-110 13q-78 0 -135 -35q-65 -40 -65 -114q0 -66 45 -90q41 -31 186 -39q160 -10 193 -21q51 -32 51 -116q0 -64 -45 -91q-33 -6 -86 -6h-54q-73 2 -55 2
q-153 0 -196 -67q10 -242 471 -232q77 -22 77 -139q0 -115 -100 -162q-111 -51 -358 -51q-404 0 -504 180q-78 140 -78 568q0 475 106 620zM325 1919q69 -14 202 -67q154 -62 233 -108q39 -23 10 -95q-25 -61 -60 -56q-108 31 -275 98q-117 47 -177 80q-19 35 2 87
q24 59 65 61z" />
    <glyph glyph-name="Eacute" unicode="&#xc9;" horiz-adv-x="1157" 
d="M144 1372q80 109 383 109q224 0 400 -74q65 -84 65 -160q0 -61 -47 -98q-14 -10 -41 -10q-30 0 -103 13t-110 13q-78 0 -135 -35q-65 -40 -65 -114q0 -66 45 -90q41 -31 186 -39q160 -10 193 -21q51 -32 51 -116q0 -64 -45 -91q-33 -6 -86 -6h-54q-73 2 -55 2
q-153 0 -196 -67q10 -242 471 -232q77 -22 77 -139q0 -115 -100 -162q-111 -51 -358 -51q-404 0 -504 180q-78 140 -78 568q0 475 106 620zM851 1858q21 -52 2 -87q-60 -33 -177 -80q-167 -67 -275 -98q-35 -5 -60 56q-29 72 11 95q78 46 232 108q133 53 202 67
q42 -2 65 -61z" />
    <glyph glyph-name="Ecircumflex" unicode="&#xca;" horiz-adv-x="1157" 
d="M144 1372q80 109 383 109q224 0 400 -74q65 -84 65 -160q0 -61 -47 -98q-14 -10 -41 -10q-30 0 -103 13t-110 13q-78 0 -135 -35q-65 -40 -65 -114q0 -66 45 -90q41 -31 186 -39q160 -10 193 -21q51 -32 51 -116q0 -64 -45 -91q-33 -6 -86 -6h-54q-73 2 -55 2
q-153 0 -196 -67q10 -242 471 -232q77 -22 77 -139q0 -115 -100 -162q-111 -51 -358 -51q-404 0 -504 180q-78 140 -78 568q0 475 106 620zM254 1708q48 61 127 126q102 84 160 83q71 0 179 -104q104 -100 122 -173q0 -37 -24.5 -65t-60.5 -28q-23 0 -46 17q-31 22 -91 99
q-47 61 -79 61q-27 0 -105 -81q-85 -86 -105 -92q-43 0 -67 26t-24 70q0 32 14 61z" />
    <glyph glyph-name="Igrave" unicode="&#xcc;" horiz-adv-x="618" 
d="M58 1403q36 67 180 67q155 0 198 -75q33 -60 33 -690q0 -558 -26 -644q-29 -67 -199 -67q-156 0 -182 61q-45 103 -45 729q0 564 41 619zM26 1919q68 -14 201 -67q154 -62 233 -108q39 -23 10 -95q-24 -61 -60 -56q-108 31 -275 98q-116 47 -177 80q-19 35 2 87
q24 59 66 61z" />
    <glyph glyph-name="Iacute" unicode="&#xcd;" horiz-adv-x="618" 
d="M57 1403q37 67 180 67q156 0 199 -75q33 -60 33 -690q0 -558 -27 -644q-29 -67 -199 -67q-155 0 -182 61q-45 103 -45 729q0 564 41 619zM581 1858q21 -52 1 -87q-60 -33 -176 -80q-167 -67 -275 -98q-36 -5 -60 56q-29 72 10 95q79 46 233 108q132 53 201 67
q42 -2 66 -61z" />
    <glyph glyph-name="Ograve" unicode="&#xd2;" horiz-adv-x="1202" 
d="M382 1487q-139 -62 -227 -277q-45 -110 -107 -376q-12 -117 -12 -209q0 -172 46 -296t159 -251q127 -70 280 -70q144 0 334 64q139 118 182 264q37 127 33 416q-49 362 -184 532q-166 203 -504 203zM411 705q2 55 33 145q36 111 73 115q78 6 145.5 -41t67.5 -123
q0 -111 -28 -164q-37 -72 -138 -72q-161 0 -153 140zM355 1919q69 -14 202 -67q154 -62 233 -108q39 -23 10 -95q-24 -61 -60 -56q-108 31 -275 98q-117 47 -177 80q-19 35 2 87q24 59 65 61z" />
    <glyph glyph-name="Oacute" unicode="&#xd3;" horiz-adv-x="1202" 
d="M382 1487q-139 -62 -227 -277q-45 -110 -107 -376q-12 -117 -12 -209q0 -172 46 -296t159 -251q127 -70 280 -70q144 0 334 64q139 118 182 264q37 127 33 416q-49 362 -184 532q-166 203 -504 203zM411 705q2 55 33 145q36 111 73 115q78 6 145.5 -41t67.5 -123
q0 -111 -28 -164q-37 -72 -138 -72q-161 0 -153 140zM801 1858q21 -52 2 -87q-60 -33 -177 -80q-167 -67 -275 -98q-35 -5 -60 56q-29 72 11 95q78 46 232 108q133 53 202 67q42 -2 65 -61z" />
    <glyph glyph-name="Ocircumflex" unicode="&#xd4;" horiz-adv-x="1202" 
d="M382 1487q-139 -62 -227 -277q-45 -110 -107 -376q-12 -117 -12 -209q0 -172 46 -296t159 -251q127 -70 280 -70q144 0 334 64q139 118 182 264q37 127 33 416q-49 362 -184 532q-166 203 -504 203zM411 705q2 55 33 145q36 111 73 115q78 6 145.5 -41t67.5 -123
q0 -111 -28 -164q-37 -72 -138 -72q-161 0 -153 140zM254 1708q48 61 127 126q102 84 160 83q71 0 179 -104q104 -100 122 -173q0 -37 -24.5 -65t-60.5 -28q-23 0 -46 17q-31 22 -91 99q-47 61 -79 61q-27 0 -105 -81q-85 -86 -105 -92q-43 0 -67 26t-24 70q0 32 14 61z" />
    <glyph glyph-name="Otilde" unicode="&#xd5;" horiz-adv-x="1202" 
d="M382 1487q-139 -62 -227 -277q-45 -110 -107 -376q-12 -117 -12 -209q0 -172 46 -296t159 -251q127 -70 280 -70q144 0 334 64q139 118 182 264q37 127 33 416q-49 362 -184 532q-166 203 -504 203zM411 705q2 55 33 145q36 111 73 115q78 6 145.5 -41t67.5 -123
q0 -111 -28 -164q-37 -72 -138 -72q-161 0 -153 140zM423 1680q-21 -5 -38 -25q-7 -10 -23 -28q-35 -40 -76 -40q-31 0 -48 24t-17 56q0 68 69 147q20 22 60.5 42.5t68.5 20.5q72 0 103 -24q6 -5 34 -48q17 -25 55 -26q25 0 46 30q16 22 35 47q26 20 55 20q36 0 59.5 -26.5
t23.5 -63.5q0 -36 -24 -73q-37 -58 -72 -86q-50 -39 -125 -41q-55 -2 -90 24q-9 6 -48 48q-22 25 -48 22z" />
    <glyph glyph-name="Ugrave" unicode="&#xd9;" horiz-adv-x="1239" 
d="M514 1343q-12 -133 -35 -292q-26 -187 -26 -279q0 -188 110 -192q111 -5 111 204q0 103 -27 285q-31 211 -35 268q-6 76 64 117q57 33 137 33q88 0 156 -41q75 -45 94 -127q33 -152 33 -352q0 -211 -47 -465q-62 -342 -170 -406q-52 -94 -324 -94q-291 0 -330 100
q-125 107 -182 375q-43 197 -43 428q0 203 41 402q20 94 92 139t166 45q72 0 135 -27q82 -34 82 -98q0 -6 -2 -23zM356 1919q69 -14 202 -67q154 -62 233 -108q39 -23 10 -95q-25 -61 -60 -56q-108 31 -275 98q-117 47 -177 80q-19 35 2 87q24 59 65 61z" />
    <glyph glyph-name="Uacute" unicode="&#xda;" horiz-adv-x="1239" 
d="M514 1343q-12 -133 -35 -292q-26 -187 -26 -279q0 -188 110 -192q111 -5 111 204q0 103 -27 285q-31 211 -35 268q-6 76 64 117q57 33 137 33q88 0 156 -41q75 -45 94 -127q33 -152 33 -352q0 -211 -47 -465q-62 -342 -170 -406q-52 -94 -324 -94q-291 0 -330 100
q-125 107 -182 375q-43 197 -43 428q0 203 41 402q20 94 92 139t166 45q72 0 135 -27q82 -34 82 -98q0 -6 -2 -23zM802 1858q21 -52 2 -87q-60 -33 -177 -80q-167 -67 -275 -98q-35 -5 -60 56q-29 72 10 95q79 46 233 108q133 53 202 67q41 -2 65 -61z" />
    <glyph glyph-name="Yacute" unicode="&#xdd;" horiz-adv-x="1173" 
d="M43 1372q0 51 90 86q72 29 133 29q90 0 105 -53q26 -35 49 -121q26 -99 41 -127q31 -62 90 -60q123 7 168 301q14 58 131 58q74 0 141 -29q84 -37 84 -102q-33 -336 -67 -441q-68 -202 -250 -245q-10 -23 -10 -70q0 -70 19 -209t19 -209q0 -51 -6 -78q-20 -94 -211 -94
q-67 0 -143 21q-102 26 -107 73q-4 68 17 238q22 182 22 238q0 59 -14 86q-190 69 -256 280q-45 143 -45 428zM802 1858q21 -52 2 -87q-60 -33 -177 -80q-167 -67 -275 -98q-35 -5 -60 56q-29 72 10 95q79 46 233 108q133 53 202 67q41 -2 65 -61z" />
    <glyph glyph-name="agrave" unicode="&#xe0;" horiz-adv-x="1214" 
d="M108 1233q125 123 416 123q289 0 405 -139q84 -50 119 -314q23 -166 23 -358q0 -320 -54 -441q-18 -98 -155 -98q-109 0 -123 64q-99 -43 -217 -43q-252 0 -398 131q-102 133 -102 309q0 147 88 229q119 111 272 111q97 0 271 -64q78 0 78 88q0 58 -37 108t-90 69
q-68 22 -136 22q-65 0 -155 -41t-117 -41q-41 0 -88 31q-51 72 -51 137q0 68 51 117zM350 430q0 -49 28 -68q17 -10 72 -16q59 -6 104 10q58 21 58 76q0 90 -146 111q-53 8 -84.5 -25t-31.5 -88zM346 1748q69 -14 201 -67q154 -62 233 -108q39 -23 10 -95q-24 -61 -60 -56
q-108 31 -275 98q-116 47 -176 80q-20 35 1 87q24 59 66 61z" />
    <glyph glyph-name="aacute" unicode="&#xe1;" horiz-adv-x="1214" 
d="M108 1233q125 123 416 123q289 0 405 -139q84 -50 119 -314q23 -166 23 -358q0 -320 -54 -441q-18 -98 -155 -98q-109 0 -123 64q-99 -43 -217 -43q-252 0 -398 131q-102 133 -102 309q0 147 88 229q119 111 272 111q97 0 271 -64q78 0 78 88q0 58 -37 108t-90 69
q-68 22 -136 22q-65 0 -155 -41t-117 -41q-41 0 -88 31q-51 72 -51 137q0 68 51 117zM350 430q0 -49 28 -68q17 -10 72 -16q59 -6 104 10q58 21 58 76q0 90 -146 111q-53 8 -84.5 -25t-31.5 -88zM792 1687q21 -52 1 -87q-60 -33 -176 -80q-167 -67 -275 -98q-36 -5 -60 56
q-29 72 10 95q79 46 233 108q132 53 201 67q42 -2 66 -61z" />
    <glyph glyph-name="acircumflex" unicode="&#xe2;" horiz-adv-x="1214" 
d="M108 1233q125 123 416 123q289 0 405 -139q84 -50 119 -314q23 -166 23 -358q0 -320 -54 -441q-18 -98 -155 -98q-109 0 -123 64q-99 -43 -217 -43q-252 0 -398 131q-102 133 -102 309q0 147 88 229q119 111 272 111q97 0 271 -64q78 0 78 88q0 58 -37 108t-90 69
q-68 22 -136 22q-65 0 -155 -41t-117 -41q-41 0 -88 31q-51 72 -51 137q0 68 51 117zM350 430q0 -49 28 -68q17 -10 72 -16q59 -6 104 10q58 21 58 76q0 90 -146 111q-53 8 -84.5 -25t-31.5 -88zM255 1567q47 61 126 126q103 84 161 83q70 0 179 -104q104 -100 121 -173
q0 -37 -24 -65t-61 -28q-22 0 -45 17q-32 22 -91 99q-48 61 -79 61q-27 0 -106 -81q-84 -86 -105 -92q-43 0 -67 26t-24 70q0 32 15 61z" />
    <glyph glyph-name="atilde" unicode="&#xe3;" horiz-adv-x="1214" 
d="M108 1233q125 123 416 123q289 0 405 -139q84 -50 119 -314q23 -166 23 -358q0 -320 -54 -441q-18 -98 -155 -98q-109 0 -123 64q-99 -43 -217 -43q-252 0 -398 131q-102 133 -102 309q0 147 88 229q119 111 272 111q97 0 271 -64q78 0 78 88q0 58 -37 108t-90 69
q-68 22 -136 22q-65 0 -155 -41t-117 -41q-41 0 -88 31q-51 72 -51 137q0 68 51 117zM350 430q0 -49 28 -68q17 -10 72 -16q59 -6 104 10q58 21 58 76q0 90 -146 111q-53 8 -84.5 -25t-31.5 -88zM403 1559q-20 -5 -38 -25q-7 -10 -23 -28q-35 -40 -75 -40q-31 0 -48.5 24
t-17.5 56q0 68 69 147q20 22 60.5 42.5t68.5 20.5q73 0 103 -24q6 -5 35 -48q16 -25 54 -26q25 0 46 30q16 22 35 47q26 20 56 20q35 0 58.5 -26.5t23.5 -63.5q0 -36 -23 -73q-38 -58 -72 -86q-50 -39 -126 -41q-55 -2 -90 24q-8 6 -48 48q-22 25 -48 22z" />
    <glyph glyph-name="egrave" unicode="&#xe8;" 
d="M598 1276q-74 -2 -191 -14q-291 -66 -375 -471q-18 -89 -18 -150q0 -252 125 -397q72 -82 135 -117q19 -10 195 -76q131 -31 200 -31q95 0 185 37q133 56 178 112t55 175q6 62 -30.5 103.5t-98.5 41.5q-37 0 -74 -16q-84 -53 -172 -53q-34 0 -194 43q-35 10 -60.5 39.5
t-25.5 64.5q0 39 35 60q6 4 20 4q39 0 124 -17.5t128 -17.5q242 0 289 278q0 408 -344 408q-4 0 -86 -6zM491 958q0 37 33 58.5t72 21.5q36 0 69 -21.5t33 -58.5q0 -36 -33 -57.5t-69 -21.5q-39 0 -72 21.5t-33 57.5zM346 1748q69 -14 202 -67q154 -62 232 -108
q39 -23 11 -95q-25 -61 -60 -56q-109 31 -275 98q-117 47 -177 80q-20 35 2 87q23 59 65 61z" />
    <glyph glyph-name="eacute" unicode="&#xe9;" 
d="M598 1276q-74 -2 -191 -14q-291 -66 -375 -471q-18 -89 -18 -150q0 -252 125 -397q72 -82 135 -117q19 -10 195 -76q131 -31 200 -31q95 0 185 37q133 56 178 112t55 175q6 62 -30.5 103.5t-98.5 41.5q-37 0 -74 -16q-84 -53 -172 -53q-34 0 -194 43q-35 10 -60.5 39.5
t-25.5 64.5q0 39 35 60q6 4 20 4q39 0 124 -17.5t128 -17.5q242 0 289 278q0 408 -344 408q-4 0 -86 -6zM491 958q0 37 33 58.5t72 21.5q36 0 69 -21.5t33 -58.5q0 -36 -33 -57.5t-69 -21.5q-39 0 -72 21.5t-33 57.5zM923 1687q21 -52 2 -87q-61 -33 -177 -80
q-167 -67 -275 -98q-36 -5 -60 56q-29 72 10 95q79 46 233 108q132 53 201 67q42 -2 66 -61z" />
    <glyph glyph-name="ecircumflex" unicode="&#xea;" 
d="M598 1276q-74 -2 -191 -14q-291 -66 -375 -471q-18 -89 -18 -150q0 -252 125 -397q72 -82 135 -117q19 -10 195 -76q131 -31 200 -31q95 0 185 37q133 56 178 112t55 175q6 62 -30.5 103.5t-98.5 41.5q-37 0 -74 -16q-84 -53 -172 -53q-34 0 -194 43q-35 10 -60.5 39.5
t-25.5 64.5q0 39 35 60q6 4 20 4q39 0 124 -17.5t128 -17.5q242 0 289 278q0 408 -344 408q-4 0 -86 -6zM491 958q0 37 33 58.5t72 21.5q36 0 69 -21.5t33 -58.5q0 -36 -33 -57.5t-69 -21.5q-39 0 -72 21.5t-33 57.5zM305 1567q48 61 126 126q103 84 161 83q71 0 179 -104
q104 -100 121 -173q0 -37 -24 -65t-60 -28q-23 0 -46 17q-31 22 -91 99q-48 61 -79 61q-27 0 -106 -81q-84 -86 -105 -92q-42 0 -66.5 26t-24.5 70q0 32 15 61z" />
    <glyph glyph-name="igrave" unicode="&#xec;" horiz-adv-x="610" 
d="M58 870q36 68 180 68q155 0 198 -76q33 -59 33 -407q0 -308 -26 -394q-29 -67 -199 -67q-156 0 -182 61q-45 103 -45 447q0 313 41 368zM-5 1447q68 -14 201 -67q154 -62 233 -108q39 -23 10 -95q-24 -61 -60 -56q-108 31 -275 98q-116 47 -177 80q-19 35 2 87
q24 59 66 61z" />
    <glyph glyph-name="iacute" unicode="&#xed;" horiz-adv-x="610" 
d="M57 870q37 68 180 68q156 0 199 -76q33 -59 33 -407q0 -308 -27 -394q-29 -67 -199 -67q-155 0 -182 61q-45 103 -45 447q0 313 41 368zM570 1386q21 -52 1 -87q-60 -33 -176 -80q-167 -67 -275 -98q-36 -5 -60 56q-29 72 10 95q79 46 233 108q132 53 201 67
q42 -2 66 -61z" />
    <glyph glyph-name="ograve" unicode="&#xf2;" 
d="M376 1278q-141 -53 -227 -236q-43 -92 -107 -325q-12 -101 -12 -178q0 -156 46 -258.5t159 -214.5q129 -60 282 -60q142 0 332 55q144 105 185 228q34 104 30 356q-51 330 -203 477q-161 156 -485 156zM378 598q2 49 33 127q37 94 74 96q71 4 137 -30q76 -41 76 -111
q0 -203 -166 -203q-160 0 -154 121zM290 1687q-21 -52 -2 -87q61 -33 177 -80q167 -67 275 -98q36 -5 60 56q29 72 -10 95q-79 46 -233 108q-132 53 -201 67q-42 -2 -66 -61z" />
    <glyph glyph-name="oacute" unicode="&#xf3;" 
d="M376 1278q-141 -53 -227 -236q-43 -92 -107 -325q-12 -101 -12 -178q0 -156 46 -258.5t159 -214.5q129 -60 282 -60q142 0 332 55q144 105 185 228q34 104 30 356q-51 330 -203 477q-161 156 -485 156zM378 598q2 49 33 127q37 94 74 96q71 4 137 -30q76 -41 76 -111
q0 -203 -166 -203q-160 0 -154 121zM736 1748q-69 -14 -202 -67q-154 -62 -232 -108q-39 -23 -11 -95q25 -61 60 -56q109 31 275 98q117 47 177 80q20 35 -2 87q-23 59 -65 61z" />
    <glyph glyph-name="ocircumflex" unicode="&#xf4;" 
d="M376 1278q-141 -53 -227 -236q-43 -92 -107 -325q-12 -101 -12 -178q0 -156 46 -258.5t159 -214.5q129 -60 282 -60q142 0 332 55q144 105 185 228q34 104 30 356q-51 330 -203 477q-161 156 -485 156zM378 598q2 49 33 127q37 94 74 96q71 4 137 -30q76 -41 76 -111
q0 -203 -166 -203q-160 0 -154 121zM244 1567q47 61 126 126q102 84 161 83q70 0 178 -104q105 -100 122 -173q0 -37 -24.5 -65t-60.5 -28q-23 0 -46 17q-31 22 -91 99q-47 61 -78 61q-27 0 -106 -81q-85 -86 -105 -92q-43 0 -67 26t-24 70q0 32 15 61z" />
    <glyph glyph-name="otilde" unicode="&#xf5;" 
d="M376 1278q-141 -53 -227 -236q-43 -92 -107 -325q-12 -101 -12 -178q0 -156 46 -258.5t159 -214.5q129 -60 282 -60q142 0 332 55q144 105 185 228q34 104 30 356q-51 330 -203 477q-161 156 -485 156zM378 598q2 49 33 127q37 94 74 96q71 4 137 -30q76 -41 76 -111
q0 -203 -166 -203q-160 0 -154 121zM504 1559q-20 -5 -38 -25q-7 -10 -23 -28q-35 -40 -76 -40q-30 0 -47.5 24t-17.5 56q0 68 69 147q20 22 60.5 42.5t68.5 20.5q72 0 103 -24q6 -5 35 -48q16 -25 54 -26q25 0 46 30q16 22 35 47q26 20 55 20q36 0 59.5 -26.5t23.5 -63.5
q0 -36 -23 -73q-38 -58 -73 -86q-49 -39 -125 -41q-55 -2 -90 24q-9 6 -48 48q-22 25 -48 22z" />
    <glyph glyph-name="divide" unicode="&#xf7;" horiz-adv-x="1706" 
 />
    <glyph glyph-name="glyph216" unicode="&#xf9;" horiz-adv-x="1234" 
d="M514 1153q-12 -113 -35 -252q-26 -160 -26 -239q0 -162 110 -166q111 -4 111 176q0 88 -27 246q-31 184 -35 229q-6 67 68 102q57 27 133 27q84 0 152 -33q79 -39 98 -110q33 -132 33 -304q0 -184 -47 -403q-64 -291 -170 -346q-52 -80 -324 -80q-289 0 -330 86
q-123 88 -182 317q-43 170 -43 373q0 176 41 346q18 80 94 121q68 37 164 37q70 0 131 -20q86 -31 86 -86q0 -7 -2 -21zM291 1687q-21 -52 -2 -87q60 -33 177 -80q167 -67 275 -98q35 -5 60 56q29 72 -10 95q-79 46 -233 108q-133 53 -202 67q-41 -2 -65 -61z" />
    <glyph glyph-name="glyph217" unicode="&#xfa;" horiz-adv-x="1234" 
d="M514 1153q-12 -113 -35 -252q-26 -160 -26 -239q0 -162 110 -166q111 -4 111 176q0 88 -27 246q-31 184 -35 229q-6 67 68 102q57 27 133 27q84 0 152 -33q79 -39 98 -110q33 -132 33 -304q0 -184 -47 -403q-64 -291 -170 -346q-52 -80 -324 -80q-289 0 -330 86
q-123 88 -182 317q-43 170 -43 373q0 176 41 346q18 80 94 121q68 37 164 37q70 0 131 -20q86 -31 86 -86q0 -7 -2 -21zM737 1748q-69 -14 -202 -67q-154 -62 -233 -108q-39 -23 -10 -95q25 -61 60 -56q108 31 275 98q117 47 177 80q19 35 -2 87q-24 59 -65 61z" />
    <glyph glyph-name="glyph234" unicode="&#xfd;" horiz-adv-x="1177" 
d="M4 1159q0 64 100 98q76 25 154 25q158 0 168 -76q16 -112 33 -198q22 -119 92 -134q74 0 98 125q10 68 35 203q20 72 180 72q80 0 141 -29q84 -37 80 -106q-6 -115 -69 -275q-51 -129 -170 -360q-70 -135 -211 -404q-176 -319 -324 -311q-133 6 -203 76q-45 45 -45 84
q0 94 177 354q124 184 124 207q0 8 -8 12q-184 68 -280 299q-72 172 -72 338zM737 1748q-69 -14 -202 -67q-154 -62 -233 -108q-39 -23 -10 -95q25 -61 60 -56q108 31 275 98q117 47 177 80q19 35 -2 87q-24 59 -65 61z" />
    <glyph glyph-name="Abreve" unicode="&#x102;" horiz-adv-x="1212" 
d="M227 1372q57 121 317 121q99 0 183 -27q112 -32 145 -100q72 -141 150 -588q75 -422 75 -616q0 -88 -18 -101q-14 -26 -84 -45q-57 -14 -98 -14q-99 0 -166 59q-64 103 -78 201q-8 72 -27 213q-14 60 -67 60q-23 0 -49.5 -15.5t-24.5 -38.5q-6 -86 -23 -256
q-12 -125 -59 -164q-68 -57 -170 -57q-135 0 -197 80q-20 18 -20 139q0 234 57 572q68 395 154 577zM411 954q0 -49 37 -80.5t86 -31.5t87 31.5t38 80.5q0 50 -38 81.5t-87 31.5t-86 -31.5t-37 -81.5zM253 1782q0 40 24.5 64t66.5 24q21 -6 80 -63t131 -56t111.5 41t58.5 66
q23 15 46 15q36 0 60 -25.5t24 -59.5q-17 -67 -110 -134.5t-184.5 -66t-168.5 41.5t-124 96q-15 27 -15 57z" />
    <glyph glyph-name="abreve" unicode="&#x103;" horiz-adv-x="1214" 
d="M108 1233q125 123 416 123q289 0 405 -139q84 -50 119 -314q23 -166 23 -358q0 -320 -54 -441q-18 -98 -155 -98q-109 0 -123 64q-99 -43 -217 -43q-252 0 -398 131q-102 133 -102 309q0 147 88 229q119 111 272 111q97 0 271 -64q78 0 78 88q0 58 -37 108t-90 69
q-68 22 -136 22q-65 0 -155 -41t-117 -41q-41 0 -88 31q-51 72 -51 137q0 68 51 117zM350 430q0 -49 28 -68q17 -10 72 -16q59 -6 104 10q58 21 58 76q0 90 -146 111q-53 8 -84.5 -25t-31.5 -88zM233 1621q0 40 24 64t67 24q21 -6 80 -63t131 -56t111 41t59 66q23 15 45 15
q37 0 61 -25.5t24 -59.5q-17 -67 -110 -134.5t-184.5 -66t-168.5 41.5t-124 96q-15 27 -15 57z" />
    <glyph glyph-name="Ccaron" unicode="&#x10c;" horiz-adv-x="1274" 
 />
    <glyph glyph-name="ccaron" unicode="&#x10d;" horiz-adv-x="922" 
 />
    <glyph glyph-name="Dslash" unicode="&#x110;" horiz-adv-x="1218" 
d="M453 837q-2 30 -2 48q0 63 57 63q194 0 194 -205q0 -73 -30 -122q-37 -58 -107 -58q-73 0 -94 53q-8 22 -11 72q52 2 96 5q46 26 46 73q0 59 -59 65q-38 4 -90 6zM-60 831q-51 -16 -51 -75q0 -52 42 -66q53 -4 133 -6q11 -503 71 -588q94 -96 330 -96q131 0 256 35
q158 45 219 127q150 198 150 497q0 224 -78 443q-70 196 -144 250q-180 129 -442 129q-98 0 -193 -25q-129 -33 -150.5 -97.5t-21.5 -414.5v-104q-74 -3 -121 -9z" />
    <glyph glyph-name="dcroat" unicode="&#x111;" horiz-adv-x="1214" 
d="M667 438q0 109 -82 121q-54 8 -78 8q-86 0 -107 -82q-6 -24 -6 -41q0 -77 137 -102q46 -8 91 20.5t45 75.5zM655 1222q-21 108 -21 167q0 18 4 28q20 76 184 76q158 0 187 -80q17 -37 34 -198q21 -1 40 -3q59 -6 59 -65q0 -47 -46 -73q-20 -1 -41 -3q11 -166 11 -360
q0 -420 -66 -566q-34 -77 -186 -114q-106 -27 -227 -27q-137 0 -258 33q-131 35 -178 92q-129 154 -129 352q0 199 135 320q118 67 227 67q59 0 146 -34.5t100 -34.5q18 0 28 14q35 53 35 156q0 38 -8 95q-137 1 -214 7q-42 14 -42 66q0 59 51 75q63 8 175 10z" />
    <glyph glyph-name="Itilde" unicode="&#x128;" horiz-adv-x="618" 
d="M57 1403q37 67 181 67q155 0 198 -75q33 -60 33 -690q0 -558 -27 -644q-28 -67 -198 -67q-156 0 -183 61q-45 103 -45 729q0 564 41 619zM183 1680q-20 -5 -37 -25q-8 -10 -23 -28q-36 -40 -76 -40q-31 0 -48 24t-17 56q0 68 69 147q20 22 60 42.5t69 20.5q72 0 103 -24
q6 -5 34 -48q17 -25 55 -26q25 0 46 30q15 22 34 47q26 20 56 20q36 0 59.5 -26.5t23.5 -63.5q0 -36 -24 -73q-38 -58 -72 -86q-50 -39 -126 -41q-54 -2 -90 24q-8 6 -47 48q-23 25 -49 22z" />
    <glyph glyph-name="itilde" unicode="&#x129;" horiz-adv-x="610" 
d="M57 870q37 68 181 68q155 0 198 -76q33 -59 33 -407q0 -308 -27 -394q-28 -67 -198 -67q-156 0 -183 61q-45 103 -45 447q0 313 41 368zM142 1168q-20 -5 -37 -25q-8 -10 -23 -28q-36 -40 -76 -40q-31 0 -48 24t-17 56q0 68 69 147q20 22 60 42.5t69 20.5q72 0 103 -24
q6 -5 34 -48q17 -25 55 -26q25 0 46 30q15 22 34 47q26 20 56 20q36 0 59.5 -26.5t23.5 -63.5q0 -36 -24 -73q-38 -58 -72 -86q-50 -39 -126 -41q-54 -2 -90 24q-8 6 -47 48q-23 25 -49 22z" />
    <glyph glyph-name="Utilde" unicode="&#x168;" horiz-adv-x="1239" 
d="M514 1343q-12 -133 -35 -292q-26 -187 -26 -279q0 -188 110 -192q111 -5 111 204q0 103 -27 285q-31 211 -35 268q-6 76 64 117q57 33 137 33q88 0 156 -41q75 -45 94 -127q33 -152 33 -352q0 -211 -47 -465q-62 -342 -170 -406q-52 -94 -324 -94q-291 0 -330 100
q-125 107 -182 375q-43 197 -43 428q0 203 41 402q20 94 92 139t166 45q72 0 135 -27q82 -34 82 -98q0 -6 -2 -23zM503 1680q-20 -5 -37 -25q-8 -10 -23 -28q-36 -40 -76 -40q-31 0 -48 24t-17 56q0 68 69 147q20 22 60 42.5t69 20.5q72 0 103 -24q6 -5 34 -48
q17 -25 55 -26q25 0 46 30q15 22 34 47q26 20 56 20q36 0 59.5 -26.5t23.5 -63.5q0 -36 -24 -73q-38 -58 -72 -86q-50 -39 -126 -41q-54 -2 -90 24q-8 6 -47 48q-23 25 -49 22z" />
    <glyph glyph-name="utilde" unicode="&#x169;" horiz-adv-x="1234" 
d="M514 1153q-12 -113 -35 -252q-26 -160 -26 -239q0 -162 110 -166q111 -4 111 176q0 88 -27 246q-31 184 -35 229q-6 67 68 102q57 27 133 27q84 0 152 -33q79 -39 98 -110q33 -132 33 -304q0 -184 -47 -403q-64 -291 -170 -346q-52 -80 -324 -80q-289 0 -330 86
q-123 88 -182 317q-43 170 -43 373q0 176 41 346q18 80 94 121q68 37 164 37q70 0 131 -20q86 -31 86 -86q0 -7 -2 -21zM504 1559q-20 -5 -37 -25q-8 -10 -23 -28q-36 -40 -76 -40q-31 0 -48 24t-17 56q0 68 69 147q20 22 60 42.5t69 20.5q72 0 103 -24q6 -5 34 -48
q17 -25 55 -26q25 0 46 30q15 22 34 47q26 20 56 20q36 0 59.5 -26.5t23.5 -63.5q0 -36 -24 -73q-38 -58 -72 -86q-50 -39 -126 -41q-54 -2 -90 24q-8 6 -47 48q-23 25 -49 22z" />
    <glyph glyph-name="Ohorn" unicode="&#x1a0;" horiz-adv-x="1202" 
d="M382 1487q-139 -62 -227 -277q-45 -110 -107 -376q-12 -117 -12 -209q0 -172 46 -296t159 -251q127 -70 280 -70q144 0 334 64q139 118 182 264q37 127 33 416q-49 362 -184 532q-166 203 -504 203zM411 705q2 55 33 145q36 111 73 115q78 6 145.5 -41t67.5 -123
q0 -111 -28 -164q-37 -72 -138 -72q-161 0 -153 140zM810.5 1621q-21.5 -41 -21.5 -84q0 -99 91 -140q1 -3 1 -7q0 -10 -15 -44.5t-15 -52.5q0 -13 8 -26t20 -13q41 0 117 92q85 104 84 199q0 60 -42 101t-104 41q-34 0 -64 -11q-38 -14 -59.5 -55z" />
    <glyph glyph-name="ohorn" unicode="&#x1a1;" 
d="M378 598q2 49 33 127q37 94 73 96q72 4 138 -30q75 -41 75 -111q0 -203 -166 -203q-159 0 -153 121zM1005 1115q86 104 85 199q0 60 -42.5 101t-103.5 41q-34 0 -64 -11q-38 -14 -59.5 -55t-21.5 -84q0 -99 91 -140q1 -3 1 -7q0 -10 -15 -44l-2 -6l-13 13
q-162 156 -485 156q-141 -53 -227 -236q-44 -92 -107 -325q-12 -101 -12 -178q0 -156 46 -258.5t159 -214.5q129 -60 282 -60q141 0 332 55q143 105 184 228q35 104 31 356q-39 249 -135 394q33 23 76 76z" />
    <glyph glyph-name="Uhorn" unicode="&#x1af;" horiz-adv-x="1239" 
d="M1048 1363q10 -21 15 -44q33 -152 33 -352q0 -211 -47 -465q-62 -342 -170 -406q-52 -94 -324 -94q-291 0 -330 100q-125 107 -182 375q-43 197 -43 428q0 203 41 402q20 94 92 139t166 45q72 0 135 -27q82 -34 82 -98q0 -6 -2 -23q-12 -133 -35 -292q-26 -187 -26 -279
q0 -188 110 -192q111 -5 111 204q0 103 -27 285q-31 211 -35 268q-6 76 64 117q57 33 137 33q88 0 156 -41q16 -10 30 -21q3 9 8 21q15 34 15 44q0 4 -1 7q-91 41 -91 140q0 43 21.5 84t59.5 55q30 11 64 11q61 0 103.5 -41t42.5 -101q1 -95 -85 -199q-52 -64 -88 -83z" />
    <glyph glyph-name="uhorn" unicode="&#x1b0;" horiz-adv-x="1234" 
d="M1053 1161q6 -13 10 -28q33 -132 33 -304q0 -184 -47 -403q-64 -291 -170 -346q-52 -80 -324 -80q-289 0 -330 86q-123 88 -182 317q-43 170 -43 373q0 176 41 346q18 80 94 121q68 37 164 37q70 0 131 -20q86 -31 86 -86q0 -7 -2 -21q-12 -113 -35 -252
q-26 -160 -26 -239q0 -162 110 -166q111 -4 111 176q0 88 -27 246q-31 184 -35 229q-6 67 68 102q57 27 133 27q84 0 152 -33q15 -8 29 -16q1 3 3 8q15 34 15 44q0 4 -1 7q-91 41 -91 140q0 43 21.5 84t59.5 55q30 11 64 11q61 0 103.5 -41t42.5 -101q1 -95 -85 -199
q-42 -51 -73 -74z" />
    <glyph glyph-name="uni1EA0" unicode="&#x1ea0;" horiz-adv-x="1212" 
d="M227 1372q57 121 317 121q99 0 183 -27q112 -32 145 -100q72 -141 150 -588q75 -422 75 -616q0 -88 -18 -101q-14 -26 -84 -45q-57 -14 -98 -14q-99 0 -166 59q-64 103 -78 201q-8 72 -27 213q-14 60 -67 60q-23 0 -49.5 -15.5t-24.5 -38.5q-6 -86 -23 -256
q-12 -125 -59 -164q-68 -57 -170 -57q-135 0 -197 80q-20 18 -20 139q0 234 57 572q68 395 154 577zM411 954q0 -49 37 -80.5t86 -31.5t87 31.5t38 80.5q0 50 -38 81.5t-87 31.5t-86 -31.5t-37 -81.5zM508 -81q29 11 61 11q86 0 136 -91q14 -25 14 -60q0 -74 -71 -119
q-34 -21 -73 -21q-63 0 -106 43.5t-43 107.5q0 96 82 129z" />
    <glyph glyph-name="uni1EA1" unicode="&#x1ea1;" horiz-adv-x="1214" 
d="M108 1233q125 123 416 123q289 0 405 -139q84 -50 119 -314q23 -166 23 -358q0 -320 -54 -441q-18 -98 -155 -98q-109 0 -123 64q-99 -43 -217 -43q-252 0 -398 131q-102 133 -102 309q0 147 88 229q119 111 272 111q97 0 271 -64q78 0 78 88q0 58 -37 108t-90 69
q-68 22 -136 22q-65 0 -155 -41t-117 -41q-41 0 -88 31q-51 72 -51 137q0 68 51 117zM350 430q0 -49 28 -68q17 -10 72 -16q59 -6 104 10q58 21 58 76q0 90 -146 111q-53 8 -84.5 -25t-31.5 -88zM508 -81q29 11 61 11q86 0 136 -91q14 -25 14 -60q0 -74 -71 -119
q-34 -21 -73 -21q-63 0 -106.5 43.5t-43.5 107.5q0 96 83 129z" />
    <glyph glyph-name="uni1EA2" unicode="&#x1ea2;" horiz-adv-x="1212" 
d="M227 1372q57 121 317 121q99 0 183 -27q112 -32 145 -100q72 -141 150 -588q75 -422 75 -616q0 -88 -18 -101q-14 -26 -84 -45q-57 -14 -98 -14q-99 0 -166 59q-64 103 -78 201q-8 72 -27 213q-14 60 -67 60q-23 0 -49.5 -15.5t-24.5 -38.5q-6 -86 -23 -256
q-12 -125 -59 -164q-68 -57 -170 -57q-135 0 -197 80q-20 18 -20 139q0 234 57 572q68 395 154 577zM411 954q0 -49 37 -80.5t86 -31.5t87 31.5t38 80.5q0 50 -38 81.5t-87 31.5t-86 -31.5t-37 -81.5zM305 1918q24 70 86 107q58 33 135 33q70 0 131 -29q75 -35 85 -95
q11 -31 11 -67q0 -59 -26 -107q-28 -53 -78 -77q-18 -8 -32 -23l-42 -43q-16 -35 -49 -35q-39 0 -55 37q-3 8 -6 13q-8 24 -8 46q0 33 26 56q8 8 56 36q53 33 53 66q0 19 -15 43q-26 41 -73 41q-70 0 -125 -68q-77 0 -77 47q0 8 3 19z" />
    <glyph glyph-name="uni1EA3" unicode="&#x1ea3;" horiz-adv-x="1214" 
d="M108 1233q125 123 416 123q289 0 405 -139q84 -50 119 -314q23 -166 23 -358q0 -320 -54 -441q-18 -98 -155 -98q-109 0 -123 64q-99 -43 -217 -43q-252 0 -398 131q-102 133 -102 309q0 147 88 229q119 111 272 111q97 0 271 -64q78 0 78 88q0 58 -37 108t-90 69
q-68 22 -136 22q-65 0 -155 -41t-117 -41q-41 0 -88 31q-51 72 -51 137q0 68 51 117zM350 430q0 -49 28 -68q17 -10 72 -16q59 -6 104 10q58 21 58 76q0 90 -146 111q-53 8 -84.5 -25t-31.5 -88zM305 1777q24 70 86 107q58 33 135 33q70 0 131 -29q75 -35 85 -95
q11 -31 11 -67q0 -59 -26 -107q-28 -53 -79 -77q-17 -8 -31 -23l-42 -43q-16 -35 -49 -35q-39 0 -55 37q-3 8 -6 13q-8 24 -8 46q0 33 26 56q8 8 56 36q53 33 53 66q0 19 -15 43q-26 41 -73 41q-70 0 -125 -68q-78 0 -78 47q0 8 4 19z" />
    <glyph glyph-name="uni1EA4" unicode="&#x1ea4;" horiz-adv-x="1212" 
d="M227 1372q57 121 317 121q99 0 183 -27q112 -32 145 -100q72 -141 150 -588q75 -422 75 -616q0 -88 -18 -101q-14 -26 -84 -45q-57 -14 -98 -14q-99 0 -166 59q-64 103 -78 201q-8 72 -27 213q-14 60 -67 60q-23 0 -49.5 -15.5t-24.5 -38.5q-6 -86 -23 -256
q-12 -125 -59 -164q-68 -57 -170 -57q-135 0 -197 80q-20 18 -20 139q0 234 57 572q68 395 154 577zM411 954q0 -49 37 -80.5t86 -31.5t87 31.5t38 80.5q0 50 -38 81.5t-87 31.5t-86 -31.5t-37 -81.5zM802 2169q21 -52 1 -87q-60 -33 -176 -80q-167 -67 -275 -98
q-36 -5 -60 56q-29 72 10 95q79 46 233 108q132 53 201 67q42 -2 66 -61zM255 1708q47 61 126 126q103 84 161 83q70 0 179 -104q104 -100 121 -173q0 -37 -24 -65t-60 -28q-23 0 -46 17q-31 22 -91 99q-48 61 -79 61q-27 0 -106 -81q-84 -86 -105 -92q-42 0 -66.5 26
t-24.5 70q0 32 15 61z" />
    <glyph glyph-name="uni1EA5" unicode="&#x1ea5;" horiz-adv-x="1214" 
d="M108 1233q125 123 416 123q289 0 405 -139q84 -50 119 -314q23 -166 23 -358q0 -320 -54 -441q-18 -98 -155 -98q-109 0 -123 64q-99 -43 -217 -43q-252 0 -398 131q-102 133 -102 309q0 147 88 229q119 111 272 111q97 0 271 -64q78 0 78 88q0 58 -37 108t-90 69
q-68 22 -136 22q-65 0 -155 -41t-117 -41q-41 0 -88 31q-51 72 -51 137q0 68 51 117zM350 430q0 -49 28 -68q17 -10 72 -16q59 -6 104 10q58 21 58 76q0 90 -146 111q-53 8 -84.5 -25t-31.5 -88zM792 2028q21 -52 1 -87q-60 -33 -176 -80q-167 -67 -275 -98q-36 -5 -60 56
q-29 72 10 95q79 46 233 108q132 53 201 67q42 -2 66 -61zM255 1567q47 61 126 126q103 84 161 83q70 0 179 -104q104 -100 121 -173q0 -37 -24 -65t-61 -28q-22 0 -45 17q-32 22 -91 99q-48 61 -79 61q-27 0 -106 -81q-84 -86 -105 -92q-43 0 -67 26t-24 70q0 32 15 61z
" />
    <glyph glyph-name="uni1EA6" unicode="&#x1ea6;" horiz-adv-x="1212" 
d="M227 1372q57 121 317 121q99 0 183 -27q112 -32 145 -100q72 -141 150 -588q75 -422 75 -616q0 -88 -18 -101q-14 -26 -84 -45q-57 -14 -98 -14q-99 0 -166 59q-64 103 -78 201q-8 72 -27 213q-14 60 -67 60q-23 0 -49.5 -15.5t-24.5 -38.5q-6 -86 -23 -256
q-12 -125 -59 -164q-68 -57 -170 -57q-135 0 -197 80q-20 18 -20 139q0 234 57 572q68 395 154 577zM411 954q0 -49 37 -80.5t86 -31.5t87 31.5t38 80.5q0 50 -38 81.5t-87 31.5t-86 -31.5t-37 -81.5zM397 2200q69 -14 202 -67q154 -62 232 -108q39 -23 11 -95
q-25 -61 -61 -56q-108 31 -274 98q-117 47 -177 80q-20 35 2 87q23 59 65 61zM255 1708q47 61 126 126q103 84 161 83q70 0 179 -104q104 -100 121 -173q0 -37 -24 -65t-60 -28q-23 0 -46 17q-31 22 -91 99q-48 61 -79 61q-27 0 -106 -81q-84 -86 -105 -92q-42 0 -66.5 26
t-24.5 70q0 32 15 61z" />
    <glyph glyph-name="uni1EA7" unicode="&#x1ea7;" horiz-adv-x="1214" 
d="M108 1233q125 123 416 123q289 0 405 -139q84 -50 119 -314q23 -166 23 -358q0 -320 -54 -441q-18 -98 -155 -98q-109 0 -123 64q-99 -43 -217 -43q-252 0 -398 131q-102 133 -102 309q0 147 88 229q119 111 272 111q97 0 271 -64q78 0 78 88q0 58 -37 108t-90 69
q-68 22 -136 22q-65 0 -155 -41t-117 -41q-41 0 -88 31q-51 72 -51 137q0 68 51 117zM350 430q0 -49 28 -68q17 -10 72 -16q59 -6 104 10q58 21 58 76q0 90 -146 111q-53 8 -84.5 -25t-31.5 -88zM366 2090q69 -14 201 -67q154 -62 233 -108q39 -23 10 -95q-24 -61 -60 -56
q-108 31 -275 98q-116 47 -176 80q-20 35 1 87q24 59 66 61zM255 1567q47 61 126 126q103 84 161 83q70 0 179 -104q104 -100 121 -173q0 -37 -24 -65t-61 -28q-22 0 -45 17q-32 22 -91 99q-48 61 -79 61q-27 0 -106 -81q-84 -86 -105 -92q-43 0 -67 26t-24 70q0 32 15 61z
" />
    <glyph glyph-name="uni1EA8" unicode="&#x1ea8;" horiz-adv-x="1212" 
d="M227 1372q57 121 317 121q99 0 183 -27q112 -32 145 -100q72 -141 150 -588q75 -422 75 -616q0 -88 -18 -101q-14 -26 -84 -45q-57 -14 -98 -14q-99 0 -166 59q-64 103 -78 201q-8 72 -27 213q-14 60 -67 60q-23 0 -49.5 -15.5t-24.5 -38.5q-6 -86 -23 -256
q-12 -125 -59 -164q-68 -57 -170 -57q-135 0 -197 80q-20 18 -20 139q0 234 57 572q68 395 154 577zM411 954q0 -49 37 -80.5t86 -31.5t87 31.5t38 80.5q0 50 -38 81.5t-87 31.5t-86 -31.5t-37 -81.5zM496 2219q24 70 86 107q58 33 135 33q70 0 131 -29q75 -35 85 -95
q11 -31 11 -67q0 -59 -26 -107q-28 -53 -78 -77q-18 -8 -32 -23l-42 -43q-16 -35 -49 -35q-39 0 -55 37q-3 8 -6 13q-8 24 -8 46q0 33 26 56q8 8 56 36q53 33 53 66q0 19 -15 43q-26 41 -73 41q-70 0 -125 -68q-77 0 -77 47q0 8 3 19zM255 1708q47 61 126 126q103 84 161 83
q70 0 179 -104q104 -100 121 -173q0 -37 -24 -65t-60 -28q-23 0 -46 17q-31 22 -91 99q-48 61 -79 61q-27 0 -106 -81q-84 -86 -105 -92q-42 0 -66.5 26t-24.5 70q0 32 15 61z" />
    <glyph glyph-name="uni1EA9" unicode="&#x1ea9;" horiz-adv-x="1214" 
d="M108 1233q125 123 416 123q289 0 405 -139q84 -50 119 -314q23 -166 23 -358q0 -320 -54 -441q-18 -98 -155 -98q-109 0 -123 64q-99 -43 -217 -43q-252 0 -398 131q-102 133 -102 309q0 147 88 229q119 111 272 111q97 0 271 -64q78 0 78 88q0 58 -37 108t-90 69
q-68 22 -136 22q-65 0 -155 -41t-117 -41q-41 0 -88 31q-51 72 -51 137q0 68 51 117zM350 430q0 -49 28 -68q17 -10 72 -16q59 -6 104 10q58 21 58 76q0 90 -146 111q-53 8 -84.5 -25t-31.5 -88zM536 2068q24 70 86 107q58 33 135 33q70 0 131 -29q75 -35 85 -95
q11 -31 11 -67q0 -59 -26 -107q-28 -53 -79 -77q-17 -8 -31 -23l-42 -43q-16 -35 -49 -35q-39 0 -55 37q-3 8 -6 13q-8 24 -8 46q0 33 26 56q8 8 56 36q53 33 53 66q0 19 -15 43q-26 41 -73 41q-70 0 -125 -68q-78 0 -78 47q0 8 4 19zM255 1567q47 61 126 126q103 84 161 83
q70 0 179 -104q104 -100 121 -173q0 -37 -24 -65t-61 -28q-22 0 -45 17q-32 22 -91 99q-48 61 -79 61q-27 0 -106 -81q-84 -86 -105 -92q-43 0 -67 26t-24 70q0 32 15 61z" />
    <glyph glyph-name="uni1EAA" unicode="&#x1eaa;" horiz-adv-x="1212" 
d="M227 1372q57 121 317 121q99 0 183 -27q112 -32 145 -100q72 -141 150 -588q75 -422 75 -616q0 -88 -18 -101q-14 -26 -84 -45q-57 -14 -98 -14q-99 0 -166 59q-64 103 -78 201q-8 72 -27 213q-14 60 -67 60q-23 0 -49.5 -15.5t-24.5 -38.5q-6 -86 -23 -256
q-12 -125 -59 -164q-68 -57 -170 -57q-135 0 -197 80q-20 18 -20 139q0 234 57 572q68 395 154 577zM411 954q0 -49 37 -80.5t86 -31.5t87 31.5t38 80.5q0 50 -38 81.5t-87 31.5t-86 -31.5t-37 -81.5zM515 2011q-20 -5 -38 -25q-7 -10 -22 -28q-36 -40 -76 -40q-31 0 -48 24
t-17 56q0 68 68 147q20 22 60.5 42.5t68.5 20.5q73 0 104 -24q5 -5 34 -48q17 -25 54 -26q25 0 47 30q15 22 34 47q26 20 56 20q35 0 59 -26.5t24 -63.5q0 -36 -24 -73q-38 -58 -72 -86q-50 -39 -126 -41q-54 -2 -90 24q-8 6 -47 48q-23 25 -49 22zM255 1708q47 61 126 126
q103 84 161 83q70 0 179 -104q104 -100 121 -173q0 -37 -24 -65t-60 -28q-23 0 -46 17q-31 22 -91 99q-48 61 -79 61q-27 0 -106 -81q-84 -86 -105 -92q-42 0 -66.5 26t-24.5 70q0 32 15 61z" />
    <glyph glyph-name="uni1EAB" unicode="&#x1eab;" horiz-adv-x="1214" 
d="M108 1233q125 123 416 123q289 0 405 -139q84 -50 119 -314q23 -166 23 -358q0 -320 -54 -441q-18 -98 -155 -98q-109 0 -123 64q-99 -43 -217 -43q-252 0 -398 131q-102 133 -102 309q0 147 88 229q119 111 272 111q97 0 271 -64q78 0 78 88q0 58 -37 108t-90 69
q-68 22 -136 22q-65 0 -155 -41t-117 -41q-41 0 -88 31q-51 72 -51 137q0 68 51 117zM350 430q0 -49 28 -68q17 -10 72 -16q59 -6 104 10q58 21 58 76q0 90 -146 111q-53 8 -84.5 -25t-31.5 -88zM524 1881q-20 -5 -38 -25q-7 -10 -23 -28q-35 -40 -75 -40q-31 0 -48.5 24
t-17.5 56q0 68 69 147q20 22 60.5 42.5t68.5 20.5q73 0 103 -24q6 -5 35 -48q16 -25 54 -26q25 0 46 30q16 22 35 47q26 20 56 20q35 0 58.5 -26.5t23.5 -63.5q0 -36 -23 -73q-38 -58 -72 -86q-50 -39 -126 -41q-55 -2 -90 24q-8 6 -48 48q-22 25 -48 22zM255 1567
q47 61 126 126q103 84 161 83q70 0 179 -104q104 -100 121 -173q0 -37 -24 -65t-61 -28q-22 0 -45 17q-32 22 -91 99q-48 61 -79 61q-27 0 -106 -81q-84 -86 -105 -92q-43 0 -67 26t-24 70q0 32 15 61z" />
    <glyph glyph-name="uni1EAC" unicode="&#x1eac;" horiz-adv-x="1212" 
d="M227 1372q57 121 317 121q99 0 183 -27q112 -32 145 -100q72 -141 150 -588q75 -422 75 -616q0 -88 -18 -101q-14 -26 -84 -45q-57 -14 -98 -14q-99 0 -166 59q-64 103 -78 201q-8 72 -27 213q-14 60 -67 60q-23 0 -49.5 -15.5t-24.5 -38.5q-6 -86 -23 -256
q-12 -125 -59 -164q-68 -57 -170 -57q-135 0 -197 80q-20 18 -20 139q0 234 57 572q68 395 154 577zM411 954q0 -49 37 -80.5t86 -31.5t87 31.5t38 80.5q0 50 -38 81.5t-87 31.5t-86 -31.5t-37 -81.5zM508 -81q29 11 61 11q86 0 136 -91q14 -25 14 -60q0 -74 -71 -119
q-34 -21 -73 -21q-63 0 -106 43.5t-43 107.5q0 96 82 129zM255 1708q47 61 126 126q103 84 161 83q70 0 179 -104q104 -100 121 -173q0 -37 -24 -65t-60 -28q-23 0 -46 17q-31 22 -91 99q-48 61 -79 61q-27 0 -106 -81q-84 -86 -105 -92q-42 0 -66.5 26t-24.5 70q0 32 15 61
z" />
    <glyph glyph-name="uni1EAD" unicode="&#x1ead;" horiz-adv-x="1214" 
d="M108 1233q125 123 416 123q289 0 405 -139q84 -50 119 -314q23 -166 23 -358q0 -320 -54 -441q-18 -98 -155 -98q-109 0 -123 64q-99 -43 -217 -43q-252 0 -398 131q-102 133 -102 309q0 147 88 229q119 111 272 111q97 0 271 -64q78 0 78 88q0 58 -37 108t-90 69
q-68 22 -136 22q-65 0 -155 -41t-117 -41q-41 0 -88 31q-51 72 -51 137q0 68 51 117zM350 430q0 -49 28 -68q17 -10 72 -16q59 -6 104 10q58 21 58 76q0 90 -146 111q-53 8 -84.5 -25t-31.5 -88zM508 -81q29 11 61 11q86 0 136 -91q14 -25 14 -60q0 -74 -71 -119
q-34 -21 -73 -21q-63 0 -106.5 43.5t-43.5 107.5q0 96 83 129zM255 1567q47 61 126 126q103 84 161 83q70 0 179 -104q104 -100 121 -173q0 -37 -24 -65t-61 -28q-22 0 -45 17q-32 22 -91 99q-48 61 -79 61q-27 0 -106 -81q-84 -86 -105 -92q-43 0 -67 26t-24 70q0 32 15 61
z" />
    <glyph glyph-name="uni1EAE" unicode="&#x1eae;" horiz-adv-x="1212" 
d="M227 1372q57 121 317 121q99 0 183 -27q112 -32 145 -100q72 -141 150 -588q75 -422 75 -616q0 -88 -18 -101q-14 -26 -84 -45q-57 -14 -98 -14q-99 0 -166 59q-64 103 -78 201q-8 72 -27 213q-14 60 -67 60q-23 0 -49.5 -15.5t-24.5 -38.5q-6 -86 -23 -256
q-12 -125 -59 -164q-68 -57 -170 -57q-135 0 -197 80q-20 18 -20 139q0 234 57 572q68 395 154 577zM411 954q0 -49 37 -80.5t86 -31.5t87 31.5t38 80.5q0 50 -38 81.5t-87 31.5t-86 -31.5t-37 -81.5zM914 2145q21 -52 1 -87q-60 -33 -176 -80q-167 -67 -275 -98
q-36 -5 -60 56q-29 72 10 95q79 46 233 108q132 53 201 67q42 -2 66 -61zM253 1782q0 40 24.5 64t66.5 24q21 -6 80 -63t131 -56t111.5 41t58.5 66q23 15 46 15q36 0 60 -25.5t24 -59.5q-17 -67 -110 -134.5t-184.5 -66t-168.5 41.5t-124 96q-15 27 -15 57z" />
    <glyph glyph-name="uni1EAF" unicode="&#x1eaf;" horiz-adv-x="1214" 
d="M108 1233q125 123 416 123q289 0 405 -139q84 -50 119 -314q23 -166 23 -358q0 -320 -54 -441q-18 -98 -155 -98q-109 0 -123 64q-99 -43 -217 -43q-252 0 -398 131q-102 133 -102 309q0 147 88 229q119 111 272 111q97 0 271 -64q78 0 78 88q0 58 -37 108t-90 69
q-68 22 -136 22q-65 0 -155 -41t-117 -41q-41 0 -88 31q-51 72 -51 137q0 68 51 117zM350 430q0 -49 28 -68q17 -10 72 -16q59 -6 104 10q58 21 58 76q0 90 -146 111q-53 8 -84.5 -25t-31.5 -88zM902 1988q21 -52 1 -87q-60 -33 -176 -80q-167 -67 -275 -98q-36 -5 -60 56
q-29 72 10 95q79 46 233 108q132 53 201 67q42 -2 66 -61zM233 1621q0 40 24 64t67 24q21 -6 80 -63t131 -56t111 41t59 66q23 15 45 15q37 0 61 -25.5t24 -59.5q-17 -67 -110 -134.5t-184.5 -66t-168.5 41.5t-124 96q-15 27 -15 57z" />
    <glyph glyph-name="uni1EB0" unicode="&#x1eb0;" horiz-adv-x="1212" 
d="M227 1372q57 121 317 121q99 0 183 -27q112 -32 145 -100q72 -141 150 -588q75 -422 75 -616q0 -88 -18 -101q-14 -26 -84 -45q-57 -14 -98 -14q-99 0 -166 59q-64 103 -78 201q-8 72 -27 213q-14 60 -67 60q-23 0 -49.5 -15.5t-24.5 -38.5q-6 -86 -23 -256
q-12 -125 -59 -164q-68 -57 -170 -57q-135 0 -197 80q-20 18 -20 139q0 234 57 572q68 395 154 577zM411 954q0 -49 37 -80.5t86 -31.5t87 31.5t38 80.5q0 50 -38 81.5t-87 31.5t-86 -31.5t-37 -81.5zM254 2200q69 -14 202 -67q154 -62 232 -108q39 -23 11 -95
q-25 -61 -61 -56q-108 31 -274 98q-117 47 -177 80q-20 35 2 87q23 59 65 61zM253 1782q0 40 24.5 64t66.5 24q21 -6 80 -63t131 -56t111.5 41t58.5 66q23 15 46 15q36 0 60 -25.5t24 -59.5q-17 -67 -110 -134.5t-184.5 -66t-168.5 41.5t-124 96q-15 27 -15 57z" />
    <glyph glyph-name="uni1EB1" unicode="&#x1eb1;" horiz-adv-x="1214" 
d="M108 1233q125 123 416 123q289 0 405 -139q84 -50 119 -314q23 -166 23 -358q0 -320 -54 -441q-18 -98 -155 -98q-109 0 -123 64q-99 -43 -217 -43q-252 0 -398 131q-102 133 -102 309q0 147 88 229q119 111 272 111q97 0 271 -64q78 0 78 88q0 58 -37 108t-90 69
q-68 22 -136 22q-65 0 -155 -41t-117 -41q-41 0 -88 31q-51 72 -51 137q0 68 51 117zM350 430q0 -49 28 -68q17 -10 72 -16q59 -6 104 10q58 21 58 76q0 90 -146 111q-53 8 -84.5 -25t-31.5 -88zM266 2050q69 -14 201 -67q154 -62 233 -108q39 -23 10 -95q-24 -61 -60 -56
q-108 31 -275 98q-116 47 -176 80q-20 35 1 87q24 59 66 61zM233 1621q0 40 24 64t67 24q21 -6 80 -63t131 -56t111 41t59 66q23 15 45 15q37 0 61 -25.5t24 -59.5q-17 -67 -110 -134.5t-184.5 -66t-168.5 41.5t-124 96q-15 27 -15 57z" />
    <glyph glyph-name="uni1EB2" unicode="&#x1eb2;" horiz-adv-x="1212" 
d="M227 1372q57 121 317 121q99 0 183 -27q112 -32 145 -100q72 -141 150 -588q75 -422 75 -616q0 -88 -18 -101q-14 -26 -84 -45q-57 -14 -98 -14q-99 0 -166 59q-64 103 -78 201q-8 72 -27 213q-14 60 -67 60q-23 0 -49.5 -15.5t-24.5 -38.5q-6 -86 -23 -256
q-12 -125 -59 -164q-68 -57 -170 -57q-135 0 -197 80q-20 18 -20 139q0 234 57 572q68 395 154 577zM411 954q0 -49 37 -80.5t86 -31.5t87 31.5t38 80.5q0 50 -38 81.5t-87 31.5t-86 -31.5t-37 -81.5zM352 2219q24 70 86 107q58 33 135 33q70 0 131 -29q75 -35 85 -95
q11 -31 11 -67q0 -59 -26 -107q-28 -53 -78 -77q-18 -8 -32 -23l-42 -43q-16 -35 -49 -35q-39 0 -55 37q-3 8 -6 13q-8 24 -8 46q0 33 26 56q8 8 56 36q53 33 53 66q0 19 -15 43q-26 41 -73 41q-70 0 -125 -68q-77 0 -77 47q0 8 3 19zM253 1782q0 40 24.5 64t66.5 24
q21 -6 80 -63t131 -56t111.5 41t58.5 66q23 15 46 15q36 0 60 -25.5t24 -59.5q-17 -67 -110 -134.5t-184.5 -66t-168.5 41.5t-124 96q-15 27 -15 57z" />
    <glyph glyph-name="uni1EB3" unicode="&#x1eb3;" horiz-adv-x="1214" 
d="M108 1233q125 123 416 123q289 0 405 -139q84 -50 119 -314q23 -166 23 -358q0 -320 -54 -441q-18 -98 -155 -98q-109 0 -123 64q-99 -43 -217 -43q-252 0 -398 131q-102 133 -102 309q0 147 88 229q119 111 272 111q97 0 271 -64q78 0 78 88q0 58 -37 108t-90 69
q-68 22 -136 22q-65 0 -155 -41t-117 -41q-41 0 -88 31q-51 72 -51 137q0 68 51 117zM350 430q0 -49 28 -68q17 -10 72 -16q59 -6 104 10q58 21 58 76q0 90 -146 111q-53 8 -84.5 -25t-31.5 -88zM315 2008q24 70 86 107q58 33 135 33q70 0 131 -29q75 -35 85 -95
q11 -31 11 -67q0 -59 -26 -107q-28 -53 -79 -77q-17 -8 -31 -23l-42 -43q-16 -35 -49 -35q-39 0 -55 37q-3 8 -6 13q-8 24 -8 46q0 33 26 56q8 8 56 36q53 33 53 66q0 19 -15 43q-26 41 -73 41q-70 0 -125 -68q-78 0 -78 47q0 8 4 19zM233 1621q0 40 24 64t67 24
q21 -6 80 -63t131 -56t111 41t59 66q23 15 45 15q37 0 61 -25.5t24 -59.5q-17 -67 -110 -134.5t-184.5 -66t-168.5 41.5t-124 96q-15 27 -15 57z" />
    <glyph glyph-name="uni1EB4" unicode="&#x1eb4;" horiz-adv-x="1212" 
d="M227 1372q57 121 317 121q99 0 183 -27q112 -32 145 -100q72 -141 150 -588q75 -422 75 -616q0 -88 -18 -101q-14 -26 -84 -45q-57 -14 -98 -14q-99 0 -166 59q-64 103 -78 201q-8 72 -27 213q-14 60 -67 60q-23 0 -49.5 -15.5t-24.5 -38.5q-6 -86 -23 -256
q-12 -125 -59 -164q-68 -57 -170 -57q-135 0 -197 80q-20 18 -20 139q0 234 57 572q68 395 154 577zM411 954q0 -49 37 -80.5t86 -31.5t87 31.5t38 80.5q0 50 -38 81.5t-87 31.5t-86 -31.5t-37 -81.5zM515 2011q-20 -5 -38 -25q-7 -10 -22 -28q-36 -40 -76 -40q-31 0 -48 24
t-17 56q0 68 68 147q20 22 60.5 42.5t68.5 20.5q73 0 104 -24q5 -5 34 -48q17 -25 54 -26q25 0 47 30q15 22 34 47q26 20 56 20q35 0 59 -26.5t24 -63.5q0 -36 -24 -73q-38 -58 -72 -86q-50 -39 -126 -41q-54 -2 -90 24q-8 6 -47 48q-23 25 -49 22zM253 1782q0 40 24.5 64
t66.5 24q21 -6 80 -63t131 -56t111.5 41t58.5 66q23 15 46 15q36 0 60 -25.5t24 -59.5q-17 -67 -110 -134.5t-184.5 -66t-168.5 41.5t-124 96q-15 27 -15 57z" />
    <glyph glyph-name="uni1EB5" unicode="&#x1eb5;" horiz-adv-x="1214" 
d="M108 1233q125 123 416 123q289 0 405 -139q84 -50 119 -314q23 -166 23 -358q0 -320 -54 -441q-18 -98 -155 -98q-109 0 -123 64q-99 -43 -217 -43q-252 0 -398 131q-102 133 -102 309q0 147 88 229q119 111 272 111q97 0 271 -64q78 0 78 88q0 58 -37 108t-90 69
q-68 22 -136 22q-65 0 -155 -41t-117 -41q-41 0 -88 31q-51 72 -51 137q0 68 51 117zM350 430q0 -49 28 -68q17 -10 72 -16q59 -6 104 10q58 21 58 76q0 90 -146 111q-53 8 -84.5 -25t-31.5 -88zM524 1851q-20 -5 -38 -25q-7 -10 -23 -28q-35 -40 -75 -40q-31 0 -48.5 24
t-17.5 56q0 68 69 147q20 22 60.5 42.5t68.5 20.5q73 0 103 -24q6 -5 35 -48q16 -25 54 -26q25 0 46 30q16 22 35 47q26 20 56 20q35 0 58.5 -26.5t23.5 -63.5q0 -36 -23 -73q-38 -58 -72 -86q-50 -39 -126 -41q-55 -2 -90 24q-8 6 -48 48q-22 25 -48 22zM233 1621
q0 40 24 64t67 24q21 -6 80 -63t131 -56t111 41t59 66q23 15 45 15q37 0 61 -25.5t24 -59.5q-17 -67 -110 -134.5t-184.5 -66t-168.5 41.5t-124 96q-15 27 -15 57z" />
    <glyph glyph-name="uni1EB6" unicode="&#x1eb6;" horiz-adv-x="1212" 
d="M227 1372q57 121 317 121q99 0 183 -27q112 -32 145 -100q72 -141 150 -588q75 -422 75 -616q0 -88 -18 -101q-14 -26 -84 -45q-57 -14 -98 -14q-99 0 -166 59q-64 103 -78 201q-8 72 -27 213q-14 60 -67 60q-23 0 -49.5 -15.5t-24.5 -38.5q-6 -86 -23 -256
q-12 -125 -59 -164q-68 -57 -170 -57q-135 0 -197 80q-20 18 -20 139q0 234 57 572q68 395 154 577zM411 954q0 -49 37 -80.5t86 -31.5t87 31.5t38 80.5q0 50 -38 81.5t-87 31.5t-86 -31.5t-37 -81.5zM508 -81q29 11 61 11q86 0 136 -91q14 -25 14 -60q0 -74 -71 -119
q-34 -21 -73 -21q-63 0 -106 43.5t-43 107.5q0 96 82 129zM253 1782q0 40 24.5 64t66.5 24q21 -6 80 -63t131 -56t111.5 41t58.5 66q23 15 46 15q36 0 60 -25.5t24 -59.5q-17 -67 -110 -134.5t-184.5 -66t-168.5 41.5t-124 96q-15 27 -15 57z" />
    <glyph glyph-name="uni1EB7" unicode="&#x1eb7;" horiz-adv-x="1214" 
d="M108 1233q125 123 416 123q289 0 405 -139q84 -50 119 -314q23 -166 23 -358q0 -320 -54 -441q-18 -98 -155 -98q-109 0 -123 64q-99 -43 -217 -43q-252 0 -398 131q-102 133 -102 309q0 147 88 229q119 111 272 111q97 0 271 -64q78 0 78 88q0 58 -37 108t-90 69
q-68 22 -136 22q-65 0 -155 -41t-117 -41q-41 0 -88 31q-51 72 -51 137q0 68 51 117zM350 430q0 -49 28 -68q17 -10 72 -16q59 -6 104 10q58 21 58 76q0 90 -146 111q-53 8 -84.5 -25t-31.5 -88zM508 -81q29 11 61 11q86 0 136 -91q14 -25 14 -60q0 -74 -71 -119
q-34 -21 -73 -21q-63 0 -106.5 43.5t-43.5 107.5q0 96 83 129zM233 1621q0 40 24 64t67 24q21 -6 80 -63t131 -56t111 41t59 66q23 15 45 15q37 0 61 -25.5t24 -59.5q-17 -67 -110 -134.5t-184.5 -66t-168.5 41.5t-124 96q-15 27 -15 57z" />
    <glyph glyph-name="uni1EB8" unicode="&#x1eb8;" horiz-adv-x="1157" 
d="M144 1372q80 109 383 109q224 0 400 -74q65 -84 65 -160q0 -61 -47 -98q-14 -10 -41 -10q-30 0 -103 13t-110 13q-78 0 -135 -35q-65 -40 -65 -114q0 -66 45 -90q41 -31 186 -39q160 -10 193 -21q51 -32 51 -116q0 -64 -45 -91q-33 -6 -86 -6h-54q-73 2 -55 2
q-153 0 -196 -67q10 -242 471 -232q77 -22 77 -139q0 -115 -100 -162q-111 -51 -358 -51q-404 0 -504 180q-78 140 -78 568q0 475 106 620zM508 -81q28 11 61 11q86 0 136 -91q14 -25 14 -60q0 -74 -72 -119q-33 -21 -72 -21q-64 0 -107 43.5t-43 107.5q0 96 83 129z" />
    <glyph glyph-name="uni1EB9" unicode="&#x1eb9;" 
d="M598 1276q-74 -2 -191 -14q-291 -66 -375 -471q-18 -89 -18 -150q0 -252 125 -397q72 -82 135 -117q19 -10 195 -76q131 -31 200 -31q95 0 185 37q133 56 178 112t55 175q6 62 -30.5 103.5t-98.5 41.5q-37 0 -74 -16q-84 -53 -172 -53q-34 0 -194 43q-35 10 -60.5 39.5
t-25.5 64.5q0 39 35 60q6 4 20 4q39 0 124 -17.5t128 -17.5q242 0 289 278q0 408 -344 408q-4 0 -86 -6zM491 958q0 37 33 58.5t72 21.5q36 0 69 -21.5t33 -58.5q0 -36 -33 -57.5t-69 -21.5q-39 0 -72 21.5t-33 57.5zM508 -81q29 11 61 11q86 0 136 -91q14 -25 14 -60
q0 -74 -71 -119q-34 -21 -72 -21q-64 0 -107 43.5t-43 107.5q0 96 82 129z" />
    <glyph glyph-name="uni1EBA" unicode="&#x1eba;" horiz-adv-x="1157" 
d="M144 1372q80 109 383 109q224 0 400 -74q65 -84 65 -160q0 -61 -47 -98q-14 -10 -41 -10q-30 0 -103 13t-110 13q-78 0 -135 -35q-65 -40 -65 -114q0 -66 45 -90q41 -31 186 -39q160 -10 193 -21q51 -32 51 -116q0 -64 -45 -91q-33 -6 -86 -6h-54q-73 2 -55 2
q-153 0 -196 -67q10 -242 471 -232q77 -22 77 -139q0 -115 -100 -162q-111 -51 -358 -51q-404 0 -504 180q-78 140 -78 568q0 475 106 620zM305 1918q24 70 86 107q57 33 135 33q69 0 131 -29q74 -35 85 -95q10 -31 10 -67q0 -59 -26 -107q-27 -53 -78 -77q-17 -8 -31 -23
l-43 -43q-16 -35 -48 -35q-39 0 -56 37q-3 8 -5 13q-8 24 -8 46q0 33 26 56q7 8 55 36q54 33 54 66q0 19 -16 43q-25 41 -72 41q-70 0 -125 -68q-78 0 -78 47q0 8 4 19z" />
    <glyph glyph-name="uni1EBB" unicode="&#x1ebb;" 
d="M598 1276q-74 -2 -191 -14q-291 -66 -375 -471q-18 -89 -18 -150q0 -252 125 -397q72 -82 135 -117q19 -10 195 -76q131 -31 200 -31q95 0 185 37q133 56 178 112t55 175q6 62 -30.5 103.5t-98.5 41.5q-37 0 -74 -16q-84 -53 -172 -53q-34 0 -194 43q-35 10 -60.5 39.5
t-25.5 64.5q0 39 35 60q6 4 20 4q39 0 124 -17.5t128 -17.5q242 0 289 278q0 408 -344 408q-4 0 -86 -6zM491 958q0 37 33 58.5t72 21.5q36 0 69 -21.5t33 -58.5q0 -36 -33 -57.5t-69 -21.5q-39 0 -72 21.5t-33 57.5zM365 1767q24 70 87 107q57 33 134 33q70 0 131 -29
q75 -35 85 -95q11 -31 11 -67q0 -59 -26 -107q-28 -53 -78 -77q-18 -8 -32 -23l-42 -43q-16 -35 -49 -35q-39 0 -55 37q-3 8 -6 13q-8 24 -8 46q0 33 26 56q8 8 56 36q53 33 53 66q0 19 -15 43q-26 41 -73 41q-69 0 -125 -68q-77 0 -77 47q0 8 3 19z" />
    <glyph glyph-name="uni1EBC" unicode="&#x1ebc;" horiz-adv-x="1157" 
d="M144 1372q80 109 383 109q224 0 400 -74q65 -84 65 -160q0 -61 -47 -98q-14 -10 -41 -10q-30 0 -103 13t-110 13q-78 0 -135 -35q-65 -40 -65 -114q0 -66 45 -90q41 -31 186 -39q160 -10 193 -21q51 -32 51 -116q0 -64 -45 -91q-33 -6 -86 -6h-54q-73 2 -55 2
q-153 0 -196 -67q10 -242 471 -232q77 -22 77 -139q0 -115 -100 -162q-111 -51 -358 -51q-404 0 -504 180q-78 140 -78 568q0 475 106 620zM485 1680q-21 -5 -38 -25q-8 -10 -23 -28q-35 -40 -76 -40q-31 0 -48 24t-17 56q0 68 69 147q20 22 60.5 42.5t68.5 20.5
q72 0 103 -24q6 -5 34 -48q17 -25 55 -26q25 0 46 30q16 22 34 47q27 20 56 20q36 0 59.5 -26.5t23.5 -63.5q0 -36 -24 -73q-38 -58 -72 -86q-50 -39 -125 -41q-55 -2 -91 24q-8 6 -47 48q-22 25 -48 22z" />
    <glyph glyph-name="uni1EBD" unicode="&#x1ebd;" 
d="M598 1276q-74 -2 -191 -14q-291 -66 -375 -471q-18 -89 -18 -150q0 -252 125 -397q72 -82 135 -117q19 -10 195 -76q131 -31 200 -31q95 0 185 37q133 56 178 112t55 175q6 62 -30.5 103.5t-98.5 41.5q-37 0 -74 -16q-84 -53 -172 -53q-34 0 -194 43q-35 10 -60.5 39.5
t-25.5 64.5q0 39 35 60q6 4 20 4q39 0 124 -17.5t128 -17.5q242 0 289 278q0 408 -344 408q-4 0 -86 -6zM491 958q0 37 33 58.5t72 21.5q36 0 69 -21.5t33 -58.5q0 -36 -33 -57.5t-69 -21.5q-39 0 -72 21.5t-33 57.5zM504 1559q-20 -5 -38 -25q-7 -10 -22 -28
q-36 -40 -76 -40q-31 0 -48 24t-17 56q0 68 68 147q21 22 61 42.5t69 20.5q72 0 103 -24q6 -5 34 -48q17 -25 54 -26q25 0 47 30q15 22 34 47q26 20 56 20q35 0 59 -26.5t24 -63.5q0 -36 -24 -73q-38 -58 -72 -86q-50 -39 -126 -41q-54 -2 -90 24q-8 6 -47 48q-23 25 -49 22
z" />
    <glyph glyph-name="uni1EBE" unicode="&#x1ebe;" horiz-adv-x="1157" 
d="M144 1372q80 109 383 109q224 0 400 -74q65 -84 65 -160q0 -61 -47 -98q-14 -10 -41 -10q-30 0 -103 13t-110 13q-78 0 -135 -35q-65 -40 -65 -114q0 -66 45 -90q41 -31 186 -39q160 -10 193 -21q51 -32 51 -116q0 -64 -45 -91q-33 -6 -86 -6h-54q-73 2 -55 2
q-153 0 -196 -67q10 -242 471 -232q77 -22 77 -139q0 -115 -100 -162q-111 -51 -358 -51q-404 0 -504 180q-78 140 -78 568q0 475 106 620zM851 2189q21 -52 2 -87q-60 -33 -177 -80q-167 -67 -275 -98q-35 -5 -60 56q-29 72 11 95q78 46 232 108q133 53 202 67
q42 -2 65 -61zM254 1708q48 61 127 126q102 84 160 83q71 0 179 -104q104 -100 122 -173q0 -37 -24.5 -65t-60.5 -28q-23 0 -46 17q-31 22 -91 99q-47 61 -79 61q-27 0 -105 -81q-85 -86 -105 -92q-43 0 -67 26t-24 70q0 32 14 61z" />
    <glyph glyph-name="uni1EBF" unicode="&#x1ebf;" 
d="M598 1276q-74 -2 -191 -14q-291 -66 -375 -471q-18 -89 -18 -150q0 -252 125 -397q72 -82 135 -117q19 -10 195 -76q131 -31 200 -31q95 0 185 37q133 56 178 112t55 175q6 62 -30.5 103.5t-98.5 41.5q-37 0 -74 -16q-84 -53 -172 -53q-34 0 -194 43q-35 10 -60.5 39.5
t-25.5 64.5q0 39 35 60q6 4 20 4q39 0 124 -17.5t128 -17.5q242 0 289 278q0 408 -344 408q-4 0 -86 -6zM491 958q0 37 33 58.5t72 21.5q36 0 69 -21.5t33 -58.5q0 -36 -33 -57.5t-69 -21.5q-39 0 -72 21.5t-33 57.5zM863 2019q21 -52 2 -87q-61 -33 -177 -80
q-167 -67 -275 -98q-36 -5 -60 56q-29 72 10 95q79 46 233 108q132 53 201 67q42 -2 66 -61zM305 1567q48 61 126 126q103 84 161 83q71 0 179 -104q104 -100 121 -173q0 -37 -24 -65t-60 -28q-23 0 -46 17q-31 22 -91 99q-48 61 -79 61q-27 0 -106 -81q-84 -86 -105 -92
q-42 0 -66.5 26t-24.5 70q0 32 15 61z" />
    <glyph glyph-name="uni1EC0" unicode="&#x1ec0;" horiz-adv-x="1157" 
d="M144 1372q80 109 383 109q224 0 400 -74q65 -84 65 -160q0 -61 -47 -98q-14 -10 -41 -10q-30 0 -103 13t-110 13q-78 0 -135 -35q-65 -40 -65 -114q0 -66 45 -90q41 -31 186 -39q160 -10 193 -21q51 -32 51 -116q0 -64 -45 -91q-33 -6 -86 -6h-54q-73 2 -55 2
q-153 0 -196 -67q10 -242 471 -232q77 -22 77 -139q0 -115 -100 -162q-111 -51 -358 -51q-404 0 -504 180q-78 140 -78 568q0 475 106 620zM325 2230q69 -14 202 -67q154 -62 233 -108q39 -23 10 -95q-25 -61 -60 -56q-108 31 -275 98q-117 47 -177 80q-19 35 2 87
q24 59 65 61zM254 1708q48 61 127 126q102 84 160 83q71 0 179 -104q104 -100 122 -173q0 -37 -24.5 -65t-60.5 -28q-23 0 -46 17q-31 22 -91 99q-47 61 -79 61q-27 0 -105 -81q-85 -86 -105 -92q-43 0 -67 26t-24 70q0 32 14 61z" />
    <glyph glyph-name="uni1EC1" unicode="&#x1ec1;" 
d="M598 1276q-74 -2 -191 -14q-291 -66 -375 -471q-18 -89 -18 -150q0 -252 125 -397q72 -82 135 -117q19 -10 195 -76q131 -31 200 -31q95 0 185 37q133 56 178 112t55 175q6 62 -30.5 103.5t-98.5 41.5q-37 0 -74 -16q-84 -53 -172 -53q-34 0 -194 43q-35 10 -60.5 39.5
t-25.5 64.5q0 39 35 60q6 4 20 4q39 0 124 -17.5t128 -17.5q242 0 289 278q0 408 -344 408q-4 0 -86 -6zM491 958q0 37 33 58.5t72 21.5q36 0 69 -21.5t33 -58.5q0 -36 -33 -57.5t-69 -21.5q-39 0 -72 21.5t-33 57.5zM477 2059q69 -14 202 -67q154 -62 232 -108
q39 -23 11 -95q-25 -61 -60 -56q-109 31 -275 98q-117 47 -177 80q-20 35 2 87q23 59 65 61zM305 1567q48 61 126 126q103 84 161 83q71 0 179 -104q104 -100 121 -173q0 -37 -24 -65t-60 -28q-23 0 -46 17q-31 22 -91 99q-48 61 -79 61q-27 0 -106 -81q-84 -86 -105 -92
q-42 0 -66.5 26t-24.5 70q0 32 15 61z" />
    <glyph glyph-name="uni1EC2" unicode="&#x1ec2;" horiz-adv-x="1157" 
d="M144 1372q80 109 383 109q224 0 400 -74q65 -84 65 -160q0 -61 -47 -98q-14 -10 -41 -10q-30 0 -103 13t-110 13q-78 0 -135 -35q-65 -40 -65 -114q0 -66 45 -90q41 -31 186 -39q160 -10 193 -21q51 -32 51 -116q0 -64 -45 -91q-33 -6 -86 -6h-54q-73 2 -55 2
q-153 0 -196 -67q10 -242 471 -232q77 -22 77 -139q0 -115 -100 -162q-111 -51 -358 -51q-404 0 -504 180q-78 140 -78 568q0 475 106 620zM525 2179q24 70 86 107q57 33 135 33q69 0 131 -29q74 -35 85 -95q10 -31 10 -67q0 -59 -26 -107q-27 -53 -78 -77q-17 -8 -31 -23
l-43 -43q-16 -35 -48 -35q-39 0 -56 37q-3 8 -5 13q-8 24 -8 46q0 33 26 56q7 8 55 36q54 33 54 66q0 19 -16 43q-25 41 -72 41q-70 0 -125 -68q-78 0 -78 47q0 8 4 19zM254 1708q48 61 127 126q102 84 160 83q71 0 179 -104q104 -100 122 -173q0 -37 -24.5 -65t-60.5 -28
q-23 0 -46 17q-31 22 -91 99q-47 61 -79 61q-27 0 -105 -81q-85 -86 -105 -92q-43 0 -67 26t-24 70q0 32 14 61z" />
    <glyph glyph-name="uni1EC3" unicode="&#x1ec3;" 
d="M598 1276q-74 -2 -191 -14q-291 -66 -375 -471q-18 -89 -18 -150q0 -252 125 -397q72 -82 135 -117q19 -10 195 -76q131 -31 200 -31q95 0 185 37q133 56 178 112t55 175q6 62 -30.5 103.5t-98.5 41.5q-37 0 -74 -16q-84 -53 -172 -53q-34 0 -194 43q-35 10 -60.5 39.5
t-25.5 64.5q0 39 35 60q6 4 20 4q39 0 124 -17.5t128 -17.5q242 0 289 278q0 408 -344 408q-4 0 -86 -6zM491 958q0 37 33 58.5t72 21.5q36 0 69 -21.5t33 -58.5q0 -36 -33 -57.5t-69 -21.5q-39 0 -72 21.5t-33 57.5zM566 2078q24 70 87 107q57 33 134 33q70 0 131 -29
q75 -35 85 -95q11 -31 11 -67q0 -59 -26 -107q-28 -53 -78 -77q-18 -8 -32 -23l-42 -43q-16 -35 -49 -35q-39 0 -55 37q-3 8 -6 13q-8 24 -8 46q0 33 26 56q8 8 56 36q53 33 53 66q0 19 -15 43q-26 41 -73 41q-69 0 -125 -68q-77 0 -77 47q0 8 3 19zM305 1567q48 61 126 126
q103 84 161 83q71 0 179 -104q104 -100 121 -173q0 -37 -24 -65t-60 -28q-23 0 -46 17q-31 22 -91 99q-48 61 -79 61q-27 0 -106 -81q-84 -86 -105 -92q-42 0 -66.5 26t-24.5 70q0 32 15 61z" />
    <glyph glyph-name="uni1EC4" unicode="&#x1ec4;" horiz-adv-x="1157" 
d="M144 1372q80 109 383 109q224 0 400 -74q65 -84 65 -160q0 -61 -47 -98q-14 -10 -41 -10q-30 0 -103 13t-110 13q-78 0 -135 -35q-65 -40 -65 -114q0 -66 45 -90q41 -31 186 -39q160 -10 193 -21q51 -32 51 -116q0 -64 -45 -91q-33 -6 -86 -6h-54q-73 2 -55 2
q-153 0 -196 -67q10 -242 471 -232q77 -22 77 -139q0 -115 -100 -162q-111 -51 -358 -51q-404 0 -504 180q-78 140 -78 568q0 475 106 620zM535 2011q-21 -5 -38 -25q-8 -10 -23 -28q-35 -40 -76 -40q-31 0 -48 24t-17 56q0 68 69 147q20 22 60.5 42.5t68.5 20.5
q72 0 103 -24q6 -5 34 -48q17 -25 55 -26q25 0 46 30q16 22 34 47q27 20 56 20q36 0 59.5 -26.5t23.5 -63.5q0 -36 -24 -73q-38 -58 -72 -86q-50 -39 -125 -41q-55 -2 -91 24q-8 6 -47 48q-22 25 -48 22zM254 1708q48 61 127 126q102 84 160 83q71 0 179 -104
q104 -100 122 -173q0 -37 -24.5 -65t-60.5 -28q-23 0 -46 17q-31 22 -91 99q-47 61 -79 61q-27 0 -105 -81q-85 -86 -105 -92q-43 0 -67 26t-24 70q0 32 14 61z" />
    <glyph glyph-name="uni1EC5" unicode="&#x1ec5;" 
d="M598 1276q-74 -2 -191 -14q-291 -66 -375 -471q-18 -89 -18 -150q0 -252 125 -397q72 -82 135 -117q19 -10 195 -76q131 -31 200 -31q95 0 185 37q133 56 178 112t55 175q6 62 -30.5 103.5t-98.5 41.5q-37 0 -74 -16q-84 -53 -172 -53q-34 0 -194 43q-35 10 -60.5 39.5
t-25.5 64.5q0 39 35 60q6 4 20 4q39 0 124 -17.5t128 -17.5q242 0 289 278q0 408 -344 408q-4 0 -86 -6zM491 958q0 37 33 58.5t72 21.5q36 0 69 -21.5t33 -58.5q0 -36 -33 -57.5t-69 -21.5q-39 0 -72 21.5t-33 57.5zM554 1871q-20 -5 -38 -25q-7 -10 -22 -28
q-36 -40 -76 -40q-31 0 -48 24t-17 56q0 68 68 147q21 22 61 42.5t69 20.5q72 0 103 -24q6 -5 34 -48q17 -25 54 -26q25 0 47 30q15 22 34 47q26 20 56 20q35 0 59 -26.5t24 -63.5q0 -36 -24 -73q-38 -58 -72 -86q-50 -39 -126 -41q-54 -2 -90 24q-8 6 -47 48q-23 25 -49 22
zM305 1567q48 61 126 126q103 84 161 83q71 0 179 -104q104 -100 121 -173q0 -37 -24 -65t-60 -28q-23 0 -46 17q-31 22 -91 99q-48 61 -79 61q-27 0 -106 -81q-84 -86 -105 -92q-42 0 -66.5 26t-24.5 70q0 32 15 61z" />
    <glyph glyph-name="uni1EC6" unicode="&#x1ec6;" horiz-adv-x="1157" 
d="M144 1372q80 109 383 109q224 0 400 -74q65 -84 65 -160q0 -61 -47 -98q-14 -10 -41 -10q-30 0 -103 13t-110 13q-78 0 -135 -35q-65 -40 -65 -114q0 -66 45 -90q41 -31 186 -39q160 -10 193 -21q51 -32 51 -116q0 -64 -45 -91q-33 -6 -86 -6h-54q-73 2 -55 2
q-153 0 -196 -67q10 -242 471 -232q77 -22 77 -139q0 -115 -100 -162q-111 -51 -358 -51q-404 0 -504 180q-78 140 -78 568q0 475 106 620zM508 -81q28 11 61 11q86 0 136 -91q14 -25 14 -60q0 -74 -72 -119q-33 -21 -72 -21q-64 0 -107 43.5t-43 107.5q0 96 83 129z
M254 1708q48 61 127 126q102 84 160 83q71 0 179 -104q104 -100 122 -173q0 -37 -24.5 -65t-60.5 -28q-23 0 -46 17q-31 22 -91 99q-47 61 -79 61q-27 0 -105 -81q-85 -86 -105 -92q-43 0 -67 26t-24 70q0 32 14 61z" />
    <glyph glyph-name="uni1EC7" unicode="&#x1ec7;" 
d="M598 1276q-74 -2 -191 -14q-291 -66 -375 -471q-18 -89 -18 -150q0 -252 125 -397q72 -82 135 -117q19 -10 195 -76q131 -31 200 -31q95 0 185 37q133 56 178 112t55 175q6 62 -30.5 103.5t-98.5 41.5q-37 0 -74 -16q-84 -53 -172 -53q-34 0 -194 43q-35 10 -60.5 39.5
t-25.5 64.5q0 39 35 60q6 4 20 4q39 0 124 -17.5t128 -17.5q242 0 289 278q0 408 -344 408q-4 0 -86 -6zM491 958q0 37 33 58.5t72 21.5q36 0 69 -21.5t33 -58.5q0 -36 -33 -57.5t-69 -21.5q-39 0 -72 21.5t-33 57.5zM508 -81q29 11 61 11q86 0 136 -91q14 -25 14 -60
q0 -74 -71 -119q-34 -21 -72 -21q-64 0 -107 43.5t-43 107.5q0 96 82 129zM305 1567q48 61 126 126q103 84 161 83q71 0 179 -104q104 -100 121 -173q0 -37 -24 -65t-60 -28q-23 0 -46 17q-31 22 -91 99q-48 61 -79 61q-27 0 -106 -81q-84 -86 -105 -92q-42 0 -66.5 26
t-24.5 70q0 32 15 61z" />
    <glyph glyph-name="uni1EC8" unicode="&#x1ec8;" horiz-adv-x="618" 
d="M57 1403q37 67 180 67q156 0 199 -75q33 -60 33 -690q0 -558 -27 -644q-29 -67 -199 -67q-155 0 -182 61q-45 103 -45 729q0 564 41 619zM64 1918q24 70 86 107q58 33 135 33q70 0 131 -29q75 -35 85 -95q11 -31 11 -67q0 -59 -26 -107q-28 -53 -78 -77q-18 -8 -32 -23
l-42 -43q-16 -35 -49 -35q-39 0 -55 37q-3 8 -6 13q-8 24 -8 46q0 33 26 56q8 8 56 36q53 33 53 66q0 19 -15 43q-26 41 -73 41q-70 0 -125 -68q-77 0 -77 47q0 8 3 19z" />
    <glyph glyph-name="uni1EC9" unicode="&#x1ec9;" horiz-adv-x="610" 
d="M57 870q37 68 181 68q155 0 198 -76q33 -59 33 -407q0 -308 -27 -394q-28 -67 -198 -67q-156 0 -183 61q-45 103 -45 447q0 313 41 368zM5 1376q24 70 86 107q57 33 135 33q69 0 131 -29q74 -35 85 -95q10 -31 10 -67q0 -59 -26 -107q-27 -53 -78 -77q-17 -8 -32 -23
l-42 -43q-16 -35 -48 -35q-40 0 -56 37q-3 8 -6 13q-7 24 -7 46q0 33 26 56q7 8 55 36q54 33 54 66q0 19 -16 43q-26 41 -72 41q-70 0 -126 -68q-77 0 -77 47q0 8 4 19z" />
    <glyph glyph-name="uni1ECA" unicode="&#x1eca;" horiz-adv-x="618" 
d="M57 1403q37 67 180 67q156 0 199 -75q33 -60 33 -690q0 -558 -27 -644q-29 -67 -199 -67q-155 0 -182 61q-45 103 -45 729q0 564 41 619zM177 -81q29 11 61 11q86 0 136 -91q14 -25 14 -60q0 -74 -71 -119q-34 -21 -73 -21q-63 0 -106 43.5t-43 107.5q0 96 82 129z" />
    <glyph glyph-name="uni1ECB" unicode="&#x1ecb;" horiz-adv-x="610" 
d="M57 870q37 68 180 68q156 0 199 -76q33 -59 33 -407q0 -308 -27 -394q-28 -67 -198 -67q-156 0 -183 61q-45 103 -45 447q0 313 41 368zM12 1276q14 223 262 219q94 -2 139.5 -42t67.5 -132q8 -33 8 -64q0 -108 -72.5 -169.5t-183.5 -61.5q-98 0 -162.5 76t-58.5 174z
M177 -81q29 11 61 11q87 0 137 -91q13 -25 13 -60q0 -74 -71 -119q-34 -21 -72 -21q-64 0 -107 43.5t-43 107.5q0 96 82 129z" />
    <glyph glyph-name="uni1ECC" unicode="&#x1ecc;" horiz-adv-x="1202" 
d="M382 1487q-139 -62 -227 -277q-45 -110 -107 -376q-12 -117 -12 -209q0 -172 46 -296t159 -251q127 -70 280 -70q144 0 334 64q139 118 182 264q37 127 33 416q-49 362 -184 532q-166 203 -504 203zM411 705q2 55 33 145q36 111 73 115q78 6 145.5 -41t67.5 -123
q0 -111 -28 -164q-37 -72 -138 -72q-161 0 -153 140zM508 -81q28 11 61 11q86 0 136 -91q14 -25 14 -60q0 -74 -72 -119q-33 -21 -72 -21q-64 0 -107 43.5t-43 107.5q0 96 83 129z" />
    <glyph glyph-name="uni1ECD" unicode="&#x1ecd;" 
d="M376 1278q-141 -53 -227 -236q-43 -92 -107 -325q-12 -101 -12 -178q0 -156 46 -258.5t159 -214.5q129 -60 282 -60q142 0 332 55q144 105 185 228q34 104 30 356q-51 330 -203 477q-161 156 -485 156zM378 598q2 49 33 127q37 94 74 96q71 4 137 -30q76 -41 76 -111
q0 -203 -166 -203q-160 0 -154 121zM508 -81q28 11 61 11q86 0 136 -91q14 -25 14 -60q0 -74 -71 -119q-34 -21 -73 -21q-64 0 -107 43.5t-43 107.5q0 96 83 129z" />
    <glyph glyph-name="uni1ECE" unicode="&#x1ece;" horiz-adv-x="1202" 
d="M382 1487q-139 -62 -227 -277q-45 -110 -107 -376q-12 -117 -12 -209q0 -172 46 -296t159 -251q127 -70 280 -70q144 0 334 64q139 118 182 264q37 127 33 416q-49 362 -184 532q-166 203 -504 203zM411 705q2 55 33 145q36 111 73 115q78 6 145.5 -41t67.5 -123
q0 -111 -28 -164q-37 -72 -138 -72q-161 0 -153 140zM294 1918q24 70 86 107q57 33 135 33q70 0 131 -29q74 -35 85 -95q10 -31 10 -67q0 -59 -26 -107q-27 -53 -78 -77q-17 -8 -31 -23l-42 -43q-17 -35 -49 -35q-39 0 -56 37q-3 8 -5 13q-8 24 -8 46q0 33 26 56q7 8 55 36
q54 33 54 66q0 19 -16 43q-25 41 -72 41q-70 0 -125 -68q-78 0 -78 47q0 8 4 19z" />
    <glyph glyph-name="uni1ECF" unicode="&#x1ecf;" 
d="M376 1278q-141 -53 -227 -236q-43 -92 -107 -325q-12 -101 -12 -178q0 -156 46 -258.5t159 -214.5q129 -60 282 -60q142 0 332 55q144 105 185 228q34 104 30 356q-51 330 -203 477q-161 156 -485 156zM378 598q2 49 33 127q37 94 74 96q71 4 137 -30q76 -41 76 -111
q0 -203 -166 -203q-160 0 -154 121zM264 1737q24 70 86 107q57 33 135 33q70 0 131 -29q74 -35 85 -95q10 -31 10 -67q0 -59 -25 -107q-28 -53 -79 -77q-17 -8 -31 -23l-42 -43q-17 -35 -49 -35q-39 0 -56 37q-2 8 -5 13q-8 24 -8 46q0 33 26 56q8 8 55 36q54 33 54 66
q0 19 -15 43q-26 41 -73 41q-70 0 -125 -68q-78 0 -78 47q0 8 4 19z" />
    <glyph glyph-name="uni1ED0" unicode="&#x1ed0;" horiz-adv-x="1202" 
d="M382 1487q-139 -62 -227 -277q-45 -110 -107 -376q-12 -117 -12 -209q0 -172 46 -296t159 -251q127 -70 280 -70q144 0 334 64q139 118 182 264q37 127 33 416q-49 362 -184 532q-166 203 -504 203zM411 705q2 55 33 145q36 111 73 115q78 6 145.5 -41t67.5 -123
q0 -111 -28 -164q-37 -72 -138 -72q-161 0 -153 140zM801 2179q21 -52 2 -87q-60 -33 -177 -80q-167 -67 -275 -98q-35 -5 -60 56q-29 72 11 95q78 46 232 108q133 53 202 67q42 -2 65 -61zM254 1708q48 61 127 126q102 84 160 83q71 0 179 -104q104 -100 122 -173
q0 -37 -24.5 -65t-60.5 -28q-23 0 -46 17q-31 22 -91 99q-47 61 -79 61q-27 0 -105 -81q-85 -86 -105 -92q-43 0 -67 26t-24 70q0 32 14 61z" />
    <glyph glyph-name="uni1ED1" unicode="&#x1ed1;" 
d="M376 1278q-141 -53 -227 -236q-43 -92 -107 -325q-12 -101 -12 -178q0 -156 46 -258.5t159 -214.5q129 -60 282 -60q142 0 332 55q144 105 185 228q34 104 30 356q-51 330 -203 477q-161 156 -485 156zM378 598q2 49 33 127q37 94 74 96q71 4 137 -30q76 -41 76 -111
q0 -203 -166 -203q-160 0 -154 121zM736 2090q-69 -14 -202 -67q-154 -62 -232 -108q-39 -23 -11 -95q25 -61 60 -56q109 31 275 98q117 47 177 80q20 35 -2 87q-23 59 -65 61zM229 1506q0 -44 24 -70t67 -26q20 6 105 92q79 81 106 81q31 0 78 -61q60 -77 91 -99
q23 -17 46 -17q36 0 60.5 28t24.5 65q-17 73 -122 173q-108 104 -178 104q-59 1 -161 -83q-79 -65 -126 -126q-15 -29 -15 -61z" />
    <glyph glyph-name="uni1ED2" unicode="&#x1ed2;" horiz-adv-x="1202" 
d="M382 1487q-139 -62 -227 -277q-45 -110 -107 -376q-12 -117 -12 -209q0 -172 46 -296t159 -251q127 -70 280 -70q144 0 334 64q139 118 182 264q37 127 33 416q-49 362 -184 532q-166 203 -504 203zM411 705q2 55 33 145q36 111 73 115q78 6 145.5 -41t67.5 -123
q0 -111 -28 -164q-37 -72 -138 -72q-161 0 -153 140zM355 2230q69 -14 202 -67q154 -62 233 -108q39 -23 10 -95q-24 -61 -60 -56q-108 31 -275 98q-117 47 -177 80q-19 35 2 87q24 59 65 61zM254 1708q48 61 127 126q102 84 160 83q71 0 179 -104q104 -100 122 -173
q0 -37 -24.5 -65t-60.5 -28q-23 0 -46 17q-31 22 -91 99q-47 61 -79 61q-27 0 -105 -81q-85 -86 -105 -92q-43 0 -67 26t-24 70q0 32 14 61z" />
    <glyph glyph-name="uni1ED3" unicode="&#x1ed3;" 
d="M376 1278q-141 -53 -227 -236q-43 -92 -107 -325q-12 -101 -12 -178q0 -156 46 -258.5t159 -214.5q129 -60 282 -60q142 0 332 55q144 105 185 228q34 104 30 356q-51 330 -203 477q-161 156 -485 156zM378 598q2 49 33 127q37 94 74 96q71 4 137 -30q76 -41 76 -111
q0 -203 -166 -203q-160 0 -154 121zM356 2079q69 -14 201 -67q154 -62 233 -108q39 -23 10 -95q-24 -61 -60 -56q-108 31 -275 98q-116 47 -177 80q-19 35 2 87q24 59 66 61zM244 1567q47 61 126 126q102 84 161 83q70 0 178 -104q105 -100 122 -173q0 -37 -24.5 -65
t-60.5 -28q-23 0 -46 17q-31 22 -91 99q-47 61 -78 61q-27 0 -106 -81q-85 -86 -105 -92q-43 0 -67 26t-24 70q0 32 15 61z" />
    <glyph glyph-name="uni1ED4" unicode="&#x1ed4;" horiz-adv-x="1202" 
d="M382 1487q-139 -62 -227 -277q-45 -110 -107 -376q-12 -117 -12 -209q0 -172 46 -296t159 -251q127 -70 280 -70q144 0 334 64q139 118 182 264q37 127 33 416q-49 362 -184 532q-166 203 -504 203zM411 705q2 55 33 145q36 111 73 115q78 6 145.5 -41t67.5 -123
q0 -111 -28 -164q-37 -72 -138 -72q-161 0 -153 140zM505 2240q24 70 86 107q57 33 135 33q70 0 131 -29q74 -35 85 -95q10 -31 10 -67q0 -59 -26 -107q-27 -53 -78 -77q-17 -8 -31 -23l-42 -43q-17 -35 -49 -35q-39 0 -56 37q-3 8 -5 13q-8 24 -8 46q0 33 26 56q7 8 55 36
q54 33 54 66q0 19 -16 43q-25 41 -72 41q-70 0 -125 -68q-78 0 -78 47q0 8 4 19zM254 1708q48 61 127 126q102 84 160 83q71 0 179 -104q104 -100 122 -173q0 -37 -24.5 -65t-60.5 -28q-23 0 -46 17q-31 22 -91 99q-47 61 -79 61q-27 0 -105 -81q-85 -86 -105 -92
q-43 0 -67 26t-24 70q0 32 14 61z" />
    <glyph glyph-name="uni1ED5" unicode="&#x1ed5;" 
d="M376 1278q-141 -53 -227 -236q-43 -92 -107 -325q-12 -101 -12 -178q0 -156 46 -258.5t159 -214.5q129 -60 282 -60q142 0 332 55q144 105 185 228q34 104 30 356q-51 330 -203 477q-161 156 -485 156zM378 598q2 49 33 127q37 94 74 96q71 4 137 -30q76 -41 76 -111
q0 -203 -166 -203q-160 0 -154 121zM515 2078q24 70 86 107q57 33 135 33q70 0 131 -29q74 -35 85 -95q10 -31 10 -67q0 -59 -25 -107q-28 -53 -79 -77q-17 -8 -31 -23l-42 -43q-17 -35 -49 -35q-39 0 -56 37q-2 8 -5 13q-8 24 -8 46q0 33 26 56q8 8 55 36q54 33 54 66
q0 19 -15 43q-26 41 -73 41q-70 0 -125 -68q-78 0 -78 47q0 8 4 19zM244 1567q47 61 126 126q102 84 161 83q70 0 178 -104q105 -100 122 -173q0 -37 -24.5 -65t-60.5 -28q-23 0 -46 17q-31 22 -91 99q-47 61 -78 61q-27 0 -106 -81q-85 -86 -105 -92q-43 0 -67 26t-24 70
q0 32 15 61z" />
    <glyph glyph-name="uni1ED6" unicode="&#x1ed6;" horiz-adv-x="1202" 
d="M382 1487q-139 -62 -227 -277q-45 -110 -107 -376q-12 -117 -12 -209q0 -172 46 -296t159 -251q127 -70 280 -70q144 0 334 64q139 118 182 264q37 127 33 416q-49 362 -184 532q-166 203 -504 203zM411 705q2 55 33 145q36 111 73 115q78 6 145.5 -41t67.5 -123
q0 -111 -28 -164q-37 -72 -138 -72q-161 0 -153 140zM524 2001q-21 -5 -38 -25q-7 -10 -23 -28q-35 -40 -76 -40q-31 0 -48 24t-17 56q0 68 69 147q20 22 60.5 42.5t68.5 20.5q72 0 103 -24q6 -5 34 -48q17 -25 55 -26q25 0 46 30q16 22 35 47q26 20 55 20q36 0 59.5 -26.5
t23.5 -63.5q0 -36 -24 -73q-37 -58 -72 -86q-50 -39 -125 -41q-55 -2 -90 24q-9 6 -48 48q-22 25 -48 22zM254 1708q48 61 127 126q102 84 160 83q71 0 179 -104q104 -100 122 -173q0 -37 -24.5 -65t-60.5 -28q-23 0 -46 17q-31 22 -91 99q-47 61 -79 61q-27 0 -105 -81
q-85 -86 -105 -92q-43 0 -67 26t-24 70q0 32 14 61z" />
    <glyph glyph-name="uni1ED7" unicode="&#x1ed7;" 
d="M376 1278q-141 -53 -227 -236q-43 -92 -107 -325q-12 -101 -12 -178q0 -156 46 -258.5t159 -214.5q129 -60 282 -60q142 0 332 55q144 105 185 228q34 104 30 356q-51 330 -203 477q-161 156 -485 156zM378 598q2 49 33 127q37 94 74 96q71 4 137 -30q76 -41 76 -111
q0 -203 -166 -203q-160 0 -154 121zM562 1859q39 -42 48 -48q35 -26 90 -24q76 2 125 41q35 28 73 86q23 37 23 73q0 37 -23.5 63.5t-59.5 26.5q-29 0 -55 -20q-19 -25 -35 -47q-21 -30 -46 -30q-38 1 -54 26q-29 43 -35 48q-31 24 -103 24q-28 0 -68.5 -20.5t-60.5 -42.5
q-69 -79 -69 -147q0 -32 17.5 -56t47.5 -24q41 0 76 40q16 18 23 28q18 20 38 25q26 3 48 -22zM229 1506q0 -44 24 -70t67 -26q20 6 105 92q79 81 106 81q31 0 78 -61q60 -77 91 -99q23 -17 46 -17q36 0 60.5 28t24.5 65q-17 73 -122 173q-108 104 -178 104q-59 1 -161 -83
q-79 -65 -126 -126q-15 -29 -15 -61z" />
    <glyph glyph-name="uni1ED8" unicode="&#x1ed8;" horiz-adv-x="1202" 
d="M382 1487q-139 -62 -227 -277q-45 -110 -107 -376q-12 -117 -12 -209q0 -172 46 -296t159 -251q127 -70 280 -70q144 0 334 64q139 118 182 264q37 127 33 416q-49 362 -184 532q-166 203 -504 203zM411 705q2 55 33 145q36 111 73 115q78 6 145.5 -41t67.5 -123
q0 -111 -28 -164q-37 -72 -138 -72q-161 0 -153 140zM508 -81q28 11 61 11q86 0 136 -91q14 -25 14 -60q0 -74 -72 -119q-33 -21 -72 -21q-64 0 -107 43.5t-43 107.5q0 96 83 129zM254 1708q48 61 127 126q102 84 160 83q71 0 179 -104q104 -100 122 -173q0 -37 -24.5 -65
t-60.5 -28q-23 0 -46 17q-31 22 -91 99q-47 61 -79 61q-27 0 -105 -81q-85 -86 -105 -92q-43 0 -67 26t-24 70q0 32 14 61z" />
    <glyph glyph-name="uni1ED9" unicode="&#x1ed9;" 
d="M376 1278q-141 -53 -227 -236q-43 -92 -107 -325q-12 -101 -12 -178q0 -156 46 -258.5t159 -214.5q129 -60 282 -60q142 0 332 55q144 105 185 228q34 104 30 356q-51 330 -203 477q-161 156 -485 156zM378 598q2 49 33 127q37 94 74 96q71 4 137 -30q76 -41 76 -111
q0 -203 -166 -203q-160 0 -154 121zM508 -81q28 11 61 11q86 0 136 -91q14 -25 14 -60q0 -74 -71 -119q-34 -21 -73 -21q-64 0 -107 43.5t-43 107.5q0 96 83 129zM229 1506q0 -44 24 -70t67 -26q20 6 105 92q79 81 106 81q31 0 78 -61q60 -77 91 -99q23 -17 46 -17
q36 0 60.5 28t24.5 65q-17 73 -122 173q-108 104 -178 104q-59 1 -161 -83q-79 -65 -126 -126q-15 -29 -15 -61z" />
    <glyph glyph-name="uni1EDA" unicode="&#x1eda;" horiz-adv-x="1202" 
d="M411 705q2 55 32 145q37 111 74 115q78 6 145.5 -41t67.5 -123q0 -111 -29 -164q-36 -72 -137 -72q-162 0 -153 140zM801 1858q21 -52 2 -87q-60 -33 -177 -80q-167 -67 -275 -98q-35 -5 -60 56q-29 72 10 95q79 46 233 108q133 53 202 67q41 -2 65 -61zM995 1346
q86 104 85 199q0 60 -42.5 101t-103.5 41q-34 0 -64 -11q-38 -14 -59.5 -55t-21.5 -84q0 -99 91 -140q1 -3 1 -7q0 -10 -15 -44q-7 -16 -10 -28q-166 169 -474 169q-139 -62 -227 -277q-45 -110 -107 -376q-12 -117 -12 -209q0 -172 46 -296t159 -251q127 -70 280 -70
q144 0 334 64q139 118 182 264q37 127 33 416q-46 338 -167 509q37 18 92 85z" />
    <glyph glyph-name="uni1EDB" unicode="&#x1edb;" 
d="M378 598q2 49 33 127q37 94 73 96q72 4 138 -30q75 -41 75 -111q0 -203 -166 -203q-159 0 -153 121zM736 1748q-69 -14 -202 -67q-154 -62 -233 -108q-39 -23 -10 -95q25 -61 60 -56q108 31 275 98q117 47 177 80q19 35 -2 87q-24 59 -65 61zM1005 1115q86 104 85 199
q0 60 -42.5 101t-103.5 41q-34 0 -64 -11q-38 -14 -59.5 -55t-21.5 -84q0 -99 91 -140q1 -3 1 -7q0 -10 -15 -44l-2 -6l-13 13q-162 156 -485 156q-141 -53 -227 -236q-44 -92 -107 -325q-12 -101 -12 -178q0 -156 46 -258.5t159 -214.5q129 -60 282 -60q141 0 332 55
q143 105 184 228q35 104 31 356q-39 249 -135 394q33 23 76 76z" />
    <glyph glyph-name="uni1EDC" unicode="&#x1edc;" horiz-adv-x="1202" 
d="M411 705q2 55 32 145q37 111 74 115q78 6 145.5 -41t67.5 -123q0 -111 -29 -164q-36 -72 -137 -72q-162 0 -153 140zM293 1919q69 -14 202 -67q154 -62 233 -108q39 -23 10 -95q-25 -61 -60 -56q-108 31 -275 98q-117 47 -177 80q-19 35 2 87q24 59 65 61zM995 1346
q86 104 85 199q0 60 -42.5 101t-103.5 41q-34 0 -64 -11q-38 -14 -59.5 -55t-21.5 -84q0 -99 91 -140q1 -3 1 -7q0 -10 -15 -44q-7 -16 -10 -28q-166 169 -474 169q-139 -62 -227 -277q-45 -110 -107 -376q-12 -117 -12 -209q0 -172 46 -296t159 -251q127 -70 280 -70
q144 0 334 64q139 118 182 264q37 127 33 416q-46 338 -167 509q37 18 92 85z" />
    <glyph glyph-name="uni1EDD" unicode="&#x1edd;" 
d="M378 598q2 49 33 127q37 94 73 96q72 4 138 -30q75 -41 75 -111q0 -203 -166 -203q-159 0 -153 121zM290 1687q-21 -52 -2 -87q60 -33 177 -80q167 -67 275 -98q35 -5 60 56q29 72 -10 95q-79 46 -233 108q-133 53 -202 67q-41 -2 -65 -61zM1005 1115q86 104 85 199
q0 60 -42.5 101t-103.5 41q-34 0 -64 -11q-38 -14 -59.5 -55t-21.5 -84q0 -99 91 -140q1 -3 1 -7q0 -10 -15 -44l-2 -6l-13 13q-162 156 -485 156q-141 -53 -227 -236q-44 -92 -107 -325q-12 -101 -12 -178q0 -156 46 -258.5t159 -214.5q129 -60 282 -60q141 0 332 55
q143 105 184 228q35 104 31 356q-39 249 -135 394q33 23 76 76z" />
    <glyph glyph-name="uni1EDE" unicode="&#x1ede;" horiz-adv-x="1202" 
d="M411 705q2 55 32 145q37 111 74 115q78 6 145.5 -41t67.5 -123q0 -111 -29 -164q-36 -72 -137 -72q-162 0 -153 140zM294 1918q24 70 86 107q57 33 135 33q69 0 131 -29q74 -35 85 -95q10 -31 10 -67q0 -59 -26 -107q-27 -53 -78 -77q-17 -8 -32 -23l-42 -43
q-16 -35 -48 -35q-40 0 -56 37q-3 8 -6 13q-7 24 -7 46q0 33 26 56q7 8 55 36q54 33 54 66q0 19 -16 43q-26 41 -72 41q-70 0 -126 -68q-77 0 -77 47q0 8 4 19zM995 1346q86 104 85 199q0 60 -42.5 101t-103.5 41q-34 0 -64 -11q-38 -14 -59.5 -55t-21.5 -84q0 -99 91 -140
q1 -3 1 -7q0 -10 -15 -44q-7 -16 -10 -28q-166 169 -474 169q-139 -62 -227 -277q-45 -110 -107 -376q-12 -117 -12 -209q0 -172 46 -296t159 -251q127 -70 280 -70q144 0 334 64q139 118 182 264q37 127 33 416q-46 338 -167 509q37 18 92 85z" />
    <glyph glyph-name="uni1EDF" unicode="&#x1edf;" 
d="M378 598q2 49 33 127q37 94 73 96q72 4 138 -30q75 -41 75 -111q0 -203 -166 -203q-159 0 -153 121zM264 1737q24 70 86 107q57 33 135 33q69 0 131 -29q74 -35 85 -95q10 -31 10 -67q0 -59 -26 -107q-27 -53 -78 -77q-17 -8 -32 -23l-42 -43q-16 -35 -48 -35
q-40 0 -56 37q-3 8 -6 13q-7 24 -7 46q0 33 26 56q7 8 55 36q54 33 54 66q0 19 -16 43q-26 41 -72 41q-70 0 -126 -68q-77 0 -77 47q0 8 4 19zM1005 1115q86 104 85 199q0 60 -42.5 101t-103.5 41q-34 0 -64 -11q-38 -14 -59.5 -55t-21.5 -84q0 -99 91 -140q1 -3 1 -7
q0 -10 -15 -44l-2 -6l-13 13q-162 156 -485 156q-141 -53 -227 -236q-44 -92 -107 -325q-12 -101 -12 -178q0 -156 46 -258.5t159 -214.5q129 -60 282 -60q141 0 332 55q143 105 184 228q35 104 31 356q-39 249 -135 394q33 23 76 76z" />
    <glyph glyph-name="uni1EE0" unicode="&#x1ee0;" horiz-adv-x="1202" 
d="M411 705q2 55 32 145q37 111 74 115q78 6 145.5 -41t67.5 -123q0 -111 -29 -164q-36 -72 -137 -72q-162 0 -153 140zM422 1680q-20 -5 -37 -25q-8 -10 -23 -28q-36 -40 -76 -40q-31 0 -48 24t-17 56q0 68 69 147q20 22 60 42.5t69 20.5q72 0 103 -24q6 -5 34 -48
q17 -25 55 -26q25 0 46 30q15 22 34 47q26 20 56 20q36 0 59.5 -26.5t23.5 -63.5q0 -36 -24 -73q-38 -58 -72 -86q-50 -39 -126 -41q-54 -2 -90 24q-8 6 -47 48q-23 25 -49 22zM995 1346q86 104 85 199q0 60 -42.5 101t-103.5 41q-34 0 -64 -11q-38 -14 -59.5 -55t-21.5 -84
q0 -99 91 -140q1 -3 1 -7q0 -10 -15 -44q-7 -16 -10 -28q-166 169 -474 169q-139 -62 -227 -277q-45 -110 -107 -376q-12 -117 -12 -209q0 -172 46 -296t159 -251q127 -70 280 -70q144 0 334 64q139 118 182 264q37 127 33 416q-46 338 -167 509q37 18 92 85z" />
    <glyph glyph-name="uni1EE1" unicode="&#x1ee1;" 
d="M378 598q2 49 33 127q37 94 73 96q72 4 138 -30q75 -41 75 -111q0 -203 -166 -203q-159 0 -153 121zM503 1559q-20 -5 -37 -25q-8 -10 -23 -28q-36 -40 -76 -40q-31 0 -48 24t-17 56q0 68 69 147q20 22 60 42.5t69 20.5q72 0 103 -24q6 -5 34 -48q17 -25 55 -26
q25 0 46 30q15 22 34 47q26 20 56 20q36 0 59.5 -26.5t23.5 -63.5q0 -36 -24 -73q-38 -58 -72 -86q-50 -39 -126 -41q-54 -2 -90 24q-8 6 -47 48q-23 25 -49 22zM1005 1115q86 104 85 199q0 60 -42.5 101t-103.5 41q-34 0 -64 -11q-38 -14 -59.5 -55t-21.5 -84
q0 -99 91 -140q1 -3 1 -7q0 -10 -15 -44l-2 -6l-13 13q-162 156 -485 156q-141 -53 -227 -236q-44 -92 -107 -325q-12 -101 -12 -178q0 -156 46 -258.5t159 -214.5q129 -60 282 -60q141 0 332 55q143 105 184 228q35 104 31 356q-39 249 -135 394q33 23 76 76z" />
    <glyph glyph-name="uni1EE2" unicode="&#x1ee2;" horiz-adv-x="1202" 
d="M411 705q2 55 32 145q37 111 74 115q78 6 145.5 -41t67.5 -123q0 -111 -29 -164q-36 -72 -137 -72q-162 0 -153 140zM507 -81q29 11 62 11q86 0 136 -91q13 -25 13 -60q0 -74 -71 -119q-33 -21 -72 -21q-64 0 -107 43.5t-43 107.5q0 96 82 129zM995 1346q86 104 85 199
q0 60 -42.5 101t-103.5 41q-34 0 -64 -11q-38 -14 -59.5 -55t-21.5 -84q0 -99 91 -140q1 -3 1 -7q0 -10 -15 -44q-7 -16 -10 -28q-166 169 -474 169q-139 -62 -227 -277q-45 -110 -107 -376q-12 -117 -12 -209q0 -172 46 -296t159 -251q127 -70 280 -70q144 0 334 64
q139 118 182 264q37 127 33 416q-46 338 -167 509q37 18 92 85z" />
    <glyph glyph-name="uni1EE3" unicode="&#x1ee3;" 
d="M378 598q2 49 33 127q37 94 73 96q72 4 138 -30q75 -41 75 -111q0 -203 -166 -203q-159 0 -153 121zM507 -81q29 11 62 11q86 0 136 -91q13 -25 13 -60q0 -74 -71 -119q-33 -21 -72 -21q-64 0 -107 43.5t-43 107.5q0 96 82 129zM1005 1115q86 104 85 199q0 60 -42.5 101
t-103.5 41q-34 0 -64 -11q-38 -14 -59.5 -55t-21.5 -84q0 -99 91 -140q1 -3 1 -7q0 -10 -15 -44l-2 -6l-13 13q-162 156 -485 156q-141 -53 -227 -236q-44 -92 -107 -325q-12 -101 -12 -178q0 -156 46 -258.5t159 -214.5q129 -60 282 -60q141 0 332 55q143 105 184 228
q35 104 31 356q-39 249 -135 394q33 23 76 76z" />
    <glyph glyph-name="uni1EE4" unicode="&#x1ee4;" horiz-adv-x="1239" 
d="M514 1343q-12 -133 -35 -292q-26 -187 -26 -279q0 -188 110 -192q111 -5 111 204q0 103 -27 285q-31 211 -35 268q-6 76 64 117q57 33 137 33q88 0 156 -41q75 -45 94 -127q33 -152 33 -352q0 -211 -47 -465q-62 -342 -170 -406q-52 -94 -324 -94q-291 0 -330 100
q-125 107 -182 375q-43 197 -43 428q0 203 41 402q20 94 92 139t166 45q72 0 135 -27q82 -34 82 -98q0 -6 -2 -23zM508 -81q29 11 62 11q86 0 136 -91q13 -25 13 -60q0 -74 -71 -119q-33 -21 -72 -21q-64 0 -107 43.5t-43 107.5q0 96 82 129z" />
    <glyph glyph-name="uni1EE5" unicode="&#x1ee5;" horiz-adv-x="1234" 
d="M514 1153q-12 -113 -35 -252q-26 -160 -26 -239q0 -162 110 -166q111 -4 111 176q0 88 -27 246q-31 184 -35 229q-6 67 68 102q57 27 133 27q84 0 152 -33q79 -39 98 -110q33 -132 33 -304q0 -184 -47 -403q-64 -291 -170 -346q-52 -80 -324 -80q-289 0 -330 86
q-123 88 -182 317q-43 170 -43 373q0 176 41 346q18 80 94 121q68 37 164 37q70 0 131 -20q86 -31 86 -86q0 -7 -2 -21zM508 -81q29 11 62 11q86 0 136 -91q13 -25 13 -60q0 -74 -71 -119q-33 -21 -72 -21q-64 0 -107 43.5t-43 107.5q0 96 82 129z" />
    <glyph glyph-name="uni1EE6" unicode="&#x1ee6;" horiz-adv-x="1239" 
d="M514 1343q-12 -133 -35 -292q-26 -187 -26 -279q0 -188 110 -192q111 -5 111 204q0 103 -27 285q-31 211 -35 268q-6 76 64 117q57 33 137 33q88 0 156 -41q75 -45 94 -127q33 -152 33 -352q0 -211 -47 -465q-62 -342 -170 -406q-52 -94 -324 -94q-291 0 -330 100
q-125 107 -182 375q-43 197 -43 428q0 203 41 402q20 94 92 139t166 45q72 0 135 -27q82 -34 82 -98q0 -6 -2 -23zM306 1918q24 70 86 107q57 33 135 33q69 0 131 -29q74 -35 85 -95q10 -31 10 -67q0 -59 -26 -107q-27 -53 -78 -77q-17 -8 -32 -23l-42 -43q-16 -35 -48 -35
q-40 0 -56 37q-3 8 -6 13q-7 24 -7 46q0 33 26 56q7 8 55 36q54 33 54 66q0 19 -16 43q-26 41 -72 41q-70 0 -126 -68q-77 0 -77 47q0 8 4 19z" />
    <glyph glyph-name="uni1EE7" unicode="&#x1ee7;" horiz-adv-x="1234" 
d="M514 1153q-12 -113 -35 -252q-26 -160 -26 -239q0 -162 110 -166q111 -4 111 176q0 88 -27 246q-31 184 -35 229q-6 67 68 102q57 27 133 27q84 0 152 -33q79 -39 98 -110q33 -132 33 -304q0 -184 -47 -403q-64 -291 -170 -346q-52 -80 -324 -80q-289 0 -330 86
q-123 88 -182 317q-43 170 -43 373q0 176 41 346q18 80 94 121q68 37 164 37q70 0 131 -20q86 -31 86 -86q0 -7 -2 -21zM326 1737q24 70 86 107q57 33 135 33q69 0 131 -29q74 -35 85 -95q10 -31 10 -67q0 -59 -26 -107q-27 -53 -78 -77q-17 -8 -32 -23l-42 -43
q-16 -35 -48 -35q-40 0 -56 37q-3 8 -6 13q-7 24 -7 46q0 33 26 56q7 8 55 36q54 33 54 66q0 19 -16 43q-26 41 -72 41q-70 0 -126 -68q-77 0 -77 47q0 8 4 19z" />
    <glyph glyph-name="uni1EE8" unicode="&#x1ee8;" horiz-adv-x="1239" 
d="M802 1858q21 -52 2 -87q-60 -33 -177 -80q-167 -67 -275 -98q-35 -5 -60 56q-29 72 10 95q79 46 233 108q133 53 202 67q41 -2 65 -61zM1048 1363q10 -21 15 -44q33 -152 33 -352q0 -211 -47 -465q-62 -342 -170 -406q-52 -94 -324 -94q-291 0 -330 100
q-125 107 -182 375q-43 197 -43 428q0 203 41 402q20 94 92 139t166 45q72 0 135 -27q82 -34 82 -98q0 -6 -2 -23q-12 -133 -35 -292q-26 -187 -26 -279q0 -188 110 -192q111 -5 111 204q0 103 -27 285q-31 211 -35 268q-6 76 64 117q57 33 137 33q88 0 156 -41
q16 -10 30 -21q3 9 8 21q15 34 15 44q0 4 -1 7q-91 41 -91 140q0 43 21.5 84t59.5 55q30 11 64 11q61 0 103.5 -41t42.5 -101q1 -95 -85 -199q-52 -64 -88 -83z" />
    <glyph glyph-name="uni1EE9" unicode="&#x1ee9;" horiz-adv-x="1234" 
d="M737 1748q-69 -14 -202 -67q-154 -62 -233 -108q-39 -23 -10 -95q25 -61 60 -56q108 31 275 98q117 47 177 80q19 35 -2 87q-24 59 -65 61zM1053 1161q6 -13 10 -28q33 -132 33 -304q0 -184 -47 -403q-64 -291 -170 -346q-52 -80 -324 -80q-289 0 -330 86
q-123 88 -182 317q-43 170 -43 373q0 176 41 346q18 80 94 121q68 37 164 37q70 0 131 -20q86 -31 86 -86q0 -7 -2 -21q-12 -113 -35 -252q-26 -160 -26 -239q0 -162 110 -166q111 -4 111 176q0 88 -27 246q-31 184 -35 229q-6 67 68 102q57 27 133 27q84 0 152 -33
q15 -8 29 -16q1 3 3 8q15 34 15 44q0 4 -1 7q-91 41 -91 140q0 43 21.5 84t59.5 55q30 11 64 11q61 0 103.5 -41t42.5 -101q1 -95 -85 -199q-42 -51 -73 -74z" />
    <glyph glyph-name="uni1EEA" unicode="&#x1eea;" horiz-adv-x="1239" 
d="M356 1919q69 -14 202 -67q154 -62 233 -108q39 -23 10 -95q-25 -61 -60 -56q-108 31 -275 98q-117 47 -177 80q-19 35 2 87q24 59 65 61zM1048 1363q10 -21 15 -44q33 -152 33 -352q0 -211 -47 -465q-62 -342 -170 -406q-52 -94 -324 -94q-291 0 -330 100
q-125 107 -182 375q-43 197 -43 428q0 203 41 402q20 94 92 139t166 45q72 0 135 -27q82 -34 82 -98q0 -6 -2 -23q-12 -133 -35 -292q-26 -187 -26 -279q0 -188 110 -192q111 -5 111 204q0 103 -27 285q-31 211 -35 268q-6 76 64 117q57 33 137 33q88 0 156 -41
q16 -10 30 -21q3 9 8 21q15 34 15 44q0 4 -1 7q-91 41 -91 140q0 43 21.5 84t59.5 55q30 11 64 11q61 0 103.5 -41t42.5 -101q1 -95 -85 -199q-52 -64 -88 -83z" />
    <glyph glyph-name="uni1EEB" unicode="&#x1eeb;" horiz-adv-x="1234" 
d="M291 1687q-21 -52 -2 -87q60 -33 177 -80q167 -67 275 -98q35 -5 60 56q29 72 -10 95q-79 46 -233 108q-133 53 -202 67q-41 -2 -65 -61zM1053 1161q6 -13 10 -28q33 -132 33 -304q0 -184 -47 -403q-64 -291 -170 -346q-52 -80 -324 -80q-289 0 -330 86q-123 88 -182 317
q-43 170 -43 373q0 176 41 346q18 80 94 121q68 37 164 37q70 0 131 -20q86 -31 86 -86q0 -7 -2 -21q-12 -113 -35 -252q-26 -160 -26 -239q0 -162 110 -166q111 -4 111 176q0 88 -27 246q-31 184 -35 229q-6 67 68 102q57 27 133 27q84 0 152 -33q15 -8 29 -16q1 3 3 8
q15 34 15 44q0 4 -1 7q-91 41 -91 140q0 43 21.5 84t59.5 55q30 11 64 11q61 0 103.5 -41t42.5 -101q1 -95 -85 -199q-42 -51 -73 -74z" />
    <glyph glyph-name="uni1EEC" unicode="&#x1eec;" horiz-adv-x="1239" 
d="M306 1918q24 70 86 107q57 33 135 33q69 0 131 -29q74 -35 85 -95q10 -31 10 -67q0 -59 -26 -107q-27 -53 -78 -77q-17 -8 -32 -23l-42 -43q-16 -35 -48 -35q-40 0 -56 37q-3 8 -6 13q-7 24 -7 46q0 33 26 56q7 8 55 36q54 33 54 66q0 19 -16 43q-26 41 -72 41
q-70 0 -126 -68q-77 0 -77 47q0 8 4 19zM1048 1363q10 -21 15 -44q33 -152 33 -352q0 -211 -47 -465q-62 -342 -170 -406q-52 -94 -324 -94q-291 0 -330 100q-125 107 -182 375q-43 197 -43 428q0 203 41 402q20 94 92 139t166 45q72 0 135 -27q82 -34 82 -98q0 -6 -2 -23
q-12 -133 -35 -292q-26 -187 -26 -279q0 -188 110 -192q111 -5 111 204q0 103 -27 285q-31 211 -35 268q-6 76 64 117q57 33 137 33q88 0 156 -41q16 -10 30 -21q3 9 8 21q15 34 15 44q0 4 -1 7q-91 41 -91 140q0 43 21.5 84t59.5 55q30 11 64 11q61 0 103.5 -41t42.5 -101
q1 -95 -85 -199q-52 -64 -88 -83z" />
    <glyph glyph-name="uni1EED" unicode="&#x1eed;" horiz-adv-x="1234" 
d="M326 1737q24 70 86 107q57 33 135 33q69 0 131 -29q74 -35 85 -95q10 -31 10 -67q0 -59 -26 -107q-27 -53 -78 -77q-17 -8 -32 -23l-42 -43q-16 -35 -48 -35q-40 0 -56 37q-3 8 -6 13q-7 24 -7 46q0 33 26 56q7 8 55 36q54 33 54 66q0 19 -16 43q-26 41 -72 41
q-70 0 -126 -68q-77 0 -77 47q0 8 4 19zM1053 1161q6 -13 10 -28q33 -132 33 -304q0 -184 -47 -403q-64 -291 -170 -346q-52 -80 -324 -80q-289 0 -330 86q-123 88 -182 317q-43 170 -43 373q0 176 41 346q18 80 94 121q68 37 164 37q70 0 131 -20q86 -31 86 -86
q0 -7 -2 -21q-12 -113 -35 -252q-26 -160 -26 -239q0 -162 110 -166q111 -4 111 176q0 88 -27 246q-31 184 -35 229q-6 67 68 102q57 27 133 27q84 0 152 -33q15 -8 29 -16q1 3 3 8q15 34 15 44q0 4 -1 7q-91 41 -91 140q0 43 21.5 84t59.5 55q30 11 64 11q61 0 103.5 -41
t42.5 -101q1 -95 -85 -199q-42 -51 -73 -74z" />
    <glyph glyph-name="uni1EEE" unicode="&#x1eee;" horiz-adv-x="1239" 
d="M503 1680q-20 -5 -37 -25q-8 -10 -23 -28q-36 -40 -76 -40q-31 0 -48 24t-17 56q0 68 69 147q20 22 60 42.5t69 20.5q72 0 103 -24q6 -5 34 -48q17 -25 55 -26q25 0 46 30q15 22 34 47q26 20 56 20q36 0 59.5 -26.5t23.5 -63.5q0 -36 -24 -73q-38 -58 -72 -86
q-50 -39 -126 -41q-54 -2 -90 24q-8 6 -47 48q-23 25 -49 22zM1048 1363q10 -21 15 -44q33 -152 33 -352q0 -211 -47 -465q-62 -342 -170 -406q-52 -94 -324 -94q-291 0 -330 100q-125 107 -182 375q-43 197 -43 428q0 203 41 402q20 94 92 139t166 45q72 0 135 -27
q82 -34 82 -98q0 -6 -2 -23q-12 -133 -35 -292q-26 -187 -26 -279q0 -188 110 -192q111 -5 111 204q0 103 -27 285q-31 211 -35 268q-6 76 64 117q57 33 137 33q88 0 156 -41q16 -10 30 -21q3 9 8 21q15 34 15 44q0 4 -1 7q-91 41 -91 140q0 43 21.5 84t59.5 55q30 11 64 11
q61 0 103.5 -41t42.5 -101q1 -95 -85 -199q-52 -64 -88 -83z" />
    <glyph glyph-name="uni1EEF" unicode="&#x1eef;" horiz-adv-x="1234" 
d="M504 1559q-20 -5 -37 -25q-8 -10 -23 -28q-36 -40 -76 -40q-31 0 -48 24t-17 56q0 68 69 147q20 22 60 42.5t69 20.5q72 0 103 -24q6 -5 34 -48q17 -25 55 -26q25 0 46 30q15 22 34 47q26 20 56 20q36 0 59.5 -26.5t23.5 -63.5q0 -36 -24 -73q-38 -58 -72 -86
q-50 -39 -126 -41q-54 -2 -90 24q-8 6 -47 48q-23 25 -49 22zM1053 1161q6 -13 10 -28q33 -132 33 -304q0 -184 -47 -403q-64 -291 -170 -346q-52 -80 -324 -80q-289 0 -330 86q-123 88 -182 317q-43 170 -43 373q0 176 41 346q18 80 94 121q68 37 164 37q70 0 131 -20
q86 -31 86 -86q0 -7 -2 -21q-12 -113 -35 -252q-26 -160 -26 -239q0 -162 110 -166q111 -4 111 176q0 88 -27 246q-31 184 -35 229q-6 67 68 102q57 27 133 27q84 0 152 -33q15 -8 29 -16q1 3 3 8q15 34 15 44q0 4 -1 7q-91 41 -91 140q0 43 21.5 84t59.5 55q30 11 64 11
q61 0 103.5 -41t42.5 -101q1 -95 -85 -199q-42 -51 -73 -74z" />
    <glyph glyph-name="uni1EF0" unicode="&#x1ef0;" horiz-adv-x="1239" 
d="M508 -81q29 11 62 11q86 0 136 -91q13 -25 13 -60q0 -74 -71 -119q-33 -21 -72 -21q-64 0 -107 43.5t-43 107.5q0 96 82 129zM1048 1363q10 -21 15 -44q33 -152 33 -352q0 -211 -47 -465q-62 -342 -170 -406q-52 -94 -324 -94q-291 0 -330 100q-125 107 -182 375
q-43 197 -43 428q0 203 41 402q20 94 92 139t166 45q72 0 135 -27q82 -34 82 -98q0 -6 -2 -23q-12 -133 -35 -292q-26 -187 -26 -279q0 -188 110 -192q111 -5 111 204q0 103 -27 285q-31 211 -35 268q-6 76 64 117q57 33 137 33q88 0 156 -41q16 -10 30 -21q3 9 8 21
q15 34 15 44q0 4 -1 7q-91 41 -91 140q0 43 21.5 84t59.5 55q30 11 64 11q61 0 103.5 -41t42.5 -101q1 -95 -85 -199q-52 -64 -88 -83z" />
    <glyph glyph-name="uni1EF1" unicode="&#x1ef1;" horiz-adv-x="1234" 
d="M508 -81q29 11 62 11q86 0 136 -91q13 -25 13 -60q0 -74 -71 -119q-33 -21 -72 -21q-64 0 -107 43.5t-43 107.5q0 96 82 129zM1053 1161q6 -13 10 -28q33 -132 33 -304q0 -184 -47 -403q-64 -291 -170 -346q-52 -80 -324 -80q-289 0 -330 86q-123 88 -182 317
q-43 170 -43 373q0 176 41 346q18 80 94 121q68 37 164 37q70 0 131 -20q86 -31 86 -86q0 -7 -2 -21q-12 -113 -35 -252q-26 -160 -26 -239q0 -162 110 -166q111 -4 111 176q0 88 -27 246q-31 184 -35 229q-6 67 68 102q57 27 133 27q84 0 152 -33q15 -8 29 -16q1 3 3 8
q15 34 15 44q0 4 -1 7q-91 41 -91 140q0 43 21.5 84t59.5 55q30 11 64 11q61 0 103.5 -41t42.5 -101q1 -95 -85 -199q-42 -51 -73 -74z" />
    <glyph glyph-name="Ygrave" unicode="&#x1ef2;" horiz-adv-x="1173" 
d="M43 1372q0 51 90 86q72 29 133 29q90 0 105 -53q26 -35 49 -121q26 -99 41 -127q31 -62 90 -60q123 7 168 301q14 58 131 58q74 0 141 -29q84 -37 84 -102q-33 -336 -67 -441q-68 -202 -250 -245q-10 -23 -10 -70q0 -70 19 -209t19 -209q0 -51 -6 -78q-20 -94 -211 -94
q-67 0 -143 21q-102 26 -107 73q-4 68 17 238q22 182 22 238q0 59 -14 86q-190 69 -256 280q-45 143 -45 428zM356 1919q69 -14 202 -67q154 -62 233 -108q39 -23 10 -95q-25 -61 -60 -56q-108 31 -275 98q-117 47 -177 80q-19 35 2 87q24 59 65 61z" />
    <glyph glyph-name="ygrave" unicode="&#x1ef3;" horiz-adv-x="1177" 
d="M4 1159q0 64 100 98q76 25 154 25q158 0 168 -76q16 -112 33 -198q22 -119 92 -134q74 0 98 125q10 68 35 203q20 72 180 72q80 0 141 -29q84 -37 80 -106q-6 -115 -69 -275q-51 -129 -170 -360q-70 -135 -211 -404q-176 -319 -324 -311q-133 6 -203 76q-45 45 -45 84
q0 94 177 354q124 184 124 207q0 8 -8 12q-184 68 -280 299q-72 172 -72 338zM291 1687q-21 -52 -2 -87q60 -33 177 -80q167 -67 275 -98q35 -5 60 56q29 72 -10 95q-79 46 -233 108q-133 53 -202 67q-42 -2 -65 -61z" />
    <glyph glyph-name="uni1EF4" unicode="&#x1ef4;" horiz-adv-x="1173" 
d="M43 1372q0 51 90 86q72 29 133 29q90 0 105 -53q26 -35 49 -121q26 -99 41 -127q31 -62 90 -60q123 7 168 301q14 58 131 58q74 0 141 -29q84 -37 84 -102q-33 -336 -67 -441q-68 -202 -250 -245q-10 -23 -10 -70q0 -70 19 -209t19 -209q0 -51 -6 -78q-20 -94 -211 -94
q-67 0 -143 21q-102 26 -107 73q-4 68 17 238q22 182 22 238q0 59 -14 86q-190 69 -256 280q-45 143 -45 428zM508 -81q29 11 62 11q86 0 136 -91q13 -25 13 -60q0 -74 -71 -119q-33 -21 -72 -21q-64 0 -107 43.5t-43 107.5q0 96 82 129z" />
    <glyph glyph-name="uni1EF5" unicode="&#x1ef5;" horiz-adv-x="1177" 
d="M4 1159q0 64 100 98q76 25 154 25q158 0 168 -76q16 -112 33 -198q22 -119 92 -134q74 0 98 125q10 68 35 203q20 72 180 72q80 0 141 -29q84 -37 80 -106q-6 -115 -69 -275q-51 -129 -170 -360q-70 -135 -211 -404q-176 -319 -324 -311q-133 6 -203 76q-45 45 -45 84
q0 94 177 354q124 184 124 207q0 8 -8 12q-184 68 -280 299q-72 172 -72 338zM639 -81q29 11 62 11q86 0 136 -91q13 -25 13 -60q0 -74 -71 -119q-34 -21 -72 -21q-64 0 -107 43.5t-43 107.5q0 96 82 129z" />
    <glyph glyph-name="uni1EF6" unicode="&#x1ef6;" horiz-adv-x="1173" 
d="M43 1372q0 51 90 86q72 29 133 29q90 0 105 -53q26 -35 49 -121q26 -99 41 -127q31 -62 90 -60q123 7 168 301q14 58 131 58q74 0 141 -29q84 -37 84 -102q-33 -336 -67 -441q-68 -202 -250 -245q-10 -23 -10 -70q0 -70 19 -209t19 -209q0 -51 -6 -78q-20 -94 -211 -94
q-67 0 -143 21q-102 26 -107 73q-4 68 17 238q22 182 22 238q0 59 -14 86q-190 69 -256 280q-45 143 -45 428zM306 1918q24 70 86 107q57 33 135 33q69 0 131 -29q74 -35 85 -95q10 -31 10 -67q0 -59 -26 -107q-27 -53 -78 -77q-17 -8 -32 -23l-42 -43q-16 -35 -48 -35
q-40 0 -56 37q-3 8 -6 13q-7 24 -7 46q0 33 26 56q7 8 55 36q54 33 54 66q0 19 -16 43q-26 41 -72 41q-70 0 -126 -68q-77 0 -77 47q0 8 4 19z" />
    <glyph glyph-name="uni1EF7" unicode="&#x1ef7;" horiz-adv-x="1177" 
d="M4 1159q0 64 100 98q76 25 154 25q158 0 168 -76q16 -112 33 -198q22 -119 92 -134q74 0 98 125q10 68 35 203q20 72 180 72q80 0 141 -29q84 -37 80 -106q-6 -115 -69 -275q-51 -129 -170 -360q-70 -135 -211 -404q-176 -319 -324 -311q-133 6 -203 76q-45 45 -45 84
q0 94 177 354q124 184 124 207q0 8 -8 12q-184 68 -280 299q-72 172 -72 338zM326 1737q24 70 86 107q57 33 135 33q69 0 130 -29q75 -35 86 -95q10 -31 10 -67q0 -59 -26 -107q-27 -53 -78 -77q-17 -8 -32 -23l-42 -43q-16 -35 -48 -35q-40 0 -56 37q-3 8 -6 13
q-7 24 -7 46q0 33 26 56q7 8 55 36q53 33 53 66q0 19 -15 43q-26 41 -72 41q-70 0 -126 -68q-77 0 -77 47q0 8 4 19z" />
    <glyph glyph-name="uni1EF8" unicode="&#x1ef8;" horiz-adv-x="1173" 
d="M43 1372q0 51 90 86q72 29 133 29q90 0 105 -53q26 -35 49 -121q26 -99 41 -127q31 -62 90 -60q123 7 168 301q14 58 131 58q74 0 141 -29q84 -37 84 -102q-33 -336 -67 -441q-68 -202 -250 -245q-10 -23 -10 -70q0 -70 19 -209t19 -209q0 -51 -6 -78q-20 -94 -211 -94
q-67 0 -143 21q-102 26 -107 73q-4 68 17 238q22 182 22 238q0 59 -14 86q-190 69 -256 280q-45 143 -45 428zM503 1680q-20 -5 -38 -25q-7 -10 -22 -28q-36 -40 -76 -40q-31 0 -48 24t-17 56q0 68 69 147q20 22 60 42.5t69 20.5q72 0 103 -24q6 -5 34 -48q17 -25 55 -26
q25 0 46 30q15 22 34 47q26 20 56 20q36 0 59.5 -26.5t23.5 -63.5q0 -36 -24 -73q-38 -58 -72 -86q-50 -39 -126 -41q-54 -2 -90 24q-8 6 -47 48q-23 25 -49 22z" />
    <glyph glyph-name="uni1EF9" unicode="&#x1ef9;" horiz-adv-x="1177" 
d="M4 1159q0 64 100 98q76 25 154 25q158 0 168 -76q16 -112 33 -198q22 -119 92 -134q74 0 98 125q10 68 35 203q20 72 180 72q80 0 141 -29q84 -37 80 -106q-6 -115 -69 -275q-51 -129 -170 -360q-70 -135 -211 -404q-176 -319 -324 -311q-133 6 -203 76q-45 45 -45 84
q0 94 177 354q124 184 124 207q0 8 -8 12q-184 68 -280 299q-72 172 -72 338zM504 1559q-20 -5 -38 -25q-7 -10 -22 -28q-36 -40 -76 -40q-31 0 -48 24t-17 56q0 68 69 147q20 22 60 42.5t69 20.5q72 0 103 -24q6 -5 34 -48q17 -25 55 -26q25 0 46 30q15 22 34 47
q26 20 56 20q36 0 59.5 -26.5t23.5 -63.5q0 -36 -24 -73q-38 -58 -72 -86q-50 -39 -126 -41q-54 -2 -90 24q-8 6 -47 48q-23 25 -49 22z" />
    <glyph glyph-name="quoteleft" unicode="&#x2018;" horiz-adv-x="773" 
d="M293 846q-99 0 -168.5 66.5t-71.5 164.5q-2 154 137 324q123 149 193 149q8 0 12 -4q31 -22 31 -59q0 -29 -24.5 -85t-24.5 -73q0 -6 4 -12q147 -66 147 -227q0 -74 -37 -138q-61 -106 -198 -106z" />
    <glyph glyph-name="quoteright" unicode="&#x2019;" horiz-adv-x="695" 
d="M325 1550q98 0 167.5 -66.5t71.5 -164.5q2 -154 -137 -324q-123 -149 -193 -149q-8 0 -12 4q-31 22 -31 59q0 29 25 85.5t25 72.5q0 6 -5 12q-147 66 -147 228q0 73 37 137q61 106 199 106z" />
    <glyph glyph-name="quotedblleft" unicode="&#x201c;" horiz-adv-x="1177" 
d="M915 864q-49 -18 -104 -18q-101 0 -169.5 66.5t-68.5 164.5q-2 154 137 324q123 149 191 149q18 0 31.5 -21.5t13.5 -41.5q0 -29 -24.5 -85t-24.5 -73q0 -6 2 -12q147 -66 147 -227q0 -70 -34.5 -136.5t-96.5 -89.5zM293 846q-99 0 -168.5 66.5t-71.5 164.5
q-2 154 137 324q123 149 193 149q8 0 12 -4q31 -22 31 -59q0 -29 -24.5 -85t-24.5 -73q0 -6 4 -12q147 -66 147 -227q0 -74 -37 -138q-61 -106 -198 -106z" />
    <glyph glyph-name="quotedblright" unicode="&#x201d;" horiz-adv-x="1177" 
d="M184 1532q49 18 105 18q100 0 168.5 -66.5t68.5 -164.5q2 -154 -137 -324q-123 -149 -191 -149q-18 0 -31.5 21.5t-13.5 41.5q0 29 25 85.5t25 72.5q0 6 -3 12q-147 66 -147 228q0 69 35 135.5t96 89.5zM807 1550q98 0 167.5 -66.5t71.5 -164.5q2 -154 -137 -324
q-123 -149 -192 -149q-9 0 -13 4q-30 22 -30 59q0 29 24.5 85.5t24.5 72.5q0 6 -4 12q-148 66 -148 228q0 73 37 137q61 106 199 106z" />
    <glyph glyph-name="ellipsis" unicode="&#x2026;" horiz-adv-x="2157" 
d="M329 453q47 18 101 18q141 0 223 -149q22 -41 22 -99q0 -121 -116 -194q-56 -35 -119 -35q-105 0 -175.5 71.5t-70.5 176.5q0 157 135 211zM951 452q47 19 100 19q142 0 224 -150q22 -41 22 -98q0 -121 -117 -195q-55 -35 -118 -35q-105 0 -175.5 72t-70.5 176
q0 158 135 211zM1573 452q47 18 100 18q142 0 224 -149q22 -41 22 -98q0 -121 -117 -195q-55 -35 -118 -35q-105 0 -175.5 72t-70.5 176q0 158 135 211z" />
    <glyph glyph-name="ugrave" horiz-adv-x="582" 
 />
    <glyph glyph-name="uacute" horiz-adv-x="580" 
 />
    <glyph glyph-name="yacute" horiz-adv-x="629" 
 />
    </font>
</defs>
</svg>
