<svg xmlns="http://www.w3.org/2000/svg">
<defs>
<font id="UTMOngDoTre" horiz-adv-x="802" >
  <font-face 
    font-family="UTM Ong Do Tre"
    font-weight="400"
    font-stretch="normal"
    units-per-em="2048"
    panose-1="2 4 6 3 5 5 6 2 2 4"
    ascent="1638"
    descent="-410"
    x-height="701"
    cap-height="1570"
    bbox="-9380 -1414 4942 2527"
    underline-thickness="109"
    underline-position="-250"
    unicode-range="U+0020-2026"
  />
<missing-glyph horiz-adv-x="5040" 
d="M3351 2045h10q37 -10 37 -52q0 -12 -32 -57h-28q0 24 28 54l2 10q-5 13 -10 15h-9q-8 0 -10 -19h-30q6 49 42 49zM2019 2016l29 -31q0 -16 -40 -30h-19l-59 12l-11 -12l-28 25q11 29 43 29h11l42 -11h2q10 0 30 18zM468 1980h142v-60h-94v-75h89v-59h-89v-129l-5 -5h-49
v323zM1155 1980h43l6 -5v-78h30v-52h-30v-188l-6 -5h-49v193h-25v52h25v78zM1621 1980h42l4 -5v-94h3q23 24 54 24h2q58 0 83 -71l2 -39v-143h-52v115q0 80 -42 80h-7q-43 0 -43 -86v-109h-51v323zM2200 1980h49l5 -5v-222q10 -51 45 -51q44 7 44 59v214l5 5h49v-216
q0 -85 -66 -112q-15 -8 -35 -8q-47 0 -82 55q-14 24 -14 57v224zM2435 1980h159v-60h-56v-268h-53v268h-55v55zM2621 1980h71q7 -4 83 -251h2l80 251h73v-328h-54v242h-2l-74 -242h-44q-4 0 -58 182l-19 60h-3v-242h-55v328zM3760 1980h52v-328h-45l-5 5v11l3 2l-3 14
q-29 -40 -78 -40q-67 0 -100 91l-5 39v3q0 94 92 125l23 3q35 0 63 -32h3v107zM2057 1928h36l4 -6v-49h-45v-221h-48v23q-23 -31 -59 -31q-89 14 -89 97v156h51v-104q0 -79 26 -86l18 -5h6q26 0 39 36l3 26v133h53v25zM3476 1928v-55h-31v-221h-47v25h-2q-15 -33 -57 -33
q-68 0 -86 78l-3 29v146h52v-120q0 -50 19 -68l21 -7h9q42 0 42 69v126h27q4 0 4 28l3 3h49zM758 1905q68 0 103 -77q9 -18 12 -54q0 -88 -90 -127l-32 -3q-63 0 -101 73q-12 22 -12 52v10q0 94 101 126h19zM1011 1905h3q74 0 83 -101v-152h-51v119q0 76 -42 76h-5
q-44 0 -44 -76v-119h-52v245h46v-21q30 29 62 29zM1466 1905h7q72 0 105 -89h-60q-16 31 -42 31h-17q-53 -14 -53 -61l-3 -15q12 -69 61 -69h9q22 0 47 27h40l2 3h3l2 -3l2 3l3 -3l2 3l2 -7q-33 -81 -110 -81q-76 0 -110 94l-4 36v3q0 85 77 120q15 8 37 8zM3141 1905h2

<glyph glyph-name=".notdef" horiz-adv-x="5040" 
d="M3351 2045h10q37 -10 37 -52q0 -12 -32 -57h-28q0 24 28 54l2 10q-5 13 -10 15h-9q-8 0 -10 -19h-30q6 49 42 49zM2019 2016l29 -31q0 -16 -40 -30h-19l-59 12l-11 -12l-28 25q11 29 43 29h11l42 -11h2q10 0 30 18zM468 1980h142v-60h-94v-75h89v-59h-89v-129l-5 -5h-49
v323zM1155 1980h43l6 -5v-78h30v-52h-30v-188l-6 -5h-49v193h-25v52h25v78zM1621 1980h42l4 -5v-94h3q23 24 54 24h2q58 0 83 -71l2 -39v-143h-52v115q0 80 -42 80h-7q-43 0 -43 -86v-109h-51v323zM2200 1980h49l5 -5v-222q10 -51 45 -51q44 7 44 59v214l5 5h49v-216
q0 -85 -66 -112q-15 -8 -35 -8q-47 0 -82 55q-14 24 -14 57v224zM2435 1980h159v-60h-56v-268h-53v268h-55v55zM2621 1980h71q7 -4 83 -251h2l80 251h73v-328h-54v242h-2l-74 -242h-44q-4 0 -58 182l-19 60h-3v-242h-55v328zM3760 1980h52v-328h-45l-5 5v11l3 2l-3 14
q-29 -40 -78 -40q-67 0 -100 91l-5 39v3q0 94 92 125l23 3q35 0 63 -32h3v107zM2057 1928h36l4 -6v-49h-45v-221h-48v23q-23 -31 -59 -31q-89 14 -89 97v156h51v-104q0 -79 26 -86l18 -5h6q26 0 39 36l3 26v133h53v25zM3476 1928v-55h-31v-221h-47v25h-2q-15 -33 -57 -33
q-68 0 -86 78l-3 29v146h52v-120q0 -50 19 -68l21 -7h9q42 0 42 69v126h27q4 0 4 28l3 3h49zM758 1905q68 0 103 -77q9 -18 12 -54q0 -88 -90 -127l-32 -3q-63 0 -101 73q-12 22 -12 52v10q0 94 101 126h19zM1011 1905h3q74 0 83 -101v-152h-51v119q0 76 -42 76h-5
q-44 0 -44 -76v-119h-52v245h46v-21q30 29 62 29zM1466 1905h7q72 0 105 -89h-60q-16 31 -42 31h-17q-53 -14 -53 -61l-3 -15q12 -69 61 -69h9q22 0 47 27h40l2 3h3l2 -3l2 3l3 -3l2 3l2 -7q-33 -81 -110 -81q-76 0 -110 94l-4 36v3q0 85 77 120q15 8 37 8zM3141 1905h2
q49 0 70 -60v-14h-52q0 16 -16 16h-4q-14 0 -19 -13v-13q0 -9 68 -35q30 -19 30 -59q0 -58 -61 -80l-23 -3q-76 12 -76 83h54q0 -20 27 -25h4q19 0 24 23q0 22 -68 44q-34 27 -34 59q0 66 74 77zM4203 1905q55 0 77 -63q7 -18 7 -65v-125h-52v112q0 83 -40 83h-11
q-33 0 -40 -54v-141h-52v5h-2l2 2v238h47v-21q25 29 64 29zM4432 1905h5q40 0 69 -40v18l-3 3l3 11h47v-208q0 -97 -85 -132l-33 -4h-7q-70 0 -104 80h59q24 -22 45 -23h13q22 0 43 22q15 13 22 52h-3q-32 -40 -73 -40q-57 0 -96 70q-10 18 -14 63q0 88 87 125zM3851 1897
h53v-136q6 -59 40 -59h7q46 0 46 93v102h51v-245h-47l-3 10h3l-3 3v5l3 2v3h-4q0 -23 -57 -31h-3q-59 0 -84 75l-2 85v93zM690 1771q10 -69 63 -69h7q59 14 59 65v15q-13 65 -59 65h-5q-58 0 -65 -76zM3630 1774q13 -72 61 -72h5q58 0 66 75q0 49 -51 70h-22q-37 0 -56 -57z
M4374 1774q8 -72 65 -72h5q59 12 59 72q0 61 -59 73h-14q-56 -16 -56 -62v-11zM3928 1620h52v-57h-52v57zM1054 1402q43 -11 43 -49v-4q0 -17 -32 -60h-28q0 25 31 57v7q0 12 -7 15h-12q-10 -4 -10 -19h-28v6q0 32 33 44zM3349 1339q92 0 138 -99h-60q-37 42 -80 42
q-55 0 -87 -68q-10 -22 -10 -47q0 -78 81 -110l18 -1q36 0 75 39h61q-44 -97 -138 -97q-93 0 -141 112q-10 31 -10 62q0 97 90 152q29 15 63 15zM3664 1339q57 0 103 -47q46 -51 46 -115v-20q0 -89 -91 -146q-33 -13 -63 -13q-89 0 -138 101q-13 33 -13 60v18q0 98 98 151
q29 11 58 11zM2261 1337h2l47 -11h3q11 0 26 11l18 -36q-18 -19 -35 -19h-3l-54 10l-20 -7l-20 36q18 16 36 16zM716 1334h19q118 0 129 -26q25 -26 25 -62q-10 -57 -30 -57v-6q47 -23 47 -66v-18q0 -63 -69 -88l-54 -5h-67v328zM2550 1334h53v-217q6 -61 45 -61q29 0 44 39
l3 30v203l4 6h45l5 -6v-171q0 -118 -40 -133q-24 -26 -64 -26q-55 0 -91 76l-4 54v206zM2805 1334h59q4 0 122 -237h4v237h50l4 -6v-322h-58q-29 48 -125 238h-3v-238h-53v328zM3101 1334h54v-328h-54v328zM3859 1334h8q155 0 174 -40q23 -11 47 -75l4 -36v-11l3 -2
q0 -94 -82 -149q-35 -15 -99 -15h-55v328zM4141 1334h153v-60h-103v-75h101v-57h-101v-74l4 -5h99v-57h-157v322zM3563 1175v-10q0 -76 79 -108l19 -1q68 0 96 86l3 20v15q0 61 -60 94q-12 8 -39 11q-66 0 -96 -83zM770 1274v-67h9q54 0 54 28l3 14q-11 25 -29 25h-37z
M3912 1274v-206l2 -3v-2q104 0 122 76l2 15v29q0 34 -32 68q-25 23 -78 23h-16zM1041 1259h5q38 0 71 -40v32h49v-245h-49v32q-36 -40 -80 -40q-75 0 -101 97l-5 36q0 89 85 125zM1314 1259h3q74 0 83 -102v-151h-51v128q0 67 -42 67h-10q-34 0 -39 -62v-133h-52v245h47v-21
q28 29 61 29zM1543 1259h5q45 0 71 -40v32h47v-219q0 -95 -104 -126h-16q-74 0 -108 82h59q26 -25 44 -25h14q52 0 64 77q-33 -42 -76 -42q-60 0 -101 81l-7 44v16q0 79 85 117zM1912 1259h2q43 0 61 -37h2q32 37 69 37h4q57 0 79 -55q8 -25 8 -45v-153h-52v138q0 44 -23 55
l-12 2h-15q-32 0 -36 -65v-130h-52v136q0 59 -43 59h-8q-32 0 -36 -57v-138h-54v245h50v-21h2q6 24 54 29zM2282 1259q47 0 75 -42v34h47v-245h-47v32q-36 -40 -78 -40q-74 0 -102 92l-6 41q0 90 85 125zM985 1117q0 -48 61 -61h4q45 0 62 46l3 15v22q-12 62 -57 62h-14
q-41 0 -59 -57v-27zM1487 1128q0 -48 43 -68l18 -4h5q47 0 63 57v23q-11 65 -58 65h-12q-50 0 -59 -73zM2225 1131v-14q15 -61 57 -61h14q58 12 58 64v11q0 45 -37 65l-18 5h-10q-64 -8 -64 -70zM770 1150v-82q0 -5 7 -5q77 0 77 45q0 34 -47 42h-37zM2966 753l24 -28
l-51 -55q-18 12 -27 26zM1524 727l85 -54q0 -15 -21 -42l-87 54q18 41 23 42zM2850 693h38l55 -60h-54l-21 26l-23 -26h-54q54 60 59 60zM3422 693h40l56 -60h-54l-24 26h-1q0 -5 -19 -26h-54zM622 685h52q8 -4 47 -137l34 -110q9 8 34 100l48 147h54v-2l-112 -326h-44z
M1159 685h51v-54h-51v54zM1354 685h46l6 -5v-323h-52v328zM2317 685h45l4 -5v-78h31v-52h-31v-193h-53v193h-26v52h26v78zM2425 685h52v-98h2q23 23 54 23h3q57 0 81 -71l3 -38v-144h-52v115q0 81 -39 81h-10q-42 0 -42 -87v-109h-52v328zM2664 685h52v-54h-52v54zM3028 685
h44l6 -5v-78h29v-52h-29v-193h-54v193h-27v52h27v78zM3234 685h52v-328h-52v328zM3957 685h52v-328h-52v328zM4316 685h51v-54h-51v54zM1555 610h5q83 0 110 -102l3 -23v-11q0 -83 -85 -120l-35 -5q-76 0 -111 97l-4 32q0 97 93 130zM1811 610h4q53 0 78 -60q7 -25 7 -81
v-112h-54v146q-7 50 -37 50h-10q-38 0 -42 -57v-139h-54v245h49v-21q26 29 59 29zM2046 610h4q45 0 63 -39h3v31h49v-206q0 -102 -89 -135l-28 -3h-5q-73 0 -106 81h52l37 -20l15 -3h14q50 0 61 72q-33 -39 -73 -39q-62 0 -98 76q-11 23 -12 60q0 85 86 123zM2866 610h2
q82 0 111 -104l2 -25l-2 -27h-172q15 -45 45 -45l14 -3q29 0 49 22h57v-3q-35 -76 -108 -76q-77 0 -111 97l-1 28v8q0 49 32 89q34 39 82 39zM3429 610h5q41 0 70 -39h2v31h47v-245h-47v31h-2q-35 -39 -77 -39q-71 0 -101 89l-5 36v14q0 86 84 120zM3711 610h7
q88 0 107 -128l-2 -1v-15q0 -65 -66 -106q-21 -11 -46 -11q-34 0 -64 32v-99l-5 -5h-49v325h49v-28q31 36 69 36zM4151 610q44 0 75 -39v31h49v-245h-49v31q-35 -39 -77 -39q-92 0 -108 132q0 84 73 121q15 8 37 8zM922 602h50v-136q3 -60 42 -60h5q44 0 44 87v109h52v-245
h-47v24h-5q0 -23 -56 -32h-3q-55 0 -82 68q-4 35 -4 99v81zM1159 602h51v-245h-51v245zM2664 602h52v-245h-52v245zM4316 602h51v-245h-51v245zM1492 488v-16q13 -66 59 -66h4q59 0 66 76q-13 71 -59 71h-11q-59 -16 -59 -65zM1987 472q15 -66 59 -66h11q48 0 59 75v1
q-13 71 -59 71h-14q-39 0 -56 -57v-24zM2805 506h122v2q-16 45 -59 45h-7q-35 0 -56 -47zM3373 474q13 -68 61 -68h5q52 0 65 63v12q-10 72 -57 72h-16q-56 -14 -56 -63zM3642 478q12 -72 61 -72h3q50 0 65 60v22q0 43 -49 65h-22q-47 0 -58 -72v-3zM4095 472q10 -66 66 -66
q43 0 61 48l2 15v16q0 54 -52 68h-18q-42 0 -59 -60v-21zM3416 321h51v-52h-51v52zM4137 321h51v-52h-51v52zM2733 133h4q35 0 43 -50v-2q0 -16 -24 -41l-10 -17h-28q0 25 28 56l3 2v2q-3 19 -9 19h-10q-8 0 -9 -19h-30q6 50 42 50zM1546 116l52 -60l-26 -19l-52 52zM352 79
h4q75 -48 85 -60l-20 -37q-88 49 -88 58zM3490 79l86 -58l-18 -39q-10 0 -91 55q15 36 23 42zM4578 76l19 -42l-91 -52l-20 39l92 58v-3zM1204 53h51v-19l5 -5h14v-36h-14l-5 -5v-279h-46v31q-34 -40 -81 -40q-72 0 -102 105l-3 26q0 102 101 131h14q33 0 66 -33v59l-6 5
h-43v36h49v24zM1480 45h40l56 -61h-53l-23 27l-23 -27h-53zM2641 45h33q12 0 63 -61h-54l-23 27q-19 -21 -19 -27h-58v4zM49 37h160v-60h-56v-268h-50l-4 5v245l2 3v2l-2 2l2 3l-2 2l2 3l-2 3h-54v54zM699 37h47v-73l2 -2l-2 -3v-3l2 -2l-2 -3v-3l2 -2v-2l-2 -3l2 -3h3
q17 24 51 24h3q53 0 77 -58q7 -17 7 -42v-153h-52v127q0 68 -40 68h-8q-43 0 -43 -86v-109h-52v322zM1297 37h47l5 -6v-49h-52v55zM1987 37h52v-198l70 115h62l-78 -118l90 -125v-2h-70q-10 22 -74 115v-115h-52v328zM2271 37v-99q24 24 53 24q57 0 80 -56q10 -19 10 -77
v-120h-54v133q0 62 -41 62h-11q-31 0 -37 -55v-140h-53v314l-1 3v3l1 2l-1 3l1 3h53zM2458 37h51v-55h-51v55zM3148 37h51v-108q27 33 68 33h3q75 0 105 -94l5 -37q0 -75 -64 -120q-30 -11 -49 -11q-41 0 -72 40v-31h-47v328zM4275 37h52v-99h2q23 24 54 24h3q60 0 82 -74
l2 -41v-138h-52v111q0 82 -32 82l-10 2h-12q-37 0 -37 -80v-115h-52v328zM329 -38h3v-58h-5q-42 0 -42 -57v-138h-53v245h47v-21q18 29 50 29zM564 -38q71 0 86 -87v-166h-51v136q-6 59 -41 59h-6q-45 0 -45 -84v-111h-52v245h50v-21q25 29 59 29zM1504 -38q72 0 105 -94
l5 -39q-2 -24 -7 -24h-169q17 -47 62 -47q24 0 48 21h57q-33 -79 -108 -79q-82 0 -113 105v37q0 81 89 117zM2657 -38h5q77 0 107 -97l3 -26v-21l-3 -13h-170q18 -47 53 -47h12q21 0 42 21h59q-34 -79 -105 -79q-84 0 -115 102l-2 29q0 93 91 128zM2915 -38h4q54 0 78 -60
q7 -25 7 -82v-111h-54v138q0 48 -35 57h-11q-38 0 -43 -57v-138h-54v245h50v-21q25 29 58 29zM3508 -38h6q40 0 70 -40h2v32h47v-245h-47v31h-2q-34 -40 -78 -40q-71 0 -101 90l-4 37v12q0 82 77 117q11 6 30 6zM3781 -38h4q62 0 82 -78l3 -84v-91h-54v138q0 48 -38 57h-9
q-38 0 -42 -52v-143h-54v245h49v-21q26 29 59 29zM4133 -38h1q74 0 104 -93l4 -40q0 -88 -84 -126l-25 -3q-41 0 -68 34v-106h-52v326h47v-29q30 37 73 37zM4714 -38h5q34 0 63 -37q27 37 69 37h6q56 0 79 -66l6 -51v-136h-52v122q0 73 -39 73h-7q-35 0 -41 -50v-140l-5 -5
h-48v140q0 42 -31 55h-17q-40 0 -40 -77v-118h-51v245h47v-21q22 29 56 29zM359 -46h49l5 -6v-234l-5 -5h-49v245zM1297 -46h52v-245h-52v245zM1649 -46h52v-136q4 -60 43 -60h4q44 0 44 81v115h52v-245h-47v24h-5q-12 -33 -59 -33q-52 0 -79 63q-5 12 -5 34v157zM2458 -46
h51v-245h-51v245zM4515 -46h51v-245h-51v245zM1077 -169q0 -53 51 -73h12q54 0 66 66v10q0 53 -54 70h-17q-38 0 -58 -57v-16zM1438 -143h122q-18 47 -53 47h-7q-43 0 -62 -44v-3zM2599 -143h122q-21 47 -54 47h-7q-46 0 -61 -47zM3196 -158v-11q10 -73 61 -73h5q64 8 64 71
v5q0 45 -38 65l-18 5h-14q-60 -14 -60 -62zM3452 -173q14 -69 62 -69h11q41 0 59 60v13q-8 73 -56 73h-17q-47 0 -59 -73v-4zM4062 -158v-22q0 -47 59 -62h9q50 0 61 76q-13 70 -58 70h-15q-56 -17 -56 -62z" />
    <glyph glyph-name=".null" horiz-adv-x="0" 
 />
    <glyph glyph-name="nonmarkingreturn" horiz-adv-x="571" 
 />
    <glyph glyph-name="space" unicode=" " horiz-adv-x="596" 
 />
    <glyph glyph-name="exclam" unicode="!" horiz-adv-x="1006" 
d="M1634 1578q-125 -119 -184 -192q-148 -161 -224 -200q0 -7 -112 -100h4q19 0 92 80q35 18 128 96l24 12q-58 -62 -264 -240q0 -28 -64 -68l-100 -108h8l32 28l12 -4l12 12h8v-4l-84 -88h4q29 31 80 56l16 16v-4l-116 -108q0 -8 -56 -52l-256 -268l-12 -28q24 -16 24 -40
v-16q0 -70 -200 -160l-28 -4q-31 0 -76 68q-19 1 -60 52v8q170 207 332 360q223 219 632 564q71 76 312 256q90 76 116 76zM1062 1038h4l44 40v4q-40 -28 -48 -44zM1078 1022l-8 -12h4l8 12h-4zM1022 890h4v-4q-26 -32 -44 -32zM898 822h4l16 16v4zM830 806h4l24 20v4
q-28 -17 -28 -24zM194 190h8l-4 -28l4 4h12l-4 -4v-4q23 0 40 -56l24 -24l4 4h24v-12q-32 -30 -72 -88h-12v-8q-9 -56 -52 -56l-64 12l-20 -4l-76 20l-12 20l12 16q-36 8 -36 40l16 8l-8 24q19 16 32 48q57 60 108 60q3 8 36 16l24 -4z" />
    <glyph glyph-name="quotedbl" unicode="&#x22;" horiz-adv-x="407" 
d="M961 1802q32 -28 32 -44q96 -77 96 -100q0 -28 -64 -28q-274 -264 -284 -264l-32 -24h-4l-4 20l-24 -8v8l4 4v4h-8q-3 -7 -152 -84l-92 -72h-4v8q48 84 180 232q0 26 316 328q26 20 40 20zM1305 1798l104 -104q24 -31 24 -56q-7 -9 -72 -16l-160 -140q-13 -22 -88 -72
l-20 -16h-4v16q-28 -32 -36 -32l-4 4v4l12 16l-20 -8v4l12 20h-8q0 -12 -72 -68h-12l16 20v4q-59 -64 -88 -64l-100 -64h-8v4q59 85 176 208q18 43 232 248q97 92 116 92z" />
    <glyph glyph-name="numbersign" unicode="#" horiz-adv-x="1341" 
d="M1396 1228h16l52 -60q36 -26 48 -76v-16q0 -8 -40 -28l-116 -136l28 -4h20q137 0 412 -32v-8l-272 -16l-32 4h-16l-12 -8q-70 0 -84 -16h-16q-160 -17 -160 -56l-80 -92l4 -4v-4q-56 -46 -56 -56h8l304 8h4l168 -8v-8l-40 -4h-48q-335 -48 -384 -64l-36 8q-12 0 -28 -16
q-28 -1 -28 -8l4 -12l-100 -44q-99 -142 -116 -152h-4l12 16v4q-49 -64 -80 -88q0 -10 -68 -84q-81 -105 -92 -108q-58 -109 -84 -128h-4v4q44 116 212 364l108 156l16 16l-24 4q-20 0 -92 -24v-4h4l64 4v-8l-240 -44l-32 -16q-49 -69 -108 -120q0 -8 -64 -80
q-37 -57 -108 -140q-8 -29 -32 -48h-4q22 89 204 372v12l-288 -88l-24 -4q-29 0 -64 120q-8 0 -16 28q87 56 140 56l28 -8l76 16l20 -4q223 36 240 48l92 156h-4q-60 0 -276 -52q-25 0 -40 96l-16 28q25 48 72 48q22 0 28 -16q51 4 64 12l64 -8q216 26 216 40q0 9 36 56
l80 120q15 12 32 60l28 16h20q44 -47 72 -48l60 -56q0 -43 -84 -96l-8 -16q224 13 224 36q34 70 172 224q0 8 52 64q0 12 16 20zM608 804v-4l52 8v4h-44zM1164 776l-52 -64l4 -4q-24 -11 -64 -88v-4h28q0 15 44 60l-4 4v8l28 40l-4 12q16 0 24 36h-4zM668 564q244 29 244 44
q52 64 108 156v4h-4q-191 -33 -212 -48zM572 748h16q48 0 48 16q-64 -7 -64 -16zM564 732v-4h4q48 3 48 12zM996 688q-44 -45 -44 -60q28 23 48 60h-4zM1036 684l-20 -36v-4q7 0 24 36v4h-4zM1040 624v-4h8v12zM436 500v-4h20v4h-20zM424 448h4l8 8h-4z" />
    <glyph glyph-name="dollar" unicode="$" horiz-adv-x="1645" 
d="M1683 1345q9 -9 116 -19l20 5l15 -10h55l10 -9q-215 -250 -266 -339h5q292 38 391 38h50v-10l-120 -42l-65 -5v-5h20l60 5l15 -5v-4q-15 -24 -40 -24q0 -17 -65 -33l-105 -70v-10q15 0 15 -9q0 -16 -276 -33q-22 0 -105 -94q-37 -7 -170 -179l-30 -43q415 -58 415 -94
q55 -25 55 -85q0 -122 -130 -122l-120 -28l-30 4l-160 -37v9l25 9v5h-5l-95 -19l-26 5q-2 -11 -245 -47q-132 -176 -170 -250h-5l-5 5h-5q-83 -168 -140 -226l-96 -165l-5 5v-10h-10v5q78 185 156 306q0 16 65 123l100 188q-321 -55 -321 -71l-135 -216q-42 -85 -60 -85
l5 -5v-4q-140 -249 -225 -443q-20 -18 -20 -33h-10l-5 19q136 315 385 763l10 9v5q-538 -113 -771 -113l-30 28v14q0 35 190 94l416 104h5l5 -5h5q231 66 285 66l-5 5v9q25 0 101 137h-30v9h30v5l-50 5h-101l-135 -5q-176 3 -195 61l-10 10l5 4v5l-20 33v28q58 86 170 128
q281 131 576 207q73 0 95 56q204 353 211 353l50 10l100 -28l85 14l5 -5v-5l-220 -306h10q210 34 210 57l245 376q31 24 45 24zM877 469h30l150 -5q23 53 156 236l-25 14q-170 -26 -181 -57zM381 474v-5h316q80 101 80 141q-225 -61 -396 -136zM752 323h205l15 14v14h-5
q-215 -4 -215 -28zM1117 337l-5 -5v-4l5 -5v-5l25 5h11l15 -9l250 -14v-10h-15v-5l40 -4l-5 4v10h10q0 -14 20 -14l10 -10l55 5v5q-193 47 -320 47q0 8 -96 9zM617 191h10v-9h-10v-5h20v-9q-42 0 -100 -113l-21 -24h5q316 45 316 75l120 208h-205q-47 0 -135 -123zM1097 304
l-85 -94l5 -5v-9q-65 -53 -65 -75h5q319 56 541 136v5q-275 42 -401 42zM702 201h15v-10h-15v10zM662 196h25l5 -14l-30 5v9zM647 182h15v-10h-15v10zM471 168h25v-10h-25v10zM406 116q0 -11 -220 -57q-30 -20 -150 -56l-141 -66h10l5 5h6l5 -5h5q505 68 505 80l65 113h-5
q-85 -8 -85 -14z" />
    <glyph glyph-name="percent" unicode="%" horiz-adv-x="1646" 
d="M1937 1315v-5l-215 -199q-381 -301 -778 -572q-156 -112 -297 -198q-108 -92 -129 -92v4l115 117l-174 -146q-33 0 -124 -97l-45 -34h-10l83 83h-5q-197 -180 -219 -180l-28 -19h-9l9 15h-4q-18 -26 -92 -44q91 101 403 373q9 0 137 117q606 506 1007 751q34 24 59 24h9
v-5l-41 -43h5q64 48 142 48q102 66 201 102zM994 1228q51 0 51 -49h4l14 5q55 -14 55 -58v-39q0 -61 -298 -252l-82 -24q-105 23 -105 111q32 116 288 272q60 34 73 34zM743 913h4q176 101 270 203v5q-162 -84 -274 -203v-5zM1232 535q78 -5 78 -20l5 5h32q38 -25 59 -78
q0 -49 -142 -184q-226 -145 -315 -155q-106 34 -106 102v5q0 87 344 315l-5 5l5 5h45zM656 423v-5h4q28 10 28 20h-5zM999 234h4q183 78 293 199q-176 -76 -297 -199zM642 423l-5 -5v-5h14zM514 331v-5h9q13 19 82 63v20h-4q-37 -43 -87 -78zM491 312l-14 -20h5q0 12 18 15
v5h-9z" />
    <glyph glyph-name="ampersand" unicode="&#x26;" horiz-adv-x="1370" 
d="M1658 1624h4q83 0 120 -132l-8 -28l4 -20q-16 -53 -132 -180q-35 -44 -64 -44q-46 -52 -84 -64q-25 -29 -136 -76q-65 -48 -96 -48l-112 -64q-32 0 -112 -224q-32 -58 -32 -104v-16h12q0 20 52 20q29 19 200 60q190 60 356 96h28q18 0 56 -44q13 0 36 -48q16 -6 16 -12
v-12l-8 -24l8 -8v-12q-43 -32 -144 -68q-117 -63 -236 -104q-164 -90 -416 -200q0 -114 40 -192v-8q0 -28 -28 -28q-90 0 -172 96q-19 108 -28 108l-48 -16v4q0 6 44 20l8 12h-4l-380 -148q-97 -26 -148 -56l-4 4h-4q-68 -12 -88 -28l-4 4h-4l-152 -40h-32q-96 0 -148 92
l-4 40q23 71 100 152l84 80q17 32 44 32l200 164q132 61 136 92q53 9 156 96l368 212q59 19 80 60q94 165 284 364q165 160 284 208q76 32 108 32zM1282 1172h4q141 69 312 244l52 68l-4 4h-4q-23 0 -96 -56q0 -21 -24 -32q-101 -84 -128 -96q0 -12 -68 -76zM1522 1416h4
l8 8h-4zM622 660l-4 4h-4l-144 -88q-127 -79 -376 -264q-106 -89 -152 -156q-28 -16 -28 -52l44 -4h8q132 0 596 168q94 40 220 80l8 76q-5 20 -12 20h-32l-24 8q-27 -15 -124 -28l-4 4v4l-196 -52q0 8 24 12v4h-4q-126 -48 -152 -48q9 12 260 116q273 100 284 116
q16 90 48 184l-4 4h-4q-79 -31 -228 -108zM1302 660v-4h8l28 8v4h-8zM1218 640h-28l-76 -20q-28 -20 -128 -40l-16 -120v-8l360 144q0 6 56 36v4h-4l-36 -8l-4 12h-8l-128 -36l-88 -20v8l180 60v4h-4q-53 0 -76 -16zM426 196q19 0 28 -8h4q50 44 100 44v-4q143 57 224 76v28
q-353 -129 -356 -136zM702 252v-4h4l68 32l4 4v4h-4q-72 -31 -72 -36zM350 172l-4 -12h12l8 8l-4 4h-12zM142 32h4v-8h-12z" />
    <glyph glyph-name="quotesingle" unicode="'" horiz-adv-x="407" 
d="M961 1802q32 -28 32 -44q96 -77 96 -100q0 -28 -64 -28q-274 -264 -284 -264l-32 -24h-4l-4 20l-24 -8v8l4 4v4h-8q-3 -7 -152 -84l-92 -72h-4v8q48 84 180 232q0 26 316 328q26 20 40 20z" />
    <glyph glyph-name="parenleft" unicode="(" horiz-adv-x="1036" 
d="M2268 1852v-8q-4 -18 -124 -56q-82 -42 -140 -60l4 -4v-4q-109 -52 -252 -100q0 -15 -60 -20l-52 -24l-4 -4v-8h4l32 16l4 -4v-4l-216 -100l-48 -28l-16 4q-157 -78 -196 -116q-134 -57 -456 -328l-4 -12h4q101 80 152 100q60 55 60 64q37 32 48 32v-4l-4 -4v-4h8v-4
l-72 -56q0 -11 -68 -68h8q98 82 200 152q45 51 156 104q80 60 100 60q-5 -16 -20 -24l4 -4v-8l-100 -56q-132 -136 -192 -152l-96 -100h4l100 68h4q-58 -65 -112 -92l-64 -60q-162 -154 -220 -236q-69 -69 -104 -140q-24 -17 -24 -60q-44 -43 -44 -76v-4l4 4h4v-8
q-113 -171 -164 -448l8 -104l-4 -4h-40q-112 0 -152 88q-76 28 -76 88q5 110 120 380q149 266 336 456q32 15 196 192q259 203 352 256q1 11 172 116q293 167 552 264l256 104q176 48 232 48zM1696 1620v-4h8l72 28v4h-4zM1584 1560h4q40 18 40 24h-4q-40 -18 -40 -24z
M1552 1532v-4h4l32 12v4h-8zM1600 1520q-35 -28 -88 -48v-4h4l16 8v-4q-59 -40 -80 -40q0 9 36 20v4h-4l-96 -48v-4h4l40 16v-8q-21 -20 -48 -20q-8 -16 -28 -28v-4h-12l-8 8l12 4v4h-8v4l-68 -28v4q104 72 320 164h8zM1088 1296v-4h4q55 25 108 68h-4z" />
    <glyph glyph-name="parenright" unicode=")" horiz-adv-x="1728" 
d="M1492 1804q44 0 132 -80q17 0 112 -128l8 -36v-32q0 -151 -200 -508q-100 -173 -420 -512l-124 -112q-355 -308 -564 -424q-396 -252 -612 -300l60 36q0 17 92 52l-4 20q238 138 568 372l-4 12l12 12h-4q-213 -139 -244 -148l192 132h-8l-68 -36v8q31 16 152 116h-8
l-20 -8q193 180 196 196q154 129 328 328q306 382 336 504q96 220 96 324q-32 65 -32 120v32q0 37 28 60zM668 324h4q36 22 40 32h-4zM812 288q-253 -197 -364 -256l4 -4v-4q-25 0 -52 -44l-24 -12v-4h4q63 28 136 88h-12q141 111 172 116v-8l-20 -8v-4h8l28 24l-4 4v4
l128 108h-4zM580 204h4q35 21 48 40q-35 -18 -52 -40z" />
    <glyph glyph-name="asterisk" unicode="*" horiz-adv-x="677" 
d="M768 1641l8 -14l-4 -4v-5q12 0 60 -55l4 -33q0 -70 -128 -281l4 -4l17 -5l133 9q246 -9 412 -27v-9h-4l-142 9l-38 -5l-108 9l-4 -4v4l-34 -9h-5l-17 5q0 -8 -167 -14v-5h21v-9q-81 -13 -81 -41q-82 -19 -82 -51l-12 -124q0 -152 145 -272l86 -32v-5q0 -9 -60 -23
q-128 0 -193 161q0 17 -38 111q0 23 -22 78l-227 -249l-43 -50l-95 -97l-60 -55l-17 -5q-73 25 -111 97l-5 14q0 22 60 59q239 229 434 466v4h-5l-184 -27l-30 4l-94 -27l8 -10l176 23v-9q-50 0 -73 -27h-13v-10l69 10v-10q-52 0 -180 -41l-108 -37l-47 -14l-34 120
q16 14 30 14h4l5 -5l25 9l17 -4l18 9l17 -5q101 37 399 70q39 0 90 73l81 166q97 161 103 161q15 28 39 28zM438 1194v-4h25v4h-25zM335 1148h30v-9h-30v9zM236 1125v-5h26v5h-26zM163 1111v-4h34v4h-34z" />
    <glyph glyph-name="plus" unicode="+" horiz-adv-x="1058" 
d="M759 1136v-4q-17 -32 -17 -76l4 -46q-6 -42 -12 -42l4 -5v-4l-17 -63l4 -17l-4 -21q17 0 17 -12l-9 -42h5q226 21 495 21v-9q-35 0 -50 -12h-34q-104 -25 -243 -46q0 -8 -38 -13l-4 -4v-4l4 -13h-4q-121 -59 -173 -71q-25 -17 -25 -38q-77 -161 -105 -299l4 -58l-16 -13
h-17q-23 0 -72 63q-14 0 -16 29q-39 30 -51 59q0 47 84 223h-4l-336 -109h-38q-38 0 -55 84q-8 0 -8 25q0 28 122 55q114 41 391 92q118 255 214 370zM469 737v-5h17l29 5v4h-12z" />
    <glyph glyph-name="comma" unicode="," horiz-adv-x="346" 
d="M123 282l6 -3l1 -5l21 9l13 3q21 -14 40 -10l4 6q20 -29 33 -26q16 -7 20 -28l2 -9q7 -120 -5 -123q-32 -58 -83 -70q3 -17 -196 -132q1 -6 -97 -49q-36 -31 -94 -63q3 -13 -42 -23l-200 -133l361 318q64 69 60 88q-13 -2 -38 25l-3 13q-12 54 197 212z" />
    <glyph glyph-name="hyphen" unicode="-" horiz-adv-x="1105" 
d="M414 611h240q273 0 407 -9v-8q-23 0 -84 -30q-21 0 -59 -25l-46 -4l-25 4h-4v-4l17 -4v-9q-26 5 -34 17l-38 9l-4 -5l-50 5h-26v-5l63 -4h47v-8h-97l-4 4l-34 -4v-4l21 -5l21 5l63 -5v-8l-33 -4h-110v-5h84q0 -8 13 -8l4 -4v-9l-21 -16h-126l-38 -5l-4 5h-4
q-126 0 -126 -34l4 -13l-4 -4q-244 2 -244 38l-4 55l4 42l-4 17q0 42 235 42zM545 590v-5l151 -4l17 9q46 -13 88 -13l134 8v5l-134 4h-168l-17 -4l-13 4z" />
    <glyph glyph-name="hyphen" unicode="&#x2010;" horiz-adv-x="1105" 
d="M414 611h240q273 0 407 -9v-8q-23 0 -84 -30q-21 0 -59 -25l-46 -4l-25 4h-4v-4l17 -4v-9q-26 5 -34 17l-38 9l-4 -5l-50 5h-26v-5l63 -4h47v-8h-97l-4 4l-34 -4v-4l21 -5l21 5l63 -5v-8l-33 -4h-110v-5h84q0 -8 13 -8l4 -4v-9l-21 -16h-126l-38 -5l-4 5h-4
q-126 0 -126 -34l4 -13l-4 -4q-244 2 -244 38l-4 55l4 42l-4 17q0 42 235 42zM545 590v-5l151 -4l17 9q46 -13 88 -13l134 8v5l-134 4h-168l-17 -4l-13 4z" />
    <glyph glyph-name="period" unicode="." horiz-adv-x="343" 
d="M175 335q12 -13 27 -13v-5l23 5h13q13 0 54 -95l5 -13l-9 -50l4 -31q0 -47 -112 -113q-40 -18 -86 -18h-18q-54 0 -54 72q-27 54 -27 81v9q0 43 72 81l9 27v9l-9 14v4q0 9 14 9l36 -13q45 12 45 40h13z" />
    <glyph glyph-name="slash" unicode="/" horiz-adv-x="767" 
d="M2444 2164l-94 -79q-30 -40 -237 -206q-73 -46 -133 -114q-34 0 -69 -43l-223 -167l-17 4l-30 -30v-5h4l26 18h4l-4 -4v-5l8 -9q-25 -8 -81 -65l-4 4h-5l-111 -96q-22 0 -48 -35q-22 0 -94 -92q-27 0 -77 -48q-8 0 -31 -36q26 22 48 22l236 202q102 90 176 140l39 39v-4
q-32 -39 -95 -88q-27 -38 -262 -232q-19 0 -185 -171q-16 0 -115 -96q-11 -26 -35 -26q0 -9 -39 -44h5q20 0 56 35h4q-180 -180 -180 -188q-8 -30 -39 -57h-9v13l9 13h-9l-56 -66q-63 -87 -94 -100q0 -26 -30 -35q0 -19 -138 -145q-52 -64 -68 -105l4 -22q0 -52 -137 -171
q-62 -38 -86 -66l-39 -4q-53 0 -116 57l-73 53v4q0 38 64 83q240 265 370 372q641 620 958 842l167 118q67 65 288 219q47 52 421 311zM1628 1546q30 13 137 105h-4zM1473 1432l73 57v-8l-25 -49q-22 0 -22 -17l4 -4h5l124 109v4l-64 -43h-5v4q34 28 35 44q-52 -27 -125 -97
zM1405 1340h8q54 37 82 75v4h-5q-51 -28 -85 -79zM1611 1424h4v-5q-31 -39 -43 -39v4zM1147 981h4q-15 -36 -39 -44h-4q0 21 39 44zM906 771v-4q-6 -18 -13 -18h-8z" />
    <glyph glyph-name="zero" unicode="0" horiz-adv-x="1289" 
d="M1474 1429h4q10 0 40 -44q52 0 76 -44q22 -18 76 -96l8 -8l-4 -4q8 -8 12 -68l-4 -4v-4l4 -12l-16 -20l4 -4v-4l-188 -208l4 -4v-8q-29 -33 -72 -56q0 -9 -36 -32l-4 -4v-4l8 -8l-12 -4l-4 4h-4l-68 -48q0 -12 -12 -12l-4 -4v-4h8v-8l-24 -24l-20 4v-8l4 4h8v-4l-4 -4
q0 -8 -24 -8q0 -13 -20 -28q0 -12 -20 -16l-4 12q-72 -38 -164 -128l4 -20q-95 -79 -96 -88q-24 0 -120 -92q-14 0 -76 -56q-15 0 -120 -80q0 -8 -88 -48q-65 -53 -124 -68q-12 -20 -160 -60q0 -8 -64 -16q-120 0 -200 132l-8 52v8q0 186 284 588q110 146 308 352l24 8h12
q29 0 84 -60q24 -2 24 -28q8 0 8 -12l4 -4h4q455 329 660 356l100 20l4 4v4l-12 16v4zM1358 1413v-8q-49 0 -300 -116q-53 -36 -112 -56q213 143 412 180zM610 413h8l196 156q18 0 40 24q99 71 284 232l16 -4l52 40q37 60 68 60q0 20 24 20l-4 4v4l4 4q0 6 36 12
q12 26 44 60q0 8 76 84q0 10 60 64l20 52v8l-20 4q-35 0 -84 -72q-14 -22 -412 -396l-408 -352v-4zM1262 1177l-12 12q-8 -18 -16 -20l-28 4q-105 -52 -140 -52q-39 0 -124 -52h-8l-12 -4v8h-4q-42 -11 -100 -60q-68 -27 -68 -40v-40q-10 -30 -128 -104q-178 -147 -220 -220
q-76 -68 -96 -104q-31 -27 -100 -136q-88 -154 -88 -216v-24q100 13 472 300q367 293 692 604q152 156 152 184h-4q-27 0 -168 -40zM1522 1069h8q24 0 32 24h-4q-23 0 -36 -24zM722 1085h8l-12 -12h-4v4zM906 1065h16l-48 -36h-4v4zM1502 1037l-12 4v-4q0 -21 -48 -64
q-1 -15 -68 -68q-34 -51 -84 -72l-20 -32h12l52 32q0 23 60 68q76 71 76 88q19 0 44 40v16zM1242 777h12l4 16h-4zM1350 777h4v-12l-20 -20h-4q0 22 20 32zM1206 761v-4h16l8 8v4h-16zM1146 597v-4q-24 -28 -44 -28q23 32 44 32zM1086 561l8 -8l-20 -20l-4 4v8z" />
    <glyph glyph-name="one" unicode="1" horiz-adv-x="916" 
d="M1429 1457h4q8 0 32 -48q44 -16 44 -44q24 -28 24 -40h-4q0 -34 -72 -72q-78 -59 -308 -296q-40 -26 -248 -252q-137 -165 -348 -452q-37 -8 -68 -64h-8v-4l8 -32l-4 -4q334 41 428 72q44 8 44 32l4 4v8q-17 -8 -64 -8h-132q-85 0 -136 -12h-8v4q0 17 272 64
q76 16 168 16q14 -30 56 -44l4 -4q12 0 12 -16q12 0 12 -8l-8 -12v-4h4l12 4l8 -20q-58 -52 -92 -52h-8q0 -12 -8 -12h-4l-12 8q-4 -10 -96 -40l-16 8l-32 -8v8q47 20 136 40q0 7 20 8v-4q50 16 88 48l-12 12q-20 0 -44 -32l-24 -4l-4 4q0 -15 -80 -32l-8 8
q-72 -24 -140 -24q-78 -28 -112 -28l-20 4q0 -17 -28 -20l-4 4v4l8 8q-91 -24 -240 -44q-10 -12 -36 -12l-8 -16v-4l292 52h4v-4q0 -8 -24 -8v-4h12l216 40v-8l-76 -20v-4h16q188 36 292 76q0 16 52 20q0 -32 -108 -68l4 -4v-8l-36 -8h-20v8h-4q0 -16 -28 -16
q0 -14 -168 -28l-256 -52v12h-8q-62 -28 -120 -28l-112 -28q0 -20 -24 -32q-15 -49 -32 -56q0 -12 -20 -12l-68 -92q-24 -16 -44 -16q-64 0 -132 84q0 13 24 40h-16q-33 -16 -136 -28l-16 -4h-24l-20 -12l-24 4l-56 -16l-12 4l-16 -4q-24 0 -112 48q-146 12 -160 52
q-37 0 -76 36v8h24q151 0 648 84q30 14 92 20l12 12h76q0 9 56 48q32 54 208 268q212 284 408 504h-4l-16 -16v4l40 48q-9 20 -28 20q0 8 24 16v4h-4l-196 -72q-10 0 -20 -12q-37 -20 -136 -36q-16 -28 -80 -28l-28 4l-28 -4v8l488 256q83 56 316 184l176 116q22 48 56 48z
M453 41h4q292 43 292 56l-240 -32q0 -11 -52 -16l-4 -4v-4zM469 65v-4h16v4h-16zM53 -19v-4h12l8 8v4zM-547 -47h-8v-4l36 -12l52 16h12l24 -4l32 12v4h-8q-65 -12 -140 -12z" />
    <glyph glyph-name="two" unicode="2" horiz-adv-x="1609" 
d="M1340 1538h5v-5l-69 -83h4l5 5v-5q-53 -49 -56 -83q-19 -14 -55 -106l9 -10l-4 -4v-9h4q56 22 97 60v-10q291 139 480 139q133 0 153 -116q14 -45 14 -83q-15 -76 -171 -189q-42 -32 -102 -55q-46 -47 -74 -47h-4l-5 5h-5l-133 -83v9h-5q-105 -55 -369 -226l-28 -14v-5h9
l-282 -180v-4l23 -5l61 14l9 -9l-46 -14v-5h9l37 9l4 -4v-5q-43 -6 -60 -23l-18 5q-45 -30 -120 -46v-5h9q163 55 545 125l148 18v-9l-60 -14v-5h9q166 47 194 47v4h-19l-46 -4l-4 4v5l4 4h-4l-28 -9v5q4 14 28 14l18 -10l60 5v-14h14q19 0 37 28q74 17 74 28l-51 13h-23v10
h32v4h-37l-240 -14l-28 5v5l5 4v5h-28v-5h10v-9l-56 -9v9l37 5v4h-18l-88 -14l-5 5h-4l-23 -5l-14 5v9q341 51 457 51v-5l4 5l139 -14v-4h28v9h4q56 0 56 -19l-5 -4v-5h14l5 5h4q0 -8 37 -28v-46q19 -20 19 -37t-60 -23v-5q23 0 23 -14l27 10q-18 -26 -83 -42l5 5v9
l-374 -32v9h-5l-111 -23v9h-4l-106 -23v4q0 10 13 10v4h-9q-68 -32 -124 -32q-439 -97 -647 -189l-328 -153l-37 -32h-9l-5 5l-4 -5h-9q-34 0 -84 60l-18 18q0 43 23 56q0 24 180 88l134 55l143 88q0 18 19 18l4 -4l19 18l4 -5l213 134v5l4 -5l231 153q499 295 818 512
q97 82 97 97l-74 10q-246 -17 -545 -227q-82 -63 -213 -212l-64 -32q-30 0 -65 78h-14q0 49 245 369q199 216 263 264zM883 628h5l27 14v4h-4q-28 -10 -28 -18zM574 462v-5h9v-9l-199 -116v-4h5q315 176 416 254h-5l-157 -97zM795 559q0 -10 -14 -10v-4h10q0 9 14 9v5h-10z
M574 425v-5h4q153 83 167 97v5zM1252 503v-9l-64 -9v9zM1446 494v-5h19v5h-19zM1442 466l-23 5q-59 -14 -194 -23v5q-39 -18 -106 -28l-33 4l-83 -18v5l-101 -33l-19 9l-28 -9l5 -4v-5h-5l-4 5h-5l-138 -51q-42 0 -130 -65h10q73 42 240 93l4 -5v-5q139 37 407 83l27 -4
l388 55v9l-27 -4l-24 4zM1668 485v-5h42l32 5v4h-42zM1082 476v-5l4 5h9v-10l-60 -9v9zM1770 429q-5 -13 -28 -13q5 13 28 13zM569 411q-61 -45 -102 -55l-4 -5v-5l4 -4h5q16 0 106 64v5h-9z" />
    <glyph glyph-name="three" unicode="3" horiz-adv-x="1483" 
d="M1728 1479q44 0 44 -68v-10l-103 -68q-19 -20 -19 -59l-240 -112q-138 -47 -351 -191l-20 -10v-5h5q221 79 327 79h15q77 0 156 -79q0 -26 20 -43l-5 -25l5 -19h-5l5 -5v-5q0 -60 -152 -200q-36 -45 -107 -64q-20 -39 -39 -39l-10 -20h10q-67 -69 -137 -92v4q25 26 54 35
l-5 5v4l-98 -53q9 -22 30 -39l14 4l-10 -14q30 -23 30 -83l14 -15v-19q0 -36 -68 -83l-5 4l10 69q0 70 -54 107l-5 5v5l-5 -5h-5l-14 5q-92 -62 -191 -112q0 -20 -44 -30l-39 -34h10l78 49h25v-10q-20 0 -20 -9l5 -5q-11 0 -49 -30q-137 -52 -137 -63q-81 -49 -97 -49l-5 5
v5q60 24 88 49q-99 -14 -132 -49h-10q0 -10 15 -10l24 5v-5q0 -11 -49 -15l-5 5v10h10v5h-5q-28 -25 -78 -25q0 -29 -83 -44v10q-99 -34 -161 -34l-59 10v10h5l20 -5l29 5v4h-39l-29 -4l-39 9l-15 -5q-39 17 -39 54l10 25l-15 14l5 5h10v-10h4q30 79 44 79h5l-14 -20h5
q175 173 376 230q173 63 259 63l4 -5l10 10h5l68 5l15 -5l10 10l5 -5l5 5h9l167 -15q120 68 390 357q39 46 39 83q0 11 -68 14l-54 -19l-39 5l-29 -15l-15 5q0 -8 -63 -29l-5 5v4l-78 -34l-88 -39l-235 -132q0 -9 -24 -9q-73 17 -73 73v10q73 38 376 278l102 68v5h-5
l-508 -185q0 -10 -34 -10h-39q-86 0 -122 161q6 39 39 39q41 0 64 -34q44 0 1143 391q45 24 73 24zM1337 590h5q-38 -54 -68 -54h-5q0 9 68 54zM468 351v14h4l5 -4h5l30 9v5h-5l-20 -5l-5 5h-5l-63 -24l-5 5h-5l-24 -10l5 -5v-5l-10 -10l-15 10h-10q0 -19 -34 -19
q-107 -56 -112 -69h5q23 20 39 20v-5q-10 -15 -54 -34v5l5 4v5h-10q-29 -8 -29 -39h-5l5 -5v-5q-83 -88 -83 -107v-20q0 -11 83 -19q121 0 347 107q145 68 400 220l10 15l-20 5q-20 0 -24 -30h-5l-5 5q-144 -83 -161 -83l215 132v5h-63l-20 10q-174 -25 -366 -83zM238 336
q-5 -15 -29 -15q5 15 29 15zM946 317h5q0 -14 -49 -44h-5l-4 4l-5 -4h-15v9zM678 273q0 -13 -39 -20q0 13 39 20zM77 229h5l-88 -98h-10v5q0 16 93 93zM580 229h10l-10 -10h-10zM560 214q-4 -15 -29 -15q5 15 29 15zM624 160v-10h5l19 10l5 -5h5l64 39v5h-5zM507 194h9
l-9 -9h-10z" />
    <glyph glyph-name="four" unicode="4" horiz-adv-x="1118" 
d="M1406 1404q57 0 91 -146q-19 -54 -136 -112q-100 -84 -132 -161l20 15h5v-5l-80 -81q-11 -51 -41 -51l-45 -55l10 -10q45 10 121 10h162q81 0 81 -15l5 5h5q19 -18 50 -26l31 -75q0 -14 -152 -26l-35 5l-430 -86q-20 -8 -101 -146q-132 -203 -238 -440q-30 -101 -45 -101
q-65 70 -111 157q0 126 283 551h-5l-16 -5l-10 10l-15 -5v10q71 3 71 20v5l-167 -35l-5 5h-5q-126 -36 -172 -36l-5 -5v-10l66 10v-5l-5 -5l5 -5v-10h-20l5 5v5h-10l-41 -10v-5h15v-10l-35 -5v10h15v5h-10q-39 -24 -288 -116q-62 -41 -152 -66h-15q-51 0 -96 61v15
q0 12 20 15l-5 5v15q0 7 76 20l268 117l40 10l-5 5v10q229 118 304 182q203 112 434 268q282 169 425 293q0 15 20 25zM1062 808v-5h5q59 79 137 156l5 21zM1138 929l20 20v5h-5q-11 0 -15 -25zM415 646v-5h10l263 40v-5q0 -12 -50 -15v-5h10q146 0 146 56q24 19 187 222v10
q-16 0 -313 -172l-182 -86q-3 -18 -71 -40zM1093 884l-5 -16h5l5 5v11h-5zM1067 853l-5 -5v-10h5l5 15h-5zM1128 848v-5q-10 -23 -20 -25h-5q7 21 25 30zM1032 722h30q103 0 223 15v10q-20 0 -20 15q-105 5 -152 21q-45 0 -81 -61zM501 722v-5l51 25v5h-5zM572 742v-5h5
l15 5v5h-5zM446 686q-3 -10 -81 -50v-5h5l86 50v5h-10zM734 686v-10l-36 -5v10zM607 656v-5h26v5h-26zM572 651v-5h20v5h-20zM653 616v-5q0 -16 -51 -16v11zM582 601h10v-6q0 -7 -111 -35l-5 -5h-5v5q0 25 45 25z" />
    <glyph glyph-name="five" unicode="5" horiz-adv-x="1609" 
d="M1006 1419l5 -5v-5q0 -24 -56 -86q-86 -139 -86 -173l10 -40v-10h5q613 157 999 233q263 76 330 76l10 -10q0 -15 -91 -46q-191 -116 -249 -116q0 -22 -177 -66q-267 -102 -1025 -335v-5l10 -16l-36 -55l6 5h10v-15l5 -21l-26 -50h11l294 121q349 122 527 122
q139 0 173 -96q20 -51 20 -82q-30 -93 -259 -197l-5 -5l-15 5v-5l-127 -61q-2 -11 -50 -21l-5 -5v-5l10 -10h25l20 5l61 -10v-10l-20 -5l-61 5q-12 -10 -91 -15q-51 -31 -66 -31l-5 5v5l5 5h-10l-11 -10l11 -10q0 -12 -76 -25q-1 -8 -41 -21v-5h5l15 5v-5q0 -8 -40 -30
l-10 10v10h20v5h-26q-117 -66 -131 -66q-27 0 -51 -35l-31 -5v5q0 10 16 10v5h-11q-30 -25 -172 -81q-162 -81 -340 -132q-144 -76 -294 -76q-56 3 -56 51v5q146 175 624 324l5 -5h5l41 21l5 -5h5l10 10l5 -5h5q259 71 426 91q31 27 259 157q188 118 188 132l51 41h-6
q-59 0 -81 -10l-20 5l-137 -26v5l-178 -55l-5 -6h-5v-5h15v-10q-256 -86 -532 -269q-86 -15 -86 -45h-6q-7 0 -20 40q-15 0 -15 26q-71 58 -71 71q0 34 61 121q0 17 122 208q-151 21 -203 61q-56 57 -56 102q0 19 30 40h31q28 -30 56 -30q314 46 314 86q123 173 310 350z
M1158 800v-5h5q172 51 319 51v5l-35 5q-112 0 -289 -56zM1416 810v-5h82v5h-82zM1006 755v-5l147 40v5h-10zM1071 704v-5h11q284 91 421 91v5h-46q-162 -10 -228 -40zM848 394v-5h31v-10h-5q-48 0 -305 -66v-15h-5l-5 5h-5q0 -15 -203 -76v-5h25v-10q-194 -71 -355 -188v-5
h5q300 81 660 254l213 116v5h-51zM787 384v-5h21v5h-21zM691 364v-5h20v5h-20z" />
    <glyph glyph-name="six" unicode="6" horiz-adv-x="1304" 
d="M1520 1404q66 -100 82 -107q54 -60 54 -103v-9l-15 -15h-19l-63 20q-382 -122 -614 -258l-180 -117q-106 -67 -165 -127q-77 -26 -229 -189q-101 -92 -117 -122l10 -10l-14 -9h-5l-5 4h-5v-4l5 -25q-69 -102 -83 -102v-5l10 -10l229 107q235 118 438 171q0 11 155 29
l15 10q68 0 87 -39q12 0 69 -88v-5q0 -31 -69 -73q-16 -59 -292 -170l-19 5h-5l10 -15q-18 -14 -34 -14v5q-28 -20 -54 -25q-1 -13 -73 -29l-9 -10h-5l-5 5q-83 -43 -244 -83v5l-116 -29l-10 10l-20 -5q-103 28 -160 73h-15q-26 0 -82 -29l-15 5q-50 0 -156 -73
q-27 0 -53 -25h-10q64 59 273 190l-5 34v39q0 171 253 438q248 256 306 277q285 239 784 438q127 59 185 59zM517 372v-5h10l53 25v4h-4zM464 250l-5 5h-5q-62 -29 -141 -39q-142 -60 -161 -82q59 -4 59 -15q207 34 394 112q223 105 233 117l-63 -10l-5 5v5l5 5
q-65 -10 -156 -44l-97 -34q-33 -25 -58 -25zM999 275v-5h15l9 15zM955 250v-4h5q29 11 29 19h-5z" />
    <glyph glyph-name="seven" unicode="7" horiz-adv-x="1274" 
d="M1709 1412q97 -7 97 -24l24 -82v-10q-1 -23 -300 -141q-168 -91 -397 -247h-10v5l10 15v5q-73 -23 -73 -44q-75 -47 -310 -242l-14 5l-5 -5v-5h5q380 29 562 29q173 0 406 -29v-10l-285 5q-465 0 -746 -77q-47 -24 -170 -170q-11 0 -29 -39l-77 -97q-62 -78 -112 -188
l29 29v-10q-58 -81 -58 -116q16 0 276 145h5q-135 -105 -179 -174l5 -5q-51 -49 -68 -49h-34q0 -19 -15 -19h-9q0 19 -44 19q-102 0 -102 68v5q76 147 146 257l179 227l-5 5l-446 -111q-12 0 -77 106v5q0 16 116 29q295 92 577 141l169 145l354 281q0 19 194 145h4v5h-9
q-625 -86 -625 -102q0 -26 -107 -184q-19 -35 -19 -53l39 -63q-44 -73 -107 -73q-36 0 -97 54q-29 11 -29 48q-24 8 -24 24q0 22 179 310l29 83l-5 19v5q29 34 83 34q48 -26 58 -44q80 0 746 107q256 34 295 53zM629 627h10l77 68l34 10v-10q-13 0 -34 -38q-14 0 -24 -20h5
l136 116h-5l-34 -19h-5v15q77 92 111 92v4h-9v10q29 5 29 15v9l-189 -150q-13 -25 -97 -92l-5 -5v-5zM963 845h-5l-4 5q-29 -13 -73 -58h5q33 38 106 63v5h-4q-25 0 -25 -15zM489 497l9 -25l-5 -4h-4l-5 4h-5q-24 0 -92 -101l-19 -15l-5 5h-5l-20 -29h10v-10
q-17 -32 -73 -82q0 -17 -29 -39l5 -5v-4q-24 -17 -34 -78l-43 -24l5 -5v-5l-10 -29h5q30 0 63 53l126 170q17 0 43 39l-5 4v10q15 0 15 20q16 14 29 14l-5 5v10q24 0 44 38l58 58l-5 5h24l-5 5v5l34 39l-5 -5h-4l-5 5z" />
    <glyph glyph-name="eight" unicode="8" horiz-adv-x="1594" 
d="M1669 1390l47 -4l18 4q25 -32 56 -32q14 -16 28 -80q14 -4 14 -28v-51q0 -132 -433 -303l-37 -14v-4h9v-5l-5 -5v-4q19 -3 19 -14v-9l-9 -14q13 0 28 -28q21 0 28 -47v-5l-5 -4q11 -56 23 -56h5v-33l-19 -23v-14l14 -23q0 -26 -98 -122q-31 -10 -102 -69q-18 0 -117 -66
q0 -9 -74 -37l-56 -33v-4h14v-5q-11 -16 -182 -98q-88 -18 -312 -97q-115 -10 -135 -28h-47v9h10v5l-47 4l-5 -14l-4 5h-37q-97 0 -145 37q-52 0 -121 112v9q23 135 37 135q10 35 107 131q140 122 406 279q9 19 28 19q-62 59 -89 130q0 33 -9 33h-5q-132 -34 -321 -121h-10
v9q132 95 420 247q135 129 312 210q230 107 275 107q65 -6 65 -56q3 -23 14 -23q315 84 433 84zM607 850l23 -5q74 0 480 121q303 101 503 219l5 5v23q0 10 -89 28h-93l-42 14q-122 -7 -135 -32q0 -79 -116 -112q-74 -7 -350 -140q-38 -15 -186 -121zM1315 854v-4h19l14 9
l4 -5l5 5v5l-9 9q-21 -19 -33 -19zM104 207q4 -14 28 -14h37q117 0 298 56q37 0 238 79q270 135 359 196q242 159 242 195q-72 36 -75 47l5 5h-135q-132 -9 -438 -149l-224 -98l-74 -42q-44 -10 -187 -140q-74 -90 -74 -135zM970 300h5l116 51q65 20 187 112q62 26 135 117
v4q-200 -162 -368 -242zM1082 431v-10q14 0 79 37v5h-9zM938 342l-14 -19h4l19 14l-5 5h-4zM840 300v-5q60 11 70 24h-28q-27 -19 -42 -19zM914 272h5q28 11 28 19h-5q-28 -11 -28 -19z" />
    <glyph glyph-name="nine" unicode="9" horiz-adv-x="1088" 
d="M1163 1404q46 -7 153 -88l182 56l28 4q50 0 144 -107v-14l-153 -79q-31 -24 -168 -89q0 -21 -112 -69q0 -21 -42 -42h-4v9h-5q-44 -18 -93 -70l-42 -33l4 5h10l-89 -60q-20 -17 -28 -42q-18 0 -93 -70h-4v9l23 28v5q-28 -33 -75 -66l-4 5q-11 0 -61 -74l-168 -164
l-32 -27h-5l117 135q14 46 37 46l-5 5v9l28 5v5h-9v9q23 0 23 18q17 0 51 47h-18l-5 -5h-5l5 -4v-10q-17 0 -89 -79q-48 -38 -60 -79q-29 -5 -117 -130q-15 0 -74 -80q0 -12 -23 -18l4 -5v-9l-74 -75q-8 0 -28 -42q-38 -48 -70 -70q-20 -15 -56 -79q-100 -94 -130 -181
l-47 -75h-5l-9 9q0 54 70 154q0 50 326 457l79 79q44 67 140 163l65 93q28 15 154 163q49 29 116 107h-4l-536 -214q-114 -28 -149 -28q-86 0 -182 79l-9 28q0 105 447 322q217 109 452 163q8 8 224 60zM799 1162h-14q-20 -43 -205 -121q-24 0 -116 -42q-19 0 -56 -42
l-33 -9v-10q318 107 802 308v4h-10q-108 -27 -251 -51q-11 -29 -117 -37zM1144 952h5l9 -9q-21 -19 -33 -19v10zM1102 910l5 -4v-10q-22 0 -33 -9h-9q20 23 37 23zM948 841h5q13 23 37 23l-4 14q-35 -23 -38 -37zM1069 873v-9l-23 -14h-4v4q4 19 27 19zM1014 841l4 -5v-5
l-4 -4h-5l-5 4v5l5 5h5zM860 766h9q61 34 61 56h-5q-30 -13 -65 -56zM771 733l5 -18l23 9v5l-9 14l42 28l5 14h-5q-13 -1 -56 -52h-5zM818 719v-4h5l32 37v5q-37 -20 -37 -38zM701 696l-23 -28h5l23 28h-5zM832 701h9q-38 -54 -107 -107h-5v4zM594 608v-5l14 9h10v-4
q-1 -13 -52 -38v-14q48 26 75 70v5q-47 -9 -47 -23zM487 491v-5h9q24 10 24 33h-5zM441 477h4l-18 -19v5zM473 379h19v-4l-10 -10l-14 5l-9 -9h-4z" />
    <glyph glyph-name="colon" unicode=":" horiz-adv-x="603" 
d="M401 655h25l58 -29l71 4l-8 -25l25 -25v-46l12 -12q0 -93 -121 -109l-12 4q-56 -8 -67 -21q-59 59 -59 113q0 29 -8 29q0 66 84 117zM134 313q0 -42 87 -58q23 -76 50 -76l13 -16l-4 -34l4 -29q0 -38 -84 -58q-13 -17 -41 -17h-21q-29 0 -75 38q-63 23 -63 87
q27 130 71 130q43 33 63 33z" />
    <glyph glyph-name="semicolon" unicode=";" horiz-adv-x="503" 
d="M459 668l63 -13v-12h-8q14 -71 50 -71h12v-4l-58 -109q-57 -38 -109 -38q-22 0 -104 67v9l4 33l-4 33v5q15 79 71 79q0 21 83 21zM197 288h41q50 -14 50 -83q-34 -110 -108 -151q-58 -36 -146 -66q-10 -13 -92 -34q-32 -25 -54 -25l-13 4q0 -16 -37 -16
q-118 -71 -188 -88v8q119 86 413 263l4 4v5l-62 54q0 50 146 117q16 8 46 8z" />
    <glyph glyph-name="less" unicode="&#x3c;" horiz-adv-x="830" 
d="M-2596 -457q-16 -6 -25 -6q-10 1 -55 10q28 -3 52 -2q19 1 28 -2zM-2677 -454q-2 0 -9 -1l-55 2q19 9 43 8q22 -2 21 -9zM-4654 -459q-70 3 -164 0l-175 -4q124 7 300 4q13 -3 27 -2q22 2 12 2zM-5209 -457q48 -11 1 -10l-197 4q20 7 75 7t88 -9l20 -1q5 1 13 9z
M-168 -365q7 -6 29 -6l26 -1q18 -1 37 -5q-165 -3 -209 -7l-39 7q-6 0 -22 -4q-1 -1 -6 -2q-6 -1 -8 -2l-18 -4q-47 -10 -84 -3q-53 -14 -104 -6q-10 -3 -36 -6l-43 -6l-79 -5q-49 -4 -90 -1q-15 5 -50 1q-35 -3 -55 -14h-229l-942 -13q-42 -1 -83 -3q-46 4 -92 2l-64 -2
q-27 4 -79 5q-43 1 -97 -1q-95 -2 -242 2l-242 4l-45 -16l-134 10q-19 2 -36 2q-39 6 -39 0q-26 0 -59 10q-4 -6 -45 -6h-39l-60 -12h-372q-20 3 -39 6q-28 3 -54 6q-72 6 -122 2l-13 4l-7 -12q0 -4 -13 0q-88 -8 -183 2q-45 -4 -90 -5l-246 -5q-95 -1 -167 10
q-52 -5 -137 -6l-156 -2q-25 4 -55 2l-83 -6q-4 -4 -22 -2q-26 2 -17 2h-53q-33 2 -84 10q-14 -3 -35 -6l-35 -5q-39 -6 -54 -18q-26 9 -56 11q-20 2 -61 2q-30 -1 -42 2l-18 2l-4 -8q-1 -4 11 -4q-11 -2 -71 -3q-55 0 -66 -4q7 -1 36 3q34 4 75 -3q-17 -4 -47 -5l-57 -1
q-39 -1 -63 -2q-35 -2 -62 -8q91 -15 205 -14l92 2q54 1 89 0q-12 -7 -59 -10l-37 -1l-35 -4q-59 -13 -176 15q-14 -4 -51 -4l-33 -1q-21 0 -41 -1q-14 -5 -48 -6q-35 -1 -49 4q19 -5 23 -9l2 -10q0 -6 5 -10q9 -6 35 -12q10 5 42 8l27 3q17 2 28 5q-15 -14 -88 -17h-61
l-52 1q26 -5 47 -11l18 -4q21 -2 40 -1l61 9h9q71 -22 203 -8l-429 -15q-267 -9 -439 -20q-13 -5 -13 -7l13 -23q-58 8 -151 -21q-31 4 -65 12q-10 3 -27 7q-21 5 -28 7q-33 8 -61 12q-37 5 -80 5q-33 4 -58 3l-26 -2l-203 1q-25 9 -30 16q-5 6 -15 9q-15 0 -44 5
q-24 4 -36 1q-20 6 -79 5l-47 -1q-26 0 -42 2l1 18l12 13q-60 7 -81 24q-4 3 -9 8l-7 8q-10 9 -22 15l16 21q5 12 -29 20q17 3 51 3q31 0 42 3q-26 12 -47 9q-9 -1 -26 -9q13 9 19 20l22 37q11 10 32 19q-120 25 -73 47q79 12 73 0q214 -18 280 -6q38 -10 72 -13q27 -2 56 0
l45 5q25 2 43 2q118 -20 208 6q178 -8 409 -9q172 -1 414 3q33 -2 71 -2l127 4q32 0 57 -3h5q12 -1 41 3q-7 0 32 -6l39 4q146 -8 313 -4q44 4 183 4v2q21 6 22 3q3 -5 -2 -5l99 2q46 0 97 -12q123 5 294 18q104 -14 131 -6l26 10h13q88 -18 78 -18l104 1q74 2 99 7
q41 -7 84 -5l86 3q0 1 22 1l36 -1q4 -2 39 14q65 -8 196 -8q25 -4 45 -4l78 -3q37 -1 74 7l31 -5q19 -3 27 -1q199 8 512 5l546 -3l19 4l57 4q5 1 12 2l10 2l39 -14q3 -2 39 -1l78 1q4 3 52 1l43 -2q25 0 43 1q26 0 42 3t23 3l78 -3q47 -2 79 -1l18 1q17 2 26 3q37 2 73 -4
q31 1 74 3l239 7q118 -13 229 -10q116 6 283 7l292 -1q215 -2 353 -12l11 1l28 5l39 -5q40 -5 53 -1q49 6 122 0q26 -2 56 -7l43 -6l18 3q17 3 22 2h32q52 8 46 8l22 -2q25 -3 36 -6l33 -7l6 7l20 -5q48 0 112 23q0 -5 14 -7t25 1q27 -4 58 -6l49 -5q52 -4 69 -8l-127 7
q-39 0 -70 -3q-39 -4 -70 -14l-7 7q-4 1 -21 -13q-20 7 -28 7l-11 -3l-32 3q-25 1 -59 -3q3 -1 20 -4q8 -1 0 -8l-62 3q-41 1 -62 5l-111 -2l-86 -3zM-3459 -439q38 0 99 17q-21 0 -63 -7q-40 -7 -36 -10zM-2937 -324q-11 -8 24 -11q11 -1 26 -1h17q36 -4 79 -1q13 1 41 4
l48 5q-23 3 -58 2l-64 -5q-39 -3 -61 -2q-31 1 -52 9zM-3048 -339q57 -4 92 3q-91 6 -209 6zM-3347 -334q75 -7 182 4l-113 2q-65 0 -69 -6zM-3132 -365q-26 -9 -71 -6l-26 3q-9 2 -1 3l54 -10q7 -2 11 -11q19 15 41 11q26 -4 31 -2q-9 4 -24 5q-12 0 -15 7zM-3779 -353
q-49 -1 -68 0q-12 1 -29 4l-9 -2q-12 -2 -25 -2l-39 10q11 4 39 -2q30 -5 40 -2q-41 8 -75 8l-69 -2q-6 -2 -45 -6q-30 -3 -26 -8q-7 12 -39 19l-28 -13q-10 1 -6 3q6 2 6 3q-37 -6 -80 -8q-35 -2 -78 -1l-208 9q-65 2 -96 -16l70 10q47 4 47 -4q-134 -13 -216 4
q-57 -11 -105 -11q-39 -1 -57 5q-27 -8 -100 -6q-70 3 -70 8q18 6 44 5t34 1q-19 5 -64 3l-40 -1q-26 0 -52 4q7 0 -6 3q-6 1 -15 -5q-4 -6 47 -9l52 -3l-169 -2q-31 0 -55 -1q-122 -3 -208 -15q-52 0 -124 2l-267 10q-73 2 -125 2t-71 -2q-25 -3 -55 -10l-24 -6
q-21 3 -37 2q-18 0 -9 -4q56 2 67 -5q193 14 352 -2q0 2 26 1l1044 12q0 -6 17 -9q13 -2 3 -8q50 11 106 13l263 -3q119 1 187 -10q52 -8 78 -8q49 10 56 11q14 2 41 -3q13 -2 59 0q35 6 71 4l121 -6q26 -1 49 -1q68 0 106 9l-185 -2q-32 -1 -57 -1q-129 -1 -203 1
q17 1 38 2l119 7l290 -1q178 0 291 11q4 5 -18 3l-34 -3q9 4 48 5q42 3 63 9q-12 4 -73 2l-122 -4q-5 4 -25 4l-39 -1q-52 0 -48 18q90 -6 71 0q-58 -3 -207 -27zM-3772 -341q5 0 21 -3l24 -6q30 -5 26 3q-49 8 -82 8l-24 -2l-24 -2zM-6260 -359q-21 -10 -52 -6
q-35 3 -52 -2q108 -19 162 -6q0 -4 -58 14zM-6612 -367q44 -10 106 -8q16 0 47 2l35 2q-40 4 -104 5q-56 1 -84 -1zM-6776 -365q82 -20 164 0q-28 2 -70 1zM-3093 -453q-49 -1 -109 -3l-96 -2q-112 -2 -200 -5q34 9 109 10h63q35 0 57 2l53 2h52zM-4504 -457q-29 -8 -71 -7
h-16h-17q-18 1 -33 -1q0 2 62 6t75 2zM-4713 -496q-8 -2 -32 -2h-50q-65 -2 -80 -17q-29 4 -56 1q-31 -3 -56 -1q9 4 34 3q22 -2 25 4q18 0 44 4q4 1 11 2l35 6q29 4 56 4q33 1 69 -4zM-4993 -508q0 -8 -46 -3q-14 1 -43 5l-41 6q18 3 54 -1l17 -2q10 -2 18 -2q22 -3 41 -3z
M-5151 -496q-30 -4 -62 -6q-21 -2 -53 -3l-48 -2q-25 -2 -45 -6q37 12 85 14l53 1q40 1 70 2z" />
    <glyph glyph-name="equal" unicode="=" horiz-adv-x="1207" 
d="M846 917q340 0 628 -40v-8l-164 -24l-96 -20l-68 -56q-5 -32 -52 -32q0 -28 -52 -28q-115 -12 -524 -20l-68 -20q-34 0 -36 92l-4 4l20 128q0 24 376 24h40zM546 617q434 0 756 -44v-8q-143 -17 -152 -24l-4 -4h-8l-44 4q-23 -24 -84 -24h-32l-12 -8h-8q-59 0 -88 -24
l-52 -4v-8l4 -4v-4l-12 -4l4 -4v-8l-4 -4v-4l-20 4q-82 0 -116 -12l-4 4l-4 -4v-4l4 -4h56v-8h-104q-295 -20 -488 -52q-52 35 -52 116v12l4 24l-4 20q0 44 84 44q207 36 380 36zM862 505l8 -8h12l-8 8h-12zM766 481v-4h28v4h-28z" />
    <glyph glyph-name="greater" unicode="&#x3e;" horiz-adv-x="830" 
d="M-3254 -457q-19 -6 -30 -6q-12 1 -65 10q32 -3 62 -2q22 1 33 -2zM-3351 -454q-3 0 -11 -1l-65 2q21 9 51 8q27 -2 25 -9zM-5729 -459q-84 3 -197 0l-211 -4q150 7 361 4q16 -3 33 -2q27 2 14 2zM-6396 -457q58 -11 2 -10l-238 4q25 7 91 7q65 0 106 -9l23 -1q7 1 16 9z
M-334 -365q8 -6 34 -6l32 -1q22 -1 45 -5q-198 -3 -252 -7l-46 7q-8 0 -27 -4q-2 -1 -8 -2t-9 -2l-22 -4q-56 -10 -100 -3q-64 -14 -125 -6q-13 -3 -44 -6l-51 -6l-96 -5q-59 -4 -107 -1q-19 5 -61 1q-43 -3 -66 -14h-275l-1133 -13q-51 -1 -100 -3q-56 4 -111 2l-76 -2
q-33 4 -96 5q-51 1 -117 -1q-114 -2 -290 2l-291 4l-55 -16l-161 10q-23 2 -43 2q-47 6 -47 0q-31 0 -70 10q-5 -6 -55 -6h-47l-72 -12h-447q-25 3 -47 6q-34 3 -65 6q-86 6 -147 2l-16 4l-7 -12q0 -4 -16 0q-106 -8 -220 2q-55 -4 -108 -5l-297 -5q-114 -1 -200 10
q-63 -5 -166 -6l-187 -2q-30 4 -66 2l-100 -6q-4 -4 -26 -2q-32 2 -21 2h-64q-39 2 -100 10q-17 -3 -42 -6l-42 -5q-47 -6 -66 -18q-31 9 -67 11q-23 2 -73 2q-36 -1 -50 2l-22 2l-5 -8q-1 -4 13 -4q-13 -2 -85 -3q-67 0 -79 -4q7 -1 43 3q41 4 89 -3q-20 -4 -56 -5l-69 -1
q-46 -1 -75 -2q-42 -2 -75 -8q110 -15 247 -14l111 2q64 1 106 0q-14 -7 -70 -10l-45 -1l-42 -4q-71 -13 -211 15q-17 -4 -61 -4l-41 -1q-25 0 -48 -1q-17 -5 -58 -6q-42 -1 -59 4q23 -5 28 -9l1 -10q0 -6 6 -10q11 -6 43 -12q12 5 50 8l32 3q21 2 35 5q-19 -14 -106 -17
h-74l-62 1q31 -5 56 -11l22 -4q25 -2 48 -1l74 9h11q84 -22 243 -8l-515 -15q-322 -9 -528 -20q-16 -5 -16 -7l16 -23q-71 8 -182 -21q-37 4 -78 12q-12 3 -33 7q-25 5 -34 7q-39 8 -73 12q-44 5 -96 5q-40 4 -70 3l-31 -2l-244 1q-30 9 -36 16q-6 6 -19 9q-17 0 -53 5
q-28 4 -42 1q-25 6 -95 5l-56 -1q-32 0 -52 2l2 18l14 13q-72 7 -97 24q-5 3 -11 8l-8 8q-13 9 -27 15l19 21q6 12 -34 20q20 3 61 3q37 0 50 3q-32 12 -57 9q-10 -1 -31 -9q16 9 24 20l26 37q13 10 38 19q-144 25 -88 47q96 12 88 0q258 -18 337 -6q46 -10 86 -13
q33 -2 67 0l55 5q30 2 52 2q142 -20 250 6q214 -8 492 -9q206 -1 498 3q39 -2 84 -2l154 4q39 0 68 -3h7q14 -1 48 3q-8 0 39 -6l47 4q175 -8 376 -4q54 4 221 4v2q25 6 26 3q3 -5 -3 -5l119 2q56 0 117 -12q149 5 353 18q125 -14 158 -6l31 10h16q106 -18 94 -18l125 1
q89 2 118 7q50 -7 102 -5l103 3q0 1 27 1l43 -1q5 -2 47 14q78 -8 236 -8q30 -4 53 -4l94 -3q45 -1 89 7l38 -5q23 -3 32 -1q239 8 616 5l656 -3l24 4l68 4l14 2l13 2l47 -14q3 -2 47 -1l93 1q5 3 63 1l51 -2q30 0 52 1q31 0 50 3q20 3 28 3l94 -3q56 -2 95 -1l22 1
q20 2 31 3q44 2 88 -4q37 1 89 3l287 7q143 -13 275 -10q139 6 341 7l351 -1q258 -2 424 -12l14 1l33 5l47 -5q48 -5 64 -1q59 6 147 0q31 -2 67 -7l51 -6l22 3q20 3 27 2h39q62 8 54 8l27 -2q30 -3 44 -6l39 -7l8 7l23 -5q58 0 134 23q0 -5 18 -7q17 -2 29 1q33 -4 71 -6
l59 -5q62 -4 83 -8l-153 7q-47 0 -85 -3q-47 -4 -84 -14l-8 7q-5 1 -25 -13q-25 7 -34 7l-13 -3l-39 3q-29 1 -70 -3q3 -1 23 -4q10 -1 0 -8l-75 3q-48 1 -73 5l-134 -2l-104 -3zM-4291 -439q45 0 118 17q-25 0 -75 -7q-48 -7 -43 -10zM-3663 -324q-14 -8 28 -11
q14 -1 31 -1h20q44 -4 96 -1q15 1 50 4l57 5q-28 3 -70 2l-76 -5q-47 -3 -74 -2q-37 1 -62 9zM-3798 -339q69 -4 111 3q-109 6 -251 6zM-4157 -334q91 -7 219 4l-136 2q-78 0 -83 -6zM-3898 -365q-31 -9 -86 -6l-31 3q-11 2 -1 3l65 -10q8 -2 13 -11q23 15 50 11
q31 -4 37 -2q-11 4 -30 5q-14 0 -17 7zM-4676 -353q-59 -1 -83 0q-14 1 -34 4l-11 -2q-14 -2 -30 -2l-46 10q12 4 46 -2q36 -5 49 -2q-50 8 -91 8l-83 -2q-7 -2 -54 -6q-36 -3 -32 -8q-7 12 -46 19l-33 -13q-13 1 -8 3q8 2 8 3q-46 -6 -97 -8q-42 -2 -94 -1l-250 9
q-78 2 -115 -16l84 10q56 4 56 -4q-161 -13 -259 4q-69 -11 -127 -11q-47 -1 -68 5q-33 -8 -121 -6q-84 3 -84 8q22 6 53 5t41 1q-22 5 -77 3l-48 -1q-32 0 -63 4q9 0 -6 3q-8 1 -19 -5q-5 -6 56 -9l63 -3l-203 -2q-38 0 -66 -1q-147 -3 -250 -15q-62 0 -150 2l-320 10
q-88 2 -150 2q-63 0 -86 -2q-30 -3 -66 -10l-29 -6q-25 3 -44 2q-22 0 -11 -4q67 2 80 -5q232 14 423 -2q0 2 31 1l1256 12q0 -6 21 -9q15 -2 3 -8q61 11 128 13l316 -3q143 1 225 -10q62 -8 93 -8q60 10 68 11q17 2 50 -3q15 -2 70 0q42 6 86 4l145 -6q31 -1 59 -1
q82 0 127 9l-222 -2q-39 -1 -69 -1q-154 -1 -243 1q20 1 45 2l144 7l348 -1q214 0 350 11q5 5 -22 3l-40 -3q11 4 57 5q50 3 75 9q-14 4 -87 2l-147 -4q-6 4 -30 4l-47 -1q-62 0 -57 18q107 -6 86 0q-71 -3 -250 -27zM-4668 -341q6 0 25 -3l30 -6q36 -5 31 3q-59 8 -99 8
l-29 -2l-28 -2zM-7660 -359q-25 -10 -62 -6q-43 3 -63 -2q130 -19 195 -6q0 -4 -70 14zM-8083 -367q53 -10 128 -8q18 0 56 2l42 2q-48 4 -125 5q-67 1 -101 -1zM-8280 -365q98 -20 197 0q-33 2 -85 1zM-3851 -453q-59 -1 -131 -3l-116 -2q-134 -2 -240 -5q40 9 131 10h75
q42 0 69 2l64 2h62zM-5548 -457q-36 -8 -86 -7h-18h-21q-22 1 -40 -1q0 2 75 6t90 2zM-5799 -496q-10 -2 -39 -2h-60q-78 -2 -96 -17q-35 4 -68 1q-37 -3 -67 -1q11 4 41 3q26 -2 29 4q22 0 54 4q4 1 14 2l42 6q34 4 67 4q39 1 83 -4zM-6137 -508q0 -8 -54 -3q-18 1 -52 5
l-50 6q22 3 66 -1l20 -2q13 -2 22 -2q26 -3 48 -3zM-6326 -496q-36 -4 -75 -6q-25 -2 -64 -3l-58 -2q-29 -2 -53 -6q44 12 102 14l64 1q48 1 84 2z" />
    <glyph glyph-name="question" unicode="?" horiz-adv-x="1199" 
d="M1772 1388h88q95 0 132 -36q36 -143 36 -184q-10 -56 -48 -56l-276 -52q-5 -8 -316 -64q-231 -50 -260 -116q0 -31 -132 -40q-273 -163 -564 -404q-100 -82 -152 -140l-24 -20h-4v4q10 73 308 384q7 0 200 192q85 63 152 140q37 16 116 76l16 4l20 -4q262 72 340 72
l408 76v4l-52 8l-92 -8l-8 8l-32 -8l-40 8q-102 -8 -176 -24l-16 4l-32 -8v8l-160 -28v8h-12v-8l-4 4h-20v-8l-4 4h-4l-44 -4v8q-46 0 -52 -20l28 4h12v-8l-76 -12v8h-16l4 -4v-8h-8v8h-12v-8l-60 -4v8l-40 -8v4l-132 -28v12q-28 0 -44 -8l-4 4h-4l-44 -12l-12 4l-48 -4
l-24 4l-88 -8l-76 8l-16 -4h-8l-32 8h-44v8q106 32 424 56l264 56q62 24 308 64q165 44 456 80zM1400 1296v-4h16v4h-16zM1240 1264v-4h16l140 28v4h-12zM1220 1212v-4h12l100 20v4h-8zM932 1184v-4h16q0 12 40 12v4h-24zM1148 1196v-4h16v4h-16zM848 1172v-4h8l40 4l-4 4v4
zM900 1180v-4h12v-8l-88 -20v-4h28q27 16 124 28v4h-20l-32 -4v8h-24zM940 1156v-4h16v4h-16zM804 1144v-4h16v4h-16zM616 272v-4q-55 -35 -216 -104q0 -7 -44 -16v-4h8v-8l-32 -4v-4h12v-4q0 -13 -76 -24q-14 -24 -40 -24q0 -14 16 -32l-12 -4l4 -4v-8l-20 -28h-16
q-151 0 -176 68q-21 26 -24 52v4q26 21 28 36q9 24 32 24q135 36 556 88z" />
    <glyph glyph-name="at" unicode="@" horiz-adv-x="1401" 
d="M1301 1158h46q204 0 338 -160q68 -98 68 -210v-41q0 -85 -73 -219q-54 -98 -233 -261q-105 -79 -233 -141q-39 -41 -91 -41l-27 4l-128 -96q-49 -14 -105 -82q-27 0 -78 -41h-5l-18 5q-48 -23 -68 -23h-9v-9h22v-5q0 -20 -219 -32h-9q-172 31 -256 105q-82 80 -82 260
q0 336 393 667q421 320 767 320zM273 299v5q21 59 78 151q0 17 46 64q0 35 82 100q16 28 41 37q0 19 37 54v5q-14 0 -14 9l23 9v9h-9q-16 0 -41 -41l4 -13l-36 -23v4l9 14v5q-69 -58 -69 -92l-27 -23l-5 5h-4q-70 -90 -101 -151q-6 0 -18 -64q-50 -50 -50 -132v-28
q0 -200 223 -260l64 -5q231 0 535 165q-82 99 -82 160q0 44 105 169l9 13v5l-315 -192q-89 -50 -179 -73q0 -14 -18 -14q-33 0 -87 128v32q33 63 165 169q273 219 443 288q166 87 251 87q105 -44 105 -151l5 -27q0 -66 -73 -92q-178 -160 -178 -187q-62 -84 -87 -137h27
q107 15 251 132q274 272 274 439v18q0 108 -123 151l-91 14h-55l-27 4q-158 0 -412 -114q-147 -46 -497 -361q-75 -97 -179 -265zM959 971v-5h13l41 14v4h-9zM844 916h5q50 16 50 27h-9q-23 0 -46 -27zM698 825h5l18 4l5 -14l22 42q77 31 78 45v5q-76 -28 -128 -82z
M1676 898v-92l-14 -27v-5h5q22 46 22 96l-9 28h-4zM767 857l-5 -5v-5l14 5v5h-9zM593 765h9q55 25 69 46q-67 -29 -78 -46zM1657 770q0 -35 -32 -87h5l37 64l-5 23h-5zM822 482v-5h4q214 98 352 211h-5q-155 -60 -351 -206z" />
    <glyph glyph-name="A" unicode="A" horiz-adv-x="1019" 
d="M1736 1561q69 -80 69 -117q0 -29 -94 -93q-163 -125 -254 -247q-49 -49 -150 -194q-45 -53 -61 -97q-130 -179 -186 -328l-28 -69q260 -19 311 -53v-8q-109 13 -190 13q-117 0 -141 -33q-70 -146 -77 -283v-32l12 -49v-8l-20 -16h-17q-45 0 -161 97q-21 0 -21 28
q29 131 85 287q-85 0 -259 -40q0 -16 -24 -16q-129 -52 -166 -101q-176 -146 -190 -146h-4v8l49 36l-4 5v4q32 6 32 16v12h-16l12 16v4q-40 -11 -77 -48q0 -14 -49 -33q-57 -53 -157 -121q0 -11 -85 -65q-3 -10 -41 -28q0 -13 -121 -81q0 -18 -65 -41q-34 -40 -162 -85
q-74 -50 -218 -89q-77 -13 -77 -24v-4h-32l-37 -12q-106 0 -162 61v-4l4 -4v-4h-4l-12 12l4 12h-4q-14 7 -20 24q92 175 409 344l174 81q15 0 64 36l12 4l4 -4h5q152 50 190 73q0 23 77 37v-9q111 37 137 37q38 20 194 48q97 26 97 45h13v-8h4q36 20 538 473q1 13 526 518
q97 75 279 255zM838 574l-29 4q-40 -15 -40 -45q-10 0 -29 -24q-46 -17 -145 -121l8 -8h8l8 8l28 -4h4q181 0 183 24l133 263h-4q-76 -48 -121 -97h-4zM579 566h4l-25 -25h-4zM514 501v-4l-24 -20h-4v8zM579 444h4l28 29h-4zM498 392v-4q60 24 60 52l17 8v9h-4zM587 420
l-8 -12h4l16 8v4h-12zM724 363h4q53 0 89 13v4h-32q-61 0 -61 -17zM150 242l-24 4q0 -8 -57 -20q0 -7 -113 -45q-38 0 -417 -157q-108 -53 -202 -122h4l52 20q22 26 73 41q30 40 97 40v4h-8v9q132 72 170 72h4v-4q-123 -50 -138 -64h5l210 89l409 133l8 16v8zM263 189
q12 0 12 -8q-12 0 -12 -8h4q65 48 77 69h-4q-56 -23 -77 -53zM-198 84h-8v8h-4q-31 -40 -65 -40l-12 4l-223 -109q-17 0 -72 -45q-67 -24 -85 -48q-35 -23 -65 -57l-69 -53l-20 5l-12 -13v-4l4 4h12v-8q-93 -82 -93 -113v-8l48 -4q195 0 672 303q277 207 307 239q20 9 65 61
v4q-74 0 -206 -61zM-166 177v-4h4l12 4v4h-4zM142 40h4v-8l-20 -16l-9 8zM93 28h4v-4l-24 -21h-4q3 14 24 25zM93 -1h8v-8h-16zM45 -9h4l-8 -8h-4zM77 -9h8v-4l-28 -24h-8v4zM-48 -78v-4q0 -16 -73 -56q0 -16 -89 -57q96 81 129 97q0 20 33 20zM-457 -332v-4q0 -10 -57 -29
v8zM-550 -373h12q-8 -16 -24 -16v4zM-578 -393v-8l-45 -12v8z" />
    <glyph glyph-name="B" unicode="B" horiz-adv-x="1775" 
d="M1760 1606q10 -1 66 -62q15 -13 35 -13q180 54 288 54h105q110 0 145 -58l23 -58v-33q0 -80 -312 -211l-378 -153v-5q336 0 534 -145q55 -45 55 -153q0 -105 -98 -145l-31 -25q-156 -74 -253 -103q-19 0 -47 -17q-175 -58 -374 -99q-39 -19 -148 -42q-69 -41 -276 -99
q0 -7 -148 -42q-42 -23 -203 -62q-24 -16 -246 -83q-38 -19 -171 -53v-5h8v-8q-18 0 -70 -33h-4q-55 8 -55 33q-20 15 -89 108q-157 -117 -320 -253l-23 -4q-1 13 -86 79l-31 37v4q70 121 409 472q424 386 721 576q396 256 833 439q37 0 129 125zM1495 1142h4l650 261
l168 79v4h-4q-264 -41 -351 -87q-270 -119 -467 -257zM536 728h4l176 128h4v-4q-12 -24 -180 -145q-215 -167 -257 -211q-70 -74 -74 -112q-132 -125 -132 -153h4q949 769 1422 1081l3 4v4h-3q-379 -160 -725 -402q-181 -130 -242 -190zM1187 1146q-8 -15 -74 -37
q51 37 74 37zM1105 1105q-30 -33 -62 -38q34 35 62 38zM174 139h8l136 79q120 71 164 79l140 83v-4q78 46 211 103v4l-4 4q31 25 397 150l4 -5v-4q-24 -15 -175 -66l-43 -17q0 -11 -78 -41q-18 -17 -109 -58l-4 -4v-4h4l23 12v-4q-4 -8 -222 -120q-21 -33 -78 -58l8 -13v-4
q-29 -33 -43 -33q0 -8 12 -8l27 4v-8q-23 -3 -23 -13v-4l15 -4l285 79l202 74v4l-4 5q90 16 246 74l66 25q81 15 121 37l-8 13l-86 -21v8l74 21v4h-4l-105 -29v8q284 92 694 241q155 72 175 95q-196 116 -557 116q-191 -6 -191 -17q-22 0 -35 34q-9 0 -35 41q-18 0 -35 46
q-47 0 -522 -382q-298 -225 -550 -443q-30 -13 -101 -79zM1717 500v-4h15l20 4v4h-12zM1592 483v-4h4l12 4v-4q-7 -9 -191 -50q0 -6 -35 -12v-4h15v-8q-77 -28 -253 -71q-60 -38 -214 -74q-46 -29 -168 -50l-124 -46h-12l-4 4l-132 -37v-4h7l12 4v-8l-58 -21v-4h4
q248 70 280 70h12l8 -8q-51 -19 -51 -25v-4h12q0 18 140 58q0 17 128 37q128 50 289 96v4h-8l-23 -4v8q94 25 120 25l16 -4l51 16v4l-39 -8v8q101 38 261 71q24 0 97 25v4h-4l-82 -8l-4 4v4q0 21 51 21v4h-16l-38 -4l-16 4zM1670 479v-4h8l121 8v4h-8zM1545 400v-4h4l70 25
h-3zM747 276q-13 -15 -105 -41v8z" />
    <glyph glyph-name="C" unicode="C" horiz-adv-x="1167" 
d="M1869 1696h24q44 0 44 -64q16 -35 16 -52q0 -48 -64 -72q-164 -85 -392 -292q-276 -295 -276 -372q-2 -75 -28 -84h-20q-54 0 -96 112q0 10 -32 36q0 11 -20 36q0 15 32 76h-28q-130 -52 -264 -136q-239 -146 -508 -368h-4v4l184 156l-4 4q-21 -2 -144 -108l-20 -4
q65 70 136 112q18 30 104 76l36 40l8 8v4h-4l-84 -56l-24 -4q-9 -17 -32 -24q0 -10 -88 -60l-4 -4v-4l8 -8l-24 -12l-4 4v4q-6 0 -24 -32l-48 -32h4l4 4v-4q0 -9 -44 -24q-67 -67 -104 -88l-72 -64q0 -11 -96 -104l-44 -64v-4h4q40 38 40 48h8l8 -8v-4h-12l8 -12l-56 -80h4
q15 0 36 16l4 -4h4q225 62 592 200q664 204 912 204q102 16 204 16h68l104 -8v-8q-117 0 -216 -36q-114 0 -884 -240l-44 -12v-4h8l192 48v-8l-416 -136l-44 -12v8q12 0 12 8h-4q-21 -3 -40 -28l-280 -108l4 -16l304 108l4 -4v-4q-20 -27 -176 -68q-144 -64 -168 -64l4 4
l-8 16q-124 -44 -168 -44q-55 0 -76 40l-28 32q-52 14 -52 52v28q0 42 44 92q94 141 352 396q279 240 484 372q620 371 936 520l304 156zM577 836v-4h20q26 0 76 52h-4zM541 824v-4h16q16 6 16 12h-4zM445 772v-4h12q28 5 52 32h20v8q-23 -1 -84 -36zM509 736v-4h4
q19 0 32 32h-8q-11 0 -28 -28zM445 692h4l20 4v12q-24 -8 -24 -16zM261 564h4v-4q-49 -56 -88 -80v4q47 61 84 80zM141 500h4v-4l-8 -8h-4v4zM61 424h4v-4l-40 -40v4q9 20 36 40zM113 424h4v-4l-48 -48v4q0 11 44 48zM13 368l4 -4l-56 -60l-12 -16h-12v4q0 9 76 76zM29 336
v-8q-42 -55 -68 -76v8q38 52 68 76zM561 260h4l44 16v4h-8q-27 0 -40 -20zM457 224h4l64 20v4h-4q-64 -16 -64 -24zM-135 196l16 20v4q-16 -8 -16 -24z" />
    <glyph glyph-name="D" unicode="D" horiz-adv-x="1703" 
d="M1163 1698h4q46 0 64 -80q28 -20 28 -40q0 -35 -56 -112q-54 -116 -208 -344q0 -20 204 -56q527 -112 752 -232q66 -46 92 -168v-8q0 -30 -152 -112q-20 0 -164 -64h-8v-8l236 -52v-8h-4q-153 28 -192 28h-16l-16 -4l-88 16l-212 -56q-29 0 -100 -24l-112 -20l-12 8
q-91 -32 -348 -76q-267 -64 -312 -64l-404 -100l-68 -76l-84 -88l4 -4v-4q-11 -24 -40 -24q-56 -63 -56 -76h-4l-4 4h-4q-82 -86 -284 -348l-4 -4h-4l-4 4v4q32 36 32 52q-28 -15 -28 -32h-8v4q186 278 372 532h-4q-47 0 -476 -96q-140 -24 -204 -24q0 12 -48 24
q-5 11 -36 28v4q0 51 68 72q251 144 800 292q176 34 176 56q138 174 468 624q-9 38 -52 132l-4 32v8q0 94 104 224q149 156 264 200l104 48l16 -4zM851 938q-56 -73 -100 -112q-23 -56 -148 -172q-37 -69 -76 -112q-59 -51 -76 -84v-4q394 60 684 60h176l24 -4
q425 115 556 204v4q-236 76 -324 88q-478 116 -576 116l-4 -4h-4q-46 20 -132 20zM995 494l-60 4q-120 -16 -120 -28h-4v8h-8v-8h-4l-16 4q-72 -20 -100 -20v8h-24v-4h16v-8h-4l-68 -4q0 -24 -72 -24q-168 -33 -168 -68q-87 -80 -100 -112q-16 -2 -16 -12h4
q513 124 1024 264v4l-40 4h-40zM99 314v4q-221 -56 -456 -144q-213 -73 -300 -140q129 0 704 148l108 140h-4z" />
    <glyph glyph-name="E" unicode="E" horiz-adv-x="1390" 
d="M2518 1609l382 -17q7 17 30 17l9 -17l21 4h4q9 -2 18 -22l21 5q13 -3 13 -30l-4 -39l34 -51q0 -82 -103 -82v-4l-4 -4v-5l-22 5l-94 -22l-4 4v5l4 4v4h-9l-120 -17l-8 9h-43q-18 13 -56 13q0 -9 -47 -9l4 -4v-5l-4 -4h-13q-22 0 -22 9l-4 -5h-13l-64 -4l-56 4l-107 -4
l-26 9h-34l-69 -17l-21 4q-126 -22 -180 -22h-9v9h13q126 47 446 120l64 9v4l-43 -4h-81q-399 -29 -399 -39q-39 3 -39 9q0 -20 -184 -39q-186 -17 -313 -60q0 -6 -60 -30q0 -18 -176 -159l-56 -47h4q0 23 627 73l399 13h17q197 0 197 -17l-4 -5h-34l-138 5l-17 -18v-4
l-210 -8h-9l-219 -26q-69 -7 -81 -22l-21 5l-43 -17q0 8 -13 8q-37 -20 -245 -34h-26q-43 -30 -111 -30q-8 -18 -146 -60q-137 -13 -137 -47l-133 -116q-201 -164 -288 -283q-120 -93 -210 -232l-51 -82v-4q47 0 141 56l562 214q701 223 948 223v-8q-413 -90 -484 -116
l-258 -77q0 -25 -141 -69q-44 -33 -163 -73q-13 -21 -26 -21l4 -5v-8l-176 -82q0 -25 -38 -34q-40 -15 -99 -69q-24 0 -112 -55q-98 -65 -176 -65l-30 -4q-107 17 -107 30l-4 -4h-9v8l-4 -4h-4q-26 36 -26 56q42 123 219 364q191 238 266 318h-5l-120 -34l-12 12
q25 39 210 99q26 53 81 77q188 204 232 236h21l99 125h-4l-180 -52l-56 -4h-52q-20 0 -30 13l-4 -4h-4q-99 28 -99 68l-26 13l5 17l-5 26l35 47q156 39 330 39v-9q-197 -27 -197 -60l8 -8l65 8l34 -4h8q0 8 73 13l43 -5l17 5v-9q-65 -11 -94 -26v-4h13q120 39 172 47l17 -4
h4l17 13h26q58 0 206 180l17 13h13q44 0 103 -77v-9h30q69 0 472 64q268 22 570 35zM2433 1562l193 8v4l-30 5l-56 -5l-47 5q-60 -8 -60 -17zM2690 1566h30v4l-22 4zM2282 1557v-4h13l22 4v5h-13zM2205 1557v-4h22v4h-22zM2094 1502v-5h77l17 5l17 -5h13l77 -4q56 13 125 17
l85 -8q35 7 35 17l-13 8l-30 -4q-69 0 -69 9q0 -20 -334 -30zM1943 1493v-4h5l68 4h60v9h-38zM910 1450h12v-9h-12v9zM2235 1450h22v-9h-22v9zM1103 1386l-22 4q0 -9 -26 -9l-21 -8l-4 -4v-5q70 8 107 26v4h-9zM2587 1356h30v-9h-30v9z" />
    <glyph glyph-name="F" unicode="F" horiz-adv-x="768" 
d="M2380 1572q110 0 110 -55l29 -68v-8q0 -38 -72 -101q-63 -42 -416 -178q-184 -84 -207 -84l-185 -89l-12 4q-201 -93 -215 -93h-17q0 -21 -76 -38q-53 -37 -130 -68l-118 -67l-189 -118l-9 -9h-4v9q140 140 299 232q216 146 543 317q0 20 181 106l316 160v4h-13
q-134 -25 -404 -122q-520 -190 -829 -381q-72 -34 -383 -245l-270 -202v-9h42l211 17l151 -4l164 4q369 -17 501 -55q0 -6 51 -13v-8h-21l-68 4l-29 -4q-264 4 -295 13q0 -17 -38 -17l-130 4l-51 -13h-8v9h8v4h-33v-9l-148 -12l-21 4q-30 0 -46 -21l-42 4h-8l-93 -21
q-23 0 -84 -25v4q-26 -23 -72 -26q-219 -52 -219 -71q-9 -2 -206 -203q-11 -28 -25 -34h-17q-9 13 -46 13l-17 12q-13 30 -25 30q0 28 109 135v4h-8q-22 -17 -169 -29q-24 0 -67 135q46 34 63 34l21 -9l232 55q172 23 172 51q196 176 430 355q120 117 492 448q40 59 72 59
q31 0 80 -80l33 -21l265 122q648 258 960 258zM385 342l17 -4v-8l-51 -9h-17v9h22q14 0 29 12z" />
    <glyph glyph-name="G" unicode="G" horiz-adv-x="1560" 
d="M2052 1572q19 0 57 -66q14 0 21 -51q-10 -24 -110 -88l-109 -92q-273 -254 -347 -363q-71 -112 -71 -190v-15l7 -58q0 -26 -39 -26q-59 27 -81 73q-32 72 -67 121v11q0 28 74 150q-30 0 -184 -88q-29 0 -287 -168l-198 -128q-50 -44 -81 -52q-6 -18 -71 -44
q-16 -25 -113 -88l-57 -51q0 -7 22 -11l63 11v-7h11l-4 3v8h7v-8l60 8l11 -4l96 18l3 -3v-4q119 26 149 26v-8h-11v-7l36 4q0 7 -11 7v11l3 4l11 3v4l28 -4l227 33q57 26 389 55l25 -3l35 3h18l42 -7l39 4q24 0 71 -30q14 0 32 -44l14 -18v-7l-7 -8l3 -3v-30q0 -8 -254 -62
l-159 -33v7l56 11v4h-10l-64 -15v-3h7v-7l-166 -37l-11 4q-26 -22 -124 -33q0 -8 -95 -22q-191 -59 -273 -74q-15 -13 -198 -51q0 -18 -248 -44h-56q-15 0 -82 33q-22 0 -81 81v22q0 21 25 55q23 103 258 282q277 221 743 513q417 254 832 480q185 106 194 106zM113 308v-4
q362 321 810 597l15 11q-203 -114 -641 -436zM1005 850h3q36 7 36 22q0 7 14 7v4h-4q-41 -19 -49 -33zM234 319h7l21 14l21 -3q23 0 120 88q11 0 82 62q9 0 208 143q1 14 89 59q32 38 88 58q0 7 103 84l4 4v4h-4l-124 -70q-8 0 -74 -51q-176 -124 -255 -165q0 -11 -28 -22
q-4 -24 -106 -81l-82 -62q0 -15 -60 -48zM612 627q61 32 89 66v3q-56 -29 -78 -62q-11 0 -11 -7zM297 421h4q57 49 159 118l4 14l-149 -117q-14 0 -18 -15zM481 308l-32 11l-85 -8l-3 4v7h14v4h-7q-79 -21 -223 -190v-4h4q95 0 272 33q94 18 230 33q0 7 64 22l10 -4
q66 19 114 22q204 62 424 114q0 7 14 7v7l-173 8q-143 0 -619 -66h-4zM1224 289v-3h7q111 25 145 40l4 -4h3l160 44v4h-14l-22 -4l-17 8q-74 -14 -117 -44zM1153 300l-14 4q-116 -31 -191 -66h-3v-3q21 0 28 -8q180 37 180 51q34 18 202 55l14 19v3q-53 -18 -148 -33
q-25 -14 -68 -22zM234 304l-4 4h-4q-141 -104 -141 -176h3q9 2 18 29q9 0 113 106q41 27 50 48h-4zM870 216v-3h4l25 7v4h-7zM640 150v-3h7q76 25 170 44q0 7 18 7v7l-28 -3l-29 3q-35 -22 -95 -36q0 -6 -43 -19z" />
    <glyph glyph-name="H" unicode="H" horiz-adv-x="1598" 
d="M3155 2000v-5l-109 -81q0 -14 -45 -41q0 -25 -105 -96q0 -13 -9 -13v-9q18 0 18 -9q-122 -84 -168 -132q-3 -36 -40 -36q-35 -27 -37 -41q-94 -56 -127 -96l9 -9l-91 -63q0 -10 -36 -32q0 -15 -36 -32q0 -20 -46 -54h-9v9h-4q-59 -42 -59 -68h-5l-4 4q-10 0 -37 -36
q-93 -66 -558 -508v-5q306 -5 445 -18v-9q-171 0 -481 -41q-64 -19 -64 -41q0 -8 -50 -32q0 -18 -82 -81q-52 -97 -72 -109q-43 -39 -136 -182l-14 -45l5 -5h4q78 0 200 127q32 38 59 55l9 -9v-5q-38 -108 -150 -186h-9q-29 -45 -172 -91h-10q-57 0 -104 114l-18 13l4 23
l-13 45q8 2 50 73q18 0 18 41l191 236l-19 4q-49 0 -281 -50l4 -4v-9l-22 -5v-4h4l46 9l4 -5v-4l-4 -5v-4h4l27 9l5 -5v-4l-177 -50l-168 -50q-82 -25 -168 -95q-67 -68 -118 -141l-64 -77q-49 -68 -49 -100v-14q38 9 99 9h37q63 -7 63 -50q0 -60 -91 -91q-78 -54 -131 -54
h-5q-140 41 -140 68q-123 100 -123 123q0 62 104 195l137 177q-59 0 -59 23l-14 109q250 57 300 90q282 281 363 318q240 186 576 422q24 29 227 155q239 154 300 154h4v-5q0 -9 -40 -18l-137 -81l-90 -100q0 -22 -37 -37q0 -19 -77 -77q-8 -22 -168 -141q0 -8 -41 -40
l5 -14q-30 -3 -91 -100q-41 -15 -104 -86l13 -14v-4l-286 -245v-5h9q536 78 536 95q29 0 195 187l159 140q167 164 195 164v-5q-76 -79 -131 -122l-32 -37v-9q69 49 100 86l36 28h5v-9l-19 -28h5l109 82q196 165 250 191q0 17 40 41l23 22q0 21 50 41q0 15 36 36h9v-4l-4 -5
v-4h9q26 15 36 32h-9l-27 -9v4l95 73h-13l95 72q-14 0 -14 9l150 105q0 18 100 86q158 129 277 141zM2647 1641h4q32 16 32 23h-5q-31 -16 -31 -23zM2492 1564h23l-9 -9h-14v9zM2206 1342h5v-5l-18 -14v5zM1326 1065q-147 -101 -205 -155v-4l214 154v5h-9zM1076 879l-46 -41
q35 16 50 41h-4z" />
    <glyph glyph-name="I" unicode="I" horiz-adv-x="1163" 
d="M2323 1570h277v-9q-142 -29 -330 -44q0 -13 -165 -19v-5h24v-10h-19l-5 5q-150 -25 -150 -58h-39v-5h53l29 5v-10q-106 -34 -534 -92q-52 -2 -359 -340l-252 -248q-112 -141 -136 -145h-5q20 22 20 34h-5q-19 0 -102 -107q-16 0 -102 -87q-11 0 -68 -68l-15 -5l5 -24v-5
h-9v-5h9q280 53 350 53q311 54 364 54v-10q-175 -34 -622 -170q-144 -50 -237 -102q-13 -17 -73 -39q-46 -18 -223 -208q-33 -6 -107 -102q-16 -28 -34 -39h-5q114 153 262 325v5q-198 -19 -306 -49h-14v-4h19q121 15 121 29h25v-10h-10v-5l24 5h39v-10l-39 -9l-5 4h-4
l-112 -24l-175 -58q-159 -69 -412 -97q-59 0 -78 48l-19 15l-5 5v14l14 20q-19 0 -19 14v20q46 66 359 141q103 34 364 92q20 0 20 -34q172 43 364 77l747 932q29 37 68 58l-5 5v10q20 0 82 73h5v5h-5l-87 -10v10q56 0 117 19v5h-10l-112 -10v10q156 8 156 29l9 15h-34
q-208 -13 -208 -30h-5l-20 5q-29 -6 -29 -14h10l218 29v-10l-233 -39l-14 5l-20 -14v-5h5l83 10v-10q-238 -30 -238 -58l-112 -15l5 -5v-5l-19 -5v-4h9l68 9l25 -5l-5 15v5h5q0 -15 34 -15l58 5q0 -19 -218 -44q0 -7 -59 -14v-5h25l101 19l25 -4l199 24v-10h-5
q-199 -24 -282 -48q0 -20 -281 -63l-87 -10l-25 63v10l5 5v4l-14 15l19 5v5l-34 14l19 44v5h-9v9q34 0 77 39l102 20l20 -5q112 43 839 126q61 0 136 34l10 -15q566 68 941 68zM1959 1464v-5h20v5h-20zM824 1352v-5h5l68 5v5l-15 5zM950 1323h58l5 -5l5 5h10v-10l-146 -24
v10q13 24 68 24zM863 1303h9l5 -14h-5l-9 10v4zM766 1299h24v-10h-24v10zM741 1294h15v-10h-15v10zM979 1269h29v-9h-29v9zM940 1265h20v-10h-20v10zM901 1260h20v-10h-20v10zM960 1250q0 -13 -78 -29v10q0 13 78 19zM872 1235v-4l-14 -15l-25 5v10h15zM770 1221h15v-10h-15
v10zM702 1206h5v-9l-34 -5h-5v10zM508 1197l-9 -15h4l54 5v5zM567 1197v-5h19v5h-19z" />
    <glyph glyph-name="J" unicode="J" horiz-adv-x="853" 
d="M2104 1744q210 0 240 -74l4 -20q-19 -36 -100 -60l-120 -35q115 91 140 124l-48 5h-96l-32 10h-63q-50 0 -60 -24l-76 -10h-4v10h12v4h-12l-219 -29v-5l48 -5q81 20 123 20v-10l-127 -25v-5h12l107 20v-10l164 25l71 -5l16 5v-10q-70 -25 -115 -25v10h12v5h-8
q-48 -4 -48 -10q0 -20 -80 -20q-17 -25 -48 -25v5q0 9 36 20v5h-12q-50 -1 -83 -30l-68 -20q-39 0 -200 -59l4 -25q0 -59 -147 -179l-514 -462v-5h8q199 -7 438 -114q144 -91 144 -179v-19q-52 -91 -156 -164q-83 -60 -99 -60q6 15 119 114q68 79 68 129v10q0 59 -164 144
l-4 -5h-4q-39 10 -39 20l4 5l-16 5l-8 -10l-116 35l-32 -5l-84 5h-75q-82 0 -140 -65q-12 0 -111 -89q-36 -24 -36 -40l-16 5q-34 -34 -64 -44q-36 -54 -148 -115l-51 -44l4 -5v-5l-228 -159l-131 -85q-13 0 -100 -54q-65 -30 -119 -30h-12q-63 0 -108 74q-17 0 -24 40
q0 173 391 442q152 96 490 204l263 49l614 601l80 95l-116 -20v5l4 5v5h-4q-71 -45 -151 -45q-140 -30 -224 -30q-99 13 -115 25q0 15 -12 15q-60 66 -80 144q-12 0 -12 10l8 40l-8 9l32 50q29 0 36 -64v-75q31 -15 56 -15h44q0 -20 8 -20l47 10l20 -5l200 25q51 20 91 20
l12 -10q47 9 92 35v-10h4l100 15l12 -5l12 15h8v-10h4l20 5v-10l-80 -25v-5h12l36 10l24 -5l39 10v5l-4 5v5l16 5v5q-20 0 -20 20h4l72 15l16 -5l80 9v-9l-56 -15v-5h12l219 39l16 5v5l-32 10v10l44 5v-5l8 -10v-5h4l48 5l8 -10h12q44 0 100 15v5h-4l-24 -5h-20v10h20v5h-8
v10l87 5l12 -5zM1953 1734h16v-10h-16v10zM1921 1729v-10h-4l-56 -10l-16 5v10h4zM1750 1709v-10q-20 0 -32 -20l-44 -5v10h8l-4 5v5zM1901 1620v-5h16v5h-16zM1191 1526v-5l168 39v-10q-16 0 -16 -10h4l68 35v5h-4q-54 0 -184 -40q-36 -1 -36 -14zM1267 1521v-5h8l28 10v4
h-4zM1163 1521v-5h4l12 5v5h-4zM1124 1456h16v-10h-16v10zM1116 1451v-10l-40 -5v10zM494 716l-16 5q-183 -40 -339 -124q-226 -89 -367 -253l-64 -70l4 -5v-5q-78 -96 -79 -149h20l75 15v-5q292 81 837 601l4 5v5h-8zM362 706v-5h8l56 15v5h-8z" />
    <glyph glyph-name="K" unicode="K" horiz-adv-x="1397" 
d="M1981 1738q2 -10 73 -57q50 -62 50 -80q-14 -18 -96 -65q-149 -100 -276 -173l-387 -261l-15 -4q-32 -42 -77 -61q-19 -7 -19 -24q-61 -34 -61 -40q0 -7 -58 -36l4 -4v-8q-20 0 -27 -29q-68 -27 -92 -60l4 -4q-15 0 -34 -32q-37 -29 -66 -36q-10 -24 -88 -77h-4v-4h12
l19 16h8q0 -22 -58 -32l-23 -24l4 -4v-4q-53 -51 -111 -73l4 -4v-8l-61 -52h-12l-19 4q-22 -31 -96 -105l-4 -12l4 -4q-35 -17 -46 -36h4q27 24 42 24q-16 -25 -69 -48l-46 -56h4q0 10 34 28q0 13 66 56v-4q-96 -119 -142 -125q-97 -95 -100 -120h4q21 34 84 92q27 0 27 28
h15v-4q-2 -11 -57 -60q0 -21 -35 -40q0 -8 -53 -61v-8q19 0 375 218q16 5 23 20v4l-7 32q37 201 69 201h19q7 0 7 -20l58 12l4 -4h4l253 89l195 64q23 0 100 24v4h-12l-92 -16h-4v8q89 15 150 44q29 0 122 57l16 4v4h-8q-61 -15 -61 -28l4 -4h-12q0 12 -15 12l-31 -4l-4 4v8
h4q58 6 253 64q28 0 31 12v4h-23l-73 -20l-19 -12l-19 8l-23 -20l-43 12q-133 -40 -341 -80q0 -9 -84 -21q0 -9 -119 -32v8q547 157 1495 383l42 8v-8q-17 0 -23 -25l-468 -177l4 -4v-8l-126 -28l4 -4v-4l53 8v-8q-51 0 -210 -92q-12 0 -50 -25q-45 0 -62 -28
q-32 -2 -145 -72h-8l-4 4l-46 -20v-4h8l19 4v-8q-240 -97 -498 -234l-65 -84q-27 -41 -27 -89v-16l27 -4h23q213 0 797 169v-8q-218 -93 -322 -129q0 -17 -157 -64l-215 -109q-20 0 -30 -12h-35q-141 0 -199 52l4 12h-4q-41 0 -81 153q-141 -80 -141 -96q-107 -75 -184 -161
q-153 -129 -223 -129l-7 8l-16 -4q0 15 -27 20q-11 16 -11 36v8h15l-7 12v5q41 118 134 261l11 16l-4 4l165 197l81 93q445 459 509 479l20 12l-4 4v4q562 458 935 672zM468 526l3 -4v-4q-23 -11 -115 -121l-15 -8l4 -4v-8q-15 0 -77 -80h-7l3 -4v-4q-27 -23 -49 -65
q-28 -18 -66 -84q-5 0 -53 -81h15q0 15 81 101q0 20 15 20q8 23 111 145q0 11 169 181q10 24 107 109q0 11 31 28q19 34 141 141l89 88h-4q-92 -81 -157 -124q0 -35 -123 -121q-32 -46 -65 -61q-13 -29 -38 -40zM414 418q28 7 172 169h-3l-89 -81q0 -11 -76 -80l-4 -4v-4z
M360 333q39 20 42 32h-3l-35 -16zM276 257l4 -5h4l19 25v4h-4zM123 19q55 50 92 121l15 20v4q-20 -10 -77 -97q-14 -9 -30 -48z" />
    <glyph glyph-name="L" unicode="L" horiz-adv-x="807" 
d="M1268 1648q23 0 87 -80q65 -63 65 -105v-21q-8 -13 -83 -51l-192 -155q-143 -133 -245 -213h-4v10q-35 0 -134 -119q-7 0 -144 -152q0 -19 -36 -32v3l39 51h-3q-24 -31 -62 -58l-18 -29h4q0 9 33 22v-7q-8 0 -33 -25q-17 0 -36 -29l-44 -47l4 -4v-7q-19 0 -50 -54h3
l15 10l3 -3v-4l-29 -29l-3 4h-4v-4l4 -3v-4q0 -22 -33 -22q-65 -73 -65 -94q-42 -32 -123 -159l4 -14q-23 0 -47 -65q129 55 412 210l614 271h4v-4l-62 -40q0 -18 -105 -76q-68 -54 -155 -101q-46 -26 -61 -47q-94 -60 -159 -83q-31 -25 -40 -25v-7h7v-4l25 14h8v-7
q-17 -18 -40 -18l-14 4q0 -21 -116 -80q-270 -162 -296 -162l-26 -4l-3 4v3l-4 -3h-4q-42 7 -86 32l-33 43l7 11v15l-14 61q0 85 314 492q115 154 513 570l365 358q54 62 76 62zM101 148h4q11 0 40 62q42 44 50 83q38 30 54 72q11 2 145 184l123 152l101 119q13 0 25 29h-3
q-169 -180 -221 -253q-73 -77 -137 -170q-100 -116 -119 -173q-24 0 -62 -105z" />
    <glyph glyph-name="M" unicode="M" horiz-adv-x="1511" 
d="M2457 1566l54 -67q0 -23 14 -23l-5 -15l5 -28q-7 -67 -36 -67q-98 -66 -113 -66q-38 0 -118 -81l-5 5v5l5 4l-5 5h-4q-29 -35 -163 -114q-114 -94 -172 -166l-14 4q-406 -441 -520 -646l-113 -162l-5 -19q8 0 18 29h5l5 -5l-23 -71l4 -5h23l95 38v-5q-124 -128 -167 -128
h-14q-41 0 -41 67v14q0 15 32 57q0 37 36 85q0 15 32 77q9 2 90 152q116 199 489 617l131 138l32 57q-139 -89 -190 -109q-27 -38 -45 -38v5l9 14v5q-17 0 -186 -124l-45 -33q-16 0 -63 -43q-17 0 -136 -90q-23 0 -54 -52q-111 -82 -172 -143l-245 -204h-9l-27 33
q-9 0 -81 66v5q0 24 126 162q450 562 607 732l13 19v4q-80 -3 -276 -152l-81 -90l-113 -128l-23 4q-52 -14 -163 -133q-17 0 -81 -71q-134 -140 -548 -504q-22 0 -81 -66q-52 -45 -222 -157q0 -7 -222 -152q-171 -125 -253 -157l-23 5h-36q-59 3 -59 19v5q0 99 416 508
l141 128q457 408 737 566q110 74 344 204q128 136 168 209l4 5h27q36 0 64 -66l4 -5l204 81q111 42 167 42h23q68 -7 68 -71q6 0 9 -43q-24 -107 -82 -147q-75 -69 -262 -295h4l127 62q72 58 530 295l280 133q36 9 145 76h9zM-561 -64q165 53 692 546q236 211 539 509
q93 67 162 142h-4q-118 -62 -199 -123q-394 -276 -516 -376l-113 -99q-35 -13 -231 -209q-74 -62 -240 -262q-90 -112 -90 -128zM1919 1095l-132 -147q-17 0 -54 -57q-110 -134 -145 -161q0 -19 -36 -48q-74 -115 -136 -190q-10 -38 -72 -114l-73 -148v-4h5l50 90h-9
q0 24 27 24q8 21 72 100q0 12 32 42q0 13 72 110l5 -5h4q0 10 163 209q0 26 55 76l176 223h-4zM1285 235v-14l14 14h-14z" />
    <glyph glyph-name="N" unicode="N" horiz-adv-x="1758" 
d="M2943 1961v-8q-19 -61 -80 -134h4l38 46v-9q0 -14 -109 -155h4l97 118v-9l-55 -71v-4h5l4 4h4v-4q-79 -134 -126 -180l-21 -8v4l9 12h-4q-21 -28 -21 -42l12 9h4q0 -8 -121 -126q0 -16 -96 -104q0 -21 -285 -302q-9 0 -17 -29q-10 0 -71 -75l-46 -30l-293 -284h4
q70 55 180 171q82 53 205 176h5q-54 -65 -331 -318l-38 -42v-4l226 197h4q-192 -185 -192 -193h8v-8q-29 0 -58 -42q-30 -21 -42 -42v-4h4l4 4h4v-8q-48 -55 -58 -55h-4v4q25 34 37 34v4h-12q-40 -44 -97 -88q0 -17 -12 -17l8 -25v-8q-103 -110 -238 -218q0 -12 -63 -63
q0 -9 -17 -25q0 -12 -8 -12l-9 8h-8l-21 -17h-17l-8 9q0 21 -8 21q-39 3 -101 33q12 52 54 84q472 747 712 1109v4q-57 -33 -117 -83q-53 -16 -84 -59q-119 -75 -176 -146v-5q0 -6 30 -16l46 8v-8q-423 -290 -695 -511q-119 -102 -536 -406q-43 -17 -147 -80l-79 -29
q-54 0 -134 96v13q18 19 138 88l1792 1281q50 21 192 159q15 0 34 17q29 0 92 -30q18 0 29 -25v-12q-8 -33 -58 -88l-164 -210q-172 -235 -335 -506h5q155 138 565 548h4l4 -4h4l46 50l-4 4v5q117 94 327 339q82 76 238 280h5l4 -4q15 46 25 46zM2620 1454q30 13 42 34v8
q-26 -16 -42 -42zM1829 676h5q10 0 54 54q42 23 92 80q32 12 193 184l46 59l12 8l4 -4q16 0 168 171q14 0 42 34h-13v8l75 80h5v-4l-5 -5v-4h5l96 113v17q-36 -48 -75 -79l-126 -139q-13 0 -176 -171q-47 -35 -251 -251q-111 -83 -151 -151zM2323 1078h4q-64 -79 -129 -130
h-4zM2089 814h8q-29 -35 -54 -50h-4z" />
    <glyph glyph-name="O" unicode="O" horiz-adv-x="1323" 
d="M1828 1576q112 0 152 -92q71 -75 88 -176v-12q0 -53 -36 -112q0 -19 -44 -56q0 -18 -48 -68q-2 -20 -224 -232l-64 -60q-12 0 -176 -132q-182 -134 -280 -188q-41 -22 -92 -64q-51 -17 -128 -68q-36 -14 -196 -108q-174 -94 -388 -168q-26 -24 -148 -40h-60
q-37 0 -160 104q-24 50 -24 100q0 224 328 632q254 283 340 328q122 104 324 200l44 8v-12q0 -37 -112 -92q-146 -113 -344 -324l-4 -16q348 325 496 392q173 115 380 184q187 72 376 72zM1220 1196l4 4v4l-16 4l-84 -40h-4q27 36 260 132q40 26 40 32v8h-4q-44 -15 -60 -32
l-148 -56q-9 0 -24 -16l-32 -20h-28v-8q-27 0 -32 -20l4 -4l-4 -4h-8v8q-12 0 -68 -36v-4h8l20 16h4v-4l-84 -64h-8l28 32h-16l-224 -172q0 -14 -36 -20v4q119 103 148 112q0 9 80 80q12 0 12 20l16 4v4h-12q-47 -47 -176 -136l-4 -28h-20q-13 -2 -64 -60q-10 0 -36 -32
q-12 0 -12 -12l4 -64q-12 -43 -156 -144q-8 0 -56 -44q-9 0 -68 -48l-20 -4l-4 4h-4q-140 -148 -140 -168q-64 -120 -64 -236l4 -56q36 -16 72 -16q347 48 1172 704q216 177 356 320q122 151 128 184q0 48 -44 56h-48l-76 8q-47 -24 -124 -36q-17 -28 -156 -64
q-4 -15 -92 -48q-75 -44 -104 -44zM968 1164v-4h4q64 30 64 44h-4zM1112 1164h4q-20 -23 -88 -60q-6 -12 -128 -88q69 63 124 92q63 56 88 56zM940 1092h4v-4q-14 -24 -36 -24v12q17 0 32 16zM896 1060h4v-4q-63 -72 -104 -80l64 52q0 9 36 32zM700 928h8v-4
q-29 -36 -52 -36v8zM660 876v-4l-8 -8v4z" />
    <glyph glyph-name="P" unicode="P" horiz-adv-x="407" 
d="M1282 1586q28 -76 84 -76h20l272 24h112q41 0 88 -16q53 0 192 -64q56 -40 56 -100l20 -36q-19 -128 -68 -128q-57 -40 -228 -68l-156 -16l-28 4q-27 -12 -236 -24q-131 -36 -560 -68q-49 0 -76 -36q-35 -18 -92 -84q-39 -21 -72 -60q-31 -13 -68 -64q-105 -73 -380 -384
q0 -7 -104 -100q-4 -25 -208 -208l-160 -176q0 -12 -16 -20h-4q-72 17 -88 48q-16 18 -16 36v4q70 188 360 572q281 325 492 484q306 229 520 304q63 37 116 40q201 216 228 216v-4zM326 918q388 304 472 304q33 23 180 84q6 22 60 52v4h-4q-244 -96 -244 -116l-204 -116
q-219 -162 -260 -212zM1830 1358q-253 -16 -416 -64q-155 -44 -260 -92q-88 -15 -324 -172h4q500 80 872 188q169 52 256 112q-33 28 -88 28h-32l-4 4l-4 -4h-4zM590 966h-4v4l4 12h-4q-76 -51 -100 -96q-56 -68 -100 -96h-4v4l12 20v8h-4q-35 -43 -68 -60q-30 -26 -44 -56
q-76 -69 -92 -116h4q31 0 72 52l4 -4h4q205 172 432 412h-4q-92 -37 -92 -72zM546 930l4 -4v-4l-20 -16h-4z" />
    <glyph glyph-name="Q" unicode="Q" horiz-adv-x="1185" 
d="M1772 1563q56 -7 56 -15l19 3h8q11 -3 33 -33q18 0 57 -61v-7h-8v7h-11l41 -33q49 -52 49 -113v-7q0 -184 -578 -639q0 -7 -11 -7l-4 -4v-4h7v-7q-15 -23 -30 -23v12q-32 -14 -48 -34l3 -4v-4q0 -11 -30 -11q-16 -24 -64 -49q-81 -88 -240 -188q-196 -141 -375 -244
l-60 -101l-42 -60v-4l19 12l8 -19q-25 -18 -38 -72q-9 -8 -19 -41l4 4h4v-8l-45 -63v-4q222 243 293 289v-4q-220 -239 -271 -405l-33 -72l3 -15l4 4h4v-11q-19 -26 -34 -26l-4 3h-4l-37 -26q-57 8 -98 34l-7 11v4l7 7q8 0 8 -11h4l11 26q-8 0 -8 12q13 42 27 60l3 15l-3 3
v4l22 60h15v-7l11 11l-3 4v4q15 22 37 86l38 75v34h-4q-41 -102 -41 -117q-13 -2 -27 -41l4 -15l-15 -7l4 -4v-4l-11 -11h-4v4l34 105l94 202h-4q-130 -45 -184 -45h-19q-112 0 -180 68q-101 54 -101 124q-7 0 -8 56q0 157 191 417q57 113 312 368h-7q-23 0 -166 -79
l-41 -30h-4v15q218 187 485 323l266 127v-3q502 190 642 191l19 4v-4q20 8 75 8zM1303 1371l-34 4l-41 -8l3 -3v-4l-63 -23v-3l3 -4v-4l-3 -4h-4l-8 8l-82 -26q-20 0 -23 -15h-22q0 -9 -64 -23q-41 -28 -98 -38q0 -7 -15 -7v-4q41 -35 41 -82q0 -49 -123 -121l-203 -191
q-200 -203 -233 -270q-15 -6 -49 -60q-146 -214 -146 -372v-15q103 0 327 113l7 -12q90 41 90 53q15 18 26 67l-3 4h-4q134 274 218 417l3 22l-30 42v11q122 109 151 109q24 -16 52 -60q60 -51 60 -75q-25 -54 -188 -304l-56 -98q234 140 548 383q13 18 117 90q0 12 116 101
l4 4q0 5 22 8q0 24 34 45q99 98 165 187q8 33 49 57l4 11l-4 4v26l26 45q12 0 12 8v18q-38 7 -38 15l-135 -11l-11 11l-184 -18q0 11 64 37l11 15q-163 -22 -289 -60zM1858 1255q-80 -136 -210 -286h4l180 203l-4 15q0 12 38 64v4h-8zM1603 928h4q0 8 11 8l4 3v4h-4z
M477 -116l4 -3v-8l-23 -41l4 -4v-4q-30 -40 -30 -78l-12 -12l4 -11q-26 -45 -26 -60q21 13 79 135l-4 15l94 229l11 19h-4q-21 0 -52 -94zM507 -138l-8 -15h8l4 11v4h-4zM496 -157v-4l7 -7v11h-7zM372 -315l-8 -18v-4h4l7 19v3h-3z" />
    <glyph glyph-name="R" unicode="R" horiz-adv-x="1374" 
d="M-13 1623l4 -4l-16 -41v-17q0 -49 132 -58l29 -4l82 4l70 -4l533 29q21 6 53 70l17 4q17 0 62 -53l16 -4l334 12q357 0 652 -66l29 16h17l16 -16v-66q0 -14 25 -45v-9l-17 -45l9 -25q0 -70 -339 -87q0 -6 -53 -8l-13 -12h-16l-17 4l-57 -17q-10 8 -120 17l-215 -37
l-12 -4h-17v8q17 0 33 21q53 23 203 37q45 17 45 24l-4 5h-4q-90 -14 -99 -21l-4 4l-207 -16l4 -5v-8h-78q-25 0 -120 -25q-61 0 -107 -20q-190 -15 -190 -37q-59 0 -136 -75l-25 -20q117 0 392 -240q14 0 42 -28q49 -23 49 -42l4 4h4q56 -42 66 -61q31 -14 87 -71l-4 -4v-4
q19 0 41 -25q33 -17 33 -41v-4h-8q0 -12 -8 -12l-13 4v-4l29 -29v-4h-4l-4 4h-4v-4q36 -38 53 -38h5l-9 13l13 12q40 -41 53 -41l-12 16v5h4q25 -7 25 -33q14 0 99 -91v-4h-8q0 -9 33 -17q0 -26 33 -41q21 -37 161 -161l210 -186h-8l-46 8v9h9v4l-50 16v13h13v8
q-25 0 -33 25l-17 -9l-8 9l-13 -9h-8q0 14 -29 33v5q13 0 37 -17l9 12q-26 17 -71 21v8h25v5q-28 0 -111 41q-10 29 -37 49q0 13 -21 13v4l4 4v4q-91 22 -91 54l-12 12v4l21 -4h8v4l-4 13l-8 -9l-25 21q-15 0 -75 45q-1 18 -70 54l9 -12h-5q-53 24 -53 49q-74 41 -112 87
q-65 28 -82 45l8 13q-24 27 -78 41q-25 26 -46 33l-4 4v8l13 -8h8q-35 33 -70 33l-17 21l4 4v4q-63 15 -78 37l8 12q-47 8 -103 54l4 4v8q-51 0 -111 50l-99 37l-5 4q0 8 -45 8l-4 5v4l4 4l-12 4l-4 -4l-17 4q-98 0 -177 -91q-91 -70 -91 -78q-18 0 -173 -149l-21 -12h-4
l-4 4h-4q0 -20 -38 -41l-74 -83q-28 0 -371 -367q-13 0 -248 -239h-4v4q140 207 574 664l375 371h-12l-99 -12l-66 33l-4 37v13q0 86 61 111q161 50 425 95q49 35 289 276h-4l-334 -8q-384 12 -384 50q-33 14 -33 57q0 70 58 83zM779 1247h4l846 161v5l-111 12l-25 -4
l-144 4q-340 0 -425 -45q-53 -40 -145 -133z" />
    <glyph glyph-name="S" unicode="S" horiz-adv-x="1778" 
d="M2532 1635h9q17 0 47 -96v-21q0 -78 -111 -132l-249 -167q-77 -40 -274 -295q-47 -65 -98 -167l-30 -5q-56 20 -56 106l-21 87l4 5v5l-17 51q0 18 86 106l30 41l-13 5q-63 0 -176 -46q-104 -25 -415 -137q-194 -66 -471 -208q0 -8 -30 -15v-5h26q591 0 822 -71
q101 -21 257 -82q128 -66 128 -132l9 -50q0 -59 -163 -92q-112 -44 -428 -96l-724 -147v10l253 71q0 10 69 10q140 56 201 56v5h-26q-81 0 -377 -76q0 -36 -132 -36l-125 -30l9 -10l34 5v-11l-30 -5h-8q0 -20 -13 -20q-64 -20 -150 -30l-4 5h-4l-116 -36h-13v10
q-190 -25 -419 -71l-86 5q-46 -20 -73 -20q-20 0 -30 30l-4 -5h-4q-56 45 -56 87q21 66 39 66q161 101 642 228q480 132 766 132v-10h-4q-400 -56 -446 -71q0 -9 -94 -36l-17 5q-32 0 -145 -45l-120 -31l4 -5v-10q-159 -61 -390 -178l5 -5v-5q-39 -9 -39 -20h4q93 0 531 101
q90 16 330 82q84 20 150 20h25q77 41 625 152q33 26 189 56q166 27 197 51q-19 15 -69 25v10l47 -10h9v5q-92 16 -137 36q-321 66 -544 66v5l-158 -25h-30q-347 -17 -347 -51h-4q-30 38 -60 45q-43 51 -43 77v10q0 96 295 233q344 198 1345 538q77 36 261 97q125 76 145 76z
M161 249v-5h8l17 5v5h-8zM1201 234v-5h17v5h-17zM752 188v-5h12l103 20v6h-8zM640 163v-5h22l30 10v5h-9zM435 117v-5h13q171 31 184 41v5h-5zM623 127v-5h30l30 5v5h-4zM311 97v-5h17l60 10v5h-13zM-36 -20v-5h17q142 0 300 56l132 25h13l39 -10l-5 5v5l35 26h-13z
M-195 -55v-6h22l8 11h-8z" />
    <glyph glyph-name="T" unicode="T" horiz-adv-x="888" 
d="M1834 1802l44 -173q-28 -36 -59 -40v-5h10l444 10h143q381 0 760 -59v-10l-177 10q-450 0 -761 -39v-5h15v-10h-10q-64 0 -380 -40l15 -14h25v-10h-5l-119 -5l-9 -10h-25l-20 15h-5q-16 -14 -113 -20q-188 -116 -218 -148q-96 -58 -315 -217l-30 -10q0 -13 -35 -25
q0 -25 -34 -25q0 -13 -59 -44q-79 -83 -104 -84v10l-25 -15l5 -5v-5q-16 -36 -79 -69q-73 -84 -89 -84h-5l45 50h-5q-53 -45 -64 -45v5q0 8 29 20q5 29 25 29v5h-10q-19 -27 -59 -49q0 -18 -153 -163h15v-10l-99 -74l5 -5v-5q-127 -132 -197 -232l4 -14q-15 -2 -39 -70h5
l104 55q114 50 597 335l345 188q-181 -126 -182 -138q-111 -67 -158 -109q-34 -7 -84 -64l-143 -89q-20 0 -104 -64q-20 0 -207 -123q-19 0 -89 -55q-99 -49 -114 -49l-34 -5q-56 0 -69 89v10q0 132 222 390q351 447 824 819l-5 5l35 15v5h-30v10l104 39v5h-5l-128 -20v5
q-211 -59 -494 -118q0 -8 -59 -15q0 -25 -50 -25v-5h15v-10h-20v10h-5l-24 -5l5 -5v-9l-203 -50v-5h15v-10l-178 -69l-167 -39l-15 29h-5l-35 -5q0 29 -39 55q0 12 20 15v5q-30 0 -30 19q15 28 178 79v5h-5q-104 -34 -168 -44v5q0 16 153 54l168 54v-10q-32 -23 -84 -39v-5
h5l113 49v5h-10l-14 -5v10q427 124 1184 237l148 20q0 22 104 79q216 150 331 173zM3186 1530h15v-10h-15v10zM1197 1496v-5h15l89 14v5h-25zM1192 1476v-5h10q128 10 128 30h-10zM866 1417v-5h10l311 54v5h-25zM1108 1436l-5 5h-5l-123 -24q-37 -25 -143 -45v-10
q343 60 404 84q0 10 30 15v5h-10zM674 1422v-5h5l212 39v5h-10zM1918 1431h14v-9h-14v9zM649 1417v-5h20v5h-20zM541 1387v-5h4l55 15v5h-10zM318 1343v-5h10l163 34v5h-10zM723 1348v-5h5l59 9v5h-34zM654 1333v-5h15l49 10v5h-34zM175 1308v-5h15l123 30v5h-14zM565 1318
v-5h10l30 5v5h-10zM111 1293v-5h15l44 10v5h-5zM876 1308v-10q-70 -5 -449 -94v10l360 84l5 -5l10 10h40zM279 1185v-5h20v5h-20zM580 661l5 -5v-4l-15 -10h-5v5z" />
    <glyph glyph-name="U" unicode="U" horiz-adv-x="1346" 
d="M2284 1539h4q83 -40 148 -40l4 -4q18 -20 44 -20l20 -36l-4 -4l4 -4v-4q-54 -34 -92 -72q-74 -38 -128 -80l-84 -56q-48 -16 -100 -60q-133 -93 -220 -164q-12 0 -64 -56q-9 0 -28 -20q-15 0 -52 -36l4 -4v-4q0 -6 -36 -20q-4 -17 -32 -32l-128 -112l4 -4v-8l-8 -8h-8
l-4 4h-4l-16 -20l8 -8q-8 -18 -16 -20h-4l8 12v12l-180 -188q-468 -539 -468 -776q0 -67 56 -108h-8q-20 0 -20 8l-4 -4h-4q-44 0 -72 100v24q0 116 28 172q0 20 24 44q27 91 52 116h-8q0 20 68 136v-8l-32 -68v-4h4q54 112 108 188l108 180l4 12l-40 -48h-4v4l56 92h-4
q-38 -33 -72 -36q-25 -34 -68 -48q0 -16 -96 -56q-10 -20 -84 -48l-64 -40q-47 -36 -476 -272q-128 -44 -168 -44q-27 12 -128 16l-4 4q-8 0 -8 12q7 68 88 156q128 144 384 408q48 40 348 360q165 163 276 296q18 0 24 48l-16 84l4 4q188 0 252 -128l4 -32q0 -79 -100 -132
q-161 -173 -296 -288h-8v8l32 48h-4q-484 -436 -568 -520q-44 -20 -112 -104q-68 -56 -68 -68v-8q290 151 604 352q152 84 476 304q99 70 252 160q160 112 500 384q111 70 212 172v4zM1076 395h8v-4l-16 -20v8zM1048 351h8q0 -21 -12 -24h-4v4zM1020 295v-8l-12 -16v8
q6 16 12 16zM1004 267v-8q-21 -48 -28 -48v8q21 48 28 48zM856 -29h4v-8l-8 -8h-4v8z" />
    <glyph glyph-name="V" unicode="V" horiz-adv-x="784" 
d="M2476 1692q92 0 92 -24l-4 -12l4 -4h4q-17 -53 -140 -116q-22 -26 -96 -52q-21 -18 -136 -76q-105 -80 -136 -80q0 -8 -52 -36q-306 -202 -556 -388h-4q341 279 748 544q194 137 244 184q-125 -14 -412 -188q-12 0 -76 -48l-116 -72q-19 0 -92 -48q-74 -30 -92 -56l4 -4
l-152 -96q0 -7 -112 -56l-60 -48h4l180 92v-8l-112 -60v-4h4l24 8q-1 -7 -40 -28l4 -4v-4l-308 -212q-6 -11 -112 -84q-36 -35 -88 -60q0 -10 -108 -96q0 -16 -36 -24l4 -4v-4q-92 -76 -120 -112l-24 -16l-64 -60q0 -16 -28 -16q0 -24 -116 -116q-101 -104 -184 -164
q0 -14 -24 -20q0 -12 -16 -20l-12 4l-12 -4q0 6 -56 20q-4 19 -96 56v20q0 43 96 120q591 751 1068 1308q17 36 96 60h4q57 -24 136 -84v-12q0 -24 -180 -180l-184 -172q-330 -390 -388 -468h4q461 361 956 640q690 367 868 384zM1040 936h8q79 43 284 180l336 200v4h-4
q-355 -189 -624 -380v-4zM1440 896h4l-8 -8h-4z" />
    <glyph glyph-name="W" unicode="W" horiz-adv-x="1975" 
d="M3001 1892q0 -18 61 -38q18 -23 75 -33q47 -40 47 -94q0 -58 -89 -131q-11 -56 -66 -56q0 -23 -94 -113q-64 -76 -262 -258q-16 -29 -56 -42q-9 -19 -52 -33q-121 -111 -178 -145l-5 -14l5 -5l5 5h9v-5q-103 -97 -296 -253l-4 -14h4q12 0 66 52h5v-5q-11 -30 -89 -75
q-22 -47 -57 -47l29 37h-10l-19 -23q-14 0 -28 -28v-5l5 5h5l4 -5v-4q-70 -49 -112 -99q-9 -1 -75 -75l4 -14l-4 -5l-14 5q-59 0 -141 -122h5l33 33h14q-1 -13 -85 -75v5l19 28h-5q-67 -33 -98 -85v-4q14 0 14 -10l-169 -136q-53 -47 -173 -47h-5q-36 0 -70 66
q-38 17 -38 61v33q0 94 235 441q0 10 121 182v5q-46 -23 -206 -150q-306 -259 -375 -305q-20 -34 -108 -94q-77 -77 -248 -197q-374 -309 -474 -309q-52 0 -61 75v5q0 78 141 258q191 296 816 942l553 516l37 5q34 0 141 -188l5 -42q0 -51 -56 -75q-74 -24 -141 -94
q-83 -39 -464 -413q-7 0 -24 61l-5 5h-4q-87 -47 -244 -234l-220 -225q0 -36 -165 -179q-205 -213 -206 -248h5q95 62 633 502q748 602 1013 792q185 155 220 155q136 -48 136 -132q0 -21 -47 -84q0 -26 -145 -136q0 -16 -160 -159q-157 -213 -173 -216q-52 0 -99 -99
q-30 0 -84 -103l-5 -4v-10l549 460l80 61h4q-160 -137 -258 -235q-184 -154 -239 -215h5l366 286q22 0 230 183q54 27 187 159h10q0 14 14 14q0 29 122 113q251 202 445 408q-9 0 -310 -258q-129 -98 -229 -193l-103 -79l-179 -132v5q429 345 779 657q33 38 51 93
q33 0 33 43l-14 4l-28 -4q0 24 -117 28v4q0 10 28 10v4h-24l-79 -14l-14 14l-80 -14v5q0 13 188 47h42v5h-94l-131 -19l-47 -19q-140 -27 -385 -103l-23 -5v10q557 183 661 183zM2546 1141q64 43 99 85v4h-5l-94 -79v-10zM2509 1113h4l10 10h-5zM2063 766h5q14 0 197 150v10
q-20 -6 -94 -71q-34 -13 -61 -51zM1782 339h5l-24 -23h-5z" />
    <glyph glyph-name="X" unicode="X" horiz-adv-x="1636" 
d="M1700 1587h4q24 0 59 -51q31 -18 59 -79l13 -13q-64 -61 -131 -185q-53 -68 -210 -365q-10 0 -20 -29l-9 -9h4q961 510 1470 718h4l4 -4v-4l-311 -168q-84 -38 -319 -176l-180 -105q-36 -13 -67 -42l-139 -80q-39 -16 -126 -76q-12 0 -25 -17q-167 -86 -277 -155h-4v-4
h12q0 7 38 25v-4q-7 -23 -75 -50q-13 -19 -110 -72q-65 -134 -71 -134l4 -4v-5l-92 -209q-10 -26 -17 -26h-4v5l4 12q-25 -17 -25 -42q9 2 17 21l4 -4h8q34 0 277 181q446 289 479 289q-77 -77 -244 -189l-184 -176l4 -4v-13q-15 0 -105 -96v-5l25 13h4v-13
q-242 -226 -264 -226q-10 -12 -38 -21v-13h-4q-23 0 -34 21q-46 -5 -46 -12q-38 0 -54 37q-17 37 -17 88q0 83 75 303h-4q-20 0 -122 -76h9l54 30h5q-9 -13 -303 -215l-365 -226q-145 -101 -176 -101q-37 0 -97 67q-37 0 -67 46q15 70 122 193q17 13 84 17l42 -4
q91 0 189 76l738 415q13 0 34 72q102 220 265 512q0 28 83 147l51 88v4l-4 4v4l50 93q27 21 46 21zM1033 437v-5h4l13 5v4h-5zM1213 374v-5h4l38 55h-4q-27 -27 -38 -50zM1033 386q-4 -12 -25 -12q4 12 25 12z" />
    <glyph glyph-name="Y" unicode="Y" horiz-adv-x="2362" 
d="M3264 1607l5 -5v-5q-95 -115 -466 -480q-59 -82 -395 -414q-51 -67 -76 -67v-14l5 -5v-4l-143 -124h10v-5l-10 -14h10q-116 -160 -191 -205q-27 -14 -171 -209q0 -8 509 -33q689 -66 975 -191l14 5q67 -34 67 -66l-14 -5v-10l14 -4q-3 -48 -19 -48l-62 5l14 -19
q-12 -10 -109 -15l-38 5v10h9v5q-62 9 -333 19v9h10l81 5l95 -14l19 4l5 -4l81 9v5l-57 5h-38l-34 -5v9h-24l-9 -9q-42 9 -114 9h-214l-10 10q25 14 48 14l152 5l109 -10l105 19v5q-43 0 -43 10l43 4v5h-38v10h57l24 4v5h-33v10l61 9v5q-581 143 -1117 143q0 -10 -15 -10
l-52 5l-167 -14q0 -11 -52 -53l-9 -9v-5l4 -14l-104 -124l5 -5v-9q-17 0 -53 -33q29 0 29 -10l-43 -24l-5 5v5l14 14h-4q-22 0 -38 -33q14 0 14 -10q-20 -42 -76 -81v5l57 67l-5 4h-5q0 -10 -152 -171q0 -15 -95 -104q0 -31 -67 -86h5l10 9v-4l-5 -15h9q-10 -17 -38 -33h-14
l5 5v9h-5q-105 -133 -233 -199q-197 -105 -338 -105h-66q-255 0 -452 233q-62 123 -62 186q14 84 62 119q9 39 100 109l-10 9q221 215 704 324q309 81 447 81l24 -5q158 19 328 24q0 14 148 204q103 155 171 219q103 149 171 224l-9 9h-5q0 -8 -67 -71q-283 -291 -347 -309
q-181 -134 -228 -134q-100 25 -100 62q-14 5 -14 29q0 55 147 228q7 43 29 43q18 6 171 190q231 255 361 443v4l-4 24q14 52 47 52q95 -46 95 -142v-38q0 -66 -138 -210l-314 -356v-5q24 0 595 442q550 557 604 557q30 33 57 33l15 -5q52 42 171 57q1 10 28 15zM1728 51
l5 -4h14q10 0 62 104q80 73 100 129q98 98 185 223q14 7 62 72v9q-113 -111 -262 -309q-17 -6 -76 -110q-16 0 -33 -38q-13 0 -57 -76zM2156 446h5l9 14v5zM2108 394h5l10 9v5zM2070 346q-57 -60 -57 -71h5l57 71h-5zM1794 85v-5q20 7 20 14v10zM134 -634h10v-4l-10 -43
q28 0 34 -95q9 0 81 -81l38 -24v-10l-34 10q97 -86 248 -86h28q216 0 471 210q78 87 148 133q58 91 242 304q0 11 57 62l157 214v5q-614 -62 -870 -181q-343 -124 -462 -238q0 -8 -57 -38q-81 -99 -81 -138zM296 -339h10q64 37 71 53h-5q-74 -42 -76 -53zM2974 -305l38 -10
v-10h-90v10h38zM3022 -315h38v-10h-38v10zM201 -415l-19 -24v-9h10l19 19v5zM130 -524q62 53 62 62v4q-62 -44 -62 -66zM120 -619v-5h5l33 104q-18 -7 -38 -99zM111 -634q0 -14 -15 -14v-43q0 -30 19 -90h5v14h5l5 -5h4v5l-9 48l-5 -5h-5l-9 9v19l14 58l-5 4h-4zM1081 -795
q9 0 48 52q28 0 28 28l57 53v5h-9l-100 -96q0 -11 -19 -28zM6 -667h10l28 -86v-4q-38 39 -38 90zM163 -791q0 -14 -10 -14h-14l-5 5h-4v-5q45 -52 71 -52l-19 14l-5 5v9h19l-28 19v5l4 5v5l-4 4h-5zM915 -919h4q37 14 62 47v5q-35 0 -66 -52z" />
    <glyph glyph-name="Z" unicode="Z" horiz-adv-x="2256" 
d="M2062 2099l5 -5v-5q0 -33 -148 -236l-39 -64q-123 -128 -187 -276l-84 -113l5 -5h5l1353 113l478 35q12 0 39 -39q16 0 25 -10q-9 -227 -69 -227q-189 -8 -286 -29q-25 15 -49 15q-223 -20 -836 -271l-493 -231q-64 -48 -147 -69q-16 -30 -59 -30q-15 -16 -487 -280
q-53 -16 -163 -109q-80 -41 -128 -78h5q124 29 158 29q24 0 24 -10l236 10l114 -5h44l408 -10l158 10l39 -5l15 5q0 13 -59 20v10h44v5q-261 79 -576 138v9q300 0 980 -167q64 -22 64 -49q19 0 24 -79h20v-10q-28 -54 -44 -54h-5v-15l19 -29v-10l-54 -15h-10q-68 4 -68 25
q11 10 59 10q0 43 -261 64q0 14 -300 29v10h19v5l-108 5v-10h-49l-20 10l-84 -5l-39 15l-10 -10l-78 5v10h-50q-42 0 -64 -10l-29 5q-190 0 -281 -25v-5h168v-10q-33 -9 -84 -9v-5l15 -5l24 5h104v-10l-25 -5h-5l-44 5q-85 -20 -359 -49q-50 -25 -168 -40q-49 -28 -270 -69
q-121 -66 -143 -88q-90 -41 -143 -79l-5 5v5l5 5v5h-5l-19 -15h-10l-5 5q-10 0 -10 34q-27 0 -39 25v15l5 5v4q-15 0 -25 35q79 91 202 143l492 295q545 338 664 389l133 69q4 13 128 68q381 197 438 217v5h-5l-359 -167l-15 5q-642 -315 -1265 -724q-277 -150 -320 -192
l-63 -34h-10v5q39 36 260 157q1043 660 1747 979q142 69 507 217v5h-10q-184 0 -462 -30q-106 -28 -468 -54l-29 5q-65 0 -113 -103q-202 -229 -202 -241q-190 -193 -202 -241q-21 -20 -39 -20q-65 0 -89 187q-19 22 -19 54q0 48 177 226l177 207q-113 38 -113 108v20
q0 127 393 172q0 18 168 177q0 20 270 271q56 50 89 64zM1235 1435q0 -23 128 -35q62 62 99 113l-20 5q-74 0 -207 -78v-5zM2106 1075v-4h5l49 19v5h-10zM2131 982v-5h44l10 10v5zM1634 736v-10l10 -15v-5q-45 -9 -45 -19h5q142 55 207 108h-25q0 10 123 54v5l5 -5h10l-5 5
v5l104 29v5h-5l-40 -5v10l109 40l9 14v5h-5q-34 -8 -305 -147q0 -10 -49 -20q-75 -54 -103 -54zM1501 701v-4h20l9 9h-4zM1466 677h5l20 10v5h-5zM1235 642h10q-20 -24 -44 -24zM1486 628v-5h5q30 6 30 14h-15zM1373 583v-5h20l83 40v5h-5zM1191 529h5l59 30v5h-5
q-56 -19 -59 -35zM920 332l10 -9q20 16 69 29q0 15 44 39h15l5 -5h5q0 8 59 50l5 14l34 -4l-5 4v10q65 12 79 30q74 19 84 44h-5q-52 0 -94 -39l-137 -59q-23 0 -84 -50q0 -19 -59 -29q0 -25 -25 -25zM1122 490v-5l39 20v5h-5q-34 -12 -34 -20zM1083 475v-5h5l24 5v5h-15z
M827 273h5l29 20h25l5 -5l19 15v5h-9q-74 -10 -74 -35zM1407 72h74v-10h-74v10zM1831 32l73 -5v-10h-24l-49 5v10zM2219 12h84v-9l-34 -10l-55 5h-19v10z" />
    <glyph glyph-name="bracketleft" unicode="[" horiz-adv-x="782" 
d="M1441 1844h11q35 0 111 -61q416 41 637 51l212 -10v-10q-150 -24 -348 -91l5 -16h-5l-112 -20l5 -5v-15q0 -17 -187 -35q-9 -9 -263 -51q-45 -6 -238 -207q-241 -272 -576 -622l-106 -122q0 -17 -76 -101q-258 -341 -258 -354h5q227 58 278 101l253 76h5
q-45 -50 -187 -157q0 -14 -86 -71q-15 -15 -15 -35q-223 -121 -294 -121q-89 0 -212 81v10q23 68 248 389l121 172q237 313 744 900q104 124 328 324z" />
    <glyph glyph-name="backslash" unicode="\" horiz-adv-x="1007" 
d="M7 2172q21 -1 103 -179q103 -171 299 -662l64 -159q0 -21 59 -132l167 -444l137 -389q42 -147 72 -222v-9q-14 -51 -77 -51q-86 -81 -141 -81h-4q-60 0 -60 73q0 143 -170 649l-9 47q-17 12 -81 222l8 43q-29 60 -38 64l8 60q-85 215 -85 277v30q38 -60 38 -77l5 5h4v-5
l-4 -4q17 -17 38 -77q11 0 43 -98l13 -13h8l-55 145l-5 -4h-8l-13 26h4l5 -5h4v5l-56 166h5q-17 34 -17 56l4 4q-26 115 -51 145q-17 82 -60 175q-60 177 -64 210q-35 45 -73 162q-7 0 -17 43v4zM426 959v-13l17 -13v5l-13 21h-4z" />
    <glyph glyph-name="bracketright" unicode="]" horiz-adv-x="842" 
d="M1775 1647h21q111 0 111 -26q-36 -54 -253 -242l-197 -162q0 -10 -324 -319l-253 -263l-81 -76q16 0 16 -10q-11 0 -11 -15q-44 0 -70 -71q-101 -101 -193 -232l-197 -263q-25 0 -106 -157l-40 -31h-6q-96 0 -207 92q0 20 -217 96q-127 62 -142 86v5l314 -51l5 5h5
l60 -10q80 0 102 46q256 342 652 768q331 339 354 349h5v-5q0 -14 -222 -232l-11 -21v-5l380 359l146 172q-42 0 -86 36l5 5v5h-5l-75 -10v5l5 5v5l-5 5h-61l-10 10l5 5h-5l-41 -5l-30 10l-20 -5h-5l-21 15h-10v-5l-86 5h-45l-10 10l15 5v6q-61 15 -132 15v10q104 14 713 35
l157 41v-5q27 10 106 10zM1588 1384l5 -5v-5l-20 -31h5q66 61 66 71h-5q-20 0 -51 -30zM1351 1389v-5q-36 -51 -56 -51zM1285 1323v-5l-10 -10h-5zM1249 1293h6q-12 -25 -41 -46h-10z" />
    <glyph glyph-name="asciicircum" unicode="^" horiz-adv-x="1569" 
d="M-2433 -523q-39 4 -85 4q-27 0 -38 1l-50 2q9 2 63 3l82 3zM-3939 -375q-25 1 -67 2q-48 1 -68 2q-38 2 -71 8l138 -3q94 -4 140 -19q-34 7 -72 10zM-914 -390q-212 -44 -412 -75q-7 11 17 23l38 13q61 -1 141 13l269 49q91 17 109 36q-114 -29 -176 -22q9 10 35 16
q10 2 25 4l25 4q30 4 42 9q17 8 14 21q-101 -38 -286 -60l-167 -18q-107 -12 -180 -22q9 10 46 18q23 5 79 12l42 6q24 4 40 7q42 9 59 21l-558 -68q9 10 39 16l114 14q25 4 26 12q50 -4 116 8l100 21q-32 0 -70 -3l-134 -12l-76 -3q7 13 60 13q51 -1 53 10q-31 -10 -84 8
q13 5 56 0q47 -5 64 -3q9 3 -12 0l-24 -5q46 -2 53 4q2 2 0 4l-2 2q48 12 128 28l135 28q160 33 223 61q-234 -55 -366 -80q-204 -38 -442 -62q-23 5 -16 11q4 4 -11 2l-267 -25q-156 -14 -273 -24q-315 -24 -597 -29q812 36 1434 149q-70 -4 -146 -17l-137 -28
q-133 -8 -315 -25l-321 -30q-194 -17 -331 -28q-183 -13 -341 -19q-7 -3 -55 0q-53 3 -75 -1q45 -7 93 -8h35q19 -1 34 -2q-244 -17 -630 -11l-676 17q11 4 25 5q27 2 38 -13q-22 -3 -59 -1q-33 3 -40 0q-47 6 -97 9q-40 2 -86 3l-71 2q-37 1 -56 2q3 1 -27 2q-24 1 -4 -5
q94 -5 255 -17l267 -18q322 -21 512 -16l361 -9q26 -2 53 -1q16 0 41 2q37 3 42 -3l-300 -5q-216 -2 -395 14l-44 -2h-26q-18 1 -24 1q-56 0 -46 -13q85 -14 213 -12q133 2 196 -6l17 -4q20 -4 36 0l15 5l39 -2q42 -1 55 1q16 5 39 -2q22 -7 19 -8q52 -4 102 -4l179 6
q56 1 111 0q-75 -6 -233 -7q-148 -1 -220 -8l-327 12q-210 5 -301 -2l493 -23q17 -8 -3 -7l15 1q10 2 30 -1q-5 -2 -8 4q-2 3 34 -3q152 -15 423 -7l228 7q136 4 232 4q-274 -17 -784 -13l-856 12q64 -6 175 -11l423 -18q113 -6 184 -13q40 -2 101 4l52 4q31 2 60 3l162 -8
q103 -3 126 3q62 1 144 3l67 2q40 2 64 2q151 5 257 2l28 6q17 5 31 7q38 5 76 -1q7 -12 -23 -13h-25q-14 0 -19 -2q-28 3 -62 -6q-32 -8 -62 -3q-17 -4 -71 -3h-45q-25 -1 -46 -4q-25 6 -63 1q-28 -3 -66 -12l-72 11q-42 5 -55 1l-56 -19l-97 11q-23 3 -27 3q-65 9 -113 11
q-27 -9 -45 -11q-32 -4 -74 3q-17 -5 -96 -3q-41 1 -64 0q-35 0 -59 -5q-126 11 -304 15l-283 5l-35 4q-22 3 -28 4q-28 4 -49 13l-33 -8q-25 -5 -38 -9q-67 13 -142 19q-28 2 -62 4l-133 7q-46 0 -74 5q-34 0 -87 5l-216 22q-63 7 -108 9q-500 29 -976 110
q-146 65 -224 171l87 22q-20 7 -16 14q3 4 9 6q31 -1 56 3l79 15q25 3 56 3q76 -8 223 -37l223 -42q69 -3 148 -12l137 -16q172 -21 237 -24q72 -9 213 -19l213 -16q10 -13 -43 -9q-3 0 -23 2l-21 1q-24 1 -32 -1q30 -8 68 -11q21 -1 67 -2q43 0 66 -2q35 -3 62 -13
q-20 -4 -58 -3q-25 1 -74 6q-52 5 -73 6q-38 2 -56 -2q211 -21 551 -37l546 -25q15 3 54 4l73 -1q92 -2 92 5q-18 5 -44 6l-51 1q-35 0 -59 2q-35 3 -67 11q21 -4 49 -5q18 0 48 1q58 3 70 -2q21 4 71 2q58 -2 76 -10l78 -3q44 -1 66 -2q67 0 96 10q13 0 23 -5q9 -5 20 -3
q9 1 15 7q4 5 31 1l940 63q24 6 55 9q15 2 54 5q34 3 52 5q26 4 45 11q67 6 142 17l256 39l118 16q104 18 159 31l197 33q121 19 184 34l-137 -32q-27 -6 -47 -11l-169 -43q34 -2 54 9l38 18q57 -2 101 4q31 5 66 16l29 8q17 5 29 8q35 9 74 10l-33 -8q-33 -8 -49 -9
q196 45 295 70q158 40 256 76q10 -14 -21 -29q-32 -15 -84 -17q16 -6 8 -8q-8 -3 -24 2q41 -15 -5 -24q-14 -2 -45 -5q-32 -3 -41 -5q-9 -13 -36 -22q-18 -7 -53 -14q-39 -8 -50 -12q-23 -6 -27 -15l65 14q37 9 62 17q65 19 81 39l233 58q126 34 195 64q6 47 116 46
q-5 13 19 22l35 11q-30 -29 -141 -76l-44 -18q-24 -11 -43 -20q-47 -22 -77 -43q51 12 124 52q71 40 139 55q25 4 38 13l13 12q3 2 4 3q19 18 76 19q-14 10 17 18q36 9 32 21q27 -6 33 1q4 5 41 -9q4 8 15 14l19 9q18 10 -2 31q69 1 108 30l31 25q19 17 36 26q-1 -5 -6 -11
q-6 -8 -7 -10q-6 -11 17 -21l34 57q22 32 45 53l36 4l34 21q16 11 -33 34q90 17 118 70l32 71l18 24q-24 36 1 44q63 -54 49 -81l-15 -82q-9 -52 -43 -83q-132 -205 -489 -384q-324 -163 -810 -292q-6 -2 -20 5q-13 6 -27 1l-93 -20q29 -1 65 5q33 6 60 4q-216 -51 -353 -80
zM-561 -153q40 13 57 29q-69 12 -107 -39q14 -2 50 10zM-1188 -242l44 23q-35 0 -57 -11l-18 -9q-12 -5 -27 -8q30 -7 58 5zM-1288 -232q18 5 -2 14q13 5 26 -2q12 -7 21 -4l9 18q-31 -3 -56 -12q15 -7 -2 -7q-29 0 -34 -1q21 -10 38 -6zM-1313 -313q29 -3 56 7l31 15
q-30 8 -52 -3zM-3735 -413q53 3 59 5l-23 1h-48q-70 -2 -69 -16q26 7 81 10zM-3959 -518q41 -7 89 -10q35 -3 83 -3l77 -2q43 -1 71 -4q-73 11 -166 16zM-807 -128q13 4 28 12l25 13q30 12 85 11q-85 -18 -138 -36zM-200 40q-6 -2 -15 -7l-14 -9q-20 -10 -42 -5
q-17 12 17 15z" />
    <glyph glyph-name="underscore" unicode="_" horiz-adv-x="830" 
d="M-1602 -457q-11 -6 -17 -6q-7 1 -38 10q19 -3 36 -2q13 1 19 -2zM-1658 -454q-2 0 -6 -1l-38 2q13 9 30 8q15 -2 14 -9zM-3029 -459q-49 3 -114 0l-121 -4q86 7 208 4q9 -3 19 -2q15 2 8 2zM-3414 -457q33 -11 1 -10l-137 4q14 7 52 7t61 -9l14 -1q4 1 9 9zM82 -365
q5 -6 20 -6l18 -1q13 -1 26 -5q-114 -3 -145 -7l-27 7q-4 0 -15 -4q-1 -1 -5 -2q-3 -1 -5 -2l-13 -4q-32 -10 -57 -3q-37 -14 -73 -6q-7 -3 -25 -6l-30 -6l-55 -5q-34 -4 -62 -1q-11 5 -35 1q-24 -3 -38 -14h-158l-654 -13q-29 -1 -57 -3q-33 4 -64 2l-44 -2q-19 4 -55 5
q-30 1 -68 -1q-66 -2 -167 2l-168 4l-32 -16l-92 10q-14 2 -26 2q-27 6 -27 0q-18 0 -40 10q-3 -6 -32 -6h-27l-41 -12h-258q-14 3 -27 6q-20 3 -38 6q-49 6 -85 2l-9 4l-4 -12q0 -4 -9 0q-61 -8 -127 2q-32 -4 -62 -5l-172 -5q-65 -1 -115 10q-36 -5 -95 -6l-108 -2
q-18 4 -38 2l-58 -6q-3 -4 -15 -2q-18 2 -12 2h-37q-23 2 -58 10q-10 -3 -24 -6l-24 -5q-27 -6 -38 -18q-18 9 -39 11q-13 2 -42 2q-21 -1 -29 2l-13 2l-2 -8q-1 -4 7 -4q-7 -2 -49 -3q-39 0 -46 -4q5 -1 25 3q24 4 52 -3q-12 -4 -33 -5l-39 -1q-27 -1 -44 -2q-24 -2 -43 -8
q63 -15 143 -14l64 2q36 1 61 0q-8 -7 -41 -10l-26 -1l-24 -4q-41 -13 -122 15q-10 -4 -35 -4l-23 -1q-15 0 -28 -1q-10 -5 -34 -6t-34 4q14 -5 16 -9l1 -10q0 -6 4 -10q6 -6 24 -12q7 5 29 8l19 3q12 2 20 5q-11 -14 -62 -17h-42l-36 1q18 -5 32 -11l13 -4q15 -2 28 -1
l42 9h7q48 -22 140 -8l-297 -15q-186 -9 -305 -20q-9 -5 -9 -7l9 -23q-40 8 -104 -21q-22 4 -45 12q-7 3 -19 7q-15 5 -20 7q-23 8 -42 12q-26 5 -55 5q-24 4 -41 3l-18 -2l-140 1q-18 9 -21 16q-4 6 -11 9q-10 0 -31 5q-16 4 -24 1q-14 6 -55 5l-32 -1q-18 0 -30 2l1 18
l8 13q-42 7 -56 24q-3 3 -6 8l-5 8q-7 9 -15 15l11 21q3 12 -20 20q12 3 35 3q22 0 29 3q-18 12 -33 9q-6 -1 -18 -9q9 9 14 20l15 37q7 10 22 19q-83 25 -51 47q55 12 51 0q149 -18 195 -6q26 -10 49 -13q19 -2 39 0l31 5q17 2 30 2q82 -20 144 6q124 -8 284 -9
q119 -1 288 3q22 -2 48 -2l89 4q22 0 39 -3h4q8 -1 28 3q-5 0 22 -6l27 4q101 -8 217 -4q31 4 127 4v2q15 6 16 3q2 -5 -2 -5l68 2q33 0 68 -12q86 5 204 18q72 -14 91 -6l18 10h9q61 -18 54 -18l72 1q51 2 68 7q29 -7 59 -5l59 3q0 1 16 1l25 -1q3 -2 27 14q45 -8 136 -8
q17 -4 31 -4l54 -3q26 -1 51 7l22 -5q13 -3 19 -1q138 8 355 5l378 -3l14 4l39 4l8 2l8 2l27 -14q1 -2 27 -1l54 1q2 3 36 1l30 -2q17 0 29 1q18 0 29 3q12 3 16 3l54 -3q33 -2 55 -1l13 1l18 3q25 2 50 -4q22 1 52 3l166 7q82 -13 158 -10q80 6 197 7l202 -1
q149 -2 245 -12l8 1l19 5l27 -5q28 -5 37 -1q34 6 84 0q18 -2 39 -7l30 -6l12 3q12 3 16 2h22q36 8 32 8l15 -2q17 -3 25 -6l23 -7l4 7l14 -5q33 0 77 23q0 -5 10 -7t17 1q19 -4 41 -6l34 -5q36 -4 48 -8l-88 7q-27 0 -49 -3q-27 -4 -49 -14l-4 7q-3 1 -15 -13q-14 7 -19 7
l-8 -3l-22 3q-17 1 -41 -3q2 -1 14 -4q5 -1 0 -8l-43 3q-28 1 -43 5l-77 -2l-60 -3zM-2200 -439q26 0 68 17q-14 0 -43 -7q-28 -7 -25 -10zM-1838 -324q-8 -8 16 -11q8 -1 18 -1h12q25 -4 55 -1q9 1 29 4l33 5q-16 3 -40 2l-45 -5q-27 -3 -42 -2q-22 1 -36 9zM-1916 -339
q40 -4 64 3q-63 6 -145 6zM-2123 -334q52 -7 126 4l-78 2q-45 0 -48 -6zM-1973 -365q-18 -9 -50 -6l-18 3q-6 2 -1 3l38 -10q5 -2 7 -11q14 15 29 11q18 -4 22 -2q-6 4 -17 5q-8 0 -10 7zM-2422 -353q-34 -1 -48 0q-8 1 -20 4l-6 -2q-8 -2 -17 -2l-27 10q7 4 27 -2
q21 -5 28 -2q-29 8 -52 8l-48 -2q-5 -2 -32 -6q-20 -3 -18 -8q-4 12 -27 19l-19 -13q-7 1 -4 3q4 2 4 3q-26 -6 -55 -8q-25 -2 -54 -1l-145 9q-45 2 -66 -16l48 10q33 4 33 -4q-93 -13 -150 4q-39 -11 -73 -11q-27 -1 -39 5q-19 -8 -70 -6q-48 3 -48 8q12 6 30 5t24 1
q-13 5 -45 3l-28 -1q-18 0 -36 4q6 0 -3 3q-5 1 -11 -5q-3 -6 32 -9l37 -3l-118 -2q-21 0 -37 -1q-85 -3 -145 -15q-36 0 -86 2l-185 10q-50 2 -86 2t-50 -2q-17 -3 -38 -10l-17 -6q-14 3 -25 2q-13 0 -6 -4q38 2 46 -5q134 14 244 -2q0 2 18 1l724 12q0 -6 12 -9q9 -2 2 -8
q35 11 74 13l182 -3q83 1 129 -10q36 -8 54 -8q35 10 39 11q10 2 29 -3q9 -2 41 0q24 6 49 4l84 -6q18 -1 34 -1q47 0 73 9l-128 -2q-22 -1 -39 -1q-90 -1 -141 1q12 1 26 2l83 7l201 -1q123 0 202 11q2 5 -13 3l-23 -3q6 4 33 5q29 3 43 9q-8 4 -50 2l-85 -4q-3 4 -17 4
l-27 -1q-36 0 -33 18q62 -6 49 0q-40 -3 -144 -27zM-2417 -341q3 0 14 -3l17 -6q21 -5 18 3q-34 8 -57 8l-17 -2l-16 -2zM-4143 -359q-14 -10 -36 -6q-24 3 -36 -2q75 -19 113 -6q0 -4 -41 14zM-4387 -367q30 -10 74 -8q11 0 32 2l24 2q-27 4 -72 5q-38 1 -58 -1z
M-4501 -365q57 -20 114 0q-19 2 -49 1zM-1946 -453q-34 -1 -76 -3l-67 -2q-77 -2 -138 -5q23 9 75 10h44q24 0 39 2l37 2h36zM-2925 -457q-20 -8 -49 -7h-11h-12q-12 1 -23 -1q0 2 43 6t52 2zM-3070 -496q-5 -2 -22 -2h-35q-45 -2 -55 -17q-20 4 -39 1q-22 -3 -39 -1
q6 4 23 3q16 -2 18 4q12 0 30 4q3 1 8 2l25 6q20 4 38 4q23 1 48 -4zM-3264 -508q0 -8 -32 -3q-10 1 -30 5l-29 6q13 3 38 -1l12 -2q7 -2 13 -2q15 -3 28 -3zM-3373 -496q-21 -4 -44 -6q-14 -2 -37 -3l-33 -2q-17 -2 -31 -6q26 12 59 14l37 1q28 1 49 2z" />
    <glyph glyph-name="grave" unicode="`" horiz-adv-x="2220" 
d="M1348 164q23 -12 19 -27l-4 4q-1 3 -2 4q-3 2 -8 2q0 11 -19 15q-10 2 -14 5q-7 4 -8 11zM1380 194q-1 -1 -3 -2l-4 -2l2 6q1 5 -2 9q19 -3 19 -15q-8 4 -12 4zM1420 127q12 -6 21 -12q10 -7 16 -17q54 -17 86 -37q-9 -7 -27 4q-2 1 -7 5q-6 4 -7 4q-8 6 -14 8
q-2 0 -2 -3t-2 -3q-7 0 -14 3l-24 12q-7 3 -13 3q-2 11 -10 18l-38 21q-10 6 -12 14zM1345 217q-11 4 -11 -8q-12 4 -12 18q4 -1 10 -2l11 -1q12 -2 16 -9q-1 -2 -14 2zM960 696q6 4 -4 4q15 21 47 42l27 15l22 11q76 61 174 113l-6 -6q-6 -4 -13 -7l-54 -47l-21 -20
q-4 0 -8 3l-5 3v-14q-13 -3 -25 -12l-18 -13q11 23 37 27q-30 0 -37 -21l-31 -14q-16 -8 -24 -15q-3 3 -17 -7q-13 -10 -14 -7l-6 -24q-8 -4 -15 -11l-10 -11q-2 -3 -3 -4q-8 -9 -13 -13q-9 -6 -18 -9q2 11 16 23zM1115 349q11 -7 11 -15q-7 2 -16 8t-15 8q8 6 20 -1z
M1482 1133l-10 -5zM1968 -34q-5 -7 -5 -9q0 -4 6 -4q0 -6 -9 -6t-9 6q2 5 10 10q6 4 6 8q5 -1 1 -5zM2322 1151q6 -21 2 -27q0 -24 -13 -61q-22 -9 -22 -16q-17 -5 -21 0l-127 -31q-80 -19 -135 -27l-67 -6l-21 -4q-46 -14 -43 -61q0 -7 4 -23l4 -21q8 -31 23 -70l44 -106
l14 -34q14 -37 22 -66q16 -30 34 -78q3 -9 8 -21l25 -67q3 -7 8 -18q1 -4 4 -9l21 -50q20 -49 23 -76v-39q1 -21 12 -29l-3 -4q-2 -3 -3 -5q-2 -6 2 -18q3 -9 8 -9l8 -1q3 -47 -6 -86l-3 -2q-3 -1 -4 -2q-6 -2 -9 -2q2 -5 0 -20l-2 -19q-3 -2 -5 -10l-8 -19l-78 -69
q-8 -8 -17 -11q-6 -2 -13 -2q-8 -11 -15 -15q-10 -5 -22 -1q0 6 9 7t9 9q-6 2 -16 0q-12 -4 -14 -12q-4 0 -13 6q-4 1 -7 -2l-5 -2q-16 6 -40 11l-41 10q-49 12 -75 32q-22 -9 -28 7q-14 -6 -31 8l-3 3l-10 9q-7 6 -14 6l-6 -2q-4 -2 -4 0q-9 1 -20 4l-66 23q0 4 4 6
q42 -1 103 -23l112 -41q0 -12 15 -12q20 4 56 0l60 -6q4 -3 0 -5q-6 -3 -6 -5q14 -13 38 -7q6 1 18 6q11 4 16 5l12 18q-3 12 -13 18q-11 6 -24 1q-6 1 -10 5l-6 9q-10 -4 -22 1q-9 4 -17 11q-77 21 -157 52q-65 25 -145 62l-141 67q-90 44 -147 69l-5 16q-4 9 -13 9
q-3 -4 -1 -6q3 -3 3 -4q-4 -4 -6 3l-2 13q-46 8 -104 39l-35 20q-7 3 -12 6q-27 15 -46 23q-4 6 -2 10l2 6q-5 0 -12 2l-13 2q-8 2 -14 3q-8 2 -16 2q-3 -5 4 -5q8 -1 8 -4l-1 -10q0 -7 -3 -8q6 -6 20 -12q13 -6 17 -11q-4 -4 -10 -1l-11 5l-3 -3q-1 -2 -2 -3q-3 -4 -7 -4
q12 -12 24 -14q0 -9 -6 -9q-7 0 -12 5q25 -28 98 -62q74 -33 99 -61l-38 21q-12 7 -22 11q-12 5 -24 5l24 -21l-21 6q-5 1 -8 2q-21 6 -28 13q1 6 8 4q9 -2 12 0q-31 28 -82 45q-9 -18 -12 -2q-2 4 0 3l8 -1q-9 9 -27 17q-6 3 -16 7l-16 6q-38 15 -45 35q-5 -2 -8 0l-6 3
q-5 -1 -1 -3q6 -2 3 -6q-24 3 -52 43q-19 23 -30 52l4 5q2 3 2 7q7 -1 11 -6l7 -6v10q11 1 17 -5q7 -6 16 -5q-1 5 -5 10l-9 8q-13 11 -13 25q9 -9 25 -9q3 11 0 22q-2 8 -9 19l-12 20q-7 12 -10 21q10 -7 19 6q48 -10 133 -12l67 -2q37 -2 64 -6l70 -10q57 -3 116 -19
l17 -2q49 -6 112 -20l103 -23h20l37 -12q71 -15 178 -49l80 -23l-126 453q-18 61 -21 100q0 57 34 115q36 23 92 34q41 8 110 13l112 7q62 6 100 20q-9 4 -21 6l-23 4q-15 2 -22 3q-12 3 -20 7q-310 6 -592 -94l2 6l-21 -6q-2 -1 -3 -1q-17 -7 -21 -3l-4 -3q-4 -3 -6 -4
q-8 -4 -12 1q-30 -33 -86 -56q14 -3 37 0l18 4q11 2 18 3q-25 -13 -54 -24l-52 -19q-32 -11 -48 -17q-25 -10 -44 -20q0 3 3 6q4 3 5 4q0 4 -3 3l-5 -1q-3 2 1 4l5 2q-10 0 -15 -3q-1 -1 -4 -3q-2 -2 -4 -2q0 -4 2 -2l3 2q-10 -17 -37 -25q3 4 11 8t9 7q-8 2 -18 -8
q-7 -9 -15 -25l-46 -29q-34 -19 -52 -39q-2 4 0 15l2 12q-15 -17 -45 -40l-53 -42h6l-61 -43q3 9 22 20l16 10q10 5 15 9l-23 -2q-15 -21 -55 -45l-32 -20q-18 -11 -29 -21q1 -2 6 1t12 1q-1 -7 -12 -13l-8 -5q-5 -3 -7 -7q0 6 3 12q3 5 3 11q-18 -12 -41 -31
q-14 -13 -41 -38q-56 -54 -83 -72v6l-21 -19l-27 -16v6q-2 -1 -5 -7l-3 -6q-1 -1 -2 -3l-1 -3q-8 -14 -9 -8l-3 -9q-1 -5 -7 -9l40 36q27 24 52 32l-70 -62v6q-7 0 -10 -6l-1 -6l-3 -4l2 6q-5 -14 -23 -14q-3 0 3 3q8 6 8 9l-47 -29l10 5q8 6 14 6l-19 -23q-9 -10 -12 -18
q0 -2 7 -1l10 1q4 0 3 3l-1 7q4 2 16 2l-1 4q-1 6 -1 5q-1 5 2 7l31 6v-4q0 -12 -10 -18q7 0 13 12q5 10 5 17l14 6q8 3 5 8q10 -2 2 -15q-8 -12 -17 -16q-4 -6 2 -6l-45 -18q-7 -16 -22 -13l-4 -14q-4 -6 -4 -10q0 4 -5 4q-1 -4 1 -5q1 0 -1 -1q-14 -15 -42 -35l-23 -17
q-14 -10 -23 -17q-55 -44 -73 -95l18 10q1 -5 -14 -10q-16 -5 -17 -8q0 -3 18 -27l21 -29q0 -16 -6 -53q-22 -35 -65 -55q-31 -15 -78 -25q-19 -15 -54 -22l-55 -11l-44 -19q-24 -10 -42 -11l-11 -2q-8 -1 -15 -9q0 -3 6 -3q6 -1 6 -3q-9 0 -37 -6l-6 12q-5 8 -12 11
q3 1 5 7l3 11q-6 7 -17 12l-18 10q-21 11 -23 27l-13 7q-11 5 -11 14q-32 3 -22 37t42 18q40 30 88 68l84 68q51 42 84 68l88 66l101 83q68 53 102 89q9 -3 12 0q-8 3 0 7q6 4 13 4q4 2 0 6h18q2 2 -2 6q-3 4 6 8l3 2q1 1 3 -2l126 99q71 54 132 96q1 -2 0 -4q-2 -1 0 -2
q9 1 19 8q8 7 12 12q5 3 7 1l1 -3q4 0 4 18q1 0 1 -5l2 -5q11 22 41 44l27 20q9 6 14 10l32 28l39 21q11 6 16 12q9 9 15 11l22 6l15 18l35 25q22 22 67 45l6 6q6 6 19 6l45 31v10q2 -7 5 -5l5 5v-6q17 12 41 25l76 44l82 31q0 17 6 17v-6q8 4 9 7l1 7q157 90 315 165
q167 79 336 140l-170 -92q-15 -20 -36 -31l-31 -16q-7 -3 -13 -6q-8 -19 -34 -37l-48 -33q4 -3 9 1l-47 -29q-37 -24 -52 -46q3 8 -2 6q-6 -3 -6 -6q4 -4 9 -2l3 2q109 29 227 41q143 14 249 -4l54 -22q34 -15 54 -31q11 -16 17 -37zM1263 1053q0 -2 4 0h-4zM1156 991z
M1152 979q3 0 4 2l2 4zM1164 973q-11 0 -18 -3q-10 -3 -14 -12q0 -4 6 -4q3 6 12 11zM984 860q0 -6 2 -10q4 5 15 13t14 11q2 5 -4 5q-10 -5 -17 -10zM1459 1092l-14 -7q-11 -5 -15 -7l-51 -27q-58 -29 -131 -78q-66 -43 -120 -86q-7 -4 -18 -9l-10 -3q-7 -3 -9 -4
q-20 -7 -13 -11l-17 -12q-10 -7 -13 -19l68 48q40 28 73 47q48 33 138 88zM1476 1126q8 8 24 16l32 14q43 20 56 38l-6 -6q-17 0 -38 -10q-9 -3 -19 -9l-19 -11q-48 -28 -67 -25q-7 0 -5 -2q5 -3 5 -5q-17 -6 -48 -27q-14 -9 -21 -13q-12 -7 -21 -9l-6 -2l-17 -13l-10 -4
q-7 0 -12 1h-4q-4 0 -12 -7l-7 -8l-39 -18l-37 -29l-6 -12h-6q-2 -1 -5 -4l-5 -4l-5 3l-9 3v-12q-10 -3 -22 -15q-6 -6 -9 -8q-5 -4 -10 -6q0 2 2 4l2 2h-4q-9 -3 -9 -6l-24 -12q-4 -2 -10 -19q-6 -8 -24 -17l-26 -9v-4q-6 -2 -13 -9l-26 -24q-8 -6 -16 -6q0 6 4 6
q-6 0 -9 -2q-5 -4 -9 -15v11q-4 -9 -15 -16q-9 -6 -8 -9q-3 -6 -5 -9q-3 -5 -3 -1q-8 -17 -31 -31l-37 -20l-1 -6l1 -7q-9 -6 -18 -6v-4l-19 -11q-17 -9 -18 -26q-5 -2 -14 -4l-16 -4q-17 -5 -17 -16q-3 -3 -4 -1q-1 5 -4 5q0 -8 3 -10h5q-1 -6 -10 -13q-10 -7 -4 0l-54 -42
q-10 -9 -18 -19l67 53q39 30 72 45v6l37 35q62 23 141 82l49 37q9 7 16 12q39 29 67 47q11 0 22 19q68 34 166 97l81 52zM941 457q5 2 4 8l-2 10q-14 7 -18 -2q6 -2 10 -8zM1901 -62q12 -1 17 9q-5 3 -14 3q-10 -1 -15 1q0 -12 12 -13zM1142 458l11 -2q15 -1 22 5l-24 2
q-12 0 -19 -6q4 1 10 1zM1946 160q5 44 -1 86q-2 24 -8 60l-13 63l-87 21q-50 11 -79 11q-6 7 -16 7l-14 6l-140 12q-6 4 -18 4q-77 3 -162 12h-61l-61 10q-22 1 -38 -1q-7 5 -28 7l-37 5q-4 -4 -3 -7l1 -7l-6 2q-5 1 -8 1q-9 2 -9 -3q29 0 43 -19l-5 -10q-4 -6 -9 -6
q-2 2 0 9q2 5 -4 7l-15 -6q-10 -3 -10 -10q6 -4 12 0q5 2 5 0l-3 -2q-3 -2 -3 -4h9q4 1 5 -2l-2 -13q7 -5 14 -8q8 -4 17 -4q-3 -6 -1 -10l3 -6q11 0 23 -5q11 -4 20 -4l4 -10l18 -7q10 -5 21 -5q39 -29 101 -62l112 -55q159 -86 362 -147l-4 4q24 2 47 14q22 17 28 72z
M1920 652q-3 -3 0 -5l40 -116l16 -45l28 -74l8 -6q-12 38 -33 92l-34 92q0 -2 4 -1t2 7l-10 32q-7 19 -17 29q0 -2 -4 -5z" />
    <glyph glyph-name="a" unicode="a" 
d="M1104 684h19l34 -58q0 -68 -178 -163q0 -8 -78 -54q0 -20 -159 -150q0 -26 -67 -75q-24 -40 -34 -40l-62 -93h-15v4l43 84q-70 -81 -96 -217l-5 -57l5 -5h5l-5 -4v-18q8 -49 53 -49h24q52 9 125 36q0 -21 -144 -67l-34 -4q-72 0 -72 120q0 163 178 398l34 62l-154 -93
l4 -4l-231 -124l-140 -84q-48 -18 -48 -31q-64 0 -106 97v4q5 58 294 266q91 53 111 53q108 103 482 217l188 45l19 -5zM386 237h4l295 168v4h-5q-152 -77 -294 -172zM554 46h20l-10 -9z" />
    <glyph glyph-name="b" unicode="b" horiz-adv-x="862" 
d="M1784 1767q25 -10 25 -17q-290 -234 -368 -309q-260 -248 -545 -545q-34 -23 -113 -105h8v-4q-26 -29 -50 -29v-4h9v-9l-21 5v-5q0 -12 -42 -46q0 -6 -42 -29q-23 -39 -71 -88h4q425 113 481 113v-8q52 17 88 17h51q106 -7 125 -59q17 0 25 -71q-16 0 -16 -9l8 -8v-4
q0 -42 -59 -59q0 -17 -25 -33l-33 4q-77 -46 -105 -46l-188 -71l-5 4h-4q0 -13 -16 -21h-9v8q13 0 13 9l-423 -134q-53 -30 -172 -59q0 -15 -75 -34q-164 -113 -176 -113h-13v-8h-4q-12 0 -29 29l4 21v21l-17 4l-4 42q11 3 46 67l134 147q0 19 172 180q189 211 289 306
q0 13 71 83q392 418 603 628l163 134l4 -12q95 71 134 71q98 46 168 46zM1110 1277h4q78 68 134 134h4l4 -4h4l181 163h-9v9q39 0 92 79h-4q-55 -28 -92 -63q-48 -27 -67 -67q-57 -30 -75 -71q-21 -8 -21 -25q-22 0 -122 -113q-8 0 -8 -12zM1072 1248v-4h8l13 16v5l-17 -17
h-4zM310 205h4q340 151 687 348h-9l-134 -34q-89 -54 -154 -54q-13 0 -13 -13q-95 -31 -180 -83q-18 0 -109 -72q-39 -24 -92 -92zM255 389q0 -8 -12 -8l-4 -4v-4h4l17 16h-5z" />
    <glyph glyph-name="c" unicode="c" horiz-adv-x="699" 
d="M812 704l76 -116q38 -42 40 -68q0 -55 -48 -64l-68 32q-89 -24 -220 -80q-115 -71 -220 -112l4 -4v-4q-9 -14 -128 -92q0 -14 -60 -40q-11 -20 -24 -20l-4 4h-4q-24 -8 -24 -16v-4h4q67 0 512 184q546 244 568 244q-88 -78 -196 -132q-14 0 -56 -40q-32 -1 -148 -72
q-165 -70 -208 -124q-28 0 -112 -68q0 -8 -20 -8v4l-4 -4h-4l-12 8q-9 0 -64 -48q-138 -64 -232 -64l-100 20q-60 45 -60 76v8q0 130 452 428q123 82 332 164z" />
    <glyph glyph-name="d" unicode="d" horiz-adv-x="865" 
d="M1957 1564q35 0 59 -34v-16q-30 -93 -168 -210q0 -9 -42 -51q0 -18 -176 -164l-345 -310q-155 -122 -193 -168l-223 -177q-66 -62 -155 -130q-14 -34 -21 -34l-4 5h-4l-101 -177q-30 -60 -38 -109q-10 0 -42 -139l13 -46l-5 -4h-4q-46 49 -46 113q0 75 59 252h-4
q-285 -176 -349 -176q-106 17 -151 55q-17 32 -17 50q24 133 281 336q325 204 525 256l68 -33q124 166 260 327q0 14 92 88q95 100 185 181q30 43 240 189q211 126 306 126zM1541 1262v-5q17 0 17 -8q0 -10 -50 -29v-5h-30l5 -21q-30 -8 -51 -37l9 -9q-19 -24 -101 -54
l-114 -101q-43 -61 -67 -67q-2 -17 -12 -17v-13l4 4h4v-4l-63 -59q-12 -24 -59 -54l-25 -30q-25 -21 -92 -117h-5v4l21 38h-4q-8 0 -50 -63l12 -4l17 21q0 -14 9 -21v-5q222 189 327 257q331 256 630 554l13 25h-4q-74 -15 -198 -105l-101 -59zM1394 1152v-4h17l13 13v4h-4z
M1105 900l-30 -37h4l30 37h-4zM937 690h8l29 42v5h-4zM962 674v-5l-9 -8v4zM953 661v-4l-29 -30v9q0 7 29 25zM890 594h5l8 8v4zM256 182h4q270 160 370 240h-4q-98 -32 -286 -164q-13 0 -84 -76z" />
    <glyph glyph-name="e" unicode="e" horiz-adv-x="744" 
d="M818 693h42q37 0 96 -33q29 -6 29 -30q0 -14 33 -46v-20l5 -38l-5 -4v-4l13 -55l-33 -21l-30 5h-12q-199 -37 -451 -138q-180 -82 -363 -184v-4q0 -8 12 -8q179 21 397 79q210 58 371 121q0 -6 -91 -42q-172 -87 -460 -192q-24 -29 -121 -41q-81 -38 -171 -38
q-42 0 -62 29l-4 -4h-5l-8 8v34q0 132 209 309q35 21 50 21v-5q-26 -25 -38 -25l9 -12q-67 -52 -67 -59h4l230 184v4l-67 -37h-9q28 33 38 33l-4 4v4q136 116 279 163q82 42 184 42zM526 451v-4h4q138 50 276 83v8h-17q-71 -1 -263 -87z" />
    <glyph glyph-name="f" unicode="f" horiz-adv-x="497" 
d="M2412 1896h5q52 -32 52 -123l5 -19q-3 -43 -38 -43q-46 -95 -76 -95l-47 -38l-29 -23q0 -19 -61 -43q-30 -31 -81 -52q0 -12 -95 -67q-21 -24 -123 -85q-182 -142 -213 -142v5q80 81 370 308q122 113 175 185q-27 0 -71 -53q-64 -17 -175 -71l-5 5h-5q-177 -88 -422 -237
h-9l61 47l-4 5q132 67 132 90h-4q-73 -25 -375 -251q-128 -95 -128 -114q-28 -41 -241 -208q-79 -68 -105 -104h5q307 47 711 80v-9h-5q-119 0 -379 -86l-76 -9l5 -5v-9h-10v9h-23l4 -5v-9h-9v9h-19l5 -4v-10h-19v10h-14l4 -5v-10h-4q-346 -54 -346 -90q-403 -369 -403 -398
l-5 -14h5q14 0 227 104v-9l-204 -142q-123 -138 -222 -171h-5q-23 0 -66 52q-53 65 -53 81q122 164 403 464h-4q-327 -98 -327 -114q19 -14 47 -14v-9h-28l-24 -5q-76 0 -76 76v38q0 19 280 90q289 60 289 85l85 62q197 177 318 260q139 116 222 171l195 152l317 199
q467 241 503 241q120 67 203 67zM2247 1777l9 -9l9 14h-4zM1228 1199v5q-72 -23 -72 -81q-37 -15 -37 -23v-15h4l38 34q17 0 190 137q253 177 407 265q73 37 100 62q18 4 38 24h5l4 -5q39 17 71 47l15 -4l194 90l-5 4v5q57 17 57 29h-5q-234 -94 -355 -166
q-148 -66 -266 -152q-12 0 -123 -76q-144 -97 -199 -147q-11 0 -24 -23zM2047 1739v-4h5l14 4v5h-4zM1953 1692v-5h4l48 24v5h-5zM1924 1678l-5 -5v-5h5l14 5v5h-14zM1853 1640v-5h5l43 19v5h-10zM1744 1559h5l99 52v5h-14zM1754 1583h4l38 19v5h-4q-38 -17 -38 -24z
M1616 1502v-4h5l43 28h-5zM1559 1469l-4 -5v-4l14 4v5h-10zM1455 1398v-5h5q21 10 23 19v5zM1185 1204v-5h5q51 25 52 33zM1133 1161q0 -9 -14 -9l-5 -5v-5h5l23 14v5h-9zM1057 1057l52 33v5h-5zM1038 1024v-5q21 8 33 28h-5zM953 1014h4l24 14v10zM910 995v-4h5l14 4v5h-5z
M1635 858h33v-10h-33v10z" />
    <glyph glyph-name="g" unicode="g" horiz-adv-x="897" 
d="M887 685h9q91 -25 91 -110l-5 -15h5q37 12 128 65h5q22 0 33 -149q0 -12 -95 -95q-26 -66 -309 -344q-120 -106 -204 -194q114 -20 242 -60q48 0 204 -50l100 -30q92 -44 143 -49q4 -14 119 -65q128 -81 128 -155v-10q0 -67 -138 -124l-81 -25q-38 0 -380 -65v15
q32 15 333 90q185 73 185 104v25q-11 65 -43 65q-36 37 -123 75q0 42 -380 139l-186 40l-19 -5l-81 20q-42 -7 -42 -20l-15 5l-62 -5l-23 5l-205 -154q0 -22 -80 -60q-139 -95 -333 -209l-262 -140q-39 -10 -261 -109q-157 -27 -157 -45q0 -11 -52 -20l-5 5l5 5v15
q-60 -40 -157 -40q-24 0 -24 10l-133 -30l-128 15q-29 -5 -29 -15l-195 25q-209 63 -209 115q-64 59 -71 109q-24 7 -24 15l5 25h9l5 -5h5v10h5l-10 30q31 77 81 104q172 126 337 195l176 65q553 144 737 144l57 10l19 -5l33 15h5l14 -10h29q2 20 14 20l162 10l52 -5l62 10
q380 -10 380 -20q58 8 418 394l24 34v5h-5l-309 -154q-165 -86 -237 -100l-114 -25q-57 0 -86 80v10q11 38 224 194q540 399 689 399zM454 341h5l418 190l5 5v5h-5q-230 -52 -423 -200zM-154 -157v-5h24v10zM-192 -157l5 -5v-5l-5 -5v-5h14l5 20h-19zM79 -162q0 -15 -62 -15
v-5h33v-10l-24 -5h-147l-24 -5l-4 5v5l-24 -5l-43 5q-19 -10 -52 -10h-53l-23 -20h-10v15l-157 -10v-5h24v-10q-371 -46 -371 -74h-33q-60 -25 -314 -90q-98 -35 -180 -80q-35 -1 -152 -90q-19 -27 -105 -79l-33 -30l4 -15q-53 -56 -61 -80l85 -55l33 -15l5 5h5
q164 -54 261 -54q364 0 538 74q171 43 209 80q309 137 637 364q191 142 214 184v10l-19 5l-53 -5l-4 5q0 -10 -15 -10l-19 10l-47 -10l-15 5v10h10v5h-14zM-102 -172v-5l24 -5l14 5v5h-38zM-611 -227v-5h10l28 5v5h-23zM-706 -237v-10q25 0 29 15h-5zM-881 -242v-5h14l14 5
v5h-5zM-753 -242v-5h24v5h-24zM-801 -252v-5h19v5h-19z" />
    <glyph glyph-name="h" unicode="h" horiz-adv-x="876" 
d="M1563 1640h13q122 -97 122 -131v-16q0 -15 -86 -28q-102 -41 -510 -429q-175 -167 -232 -236q-15 0 -379 -384v-4h12q457 273 526 273q25 33 41 33q73 -80 94 -139v-4l-139 -98q-310 -245 -388 -416v-4q0 -27 29 -57v-8l-8 -8l-4 4l-33 -8q-74 32 -98 57v4q12 0 12 8
l-4 16l37 82q0 56 175 277v4h-4q-151 -59 -424 -277q-3 -10 -90 -78q-156 -171 -167 -171l-49 -8q-38 0 -61 49q0 24 24 33l-4 4v12q82 89 225 273l310 359q198 227 379 416l237 229q296 292 416 355z" />
    <glyph glyph-name="i" unicode="i" horiz-adv-x="503" 
d="M1242 1004v-9q-86 -44 -142 -92q-11 -45 -44 -45l5 -22q-21 -40 -89 -57l-115 -45q-116 -39 -141 -39q-48 0 -62 26q-49 90 -49 111q92 41 203 53q321 97 434 119zM605 681q61 -27 111 -97l8 -27v-4q-32 -49 -150 -115l-142 -106q-68 -47 -84 -67q-32 -19 -48 -39
q-57 -48 -111 -120q-22 0 -22 -22l-9 -13h4q100 39 531 376v-9q-66 -75 -221 -195q-14 -23 -208 -199q-54 -44 -88 -44q-22 0 -22 9l-5 -5h-4q-71 23 -71 67q0 87 230 336q221 216 301 274z" />
    <glyph glyph-name="j" unicode="j" horiz-adv-x="344" 
d="M1239 1104v-8q-59 0 -192 -84l-96 -52v-4l4 -4q-17 -21 -132 -60l-4 -4h-4l16 -60v-8q-7 -14 -24 -20q-136 0 -136 76l-24 44v8q0 8 16 8l4 4l40 28q115 52 496 136h36zM595 812h8q12 0 32 -60q24 -29 24 -76q0 -59 -76 -116q-10 -20 -204 -192l-240 -216v-4l32 -8l8 8h4
l-4 -4v-8q114 -28 212 -64v-8l-16 4h-4v-4l80 -32h4v4h-8v4h12q17 0 56 -32h-12v-4q9 0 88 -64v4q-40 40 -76 60v4h4q35 -5 132 -120q36 -70 36 -120h-8q0 54 -48 132h-8v-4l28 -40l-4 -4v-4q16 -47 16 -96q0 -88 -48 -136q-5 -28 -12 -28l-4 4q0 -12 -16 -20v4
q60 94 60 180q0 72 -68 160l-100 80h8q-1 9 -36 24h-4v-4l16 -4v-8q-195 68 -236 68h-28v-4l76 -16v-8l-136 12h-48v-4l68 -8v-8h-16q-28 0 -28 8l-4 -4h-4l-4 4l-4 -4h-12l-4 4l-4 -4h-4l-56 4h-4q-10 -10 -60 -28q-62 -58 -416 -276q-283 -166 -464 -248l-40 -16l-20 4
q-45 -28 -68 -28l4 -4v-8l-148 -52v4q-78 -36 -224 -52q-93 0 -108 36q-5 21 -64 76l16 12l-4 20q58 66 292 256q205 141 372 208q474 188 784 188h48q185 129 552 492q58 62 104 128l-4 4q0 52 32 52zM603 556v-4l-20 -20v4zM567 516v-4l-124 -124h-4zM423 376h4l-64 -64
h-4zM327 284h4l-32 -32h-4zM263 224h4l-20 -20h-4zM215 180h4l-20 -20h-4zM-237 88v-4h4q100 0 100 20h-4zM-393 72v-4h4l120 12v4l-36 4q-64 -5 -88 -16zM-693 -40l-8 8q-207 -66 -308 -132l-8 -8l4 -4v-8l-4 -4v-4h4q23 19 44 20v-8l-112 -60v12q-183 -119 -200 -140
q-147 -142 -152 -176h4l32 4v-8q37 0 44 20l20 -4q210 52 228 76q64 7 64 28q0 5 116 48l240 128q246 142 484 304v4h-4q-211 0 -488 -96zM463 4h12v-8h-12v8zM-1185 -208q27 11 36 24q-27 -11 -36 -24zM639 -324v-4h4l8 40q-8 0 -12 -36zM-1417 -548v-4h16v4h-16z" />
    <glyph glyph-name="k" unicode="k" horiz-adv-x="1099" 
d="M1998 1974l-223 -211q0 -12 -80 -84q-2 -35 -213 -232q-111 -89 -128 -89l-57 -58v-11l5 6h5l4 -6v-5q-13 -4 -56 -58q-12 0 -43 -42h5q10 0 128 111q14 0 14 15l38 22v-6q-48 -39 -71 -79q-32 -14 -43 -31l24 -6l161 153h4v-5q-102 -99 -189 -200q-12 0 -24 -37
q-20 0 -80 -74q-103 -93 -213 -221q-65 -51 -171 -179q-20 0 -75 -73l-19 -16q159 42 719 142q35 0 52 -158v-5q0 -28 -18 -37l-67 5l-38 -15l-61 10q0 -19 -142 -53q-64 0 -313 -57l-23 5q-133 -16 -308 -53q-24 0 -24 -26h5l265 -69q125 0 516 -121v-10q-306 31 -398 31
l-66 -5l-14 5l-10 -10h-198q-40 -26 -109 -26l-14 5q-16 -9 -114 -21q-109 -148 -109 -200h5l128 105h4l10 -10q-49 -90 -161 -242q-22 -21 -48 -21q-56 0 -80 68q-90 79 -90 116q0 15 185 300q-24 38 -24 58v57l-5 21q0 116 166 153l90 26q48 0 71 48l275 305
q88 105 104 105v-10h4q26 13 38 42v5h-9q80 106 203 205q141 157 223 200l151 137v11q35 13 76 52l-5 5v6q0 9 100 84q170 159 355 253zM1520 1584l-261 -231l-104 -111h5q84 89 365 342h-5zM1245 1363l-23 -31h4l24 31h-5zM1203 1221q42 23 52 42q-30 -16 -52 -42z
M919 1037v-5q37 0 217 194h-4q-60 -69 -109 -84zM1198 1179l-5 -16h10l4 16h-9zM781 895v-6h5l52 53h-9zM701 484v-5l19 -5h4v5l-19 5h-4zM630 463v-5l4 -16h-4l-33 -10l-19 5l-15 -21h5q110 10 208 37v10l-56 -16z" />
    <glyph glyph-name="l" unicode="l" horiz-adv-x="301" 
d="M1259 1457l4 -4v-4l-20 -8v-4h4l52 12q12 0 20 -76l-52 -84q-181 -164 -248 -244q-16 0 -64 -52l4 -4v-4l-64 -48q-25 0 -108 -96l-152 -160h-4v12l24 28v4h-4l-24 -28q0 -24 -32 -24l4 -4v-4l-8 -8h-24q-36 -59 -208 -240q0 -8 -100 -84l-12 -32v-4q16 3 132 128h8v-4
q-106 -108 -140 -168q-24 -9 -24 -28h8q0 -37 -72 -96v-12l8 -8l176 132q26 16 40 16v-4q0 -17 -36 -48q-195 -174 -244 -228q-81 -68 -96 -68h-4q-59 0 -112 112l-12 16q0 75 984 1060q352 350 372 352zM1243 1353q-20 -12 -76 -76q-8 0 -48 -44q-16 0 -148 -132
q-26 -44 -48 -44q0 -41 -72 -64v-4h8v-4q0 -10 -60 -48q0 -25 -168 -176l4 -4l-124 -124h8q111 73 112 92l28 28q11 0 72 76q11 0 156 144l176 176q8 0 40 48q18 0 72 60q39 23 64 60l4 4l-4 4v4l-4 -4h-8v4q12 20 24 20v4h-8zM711 913v-8q23 12 148 148l16 8v4h-4
q-17 0 -160 -152zM579 633v-4q-172 -182 -172 -192l-4 -4h-8v4q0 22 144 160q3 16 40 36z" />
    <glyph glyph-name="m" unicode="m" horiz-adv-x="1214" 
d="M926 1028q-118 -98 -138 -146q-7 0 -73 -90q-18 -11 -26 -31h5l17 18v-5l-120 -129h4l51 43v-4q-89 -112 -154 -172l4 -4v-5l-86 -111v-13h9q197 120 503 357q0 6 34 17l4 -4h5l25 8q7 0 39 -56q12 0 26 -56l-4 -4v-4l8 -26v-56q180 99 310 151q69 -76 69 -125
q0 -144 -297 -370q-210 -175 -245 -176l-26 -17h-4v4l146 163q127 169 193 232l108 138v4q-149 -66 -396 -210v-5h-25q0 -15 -52 -34q0 -13 -22 -13q0 -12 -34 -21q-60 -52 -73 -52q-9 0 -47 -34q-18 -3 -116 -78h-31q-21 8 -21 39l-22 13q0 43 -12 43q41 30 206 198
q12 0 52 47h-5l-124 -86l-74 -47q0 -11 -43 -39v-9q-37 -3 -103 -73q-59 -34 -150 -125l-52 -30l4 -4v-4l-68 -56l-61 -65l-17 -4v-9h13v-12l-8 -9h-5l-34 17l4 4v5l-8 8l-5 -4l-38 56l4 21l-9 9l5 4v5h-9v4q0 15 43 56q158 206 641 701q271 261 305 262z" />
    <glyph glyph-name="n" unicode="n" horiz-adv-x="961" 
d="M675 772q113 -119 113 -160q-23 -34 -182 -156v-4h9q206 104 489 207q61 26 138 31l43 -69l9 -35q0 -20 -126 -95q-20 0 -47 -35q-59 -32 -78 -52l4 -4v-5q-113 -65 -151 -108l-5 5q-28 0 -199 -148h-4l9 13h-5q0 -10 -121 -103l-69 -74l-4 4q34 76 194 243l277 246
q18 20 18 31q-306 -139 -420 -221q-200 -117 -489 -346h-13l-13 8l-4 -4h-13q-78 54 -87 69q0 25 100 100l497 519q95 86 108 139zM1047 612v-4h13l5 4v4h-5zM922 556v-5h8l35 18v4h-4zM866 525h21l17 18h-4q-34 -8 -34 -18z" />
    <glyph glyph-name="o" unicode="o" horiz-adv-x="658" 
d="M859 701q92 0 128 -103l5 -25q0 -15 -35 -73q-34 -47 -64 -68q-45 -58 -171 -129q-182 -131 -209 -141l-4 5l-52 -26l5 -4v-4q-201 -118 -334 -133q-44 7 -68 34l-51 60v4l12 17q-21 3 -21 13q8 21 81 77h9l-47 -47v-4h8q9 0 77 73l-4 4v4l111 86l30 124q286 227 556 256
h38zM389 312l-17 9q-13 0 -86 -73q-45 -30 -89 -81l12 -9h9q23 0 60 43l4 -4h9q59 0 423 260q108 91 132 133h-4q-126 -32 -346 -188q-66 -53 -90 -86zM406 115v-4h4q35 15 35 22h-5z" />
    <glyph glyph-name="p" unicode="p" 
d="M955 684q162 -39 162 -159q0 -96 -141 -196l-4 4h-5q-168 -90 -265 -117q16 15 16 29v4h-4l-145 -71l-21 5q0 -10 -50 -13q-20 -24 -116 -50l-29 4q-212 -89 -225 -100q-88 -72 -228 -213q-37 -47 -83 -76q-16 -35 -54 -58q0 -24 -403 -426q-248 -249 -250 -259
q-8 0 -20 -17h-25l-21 21q4 35 71 129l49 88l-4 13q140 132 154 184q26 32 54 50q0 19 25 29q0 27 46 63q51 76 99 125q148 137 150 171q9 0 162 147q18 6 179 175q10 0 70 63q0 19 42 37q324 311 324 318q4 33 33 33h17q51 -14 74 -46q245 109 366 109zM253 145h4
q589 253 760 405h-4q-182 0 -569 -263q-69 -36 -191 -142zM-50 28q-473 -478 -528 -560l-79 -92v-4q97 81 166 167q16 0 200 209q175 189 245 280h-4z" />
    <glyph glyph-name="q" unicode="q" horiz-adv-x="972" 
d="M878 698q42 0 88 -64q41 -31 64 -76l64 36h8q160 -44 160 -72q-17 -18 -80 -52q-162 -98 -248 -172q-47 -41 -84 -60q-64 -40 -84 -64q-24 0 -60 -44q-48 -23 -88 -60h12q0 -13 -40 -24q0 -21 -40 -48q-68 -69 -136 -92l-20 -24v-4l4 4l36 -4q175 0 440 36l4 -4l20 4
l368 28q0 -6 100 -20q100 -36 100 -92v-8l-8 -32q40 -4 40 -12v-4q-63 -68 -132 -84l-8 8q0 -24 -28 -24q-40 -28 -56 -28l-8 8q-77 -37 -108 -64l-20 -4q0 7 24 16l-4 12h-8l-12 -8h-4l-4 4h-4q-154 -101 -200 -116l-4 4v4l16 24h-4q-28 0 -148 -76q-20 0 -68 -20v4
q0 8 24 16v8q-11 0 -72 -40l-52 -16h-4v8q40 13 40 24h-4q-53 -15 -84 -36h-4l-4 4h-4q-18 0 -172 -84l-16 -4l-4 4h-4q-72 -40 -264 -108h-4q0 6 32 20v4h-4q-56 -23 -104 -56l-4 4h-4l-108 -68h-16v12q-152 -100 -168 -100h-4v4l12 16h-4q-72 -27 -172 -104q0 -28 -44 -40
v4l4 4v4h-8q-14 0 -28 -32h-4l-4 4q-28 -12 -40 -32v-4h8q-194 -167 -196 -184q-32 -76 -88 -76l-4 -4h-4q-37 9 -56 28l-4 -4q-7 14 -56 40v24q27 17 88 96q150 149 712 748l272 264q0 12 24 20l44 56q-96 7 -96 16v4h36l44 -4h4v4l-72 8v8l132 -4v4q109 117 204 188
l180 140v4h-4q-101 -62 -240 -124q-242 -108 -268 -108q-74 51 -112 92q0 33 48 76l4 -4q25 52 80 72q13 36 36 36q264 228 564 376q16 0 128 52zM246 174v-4h4q489 249 684 332v4l-68 16q-107 0 -520 -284zM366 -158h-4q0 -24 -52 -24q-140 -120 -552 -516h8v-4l-68 -72
l-68 -76h4q354 178 892 368l188 56v-4q157 60 376 128q65 36 124 48q47 26 48 36q22 0 32 16h-324v8l32 8v4h-16v8l16 4v4l-88 8l-156 -4v8l-228 -12v8h20q41 0 84 12v4q-178 -16 -268 -16zM1170 -290q85 22 124 60h-4q-100 -43 -120 -60zM946 -366v-4h4l172 64l4 -4h4
q0 10 16 12v4h-4zM1090 -386v-4q94 25 96 44v4q-93 -30 -96 -44zM738 -434l4 -4v-4l128 44v4h-4zM1130 -414h8l-12 -12h-4v4zM654 -466v-4h12q19 0 68 28v4h-4zM854 -450v-4h8q28 10 28 16h-4zM-394 -850h4q29 43 96 100h-8q-89 -82 -92 -100z" />
    <glyph glyph-name="r" unicode="r" horiz-adv-x="710" 
d="M1109 742q40 -3 40 -12l-4 -3h4l12 3l8 -11l4 4h4l19 -16l-4 -4h4l16 8l8 -19h-4l4 -4v-12q-26 -30 -166 -100l-8 -8l-4 4q-10 0 -83 -50q-9 0 -79 -51q-39 0 -86 -42q-45 -11 -150 -97l-36 -34v7q180 195 308 286l28 23h-8q-220 -93 -419 -224q-2 -9 -59 -38
q-109 -67 -304 -271q-55 -81 -79 -81q-67 30 -67 39l-8 15l4 4v4l-4 15l300 387q85 110 209 235h4q33 0 131 -131q377 174 465 174zM1078 730l8 -7h16v7h-24zM671 506l-4 -4v-3l12 3v4h-8z" />
    <glyph glyph-name="s" unicode="s" horiz-adv-x="1134" 
d="M1248 752q52 -22 52 -60q12 -14 12 -40v-20q-6 -60 -56 -60h-36q-105 0 -384 -88q-32 0 -204 -80v-4h8l348 16q129 0 232 -28l16 4q72 -38 72 -84q-28 -40 -156 -80l-4 4h-4l-32 -8h-24q-28 -15 -128 -36l-12 4q-46 -20 -100 -32l-4 4v4q-123 -24 -480 -116
q-216 -52 -296 -52q-68 16 -68 28q25 27 268 108q298 96 592 140l220 32v4h-8l-84 -4l-24 4l-356 -44q0 -15 -144 -28q0 -8 -24 -8l-4 4h-4l-20 -4q-96 28 -96 60l-32 36v12q0 44 172 124q355 190 792 288zM248 84v-4h4q355 84 680 184v4h-8l-284 -60q0 -10 -84 -20
l-216 -68z" />
    <glyph glyph-name="t" unicode="t" horiz-adv-x="870" 
d="M1502 1500h51q53 -40 88 -143q9 -17 9 -47q0 -43 -127 -108l-17 -18h4q681 0 850 -86q51 0 51 -87q-11 -2 -21 -21v-4l4 -5v-4l-17 -4v-5q21 0 21 -8q-13 -13 -76 -26l-4 -5l-34 5q-38 -7 -38 -13l-46 4l-98 -4l-21 4l-97 -22l-30 9l-304 -35v9l634 164v5l-139 30l-9 -9
h-8l-9 9l4 4l-33 5l-26 -5l-38 5l-67 -9l-85 9q0 -9 -13 -9l-21 4l-55 -8l-25 4l-144 -13h-4l-26 4l-67 -17v-4h8v-9l-253 -30q0 -13 -30 -13l-203 -156q0 -9 -123 -117q-103 -103 -114 -103q-107 -124 -160 -169q-81 -55 -81 -91q-38 -37 -76 -95q797 441 850 441
q0 -7 -190 -117q-27 -27 -152 -108q0 -11 -60 -34q-23 -32 -139 -104q-20 -9 -26 -30q-134 -79 -219 -169l4 -17q-150 -106 -203 -134q-30 0 -30 17l-17 -13l-21 26q-25 0 -55 35l4 17l-12 35v4q0 39 110 177q116 177 494 584l136 129l-5 13l-55 -4l-4 4h-4
q-34 -11 -194 -21l-17 8q0 -8 -34 -13l-21 -8l-5 -4l-12 -5v13l-34 -17l-38 4l-17 -4l-13 4l-4 -4h-4l-47 9q-53 -31 -76 -31h-4v9l-38 -9l-4 5q-117 -26 -220 -35l-21 4l-38 -8l-72 8h-17q-89 31 -89 91v9q0 39 127 78q188 78 279 82v-9q-59 0 -152 -48q-10 0 -26 -17
q-49 -11 -139 -60l4 -5v-4q-19 -22 -34 -22q5 -17 42 -17l778 104l51 4v-8h-4q-69 0 -123 -31h5l351 39l21 -4q108 76 448 389zM293 1193h21l-9 -9h-12v9zM1861 1107v-5l43 -4h12v4l-34 5h-21zM889 1068h-9l-17 -9v-4l51 4h38v-9h-42l-21 -4v-4h8l85 13l4 -5h4l34 26h-8z
M961 1063h12v-8h-12v8zM787 1046l5 -4v-5q34 13 59 13v5h-34zM622 1029v-5h17v5h-17zM563 1020v-4h9l42 4v4h-25zM715 1020v-4h13l17 4v4h-4zM2335 960v-5h13l12 5v4h-4z" />
    <glyph glyph-name="u" unicode="u" horiz-adv-x="727" 
d="M1080 723q77 -34 77 -97v-20q-132 -87 -218 -162l-53 -48h-4v8q-30 -20 -125 -113q-9 0 -33 -25h-8v4l61 85h-4q-93 -67 -292 -295q-60 -84 -60 -121l4 -17v-4h-4q-8 0 -8 33h-4v-25l4 -16l-4 -12l8 -8v-4h-4q-12 0 -17 40v17l5 16l-5 4v4q47 111 178 259l25 40
l-198 -121q-225 -130 -263 -130h-13q-74 37 -113 65l-12 12q0 35 223 251q0 11 157 162l150 170h8q134 -30 134 -77q-11 -31 -61 -69q-5 -17 -287 -279l-57 -65h4q115 63 401 267l376 255zM781 367v-4h8q16 6 16 13z" />
    <glyph glyph-name="v" unicode="v" horiz-adv-x="796" 
d="M1401 999l4 -4h4q0 -175 -61 -192l-74 -50h8l-4 -4v-4l-21 4l-102 -62q28 0 127 54h8q-18 -21 -33 -21v-4h9v-4l-33 -17l-16 4l-9 -12h4l13 4q-11 -15 -99 -58h-12q0 8 12 8v4h-4l-41 -16v-9h9v-8q-192 -91 -213 -117h4q36 25 49 25v-4q-88 -58 -119 -62v8q25 4 25 13
l-4 4h-5q-17 0 -24 -38l-61 -29q0 -8 -29 -17l-4 5q-7 -17 -49 -34l-50 -33l-4 -4l-24 -17l-4 4h-17q0 -24 -69 -54l-176 -129q0 -9 -111 -100q0 -12 -25 -33h-16q-72 34 -90 58v13q45 53 217 324l238 317q66 91 73 91l21 5q111 -101 119 -125q12 -16 12 -29q-3 -19 -66 -50
l-151 -146q-6 29 -13 29h-8l-106 -108h-4l4 -4v-9l-17 -25h5q49 36 176 104q157 97 430 242q179 90 323 200l62 108l4 4h8zM1290 849l-49 -41h-4l4 -5v-8l-20 4q0 -8 -41 -25v-4h4l41 21v-4l-49 -38q0 -12 -41 -12q-1 -7 -41 -25q0 -13 -9 -13l-4 4h-4q0 -13 -65 -45l-8 12
l-181 -87v-4h17l86 33l4 -4h4l16 12l-4 -4h-12v4q26 25 49 25l12 -4q160 83 172 83h17v4h-8v9q147 71 147 96l-4 12h-4l-4 -4h-4l-9 8l-4 -4zM1282 837h4l-8 -9h-4zM1356 799h8l-8 -8h-8zM1343 778h5v-4l-9 -8h-8zM1303 762h8v-13h-8l4 4v5zM1171 670h9l20 8v5h-4
q-25 -6 -25 -13zM1126 662l25 4v4l-8 8zM967 579h4q104 46 143 87h-4q-22 -4 -33 -25q-43 -3 -110 -62zM913 566v-4h5q41 15 41 25h-5zM1016 562q-18 -21 -33 -21v8zM799 524h12l8 9v4h-4zM844 483v-4h4l12 4v4h-4zM750 441v-4h4l20 8v5h-4zM729 429v-4h8l5 4v4z" />
    <glyph glyph-name="w" unicode="w" horiz-adv-x="1111" 
d="M1562 885q53 -27 53 -75q9 0 11 -15q0 -54 -187 -212l-157 -120l-123 -82l-8 -11h4l131 71v-4q-25 -30 -191 -127l-131 -82q-121 -83 -168 -131l-164 -97h-4q-10 11 -30 11q-19 24 -82 60v15q128 144 396 399h-4q-330 -168 -658 -407q-138 -78 -164 -78q-50 9 -86 49
q3 31 176 160q314 258 545 411q121 86 161 86q46 0 90 -64q30 -12 30 -37q0 -19 -56 -26q-122 -46 -277 -142q-28 0 -269 -172l-19 -22h4l535 291q141 61 198 127q35 34 71 34q41 -40 41 -68q0 -51 -116 -123q-9 -20 -198 -202h4q380 227 508 333q153 129 153 164v23
q-10 52 -37 52v7zM1596 777q0 -27 -19 -30v-4h12q11 14 11 26v8h-4zM1125 362v-7h4l15 11h-8z" />
    <glyph glyph-name="x" unicode="x" horiz-adv-x="796" 
d="M545 716q21 -6 121 -138q9 0 12 -36v-4q-20 0 -40 -129h8l-12 -16v-4q27 11 32 24h-8v8l48 24v-4q0 -8 -28 -16v-4h8q36 15 37 24l-4 12h4q73 54 274 158v4h-4l-113 -49v8l279 134q95 0 109 -16h24q32 0 105 20v-8q-121 -69 -242 -150q-23 0 -105 -60l-162 -81l-81 -45
q0 -12 -40 -28l-65 -24q-48 -41 -88 -57l-29 -210l4 -16h17q145 122 278 255h4q-280 -345 -307 -368l-28 -8h-20q-25 0 -37 20q-60 36 -60 138l12 117q-28 -7 -271 -134l-258 -121q58 69 222 174l275 186l48 36q13 186 20 186l-4 4v4l16 69l-4 12q27 96 37 105zM630 372h8
q28 6 28 17v4q-20 0 -36 -21z" />
    <glyph glyph-name="y" unicode="y" horiz-adv-x="952" 
d="M1213 732q30 0 47 -80v-14l-80 -105q-101 -162 -289 -350q0 -12 -81 -75q-35 -59 -179 -185q-24 0 -24 -28l-47 -38q-31 -32 -71 -38l-19 -24l28 19h10q-55 -76 -105 -76q-11 -19 -28 -19l5 -4v-5l-5 -5h-5v5q-11 0 -47 -47q-38 0 -38 -33h-24v-15q307 -97 611 -298
q90 -68 128 -118v-5q-194 153 -294 185l-4 -5h-5l-246 95q-80 45 -294 94q-15 -23 -90 -61q0 -7 -61 -19q-5 -20 -147 -76l-14 -14l-5 5v4q-41 -8 -57 -28l-151 -47l-180 -71q-41 0 -66 -29l-14 10h-14q0 -17 -95 -33l-123 -38q0 -6 -47 -19l-34 9l-56 -23l-38 4
q-81 -28 -137 -33q0 -10 -128 -23q0 -10 -33 -10q-10 19 -24 19q-36 -22 -156 -28l-142 9l-109 -14q-260 50 -260 76q-76 30 -76 113v14q35 97 218 199q587 298 1287 298q295 0 672 -71h5q110 46 217 138q341 273 545 539h-5q-46 -28 -76 -28h-14q0 -24 -66 -38
q-74 -47 -161 -85q-56 -44 -147 -81q-32 -28 -156 -80q-31 -33 -109 -48q-33 7 -33 34q-18 0 -62 66q-33 0 -33 66v9l48 76l312 237q101 68 161 128q0 8 23 14l10 57h14q38 -29 38 -86v-4q0 -82 -199 -289h10q601 320 643 364l62 34q2 18 14 18h28zM579 278h4l24 5v4h-19z
M299 -323l-61 -47l5 -5h4l57 52h-5zM-1305 -423l-38 5q0 -14 -80 -23q-10 -21 -313 -114q-255 -108 -255 -166v-9q29 -73 326 -100q348 0 767 100l412 137l260 104q86 50 199 100q0 11 -213 42q-24 0 -38 10l-312 9q-248 -14 -521 -47z" />
    <glyph glyph-name="z" unicode="z" horiz-adv-x="1266" 
d="M1588 706l33 -13q0 -161 -78 -161q-65 0 -556 -156q-72 -45 -147 -69q-15 -24 -133 -69l-46 -9v-5h9v-9q-86 -39 -96 -55l32 -9q299 37 528 37q131 0 248 -42v-9l-92 9q-339 0 -900 -128q0 -11 -128 -46q-117 -52 -225 -124h-28q-24 22 -64 119q0 19 46 28q27 37 55 37
l927 472v5h-9l-248 -23q-92 0 -92 129v46q12 23 37 23q21 0 51 -28h82l74 -5l36 10h51q292 0 633 45z" />
    <glyph glyph-name="braceleft" unicode="{" horiz-adv-x="632" 
d="M1468 1665q2 -4 -6.5 -18.5t-12.5 -18.5q0 10 4 21.5t15 15.5zM689 817q5 -10 1.5 -14t-1.5 14zM622 559q4 -16 -9.5 -36.5t-21.5 -35.5q4 23 14.5 36.5t16.5 35.5zM591 481q-4 -6 -7 -16t-13 -16v-7q-9 -10 -12 -21t-13 -22q-4 -12 -8 -19t-10 -18l-6.5 -13t-10.5 -9
q0 4 3 8t8 4q0 17 9 27t9 29q4 4 4 5t8 1q2 4 1 5t-1 5q15 10 18 30.5t21 26.5zM560 461q5 -10 -2.5 -20.5t-15.5 -16.5q4 14 9 19.5t9 17.5zM493 322h4q-4 -17 -6 -32.5t-19 -29.5q0 23 9.5 34t11.5 28zM503 322q2 -3 2 -5t-2 -4q-4 0 -2 3t2 6zM460 291q2 0 2 -2l-2 -4v-2
v8zM466 254q4 4 2 -2t-6 -6q0 4 2 5t2 3zM620 621q2 -5 5 -6t3 -5q-4 -10 -7 -21t-11 -22q-5 0 -5 3t-4 3q-8 -4 -5 -15t-5 -15h-2q-4 0 0 6q-8 -10 -4 -21q-14 -10 -14 -24.5t-11 -28.5q-2 0 -1 2t-1 2q-8 -4 -8 -18.5t-14 -18.5l4 4q0 3 2 3q-6 0 -6 -17q-2 0 -3 -3t-5 1
q0 -4 3 -5t-3 -5q0 -2 0 1t-4 3q-15 -29 -27 -57.5t-35 -53.5q12 -4 6 -12q-4 0 -1 3t-5 3q-2 0 -3 -8t-5 -10q-4 -29 -18.5 -45.5t-22.5 -44.5q-2 0 -2 6q0 -2 -2 -6t-2 -9h4q6 5 10 13t10 12q-2 -4 -5 -19.5t-9 -15.5q2 -22 -10 -45.5t-25 -42.5q-16 -31 -31.5 -58.5
t-31.5 -56.5q-4 -4 -2 -6t4 -6q-6 -6 -8 -6q4 -14 -6.5 -30.5t-6.5 -30.5q0 -4 4.5 0t4.5 0q-3 -2 -3 -5.5t-4 -7.5q4 -2 5.5 -4t5.5 -4q43 21 73 45q19 15 32 31t32 31q0 -15 -8.5 -22t0.5 -15q-13 -39 -38.5 -64.5t-47.5 -54.5q-23 -14 -44.5 -31.5t-52.5 -23.5h-15
t-11 -4q-35 12 -56.5 33.5t-54.5 37.5q-4 4 -4 6t-2 7q23 69 53.5 128.5t59.5 124.5q32 52 58 104t56 103q39 84 88.5 175.5t85.5 189.5q27 70 36 140.5t-17 139.5q4 11 5 18t1 19q14 6 23.5 14.5t25.5 12.5v-2h6q23 6 34 -3t28 -13q24 -5 40.5 5.5t28 25t20.5 31.5t21 30
q29 55 68 112.5t74 108.5q8 12 13 25.5t15 23.5q4 0 6 3t7 7q6 21 20 35t23 35q73 96 148 191.5t173 162.5q12 17 36 24t48.5 7t47 -8t34.5 -23q0 -10 7 -15t11 -16h-4q-2 0 -2 -4t3 -2t8 0q-11 -8 -9 -15t-4 -22h-10q2 -2 2 -4q0 -6 -2 -8q-2 0 -3 -2t-5 2
q-19 -35 -47.5 -61.5t-57.5 -42.5q0 16 9 26q-43 -28 -75 -70t-69 -77q-96 -127 -195.5 -251t-172.5 -271q-9 -2 -11 -8.5t-12 -10.5q0 4 3 6t3 11q-4 -4 -6 -8.5t-8 -8.5l4 -4q2 -2 4 -2q-6 -18 -21.5 -27.5t-27.5 -27.5q-21 -10 -51.5 -17.5t-55.5 2.5q0 -41 -11 -75.5
t-11 -69.5q-4 0 -3 2t-3 4q-11 -20 -17 -41.5t-14 -40.5q-2 -8 -2 -17t-6 -13zM1371 1726q-4 -26 -43 -36q5 -4 -1.5 -5.5t-10.5 -5.5q4 -4 2 -6t-2 -6q17 10 30 22.5t32 24.5q4 2 13 2t9 10q-4 -4 -10 -2t-8 -2v4h-11zM1253 1579q0 -12 -6.5 -14t-10.5 -4q-6 -9 -13 -21
t-11 -20q-6 -11 -14.5 -14t-12.5 -11q-4 -10 -10 -21.5t-21 -17.5q0 -8 -2 -10t-2 -8q-4 0 -5 -3t-3 -1q0 -9 -5 -14t-10 -11t-8.5 -13t-1.5 -20q-22 -26 -43.5 -51t-39.5 -53q16 2 23 15t13 24q13 10 19 18t16 19q62 82 130.5 159.5t146.5 145.5q0 10 5 22.5t9 26.5
q-10 -6 -14 -6v-2v-4q-23 -11 -39.5 -34.5t-34.5 -33.5q4 4 6 12t2 13q-16 -17 -28.5 -35.5t-34.5 -32.5zM1298 1667q-2 -10 -13.5 -13t-11.5 -18q4 -2 3 4.5t7 1.5v-6q11 4 17 14.5t10 20.5q-6 2 -5 -2t-7 -2zM614 592q-4 4 1 8t1 8l-4 -8t2 -8zM579 530q0 11 -2 11
q-4 -4 -3 -8.5t5 -2.5zM388 156q4 10 8.5 18t10.5 16q-6 -8 -13.5 -15t-5.5 -19zM460 270q0 -14 -10 -24q0 4 3 10z" />
    <glyph glyph-name="bar" unicode="|" horiz-adv-x="425" 
d="M272 -164h-98v1829h98v-1829z" />
    <glyph glyph-name="braceright" unicode="}" horiz-adv-x="632" 
d="M1468 1665q2 -4 -6.5 -18.5t-12.5 -18.5q0 10 4 21.5t15 15.5zM689 817q5 -10 1.5 -14t-1.5 14zM622 559q4 -16 -9.5 -36.5t-21.5 -35.5q4 23 14.5 36.5t16.5 35.5zM591 481q-4 -6 -7 -16t-13 -16v-7q-9 -10 -12 -21t-13 -22q-4 -12 -8 -19t-10 -18l-6.5 -13t-10.5 -9
q0 4 3 8t8 4q0 17 9 27t9 29q4 4 4 5t8 1q2 4 1 5t-1 5q15 10 18 30.5t21 26.5zM560 461q5 -10 -2.5 -20.5t-15.5 -16.5q4 14 9 19.5t9 17.5zM493 322h4q-4 -17 -6 -32.5t-19 -29.5q0 23 9.5 34t11.5 28zM503 322q2 -3 2 -5t-2 -4q-4 0 -2 3t2 6zM460 291q2 0 2 -2l-2 -4v-2
v8zM466 254q4 4 2 -2t-6 -6q0 4 2 5t2 3zM620 621q2 -5 5 -6t3 -5q-4 -10 -7 -21t-11 -22q-5 0 -5 3t-4 3q-8 -4 -5 -15t-5 -15h-2q-4 0 0 6q-8 -10 -4 -21q-14 -10 -14 -24.5t-11 -28.5q-2 0 -1 2t-1 2q-8 -4 -8 -18.5t-14 -18.5l4 4q0 3 2 3q-6 0 -6 -17q-2 0 -3 -3t-5 1
q0 -4 3 -5t-3 -5q0 -2 0 1t-4 3q-15 -29 -27 -57.5t-35 -53.5q12 -4 6 -12q-4 0 -1 3t-5 3q-2 0 -3 -8t-5 -10q-4 -29 -18.5 -45.5t-22.5 -44.5q-2 0 -2 6q0 -2 -2 -6t-2 -9h4q6 5 10 13t10 12q-2 -4 -5 -19.5t-9 -15.5q2 -22 -10 -45.5t-25 -42.5q-16 -31 -31.5 -58.5
t-31.5 -56.5q-4 -4 -2 -6t4 -6q-6 -6 -8 -6q4 -14 -6.5 -30.5t-6.5 -30.5q0 -4 4.5 0t4.5 0q-3 -2 -3 -5.5t-4 -7.5q4 -2 5.5 -4t5.5 -4q43 21 73 45q19 15 32 31t32 31q0 -15 -8.5 -22t0.5 -15q-13 -39 -38.5 -64.5t-47.5 -54.5q-23 -14 -44.5 -31.5t-52.5 -23.5h-15
t-11 -4q-35 12 -56.5 33.5t-54.5 37.5q-4 4 -4 6t-2 7q23 69 53.5 128.5t59.5 124.5q32 52 58 104t56 103q39 84 88.5 175.5t85.5 189.5q27 70 36 140.5t-17 139.5q4 11 5 18t1 19q14 6 23.5 14.5t25.5 12.5v-2h6q23 6 34 -3t28 -13q24 -5 40.5 5.5t28 25t20.5 31.5t21 30
q29 55 68 112.5t74 108.5q8 12 13 25.5t15 23.5q4 0 6 3t7 7q6 21 20 35t23 35q73 96 148 191.5t173 162.5q12 17 36 24t48.5 7t47 -8t34.5 -23q0 -10 7 -15t11 -16h-4q-2 0 -2 -4t3 -2t8 0q-11 -8 -9 -15t-4 -22h-10q2 -2 2 -4q0 -6 -2 -8q-2 0 -3 -2t-5 2
q-19 -35 -47.5 -61.5t-57.5 -42.5q0 16 9 26q-43 -28 -75 -70t-69 -77q-96 -127 -195.5 -251t-172.5 -271q-9 -2 -11 -8.5t-12 -10.5q0 4 3 6t3 11q-4 -4 -6 -8.5t-8 -8.5l4 -4q2 -2 4 -2q-6 -18 -21.5 -27.5t-27.5 -27.5q-21 -10 -51.5 -17.5t-55.5 2.5q0 -41 -11 -75.5
t-11 -69.5q-4 0 -3 2t-3 4q-11 -20 -17 -41.5t-14 -40.5q-2 -8 -2 -17t-6 -13zM1371 1726q-4 -26 -43 -36q5 -4 -1.5 -5.5t-10.5 -5.5q4 -4 2 -6t-2 -6q17 10 30 22.5t32 24.5q4 2 13 2t9 10q-4 -4 -10 -2t-8 -2v4h-11zM1253 1579q0 -12 -6.5 -14t-10.5 -4q-6 -9 -13 -21
t-11 -20q-6 -11 -14.5 -14t-12.5 -11q-4 -10 -10 -21.5t-21 -17.5q0 -8 -2 -10t-2 -8q-4 0 -5 -3t-3 -1q0 -9 -5 -14t-10 -11t-8.5 -13t-1.5 -20q-22 -26 -43.5 -51t-39.5 -53q16 2 23 15t13 24q13 10 19 18t16 19q62 82 130.5 159.5t146.5 145.5q0 10 5 22.5t9 26.5
q-10 -6 -14 -6v-2v-4q-23 -11 -39.5 -34.5t-34.5 -33.5q4 4 6 12t2 13q-16 -17 -28.5 -35.5t-34.5 -32.5zM1298 1667q-2 -10 -13.5 -13t-11.5 -18q4 -2 3 4.5t7 1.5v-6q11 4 17 14.5t10 20.5q-6 2 -5 -2t-7 -2zM614 592q-4 4 1 8t1 8l-4 -8t2 -8zM579 530q0 11 -2 11
q-4 -4 -3 -8.5t5 -2.5zM388 156q4 10 8.5 18t10.5 16q-6 -8 -13.5 -15t-5.5 -19zM460 270q0 -14 -10 -24q0 4 3 10z" />
    <glyph glyph-name="asciitilde" unicode="~" horiz-adv-x="860" 
d="M749 351q2 -8 13 -1l2 -6l-2 3q-1 2 -4 -1q2 -1 2 -4q0 -2 2 -2l-10 -6l8 3q-2 -1 -2 -3q4 3 6 -1q4 -5 6 -5q-2 -3 4 -13q6 -11 3 -18q6 4 6 -6q0 4 4 0q-6 -5 -3 -10q5 -6 5 -5q3 -5 6 -22q2 -18 -2 -18q-3 -1 0 -16q3 -16 0 -21q-3 0 -14 19q-10 17 -11 11q-6 0 -6 7
l2 -7q-8 -2 -8 11v-7q0 13 -4 15l-8 -6l-6 10l-11 2l3 3q3 3 2 3l-17 16q0 2 -4 5l-4 4q-2 2 -4 9q-1 5 -6 7q0 2 2 2t2 -2q-4 4 -16 2l-26 -7q-11 -3 -13 -5q-7 -2 -19 -2l-14 -10q-7 -5 -10 -3l-7 -5q-7 -6 -12 -7q-6 0 -10 -4l-2 -2v2q-17 -8 -47 -18v-2q-14 -11 -21 -11
v4q0 -1 -8 -4q-7 -2 -2 -6q-4 3 -2 0q-2 -1 -2 2q-1 3 -4 4q1 -5 -5 -10q-6 -4 -7 -2l6 -2l-21 -3q-6 -3 -10 -3q4 -4 -3 -7q-8 -3 -9 1q0 -4 2 -4q-2 0 -2 4l-7 2q4 -5 -1 -8l-5 -2q-3 -1 -4 -2q0 4 4 4q-4 0 -9 -3l-8 -5q-11 -6 -17 -3l4 -2l-7 2q0 4 5 2l8 -4
q20 18 45 25l22 7l64 30q6 3 19 9l65 34q-10 0 -26 -7l-23 -10q6 14 26 11q-5 3 -13 -1q-10 -6 -11 -6v3l-19 -13q-38 -15 -51 -24l-17 -1q-4 0 -7 -8q0 -1 -11 3q-10 -11 -14 -19h-6q-3 0 -6 -6q0 1 -6 4q-5 2 -7 -4v4q-3 -4 -2 -5l2 -1h-6q-12 4 -12 -6q-2 5 -1 7l3 5
q0 2 -4 2t-4 -2h6l-5 -13q-3 -5 -11 -3v-2q0 6 -9 6q8 -6 6 -7q0 -3 -6 3q-2 0 -7 -4q-4 -2 -5 2q-3 0 -5 -2l-7 -5q-3 1 -4 5t-6 4q0 -2 4 -6q-2 2 -9 2q-5 -1 -2 4h4l-6 4l1 -3q-1 -2 -5 -3q-8 2 -2 14q-4 -2 -4 -12h-6l6 16l6 -6q4 1 -1 4l-8 4l-9 10q0 2 -2 0l1 8
q0 1 1 -6q-4 -1 -4 3q-1 6 -2 8q-4 -3 -1 -6q5 -3 5 -5q-6 0 -8 5q-2 6 -5 6q2 1 1 4q-2 4 -5 4q5 -2 5 1t-5 5q0 -5 -4 0q-6 6 -8 6h4l-4 4q4 -4 4 6q5 0 -11 19q-15 19 -13 20q3 3 -6 8t2 9q2 1 -6 7l-9 5q6 1 0 13l-14 22q-7 10 -3 8l32 -29q4 -1 11 -8q6 -6 11 -6
q1 -6 8 -8q5 -2 4 -8v5q-2 3 0 5q8 -3 21 -16l9 -8l15 -8q6 -3 4 -9h3l-5 11q-3 4 -4 7l14 -11l13 -13q4 4 11 3q6 -1 7 -5q4 -4 12 1l13 7q10 0 25 4q16 5 24 12v2q2 2 8 2t9 2q1 5 9 8l7 2q5 1 8 3v2l5 -1q5 -1 7 1q13 10 22 16q13 8 21 6q6 6 25 14l46 17h11l4 4q2 3 3 4
q4 2 12 -2l10 5q7 3 8 3q17 0 25 4l11 -2q8 -1 13 2q2 -2 3 -7q0 -4 3 -5q0 -4 8 -6l7 -2q5 -1 8 -2q-4 -2 0 -2q0 -3 -2 -4h-2q2 -7 9 -13q5 -4 3 -8q-10 11 -9 1zM660 319l-14 -7q-2 -2 -4 -3q-9 -6 -19 -6q27 -3 37 16z" />
    <glyph glyph-name="dieresis" unicode="&#xa8;" horiz-adv-x="1024" 
 />
    <glyph glyph-name="copyright" unicode="&#xa9;" horiz-adv-x="1003" 
d="M1141 725q1 -3 5 1q5 5 8 5q-11 -11 -29 -21l-15 -9q-9 -6 -16 -11q-3 -1 -4 2q-1 1 -4 -2l-2 -1q3 -2 2 -5l-14 -4q-7 -2 -15 -2l-2 -1q4 -2 0 -5q-6 -2 -16 -2q0 -7 -10 -9q-11 -3 -11 -8q-1 0 -4 2t-6 2q-6 -3 -15 -6l-30 -10q-7 -3 -12 -6q-79 -20 -147 -27
q-78 -8 -146 2q-107 20 -161 94q-57 79 -17 181q12 40 30 51q0 -10 -2 -23l-6 -22q-4 -14 -5 -22q-1 -11 1 -19q-2 8 1 0q3 -6 3 -12q27 100 103 183q61 66 161 130q7 0 7 10l76 42q48 25 85 37q103 33 170 -21q10 3 6 3t3 -3l23 -13q18 -9 20 -20q59 -33 92 -62
q45 -40 67 -92q-4 -12 -6 -12q6 -11 8 -25q3 -18 -2 -30v-19q3 -30 -25 -72l-35 -47l-9 -14q1 -3 5 1q5 5 9 5q-3 -10 -14 -19l-2 -2l-15 -16q-4 6 1 12q1 0 2 2q2 2 3 2l5 7l-31 -25q3 -5 6 -1q4 4 8 1q-25 -22 -63 -49q-3 4 1 7q5 4 5 5q-16 -6 -25 -18zM576 817
q0 -3 -2 -10q0 -4 2 -6q-2 0 -2 -4q-1 -4 -4 -4v14q-7 -5 -6 -12q2 -10 0 -15q3 0 4 7t8 6q-4 -19 -2 -39l8 -39q54 -82 221 -56l86 25l19 11q11 5 20 5q148 69 234 166l18 15q36 55 47 98l-1 26l-15 60q-42 81 -98 102h-111q0 -3 5 -3t5 -3l-11 -4q-5 -2 -11 -2q0 3 3 4
l7 4l-16 -3q-5 -1 -9 1v-6l-33 -10q-19 -6 -28 -15l2 -6q-25 -2 -60 -24l-28 -18q-16 -9 -29 -13l-36 -25q-7 -5 -12 -8q-15 -10 -24 -18q-11 -11 -16 -21q-8 -1 -16 -9l-13 -15l4 1q3 1 3 -3q-16 -3 -29 -18l-10 -13q-5 -7 -11 -10q0 -5 11 -8q-5 1 -10 -3q-2 -3 -3 3
l-36 -66v10l-7 -10q-3 -7 -6 -8q4 -2 6 -1q1 2 7 1l-4 -4l-4 -4q-5 -6 -9 -9q0 6 -2 5q-3 -2 -6 0l6 -19h-6zM828 881q-6 0 -11 -4q-7 -5 -6 -11v-4q-3 4 -6 4q5 -4 1 -9q-4 -6 -9 -1q-6 -10 -16 -21l-18 -17q-10 -9 -14 -17q-6 -9 -7 -21q-2 0 3 3q3 2 9 -3q-4 0 -6 -6
q33 -3 84 7q2 1 10 2l30 6q23 4 42 4q-4 -4 -13 -8q-3 -1 -8 -3l-9 -2q-11 -4 -17 -7q-8 -5 -12 -11q-9 -2 -19 -8l-34 -25q-11 -6 -21 -8q4 -2 4 -6l-19 -3q-12 -2 -16 -5l29 -11q-11 -2 -22 0l-56 23l-21 17q-14 10 -21 18q-21 23 -20 59q4 2 7 8l4 10q6 15 14 17
q0 8 4 14q2 4 8 10q34 52 111 112q61 47 139 91l19 12q10 7 18 7l12 -3q6 -1 6 9q8 -5 18 -14l8 -7q4 -5 8 -8q9 -8 18 -12q11 -6 24 -8l35 -39q20 -22 39 -29q3 -4 1 -9q0 -2 -3 -7q0 16 -16 22q4 -10 4 -22q-9 3 -18 -8l-7 -8q-5 -4 -10 -5l-30 -28q-19 -18 -35 -29
q-43 -29 -95 -21q14 25 44 57l48 54q-5 5 -12 3l-14 -7q-10 -6 -15 -8q-8 -2 -14 4q16 1 43 24q-1 4 -11 1l-14 -5l-57 -35q-10 -6 -18 -8v-8q-4 -4 -17 -4h6l-8 -9q-1 -2 -2 -3q-7 -7 -14 -9l4 3q-3 2 -5 0l-5 -3q0 -2 2 -4l2 -2q-7 4 -12 -6t-11 -10h2q2 -1 2 -2h-7
q-5 0 -9 -4l4 -1q4 0 6 -1l-22 -11q6 7 10 5v2z" />
    <glyph glyph-name="registered" unicode="&#xae;" horiz-adv-x="960" 
d="M1268 804q-6 -10 -10 -11q32 -12 80 -27l80 -26q99 -33 159 -58q-6 0 -13 1l-26 6q-8 1 -14 1q0 3 2 4h2q-10 1 -23 4l-67 21q0 -3 2 -4h2q-9 -4 -25 3l-12 5q-7 3 -12 4q-2 -3 -13 -3l-16 1q0 -3 6 -5q5 -2 5 -5q-19 6 -37 6q1 -3 7 -4l-69 10q-3 2 -3 -1t-3 -1l-18 6
q-11 0 -16 -1q-9 -2 -15 -9q0 3 3 6q4 3 5 6q-10 -1 -17 -11l-6 -8q-3 -4 -7 -5q0 -19 -13 -19q-3 -1 -3 2t-3 2l-23 -19q-13 -12 -26 -16h2q4 -2 4 -6l-60 -37q-34 -21 -63 -32q-3 -3 -4 -1q0 3 -2 3v-8q-10 -3 -29 -11q-1 -1 -3 -2l-4 -1l-21 -9l-13 -1q-5 0 -6 -1
q0 -6 -10 -6q-7 -3 -24 -5l-25 -5q-3 0 -3 -2l1 -5q-107 -10 -184 19q-2 -1 -3 -2t-2 -1l-6 1q0 -6 -3 -15q-4 -10 -5 -14q-2 4 0 10l2 15l-10 -36q-1 -4 -1 -6q-4 -13 -6 -22q-4 -12 -7 -22q2 20 10 50q1 4 3 13l9 35q-144 74 -133 289q-3 0 -4 -7t-4 -6l-2 11l2 8
q-3 -3 -6 -8l-3 -11q-5 -15 -14 -18q0 -10 -4 -23l-7 -24q-9 -32 -9 -53q-2 1 -2 7q0 8 -2 11l-2 -22q-1 -12 -4 -21q-10 10 -11 45q-1 31 4 47q-2 1 -2 2q8 49 31 99q9 20 22 44l29 52q3 7 6 8q6 7 15 18l30 39l21 21q5 3 7 5q8 6 13 13l35 31q82 62 172 98l3 -2q1 -2 3 -2
t2 2t-2 2q3 7 21 7q9 5 17 8q9 4 18 4q58 31 141 31l13 4q9 1 12 -2q3 -1 4 1q1 3 4 3q4 0 2 -4l-2 -7q14 7 32 2l33 -10q-3 -3 -8 -2l-8 2q4 -6 12 -10l26 -11q8 -3 11 -3q3 3 -5 5l-13 3l-1 4q0 1 -1 2q-2 2 -8 2q-5 0 -5 2q13 0 26 -7l19 -11q0 -4 -1 -3q-3 3 -5 3
q0 -6 13 -6q1 -5 10 -14q8 -7 8 -11q6 -6 12 -16l40 -78l8 -23q6 -15 9 -22q5 -13 11 -21q-1 -10 3 -22q1 -3 4 -9l3 -10q-1 -8 0 -20l3 -15l3 -26q0 -10 -4 -19q3 -19 -11 -50q-14 -33 -13 -50l-4 -2q-1 2 -3 2q3 -4 0 -10t-8 -6q-2 3 2 9q6 9 6 13q-3 -2 -10 -13z
M1062 1195q-23 3 -44 -1q7 -5 25 -5h14q8 0 13 -1q21 -8 55 -8l10 -5q6 -4 6 -1q-8 5 -20 9zM1171 1145q-46 25 -122 29q0 -5 -6 -5q-7 3 -18 1l-19 -3l-37 -10q-33 -11 -78 -18q-21 -5 -51 -21l-47 -24l-6 2l-36 -27q-7 -4 -15 -4l-8 -7q-6 -4 -9 -7q-11 -8 -20 -11l3 -2
q3 -1 -1 -4q-16 -5 -31 -18l-12 -12l-12 -13q-3 0 -4 6t-5 4q-6 -10 7 -10l-5 -4q-2 -3 -6 -2q0 -9 -6 -6q3 -1 2 -4l-2 -4q-53 -45 -61 -166q-3 -153 121 -182q20 77 50 171l54 167q-15 7 -38 3l-36 -10q-21 4 -51 -10l-25 -12q-14 -6 -26 -8q35 23 92 51l98 47q0 15 3 25
l4 18q15 3 26 -6l17 -19q50 17 116 36l121 32q3 -1 6 -4q3 -2 6 -2l25 -51q1 -3 2 -9v-8q6 -9 6 -18q5 -27 -31 -49l-8 -3q-2 -3 -3 -5q-5 -5 -9 -7q-24 -14 -62 -32l-59 -26q-5 -2 -8 -3q-21 -7 -25 -19q10 0 26 -3q12 -3 24 -7q1 -1 5 -1l22 -4q11 -4 17 -6q19 -6 31 -3
q6 -4 16 -7l19 -5q14 -4 20 -5q11 -4 17 -8q10 4 25 -3l11 -4q7 -3 13 -3q95 104 45 234q7 65 -52 98zM793 1112q4 0 4 -4q4 3 10 6q3 2 12 5q15 7 21 14q-14 -4 -27 -11zM769 1102q-6 -9 -17 -16l-20 -9q9 -1 21 6q7 3 10 4q6 3 12 3q-4 5 1 7q8 3 9 5q-4 2 -9 1zM676 1040
q6 4 15 6l8 2q4 1 8 3l-2 6h8q2 3 13 8t12 10q-7 0 -15 -3q-5 -2 -13 -6l-11 -6l-10 -3q2 -4 -3 -8q-1 -1 -3 -2zM883 995q-10 -2 -18 -10h6q-4 -2 -6 -8q-2 -7 2 -12q-8 -8 -13 -21q-1 -2 -2 -5l-6 -15q46 14 92 41q42 13 64 32q0 2 3 3q3 0 3 4q-12 3 -24 0l-21 -7
q-2 4 1 8q2 3 -1 3q-8 0 -16 -1l-15 -5l-14 -4q-8 -3 -14 -3h-21zM1058 831q-22 5 -46 7q4 -4 13 -6l14 -3q-6 0 -6 -4l6 -1q4 0 4 -1q-12 0 -16 6l-7 -4q-6 -1 -6 0q0 3 3 4l3 2l-11 2q-6 2 -9 -2q-3 -3 -1 -5l3 -3h-8l32 -10q21 -7 37 -8v-6l84 -19q4 2 7 6l6 7l-47 12
l16 -3q11 -3 14 3q-14 0 -18 2q4 1 11 0l12 -2q16 -3 20 0q-7 0 -15 2q-3 1 -8 2l-7 3q-10 3 -16 4q-9 2 -18 1q-16 8 -46 14zM1137 770l-22 6q-5 1 -8 2l-31 8q-36 9 -62 9zM733 668l-19 -34l-7 -18q25 -8 62 -6q15 0 31 2l24 4q175 27 301 142q-3 1 -13 1q-8 0 -12 5
q-4 -4 -8 -2t-4 6q-27 10 -79 16l-40 4q-22 3 -37 7q4 -13 31 -13l34 -7q19 -4 30 -7q-52 3 -99 18q-23 -2 -50 0l-54 7q0 -5 -6 -5l-14 4l-13 1l-4 -9q-3 -5 -5 -8q-5 -8 -13 -12q-1 -5 -3 -9l-2 -7q-4 -9 -4 -17h-6q-2 -2 0 -8q2 -4 -4 -4q3 0 3 2q0 3 -3 0l-7 -19
q-4 -13 -7 -14q0 -10 -3 -20z" />
    <glyph glyph-name="acute" unicode="&#xb4;" horiz-adv-x="1024" 
 />
    <glyph glyph-name="paragraph" unicode="&#xb6;" horiz-adv-x="1024" 
d="M929 1435v-70h-127v-1365h-82v1365h-166v-1365h-84v738q-174 8 -275.5 102.5t-101.5 245.5q0 157 107.5 253t285.5 96h443z" />
    <glyph glyph-name="onequarter" unicode="&#xbc;" horiz-adv-x="1298" 
 />
    <glyph glyph-name="onehalf" unicode="&#xbd;" horiz-adv-x="1320" 
 />
    <glyph glyph-name="threequarters" unicode="&#xbe;" horiz-adv-x="1288" 
 />
    <glyph glyph-name="Agrave" unicode="&#xc0;" horiz-adv-x="1019" 
d="M1736 1561q69 -80 69 -117q0 -29 -94 -93q-163 -125 -254 -247q-49 -49 -150 -194q-45 -53 -61 -97q-130 -179 -186 -328l-28 -69q260 -19 311 -53v-8q-109 13 -190 13q-117 0 -141 -33q-70 -146 -77 -283v-32l12 -49v-8l-20 -16h-17q-45 0 -161 97q-21 0 -21 28
q29 131 85 287q-85 0 -259 -40q0 -16 -24 -16q-129 -52 -166 -101q-176 -146 -190 -146h-4v8l49 36l-4 5v4q32 6 32 16v12h-16l12 16v4q-40 -11 -77 -48q0 -14 -49 -33q-57 -53 -157 -121q0 -11 -85 -65q-3 -10 -41 -28q0 -13 -121 -81q0 -18 -65 -41q-34 -40 -162 -85
q-74 -50 -218 -89q-77 -13 -77 -24v-4h-32l-37 -12q-106 0 -162 61v-4l4 -4v-4h-4l-12 12l4 12h-4q-14 7 -20 24q92 175 409 344l174 81q15 0 64 36l12 4l4 -4h5q152 50 190 73q0 23 77 37v-9q111 37 137 37q38 20 194 48q97 26 97 45h13v-8h4q36 20 538 473q1 13 526 518
q97 75 279 255zM838 574l-29 4q-40 -15 -40 -45q-10 0 -29 -24q-46 -17 -145 -121l8 -8h8l8 8l28 -4h4q181 0 183 24l133 263h-4q-76 -48 -121 -97h-4zM579 566h4l-25 -25h-4zM514 501v-4l-24 -20h-4v8zM579 444h4l28 29h-4zM498 392v-4q60 24 60 52l17 8v9h-4zM587 420
l-8 -12h4l16 8v4h-12zM724 363h4q53 0 89 13v4h-32q-61 0 -61 -17zM150 242l-24 4q0 -8 -57 -20q0 -7 -113 -45q-38 0 -417 -157q-108 -53 -202 -122h4l52 20q22 26 73 41q30 40 97 40v4h-8v9q132 72 170 72h4v-4q-123 -50 -138 -64h5l210 89l409 133l8 16v8zM263 189
q12 0 12 -8q-12 0 -12 -8h4q65 48 77 69h-4q-56 -23 -77 -53zM-198 84h-8v8h-4q-31 -40 -65 -40l-12 4l-223 -109q-17 0 -72 -45q-67 -24 -85 -48q-35 -23 -65 -57l-69 -53l-20 5l-12 -13v-4l4 4h12v-8q-93 -82 -93 -113v-8l48 -4q195 0 672 303q277 207 307 239q20 9 65 61
v4q-74 0 -206 -61zM-166 177v-4h4l12 4v4h-4zM142 40h4v-8l-20 -16l-9 8zM93 28h4v-4l-24 -21h-4q3 14 24 25zM93 -1h8v-8h-16zM45 -9h4l-8 -8h-4zM77 -9h8v-4l-28 -24h-8v4zM-48 -78v-4q0 -16 -73 -56q0 -16 -89 -57q96 81 129 97q0 20 33 20zM-457 -332v-4q0 -10 -57 -29
v8zM-550 -373h12q-8 -16 -24 -16v4zM-578 -393v-8l-45 -12v8zM1191 1949q53 0 637 -190q218 -81 218 -114v-5q-19 -35 -33 -133l-38 -14q-138 57 -138 76q-7 17 -195 76q-35 25 -147 62q-7 10 -90 42l-19 34l5 14q-86 49 -114 85q-32 30 -86 57v10z" />
    <glyph glyph-name="Aacute" unicode="&#xc1;" horiz-adv-x="1019" 
d="M2293 2054q-72 -53 -194 -165q-221 -102 -238 -102v-5h4l137 39v-5q0 -12 -59 -29v-5h5l15 5v-10l-209 -97l-204 -97l-5 -5h-5l5 -5v-10q0 -10 -15 -10l5 -4v-5q-19 -15 -68 -20l-5 -5v-4l-34 4h-5l-58 -14q-18 0 -39 155l5 5h5l-5 5v5q168 107 962 379zM1736 1561
q69 -80 69 -117q0 -29 -94 -93q-163 -125 -254 -247q-49 -49 -150 -194q-45 -53 -61 -97q-130 -179 -186 -328l-28 -69q260 -19 311 -53v-8q-109 13 -190 13q-117 0 -141 -33q-70 -146 -77 -283v-32l12 -49v-8l-20 -16h-17q-45 0 -161 97q-21 0 -21 28q29 131 85 287
q-85 0 -259 -40q0 -16 -24 -16q-129 -52 -166 -101q-176 -146 -190 -146h-4v8l49 36l-4 5v4q32 6 32 16v12h-16l12 16v4q-40 -11 -77 -48q0 -14 -49 -33q-57 -53 -157 -121q0 -11 -85 -65q-3 -10 -41 -28q0 -13 -121 -81q0 -18 -65 -41q-34 -40 -162 -85q-74 -50 -218 -89
q-77 -13 -77 -24v-4h-32l-37 -12q-106 0 -162 61v-4l4 -4v-4h-4l-12 12l4 12h-4q-14 7 -20 24q92 175 409 344l174 81q15 0 64 36l12 4l4 -4h5q152 50 190 73q0 23 77 37v-9q111 37 137 37q38 20 194 48q97 26 97 45h13v-8h4q36 20 538 473q1 13 526 518q97 75 279 255z
M838 574l-29 4q-40 -15 -40 -45q-10 0 -29 -24q-46 -17 -145 -121l8 -8h8l8 8l28 -4h4q181 0 183 24l133 263h-4q-76 -48 -121 -97h-4zM579 566h4l-25 -25h-4zM514 501v-4l-24 -20h-4v8zM579 444h4l28 29h-4zM498 392v-4q60 24 60 52l17 8v9h-4zM587 420l-8 -12h4l16 8v4
h-12zM724 363h4q53 0 89 13v4h-32q-61 0 -61 -17zM150 242l-24 4q0 -8 -57 -20q0 -7 -113 -45q-38 0 -417 -157q-108 -53 -202 -122h4l52 20q22 26 73 41q30 40 97 40v4h-8v9q132 72 170 72h4v-4q-123 -50 -138 -64h5l210 89l409 133l8 16v8zM263 189q12 0 12 -8
q-12 0 -12 -8h4q65 48 77 69h-4q-56 -23 -77 -53zM-198 84h-8v8h-4q-31 -40 -65 -40l-12 4l-223 -109q-17 0 -72 -45q-67 -24 -85 -48q-35 -23 -65 -57l-69 -53l-20 5l-12 -13v-4l4 4h12v-8q-93 -82 -93 -113v-8l48 -4q195 0 672 303q277 207 307 239q20 9 65 61v4
q-74 0 -206 -61zM-166 177v-4h4l12 4v4h-4zM142 40h4v-8l-20 -16l-9 8zM93 28h4v-4l-24 -21h-4q3 14 24 25zM93 -1h8v-8h-16zM45 -9h4l-8 -8h-4zM77 -9h8v-4l-28 -24h-8v4zM-48 -78v-4q0 -16 -73 -56q0 -16 -89 -57q96 81 129 97q0 20 33 20zM-457 -332v-4q0 -10 -57 -29v8z
M-550 -373h12q-8 -16 -24 -16v4zM-578 -393v-8l-45 -12v8z" />
    <glyph glyph-name="Acircumflex" unicode="&#xc2;" horiz-adv-x="1019" 
d="M1736 1561q69 -80 69 -117q0 -29 -94 -93q-163 -125 -254 -247q-49 -49 -150 -194q-45 -53 -61 -97q-130 -179 -186 -328l-28 -69q260 -19 311 -53v-8q-109 13 -190 13q-117 0 -141 -33q-70 -146 -77 -283v-32l12 -49v-8l-20 -16h-17q-45 0 -161 97q-21 0 -21 28
q29 131 85 287q-85 0 -259 -40q0 -16 -24 -16q-129 -52 -166 -101q-176 -146 -190 -146h-4v8l49 36l-4 5v4q32 6 32 16v12h-16l12 16v4q-40 -11 -77 -48q0 -14 -49 -33q-57 -53 -157 -121q0 -11 -85 -65q-3 -10 -41 -28q0 -13 -121 -81q0 -18 -65 -41q-34 -40 -162 -85
q-74 -50 -218 -89q-77 -13 -77 -24v-4h-32l-37 -12q-106 0 -162 61v-4l4 -4v-4h-4l-12 12l4 12h-4q-14 7 -20 24q92 175 409 344l174 81q15 0 64 36l12 4l4 -4h5q152 50 190 73q0 23 77 37v-9q111 37 137 37q38 20 194 48q97 26 97 45h13v-8h4q36 20 538 473q1 13 526 518
q97 75 279 255zM838 574l-29 4q-40 -15 -40 -45q-10 0 -29 -24q-46 -17 -145 -121l8 -8h8l8 8l28 -4h4q181 0 183 24l133 263h-4q-76 -48 -121 -97h-4zM579 566h4l-25 -25h-4zM514 501v-4l-24 -20h-4v8zM579 444h4l28 29h-4zM498 392v-4q60 24 60 52l17 8v9h-4zM587 420
l-8 -12h4l16 8v4h-12zM724 363h4q53 0 89 13v4h-32q-61 0 -61 -17zM150 242l-24 4q0 -8 -57 -20q0 -7 -113 -45q-38 0 -417 -157q-108 -53 -202 -122h4l52 20q22 26 73 41q30 40 97 40v4h-8v9q132 72 170 72h4v-4q-123 -50 -138 -64h5l210 89l409 133l8 16v8zM263 189
q12 0 12 -8q-12 0 -12 -8h4q65 48 77 69h-4q-56 -23 -77 -53zM-198 84h-8v8h-4q-31 -40 -65 -40l-12 4l-223 -109q-17 0 -72 -45q-67 -24 -85 -48q-35 -23 -65 -57l-69 -53l-20 5l-12 -13v-4l4 4h12v-8q-93 -82 -93 -113v-8l48 -4q195 0 672 303q277 207 307 239q20 9 65 61
v4q-74 0 -206 -61zM-166 177v-4h4l12 4v4h-4zM142 40h4v-8l-20 -16l-9 8zM93 28h4v-4l-24 -21h-4q3 14 24 25zM93 -1h8v-8h-16zM45 -9h4l-8 -8h-4zM77 -9h8v-4l-28 -24h-8v4zM-48 -78v-4q0 -16 -73 -56q0 -16 -89 -57q96 81 129 97q0 20 33 20zM-457 -332v-4q0 -10 -57 -29
v8zM-550 -373h12q-8 -16 -24 -16v4zM-578 -393v-8l-45 -12v8zM2169 2019q60 0 118 -62q0 -11 -104 -70q-190 -158 -190 -289v-4q0 -14 23 -31l5 -23q-19 -15 -46 -15q-44 0 -126 58l-18 3q0 26 45 124q-17 0 -230 -97l-72 -34v7l-90 -50h-5v8l14 15h-5q-12 -12 -90 -38
q-58 -35 -99 -35q54 39 343 197l437 262q60 64 90 74z" />
    <glyph glyph-name="Atilde" unicode="&#xc3;" horiz-adv-x="1019" 
d="M2446 1887q-1 -16 -109 -52v-5h9l38 14v-9q-12 0 -109 -67q-19 0 -19 -19l-96 -48q-152 -71 -195 -71q-82 0 -115 76l5 5v4q-19 0 -33 15q-98 -25 -310 -129l-5 -5q0 -22 -43 -43h-9q-58 53 -86 119v5q12 14 319 138q125 48 239 48q86 -20 86 -81l14 -9h38l48 19l214 62z
M1736 1561q69 -80 69 -117q0 -29 -94 -93q-163 -125 -254 -247q-49 -49 -150 -194q-45 -53 -61 -97q-130 -179 -186 -328l-28 -69q260 -19 311 -53v-8q-109 13 -190 13q-117 0 -141 -33q-70 -146 -77 -283v-32l12 -49v-8l-20 -16h-17q-45 0 -161 97q-21 0 -21 28
q29 131 85 287q-85 0 -259 -40q0 -16 -24 -16q-129 -52 -166 -101q-176 -146 -190 -146h-4v8l49 36l-4 5v4q32 6 32 16v12h-16l12 16v4q-40 -11 -77 -48q0 -14 -49 -33q-57 -53 -157 -121q0 -11 -85 -65q-3 -10 -41 -28q0 -13 -121 -81q0 -18 -65 -41q-34 -40 -162 -85
q-74 -50 -218 -89q-77 -13 -77 -24v-4h-32l-37 -12q-106 0 -162 61v-4l4 -4v-4h-4l-12 12l4 12h-4q-14 7 -20 24q92 175 409 344l174 81q15 0 64 36l12 4l4 -4h5q152 50 190 73q0 23 77 37v-9q111 37 137 37q38 20 194 48q97 26 97 45h13v-8h4q36 20 538 473q1 13 526 518
q97 75 279 255zM838 574l-29 4q-40 -15 -40 -45q-10 0 -29 -24q-46 -17 -145 -121l8 -8h8l8 8l28 -4h4q181 0 183 24l133 263h-4q-76 -48 -121 -97h-4zM579 566h4l-25 -25h-4zM514 501v-4l-24 -20h-4v8zM579 444h4l28 29h-4zM498 392v-4q60 24 60 52l17 8v9h-4zM587 420
l-8 -12h4l16 8v4h-12zM724 363h4q53 0 89 13v4h-32q-61 0 -61 -17zM150 242l-24 4q0 -8 -57 -20q0 -7 -113 -45q-38 0 -417 -157q-108 -53 -202 -122h4l52 20q22 26 73 41q30 40 97 40v4h-8v9q132 72 170 72h4v-4q-123 -50 -138 -64h5l210 89l409 133l8 16v8zM263 189
q12 0 12 -8q-12 0 -12 -8h4q65 48 77 69h-4q-56 -23 -77 -53zM-198 84h-8v8h-4q-31 -40 -65 -40l-12 4l-223 -109q-17 0 -72 -45q-67 -24 -85 -48q-35 -23 -65 -57l-69 -53l-20 5l-12 -13v-4l4 4h12v-8q-93 -82 -93 -113v-8l48 -4q195 0 672 303q277 207 307 239q20 9 65 61
v4q-74 0 -206 -61zM-166 177v-4h4l12 4v4h-4zM142 40h4v-8l-20 -16l-9 8zM93 28h4v-4l-24 -21h-4q3 14 24 25zM93 -1h8v-8h-16zM45 -9h4l-8 -8h-4zM77 -9h8v-4l-28 -24h-8v4zM-48 -78v-4q0 -16 -73 -56q0 -16 -89 -57q96 81 129 97q0 20 33 20zM-457 -332v-4q0 -10 -57 -29
v8zM-550 -373h12q-8 -16 -24 -16v4zM-578 -393v-8l-45 -12v8z" />
    <glyph glyph-name="Egrave" unicode="&#xc8;" horiz-adv-x="1390" 
d="M2518 1609l382 -17q7 17 30 17l9 -17l21 4h4q9 -2 18 -22l21 5q13 -3 13 -30l-4 -39l34 -51q0 -82 -103 -82v-4l-4 -4v-5l-22 5l-94 -22l-4 4v5l4 4v4h-9l-120 -17l-8 9h-43q-18 13 -56 13q0 -9 -47 -9l4 -4v-5l-4 -4h-13q-22 0 -22 9l-4 -5h-13l-64 -4l-56 4l-107 -4
l-26 9h-34l-69 -17l-21 4q-126 -22 -180 -22h-9v9h13q126 47 446 120l64 9v4l-43 -4h-81q-399 -29 -399 -39q-39 3 -39 9q0 -20 -184 -39q-186 -17 -313 -60q0 -6 -60 -30q0 -18 -176 -159l-56 -47h4q0 23 627 73l399 13h17q197 0 197 -17l-4 -5h-34l-138 5l-17 -18v-4
l-210 -8h-9l-219 -26q-69 -7 -81 -22l-21 5l-43 -17q0 8 -13 8q-37 -20 -245 -34h-26q-43 -30 -111 -30q-8 -18 -146 -60q-137 -13 -137 -47l-133 -116q-201 -164 -288 -283q-120 -93 -210 -232l-51 -82v-4q47 0 141 56l562 214q701 223 948 223v-8q-413 -90 -484 -116
l-258 -77q0 -25 -141 -69q-44 -33 -163 -73q-13 -21 -26 -21l4 -5v-8l-176 -82q0 -25 -38 -34q-40 -15 -99 -69q-24 0 -112 -55q-98 -65 -176 -65l-30 -4q-107 17 -107 30l-4 -4h-9v8l-4 -4h-4q-26 36 -26 56q42 123 219 364q191 238 266 318h-5l-120 -34l-12 12
q25 39 210 99q26 53 81 77q188 204 232 236h21l99 125h-4l-180 -52l-56 -4h-52q-20 0 -30 13l-4 -4h-4q-99 28 -99 68l-26 13l5 17l-5 26l35 47q156 39 330 39v-9q-197 -27 -197 -60l8 -8l65 8l34 -4h8q0 8 73 13l43 -5l17 5v-9q-65 -11 -94 -26v-4h13q120 39 172 47l17 -4
h4l17 13h26q58 0 206 180l17 13h13q44 0 103 -77v-9h30q69 0 472 64q268 22 570 35zM2433 1562l193 8v4l-30 5l-56 -5l-47 5q-60 -8 -60 -17zM2690 1566h30v4l-22 4zM2282 1557v-4h13l22 4v5h-13zM2205 1557v-4h22v4h-22zM2094 1502v-5h77l17 5l17 -5h13l77 -4q56 13 125 17
l85 -8q35 7 35 17l-13 8l-30 -4q-69 0 -69 9q0 -20 -334 -30zM1943 1493v-4h5l68 4h60v9h-38zM910 1450h12v-9h-12v9zM2235 1450h22v-9h-22v9zM1103 1386l-22 4q0 -9 -26 -9l-21 -8l-4 -4v-5q70 8 107 26v4h-9zM2587 1356h30v-9h-30v9zM1312 2115q53 0 637 -190
q218 -81 218 -114v-5q-19 -35 -33 -133l-38 -14q-138 57 -138 76q-7 17 -195 76q-35 25 -147 62q-7 10 -90 42l-19 34l5 14q-86 49 -114 85q-32 30 -86 57v10z" />
    <glyph glyph-name="Eacute" unicode="&#xc9;" horiz-adv-x="1390" 
d="M2518 1609l382 -17q7 17 30 17l9 -17l21 4h4q9 -2 18 -22l21 5q13 -3 13 -30l-4 -39l34 -51q0 -82 -103 -82v-4l-4 -4v-5l-22 5l-94 -22l-4 4v5l4 4v4h-9l-120 -17l-8 9h-43q-18 13 -56 13q0 -9 -47 -9l4 -4v-5l-4 -4h-13q-22 0 -22 9l-4 -5h-13l-64 -4l-56 4l-107 -4
l-26 9h-34l-69 -17l-21 4q-126 -22 -180 -22h-9v9h13q126 47 446 120l64 9v4l-43 -4h-81q-399 -29 -399 -39q-39 3 -39 9q0 -20 -184 -39q-186 -17 -313 -60q0 -6 -60 -30q0 -18 -176 -159l-56 -47h4q0 23 627 73l399 13h17q197 0 197 -17l-4 -5h-34l-138 5l-17 -18v-4
l-210 -8h-9l-219 -26q-69 -7 -81 -22l-21 5l-43 -17q0 8 -13 8q-37 -20 -245 -34h-26q-43 -30 -111 -30q-8 -18 -146 -60q-137 -13 -137 -47l-133 -116q-201 -164 -288 -283q-120 -93 -210 -232l-51 -82v-4q47 0 141 56l562 214q701 223 948 223v-8q-413 -90 -484 -116
l-258 -77q0 -25 -141 -69q-44 -33 -163 -73q-13 -21 -26 -21l4 -5v-8l-176 -82q0 -25 -38 -34q-40 -15 -99 -69q-24 0 -112 -55q-98 -65 -176 -65l-30 -4q-107 17 -107 30l-4 -4h-9v8l-4 -4h-4q-26 36 -26 56q42 123 219 364q191 238 266 318h-5l-120 -34l-12 12
q25 39 210 99q26 53 81 77q188 204 232 236h21l99 125h-4l-180 -52l-56 -4h-52q-20 0 -30 13l-4 -4h-4q-99 28 -99 68l-26 13l5 17l-5 26l35 47q156 39 330 39v-9q-197 -27 -197 -60l8 -8l65 8l34 -4h8q0 8 73 13l43 -5l17 5v-9q-65 -11 -94 -26v-4h13q120 39 172 47l17 -4
h4l17 13h26q58 0 206 180l17 13h13q44 0 103 -77v-9h30q69 0 472 64q268 22 570 35zM2433 1562l193 8v4l-30 5l-56 -5l-47 5q-60 -8 -60 -17zM2690 1566h30v4l-22 4zM2282 1557v-4h13l22 4v5h-13zM2205 1557v-4h22v4h-22zM2094 1502v-5h77l17 5l17 -5h13l77 -4q56 13 125 17
l85 -8q35 7 35 17l-13 8l-30 -4q-69 0 -69 9q0 -20 -334 -30zM1943 1493v-4h5l68 4h60v9h-38zM910 1450h12v-9h-12v9zM2235 1450h22v-9h-22v9zM1103 1386l-22 4q0 -9 -26 -9l-21 -8l-4 -4v-5q70 8 107 26v4h-9zM2587 1356h30v-9h-30v9zM2825 2186q-72 -53 -194 -165
q-221 -102 -238 -102v-5h4l137 39v-5q0 -12 -59 -29v-5h5l15 5v-10l-209 -97l-204 -97l-5 -5h-5l5 -5v-10q0 -10 -15 -10l5 -4v-5q-19 -15 -68 -20l-5 -5v-4l-34 4h-5l-58 -14q-18 0 -39 155l5 5h5l-5 5v5q168 107 962 379z" />
    <glyph glyph-name="Ecircumflex" unicode="&#xca;" horiz-adv-x="1390" 
d="M2518 1609l382 -17q7 17 30 17l9 -17l21 4h4q9 -2 18 -22l21 5q13 -3 13 -30l-4 -39l34 -51q0 -82 -103 -82v-4l-4 -4v-5l-22 5l-94 -22l-4 4v5l4 4v4h-9l-120 -17l-8 9h-43q-18 13 -56 13q0 -9 -47 -9l4 -4v-5l-4 -4h-13q-22 0 -22 9l-4 -5h-13l-64 -4l-56 4l-107 -4
l-26 9h-34l-69 -17l-21 4q-126 -22 -180 -22h-9v9h13q126 47 446 120l64 9v4l-43 -4h-81q-399 -29 -399 -39q-39 3 -39 9q0 -20 -184 -39q-186 -17 -313 -60q0 -6 -60 -30q0 -18 -176 -159l-56 -47h4q0 23 627 73l399 13h17q197 0 197 -17l-4 -5h-34l-138 5l-17 -18v-4
l-210 -8h-9l-219 -26q-69 -7 -81 -22l-21 5l-43 -17q0 8 -13 8q-37 -20 -245 -34h-26q-43 -30 -111 -30q-8 -18 -146 -60q-137 -13 -137 -47l-133 -116q-201 -164 -288 -283q-120 -93 -210 -232l-51 -82v-4q47 0 141 56l562 214q701 223 948 223v-8q-413 -90 -484 -116
l-258 -77q0 -25 -141 -69q-44 -33 -163 -73q-13 -21 -26 -21l4 -5v-8l-176 -82q0 -25 -38 -34q-40 -15 -99 -69q-24 0 -112 -55q-98 -65 -176 -65l-30 -4q-107 17 -107 30l-4 -4h-9v8l-4 -4h-4q-26 36 -26 56q42 123 219 364q191 238 266 318h-5l-120 -34l-12 12
q25 39 210 99q26 53 81 77q188 204 232 236h21l99 125h-4l-180 -52l-56 -4h-52q-20 0 -30 13l-4 -4h-4q-99 28 -99 68l-26 13l5 17l-5 26l35 47q156 39 330 39v-9q-197 -27 -197 -60l8 -8l65 8l34 -4h8q0 8 73 13l43 -5l17 5v-9q-65 -11 -94 -26v-4h13q120 39 172 47l17 -4
h4l17 13h26q58 0 206 180l17 13h13q44 0 103 -77v-9h30q69 0 472 64q268 22 570 35zM2433 1562l193 8v4l-30 5l-56 -5l-47 5q-60 -8 -60 -17zM2690 1566h30v4l-22 4zM2282 1557v-4h13l22 4v5h-13zM2205 1557v-4h22v4h-22zM2094 1502v-5h77l17 5l17 -5h13l77 -4q56 13 125 17
l85 -8q35 7 35 17l-13 8l-30 -4q-69 0 -69 9q0 -20 -334 -30zM1943 1493v-4h5l68 4h60v9h-38zM910 1450h12v-9h-12v9zM2235 1450h22v-9h-22v9zM1103 1386l-22 4q0 -9 -26 -9l-21 -8l-4 -4v-5q70 8 107 26v4h-9zM2587 1356h30v-9h-30v9zM2501 2151q60 0 118 -62
q0 -11 -104 -70q-190 -158 -190 -289v-4q0 -14 23 -31l5 -23q-19 -15 -46 -15q-44 0 -126 58l-18 3q0 26 45 124q-17 0 -230 -97l-72 -34v7l-90 -50h-5v8l14 15h-5q-12 -12 -90 -38q-58 -35 -99 -35q54 39 343 197l437 262q60 64 90 74z" />
    <glyph glyph-name="Igrave" unicode="&#xcc;" horiz-adv-x="1163" 
d="M2323 1570h277v-9q-142 -29 -330 -44q0 -13 -165 -19v-5h24v-10h-19l-5 5q-150 -25 -150 -58h-39v-5h53l29 5v-10q-106 -34 -534 -92q-52 -2 -359 -340l-252 -248q-112 -141 -136 -145h-5q20 22 20 34h-5q-19 0 -102 -107q-16 0 -102 -87q-11 0 -68 -68l-15 -5l5 -24v-5
h-9v-5h9q280 53 350 53q311 54 364 54v-10q-175 -34 -622 -170q-144 -50 -237 -102q-13 -17 -73 -39q-46 -18 -223 -208q-33 -6 -107 -102q-16 -28 -34 -39h-5q114 153 262 325v5q-198 -19 -306 -49h-14v-4h19q121 15 121 29h25v-10h-10v-5l24 5h39v-10l-39 -9l-5 4h-4
l-112 -24l-175 -58q-159 -69 -412 -97q-59 0 -78 48l-19 15l-5 5v14l14 20q-19 0 -19 14v20q46 66 359 141q103 34 364 92q20 0 20 -34q172 43 364 77l747 932q29 37 68 58l-5 5v10q20 0 82 73h5v5h-5l-87 -10v10q56 0 117 19v5h-10l-112 -10v10q156 8 156 29l9 15h-34
q-208 -13 -208 -30h-5l-20 5q-29 -6 -29 -14h10l218 29v-10l-233 -39l-14 5l-20 -14v-5h5l83 10v-10q-238 -30 -238 -58l-112 -15l5 -5v-5l-19 -5v-4h9l68 9l25 -5l-5 15v5h5q0 -15 34 -15l58 5q0 -19 -218 -44q0 -7 -59 -14v-5h25l101 19l25 -4l199 24v-10h-5
q-199 -24 -282 -48q0 -20 -281 -63l-87 -10l-25 63v10l5 5v4l-14 15l19 5v5l-34 14l19 44v5h-9v9q34 0 77 39l102 20l20 -5q112 43 839 126q61 0 136 34l10 -15q566 68 941 68zM1959 1464v-5h20v5h-20zM824 1352v-5h5l68 5v5l-15 5zM950 1323h58l5 -5l5 5h10v-10l-146 -24
v10q13 24 68 24zM863 1303h9l5 -14h-5l-9 10v4zM766 1299h24v-10h-24v10zM741 1294h15v-10h-15v10zM979 1269h29v-9h-29v9zM940 1265h20v-10h-20v10zM901 1260h20v-10h-20v10zM960 1250q0 -13 -78 -29v10q0 13 78 19zM872 1235v-4l-14 -15l-25 5v10h15zM770 1221h15v-10h-15
v10zM702 1206h5v-9l-34 -5h-5v10zM508 1197l-9 -15h4l54 5v5zM567 1197v-5h19v5h-19zM880 2041q53 0 637 -190q218 -81 218 -114v-5q-19 -35 -33 -133l-38 -14q-138 57 -138 76q-7 17 -195 76q-35 25 -147 62q-7 10 -90 42l-19 34l5 14q-86 49 -114 85q-32 30 -86 57v10z
" />
    <glyph glyph-name="Iacute" unicode="&#xcd;" horiz-adv-x="1163" 
d="M2323 1570h277v-9q-142 -29 -330 -44q0 -13 -165 -19v-5h24v-10h-19l-5 5q-150 -25 -150 -58h-39v-5h53l29 5v-10q-106 -34 -534 -92q-52 -2 -359 -340l-252 -248q-112 -141 -136 -145h-5q20 22 20 34h-5q-19 0 -102 -107q-16 0 -102 -87q-11 0 -68 -68l-15 -5l5 -24v-5
h-9v-5h9q280 53 350 53q311 54 364 54v-10q-175 -34 -622 -170q-144 -50 -237 -102q-13 -17 -73 -39q-46 -18 -223 -208q-33 -6 -107 -102q-16 -28 -34 -39h-5q114 153 262 325v5q-198 -19 -306 -49h-14v-4h19q121 15 121 29h25v-10h-10v-5l24 5h39v-10l-39 -9l-5 4h-4
l-112 -24l-175 -58q-159 -69 -412 -97q-59 0 -78 48l-19 15l-5 5v14l14 20q-19 0 -19 14v20q46 66 359 141q103 34 364 92q20 0 20 -34q172 43 364 77l747 932q29 37 68 58l-5 5v10q20 0 82 73h5v5h-5l-87 -10v10q56 0 117 19v5h-10l-112 -10v10q156 8 156 29l9 15h-34
q-208 -13 -208 -30h-5l-20 5q-29 -6 -29 -14h10l218 29v-10l-233 -39l-14 5l-20 -14v-5h5l83 10v-10q-238 -30 -238 -58l-112 -15l5 -5v-5l-19 -5v-4h9l68 9l25 -5l-5 15v5h5q0 -15 34 -15l58 5q0 -19 -218 -44q0 -7 -59 -14v-5h25l101 19l25 -4l199 24v-10h-5
q-199 -24 -282 -48q0 -20 -281 -63l-87 -10l-25 63v10l5 5v4l-14 15l19 5v5l-34 14l19 44v5h-9v9q34 0 77 39l102 20l20 -5q112 43 839 126q61 0 136 34l10 -15q566 68 941 68zM1959 1464v-5h20v5h-20zM824 1352v-5h5l68 5v5l-15 5zM950 1323h58l5 -5l5 5h10v-10l-146 -24
v10q13 24 68 24zM863 1303h9l5 -14h-5l-9 10v4zM766 1299h24v-10h-24v10zM741 1294h15v-10h-15v10zM979 1269h29v-9h-29v9zM940 1265h20v-10h-20v10zM901 1260h20v-10h-20v10zM960 1250q0 -13 -78 -29v10q0 13 78 19zM872 1235v-4l-14 -15l-25 5v10h15zM770 1221h15v-10h-15
v10zM702 1206h5v-9l-34 -5h-5v10zM508 1197l-9 -15h4l54 5v5zM567 1197v-5h19v5h-19zM2206 2135q-72 -53 -194 -165q-221 -102 -238 -102v-5h4l137 39v-5q0 -12 -59 -29v-5h5l15 5v-10l-209 -97l-204 -97l-5 -5h-5l5 -5v-10q0 -10 -15 -10l5 -4v-5q-19 -15 -68 -20l-5 -5v-4
l-34 4h-5l-58 -14q-18 0 -39 155l5 5h5l-5 5v5q168 107 962 379z" />
    <glyph glyph-name="Ograve" unicode="&#xd2;" horiz-adv-x="1323" 
d="M1828 1576q112 0 152 -92q71 -75 88 -176v-12q0 -53 -36 -112q0 -19 -44 -56q0 -18 -48 -68q-2 -20 -224 -232l-64 -60q-12 0 -176 -132q-182 -134 -280 -188q-41 -22 -92 -64q-51 -17 -128 -68q-36 -14 -196 -108q-174 -94 -388 -168q-26 -24 -148 -40h-60
q-37 0 -160 104q-24 50 -24 100q0 224 328 632q254 283 340 328q122 104 324 200l44 8v-12q0 -37 -112 -92q-146 -113 -344 -324l-4 -16q348 325 496 392q173 115 380 184q187 72 376 72zM1220 1196l4 4v4l-16 4l-84 -40h-4q27 36 260 132q40 26 40 32v8h-4q-44 -15 -60 -32
l-148 -56q-9 0 -24 -16l-32 -20h-28v-8q-27 0 -32 -20l4 -4l-4 -4h-8v8q-12 0 -68 -36v-4h8l20 16h4v-4l-84 -64h-8l28 32h-16l-224 -172q0 -14 -36 -20v4q119 103 148 112q0 9 80 80q12 0 12 20l16 4v4h-12q-47 -47 -176 -136l-4 -28h-20q-13 -2 -64 -60q-10 0 -36 -32
q-12 0 -12 -12l4 -64q-12 -43 -156 -144q-8 0 -56 -44q-9 0 -68 -48l-20 -4l-4 4h-4q-140 -148 -140 -168q-64 -120 -64 -236l4 -56q36 -16 72 -16q347 48 1172 704q216 177 356 320q122 151 128 184q0 48 -44 56h-48l-76 8q-47 -24 -124 -36q-17 -28 -156 -64
q-4 -15 -92 -48q-75 -44 -104 -44zM968 1164v-4h4q64 30 64 44h-4zM1112 1164h4q-20 -23 -88 -60q-6 -12 -128 -88q69 63 124 92q63 56 88 56zM940 1092h4v-4q-14 -24 -36 -24v12q17 0 32 16zM896 1060h4v-4q-63 -72 -104 -80l64 52q0 9 36 32zM700 928h8v-4
q-29 -36 -52 -36v8zM660 876v-4l-8 -8v4zM1166 2092q53 0 637 -190q218 -81 218 -114v-5q-19 -35 -33 -133l-38 -14q-138 57 -138 76q-7 17 -195 76q-35 25 -147 62q-7 10 -90 42l-19 34l5 14q-86 49 -114 85q-32 30 -86 57v10z" />
    <glyph glyph-name="Oacute" unicode="&#xd3;" horiz-adv-x="1323" 
d="M1828 1576q112 0 152 -92q71 -75 88 -176v-12q0 -53 -36 -112q0 -19 -44 -56q0 -18 -48 -68q-2 -20 -224 -232l-64 -60q-12 0 -176 -132q-182 -134 -280 -188q-41 -22 -92 -64q-51 -17 -128 -68q-36 -14 -196 -108q-174 -94 -388 -168q-26 -24 -148 -40h-60
q-37 0 -160 104q-24 50 -24 100q0 224 328 632q254 283 340 328q122 104 324 200l44 8v-12q0 -37 -112 -92q-146 -113 -344 -324l-4 -16q348 325 496 392q173 115 380 184q187 72 376 72zM1220 1196l4 4v4l-16 4l-84 -40h-4q27 36 260 132q40 26 40 32v8h-4q-44 -15 -60 -32
l-148 -56q-9 0 -24 -16l-32 -20h-28v-8q-27 0 -32 -20l4 -4l-4 -4h-8v8q-12 0 -68 -36v-4h8l20 16h4v-4l-84 -64h-8l28 32h-16l-224 -172q0 -14 -36 -20v4q119 103 148 112q0 9 80 80q12 0 12 20l16 4v4h-12q-47 -47 -176 -136l-4 -28h-20q-13 -2 -64 -60q-10 0 -36 -32
q-12 0 -12 -12l4 -64q-12 -43 -156 -144q-8 0 -56 -44q-9 0 -68 -48l-20 -4l-4 4h-4q-140 -148 -140 -168q-64 -120 -64 -236l4 -56q36 -16 72 -16q347 48 1172 704q216 177 356 320q122 151 128 184q0 48 -44 56h-48l-76 8q-47 -24 -124 -36q-17 -28 -156 -64
q-4 -15 -92 -48q-75 -44 -104 -44zM968 1164v-4h4q64 30 64 44h-4zM1112 1164h4q-20 -23 -88 -60q-6 -12 -128 -88q69 63 124 92q63 56 88 56zM940 1092h4v-4q-14 -24 -36 -24v12q17 0 32 16zM896 1060h4v-4q-63 -72 -104 -80l64 52q0 9 36 32zM700 928h8v-4
q-29 -36 -52 -36v8zM660 876v-4l-8 -8v4zM2206 2135q-72 -53 -194 -165q-221 -102 -238 -102v-5h4l137 39v-5q0 -12 -59 -29v-5h5l15 5v-10l-209 -97l-204 -97l-5 -5h-5l5 -5v-10q0 -10 -15 -10l5 -4v-5q-19 -15 -68 -20l-5 -5v-4l-34 4h-5l-58 -14q-18 0 -39 155l5 5h5
l-5 5v5q168 107 962 379z" />
    <glyph glyph-name="Ocircumflex" unicode="&#xd4;" horiz-adv-x="1323" 
d="M1828 1576q112 0 152 -92q71 -75 88 -176v-12q0 -53 -36 -112q0 -19 -44 -56q0 -18 -48 -68q-2 -20 -224 -232l-64 -60q-12 0 -176 -132q-182 -134 -280 -188q-41 -22 -92 -64q-51 -17 -128 -68q-36 -14 -196 -108q-174 -94 -388 -168q-26 -24 -148 -40h-60
q-37 0 -160 104q-24 50 -24 100q0 224 328 632q254 283 340 328q122 104 324 200l44 8v-12q0 -37 -112 -92q-146 -113 -344 -324l-4 -16q348 325 496 392q173 115 380 184q187 72 376 72zM1220 1196l4 4v4l-16 4l-84 -40h-4q27 36 260 132q40 26 40 32v8h-4q-44 -15 -60 -32
l-148 -56q-9 0 -24 -16l-32 -20h-28v-8q-27 0 -32 -20l4 -4l-4 -4h-8v8q-12 0 -68 -36v-4h8l20 16h4v-4l-84 -64h-8l28 32h-16l-224 -172q0 -14 -36 -20v4q119 103 148 112q0 9 80 80q12 0 12 20l16 4v4h-12q-47 -47 -176 -136l-4 -28h-20q-13 -2 -64 -60q-10 0 -36 -32
q-12 0 -12 -12l4 -64q-12 -43 -156 -144q-8 0 -56 -44q-9 0 -68 -48l-20 -4l-4 4h-4q-140 -148 -140 -168q-64 -120 -64 -236l4 -56q36 -16 72 -16q347 48 1172 704q216 177 356 320q122 151 128 184q0 48 -44 56h-48l-76 8q-47 -24 -124 -36q-17 -28 -156 -64
q-4 -15 -92 -48q-75 -44 -104 -44zM968 1164v-4h4q64 30 64 44h-4zM1112 1164h4q-20 -23 -88 -60q-6 -12 -128 -88q69 63 124 92q63 56 88 56zM940 1092h4v-4q-14 -24 -36 -24v12q17 0 32 16zM896 1060h4v-4q-63 -72 -104 -80l64 52q0 9 36 32zM700 928h8v-4
q-29 -36 -52 -36v8zM660 876v-4l-8 -8v4zM2352 2151q60 0 118 -62q0 -11 -104 -70q-190 -158 -190 -289v-4q0 -14 23 -31l5 -23q-19 -15 -46 -15q-44 0 -126 58l-18 3q0 26 45 124q-17 0 -230 -97l-72 -34v7l-90 -50h-5v8l14 15h-5q-12 -12 -90 -38q-58 -35 -99 -35
q54 39 343 197l437 262q60 64 90 74z" />
    <glyph glyph-name="Otilde" unicode="&#xd5;" horiz-adv-x="1323" 
d="M1828 1576q112 0 152 -92q71 -75 88 -176v-12q0 -53 -36 -112q0 -19 -44 -56q0 -18 -48 -68q-2 -20 -224 -232l-64 -60q-12 0 -176 -132q-182 -134 -280 -188q-41 -22 -92 -64q-51 -17 -128 -68q-36 -14 -196 -108q-174 -94 -388 -168q-26 -24 -148 -40h-60
q-37 0 -160 104q-24 50 -24 100q0 224 328 632q254 283 340 328q122 104 324 200l44 8v-12q0 -37 -112 -92q-146 -113 -344 -324l-4 -16q348 325 496 392q173 115 380 184q187 72 376 72zM1220 1196l4 4v4l-16 4l-84 -40h-4q27 36 260 132q40 26 40 32v8h-4q-44 -15 -60 -32
l-148 -56q-9 0 -24 -16l-32 -20h-28v-8q-27 0 -32 -20l4 -4l-4 -4h-8v8q-12 0 -68 -36v-4h8l20 16h4v-4l-84 -64h-8l28 32h-16l-224 -172q0 -14 -36 -20v4q119 103 148 112q0 9 80 80q12 0 12 20l16 4v4h-12q-47 -47 -176 -136l-4 -28h-20q-13 -2 -64 -60q-10 0 -36 -32
q-12 0 -12 -12l4 -64q-12 -43 -156 -144q-8 0 -56 -44q-9 0 -68 -48l-20 -4l-4 4h-4q-140 -148 -140 -168q-64 -120 -64 -236l4 -56q36 -16 72 -16q347 48 1172 704q216 177 356 320q122 151 128 184q0 48 -44 56h-48l-76 8q-47 -24 -124 -36q-17 -28 -156 -64
q-4 -15 -92 -48q-75 -44 -104 -44zM968 1164v-4h4q64 30 64 44h-4zM1112 1164h4q-20 -23 -88 -60q-6 -12 -128 -88q69 63 124 92q63 56 88 56zM940 1092h4v-4q-14 -24 -36 -24v12q17 0 32 16zM896 1060h4v-4q-63 -72 -104 -80l64 52q0 9 36 32zM700 928h8v-4
q-29 -36 -52 -36v8zM660 876v-4l-8 -8v4zM2502 1956q-1 -16 -109 -52v-5h9l38 14v-9q-12 0 -109 -67q-19 0 -19 -19l-96 -48q-152 -71 -195 -71q-82 0 -115 76l5 5v4q-19 0 -33 15q-98 -25 -310 -129l-5 -5q0 -22 -43 -43h-9q-58 53 -86 119v5q12 14 319 138q125 48 239 48
q86 -20 86 -81l14 -9h38l48 19l214 62z" />
    <glyph glyph-name="Ugrave" unicode="&#xd9;" horiz-adv-x="1346" 
d="M2284 1539h4q83 -40 148 -40l4 -4q18 -20 44 -20l20 -36l-4 -4l4 -4v-4q-54 -34 -92 -72q-74 -38 -128 -80l-84 -56q-48 -16 -100 -60q-133 -93 -220 -164q-12 0 -64 -56q-9 0 -28 -20q-15 0 -52 -36l4 -4v-4q0 -6 -36 -20q-4 -17 -32 -32l-128 -112l4 -4v-8l-8 -8h-8
l-4 4h-4l-16 -20l8 -8q-8 -18 -16 -20h-4l8 12v12l-180 -188q-468 -539 -468 -776q0 -67 56 -108h-8q-20 0 -20 8l-4 -4h-4q-44 0 -72 100v24q0 116 28 172q0 20 24 44q27 91 52 116h-8q0 20 68 136v-8l-32 -68v-4h4q54 112 108 188l108 180l4 12l-40 -48h-4v4l56 92h-4
q-38 -33 -72 -36q-25 -34 -68 -48q0 -16 -96 -56q-10 -20 -84 -48l-64 -40q-47 -36 -476 -272q-128 -44 -168 -44q-27 12 -128 16l-4 4q-8 0 -8 12q7 68 88 156q128 144 384 408q48 40 348 360q165 163 276 296q18 0 24 48l-16 84l4 4q188 0 252 -128l4 -32q0 -79 -100 -132
q-161 -173 -296 -288h-8v8l32 48h-4q-484 -436 -568 -520q-44 -20 -112 -104q-68 -56 -68 -68v-8q290 151 604 352q152 84 476 304q99 70 252 160q160 112 500 384q111 70 212 172v4zM1076 395h8v-4l-16 -20v8zM1048 351h8q0 -21 -12 -24h-4v4zM1020 295v-8l-12 -16v8
q6 16 12 16zM1004 267v-8q-21 -48 -28 -48v8q21 48 28 48zM856 -29h4v-8l-8 -8h-4v8zM1092 1926q53 0 637 -190q218 -81 218 -114v-5q-19 -35 -33 -133l-38 -14q-138 57 -138 76q-7 17 -195 76q-35 25 -147 62q-7 10 -90 42l-19 34l5 14q-86 49 -114 85q-32 30 -86 57v10z
" />
    <glyph glyph-name="Uacute" unicode="&#xda;" horiz-adv-x="1346" 
d="M2284 1539h4q83 -40 148 -40l4 -4q18 -20 44 -20l20 -36l-4 -4l4 -4v-4q-54 -34 -92 -72q-74 -38 -128 -80l-84 -56q-48 -16 -100 -60q-133 -93 -220 -164q-12 0 -64 -56q-9 0 -28 -20q-15 0 -52 -36l4 -4v-4q0 -6 -36 -20q-4 -17 -32 -32l-128 -112l4 -4v-8l-8 -8h-8
l-4 4h-4l-16 -20l8 -8q-8 -18 -16 -20h-4l8 12v12l-180 -188q-468 -539 -468 -776q0 -67 56 -108h-8q-20 0 -20 8l-4 -4h-4q-44 0 -72 100v24q0 116 28 172q0 20 24 44q27 91 52 116h-8q0 20 68 136v-8l-32 -68v-4h4q54 112 108 188l108 180l4 12l-40 -48h-4v4l56 92h-4
q-38 -33 -72 -36q-25 -34 -68 -48q0 -16 -96 -56q-10 -20 -84 -48l-64 -40q-47 -36 -476 -272q-128 -44 -168 -44q-27 12 -128 16l-4 4q-8 0 -8 12q7 68 88 156q128 144 384 408q48 40 348 360q165 163 276 296q18 0 24 48l-16 84l4 4q188 0 252 -128l4 -32q0 -79 -100 -132
q-161 -173 -296 -288h-8v8l32 48h-4q-484 -436 -568 -520q-44 -20 -112 -104q-68 -56 -68 -68v-8q290 151 604 352q152 84 476 304q99 70 252 160q160 112 500 384q111 70 212 172v4zM1076 395h8v-4l-16 -20v8zM1048 351h8q0 -21 -12 -24h-4v4zM1020 295v-8l-12 -16v8
q6 16 12 16zM1004 267v-8q-21 -48 -28 -48v8q21 48 28 48zM856 -29h4v-8l-8 -8h-4v8zM2549 1980q-72 -53 -194 -165q-221 -102 -238 -102v-5h4l137 39v-5q0 -12 -59 -29v-5h5l15 5v-10l-209 -97l-204 -97l-5 -5h-5l5 -5v-10q0 -10 -15 -10l5 -4v-5q-19 -15 -68 -20l-5 -5v-4
l-34 4h-5l-58 -14q-18 0 -39 155l5 5h5l-5 5v5q168 107 962 379z" />
    <glyph glyph-name="Yacute" unicode="&#xdd;" horiz-adv-x="2362" 
d="M3264 1607l5 -5v-5q-95 -115 -466 -480q-59 -82 -395 -414q-51 -67 -76 -67v-14l5 -5v-4l-143 -124h10v-5l-10 -14h10q-116 -160 -191 -205q-27 -14 -171 -209q0 -8 509 -33q689 -66 975 -191l14 5q67 -34 67 -66l-14 -5v-10l14 -4q-3 -48 -19 -48l-62 5l14 -19
q-12 -10 -109 -15l-38 5v10h9v5q-62 9 -333 19v9h10l81 5l95 -14l19 4l5 -4l81 9v5l-57 5h-38l-34 -5v9h-24l-9 -9q-42 9 -114 9h-214l-10 10q25 14 48 14l152 5l109 -10l105 19v5q-43 0 -43 10l43 4v5h-38v10h57l24 4v5h-33v10l61 9v5q-581 143 -1117 143q0 -10 -15 -10
l-52 5l-167 -14q0 -11 -52 -53l-9 -9v-5l4 -14l-104 -124l5 -5v-9q-17 0 -53 -33q29 0 29 -10l-43 -24l-5 5v5l14 14h-4q-22 0 -38 -33q14 0 14 -10q-20 -42 -76 -81v5l57 67l-5 4h-5q0 -10 -152 -171q0 -15 -95 -104q0 -31 -67 -86h5l10 9v-4l-5 -15h9q-10 -17 -38 -33h-14
l5 5v9h-5q-105 -133 -233 -199q-197 -105 -338 -105h-66q-255 0 -452 233q-62 123 -62 186q14 84 62 119q9 39 100 109l-10 9q221 215 704 324q309 81 447 81l24 -5q158 19 328 24q0 14 148 204q103 155 171 219q103 149 171 224l-9 9h-5q0 -8 -67 -71q-283 -291 -347 -309
q-181 -134 -228 -134q-100 25 -100 62q-14 5 -14 29q0 55 147 228q7 43 29 43q18 6 171 190q231 255 361 443v4l-4 24q14 52 47 52q95 -46 95 -142v-38q0 -66 -138 -210l-314 -356v-5q24 0 595 442q550 557 604 557q30 33 57 33l15 -5q52 42 171 57q1 10 28 15zM1728 51
l5 -4h14q10 0 62 104q80 73 100 129q98 98 185 223q14 7 62 72v9q-113 -111 -262 -309q-17 -6 -76 -110q-16 0 -33 -38q-13 0 -57 -76zM2156 446h5l9 14v5zM2108 394h5l10 9v5zM2070 346q-57 -60 -57 -71h5l57 71h-5zM1794 85v-5q20 7 20 14v10zM134 -634h10v-4l-10 -43
q28 0 34 -95q9 0 81 -81l38 -24v-10l-34 10q97 -86 248 -86h28q216 0 471 210q78 87 148 133q58 91 242 304q0 11 57 62l157 214v5q-614 -62 -870 -181q-343 -124 -462 -238q0 -8 -57 -38q-81 -99 -81 -138zM296 -339h10q64 37 71 53h-5q-74 -42 -76 -53zM2974 -305l38 -10
v-10h-90v10h38zM3022 -315h38v-10h-38v10zM201 -415l-19 -24v-9h10l19 19v5zM130 -524q62 53 62 62v4q-62 -44 -62 -66zM120 -619v-5h5l33 104q-18 -7 -38 -99zM111 -634q0 -14 -15 -14v-43q0 -30 19 -90h5v14h5l5 -5h4v5l-9 48l-5 -5h-5l-9 9v19l14 58l-5 4h-4zM1081 -795
q9 0 48 52q28 0 28 28l57 53v5h-9l-100 -96q0 -11 -19 -28zM6 -667h10l28 -86v-4q-38 39 -38 90zM163 -791q0 -14 -10 -14h-14l-5 5h-4v-5q45 -52 71 -52l-19 14l-5 5v9h19l-28 19v5l4 5v5l-4 4h-5zM915 -919h4q37 14 62 47v5q-35 0 -66 -52zM3434 1980q-72 -53 -194 -165
q-221 -102 -238 -102v-5h4l137 39v-5q0 -12 -59 -29v-5h5l15 5v-10l-209 -97l-204 -97l-5 -5h-5l5 -5v-10q0 -10 -15 -10l5 -4v-5q-19 -15 -68 -20l-5 -5v-4l-34 4h-5l-58 -14q-18 0 -39 155l5 5h5l-5 5v5q168 107 962 379z" />
    <glyph glyph-name="agrave" unicode="&#xe0;" 
d="M482 1143q53 0 637 -190q218 -81 218 -114v-5q-19 -35 -33 -133l-38 -14q-138 57 -138 76q-7 17 -195 76q-35 25 -147 62q-7 10 -90 42l-19 34l5 14q-86 49 -114 85q-32 30 -86 57v10zM1105 700h19l33 -62q0 -74 -176 -176q0 -8 -76 -57q0 -22 -156 -161q0 -28 -67 -81
q-23 -43 -33 -43l-62 -100h-14v5l43 90q-70 -86 -95 -232l-5 -62l5 -5h4l-4 -5v-19q7 -52 52 -52h24q51 10 123 38q0 -22 -142 -71l-34 -5q-71 0 -71 128q0 176 176 428l33 66l-152 -99l5 -5l-228 -133l-138 -90q-47 -19 -47 -34q-64 0 -105 105v5q5 61 290 285
q90 57 109 57q107 110 475 232l185 48l19 -5zM397 220h5l290 180v5h-5q-149 -83 -290 -185zM563 16h19l-9 -10z" />
    <glyph glyph-name="aacute" unicode="&#xe1;" 
d="M1587 1205q-72 -53 -194 -165q-221 -102 -238 -102v-5h4l137 39v-5q0 -12 -59 -29v-5h5l15 5v-10l-209 -97l-204 -97l-5 -5h-5l5 -5v-10q0 -10 -15 -10l5 -4v-5q-19 -15 -68 -20l-5 -5v-4l-34 4h-5l-58 -14q-18 0 -39 155l5 5h5l-5 5v5q168 107 962 379zM1105 700h19
l33 -62q0 -74 -176 -176q0 -8 -76 -57q0 -22 -156 -161q0 -28 -67 -81q-23 -43 -33 -43l-62 -100h-14v5l43 90q-70 -86 -95 -232l-5 -62l5 -5h4l-4 -5v-19q7 -52 52 -52h24q51 10 123 38q0 -22 -142 -71l-34 -5q-71 0 -71 128q0 176 176 428l33 66l-152 -99l5 -5l-228 -133
l-138 -90q-47 -19 -47 -34q-64 0 -105 105v5q5 61 290 285q90 57 109 57q107 110 475 232l185 48l19 -5zM397 220h5l290 180v5h-5q-149 -83 -290 -185zM563 16h19l-9 -10z" />
    <glyph glyph-name="acircumflex" unicode="&#xe2;" 
d="M1104 684h19l34 -58q0 -68 -178 -163q0 -8 -78 -54q0 -20 -159 -150q0 -26 -67 -75q-24 -40 -34 -40l-62 -93h-15v4l43 84q-70 -81 -96 -217l-5 -57l5 -5h5l-5 -4v-18q8 -49 53 -49h24q52 9 125 36q0 -21 -144 -67l-34 -4q-72 0 -72 120q0 163 178 398l34 62l-154 -93
l4 -4l-231 -124l-140 -84q-48 -18 -48 -31q-64 0 -106 97v4q5 58 294 266q91 53 111 53q108 103 482 217l188 45l19 -5zM386 237h4l295 168v4h-5q-152 -77 -294 -172zM554 46h20l-10 -9zM1499 1195q54 0 107 -59q0 -10 -95 -66q-173 -151 -173 -275v-3q0 -14 21 -30l4 -22
q-17 -14 -41 -14q-41 0 -116 55l-16 3q0 25 41 117q-16 0 -210 -91l-66 -33v7l-82 -47h-4v7l12 15h-4q-11 -12 -82 -37q-54 -33 -91 -33q49 37 313 187l399 249q55 60 83 70z" />
    <glyph glyph-name="atilde" unicode="&#xe3;" 
d="M1701 1005q-1 -16 -109 -52v-5h9l38 14v-9q-12 0 -109 -67q-19 0 -19 -19l-96 -48q-152 -71 -195 -71q-82 0 -115 76l5 5v4q-19 0 -33 15q-98 -25 -310 -129l-5 -5q0 -22 -43 -43h-9q-58 53 -86 119v5q12 14 319 138q125 48 239 48q86 -20 86 -81l14 -9h38l48 19l214 62z
M1105 700h19l33 -62q0 -74 -176 -176q0 -8 -76 -57q0 -22 -156 -161q0 -28 -67 -81q-23 -43 -33 -43l-62 -100h-14v5l43 90q-70 -86 -95 -232l-5 -62l5 -5h4l-4 -5v-19q7 -52 52 -52h24q51 10 123 38q0 -22 -142 -71l-34 -5q-71 0 -71 128q0 176 176 428l33 66l-152 -99
l5 -5l-228 -133l-138 -90q-47 -19 -47 -34q-64 0 -105 105v5q5 61 290 285q90 57 109 57q107 110 475 232l185 48l19 -5zM397 220h5l290 180v5h-5q-149 -83 -290 -185zM563 16h19l-9 -10z" />
    <glyph glyph-name="egrave" unicode="&#xe8;" horiz-adv-x="744" 
d="M818 693h42q37 0 96 -33q29 -6 29 -30q0 -14 33 -46v-20l5 -38l-5 -4v-4l13 -55l-33 -21l-30 5h-12q-199 -37 -451 -138q-180 -82 -363 -184v-4q0 -8 12 -8q179 21 397 79q210 58 371 121q0 -6 -91 -42q-172 -87 -460 -192q-24 -29 -121 -41q-81 -38 -171 -38
q-42 0 -62 29l-4 -4h-5l-8 8v34q0 132 209 309q35 21 50 21v-5q-26 -25 -38 -25l9 -12q-67 -52 -67 -59h4l230 184v4l-67 -37h-9q28 33 38 33l-4 4v4q136 116 279 163q82 42 184 42zM526 451v-4h4q138 50 276 83v8h-17q-71 -1 -263 -87zM365 1113q53 0 637 -190
q218 -81 218 -114v-5q-19 -35 -33 -133l-38 -14q-138 57 -138 76q-7 17 -195 76q-35 25 -147 62q-7 10 -90 42l-19 34l5 14q-86 49 -114 85q-32 30 -86 57v10z" />
    <glyph glyph-name="eacute" unicode="&#xe9;" horiz-adv-x="744" 
d="M818 693h42q37 0 96 -33q29 -6 29 -30q0 -14 33 -46v-20l5 -38l-5 -4v-4l13 -55l-33 -21l-30 5h-12q-199 -37 -451 -138q-180 -82 -363 -184v-4q0 -8 12 -8q179 21 397 79q210 58 371 121q0 -6 -91 -42q-172 -87 -460 -192q-24 -29 -121 -41q-81 -38 -171 -38
q-42 0 -62 29l-4 -4h-5l-8 8v34q0 132 209 309q35 21 50 21v-5q-26 -25 -38 -25l9 -12q-67 -52 -67 -59h4l230 184v4l-67 -37h-9q28 33 38 33l-4 4v4q136 116 279 163q82 42 184 42zM526 451v-4h4q138 50 276 83v8h-17q-71 -1 -263 -87zM1352 1205q-72 -53 -194 -165
q-221 -102 -238 -102v-5h4l137 39v-5q0 -12 -59 -29v-5h5l15 5v-10l-209 -97l-204 -97l-5 -5h-5l5 -5v-10q0 -10 -15 -10l5 -4v-5q-19 -15 -68 -20l-5 -5v-4l-34 4h-5l-58 -14q-18 0 -39 155l5 5h5l-5 5v5q168 107 962 379z" />
    <glyph glyph-name="ecircumflex" unicode="&#xea;" horiz-adv-x="744" 
d="M818 693h42q37 0 96 -33q29 -6 29 -30q0 -14 33 -46v-20l5 -38l-5 -4v-4l13 -55l-33 -21l-30 5h-12q-199 -37 -451 -138q-180 -82 -363 -184v-4q0 -8 12 -8q179 21 397 79q210 58 371 121q0 -6 -91 -42q-172 -87 -460 -192q-24 -29 -121 -41q-81 -38 -171 -38
q-42 0 -62 29l-4 -4h-5l-8 8v34q0 132 209 309q35 21 50 21v-5q-26 -25 -38 -25l9 -12q-67 -52 -67 -59h4l230 184v4l-67 -37h-9q28 33 38 33l-4 4v4q136 116 279 163q82 42 184 42zM526 451v-4h4q138 50 276 83v8h-17q-71 -1 -263 -87zM1293 1195q54 0 107 -59
q0 -10 -95 -66q-173 -151 -173 -275v-3q0 -14 21 -30l4 -22q-17 -14 -41 -14q-41 0 -116 55l-16 3q0 25 41 117q-16 0 -210 -91l-66 -33v7l-82 -47h-4v7l12 15h-4q-11 -12 -82 -37q-54 -33 -91 -33q49 37 313 187l399 249q55 60 83 70z" />
    <glyph glyph-name="igrave" unicode="&#xec;" horiz-adv-x="429" 
d="M605 681q61 -27 111 -97l8 -27v-4q-32 -49 -150 -115l-142 -106q-68 -47 -84 -67q-32 -19 -48 -39q-57 -48 -111 -120q-22 0 -22 -22l-9 -13h4q100 39 531 376v-9q-66 -75 -221 -195q-14 -23 -208 -199q-54 -44 -88 -44q-22 0 -22 9l-5 -5h-4q-71 23 -71 67q0 87 230 336
q221 216 301 274zM204 1050q53 0 637 -190q218 -81 218 -114v-5q-19 -35 -33 -133l-38 -14q-138 57 -138 76q-7 17 -195 76q-35 25 -147 62q-7 10 -90 42l-19 34l5 14q-86 49 -114 85q-32 30 -86 57v10z" />
    <glyph glyph-name="iacute" unicode="&#xed;" horiz-adv-x="429" 
d="M605 681q61 -27 111 -97l8 -27v-4q-32 -49 -150 -115l-142 -106q-68 -47 -84 -67q-32 -19 -48 -39q-57 -48 -111 -120q-22 0 -22 -22l-9 -13h4q100 39 531 376v-9q-66 -75 -221 -195q-14 -23 -208 -199q-54 -44 -88 -44q-22 0 -22 9l-5 -5h-4q-71 23 -71 67q0 87 230 336
q221 216 301 274zM1500 1262q-72 -53 -194 -165q-221 -102 -238 -102v-5h4l137 39v-5q0 -12 -59 -29v-5h5l15 5v-10l-209 -97l-204 -97l-5 -5h-5l5 -5v-10q0 -10 -15 -10l5 -4v-5q-19 -15 -68 -20l-5 -5v-4l-34 4h-5l-58 -14q-18 0 -39 155l5 5h5l-5 5v5q168 107 962 379z
" />
    <glyph glyph-name="ograve" unicode="&#xf2;" horiz-adv-x="658" 
d="M859 701q92 0 128 -103l5 -25q0 -15 -35 -73q-34 -47 -64 -68q-45 -58 -171 -129q-182 -131 -209 -141l-4 5l-52 -26l5 -4v-4q-201 -118 -334 -133q-44 7 -68 34l-51 60v4l12 17q-21 3 -21 13q8 21 81 77h9l-47 -47v-4h8q9 0 77 73l-4 4v4l111 86l30 124q286 227 556 256
h38zM389 312l-17 9q-13 0 -86 -73q-45 -30 -89 -81l12 -9h9q23 0 60 43l4 -4h9q59 0 423 260q108 91 132 133h-4q-126 -32 -346 -188q-66 -53 -90 -86zM406 115v-4h4q35 15 35 22h-5zM365 1113q53 0 637 -190q218 -81 218 -114v-5q-19 -35 -33 -133l-38 -14q-138 57 -138 76
q-7 17 -195 76q-35 25 -147 62q-7 10 -90 42l-19 34l5 14q-86 49 -114 85q-32 30 -86 57v10z" />
    <glyph glyph-name="oacute" unicode="&#xf3;" horiz-adv-x="658" 
d="M859 701q92 0 128 -103l5 -25q0 -15 -35 -73q-34 -47 -64 -68q-45 -58 -171 -129q-182 -131 -209 -141l-4 5l-52 -26l5 -4v-4q-201 -118 -334 -133q-44 7 -68 34l-51 60v4l12 17q-21 3 -21 13q8 21 81 77h9l-47 -47v-4h8q9 0 77 73l-4 4v4l111 86l30 124q286 227 556 256
h38zM389 312l-17 9q-13 0 -86 -73q-45 -30 -89 -81l12 -9h9q23 0 60 43l4 -4h9q59 0 423 260q108 91 132 133h-4q-126 -32 -346 -188q-66 -53 -90 -86zM406 115v-4h4q35 15 35 22h-5zM1392 1245q-72 -53 -194 -165q-221 -102 -238 -102v-5h4l137 39v-5q0 -12 -59 -29v-5h5
l15 5v-10l-209 -97l-204 -97l-5 -5h-5l5 -5v-10q0 -10 -15 -10l5 -4v-5q-19 -15 -68 -20l-5 -5v-4l-34 4h-5l-58 -14q-18 0 -39 155l5 5h5l-5 5v5q168 107 962 379z" />
    <glyph glyph-name="ocircumflex" unicode="&#xf4;" horiz-adv-x="658" 
d="M859 701q92 0 128 -103l5 -25q0 -15 -35 -73q-34 -47 -64 -68q-45 -58 -171 -129q-182 -131 -209 -141l-4 5l-52 -26l5 -4v-4q-201 -118 -334 -133q-44 7 -68 34l-51 60v4l12 17q-21 3 -21 13q8 21 81 77h9l-47 -47v-4h8q9 0 77 73l-4 4v4l111 86l30 124q286 227 556 256
h38zM389 312l-17 9q-13 0 -86 -73q-45 -30 -89 -81l12 -9h9q23 0 60 43l4 -4h9q59 0 423 260q108 91 132 133h-4q-126 -32 -346 -188q-66 -53 -90 -86zM406 115v-4h4q35 15 35 22h-5zM1293 1195q54 0 107 -59q0 -10 -95 -66q-173 -151 -173 -275v-3q0 -14 21 -30l4 -22
q-17 -14 -41 -14q-41 0 -116 55l-16 3q0 25 41 117q-16 0 -210 -91l-66 -33v7l-82 -47h-4v7l12 15h-4q-11 -12 -82 -37q-54 -33 -91 -33q49 37 313 187l399 249q55 60 83 70z" />
    <glyph glyph-name="otilde" unicode="&#xf5;" horiz-adv-x="658" 
d="M859 701q92 0 128 -103l5 -25q0 -15 -35 -73q-34 -47 -64 -68q-45 -58 -171 -129q-182 -131 -209 -141l-4 5l-52 -26l5 -4v-4q-201 -118 -334 -133q-44 7 -68 34l-51 60v4l12 17q-21 3 -21 13q8 21 81 77h9l-47 -47v-4h8q9 0 77 73l-4 4v4l111 86l30 124q286 227 556 256
h38zM389 312l-17 9q-13 0 -86 -73q-45 -30 -89 -81l12 -9h9q23 0 60 43l4 -4h9q59 0 423 260q108 91 132 133h-4q-126 -32 -346 -188q-66 -53 -90 -86zM406 115v-4h4q35 15 35 22h-5zM1547 1063q-1 -16 -109 -52v-5h9l38 14v-9q-12 0 -109 -67q-19 0 -19 -19l-96 -48
q-152 -71 -195 -71q-82 0 -115 76l5 5v4q-19 0 -33 15q-98 -25 -310 -129l-5 -5q0 -22 -43 -43h-9q-58 53 -86 119v5q12 14 319 138q125 48 239 48q86 -20 86 -81l14 -9h38l48 19l214 62z" />
    <glyph glyph-name="divide" unicode="&#xf7;" horiz-adv-x="1706" 
 />
    <glyph glyph-name="glyph216" unicode="&#xf9;" horiz-adv-x="727" 
d="M1080 723q77 -34 77 -97v-20q-132 -87 -218 -162l-53 -48h-4v8q-30 -20 -125 -113q-9 0 -33 -25h-8v4l61 85h-4q-93 -67 -292 -295q-60 -84 -60 -121l4 -17v-4h-4q-8 0 -8 33h-4v-25l4 -16l-4 -12l8 -8v-4h-4q-12 0 -17 40v17l5 16l-5 4v4q47 111 178 259l25 40
l-198 -121q-225 -130 -263 -130h-13q-74 37 -113 65l-12 12q0 35 223 251q0 11 157 162l150 170h8q134 -30 134 -77q-11 -31 -61 -69q-5 -17 -287 -279l-57 -65h4q115 63 401 267l376 255zM781 367v-4h8q16 6 16 13zM379 1182q53 0 637 -190q218 -81 218 -114v-5
q-19 -35 -33 -133l-38 -14q-138 57 -138 76q-7 17 -195 76q-35 25 -147 62q-7 10 -90 42l-19 34l5 14q-86 49 -114 85q-32 30 -86 57v10z" />
    <glyph glyph-name="glyph217" unicode="&#xfa;" horiz-adv-x="727" 
d="M1080 723q77 -34 77 -97v-20q-132 -87 -218 -162l-53 -48h-4v8q-30 -20 -125 -113q-9 0 -33 -25h-8v4l61 85h-4q-93 -67 -292 -295q-60 -84 -60 -121l4 -17v-4h-4q-8 0 -8 33h-4v-25l4 -16l-4 -12l8 -8v-4h-4q-12 0 -17 40v17l5 16l-5 4v4q47 111 178 259l25 40
l-198 -121q-225 -130 -263 -130h-13q-74 37 -113 65l-12 12q0 35 223 251q0 11 157 162l150 170h8q134 -30 134 -77q-11 -31 -61 -69q-5 -17 -287 -279l-57 -65h4q115 63 401 267l376 255zM781 367v-4h8q16 6 16 13zM1730 1279q-72 -53 -194 -165q-221 -102 -238 -102v-5h4
l137 39v-5q0 -12 -59 -29v-5h5l15 5v-10l-209 -97l-204 -97l-5 -5h-5l5 -5v-10q0 -10 -15 -10l5 -4v-5q-19 -15 -68 -20l-5 -5v-4l-34 4h-5l-58 -14q-18 0 -39 155l5 5h5l-5 5v5q168 107 962 379z" />
    <glyph glyph-name="glyph234" unicode="&#xfd;" horiz-adv-x="952" 
d="M1213 732q30 0 47 -80v-14l-80 -105q-101 -162 -289 -350q0 -12 -81 -75q-35 -59 -179 -185q-24 0 -24 -28l-47 -38q-31 -32 -71 -38l-19 -24l28 19h10q-55 -76 -105 -76q-11 -19 -28 -19l5 -4v-5l-5 -5h-5v5q-11 0 -47 -47q-38 0 -38 -33h-24v-15q307 -97 611 -298
q90 -68 128 -118v-5q-194 153 -294 185l-4 -5h-5l-246 95q-80 45 -294 94q-15 -23 -90 -61q0 -7 -61 -19q-5 -20 -147 -76l-14 -14l-5 5v4q-41 -8 -57 -28l-151 -47l-180 -71q-41 0 -66 -29l-14 10h-14q0 -17 -95 -33l-123 -38q0 -6 -47 -19l-34 9l-56 -23l-38 4
q-81 -28 -137 -33q0 -10 -128 -23q0 -10 -33 -10q-10 19 -24 19q-36 -22 -156 -28l-142 9l-109 -14q-260 50 -260 76q-76 30 -76 113v14q35 97 218 199q587 298 1287 298q295 0 672 -71h5q110 46 217 138q341 273 545 539h-5q-46 -28 -76 -28h-14q0 -24 -66 -38
q-74 -47 -161 -85q-56 -44 -147 -81q-32 -28 -156 -80q-31 -33 -109 -48q-33 7 -33 34q-18 0 -62 66q-33 0 -33 66v9l48 76l312 237q101 68 161 128q0 8 23 14l10 57h14q38 -29 38 -86v-4q0 -82 -199 -289h10q601 320 643 364l62 34q2 18 14 18h28zM579 278h4l24 5v4h-19z
M299 -323l-61 -47l5 -5h4l57 52h-5zM-1305 -423l-38 5q0 -14 -80 -23q-10 -21 -313 -114q-255 -108 -255 -166v-9q29 -73 326 -100q348 0 767 100l412 137l260 104q86 50 199 100q0 11 -213 42q-24 0 -38 10l-312 9q-248 -14 -521 -47zM1612 1199q-72 -53 -194 -165
q-221 -102 -238 -102v-5h4l137 39v-5q0 -12 -59 -29v-5h5l15 5v-10l-209 -97l-204 -97l-5 -5h-5l5 -5v-10q0 -10 -15 -10l5 -4v-5q-19 -15 -68 -20l-5 -5v-4l-34 4h-5l-58 -14q-18 0 -39 155l5 5h5l-5 5v5q168 107 962 379z" />
    <glyph glyph-name="Abreve" unicode="&#x102;" horiz-adv-x="1019" 
d="M1736 1561q69 -80 69 -117q0 -29 -94 -93q-163 -125 -254 -247q-49 -49 -150 -194q-45 -53 -61 -97q-130 -179 -186 -328l-28 -69q260 -19 311 -53v-8q-109 13 -190 13q-117 0 -141 -33q-70 -146 -77 -283v-32l12 -49v-8l-20 -16h-17q-45 0 -161 97q-21 0 -21 28
q29 131 85 287q-85 0 -259 -40q0 -16 -24 -16q-129 -52 -166 -101q-176 -146 -190 -146h-4v8l49 36l-4 5v4q32 6 32 16v12h-16l12 16v4q-40 -11 -77 -48q0 -14 -49 -33q-57 -53 -157 -121q0 -11 -85 -65q-3 -10 -41 -28q0 -13 -121 -81q0 -18 -65 -41q-34 -40 -162 -85
q-74 -50 -218 -89q-77 -13 -77 -24v-4h-32l-37 -12q-106 0 -162 61v-4l4 -4v-4h-4l-12 12l4 12h-4q-14 7 -20 24q92 175 409 344l174 81q15 0 64 36l12 4l4 -4h5q152 50 190 73q0 23 77 37v-9q111 37 137 37q38 20 194 48q97 26 97 45h13v-8h4q36 20 538 473q1 13 526 518
q97 75 279 255zM838 574l-29 4q-40 -15 -40 -45q-10 0 -29 -24q-46 -17 -145 -121l8 -8h8l8 8l28 -4h4q181 0 183 24l133 263h-4q-76 -48 -121 -97h-4zM579 566h4l-25 -25h-4zM514 501v-4l-24 -20h-4v8zM579 444h4l28 29h-4zM498 392v-4q60 24 60 52l17 8v9h-4zM587 420
l-8 -12h4l16 8v4h-12zM724 363h4q53 0 89 13v4h-32q-61 0 -61 -17zM150 242l-24 4q0 -8 -57 -20q0 -7 -113 -45q-38 0 -417 -157q-108 -53 -202 -122h4l52 20q22 26 73 41q30 40 97 40v4h-8v9q132 72 170 72h4v-4q-123 -50 -138 -64h5l210 89l409 133l8 16v8zM263 189
q12 0 12 -8q-12 0 -12 -8h4q65 48 77 69h-4q-56 -23 -77 -53zM-198 84h-8v8h-4q-31 -40 -65 -40l-12 4l-223 -109q-17 0 -72 -45q-67 -24 -85 -48q-35 -23 -65 -57l-69 -53l-20 5l-12 -13v-4l4 4h12v-8q-93 -82 -93 -113v-8l48 -4q195 0 672 303q277 207 307 239q20 9 65 61
v4q-74 0 -206 -61zM-166 177v-4h4l12 4v4h-4zM142 40h4v-8l-20 -16l-9 8zM93 28h4v-4l-24 -21h-4q3 14 24 25zM93 -1h8v-8h-16zM45 -9h4l-8 -8h-4zM77 -9h8v-4l-28 -24h-8v4zM-48 -78v-4q0 -16 -73 -56q0 -16 -89 -57q96 81 129 97q0 20 33 20zM-457 -332v-4q0 -10 -57 -29
v8zM-550 -373h12q-8 -16 -24 -16v4zM-578 -393v-8l-45 -12v8zM1844 1585q-66 0 -68 111q80 71 84 140l1 4q0 15 -24 32l-4 25q22 16 51 16q49 0 146 -12l20 -4q-1 -27 -52 -141q19 0 192 64l81 37v-8l102 53h5l-1 -8l-15 -16h5q14 13 101 41q66 37 111 37q-62 -42 -321 -171
l-233 -111q-146 -79 -181 -89z" />
    <glyph glyph-name="abreve" unicode="&#x103;" 
d="M1104 684h19l34 -58q0 -68 -178 -163q0 -8 -78 -54q0 -20 -159 -150q0 -26 -67 -75q-24 -40 -34 -40l-62 -93h-15v4l43 84q-70 -81 -96 -217l-5 -57l5 -5h5l-5 -4v-18q8 -49 53 -49h24q52 9 125 36q0 -21 -144 -67l-34 -4q-72 0 -72 120q0 163 178 398l34 62l-154 -93
l4 -4l-231 -124l-140 -84q-48 -18 -48 -31q-64 0 -106 97v4q5 58 294 266q91 53 111 53q108 103 482 217l188 45l19 -5zM386 237h4l295 168v4h-5q-152 -77 -294 -172zM554 46h20l-10 -9zM962 709q-66 0 -68 111q80 71 84 140l1 4q0 15 -24 32l-4 25q22 16 51 16
q49 0 146 -12l20 -4q-1 -27 -52 -141q19 0 192 64l81 37v-8l102 53h5l-1 -8l-15 -16h5q14 13 101 41q66 37 111 37q-62 -42 -321 -171l-233 -111q-146 -79 -181 -89z" />
    <glyph glyph-name="Ccaron" unicode="&#x10c;" horiz-adv-x="1274" 
 />
    <glyph glyph-name="ccaron" unicode="&#x10d;" horiz-adv-x="922" 
 />
    <glyph glyph-name="Dslash" unicode="&#x110;" horiz-adv-x="1703" 
d="M995 494l-60 4q-120 -16 -120 -28h-4v8h-8v-8h-4l-16 4q-72 -20 -100 -20v8h-24v-4h16v-8h-4l-68 -4q0 -24 -72 -24q-168 -33 -168 -68q-87 -80 -100 -112q-16 -2 -16 -12h4q513 124 1024 264v4l-40 4h-40zM99 314v4q-221 -56 -456 -144q-213 -73 -300 -140
q129 0 704 148l108 140h-4zM-16 792h21l-9 -9h-12v9zM1552 706v-5l43 -4h12v4l-34 5h-21zM244 628v-5h17v5h-17zM185 619v-4h9l42 4v4h-25zM337 619v-4h13l17 4v4h-4zM-316 559v-5h13l12 5v4h-4zM1799 747q-162 50 -232 59q-478 116 -576 116l-4 -4h-4q-46 20 -132 20
q-56 -73 -100 -112q-15 -38 -77 -103l454 60h4q440 0 667 -36zM581 615q-27 -43 -54 -73q-59 -51 -76 -84v-4q394 60 684 60h176l24 -4q330 89 483 163l-51 11l-9 -9h-8l-9 9l4 4l-33 5l-26 -5l-38 5l-67 -9l-85 9q0 -9 -13 -9l-21 4l-55 -8l-25 4l-144 -13h-4l-26 4
l-67 -17v-4h8v-9l-566 -35zM437 692q111 148 262 354q-9 38 -52 132l-4 32v8q0 94 104 224q149 156 264 200l104 48l16 -4l32 12h4q46 0 64 -80q28 -20 28 -40q0 -35 -56 -112q-54 -116 -208 -344q0 -20 204 -56q527 -112 752 -232q66 -46 92 -168v-8q0 -30 -152 -112
q-20 0 -164 -64h-8v-8l236 -52v-8h-4q-153 28 -192 28h-16l-16 -4l-88 16l-212 -56q-29 0 -100 -24l-112 -20l-12 8q-91 -32 -348 -76q-267 -64 -312 -64l-404 -100l-68 -76l-84 -88l4 -4v-4q-11 -24 -40 -24q-56 -63 -56 -76h-4l-4 4h-4q-82 -86 -284 -348l-4 -4h-4l-4 4v4
q32 36 32 52q-28 -15 -28 -32h-8v4q186 278 372 532h-4q-47 0 -476 -96q-140 -24 -204 -24q0 12 -48 24q-5 11 -36 28v4q0 51 68 72q251 144 800 292q176 34 176 56q55 70 141 183q-24 -1 -51 -3l-17 8q0 -8 -34 -13l-21 -8l-5 -4l-12 -5v13l-34 -17l-38 4l-17 -4l-13 4
l-4 -4h-4l-47 9q-53 -31 -76 -31h-4v9l-38 -9l-4 5q-117 -26 -220 -35l-21 4l-38 -8l-72 8h-17q-89 31 -89 91v9q0 39 127 78q188 78 279 82v-9q-59 0 -152 -48q-10 0 -26 -17q-49 -11 -139 -60l4 -5v-4q-19 -22 -34 -22q5 -17 42 -17l778 104l51 4v-8h-4q-69 0 -123 -31h5z
" />
    <glyph glyph-name="dcroat" unicode="&#x111;" horiz-adv-x="865" 
d="M1394 1152v-4h17l13 13v4h-4zM1105 900l-30 -37h4l30 37h-4zM937 690h8l29 42v5h-4zM962 674v-5l-9 -8v4zM953 661v-4l-29 -30v9q0 7 29 25zM890 594h5l8 8v4zM256 182h4q270 160 370 240h-4q-98 -32 -286 -164q-13 0 -84 -76zM1470 1047q208 176 403 370l13 25h-4
q-74 -15 -198 -105l-101 -59l-42 -16v-5q17 0 17 -8q0 -10 -50 -29v-5h-30l5 -21q-30 -8 -51 -37l9 -9q-19 -24 -101 -54l-100 -88q110 20 230 41zM1147 900v-4l4 4h4v-4l-63 -59q-12 -24 -59 -54l-25 -30q-25 -21 -92 -117h-5v4l21 38h-4q-8 0 -50 -63l12 -4l17 21
q0 -14 9 -21v-5q222 189 327 257q48 37 95 75q-96 -18 -191 -38zM1051 880q-318 -95 -318 -111q19 -14 47 -14v-9h-28l-24 -5q-76 0 -76 76v38q0 19 280 90q97 20 204 41q13 20 90 82q95 100 185 181q30 43 240 189q211 126 306 126q35 0 59 -34v-16q-30 -93 -168 -210
q0 -9 -42 -51q0 -18 -176 -164l-26 -24q292 43 669 74v-9h-5q-119 0 -379 -86l-76 -9l5 -5v-9h-10v9h-23l4 -5v-9h-9v9h-19l5 -4v-10h-19v10h-14l4 -5v-10h-4q-121 -19 -239 -39l-209 -188q-155 -122 -193 -168l-223 -177q-66 -62 -155 -130q-14 -34 -21 -34l-4 5h-4
l-101 -177q-30 -60 -38 -109q-10 0 -42 -139l13 -46l-5 -4h-4q-46 49 -46 113q0 75 59 252h-4q-285 -176 -349 -176q-106 17 -151 55q-17 32 -17 50q24 133 281 336q325 204 525 256l68 -33q86 115 177 227z" />
    <glyph glyph-name="Itilde" unicode="&#x128;" horiz-adv-x="1163" 
d="M2323 1570h277v-9q-142 -29 -330 -44q0 -13 -165 -19v-5h24v-10h-19l-5 5q-150 -25 -150 -58h-39v-5h53l29 5v-10q-106 -34 -534 -92q-52 -2 -359 -340l-252 -248q-112 -141 -136 -145h-5q20 22 20 34h-5q-19 0 -102 -107q-16 0 -102 -87q-11 0 -68 -68l-15 -5l5 -24v-5
h-9v-5h9q280 53 350 53q311 54 364 54v-10q-175 -34 -622 -170q-144 -50 -237 -102q-13 -17 -73 -39q-46 -18 -223 -208q-33 -6 -107 -102q-16 -28 -34 -39h-5q114 153 262 325v5q-198 -19 -306 -49h-14v-4h19q121 15 121 29h25v-10h-10v-5l24 5h39v-10l-39 -9l-5 4h-4
l-112 -24l-175 -58q-159 -69 -412 -97q-59 0 -78 48l-19 15l-5 5v14l14 20q-19 0 -19 14v20q46 66 359 141q103 34 364 92q20 0 20 -34q172 43 364 77l747 932q29 37 68 58l-5 5v10q20 0 82 73h5v5h-5l-87 -10v10q56 0 117 19v5h-10l-112 -10v10q156 8 156 29l9 15h-34
q-208 -13 -208 -30h-5l-20 5q-29 -6 -29 -14h10l218 29v-10l-233 -39l-14 5l-20 -14v-5h5l83 10v-10q-238 -30 -238 -58l-112 -15l5 -5v-5l-19 -5v-4h9l68 9l25 -5l-5 15v5h5q0 -15 34 -15l58 5q0 -19 -218 -44q0 -7 -59 -14v-5h25l101 19l25 -4l199 24v-10h-5
q-199 -24 -282 -48q0 -20 -281 -63l-87 -10l-25 63v10l5 5v4l-14 15l19 5v5l-34 14l19 44v5h-9v9q34 0 77 39l102 20l20 -5q112 43 839 126q61 0 136 34l10 -15q566 68 941 68zM1959 1464v-5h20v5h-20zM824 1352v-5h5l68 5v5l-15 5zM950 1323h58l5 -5l5 5h10v-10l-146 -24
v10q13 24 68 24zM863 1303h9l5 -14h-5l-9 10v4zM766 1299h24v-10h-24v10zM741 1294h15v-10h-15v10zM979 1269h29v-9h-29v9zM940 1265h20v-10h-20v10zM901 1260h20v-10h-20v10zM960 1250q0 -13 -78 -29v10q0 13 78 19zM872 1235v-4l-14 -15l-25 5v10h15zM770 1221h15v-10h-15
v10zM702 1206h5v-9l-34 -5h-5v10zM508 1197l-9 -15h4l54 5v5zM567 1197v-5h19v5h-19zM2114 1944q-1 -16 -109 -52v-5h9l38 14v-9q-12 0 -109 -67q-19 0 -19 -19l-96 -48q-152 -71 -195 -71q-82 0 -115 76l5 5v4q-19 0 -33 15q-98 -25 -310 -129l-5 -5q0 -22 -43 -43h-9
q-58 53 -86 119v5q12 14 319 138q125 48 239 48q86 -20 86 -81l14 -9h38l48 19l214 62z" />
    <glyph glyph-name="itilde" unicode="&#x129;" horiz-adv-x="429" 
d="M605 681q61 -27 111 -97l8 -27v-4q-32 -49 -150 -115l-142 -106q-68 -47 -84 -67q-32 -19 -48 -39q-57 -48 -111 -120q-22 0 -22 -22l-9 -13h4q100 39 531 376v-9q-66 -75 -221 -195q-14 -23 -208 -199q-54 -44 -88 -44q-22 0 -22 9l-5 -5h-4q-71 23 -71 67q0 87 230 336
q221 216 301 274zM1364 1000q-1 -16 -109 -52v-5h9l38 14v-9q-12 0 -109 -67q-19 0 -19 -19l-96 -48q-152 -71 -195 -71q-82 0 -115 76l5 5v4q-19 0 -33 15q-98 -25 -310 -129l-5 -5q0 -22 -43 -43h-9q-58 53 -86 119v5q12 14 319 138q125 48 239 48q86 -20 86 -81l14 -9h38
l48 19l214 62z" />
    <glyph glyph-name="Utilde" unicode="&#x168;" horiz-adv-x="1346" 
d="M2284 1539h4q83 -40 148 -40l4 -4q18 -20 44 -20l20 -36l-4 -4l4 -4v-4q-54 -34 -92 -72q-74 -38 -128 -80l-84 -56q-48 -16 -100 -60q-133 -93 -220 -164q-12 0 -64 -56q-9 0 -28 -20q-15 0 -52 -36l4 -4v-4q0 -6 -36 -20q-4 -17 -32 -32l-128 -112l4 -4v-8l-8 -8h-8
l-4 4h-4l-16 -20l8 -8q-8 -18 -16 -20h-4l8 12v12l-180 -188q-468 -539 -468 -776q0 -67 56 -108h-8q-20 0 -20 8l-4 -4h-4q-44 0 -72 100v24q0 116 28 172q0 20 24 44q27 91 52 116h-8q0 20 68 136v-8l-32 -68v-4h4q54 112 108 188l108 180l4 12l-40 -48h-4v4l56 92h-4
q-38 -33 -72 -36q-25 -34 -68 -48q0 -16 -96 -56q-10 -20 -84 -48l-64 -40q-47 -36 -476 -272q-128 -44 -168 -44q-27 12 -128 16l-4 4q-8 0 -8 12q7 68 88 156q128 144 384 408q48 40 348 360q165 163 276 296q18 0 24 48l-16 84l4 4q188 0 252 -128l4 -32q0 -79 -100 -132
q-161 -173 -296 -288h-8v8l32 48h-4q-484 -436 -568 -520q-44 -20 -112 -104q-68 -56 -68 -68v-8q290 151 604 352q152 84 476 304q99 70 252 160q160 112 500 384q111 70 212 172v4zM1076 395h8v-4l-16 -20v8zM1048 351h8q0 -21 -12 -24h-4v4zM1020 295v-8l-12 -16v8
q6 16 12 16zM1004 267v-8q-21 -48 -28 -48v8q21 48 28 48zM856 -29h4v-8l-8 -8h-4v8zM2595 1875q-1 -16 -109 -52v-5h9l38 14v-9q-12 0 -109 -67q-19 0 -19 -19l-96 -48q-152 -71 -195 -71q-82 0 -115 76l5 5v4q-19 0 -33 15q-98 -25 -310 -129l-5 -5q0 -22 -43 -43h-9
q-58 53 -86 119v5q12 14 319 138q125 48 239 48q86 -20 86 -81l14 -9h38l48 19l214 62z" />
    <glyph glyph-name="utilde" unicode="&#x169;" horiz-adv-x="727" 
d="M1080 723q77 -34 77 -97v-20q-132 -87 -218 -162l-53 -48h-4v8q-30 -20 -125 -113q-9 0 -33 -25h-8v4l61 85h-4q-93 -67 -292 -295q-60 -84 -60 -121l4 -17v-4h-4q-8 0 -8 33h-4v-25l4 -16l-4 -12l8 -8v-4h-4q-12 0 -17 40v17l5 16l-5 4v4q47 111 178 259l25 40
l-198 -121q-225 -130 -263 -130h-13q-74 37 -113 65l-12 12q0 35 223 251q0 11 157 162l150 170h8q134 -30 134 -77q-11 -31 -61 -69q-5 -17 -287 -279l-57 -65h4q115 63 401 267l376 255zM781 367v-4h8q16 6 16 13zM1765 988q-3 -16 -116 -38v-5l9 -1l40 9l-1 -9
q-13 2 -118 -52q-18 2 -21 -17l-100 -35q-161 -52 -203 -47q-82 11 -104 90l5 5l1 4q-19 3 -32 19q-100 -13 -323 -89l-6 -4q-3 -23 -48 -37l-9 1q-51 60 -70 129v5q15 12 335 97q130 31 242 17q83 -31 75 -91l13 -12l38 -4l50 13l220 34z" />
    <glyph glyph-name="Ohorn" unicode="&#x1a0;" horiz-adv-x="1323" 
d="M1220 1196l4 4v4l-16 4l-84 -40h-4q27 36 260 132q40 26 40 32v8h-4q-44 -15 -60 -32l-148 -56q-9 0 -24 -16l-32 -20h-28v-8q-27 0 -32 -20l4 -4l-4 -4h-8v8q-12 0 -68 -36v-4h8l20 16h4v-4l-84 -64h-8l28 32h-16l-224 -172q0 -14 -36 -20v4q119 103 148 112q0 9 80 80
q12 0 12 20l16 4v4h-12q-47 -47 -176 -136l-4 -28h-20q-13 -2 -64 -60q-10 0 -36 -32q-12 0 -12 -12l4 -64q-12 -43 -156 -144q-8 0 -56 -44q-9 0 -68 -48l-20 -4l-4 4h-4q-140 -148 -140 -168q-64 -120 -64 -236l4 -56q36 -16 72 -16q347 48 1172 704q216 177 356 320
q122 151 128 184q0 48 -44 56h-48l-76 8q-47 -24 -124 -36q-17 -28 -156 -64q-4 -15 -92 -48q-75 -44 -104 -44zM968 1164v-4h4q64 30 64 44h-4zM1112 1164h4q-20 -23 -88 -60q-6 -12 -128 -88q69 63 124 92q63 56 88 56zM940 1092h4v-4q-14 -24 -36 -24v12q17 0 32 16z
M896 1060h4v-4q-63 -72 -104 -80l64 52q0 9 36 32zM700 928h8v-4q-29 -36 -52 -36v8zM660 876v-4l-8 -8v4zM2066 1273q-6 -43 -34 -89q0 -19 -44 -56q0 -18 -48 -68q-2 -20 -224 -232l-64 -60q-12 0 -176 -132q-182 -134 -280 -188q-41 -22 -92 -64q-51 -17 -128 -68
q-36 -14 -196 -108q-174 -94 -388 -168q-26 -24 -148 -40h-60q-37 0 -160 104q-24 50 -24 100q0 224 328 632q254 283 340 328q122 104 324 200l44 8v-12q0 -37 -112 -92q-146 -113 -344 -324l-4 -16q348 325 496 392q173 115 380 184q187 72 376 72q112 0 152 -92
q67 -71 86 -165l129 62q60 39 57 56q-11 2 -31 33l-1 12q-7 49 182 118l4 -4l1 -4l19 1l11 -2q16 -18 33 -21l4 4q15 -31 27 -32q13 -11 15 -31l1 -8q-2 -104 -13 -103q-31 -39 -75 -33q2 -16 -176 -51q1 -6 -86 -11q-33 -15 -84 -24q1 -8 -17 -8z" />
    <glyph glyph-name="ohorn" unicode="&#x1a1;" horiz-adv-x="658" 
d="M389 312l-17 9q-13 0 -86 -73q-45 -30 -89 -81l12 -9h9q23 0 60 43l4 -4h9q59 0 423 260q108 91 132 133h-4q-126 -32 -346 -188q-66 -53 -90 -86zM406 115v-4h4q35 15 35 22h-5zM978 619q5 -10 9 -21l5 -25q0 -15 -35 -73q-34 -47 -64 -68q-45 -58 -171 -129
q-182 -131 -209 -141l-4 5l-52 -26l5 -4v-4q-201 -118 -334 -133q-44 7 -68 34l-51 60v4l12 17q-21 3 -21 13q8 21 81 77h9l-47 -47v-4h8q9 0 77 73l-4 4v4l111 86l30 124q286 227 556 256h38q59 0 95 -42l48 25q47 33 45 47q-10 1 -26 25l-2 10q-7 40 143 102l3 -4l1 -3
l15 2l10 -1q13 -14 27 -16l3 3q13 -24 23 -25q10 -8 13 -24l1 -6q2 -85 -7 -84q-23 -33 -59 -29q2 -13 -141 -47q1 -6 -69 -13z" />
    </font>
</defs>
</svg>
